<?xml version="1.0" encoding="UTF-8"?>
<svg width="24px" height="16px" viewBox="0 0 24 16" version="1.1" xmlns="http://www.w3.org/2000/svg" xmlns:xlink="http://www.w3.org/1999/xlink">
    <!-- Generator: Sketch 61.2 (89653) - https://sketch.com -->
    <title>Combined Shape</title>
    <desc>Created with Sketch.</desc>
    <g id="Final" stroke="none" stroke-width="1" fill="none" fill-rule="evenodd">
        <g id="1" transform="translate(-1284.000000, -820.000000)" fill="#000000" fill-rule="nonzero">
            <path d="M1291.99353,820.600154 C1293.90077,820.628476 1295.37888,821.227961 1296.30804,822.475861 C1296.81477,823.172521 1297.08986,823.987088 1297.13569,824.887363 L1297.14256,825.159985 C1297.14256,825.194642 1297.14225,825.229151 1297.14162,825.26351 L1297.20749,825.19182 C1297.33374,825.066882 1297.46425,824.94899 1297.59889,824.838154 C1297.48802,824.664635 1297.41426,824.464528 1297.3892,824.249466 L1297.3797,824.085546 L1297.3797,822.568339 C1297.3797,821.840622 1297.93493,821.242587 1298.64488,821.174748 L1298.7797,821.168339 L1304.07601,821.168339 C1304.80373,821.168339 1305.40176,821.723568 1305.4696,822.433509 L1305.47601,822.568339 L1305.47601,824.085546 C1305.47601,824.332216 1305.41222,824.563986 1305.30023,824.765257 C1305.69327,825.07951 1306.03906,825.456857 1306.33252,825.88791 C1306.83575,826.603063 1307.15787,827.426716 1307.30053,828.340597 C1307.36041,828.721501 1307.39163,829.193152 1307.3985,829.775212 L1307.39992,830.075534 L1307.39773,830.359028 C1307.39633,830.539957 1307.36065,830.712651 1307.29689,830.87097 L1307.2439,830.986917 L1307.189,831.081 L1307.19517,831.09777 C1307.23557,831.214196 1307.26093,831.337268 1307.26903,831.464486 L1307.27129,831.592994 L1307.26155,831.723712 C1307.15722,832.587582 1306.71853,833.394813 1306.0095,834.141444 C1304.90889,835.319098 1303.38933,835.900176 1301.54824,835.900176 C1300.01487,835.900176 1298.63335,835.424263 1297.46052,834.4882 C1297.10782,834.208807 1296.80499,833.887188 1296.55085,833.525838 C1296.26948,833.914232 1295.93442,834.25237 1295.55644,834.532543 C1294.99264,834.959498 1294.33616,835.24729 1293.59677,835.400419 C1293.09234,835.503972 1292.56007,835.564966 1291.99721,835.585222 L1291.56928,835.592803 L1286,835.592803 C1285.27228,835.592803 1284.67425,835.037575 1284.60641,834.327633 L1284.6,834.192803 L1284.6,822 C1284.6,821.272284 1285.15523,820.674248 1285.86517,820.606409 L1286,820.6 L1291.99353,820.600154 Z M1301.4598,824.936144 C1300.12057,824.936144 1299.03303,825.354891 1298.19226,826.186926 C1297.35367,827.021144 1296.93383,828.219514 1296.93383,829.782036 C1296.93383,830.565899 1297.03648,831.247598 1297.24234,831.826678 L1297.31707,832.02145 C1297.54899,832.582906 1297.88638,833.039512 1298.32984,833.390796 C1299.18606,834.074163 1300.16649,834.4412 1301.26984,834.493623 L1301.54824,834.500176 L1301.83858,834.494331 C1303.17311,834.439776 1304.22233,834.003357 1304.98666,833.185517 C1305.45254,832.694886 1305.73854,832.210294 1305.84159,831.734042 L1305.87165,831.555843 L1303.43178,831.555843 L1303.3444,831.707457 C1303.2241,831.900384 1303.08871,832.056483 1302.93933,832.176593 C1302.5992,832.451208 1302.15589,832.589335 1301.61375,832.589335 C1301.09892,832.589335 1300.65997,832.475776 1300.29582,832.249751 C1299.73995,831.914115 1299.42878,831.347744 1299.35285,830.551925 L1299.33876,830.348191 L1305.99777,830.348191 L1306,830.064697 C1306.00111,829.42296 1305.97436,828.919633 1305.91751,828.558006 C1305.80723,827.851541 1305.56483,827.229699 1305.18757,826.693571 C1304.83047,826.169228 1304.39004,825.765622 1303.86556,825.484507 L1303.60922,825.359804 C1302.97209,825.078092 1302.2558,824.936144 1301.4598,824.936144 Z M1291.97274,822 L1286,822 L1286,834.192803 L1291.56928,834.192803 L1291.94038,834.186357 C1292.42774,834.169131 1292.88547,834.117243 1293.31525,834.029017 C1293.85301,833.917642 1294.31762,833.714547 1294.71125,833.416456 C1295.06175,833.156582 1295.35329,832.836652 1295.58587,832.457214 C1295.67935,832.311804 1295.76092,832.161546 1295.83061,832.006467 L1295.89276,831.858908 C1296.0563,831.443376 1296.13783,830.994602 1296.13783,830.51307 C1296.13783,829.812064 1295.97677,829.215882 1295.65684,828.72616 L1295.60619,828.652082 C1295.28405,828.198655 1294.82553,827.865428 1294.22808,827.649538 C1294.64301,827.440983 1294.95693,827.208953 1295.17094,826.956176 C1295.55311,826.503579 1295.74256,825.903575 1295.74256,825.159985 C1295.74256,824.437687 1295.55311,823.818029 1295.17586,823.299372 C1294.58623,822.507567 1293.61176,822.078044 1292.25021,822.009002 L1291.97274,822 Z M1291.50704,828.824978 C1292.03607,828.829346 1292.44882,828.899228 1292.74308,829.031349 C1293.26829,829.269385 1293.52926,829.704511 1293.52926,830.340002 C1293.52926,831.089598 1293.25901,831.595152 1292.71688,831.862123 C1292.41933,832.004618 1292.00059,832.076684 1291.46446,832.076684 L1288.46389,832.076684 L1288.46389,828.824978 L1291.50704,828.824978 Z M1301.46089,826.881926 C1302.0254,826.881926 1302.49711,827.042982 1302.88037,827.366733 C1303.25926,827.692668 1303.47328,828.166011 1303.51641,828.792221 L1299.39718,828.792221 C1299.48453,828.20532 1299.69745,827.740166 1300.03485,827.396761 C1300.37225,827.053356 1300.84942,826.881926 1301.46089,826.881926 Z M1291.15436,824.117212 C1291.74563,824.117212 1292.23262,824.181089 1292.61588,824.30775 C1293.0581,824.490645 1293.27921,824.865716 1293.27921,825.435146 C1293.27921,825.945614 1293.11106,826.302668 1292.77693,826.504671 C1292.44063,826.706674 1292.00441,826.807676 1291.46937,826.807676 L1288.46389,826.807676 L1288.46389,824.117212 L1291.15436,824.117212 Z M1304.07601,822.568339 L1298.7797,822.568339 L1298.7797,824.085546 L1304.07601,824.085546 L1304.07601,822.568339 Z" id="Combined-Shape"></path>
        </g>
    </g>
</svg>