<?xml version="1.0" encoding="UTF-8"?>
<svg width="23px" height="26px" viewBox="0 0 23 26" version="1.1" xmlns="http://www.w3.org/2000/svg" xmlns:xlink="http://www.w3.org/1999/xlink">
    <title>New Black icon 2</title>
    <g id="Final" stroke="none" stroke-width="1" fill="none" fill-rule="evenodd" stroke-linejoin="round">
        <g id="New-Black-icon-2" transform="translate(1.000000, 1.000000)" fill-rule="nonzero" stroke="#282828" stroke-width="1.8">
            <path d="M16.44,16.86 C15.1912405,17.9634835 13.5763056,18.5623997 11.91,18.54 C8.07,18.54 5.25,15.72 5.25,11.85 C5.25,7.98 7.98,5.28 11.91,5.28 C13.5800344,5.2574168 15.2011022,5.8439874 16.47,6.93 L17.31,7.65 L21.03,3.93 L20.1,3.06 C17.8499178,1.04972204 14.9270007,-0.042356877 11.91,-6.65700134e-17 C5.01,-1.9971004e-16 0,4.98 0,11.82 C0,18.66 5.13,23.79 11.91,23.79 C14.9556187,23.8308008 17.9035511,22.7159463 20.16,20.67 L21.06,19.83 L17.28,16.11 L16.44,16.86 Z" id="Path"></path>
            <circle id="Oval" cx="11.73" cy="11.88" r="3.99"></circle>
        </g>
    </g>
</svg>