<?xml version="1.0" encoding="UTF-8"?>
<svg width="22px" height="22px" viewBox="0 0 22 22" version="1.1" xmlns="http://www.w3.org/2000/svg" xmlns:xlink="http://www.w3.org/1999/xlink">
    <!-- Generator: Sketch 64 (93537) - https://sketch.com -->
    <title>Dribble  light@2x</title>
    <desc>Created with Sketch.</desc>
    <g id="Final" stroke="none" stroke-width="1" fill="none" fill-rule="evenodd">
        <g id="Dribble--light" transform="translate(1.000000, 1.000000)" fill="#FFFFFF" fill-rule="nonzero" stroke="#FFFFFF" stroke-width="0.4">
            <g id="dribbble">
                <path d="M13.6283333,19.3083333 C13.645,19.3033333 13.6608333,19.2966667 13.6775,19.2908333 C23.8566667,15.2466667 21.0408333,0 10,0 C4.45916667,0 0,4.51666667 0,10 C0,16.9391667 7.02833333,21.8908333 13.6283333,19.3083333 Z M4.40083333,16.7158333 C5.11083333,15.5225 7.40833333,12.1558333 11.33,10.9941667 C12.15,13.085 12.725,15.5241667 12.7816667,18.29 C9.81,19.2891667 6.67583333,18.6166667 4.40083333,16.7158333 Z M14.0108333,17.7683333 C13.9016667,15.1108333 13.3591667,12.7541667 12.5858333,10.7125 C14.3208333,10.4416667 16.3291667,10.6225 18.6066667,11.535 C18.1225,14.2525 16.385,16.5366667 14.0108333,17.7683333 L14.0108333,17.7683333 Z M18.7375,10.2425 C16.2291667,9.3 14.0183333,9.1825 12.105,9.5475 C11.8091667,8.88083333 11.4983333,8.24 11.1691667,7.65 C14.105,6.4775 15.84,5.04833333 16.6166667,4.29166667 C17.9875,5.87833333 18.8016667,7.9325 18.7375,10.2425 L18.7375,10.2425 Z M15.7291667,3.40166667 C15.0225,4.07416667 13.3583333,5.4325 10.5125,6.54333333 C9.1175,4.33666667 7.62583333,2.78 6.68083333,1.90833333 C9.70416667,0.663333333 13.1908333,1.195 15.7291667,3.40166667 Z M5.48583333,2.51916667 C6.19916667,3.14666667 7.765,4.65333333 9.27583333,6.98333333 C7.20083333,7.65166667 4.59916667,8.1425 1.435,8.21166667 C1.93833333,5.8 3.44166667,3.75666667 5.48583333,2.51916667 Z M1.27666667,9.46666667 C4.81833333,9.40916667 7.685,8.85 9.95083333,8.09333333 C10.2641667,8.6425 10.5616667,9.24083333 10.8475,9.8625 C6.90166667,11.1191667 4.43583333,14.3633333 3.49166667,15.8283333 C1.96833333,14.1283333 1.12833333,11.91 1.27666667,9.46666667 Z" id="Shape"></path>
            </g>
        </g>
    </g>
</svg>