<?xml version="1.0" encoding="UTF-8"?>
<svg width="24px" height="25px" viewBox="0 0 24 25" version="1.1" xmlns="http://www.w3.org/2000/svg" xmlns:xlink="http://www.w3.org/1999/xlink">
    <!-- Generator: Sketch 61 (89581) - https://sketch.com -->
    <title>service3</title>
    <desc>Created with Sketch.</desc>
    <g id="Final" stroke="none" stroke-width="1" fill="none" fill-rule="evenodd">
        <g id="Minimal3-Copy-25" transform="translate(-229.000000, -7441.000000)" stroke="#FFFFFF" stroke-width="2">
            <g id="Group" transform="translate(135.000000, 6588.000000)">
                <g id="service-2" transform="translate(69.000000, 828.000000)">
                    <g id="Business-Feature-/-Style-02">
                        <g id="Icon">
                            <g id="service3" transform="translate(26.000000, 26.000000)">
                                <g id="web-design">
                                    <line x1="19" y1="7" x2="22" y2="7" id="Shape"></line>
                                    <line x1="0" y1="7" x2="11.4" y2="7" id="Shape"></line>
                                    <polyline id="Shape" points="19.3 3 22 3 22 23 0 23 0 3 15.4 3"></polyline>
                                    <line x1="5" y1="3" x2="5" y2="7" id="Shape" stroke-linecap="square"></line>
                                    <path d="M11.6,10.8 L9.6,8.8 L17,1.4 C17.6,0.8 18.4,0.8 19,1.4 L19,1.4 C19.6,2 19.6,2.8 19,3.4 L11.6,10.8 Z" id="Shape" stroke-linecap="square"></path>
                                    <path d="M5.8,11.8 C6.6,11 7.8,11 8.6,11.8 C9.4,12.6 9.4,13.8 8.6,14.6 C7.8,15.4 5.1,15.3 5.1,15.3 C5.1,15.3 5,12.5 5.8,11.8 Z" id="Shape" stroke-linecap="square"></path>
                                </g>
                            </g>
                        </g>
                    </g>
                </g>
            </g>
        </g>
    </g>
</svg>