<?xml version="1.0" encoding="UTF-8"?>
<svg width="24px" height="18px" viewBox="0 0 24 18" version="1.1" xmlns="http://www.w3.org/2000/svg" xmlns:xlink="http://www.w3.org/1999/xlink">
    <!-- Generator: Sketch 64 (93537) - https://sketch.com -->
    <title>Upwork logo dark@2x</title>
    <desc>Created with Sketch.</desc>
    <g id="Final" stroke="none" stroke-width="1" fill="none" fill-rule="evenodd" stroke-linejoin="round">
        <g id="Upwork-logo-dark" transform="translate(2.000000, 2.000000)" fill-rule="nonzero" stroke="#000000" stroke-width="1.7">
            <path d="M3.12889401,-0.85 L3.12889401,5.92913318 C3.12889401,6.27926344 3.27227974,6.59675581 3.50247305,6.82694912 C3.73266635,7.05714242 4.05015872,7.20052814 4.40028897,7.20052814 C4.75041922,7.20052814 5.0679116,7.05714241 5.2981049,6.82694911 C5.5282982,6.59675581 5.67168393,6.27926343 5.67168393,5.92913318 L5.67168393,5.92913318 L5.67168393,-0.85 L9.45088908,-0.85 C9.7380981,0.307755489 10.2438836,1.71757034 10.9310805,3.04309245 C11.2778697,2.46498103 11.6992238,1.97383043 12.1798274,1.57872745 C13.0851858,0.834434754 14.2044543,0.422008306 15.4671756,0.422008306 C16.9502969,0.422008306 18.2959746,1.02526962 19.2708097,1.99921363 C20.2462795,2.97379176 20.85,4.3191076 20.85,5.80068934 C20.85,7.28423219 20.2461914,8.6339536 19.2706794,9.61214066 C18.2956206,10.5898733 16.949941,11.1959438 15.4671756,11.1959438 C14.5670748,11.1959438 13.7434319,11.0133352 12.9911648,10.6962361 L12.9911648,10.6962361 L12.0702827,15.0326855 L7.99926335,15.0326855 L9.53250729,7.8259839 C9.47945169,7.75440062 9.4271475,7.6822218 9.37558759,7.60950547 C9.11363057,8.38613828 8.67545239,9.08345283 8.10875783,9.65227983 C7.1569666,10.6076526 5.84349636,11.2000872 4.39614562,11.2000872 C2.94797081,11.2000872 1.63387911,10.6069594 0.683080709,9.65078987 C-0.268054308,8.69428179 -0.854898359,7.37500105 -0.849974198,5.92913318 L-0.849974198,5.92913318 L-0.849974198,-0.85 L3.12889401,-0.85 Z M15.4671756,4.4049939 C15.0658445,4.4049939 14.7727757,4.55945422 14.5623729,4.78858403 C14.1628238,5.22369506 14.0074438,5.85571926 13.8481763,6.67537877 C14.3530139,7.00490221 14.8927689,7.20881483 15.4671756,7.20881483 C15.8526998,7.20881483 16.2023177,7.0507883 16.456238,6.79733475 C16.7108351,6.54320564 16.8698699,6.19263598 16.8711625,5.80613322 C16.8711578,5.42184862 16.7133999,5.07104612 16.4592527,4.81689893 C16.2051055,4.56275172 15.854303,4.4049939 15.4671756,4.4049939 Z" id="Shape"></path>
        </g>
    </g>
</svg>