<?xml version="1.0" encoding="UTF-8"?>
<svg width="42px" height="31px" viewBox="0 0 42 31" version="1.1" xmlns="http://www.w3.org/2000/svg" xmlns:xlink="http://www.w3.org/1999/xlink">
    <title>icon-white-01</title>
    <g id="Page-1" stroke="none" stroke-width="1" fill="none" fill-rule="evenodd">
        <g id="icon-white-01">
            <rect id="Rectangle" fill="#ED5C37" x="27.0344828" y="12.0344828" width="6.20689655" height="2.75862069" rx="1.37931034"></rect>
            <rect id="Rectangle-Copy" fill="#ED5C37" x="27.0344828" y="17.2068966" width="12.4137931" height="2.75862069" rx="1.37931034"></rect>
            <rect id="Rectangle-Copy-2" fill="#ED5C37" x="27.0344828" y="22.0344828" width="10" height="2.75862069" rx="1.37931034"></rect>
            <circle id="Oval" fill="#ED5C37" cx="5.65517241" cy="5.13793103" r="1.37931034"></circle>
            <circle id="Oval-Copy" fill="#ED5C37" cx="10.4827586" cy="5.13793103" r="1.37931034"></circle>
            <circle id="Oval-Copy-2" fill="#ED5C37" cx="14.9655172" cy="5.13793103" r="1.37931034"></circle>
            <g id="code" transform="translate(0.137931, 0.655172)" fill="#FFFFFF" fill-rule="nonzero">
                <path d="M38.7126593,0.0407931078 L36.5701237,0.0407931078 C36.232112,0.0407931078 35.9582271,0.314678034 35.9582271,0.652689725 C35.9582271,0.990701417 36.232112,1.26458634 36.5701237,1.26458634 L38.7126593,1.26458634 C39.7248179,1.26458634 40.5483492,2.0881176 40.5483492,3.1002762 L40.5483492,5.91500064 L1.22379324,5.91500064 L1.22379324,3.1002762 C1.22379324,2.0881176 2.04724291,1.26458634 3.05948309,1.26458634 L33.8834897,1.26458634 C34.2215013,1.26458634 34.4953863,0.990701417 34.4953863,0.652689725 C34.4953863,0.314678034 34.2215013,0.0407931078 33.8834897,0.0407931078 L3.05948309,0.0407931078 C1.37244332,0.0407931078 0,1.41323643 0,3.1002762 L0,9.8459061 C0,10.1839178 0.273966512,10.4578027 0.611896618,10.4578027 C0.949826723,10.4578027 1.22379324,10.1839178 1.22379324,9.8459061 L1.22379324,7.13879387 L40.5483492,7.13879387 L40.5483492,22.9147941 C40.5483492,23.2528057 40.8222341,23.5266907 41.1602458,23.5266907 C41.4982575,23.5266907 41.7721424,23.2528057 41.7721424,22.9147941 L41.7721424,3.1002762 C41.7721424,1.41323643 40.3996991,0.0407931078 38.7126593,0.0407931078 Z" id="Path"></path>
                <path d="M41.1602458,24.8833063 C40.8222341,24.8833063 40.5483492,25.1571912 40.5483492,25.4952029 L40.5483492,27.0866236 C40.5483492,28.0987822 39.7248179,28.9223135 38.7126593,28.9223135 L3.05948309,28.9223135 C2.04724291,28.9223135 1.22379324,28.0987822 1.22379324,27.0866236 L1.22379324,12.47184 C1.22379324,12.1338283 0.949826723,11.8599434 0.611896618,11.8599434 C0.273966512,11.8599434 0,12.1338283 0,12.47184 L0,27.0866236 C0,28.7736634 1.37244332,30.1461067 3.05948309,30.1461067 L38.7126593,30.1461067 C40.3996991,30.1461067 41.7721424,28.7736634 41.7721424,27.0866236 L41.7721424,25.4952029 C41.7721424,25.1572728 41.4982575,24.8833063 41.1602458,24.8833063 Z" id="Path"></path>
                <path d="M8.85063585,13.3358381 C8.61166982,13.0969536 8.22421689,13.0969536 7.98533245,13.3358381 L4.30824171,17.0129288 C4.1934499,17.1277206 4.12899679,17.2833055 4.12899679,17.4456621 C4.12899679,17.6080187 4.1934499,17.763522 4.30824171,17.8783954 L7.93670706,21.5068607 C8.05614928,21.626303 8.21279482,21.6860241 8.36935876,21.6860241 C8.52592271,21.6860241 8.68256825,21.626303 8.80201047,21.5068607 C9.04097649,21.2678131 9.04097649,20.8804418 8.80201047,20.6414757 L5.60619681,17.4457437 L8.85063585,14.2013046 C9.08968346,13.962257 9.08968346,13.5748857 8.85063585,13.3358381 L8.85063585,13.3358381 Z" id="Path"></path>
                <path d="M17.0795847,21.5067791 C17.199027,21.6262214 17.3556725,21.6859425 17.5122364,21.6859425 C17.6688004,21.6859425 17.8254459,21.6262214 17.9448881,21.5067791 L21.5734351,17.8783138 C21.6881453,17.763522 21.7525984,17.6079371 21.7525984,17.4455805 C21.7525984,17.2832239 21.6881453,17.1277206 21.5734351,17.0128472 L17.8962628,13.3357565 C17.6572967,13.096872 17.2698438,13.096872 17.0309594,13.3357565 C16.7919933,13.5748041 16.7919933,13.9621754 17.0309594,14.2011415 L20.27548,17.4455805 L17.0796663,20.6413126 C16.8406187,20.8804418 16.8406187,21.2678131 17.0795847,21.5067791 L17.0795847,21.5067791 Z" id="Path"></path>
                <path d="M10.7685646,23.7606799 C11.0153629,23.7606799 11.2479652,23.610235 11.3407287,23.3657211 L15.6887845,11.9111796 C15.8087163,11.5951961 15.6497863,11.2418462 15.3338845,11.1219145 C15.0179827,11.0019012 14.6645512,11.1609127 14.544701,11.4768145 L10.1966452,22.9315192 C10.0767135,23.2474211 10.2356434,23.600771 10.5515453,23.7207027 C10.6230148,23.7478709 10.6963608,23.7606799 10.7685646,23.7606799 L10.7685646,23.7606799 Z" id="Path"></path>
                <path d="M2.69283463,3.62006198 C2.69283463,4.63222057 3.51628431,5.45575183 4.52852449,5.45575183 C5.54076467,5.45575183 6.36421434,4.63222057 6.36421434,3.62006198 C6.36421434,2.60790338 5.54076467,1.78437212 4.52852449,1.78437212 C3.51628431,1.78437212 2.69283463,2.60790338 2.69283463,3.62006198 L2.69283463,3.62006198 Z M5.14042111,3.62006198 C5.14042111,3.95750256 4.86596508,4.23195859 4.52852449,4.23195859 C4.1910839,4.23195859 3.91662787,3.95750256 3.91662787,3.62006198 C3.91662787,3.28262139 4.1910839,3.00816536 4.52852449,3.00816536 C4.86596508,3.00816536 5.14042111,3.28262139 5.14042111,3.62006198 Z" id="Shape"></path>
                <path d="M7.43788894,3.62006198 C7.43788894,4.63222057 8.26133861,5.45575183 9.27357879,5.45575183 C10.285819,5.45575183 11.1092686,4.63222057 11.1092686,3.62006198 C11.1092686,2.60790338 10.285819,1.78437212 9.27357879,1.78437212 C8.26133861,1.78437212 7.43788894,2.60790338 7.43788894,3.62006198 L7.43788894,3.62006198 Z M9.88547541,3.62006198 C9.88547541,3.95750256 9.61101938,4.23195859 9.27357879,4.23195859 C8.9361382,4.23195859 8.66168217,3.95750256 8.66168217,3.62006198 C8.66168217,3.28262139 8.9361382,3.00816536 9.27357879,3.00816536 C9.61101938,3.00816536 9.88547541,3.28262139 9.88547541,3.62006198 Z" id="Shape"></path>
                <path d="M12.1828617,3.62006198 C12.1828617,4.63222057 13.0063113,5.45575183 14.0185515,5.45575183 C15.0307917,5.45575183 15.8542414,4.63222057 15.8542414,3.62006198 C15.8542414,2.60790338 15.0307917,1.78437212 14.0185515,1.78437212 C13.0063113,1.78437212 12.1828617,2.60790338 12.1828617,3.62006198 L12.1828617,3.62006198 Z M14.6304481,3.62006198 C14.6304481,3.95750256 14.3559921,4.23195859 14.0185515,4.23195859 C13.6811109,4.23195859 13.4066549,3.95750256 13.4066549,3.62006198 C13.4066549,3.28262139 13.6811109,3.00816536 14.0185515,3.00816536 C14.3559921,3.00816536 14.6304481,3.28262139 14.6304481,3.62006198 Z" id="Shape"></path>
                <path d="M27.3721754,13.9812666 L31.2067275,13.9812666 C32.2188861,13.9812666 33.0424174,13.1577353 33.0424174,12.1455768 C33.0424174,11.1334182 32.2188861,10.3098869 31.2067275,10.3098869 L27.3721754,10.3098869 C26.3600168,10.3098869 25.5364855,11.1334182 25.5364855,12.1455768 C25.5364855,13.1577353 26.3600168,13.9812666 27.3721754,13.9812666 Z M27.3721754,11.5336801 L31.2067275,11.5336801 C31.5441681,11.5336801 31.8186241,11.8081362 31.8186241,12.1455768 C31.8186241,12.4830173 31.5441681,12.7574734 31.2067275,12.7574734 L27.3721754,12.7574734 C27.0347348,12.7574734 26.7602787,12.4830173 26.7602787,12.1455768 C26.7602787,11.8081362 27.0347348,11.5336801 27.3721754,11.5336801 Z" id="Shape"></path>
                <path d="M27.3721754,18.8764396 L37.4888661,18.8764396 C38.5010247,18.8764396 39.324556,18.0529083 39.324556,17.0407497 C39.324556,16.0285911 38.5010247,15.2050598 37.4888661,15.2050598 L27.3721754,15.2050598 C26.3600168,15.2050598 25.5364855,16.0285911 25.5364855,17.0407497 C25.5364855,18.0529083 26.3600168,18.8764396 27.3721754,18.8764396 Z M27.3721754,16.4288531 L37.4888661,16.4288531 C37.8263067,16.4288531 38.1007627,16.7033091 38.1007627,17.0407497 C38.1007627,17.3781903 37.8263067,17.6526463 37.4888661,17.6526463 L27.3721754,17.6526463 C27.0347348,17.6526463 26.7602787,17.3781903 26.7602787,17.0407497 C26.7602787,16.7033091 27.0347348,16.4288531 27.3721754,16.4288531 Z" id="Shape"></path>
                <path d="M27.3721754,23.7716125 L34.4836379,23.7716125 C35.4957964,23.7716125 36.3193277,22.9480812 36.3193277,21.9359226 C36.3193277,20.923764 35.4957964,20.1002328 34.4836379,20.1002328 L27.3721754,20.1002328 C26.3600168,20.1002328 25.5364855,20.923764 25.5364855,21.9359226 C25.5364855,22.9480812 26.3600168,23.7716125 27.3721754,23.7716125 Z M27.3721754,21.324026 L34.4836379,21.324026 C34.8210784,21.324026 35.0955345,21.5984821 35.0955345,21.9359226 C35.0955345,22.2733632 34.8210784,22.5478193 34.4836379,22.5478193 L27.3721754,22.5478193 C27.0347348,22.5478193 26.7602787,22.2733632 26.7602787,21.9359226 C26.7602787,21.5984821 27.0347348,21.324026 27.3721754,21.324026 Z" id="Shape"></path>
            </g>
        </g>
    </g>
</svg>