<?xml version="1.0" encoding="UTF-8"?>
<svg width="36px" height="47px" viewBox="0 0 36 47" version="1.1" xmlns="http://www.w3.org/2000/svg" xmlns:xlink="http://www.w3.org/1999/xlink">
    <title>icon-white-02</title>
    <g id="Page-1" stroke="none" stroke-width="1" fill="none" fill-rule="evenodd">
        <g id="icon-white-02">
            <path d="M17.3965517,3.25862069 L16.2244141,4.94038343 C15.7191172,5.66537461 15.616661,6.59738748 15.9523978,7.4148335 L16.7059136,9.24948076 C16.8346378,9.56289612 16.9008621,9.89844967 16.9008621,10.2372698 L16.9008621,10.7586207 C16.9008621,11.3299497 17.3640158,11.7931034 17.9353448,11.7931034 L20.7940004,11.7931034 C21.2573692,11.7931034 21.6330039,11.4174688 21.6330039,10.9540999 C21.6330039,10.8882599 21.6252538,10.8226487 21.6099138,10.7586207 C21.4515377,10.0975725 21.5688119,9.40054031 21.934785,8.82771282 L22.4505031,8.02050185 C22.9958228,7.16695803 22.9958228,6.07442128 22.4505031,5.22087746 L21.2462388,3.33594196 C20.5579543,2.25862714 19.1266533,1.94325572 18.0493385,2.63154019 C17.7925953,2.79557053 17.570759,3.00867109 17.3965517,3.25862069 Z" id="Path-2" fill="#ED5C37"></path>
            <g id="coding-(1)" transform="translate(0.241379, 0.068966)" fill="#FFFFFF" fill-rule="nonzero">
                <circle id="Oval" cx="8.34223569" cy="13.3076088" r="1"></circle>
                <circle id="Oval" cx="11.3890775" cy="13.3076088" r="1"></circle>
                <circle id="Oval" cx="14.436009" cy="13.3076088" r="1"></circle>
                <path d="M34.4844326,23.9333621 C34.3595429,23.7478655 34.1505567,23.6366034 33.926867,23.6366034 L29.8942664,23.6366034 L29.8942664,12.1642362 C29.8942664,11.1392085 29.0603835,10.3055049 28.0355351,10.3055049 L20.0265477,10.3055049 L20.0265477,8.95646336 L21.7008583,6.03953191 C21.8342652,5.80705601 21.8167825,5.51764907 21.656479,5.30283525 L18.0229336,0.437069029 C17.9276302,0.181820716 17.681706,0 17.393106,0 C17.1045956,0 16.8585817,0.181820716 16.7632783,0.437069029 L13.1298226,5.3029249 C12.9694295,5.51764907 12.9520364,5.80714567 13.0854433,6.03962156 L14.7598435,8.95655302 L14.7598435,10.3055946 L6.57154578,10.3055946 C5.5466077,10.3055946 4.71281447,11.1394775 4.71281447,12.1643259 L4.71281447,23.6366931 L0.680213891,23.6366931 C0.456524204,23.6366931 0.247537967,23.7478655 0.122648294,23.9334517 C-0.00224137963,24.119038 -0.0266275901,24.3545621 0.0574689738,24.5617553 L2.41073828,30.3548251 L2.41073828,44.4533719 C2.41073828,45.2530065 3.06136596,45.9035446 3.8609109,45.9035446 L30.8357355,45.9035446 C31.6353701,45.9035446 32.2859081,45.2529169 32.2859081,44.4533719 L32.2859081,30.1549837 C32.2859081,30.1482595 32.2858185,30.141625 32.2855495,30.1349906 L34.5494326,24.5616656 C34.6337085,24.3544725 34.6092326,24.1189483 34.4844326,23.9333621 Z M17.393106,5.64567668 C17.5660508,5.64567668 17.7067198,5.78634566 17.7067198,5.95929052 C17.7067198,6.13223537 17.5660508,6.27290435 17.393106,6.27290435 C17.2201611,6.27290435 17.0794921,6.13223537 17.0794921,5.95929052 C17.0794921,5.78634566 17.2201611,5.64567668 17.393106,5.64567668 Z M14.4709745,5.7532629 L16.720961,2.74022109 L16.720961,4.44384892 C16.1407127,4.70223516 15.7352023,5.28427663 15.7352023,5.95929052 C15.7352023,6.87341479 16.478892,7.61710455 17.3930163,7.61710455 C18.3071406,7.61710455 19.0508303,6.87341479 19.0508303,5.95929052 C19.0508303,5.28418697 18.6453199,4.70223516 18.0650716,4.44384892 L18.0650716,2.74031074 L20.3150581,5.75335256 L18.7712855,8.4426495 C18.7128303,8.54440813 18.6819889,8.65979435 18.6819889,8.77715299 L18.6819889,10.3055049 L16.1036851,10.3055049 L16.1036851,8.77715299 C16.1036851,8.6597047 16.0729334,8.54431848 16.0143885,8.4426495 L14.4709745,5.7532629 Z M6.57154578,11.6497948 L28.0355351,11.6497948 C28.3192041,11.6497948 28.5500662,11.8806569 28.5500662,12.1643259 L28.5500662,15.055078 L6.05701467,15.055078 L6.05701467,12.1643259 L6.05701467,12.1643259 C6.05701467,11.8805672 6.28787677,11.6497948 6.57154578,11.6497948 Z M6.05701467,16.3992782 L28.5499765,16.3992782 L28.5499765,23.6366034 L24.9169691,23.6366034 C24.6448656,23.6366034 24.3997484,23.8005827 24.2957483,24.0520655 L22.0515894,29.4828387 L6.05701467,29.4828387 L6.05701467,16.3992782 Z M1.67870369,24.9808933 L4.71281447,24.9808933 L4.71281447,29.4829284 L3.50740051,29.4829284 L1.67870369,24.9808933 Z M30.9418872,44.4533719 C30.9418872,44.5118271 30.8941907,44.5593444 30.8358251,44.5593444 L23.2761896,44.5593444 L23.2761896,41.5359026 C23.2761896,41.1646404 22.9753068,40.8637576 22.6040446,40.8637576 C22.2327825,40.8637576 21.9318997,41.1645508 21.9318997,41.5359026 L21.9318997,44.5593444 L3.8609109,44.5593444 C3.80245572,44.5593444 3.75493847,44.5117375 3.75493847,44.4532823 L3.75493847,30.8270389 L21.9319894,30.8270389 L21.9319894,38.8474125 C21.9319894,39.2186746 22.2328722,39.5195574 22.6041343,39.5195574 C22.9753964,39.5195574 23.2762792,39.2187643 23.2762792,38.8474125 L23.2762792,30.8270389 L30.9418872,30.8270389 L30.9418872,44.4533719 L30.9418872,44.4533719 Z M31.0995907,29.4828387 L23.5059758,29.4828387 L25.3663209,24.9808036 L32.9281979,24.9808036 L31.0995907,29.4828387 Z" id="Shape"></path>
                <path d="M8.34214603,19.714996 L12.6436225,19.714996 C13.014795,19.714996 13.3157674,19.4142028 13.3157674,19.042851 C13.3157674,18.6715889 13.0148846,18.3707061 12.6436225,18.3707061 L8.34214603,18.3707061 C7.97097357,18.3707061 7.67009076,18.6714992 7.67009076,19.042851 C7.67009076,19.4141131 7.97097357,19.714996 8.34214603,19.714996 Z" id="Path"></path>
                <path d="M15.3320229,19.714996 L25.4583071,19.714996 C25.8294796,19.714996 26.130452,19.4142028 26.130452,19.042851 C26.130452,18.6715889 25.8295692,18.3707061 25.4583071,18.3707061 L15.3320229,18.3707061 C14.9608504,18.3707061 14.659878,18.6714992 14.659878,19.042851 C14.659878,19.4141131 14.9608504,19.714996 15.3320229,19.714996 Z" id="Path"></path>
                <path d="M8.34214603,22.4033963 L10.4928843,22.4033963 C10.8640567,22.4033963 11.1650292,22.1026032 11.1650292,21.7312514 C11.1650292,21.3599893 10.8641464,21.0591065 10.4928843,21.0591065 L8.34214603,21.0591065 C7.97097357,21.0591065 7.67009076,21.3598996 7.67009076,21.7312514 C7.67009076,22.1025135 7.97097357,22.4033963 8.34214603,22.4033963 Z" id="Path"></path>
                <path d="M25.4583071,21.0591961 L13.0020639,21.0591961 C12.6308915,21.0591961 12.3300087,21.3599893 12.3300087,21.7313411 C12.3300087,22.1026032 12.6308915,22.403486 13.0020639,22.403486 L25.4583071,22.403486 C25.8294796,22.403486 26.130452,22.1026928 26.130452,21.7313411 C26.130452,21.3599893 25.8294796,21.0591961 25.4583071,21.0591961 Z" id="Path"></path>
                <path d="M8.34214603,25.2710174 L15.3320229,25.2710174 C15.7031954,25.2710174 16.0041678,24.9702243 16.0041678,24.5988725 C16.0041678,24.2276104 15.703285,23.9267276 15.3320229,23.9267276 L8.34214603,23.9267276 C7.97097357,23.9267276 7.67009076,24.2275207 7.67009076,24.5988725 C7.67009076,24.9702243 7.97097357,25.2710174 8.34214603,25.2710174 Z" id="Path"></path>
                <path d="M21.1569203,23.9268172 L17.6619819,23.9268172 C17.2908094,23.9268172 16.9898369,24.2276104 16.9898369,24.5989622 C16.9898369,24.9702243 17.2907197,25.2711071 17.6619819,25.2711071 L21.1569203,25.2711071 C21.5280928,25.2711071 21.8290652,24.970314 21.8290652,24.5989622 C21.8289756,24.2276104 21.5280928,23.9268172 21.1569203,23.9268172 Z" id="Path"></path>
                <path d="M18.0204233,26.7048728 L8.34214603,26.7048728 C7.97097357,26.7048728 7.67000111,27.005666 7.67000111,27.3770177 C7.67000111,27.7482799 7.97088391,28.0491627 8.34214603,28.0491627 L18.0204233,28.0491627 C18.3915958,28.0491627 18.6925682,27.7483695 18.6925682,27.3770177 C18.6925682,27.005666 18.3915958,26.7048728 18.0204233,26.7048728 Z" id="Path"></path>
                <path d="M21.1569203,26.7048728 L20.081596,26.7048728 C19.7104235,26.7048728 19.4094511,27.005666 19.4094511,27.3770177 C19.4094511,27.7482799 19.7103339,28.0491627 20.081596,28.0491627 L21.1569203,28.0491627 C21.5280928,28.0491627 21.8290652,27.7483695 21.8290652,27.3770177 C21.8289756,27.005666 21.5280928,26.7048728 21.1569203,26.7048728 Z" id="Path"></path>
                <path d="M10.4752222,34.6531636 C10.2127118,34.3907429 9.78720831,34.3907429 9.52478758,34.6531636 L6.97078032,37.2071709 C6.70826993,37.4697709 6.70826993,37.8951848 6.97078032,38.1576952 L9.4351324,40.6220472 C9.56629793,40.7532128 9.73834623,40.8188404 9.91039453,40.8188404 C10.0824428,40.8188404 10.2544015,40.7532128 10.3856567,40.6220472 C10.6481671,40.3594472 10.6481671,39.9340334 10.3856567,39.671523 L8.39656673,37.682433 L10.4753119,35.6037776 C10.7378222,35.3412672 10.7378222,34.9157637 10.4752222,34.6531636 Z" id="Path"></path>
                <path d="M15.852023,34.6531636 C15.5895126,34.3907429 15.1640091,34.3907429 14.9015884,34.6531636 C14.639078,34.9157637 14.639078,35.3411775 14.9015884,35.6036879 L16.9803335,37.6823434 L14.9911539,39.6714333 C14.7286435,39.9340334 14.7286435,40.3594472 14.9911539,40.6219576 C15.1223194,40.7531231 15.2943677,40.8187507 15.466416,40.8187507 C15.6384643,40.8187507 15.810423,40.7531231 15.9416782,40.6219576 L18.4060302,38.1576055 C18.6685406,37.8950055 18.6685406,37.4695916 18.4060302,37.2070812 L15.852023,34.6531636 Z" id="Path"></path>
                <path d="M13.8713606,34.4566395 C13.5250226,34.3229636 13.1360088,34.4952808 13.0023329,34.8417085 L11.0308154,39.949723 C10.8972292,40.2959713 11.0695464,40.6850748 11.4157948,40.8187507 C11.4954086,40.8495025 11.5771741,40.8640266 11.6576844,40.8640266 C11.9274569,40.8640266 12.1818983,40.7004955 12.2849121,40.4336817 L14.2564296,35.3256672 C14.3900159,34.9794188 14.2176986,34.5903153 13.8713606,34.4566395 Z" id="Path"></path>
            </g>
        </g>
    </g>
</svg>