<?xml version="1.0" encoding="UTF-8"?>
<svg width="116px" height="123px" viewBox="0 0 116 123" version="1.1" xmlns="http://www.w3.org/2000/svg" xmlns:xlink="http://www.w3.org/1999/xlink">
    <title>creative-idea</title>
    <g id="Page-1" stroke="none" stroke-width="1" fill="none" fill-rule="evenodd">
        <g id="creative-idea" fill-rule="nonzero">
            <path d="M68.72,116.34 C67.5614463,118.342336 65.899931,120.007299 63.9,121.17 C62.2133448,122.156105 60.3197523,122.734798 58.37,122.86 C56.4096349,122.982427 54.4506137,122.600263 52.68,121.75 C51.4134663,121.125083 50.2714644,120.274512 49.31,119.24 L68.72,116.34 L68.72,116.34 Z M71.41,95.83 L70.78,98.83 L70.62,100.93 L45.29,104.7 C45.1828562,103.073606 44.9454282,101.458427 44.58,99.87 L71.41,95.87 L71.41,95.83 Z M70.57,105.48 L70.57,106.75 L70.57,107.19 C70.6299779,108.022254 70.6299779,108.857746 70.57,109.69 L70.19,111.52 L46.75,115 L46.34,114.06 L45.42,110.3 L45.42,109.21 L70.59,105.46 L70.57,105.48 Z" id="Shape" fill="#333333"></path>
            <path d="M56.76,3.84 C56.8145944,1.68117855 58.6008433,-0.0291547927 60.76,0.01 L60.76,0.01 L61,0 C63.0726307,0.16413027 64.6543455,1.92159119 64.6,4 L64.6,4 C64.6052575,4.06656301 64.6052575,4.13343699 64.6,4.2 L64.39,12.57 L64.39,12.57 C64.394963,12.6599316 64.394963,12.7500684 64.39,12.84 C64.2269012,14.8930028 62.4992871,16.4675372 60.44,16.44 L60.44,16.44 L60.17,16.44 C58.1169972,16.2769012 56.5424628,14.5492871 56.57,12.49 L56.57,12.49 C56.5647425,12.423437 56.5647425,12.356563 56.57,12.29 L56.77,3.88 L56.76,3.84 Z M14.26,18.5 C12.6721814,17.0281611 12.5781612,14.5478187 14.05,12.96 C15.5218389,11.3721814 18.0021813,11.2781612 19.59,12.75 L25.87,18.6 C26.6253583,19.3131586 27.073641,20.292208 27.12,21.33 C27.1721521,22.3621659 26.8124853,23.3728297 26.12,24.14 C25.4068414,24.8953583 24.427792,25.343641 23.39,25.39 C22.3578341,25.4421521 21.3471703,25.0824853 20.58,24.39 L14.26,18.5 Z M4,61.66 C1.85219833,61.6994261 0.0706970117,60.0069999 1.59876452e-15,57.86 C-0.0503846577,55.707955 1.64820075,53.9199703 3.8,53.86 L12.37,53.57 C14.522045,53.5196153 16.3100297,55.2182008 16.37,57.37 L16.37,57.43 L16.37,57.43 L16.37,57.57 C16.3333963,59.6599663 14.6594684,61.3515145 12.57,61.41 L12.42,61.41 L4,61.66 Z M110.7,49.51 L110.83,49.51 C112.932094,49.3634532 114.773956,50.904963 115,53 L115,53 C115.005774,53.043141 115.005774,53.086859 115,53.13 C115.129072,55.2278245 113.580677,57.0541367 111.49,57.27 L102.96,58.17 C100.80609,58.3909138 98.880914,56.8239105 98.6600001,54.67 C98.4390862,52.5160895 100.00609,50.590914 102.16,50.37 C105.01,50.06 107.87,49.73 110.72,49.46 L110.7,49.51 Z M93.8,15.38 C94.3775715,14.5173081 95.2745246,13.9197338 96.293121,13.7190159 C97.3117174,13.518298 98.3683219,13.7309171 99.23,14.31 L99.23,14.31 C100.094843,14.8838222 100.69295,15.7809828 100.89,16.8 C101.082001,17.8194297 100.870454,18.8735798 100.3,19.74 L95.53,26.87 C94.3287807,28.6732097 91.8932097,29.1612193 90.09,27.96 C88.2867903,26.7587807 87.7987807,24.3232097 89,22.52 L93.78,15.38 L93.8,15.38 Z" id="Shape" fill="#333333"></path>
            <path d="M36.37,82.46 C33.0600369,78.9783505 30.2893917,75.0212489 28.15,70.72 C25.8265067,65.9179335 24.6132129,60.6546311 24.6,55.32 C24.7139012,49.5658201 26.2019339,43.9222676 28.94,38.86 L29,38.75 L29,38.75 C32.4604285,32.7412641 37.8221578,28.0550283 44.24,25.43 C49.2679298,23.4116639 54.7077734,22.6330734 60.1,23.16 C65.4410692,23.6409083 70.6104262,25.2934636 75.24,28 C81.1695057,31.4184703 85.8136758,36.6879524 88.46,43 C90.0023649,46.6983601 90.8628903,50.6452581 91,54.65 C91.1062035,59.3360459 90.2307816,63.9924728 88.43,68.32 C85.43,75.75 78.43,83.71 73.83,91.02 C73.5570813,90.9609582 73.2754457,90.9541718 73,91 L43.35,95.41 C41.8494321,90.6773552 39.4751064,86.2678933 36.35,82.41 L36.37,82.46 Z" id="Path" fill="#F4BB2C"></path>
            <path d="M44.61,57.94 C46.1604691,58.462536 47.5843517,59.3039212 48.79,60.41 C49.7668857,61.2498215 50.6919184,62.1481385 51.56,63.1 C54.1722244,58.8771407 57.0654157,54.834691 60.22,51 C63.0170693,47.530157 66.1049215,44.3051413 69.45,41.36 L70.18,41.07 L78.44,41.07 L76.78,43 C72.2257564,48.0880954 68.0322315,53.4878853 64.23,59.16 C59.6872321,65.5723127 55.571661,72.2768185 51.91,79.23 C49.9954901,75.0288102 47.5305303,71.1010161 44.58,67.55 C42.2729539,64.6441863 39.5225805,62.1199172 36.43,60.07 L44.61,57.94 L44.61,57.94 Z" id="Path" fill="#FFFFFF"></path>
        </g>
    </g>
</svg>