<svg xmlns="http://www.w3.org/2000/svg" xmlns:xlink="http://www.w3.org/1999/xlink" width="1200" height="232" viewBox="0 0 1200 232">
  <defs>
    <filter id="Oval" x="18" y="93" width="42" height="42" filterUnits="userSpaceOnUse">
      <feOffset dy="2" input="SourceAlpha"/>
      <feGaussianBlur stdDeviation="2" result="blur"/>
      <feFlood flood-opacity="0.11"/>
      <feComposite operator="in" in2="blur"/>
      <feComposite in="SourceGraphic"/>
    </filter>
    <filter id="Oval-2" x="165" y="97" width="42" height="42" filterUnits="userSpaceOnUse">
      <feOffset dy="2" input="SourceAlpha"/>
      <feGaussianBlur stdDeviation="2" result="blur-2"/>
      <feFlood flood-opacity="0.11"/>
      <feComposite operator="in" in2="blur-2"/>
      <feComposite in="SourceGraphic"/>
    </filter>
    <filter id="Oval-3" x="447" y="97" width="42" height="42" filterUnits="userSpaceOnUse">
      <feOffset dy="2" input="SourceAlpha"/>
      <feGaussianBlur stdDeviation="2" result="blur-3"/>
      <feFlood flood-opacity="0.11"/>
      <feComposite operator="in" in2="blur-3"/>
      <feComposite in="SourceGraphic"/>
    </filter>
    <filter id="Oval-4" x="585" y="97" width="42" height="42" filterUnits="userSpaceOnUse">
      <feOffset dy="2" input="SourceAlpha"/>
      <feGaussianBlur stdDeviation="2" result="blur-4"/>
      <feFlood flood-opacity="0.11"/>
      <feComposite operator="in" in2="blur-4"/>
      <feComposite in="SourceGraphic"/>
    </filter>
    <filter id="Oval-5" x="711" y="97" width="42" height="42" filterUnits="userSpaceOnUse">
      <feOffset dy="2" input="SourceAlpha"/>
      <feGaussianBlur stdDeviation="2" result="blur-5"/>
      <feFlood flood-opacity="0.11"/>
      <feComposite operator="in" in2="blur-5"/>
      <feComposite in="SourceGraphic"/>
    </filter>
    <filter id="Oval-6" x="855" y="97" width="42" height="42" filterUnits="userSpaceOnUse">
      <feOffset dy="2" input="SourceAlpha"/>
      <feGaussianBlur stdDeviation="2" result="blur-6"/>
      <feFlood flood-opacity="0.11"/>
      <feComposite operator="in" in2="blur-6"/>
      <feComposite in="SourceGraphic"/>
    </filter>
    <filter id="Oval-7" x="972" y="97" width="42" height="42" filterUnits="userSpaceOnUse">
      <feOffset dy="2" input="SourceAlpha"/>
      <feGaussianBlur stdDeviation="2" result="blur-7"/>
      <feFlood flood-opacity="0.11"/>
      <feComposite operator="in" in2="blur-7"/>
      <feComposite in="SourceGraphic"/>
    </filter>
    <filter id="Oval-8" x="1116" y="97" width="42" height="42" filterUnits="userSpaceOnUse">
      <feOffset dy="2" input="SourceAlpha"/>
      <feGaussianBlur stdDeviation="2" result="blur-8"/>
      <feFlood flood-opacity="0.11"/>
      <feComposite operator="in" in2="blur-8"/>
      <feComposite in="SourceGraphic"/>
    </filter>
    <filter id="Oval-9" x="314" y="97" width="42" height="42" filterUnits="userSpaceOnUse">
      <feOffset dy="2" input="SourceAlpha"/>
      <feGaussianBlur stdDeviation="2" result="blur-9"/>
      <feFlood flood-opacity="0.11"/>
      <feComposite operator="in" in2="blur-9"/>
      <feComposite in="SourceGraphic"/>
    </filter>
  </defs>
  <g id="approach-wawes" transform="translate(-123 -3614)">
    <g id="Group_19_Copy" data-name="Group 19 Copy" transform="translate(123 3644)">
      <path id="Path_8_Copy_7" data-name="Path 8 Copy 7" d="M0,96.5C52.732,96.5,66.75,20,133.5,20c55.4,0,66.75,153,133.5,153S333.75,0,400.5,0,467.25,173,534,173,600.75,20,667.5,20c83.61,0,53.481,152.222,133.5,153" fill="none" stroke="#bfbfbf" stroke-miterlimit="10" stroke-width="0.4"/>
      <path id="Path_8_Copy_29" data-name="Path 8 Copy 29" d="M0,173C80.2,173,66.833,20,133.667,20c55.472,0,66.833,153,133.667,153S334.167,0,401,0" transform="translate(799)" fill="none" stroke="#bfbfbf" stroke-miterlimit="10" stroke-width="0.4"/>
      <path id="Path_8_Copy_8" data-name="Path 8 Copy 8" d="M0,84.228c52.732,0,66.75-66.772,133.5-66.772C188.9,17.457,200.25,151,267,151S333.75,0,400.5,0,467.25,151,534,151,600.75,17.457,667.5,17.457,749.6,150.564,801,151" transform="translate(0 11)" fill="none" stroke="#282828" stroke-miterlimit="10" stroke-width="0.4"/>
      <path id="Path_8_Copy_30" data-name="Path 8 Copy 30" d="M0,151C80.2,151,66.833,17.457,133.667,17.457,189.138,17.457,200.5,151,267.333,151S334.167,0,401,0" transform="translate(799 11)" fill="none" stroke="#282828" stroke-miterlimit="10" stroke-width="0.4"/>
      <path id="Path_8_Copy_9" data-name="Path 8 Copy 9" d="M0,69.725c52.732,0,66.75-55.275,133.5-55.275C188.9,14.451,200.25,125,267,125S333.75,0,400.5,0,467.25,125,534,125,600.75,14.451,667.5,14.451,749.6,124.639,801,125" transform="translate(0 24)" fill="none" stroke="#bfbfbf" stroke-miterlimit="10" stroke-width="0.4"/>
      <path id="Path_8_Copy_31" data-name="Path 8 Copy 31" d="M0,125C80.2,125,66.833,14.451,133.667,14.451,189.138,14.451,200.5,125,267.333,125S334.167,0,401,0" transform="translate(799 24)" fill="none" stroke="#bfbfbf" stroke-miterlimit="10" stroke-width="0.4"/>
      <path id="Path_8_Copy_10" data-name="Path 8 Copy 10" d="M0,55.223c52.732,0,66.75-43.777,133.5-43.777C188.9,11.445,200.25,99,267,99S333.75,0,400.5,0,467.25,99,534,99s66.75-87.555,133.5-87.555S749.6,98.714,801,99" transform="translate(0 37)" fill="none" stroke="#ed5c37" stroke-miterlimit="10" stroke-width="2"/>
      <path id="Path_8_Copy_32" data-name="Path 8 Copy 32" d="M0,99c52.8,0,66.833-87.555,133.667-87.555C189.138,11.445,200.5,99,267.333,99S334.167,0,401,0" transform="translate(799 37)" fill="none" stroke="#ed5c37" stroke-miterlimit="10" stroke-width="2"/>
      <path id="Path_8_Copy_11" data-name="Path 8 Copy 11" d="M0,38.488c52.732,0,66.75-30.512,133.5-30.512C188.9,7.977,200.25,69,267,69S333.75,0,400.5,0,467.25,69,534,69,600.75,7.977,667.5,7.977,720.981,68.69,801,69" transform="translate(0 52)" fill="none" stroke="#bfbfbf" stroke-miterlimit="10" stroke-width="0.4"/>
      <path id="Path_8_Copy_33" data-name="Path 8 Copy 33" d="M0,69C80.2,69,66.833,7.977,133.667,7.977,189.138,7.977,200.5,69,267.333,69S334.167,0,401,0" transform="translate(799 52)" fill="none" stroke="#bfbfbf" stroke-miterlimit="10" stroke-width="0.4"/>
      <path id="Path_8_Copy_12" data-name="Path 8 Copy 12" d="M0,21.754c52.732,0,66.75-17.246,133.5-17.246C188.9,4.509,200.25,39,267,39S333.75,0,400.5,0,467.25,39,534,39,600.75,4.509,667.5,4.509,749.6,38.887,801,39" transform="translate(0 67)" fill="none" stroke="#282828" stroke-miterlimit="10" stroke-width="0.4"/>
      <path id="Path_8_Copy_34" data-name="Path 8 Copy 34" d="M0,39C52.8,39,66.833,4.509,133.667,4.509,189.138,4.509,200.5,39,267.333,39S334.167,0,401,0" transform="translate(799 67)" fill="none" stroke="#282828" stroke-miterlimit="10" stroke-width="0.4"/>
      <path id="Path_8_Copy_13" data-name="Path 8 Copy 13" d="M0,7.251C52.732,7.251,66.75,1.5,133.5,1.5,188.9,1.5,200.25,13,267,13S333.75,0,400.5,0,467.25,13,534,13,600.75,1.5,667.5,1.5,749.6,7.214,801,7.251" transform="translate(0 80)" fill="none" stroke="#bfbfbf" stroke-miterlimit="10" stroke-width="0.4"/>
      <path id="Path_8_Copy_35" data-name="Path 8 Copy 35" d="M0,7.251C52.8,7.251,66.833,1.5,133.667,1.5,189.138,1.5,200.5,13,267.333,13S334.167,0,401,0" transform="translate(799 80)" fill="none" stroke="#bfbfbf" stroke-miterlimit="10" stroke-width="0.4"/>
    </g>
    <path id="Line_12_Copy_2" data-name="Line 12 Copy 2" d="M.5.5v110" transform="translate(162 3735)" fill="none" stroke="#bfbfbf" stroke-linecap="square" stroke-miterlimit="10" stroke-width="1"/>
    <path id="Line_12_Copy_6" data-name="Line 12 Copy 6" d="M.5-.5v-110" transform="translate(309 3725)" fill="none" stroke="#bfbfbf" stroke-linecap="square" stroke-miterlimit="10" stroke-width="1"/>
    <path id="Line_12_Copy_7" data-name="Line 12 Copy 7" d="M.5-.5v-110" transform="translate(592 3725)" fill="none" stroke="#bfbfbf" stroke-linecap="square" stroke-miterlimit="10" stroke-width="1"/>
    <path id="Line_12_Copy_8" data-name="Line 12 Copy 8" d="M.5-.5v-110" transform="translate(855 3725)" fill="none" stroke="#bfbfbf" stroke-linecap="square" stroke-miterlimit="10" stroke-width="1"/>
    <path id="Line_12_Copy_9" data-name="Line 12 Copy 9" d="M.5-.5v-110" transform="translate(1117 3725)" fill="none" stroke="#bfbfbf" stroke-linecap="square" stroke-miterlimit="10" stroke-width="1"/>
    <path id="Line_12_Copy_3" data-name="Line 12 Copy 3" d="M.5.5v110" transform="translate(458 3735)" fill="none" stroke="#bfbfbf" stroke-linecap="square" stroke-miterlimit="10" stroke-width="1"/>
    <path id="Line_12_Copy_3-2" data-name="Line 12 Copy 3" d="M.5.5v110" transform="translate(729 3735)" fill="none" stroke="#bfbfbf" stroke-linecap="square" stroke-miterlimit="10" stroke-width="1"/>
    <path id="Line_12_Copy_4" data-name="Line 12 Copy 4" d="M.5.5v110" transform="translate(999 3735)" fill="none" stroke="#bfbfbf" stroke-linecap="square" stroke-miterlimit="10" stroke-width="1"/>
    <path id="Line_12_Copy_5" data-name="Line 12 Copy 5" d="M.5.5v110" transform="translate(1260 3735)" fill="none" stroke="#bfbfbf" stroke-linecap="square" stroke-miterlimit="10" stroke-width="1"/>
    <g id="numbers_copy_16" data-name="numbers copy 16" transform="translate(147 3711)">
      <g transform="matrix(1, 0, 0, 1, -24, -97)" filter="url(#Oval)">
        <circle id="Oval-10" data-name="Oval" cx="15" cy="15" r="15" transform="translate(24 97)" fill="#fafafa"/>
      </g>
      <text id="_01" data-name="01" transform="translate(2 2)" fill="#181818" font-size="12" font-family="Poppins-Medium, Poppins" font-weight="500"><tspan x="7.42" y="13">01</tspan></text>
    </g>
    <g id="numbers_copy_9" data-name="numbers copy 9" transform="translate(294 3715)">
      <g transform="matrix(1, 0, 0, 1, -171, -101)" filter="url(#Oval-2)">
        <circle id="Oval-11" data-name="Oval" cx="15" cy="15" r="15" transform="translate(171 101)" fill="#fafafa"/>
      </g>
      <text id="_01-2" data-name="01" transform="translate(2 2)" fill="#181818" font-size="12" font-family="Poppins-Medium, Poppins" font-weight="500"><tspan x="5.86" y="13">02</tspan></text>
    </g>
    <g id="numbers_copy_17" data-name="numbers copy 17" transform="translate(576 3715)">
      <g transform="matrix(1, 0, 0, 1, -453, -101)" filter="url(#Oval-3)">
        <circle id="Oval-12" data-name="Oval" cx="15" cy="15" r="15" transform="translate(453 101)" fill="#fafafa"/>
      </g>
      <text id="_01-3" data-name="01" transform="translate(2 2)" fill="#181818" font-size="12" font-family="Poppins-Medium, Poppins" font-weight="500"><tspan x="5.452" y="13">04</tspan></text>
    </g>
    <g id="numbers_copy_18" data-name="numbers copy 18" transform="translate(714 3715)">
      <g transform="matrix(1, 0, 0, 1, -591, -101)" filter="url(#Oval-4)">
        <circle id="Oval-13" data-name="Oval" cx="15" cy="15" r="15" transform="translate(591 101)" fill="#fafafa"/>
      </g>
      <text id="_01-4" data-name="01" transform="translate(2 2)" fill="#181818" font-size="12" font-family="Poppins-Medium, Poppins" font-weight="500"><tspan x="5.518" y="13">05</tspan></text>
    </g>
    <g id="numbers_copy_19" data-name="numbers copy 19" transform="translate(840 3715)">
      <g transform="matrix(1, 0, 0, 1, -717, -101)" filter="url(#Oval-5)">
        <circle id="Oval-14" data-name="Oval" cx="15" cy="15" r="15" transform="translate(717 101)" fill="#fafafa"/>
      </g>
      <text id="_01-5" data-name="01" transform="translate(2 2)" fill="#181818" font-size="12" font-family="Poppins-Medium, Poppins" font-weight="500"><tspan x="5.524" y="13">06</tspan></text>
    </g>
    <g id="numbers_copy_20" data-name="numbers copy 20" transform="translate(984 3715)">
      <g transform="matrix(1, 0, 0, 1, -861, -101)" filter="url(#Oval-6)">
        <circle id="Oval-15" data-name="Oval" cx="15" cy="15" r="15" transform="translate(861 101)" fill="#fafafa"/>
      </g>
      <text id="_01-6" data-name="01" transform="translate(2 2)" fill="#181818" font-size="12" font-family="Poppins-Medium, Poppins" font-weight="500"><tspan x="6.22" y="13">07</tspan></text>
    </g>
    <g id="numbers_copy_21" data-name="numbers copy 21" transform="translate(1101 3715)">
      <g transform="matrix(1, 0, 0, 1, -978, -101)" filter="url(#Oval-7)">
        <circle id="Oval-16" data-name="Oval" cx="15" cy="15" r="15" transform="translate(978 101)" fill="#fafafa"/>
      </g>
      <text id="_01-7" data-name="01" transform="translate(2 2)" fill="#181818" font-size="12" font-family="Poppins-Medium, Poppins" font-weight="500"><tspan x="5.476" y="13">08</tspan></text>
    </g>
    <g id="numbers_copy_22" data-name="numbers copy 22" transform="translate(1245 3715)">
      <g transform="matrix(1, 0, 0, 1, -1122, -101)" filter="url(#Oval-8)">
        <circle id="Oval-17" data-name="Oval" cx="15" cy="15" r="15" transform="translate(1122 101)" fill="#fafafa"/>
      </g>
      <text id="_01-8" data-name="01" transform="translate(2 2)" fill="#181818" font-size="12" font-family="Poppins-Medium, Poppins" font-weight="500"><tspan x="5.626" y="13">09</tspan></text>
    </g>
    <g id="numbers_copy_23" data-name="numbers copy 23" transform="translate(443 3715)">
      <g transform="matrix(1, 0, 0, 1, -320, -101)" filter="url(#Oval-9)">
        <circle id="Oval-18" data-name="Oval" cx="15" cy="15" r="15" transform="translate(320 101)" fill="#fafafa"/>
      </g>
      <text id="_01-9" data-name="01" transform="translate(2 2)" fill="#181818" font-size="12" font-family="Poppins-Medium, Poppins" font-weight="500"><tspan x="5.698" y="13">03</tspan></text>
    </g>
  </g>
</svg>
