<?xml version="1.0" encoding="UTF-8"?>
<svg width="1200px" height="209px" viewBox="0 0 1200 209" version="1.1" xmlns="http://www.w3.org/2000/svg" xmlns:xlink="http://www.w3.org/1999/xlink">
    <title>Group 19</title>
    <defs>
        <circle id="path-1" cx="15" cy="15" r="15"></circle>
        <filter x="-23.3%" y="-16.7%" width="146.7%" height="146.7%" filterUnits="objectBoundingBox" id="filter-2">
            <feOffset dx="0" dy="2" in="SourceAlpha" result="shadowOffsetOuter1"></feOffset>
            <feGaussianBlur stdDeviation="2" in="shadowOffsetOuter1" result="shadowBlurOuter1"></feGaussianBlur>
            <feColorMatrix values="0 0 0 0 0   0 0 0 0 0   0 0 0 0 0  0 0 0 0.110249126 0" type="matrix" in="shadowBlurOuter1"></feColorMatrix>
        </filter>
        <circle id="path-3" cx="15" cy="15" r="15"></circle>
        <filter x="-23.3%" y="-16.7%" width="146.7%" height="146.7%" filterUnits="objectBoundingBox" id="filter-4">
            <feOffset dx="0" dy="2" in="SourceAlpha" result="shadowOffsetOuter1"></feOffset>
            <feGaussianBlur stdDeviation="2" in="shadowOffsetOuter1" result="shadowBlurOuter1"></feGaussianBlur>
            <feColorMatrix values="0 0 0 0 0   0 0 0 0 0   0 0 0 0 0  0 0 0 0.110249126 0" type="matrix" in="shadowBlurOuter1"></feColorMatrix>
        </filter>
        <circle id="path-5" cx="15" cy="15" r="15"></circle>
        <filter x="-23.3%" y="-16.7%" width="146.7%" height="146.7%" filterUnits="objectBoundingBox" id="filter-6">
            <feOffset dx="0" dy="2" in="SourceAlpha" result="shadowOffsetOuter1"></feOffset>
            <feGaussianBlur stdDeviation="2" in="shadowOffsetOuter1" result="shadowBlurOuter1"></feGaussianBlur>
            <feColorMatrix values="0 0 0 0 0   0 0 0 0 0   0 0 0 0 0  0 0 0 0.110249126 0" type="matrix" in="shadowBlurOuter1"></feColorMatrix>
        </filter>
        <circle id="path-7" cx="15" cy="15" r="15"></circle>
        <filter x="-23.3%" y="-16.7%" width="146.7%" height="146.7%" filterUnits="objectBoundingBox" id="filter-8">
            <feOffset dx="0" dy="2" in="SourceAlpha" result="shadowOffsetOuter1"></feOffset>
            <feGaussianBlur stdDeviation="2" in="shadowOffsetOuter1" result="shadowBlurOuter1"></feGaussianBlur>
            <feColorMatrix values="0 0 0 0 0   0 0 0 0 0   0 0 0 0 0  0 0 0 0.110249126 0" type="matrix" in="shadowBlurOuter1"></feColorMatrix>
        </filter>
        <circle id="path-9" cx="15" cy="15" r="15"></circle>
        <filter x="-23.3%" y="-16.7%" width="146.7%" height="146.7%" filterUnits="objectBoundingBox" id="filter-10">
            <feOffset dx="0" dy="2" in="SourceAlpha" result="shadowOffsetOuter1"></feOffset>
            <feGaussianBlur stdDeviation="2" in="shadowOffsetOuter1" result="shadowBlurOuter1"></feGaussianBlur>
            <feColorMatrix values="0 0 0 0 0   0 0 0 0 0   0 0 0 0 0  0 0 0 0.110249126 0" type="matrix" in="shadowBlurOuter1"></feColorMatrix>
        </filter>
        <circle id="path-11" cx="15" cy="15" r="15"></circle>
        <filter x="-23.3%" y="-16.7%" width="146.7%" height="146.7%" filterUnits="objectBoundingBox" id="filter-12">
            <feOffset dx="0" dy="2" in="SourceAlpha" result="shadowOffsetOuter1"></feOffset>
            <feGaussianBlur stdDeviation="2" in="shadowOffsetOuter1" result="shadowBlurOuter1"></feGaussianBlur>
            <feColorMatrix values="0 0 0 0 0   0 0 0 0 0   0 0 0 0 0  0 0 0 0.110249126 0" type="matrix" in="shadowBlurOuter1"></feColorMatrix>
        </filter>
    </defs>
    <g id="Page-1" stroke="none" stroke-width="1" fill="none" fill-rule="evenodd">
        <g id="Group-19" transform="translate(0.000000, 1.000000)">
            <path d="M0,96.5 C79,96.5 100,20 200,20 C283,20 300,173 400,173 C500,173 500,0 600,0 C700,0 700,173 800,173 C900,173 900,20 1000,20 C1100,20 1123,96 1200,96.5" id="Path-8" stroke="#BFBFBF" stroke-width="0.4"></path>
            <path d="M0,95.2283237 C79,95.2283237 100,28.4566474 200,28.4566474 C283,28.4566474 300,162 400,162 C500,162 500,11 600,11 C700,11 700,162 800,162 C900,162 900,28.4566474 1000,28.4566474 C1100,28.4566474 1123,94.7919075 1200,95.2283237" id="Path-8-Copy" stroke="#282828" stroke-width="0.4"></path>
            <path d="M0,93.7254335 C79,93.7254335 100,38.4508671 200,38.4508671 C283,38.4508671 300,149 400,149 C500,149 500,24 600,24 C700,24 700,149 800,149 C900,149 900,38.4508671 1000,38.4508671 C1100,38.4508671 1123,93.3641618 1200,93.7254335" id="Path-8-Copy-2" stroke="#BFBFBF" stroke-width="0.4"></path>
            <path d="M0,92.2225434 C79,92.2225434 100,48.4450867 200,48.4450867 C283,48.4450867 300,136 400,136 C500,136 500,37 600,37 C700,37 700,136 800,136 C900,136 900,48.4450867 1000,48.4450867 C1100,48.4450867 1123,91.9364162 1200,92.2225434" id="Path-8-Copy-3" stroke="#ED5C37" stroke-width="2"></path>
            <path d="M0,90.4884393 C79,90.4884393 100,59.9768786 200,59.9768786 C283,59.9768786 300,121 400,121 C500,121 500,52 600,52 C700,52 700,121 800,121 C900,121 900,59.9768786 1000,59.9768786 C1100,59.9768786 1123,90.2890173 1200,90.4884393" id="Path-8-Copy-4" stroke="#BFBFBF" stroke-width="0.4"></path>
            <path d="M0,88.7543353 C79,88.7543353 100,71.5086705 200,71.5086705 C283,71.5086705 300,106 400,106 C500,106 500,67 600,67 C700,67 700,106 800,106 C900,106 900,71.5086705 1000,71.5086705 C1100,71.5086705 1123,88.6416185 1200,88.7543353" id="Path-8-Copy-5" stroke="#282828" stroke-width="0.4"></path>
            <path d="M0,87.2514451 C79,87.2514451 100,81.5028902 200,81.5028902 C283,81.5028902 300,93 400,93 C500,93 500,80 600,80 C700,80 700,93 800,93 C900,93 900,81.5028902 1000,81.5028902 C1100,81.5028902 1123,87.2138728 1200,87.2514451" id="Path-8-Copy-6" stroke="#BFBFBF" stroke-width="0.4"></path>
            <g id="numbers-copy" transform="translate(272.000000, 75.000000)">
                <g id="Oval">
                    <use fill="black" fill-opacity="1" filter="url(#filter-2)" xlink:href="#path-1"></use>
                    <use fill="#FAFAFA" fill-rule="evenodd" xlink:href="#path-1"></use>
                </g>
                <path d="M11.604,19.024 C12.724,19.024 13.524,18.64 14.004,17.872 C14.484,17.104 14.724,16.048 14.724,14.704 C14.724,13.368 14.484,12.318 14.004,11.554 C13.524,10.79 12.724,10.408 11.604,10.408 C10.484,10.408 9.684,10.788 9.204,11.548 C8.724,12.308 8.484,13.36 8.484,14.704 C8.484,16.056 8.724,17.114 9.204,17.878 C9.684,18.642 10.484,19.024 11.604,19.024 Z M11.604,17.728 C10.908,17.728 10.44,17.468 10.2,16.948 C9.96,16.428 9.84,15.68 9.84,14.704 C9.84,13.736 9.96,12.996 10.2,12.484 C10.44,11.972 10.908,11.716 11.604,11.716 C12.292,11.716 12.756,11.974 12.996,12.49 C13.236,13.006 13.356,13.744 13.356,14.704 C13.356,15.68 13.236,16.428 12.996,16.948 C12.756,17.468 12.292,17.728 11.604,17.728 Z M21.696,18.94 L21.696,17.824 L17.676,17.824 C18.3,17.44 18.904,16.982 19.488,16.45 C20.072,15.918 20.554,15.336 20.934,14.704 C21.314,14.072 21.504,13.448 21.504,12.832 C21.504,12.064 21.27,11.462 20.802,11.026 C20.334,10.59 19.688,10.372 18.864,10.372 C18.024,10.372 17.334,10.628 16.794,11.14 C16.254,11.652 15.956,12.392 15.9,13.36 L15.9,13.36 L17.232,13.36 C17.264,12.776 17.404,12.326 17.652,12.01 C17.9,11.694 18.268,11.536 18.756,11.536 C19.228,11.536 19.57,11.664 19.782,11.92 C19.994,12.176 20.1,12.52 20.1,12.952 C20.1,13.68 19.71,14.47 18.93,15.322 C18.15,16.174 17.112,17.044 15.816,17.932 L15.816,17.932 L15.816,18.94 L21.696,18.94 Z" id="02" fill="#181818" fill-rule="nonzero"></path>
            </g>
            <g id="numbers-copy-3" transform="translate(683.000000, 75.000000)">
                <g id="Oval">
                    <use fill="black" fill-opacity="1" filter="url(#filter-4)" xlink:href="#path-3"></use>
                    <use fill="#FAFAFA" fill-rule="evenodd" xlink:href="#path-3"></use>
                </g>
                <path d="M11.196,19.024 C12.316,19.024 13.116,18.64 13.596,17.872 C14.076,17.104 14.316,16.048 14.316,14.704 C14.316,13.368 14.076,12.318 13.596,11.554 C13.116,10.79 12.316,10.408 11.196,10.408 C10.076,10.408 9.276,10.788 8.796,11.548 C8.316,12.308 8.076,13.36 8.076,14.704 C8.076,16.056 8.316,17.114 8.796,17.878 C9.276,18.642 10.076,19.024 11.196,19.024 Z M11.196,17.728 C10.5,17.728 10.032,17.468 9.792,16.948 C9.552,16.428 9.432,15.68 9.432,14.704 C9.432,13.736 9.552,12.996 9.792,12.484 C10.032,11.972 10.5,11.716 11.196,11.716 C11.884,11.716 12.348,11.974 12.588,12.49 C12.828,13.006 12.948,13.744 12.948,14.704 C12.948,15.68 12.828,16.428 12.588,16.948 C12.348,17.468 11.884,17.728 11.196,17.728 Z M21.024,19 L21.024,17.176 L22.212,17.176 L22.212,15.976 L21.024,15.976 L21.024,10.456 L19.56,10.456 L15.348,16.024 L15.348,17.176 L19.644,17.176 L19.644,19 L21.024,19 Z M19.74,15.976 L16.764,15.976 L19.74,12.088 L19.74,15.976 Z" id="04" fill="#181818" fill-rule="nonzero"></path>
            </g>
            <g id="numbers-copy-4" transform="translate(892.000000, 75.000000)">
                <g id="Oval">
                    <use fill="black" fill-opacity="1" filter="url(#filter-6)" xlink:href="#path-5"></use>
                    <use fill="#FAFAFA" fill-rule="evenodd" xlink:href="#path-5"></use>
                </g>
                <path d="M11.262,19.024 C12.382,19.024 13.182,18.64 13.662,17.872 C14.142,17.104 14.382,16.048 14.382,14.704 C14.382,13.368 14.142,12.318 13.662,11.554 C13.182,10.79 12.382,10.408 11.262,10.408 C10.142,10.408 9.342,10.788 8.862,11.548 C8.382,12.308 8.142,13.36 8.142,14.704 C8.142,16.056 8.382,17.114 8.862,17.878 C9.342,18.642 10.142,19.024 11.262,19.024 Z M11.262,17.728 C10.566,17.728 10.098,17.468 9.858,16.948 C9.618,16.428 9.498,15.68 9.498,14.704 C9.498,13.736 9.618,12.996 9.858,12.484 C10.098,11.972 10.566,11.716 11.262,11.716 C11.95,11.716 12.414,11.974 12.654,12.49 C12.894,13.006 13.014,13.744 13.014,14.704 C13.014,15.68 12.894,16.428 12.654,16.948 C12.414,17.468 11.95,17.728 11.262,17.728 Z M19.002,19.048 C19.946,19.048 20.666,18.774 21.162,18.226 C21.658,17.678 21.906,16.96 21.906,16.072 C21.906,15.568 21.812,15.108 21.624,14.692 C21.436,14.276 21.146,13.942 20.754,13.69 C20.362,13.438 19.87,13.312 19.278,13.312 C18.854,13.312 18.466,13.386 18.114,13.534 C17.762,13.682 17.49,13.88 17.298,14.128 L17.298,14.128 L17.298,11.608 L21.486,11.608 L21.486,10.396 L16.038,10.396 L16.038,15.28 L17.37,15.28 C17.498,15.016 17.7,14.804 17.976,14.644 C18.252,14.484 18.574,14.404 18.942,14.404 C19.462,14.404 19.862,14.55 20.142,14.842 C20.422,15.134 20.562,15.536 20.562,16.048 C20.562,16.592 20.426,17.028 20.154,17.356 C19.882,17.684 19.474,17.848 18.93,17.848 C18.49,17.848 18.128,17.724 17.844,17.476 C17.56,17.228 17.382,16.888 17.31,16.456 L17.31,16.456 L15.966,16.456 C16.014,17.24 16.31,17.868 16.854,18.34 C17.398,18.812 18.114,19.048 19.002,19.048 Z" id="05" fill="#181818" fill-rule="nonzero"></path>
            </g>
            <g id="numbers-copy-5" transform="translate(1142.000000, 75.000000)">
                <g id="Oval">
                    <use fill="black" fill-opacity="1" filter="url(#filter-8)" xlink:href="#path-7"></use>
                    <use fill="#FAFAFA" fill-rule="evenodd" xlink:href="#path-7"></use>
                </g>
                <path d="M11.268,19.024 C12.388,19.024 13.188,18.64 13.668,17.872 C14.148,17.104 14.388,16.048 14.388,14.704 C14.388,13.368 14.148,12.318 13.668,11.554 C13.188,10.79 12.388,10.408 11.268,10.408 C10.148,10.408 9.348,10.788 8.868,11.548 C8.388,12.308 8.148,13.36 8.148,14.704 C8.148,16.056 8.388,17.114 8.868,17.878 C9.348,18.642 10.148,19.024 11.268,19.024 Z M11.268,17.728 C10.572,17.728 10.104,17.468 9.864,16.948 C9.624,16.428 9.504,15.68 9.504,14.704 C9.504,13.736 9.624,12.996 9.864,12.484 C10.104,11.972 10.572,11.716 11.268,11.716 C11.956,11.716 12.42,11.974 12.66,12.49 C12.9,13.006 13.02,13.744 13.02,14.704 C13.02,15.68 12.9,16.428 12.66,16.948 C12.42,17.468 11.956,17.728 11.268,17.728 Z M18.948,19.084 C19.58,19.084 20.112,18.958 20.544,18.706 C20.976,18.454 21.3,18.114 21.516,17.686 C21.732,17.258 21.84,16.772 21.84,16.228 C21.84,15.324 21.604,14.624 21.132,14.128 C20.66,13.632 20.008,13.384 19.176,13.384 C18.632,13.384 18.16,13.512 17.76,13.768 C17.36,14.024 17.1,14.368 16.98,14.8 L16.98,14.8 L16.968,14.392 C16.968,13.36 17.12,12.602 17.424,12.118 C17.728,11.634 18.184,11.392 18.792,11.392 C19.632,11.392 20.124,11.864 20.268,12.808 L20.268,12.808 L21.564,12.808 C21.492,12.064 21.234,11.456 20.79,10.984 C20.346,10.512 19.708,10.276 18.876,10.276 C17.764,10.276 16.964,10.652 16.476,11.404 C15.988,12.156 15.744,13.292 15.744,14.812 C15.744,16.14 15.972,17.184 16.428,17.944 C16.884,18.704 17.724,19.084 18.948,19.084 Z M18.9,17.896 C18.308,17.896 17.86,17.722 17.556,17.374 C17.252,17.026 17.1,16.592 17.1,16.072 C17.1,15.552 17.276,15.152 17.628,14.872 C17.98,14.592 18.392,14.452 18.864,14.452 C19.384,14.452 19.796,14.604 20.1,14.908 C20.404,15.212 20.556,15.648 20.556,16.216 C20.556,16.744 20.406,17.156 20.106,17.452 C19.806,17.748 19.404,17.896 18.9,17.896 Z" id="06" fill="#181818" fill-rule="nonzero"></path>
            </g>
            <g id="numbers-copy-2" transform="translate(484.000000, 75.000000)">
                <g id="Oval">
                    <use fill="black" fill-opacity="1" filter="url(#filter-10)" xlink:href="#path-9"></use>
                    <use fill="#FAFAFA" fill-rule="evenodd" xlink:href="#path-9"></use>
                </g>
                <path d="M11.442,19.024 C12.562,19.024 13.362,18.64 13.842,17.872 C14.322,17.104 14.562,16.048 14.562,14.704 C14.562,13.368 14.322,12.318 13.842,11.554 C13.362,10.79 12.562,10.408 11.442,10.408 C10.322,10.408 9.522,10.788 9.042,11.548 C8.562,12.308 8.322,13.36 8.322,14.704 C8.322,16.056 8.562,17.114 9.042,17.878 C9.522,18.642 10.322,19.024 11.442,19.024 Z M11.442,17.728 C10.746,17.728 10.278,17.468 10.038,16.948 C9.798,16.428 9.678,15.68 9.678,14.704 C9.678,13.736 9.798,12.996 10.038,12.484 C10.278,11.972 10.746,11.716 11.442,11.716 C12.13,11.716 12.594,11.974 12.834,12.49 C13.074,13.006 13.194,13.744 13.194,14.704 C13.194,15.68 13.074,16.428 12.834,16.948 C12.594,17.468 12.13,17.728 11.442,17.728 Z M18.846,19.084 C19.726,19.084 20.402,18.862 20.874,18.418 C21.346,17.974 21.582,17.396 21.582,16.684 C21.582,16.1 21.416,15.642 21.084,15.31 C20.752,14.978 20.294,14.728 19.71,14.56 L19.71,14.56 L19.71,14.5 C20.254,14.428 20.676,14.214 20.976,13.858 C21.276,13.502 21.426,13.056 21.426,12.52 C21.426,12.096 21.324,11.712 21.12,11.368 C20.916,11.024 20.614,10.754 20.214,10.558 C19.814,10.362 19.334,10.264 18.774,10.264 C17.886,10.264 17.19,10.494 16.686,10.954 C16.182,11.414 15.902,12.06 15.846,12.892 L15.846,12.892 L17.19,12.892 C17.246,12.412 17.414,12.046 17.694,11.794 C17.974,11.542 18.322,11.416 18.738,11.416 C19.154,11.416 19.482,11.528 19.722,11.752 C19.962,11.976 20.082,12.284 20.082,12.676 C20.082,13.58 19.43,14.024 18.126,14.008 L18.126,14.008 L17.802,14.008 L17.802,15.136 L18.126,15.136 C18.814,15.136 19.34,15.26 19.704,15.508 C20.068,15.756 20.25,16.116 20.25,16.588 C20.25,16.98 20.124,17.3 19.872,17.548 C19.62,17.796 19.258,17.92 18.786,17.92 C18.282,17.92 17.882,17.778 17.586,17.494 C17.29,17.21 17.118,16.828 17.07,16.348 L17.07,16.348 L15.714,16.348 C15.794,17.252 16.11,17.934 16.662,18.394 C17.214,18.854 17.942,19.084 18.846,19.084 Z" id="03" fill="#181818" fill-rule="nonzero"></path>
            </g>
            <path id="Line-12" d="M49,95 L49,204.091 L52.5642122,197.754869 L52.8093429,197.319082 L53.6809184,197.809343 L53.4357878,198.245131 L48.9357878,206.245131 L48.5,207.019864 L48.0642122,206.245131 L43.5642122,198.245131 L43.3190816,197.809343 L44.1906571,197.319082 L44.4357878,197.754869 L48,204.091 L48,95 L49,95 Z" fill="#BFBFBF" fill-rule="nonzero"></path>
            <g id="numbers" transform="translate(33.000000, 75.000000)">
                <g id="Oval">
                    <use fill="black" fill-opacity="1" filter="url(#filter-12)" xlink:href="#path-11"></use>
                    <use fill="#FAFAFA" fill-rule="evenodd" xlink:href="#path-11"></use>
                </g>
                <path d="M13.164,19.024 C14.284,19.024 15.084,18.64 15.564,17.872 C16.044,17.104 16.284,16.048 16.284,14.704 C16.284,13.368 16.044,12.318 15.564,11.554 C15.084,10.79 14.284,10.408 13.164,10.408 C12.044,10.408 11.244,10.788 10.764,11.548 C10.284,12.308 10.044,13.36 10.044,14.704 C10.044,16.056 10.284,17.114 10.764,17.878 C11.244,18.642 12.044,19.024 13.164,19.024 Z M13.164,17.728 C12.468,17.728 12,17.468 11.76,16.948 C11.52,16.428 11.4,15.68 11.4,14.704 C11.4,13.736 11.52,12.996 11.76,12.484 C12,11.972 12.468,11.716 13.164,11.716 C13.852,11.716 14.316,11.974 14.556,12.49 C14.796,13.006 14.916,13.744 14.916,14.704 C14.916,15.68 14.796,16.428 14.556,16.948 C14.316,17.468 13.852,17.728 13.164,17.728 Z M19.764,19 L19.764,10.528 L17.052,10.528 L17.052,11.812 L18.324,11.812 L18.324,19 L19.764,19 Z" id="01" fill="#181818" fill-rule="nonzero"></path>
            </g>
        </g>
    </g>
</svg>