<?xml version="1.0" encoding="UTF-8"?>
<svg width="37px" height="37px" viewBox="0 0 37 37" version="1.1" xmlns="http://www.w3.org/2000/svg" xmlns:xlink="http://www.w3.org/1999/xlink">
    <title>s-icon4</title>
    <g id="Page-1" stroke="none" stroke-width="1" fill="none" fill-rule="evenodd">
        <g id="Group-23" transform="translate(-19.000000, -19.000000)">
            <g id="s-icon4" transform="translate(19.000000, 19.000000)">
                <path d="M13.875,10.7924375 C15.577,10.7924375 16.9575625,12.173 16.9575625,13.875 L16.9575625,13.875 L16.9575625,33.9174375 C16.9575625,35.6194375 15.577,37 13.875,37 L13.875,37 L3.0825625,37 C1.3805625,37 -2.34479103e-13,35.6194375 -2.34479103e-13,33.9174375 L-2.34479103e-13,33.9174375 L-2.34479103e-13,13.875 C-2.34479103e-13,12.173 1.3805625,10.7924375 3.0825625,10.7924375 L3.0825625,10.7924375 Z M32.375,4.40536496e-13 C34.91875,4.40536496e-13 37,2.08125 37,4.625 L37,4.625 L37,29.290125 C37,31.833875 34.91875,33.915125 32.375,33.915125 L32.375,33.915125 L20.040125,33.915125 L20.040125,30.8325625 L32.375,30.8325625 C33.2236875,30.8325625 33.9174375,30.1388125 33.9174375,29.290125 L33.9174375,29.290125 L33.9174375,7.7075625 L3.0825625,7.7075625 C1.9586875,7.7075625 0.9088125,8.015125 -1.17239551e-13,8.5400625 L-1.17239551e-13,8.5400625 L-1.17239551e-13,4.625 C-1.17239551e-13,2.08125 2.08125,4.40536496e-13 4.625,4.40536496e-13 L4.625,4.40536496e-13 Z M13.102625,13.875 L3.852625,13.875 C3.427125,13.875 3.0825625,14.2195625 3.0825625,14.6450625 L3.0825625,14.6450625 L3.0825625,30.8325625 L13.875,30.8325625 L13.875,14.6450625 C13.875,14.2195625 13.5304375,13.875 13.102625,13.875 L13.102625,13.875 Z M26.6215,15.8568125 C27.2204375,15.2463125 28.1963125,15.2370625 28.8021875,15.8290625 C29.410375,16.423375 29.42425,17.39925 28.827625,18.0074375 L28.827625,18.0074375 L26.57525,20.3153125 L27.4100625,21.150125 C27.7430625,21.4808125 27.8401875,21.978 27.662125,22.4104375 C27.4840625,22.842875 27.060875,23.125 26.59375,23.125 L26.59375,23.125 L22.7388125,23.125 C22.1005625,23.125 21.5825625,22.607 21.5825625,21.96875 L21.5825625,21.96875 L21.5825625,18.116125 C21.5825625,17.649 21.8646875,17.2258125 22.297125,17.04775 C22.72725,16.867375 23.22675,16.9668125 23.5574375,17.2975 L23.5574375,17.2975 L24.396875,18.1369375 Z" id="Combined-Shape" fill="#FFFFFF" fill-rule="nonzero"></path>
                <g id="Group"></g>
            </g>
        </g>
    </g>
</svg>