<?xml version="1.0" encoding="UTF-8"?>
<svg width="38px" height="38px" viewBox="0 0 38 38" version="1.1" xmlns="http://www.w3.org/2000/svg" xmlns:xlink="http://www.w3.org/1999/xlink">
    <title>s-icon3</title>
    <g id="Page-1" stroke="none" stroke-width="1" fill="none" fill-rule="evenodd">
        <g id="clock-(3)" transform="translate(-18.000000, -18.000000)" fill="#FFFFFF" fill-rule="nonzero">
            <g id="s-icon3" transform="translate(18.500000, 18.500000)">
                <path d="M18.5,0 C8.29981991,0 0,8.29981991 0,18.5 C0,28.7001801 8.29981991,37 18.5,37 C28.7001801,37 37,28.7001801 37,18.5 C37,8.29981991 28.7001801,0 18.5,0 Z M27.2989044,28.0689849 C26.9985504,28.3699035 26.6027832,28.5200806 26.2098389,28.5200806 C25.8146362,28.5200806 25.4211274,28.3699035 25.1207734,28.0689849 L17.4131928,20.3614044 C17.1241303,20.0723419 16.9620972,19.6816558 16.9620972,19.2723389 L16.9620972,9.25 C16.9620972,8.39918514 17.6537017,7.70758057 18.5045166,7.70758057 C19.355896,7.70758057 20.046936,8.39692684 20.046936,9.25 L20.046936,18.631546 L27.303421,25.8885956 C27.9001769,26.4921265 27.9001769,27.4677124 27.2989044,28.0689849 L27.2989044,28.0689849 Z" id="Shape"></path>
            </g>
        </g>
    </g>
</svg>