<?xml version="1.0" encoding="UTF-8"?>
<svg width="38px" height="38px" viewBox="0 0 38 38" version="1.1" xmlns="http://www.w3.org/2000/svg" xmlns:xlink="http://www.w3.org/1999/xlink">
    <title>s-icon6</title>
    <g id="Page-1" stroke="none" stroke-width="1" fill="none" fill-rule="evenodd">
        <g id="Group-25" transform="translate(-18.000000, -18.000000)" fill="#FFFFFF" fill-rule="nonzero">
            <g id="s-icon6" transform="translate(18.500000, 18.500000)">
                <path d="M6.165125,6.1674375 L6.165125,9.25 L3.0825625,9.25 L3.0825625,27.75 L33.915125,27.75 L33.915125,9.25 L30.8325625,9.25 L30.8325625,6.1674375 L34.3013125,6.1674375 C35.7813125,6.1674375 37,7.3838125 37,8.8638125 L37,8.8638125 L37,28.133875 C37,29.613875 35.7813125,30.8325625 34.3013125,30.8325625 L34.3013125,30.8325625 L21.5825625,30.8325625 L21.5825625,33.915125 L24.665125,33.915125 C25.5184375,33.915125 26.2075625,34.6065625 26.2075625,35.4575625 C26.2075625,36.3085625 25.516125,37 24.665125,37 L24.665125,37 L12.3325625,37 C11.4815625,37 10.7924375,36.3085625 10.7924375,35.4575625 C10.7924375,34.6065625 11.483875,33.915125 12.334875,33.915125 L12.334875,33.915125 L15.4174375,33.915125 L15.4174375,30.8325625 L2.6986875,30.8325625 C1.2186875,30.8325625 -3.55271368e-15,29.613875 -3.55271368e-15,28.133875 L-3.55271368e-15,28.133875 L-3.55271368e-15,8.8638125 C-3.55271368e-15,7.3838125 1.2186875,6.1674375 2.696375,6.1674375 L2.696375,6.1674375 L6.165125,6.1674375 Z M27.75,6.8843125 L27.75,13.4888125 C27.75,14.9780625 26.5405625,16.1875 25.053625,16.1875 L25.053625,16.1875 L11.9486875,16.1875 C10.4594375,16.1875 9.25,14.9780625 9.25,13.4888125 L9.25,13.4888125 L9.25,6.8843125 L17.9658125,11.4306875 C18.2988125,11.6064375 18.698875,11.6064375 19.0341875,11.4306875 L19.0341875,11.4306875 L27.75,6.8843125 Z M20.4263125,-1.65201186e-13 C21.9155625,-1.65201186e-13 23.125,1.2094375 23.125,2.6986875 L23.125,2.6986875 L23.125,3.8549375 L25.0513125,3.8549375 C25.8098125,3.8549375 26.4943125,4.17175 26.9845625,4.675875 L26.9845625,4.675875 L18.5,9.102 L10.01775,4.675875 C10.508,4.17175 11.1901875,3.8549375 11.9486875,3.8549375 L11.9486875,3.8549375 L13.875,3.8549375 L13.875,2.6986875 C13.875,1.2094375 15.0844375,-1.65201186e-13 16.571375,-1.65201186e-13 L16.571375,-1.65201186e-13 Z M20.428625,2.3125 L16.5736875,2.3125 C16.3609375,2.3125 16.1875,2.4859375 16.1875,2.6986875 L16.1875,2.6986875 L16.1875,3.8549375 L20.8125,3.8549375 L20.8125,2.6986875 C20.8125,2.4859375 20.6390625,2.3125 20.428625,2.3125 L20.428625,2.3125 Z" id="Combined-Shape"></path>
            </g>
        </g>
    </g>
</svg>