<?xml version="1.0" encoding="UTF-8"?>
<svg width="38px" height="38px" viewBox="0 0 38 38" version="1.1" xmlns="http://www.w3.org/2000/svg" xmlns:xlink="http://www.w3.org/1999/xlink">
    <title>s-icon1</title>
    <g id="Page-1" stroke="none" stroke-width="1" fill="none" fill-rule="evenodd">
        <g id="ui-(2)-copy" transform="translate(-18.000000, -18.000000)">
            <g id="s-icon1" transform="translate(18.500000, 18.062500)">
                <path d="M15.8013125,35.125 C16.4395625,35.125 16.9575625,35.643 16.9575625,36.28125 C16.9575625,36.9195 16.4395625,37.4375 15.8013125,37.4375 L15.8013125,37.4375 L1.15625,37.4375 C0.518,37.4375 0,36.9195 0,36.28125 C0,35.643 0.518,35.125 1.15625,35.125 L1.15625,35.125 Z M35.84375,35.125 C36.482,35.125 37,35.643 37,36.28125 C37,36.9195 36.482,37.4375 35.84375,37.4375 L35.84375,37.4375 L21.1986875,37.4375 C20.5604375,37.4375 20.0424375,36.9195 20.0424375,36.28125 C20.0424375,35.643 20.5604375,35.125 21.1986875,35.125 L21.1986875,35.125 Z M15.8013125,30.5 C16.4395625,30.5 16.9575625,31.018 16.9575625,31.65625 C16.9575625,32.2945 16.4395625,32.8125 15.8013125,32.8125 L15.8013125,32.8125 L1.15625,32.8125 C0.518,32.8125 0,32.2945 0,31.65625 C0,31.018 0.518,30.5 1.15625,30.5 L1.15625,30.5 Z M35.84375,30.5 C36.482,30.5 37,31.018 37,31.65625 C37,32.2945 36.482,32.8125 35.84375,32.8125 L35.84375,32.8125 L21.1986875,32.8125 C20.5604375,32.8125 20.0424375,32.2945 20.0424375,31.65625 C20.0424375,31.018 20.5604375,30.5 21.1986875,30.5 L21.1986875,30.5 Z M15.8013125,25.875 C16.4395625,25.875 16.9575625,26.393 16.9575625,27.03125 C16.9575625,27.6695 16.4395625,28.1875 15.8013125,28.1875 L15.8013125,28.1875 L1.15625,28.1875 C0.518,28.1875 0,27.6695 0,27.03125 C0,26.393 0.518,25.875 1.15625,25.875 L1.15625,25.875 Z M35.84375,25.875 C36.482,25.875 37,26.393 37,27.03125 C37,27.6695 36.482,28.1875 35.84375,28.1875 L35.84375,28.1875 L21.1986875,28.1875 C20.5604375,28.1875 20.0424375,27.6695 20.0424375,27.03125 C20.0424375,26.393 20.5604375,25.875 21.1986875,25.875 L21.1986875,25.875 Z M15.8013125,21.25 C16.4395625,21.25 16.9575625,21.768 16.9575625,22.40625 C16.9575625,23.0445 16.4395625,23.5625 15.8013125,23.5625 L15.8013125,23.5625 L1.15625,23.5625 C0.518,23.5625 0,23.0445 0,22.40625 C0,21.768 0.518,21.25 1.15625,21.25 L1.15625,21.25 Z M35.84375,21.25 C36.482,21.25 37,21.768 37,22.40625 C37,23.0445 36.482,23.5625 35.84375,23.5625 L35.84375,23.5625 L21.1986875,23.5625 C20.5604375,23.5625 20.0424375,23.0445 20.0424375,22.40625 C20.0424375,21.768 20.5604375,21.25 21.1986875,21.25 L21.1986875,21.25 Z M15.8013125,16.625 C16.4395625,16.625 16.9575625,17.143 16.9575625,17.78125 C16.9575625,18.4195 16.4395625,18.9375 15.8013125,18.9375 L15.8013125,18.9375 L1.15625,18.9375 C0.518,18.9375 0,18.4195 0,17.78125 C0,17.143 0.518,16.625 1.15625,16.625 L1.15625,16.625 Z M35.84375,16.625 C36.482,16.625 37,17.143 37,17.78125 C37,18.4195 36.482,18.9375 35.84375,18.9375 L35.84375,18.9375 L21.1986875,18.9375 C20.5604375,18.9375 20.0424375,18.4195 20.0424375,17.78125 C20.0424375,17.143 20.5604375,16.625 21.1986875,16.625 L21.1986875,16.625 Z M15.8013125,12 C16.4395625,12 16.9575625,12.518 16.9575625,13.15625 C16.9575625,13.7945 16.4395625,14.3125 15.8013125,14.3125 L15.8013125,14.3125 L1.15625,14.3125 C0.518,14.3125 0,13.7945 0,13.15625 C0,12.518 0.518,12 1.15625,12 L1.15625,12 Z M35.84375,12 C36.482,12 37,12.518 37,13.15625 C37,13.7945 36.482,14.3125 35.84375,14.3125 L35.84375,14.3125 L21.1986875,14.3125 C20.5604375,14.3125 20.0424375,13.7945 20.0424375,13.15625 C20.0424375,12.518 20.5604375,12 21.1986875,12 L21.1986875,12 Z M34.3013125,0.4375 C35.7905625,0.4375 37,1.6469375 37,3.1361875 L37,3.1361875 L37,6.9888125 C37,8.4780625 35.7905625,9.6875 34.3013125,9.6898125 L34.3013125,9.6898125 L15.03125,9.6898125 C13.542,9.6898125 12.3325625,8.4780625 12.3325625,6.991125 L12.3325625,6.991125 L12.3325625,3.1361875 C12.3325625,1.6469375 13.5443125,0.4375 15.03125,0.4375 L15.03125,0.4375 Z M4.625,0.4375 C7.17931697,0.4375 9.25,2.50818303 9.25,5.0625 C9.25,7.61681697 7.17931697,9.6875 4.625,9.6875 C2.07068303,9.6875 0,7.61681697 0,5.0625 C0,2.50818303 2.07068303,0.4375 4.625,0.4375 Z" id="Combined-Shape" fill="#FFFFFF" fill-rule="nonzero"></path>
                <g id="Group" transform="translate(0.000000, 0.437500)"></g>
            </g>
        </g>
    </g>
</svg>