<?xml version="1.0" encoding="UTF-8"?>
<svg width="35px" height="57px" viewBox="0 0 35 57" version="1.1" xmlns="http://www.w3.org/2000/svg" xmlns:xlink="http://www.w3.org/1999/xlink">
    <!-- Generator: Sketch 61 (89581) - https://sketch.com -->
    <title>mouse</title>
    <desc>Created with Sketch.</desc>
    <g id="Final" stroke="none" stroke-width="1" fill="none" fill-rule="evenodd">
        <g id="Minimal3-Copy-25" transform="translate(-228.000000, -630.000000)" fill="#000000" fill-rule="nonzero">
            <path d="M245.5,630.7 C239.522708,630.7 235.029613,632.463014 232.093253,635.922865 C229.748858,638.685228 228.77059,641.992045 228.703704,645.256141 L228.7,645.618613 L228.7,671.38151 C228.7,674.762382 229.662028,678.212585 232.093253,681.077257 C235.029572,684.53706 239.522628,686.3 245.5,686.3 C251.477372,686.3 255.970428,684.53706 258.906747,681.077258 C261.251142,678.314894 262.22941,675.008078 262.296296,671.743981 L262.3,671.38151 L262.3,645.618613 C262.3,642.237741 261.337972,638.787538 258.906747,635.922866 C255.970387,632.463014 251.477292,630.7 245.5,630.7 Z M245.71524,631.131978 L246.438251,631.155759 C252.837647,631.366242 257.117809,633.718862 259.584876,637.596442 C261.14902,640.054864 261.791003,642.754876 261.862759,645.185837 L261.86952,645.5484 L261.86952,671.38151 C261.86952,673.942918 261.233697,676.871889 259.514401,679.515864 C256.908951,683.522588 252.34945,685.86129 245.5,685.86129 C238.710888,685.86129 234.169759,683.562955 231.551277,679.615859 C229.888902,677.109999 229.21037,674.326133 229.137109,671.810735 L229.13048,671.453278 L229.13048,645.618613 C229.13048,643.139774 229.731784,640.293533 231.353298,637.694597 C233.752326,633.849473 237.911148,631.47758 244.124899,631.173604 L244.561755,631.155759 L245.28476,631.131978 L245.28476,639.032579 L244.739818,639.156365 C243.243503,639.496261 242.142017,640.801236 242.056292,642.344006 L242.050912,642.538039 L242.050912,647.529032 C242.050912,649.090357 243.092546,650.444188 244.55488,650.863245 L244.739818,650.910706 L245.28476,651.034492 L245.28476,659.147716 C245.28476,659.26967 245.381725,659.367071 245.5,659.367071 C245.598562,659.367071 245.682326,659.299431 245.70751,659.20631 L245.71524,659.147716 L245.71524,651.034492 L246.260182,650.910706 C247.756497,650.57081 248.857983,649.265835 248.943708,647.723064 L248.949088,647.529032 L248.949088,642.538039 C248.949088,640.976714 247.907454,639.622883 246.44512,639.203826 L246.260182,639.156365 L245.71524,639.032579 L245.71524,631.131978 Z M245.5,639.509006 C247.106339,639.509006 248.421582,640.772535 248.513479,642.36033 L248.518608,642.538039 L248.518608,647.529032 C248.518608,649.199208 247.165833,650.558065 245.5,650.558065 C243.893661,650.558065 242.578418,649.294536 242.486521,647.706741 L242.481392,647.529032 L242.481392,642.538039 C242.481392,640.867863 243.834167,639.509006 245.5,639.509006 Z" id="mouse"></path>
        </g>
    </g>
</svg>