<?xml version="1.0" encoding="UTF-8"?>
<svg width="24px" height="24px" viewBox="0 0 24 24" version="1.1" xmlns="http://www.w3.org/2000/svg" xmlns:xlink="http://www.w3.org/1999/xlink">
    <title>Pintrest@1.5x</title>
    <g id="Pintrest" stroke="none" stroke-width="1" fill="none" fill-rule="evenodd">
        <g id="Shape" fill="#000000" transform="translate(2.000000, 2.000000)">
            <path d="M10,0.25 C4.61522,0.25 0.25,4.61522 0.25,10 C0.25,15.3848 4.61522,19.75 10,19.75 C15.3848,19.75 19.75,15.3848 19.75,10 C19.75,4.61522 15.3848,0.25 10,0.25 Z M1.75,10 C1.75,5.44365 5.44365,1.75 10,1.75 C14.5563,1.75 18.25,5.44365 18.25,10 C18.25,14.5563 14.5563,18.25 10,18.25 C9.1427,18.25 8.316,18.1192 7.53865,17.8766 C7.96125,17.213 8.2973,16.498 8.5387,15.7491 L9.0553,13.7719 C9.2687,14.0765 9.5548,14.3229 9.8877,14.4888 C10.2205,14.6547 10.5895,14.7348 10.9612,14.7219 C13.4965,14.7219 15.2778,12.4181 15.2778,9.5563 C15.2778,6.80719 13.0334,4.75282 10.1537,4.75282 C6.56746,4.75282 4.66152,7.16344 4.66152,9.7819 C4.66152,11.005 5.30871,12.5191 6.34777,13.0059 C6.50214,13.0772 6.60308,13.0059 6.62683,12.8931 C6.65057,12.7804 6.79292,12.211 6.85828,11.9495 C6.86853,11.9081 6.8686,11.8643 6.85825,11.8229 C6.8479,11.7815 6.82756,11.7433 6.79902,11.7116 C6.40647,11.1585 6.19867,10.4957 6.20527,9.8175 C6.20321,9.3307 6.29996,8.8486 6.48964,8.4003 C6.67932,7.95195 6.958,7.54679 7.30881,7.2093 C7.65962,6.87181 8.0753,6.60902 8.5306,6.43682 C8.9859,6.26463 9.4714,6.18662 9.9578,6.20751 C10.4133,6.18086 10.8694,6.24946 11.2969,6.40892 C11.7245,6.56838 12.1141,6.8152 12.4409,7.13365 C12.7677,7.45209 13.0246,7.83516 13.1951,8.2584 C13.3656,8.6817 13.446,9.1358 13.4312,9.5919 C13.4312,11.8363 12.2912,13.3978 10.8187,13.3978 C10.6285,13.4124 10.4375,13.381 10.262,13.3062 C10.0865,13.2313 9.9317,13.1153 9.8105,12.9679 C9.6893,12.8206 9.6055,12.6462 9.566,12.4595 C9.5265,12.2729 9.5326,12.0794 9.5837,11.8956 C9.6681,11.5454 9.7795,11.1847 9.888,10.8332 C10.0849,10.1955 10.2725,9.5881 10.2725,9.1288 C10.293,8.9796 10.2811,8.8277 10.2375,8.6835 C10.1939,8.5394 10.1196,8.4064 10.0198,8.2936 C9.92,8.1808 9.797,8.0909 9.6592,8.0301 C9.5214,7.9693 9.3721,7.93899 9.2215,7.94126 C8.3903,7.94126 7.71933,8.8081 7.71933,9.96 C7.71315,10.3671 7.78992,10.7711 7.94496,11.1475 L6.96527,15.3038 C6.84525,16.0891 6.84499,16.8882 6.96449,17.6736 C6.31392,17.4161 5.70391,17.0782 5.14671,16.6722 C4.16962,15.9584 3.35317,15.0348 2.76292,13.9593 C2.53071,13.5362 2.33712,13.0962 2.18299,12.6446 C1.90223,11.8144 1.75,10.925 1.75,10 Z"></path>
        </g>
    </g>
</svg>