<svg xmlns="http://www.w3.org/2000/svg" width="20.8" height="20.8" viewBox="0 0 20.8 20.8">
  <defs>
    <style>
      .cls-1 {
        stroke: #000;
        stroke-miterlimit: 10;
        stroke-width: 0.8px;
      }
    </style>
  </defs>
  <g id="skype" transform="translate(0.4 0.4)">
    <path id="Combined_Shape" data-name="Combined Shape" class="cls-1" d="M12,19.456a9.749,9.749,0,0,1-2,.211A9.667,9.667,0,0,1,.333,10,9.73,9.73,0,0,1,.544,8,5.592,5.592,0,0,1,8,.544a9.762,9.762,0,0,1,2-.211A9.667,9.667,0,0,1,19.667,10a9.73,9.73,0,0,1-.211,2A5.592,5.592,0,0,1,12,19.456Zm.349-1.136a4.369,4.369,0,0,0,2.057.508,4.424,4.424,0,0,0,4.419-4.419,4.374,4.374,0,0,0-.508-2.057.586.586,0,0,1-.052-.407A8.491,8.491,0,0,0,8.054,1.732a.588.588,0,0,1-.407-.052,4.368,4.368,0,0,0-2.056-.508,4.425,4.425,0,0,0-4.42,4.42,4.374,4.374,0,0,0,.508,2.056.585.585,0,0,1,.052.407A8.491,8.491,0,0,0,11.946,18.268a.624.624,0,0,1,.133-.015A.583.583,0,0,1,12.352,18.32ZM7,14.852a2.792,2.792,0,0,1-1.363-2.294.586.586,0,1,1,1.172,0c0,1.069,1.461,1.972,3.189,1.972s3.189-.9,3.189-1.972S11.729,10.586,10,10.586a5.386,5.386,0,0,1-3-.85A2.792,2.792,0,0,1,5.639,7.442,2.792,2.792,0,0,1,7,5.148a5.386,5.386,0,0,1,3-.85,5.386,5.386,0,0,1,3,.85A2.792,2.792,0,0,1,14.36,7.442a.586.586,0,1,1-1.172,0c0-1.069-1.46-1.972-3.189-1.972s-3.189.9-3.189,1.972S8.272,9.414,10,9.414a5.386,5.386,0,0,1,3,.851,2.789,2.789,0,0,1,1.363,2.293A2.792,2.792,0,0,1,13,14.852a5.386,5.386,0,0,1-3,.85A5.386,5.386,0,0,1,7,14.852Z" transform="translate(0)"/>
  </g>
</svg>
