<svg xmlns="http://www.w3.org/2000/svg" width="24.717" height="20.694" viewBox="0 0 24.717 20.694">
  <defs>
    <style>
      .cls-1 {
        fill: none;
        stroke: #000;
        stroke-linecap: round;
        stroke-linejoin: round;
        stroke-miterlimit: 10;
        stroke-width: 1.8px;
      }
    </style>
  </defs>
  <g id="twitter" transform="translate(0.9 0.948)">
    <path id="Path" class="cls-1" d="M22.917.011A11.354,11.354,0,0,1,19.646,1.6a4.667,4.667,0,0,0-8.188,3.125V5.771A11.1,11.1,0,0,1,2.083,1.052s-4.167,9.375,5.208,13.542A12.125,12.125,0,0,1,0,16.677c9.375,5.208,20.833,0,20.833-11.979a4.688,4.688,0,0,0-.083-.865A8.042,8.042,0,0,0,22.917.011Z" transform="translate(0 0.031)"/>
  </g>
</svg>
