<?xml version="1.0" encoding="UTF-8"?>
<svg width="149px" height="40px" viewBox="0 0 149 40" version="1.1" xmlns="http://www.w3.org/2000/svg" xmlns:xlink="http://www.w3.org/1999/xlink">
    <!-- Generator: Sketch 61 (89581) - https://sketch.com -->
    <title>PayPal</title>
    <desc>Created with Sketch.</desc>
    <g id="Final" stroke="none" stroke-width="1" fill="none" fill-rule="evenodd">
        <g id="About-us" transform="translate(-786.000000, -1967.000000)" fill="#3F3F3F">
            <g id="Group-8" transform="translate(160.000000, 1915.000000)">
                <g id="Slot3" transform="translate(560.000000, 0.000000)">
                    <path d="M213.542154,52 L208.206708,52 C207.732712,52 207.328802,52.3454545 207.2556,52.8135065 L202.514078,82.9937662 C202.422186,83.5787013 202.873858,84.1075325 203.465186,84.1075325 L208.233186,84.1075325 C209.023353,84.1075325 209.69567,83.5319481 209.818712,82.7516883 L214.493262,53.1137662 C214.585673,52.5288312 214.134001,52 213.542154,52 M147.806677,62.6919481 L142.246952,62.6919481 C141.714809,62.6919481 141.21745,62.9558442 140.918931,63.3958442 L133.249844,74.6976623 L129.99936,63.8374026 C129.795848,63.1579221 129.170775,62.6919481 128.462116,62.6919481 L122.996879,62.6919481 C122.336503,62.6919481 121.872889,63.3412987 122.085227,63.9662338 L128.207207,81.9464935 L122.449161,90.0763636 C121.99697,90.7142857 122.453315,91.5968831 123.235175,91.5968831 L128.789189,91.5968831 C129.315621,91.5968831 129.808308,91.3387013 130.108384,90.905974 L148.597883,64.2046753 C149.040729,63.5657143 148.583346,62.6919481 147.806677,62.6919481 M193.026879,73.4644156 C192.49266,76.627013 189.983541,78.7496104 186.783935,78.7496104 C185.1792,78.7496104 183.895308,78.2332468 183.069318,77.2555844 C182.251635,76.2867532 181.943252,74.905974 182.202834,73.3683117 C182.701231,70.2342857 185.249806,68.0431169 188.401649,68.0431169 C189.972639,68.0431169 191.247705,68.5641558 192.089269,69.5506494 C192.936545,70.5444156 193.269329,71.9345455 193.026879,73.4644156 M200.735423,62.6919481 L195.204771,62.6919481 C194.730775,62.6919481 194.326865,63.0363636 194.253663,63.5049351 L194.010175,65.0524675 L193.623398,64.4919481 C192.425168,62.7522078 189.755628,62.1709091 187.089722,62.1709091 C180.978646,62.1709091 175.758454,66.8046753 174.74297,73.3038961 C174.213942,76.545974 174.964133,79.6441558 176.801454,81.8067532 C178.489775,83.7937662 180.898175,84.6207792 183.768112,84.6207792 C188.693938,84.6207792 191.425778,81.454026 191.425778,81.454026 L191.179175,82.9927273 C191.086245,83.5776623 191.537917,84.1075325 192.130283,84.1075325 L197.11166,84.1075325 C197.900788,84.1075325 198.573106,83.5319481 198.696147,82.7516883 L201.686531,63.8051948 C201.779461,63.2202597 201.327269,62.6919481 200.735423,62.6919481 M110.637667,73.4644156 C110.103447,76.627013 107.594329,78.7496104 104.394203,78.7496104 C102.789987,78.7496104 101.505576,78.2332468 100.680106,77.2555844 C99.8619034,76.2867532 99.5535202,74.905974 99.813102,73.3683117 C100.311499,70.2342857 102.860593,68.0431169 106.011917,68.0431169 C107.582388,68.0431169 108.857973,68.5641558 109.699538,69.5506494 C110.546813,70.5444156 110.880116,71.9345455 110.637667,73.4644156 M118.34621,62.6919481 L112.815039,62.6919481 C112.341043,62.6919481 111.937653,63.0363636 111.863412,63.5049351 L111.620963,65.0524675 L111.234186,64.4919481 C110.035956,62.7522078 107.365896,62.1709091 104.70051,62.1709091 C98.5899522,62.1709091 93.3692414,66.8046753 92.3532379,73.3038961 C91.8242101,76.545974 92.5749209,79.6441558 94.4122414,81.8067532 C96.1000428,83.7937662 98.5089627,84.6207792 101.3789,84.6207792 C106.304207,84.6207792 109.036565,81.454026 109.036565,81.454026 L108.789963,82.9927273 C108.697032,83.5776623 109.148705,84.1075325 109.741071,84.1075325 L114.721928,84.1075325 C115.511576,84.1075325 116.183893,83.5319481 116.306935,82.7516883 L119.297318,63.8051948 C119.389729,63.2202597 118.937538,62.6919481 118.34621,62.6919481 M85.1529557,62.8244156 C84.5216526,66.9735065 81.3547536,66.9735065 78.2922066,66.9735065 L76.5493738,66.9735065 L77.7714853,59.227013 C77.8457257,58.758961 78.249116,58.414026 78.7225933,58.414026 L79.5221055,58.414026 C81.606548,58.414026 83.5762554,58.414026 84.5912205,59.6025974 C85.1991613,60.3137662 85.3829452,61.3677922 85.1529557,62.8244156 M92.2390219,54.9527273 C90.5963878,53.0212987 87.6843982,52 83.8202623,52 L72.2683494,52 C71.4787013,52 70.8058651,52.5750649 70.6833425,53.3553247 L66.0119069,82.9932468 C65.9200149,83.5781818 66.3716874,84.1075325 66.9635341,84.1075325 L72.4786108,84.1075325 C73.268778,84.1075325 73.9410951,83.5319481 74.0641369,82.7511688 L75.3246665,74.7558442 C75.4471892,73.9750649 76.1200254,73.4 76.9096735,73.4 L80.5651055,73.4 C88.1739696,73.4 92.5650567,69.7158442 93.7129278,62.4124675 C94.2294958,59.2187013 93.7336944,56.7090909 92.2390219,54.9527273 M167.542168,62.8244156 C166.911384,66.9735065 163.744485,66.9735065 160.681419,66.9735065 L158.938586,66.9735065 L160.161217,59.227013 C160.234938,58.758961 160.638848,58.414026 161.112325,58.414026 L161.911318,58.414026 C163.995761,58.414026 165.965468,58.414026 166.980433,59.6025974 C167.588374,60.3137662 167.772158,61.3677922 167.542168,62.8244156 M174.628754,54.9527273 C172.9856,53.0212987 170.073611,52 166.209475,52 L154.657562,52 C153.868433,52 153.195597,52.5750649 153.072555,53.3553247 L148.401119,82.9932468 C148.309747,83.5781818 148.7609,84.1075325 149.352227,84.1075325 L155.27952,84.1075325 C155.83243,84.1075325 156.302792,83.7044156 156.388973,83.1579221 L157.713879,74.7558442 C157.836921,73.9750649 158.509238,73.4 159.299405,73.4 L162.954837,73.4 C170.563182,73.4 174.954269,69.7158442 176.10214,62.4124675 C176.618708,59.2187013 176.122907,56.7090909 174.628754,54.9527273" id="PayPal"></path>
                </g>
            </g>
        </g>
    </g>
</svg>