<?xml version="1.0" encoding="UTF-8"?>
<svg width="197px" height="46px" viewBox="0 0 197 46" version="1.1" xmlns="http://www.w3.org/2000/svg" xmlns:xlink="http://www.w3.org/1999/xlink">
    <!-- Generator: Sketch 61 (89581) - https://sketch.com -->
    <title>TransferWise</title>
    <desc>Created with Sketch.</desc>
    <g id="Final" stroke="none" stroke-width="1" fill="none" fill-rule="evenodd">
        <g id="About-us" transform="translate(-202.000000, -2096.000000)" fill="#3F3F3F">
            <g id="Group-8" transform="translate(160.000000, 1915.000000)">
                <g id="Slot5" transform="translate(0.000000, 136.000000)">
                    <path d="M199.190973,73.112963 L199.071823,73.112963 L195.583168,63.135037 L193.168619,63.135037 L189.194602,73.112963 L189.075451,73.112963 L186.408584,58.3340741 L183.494655,58.3340741 L187.135752,77.3673333 L189.835912,77.3673333 L194.144602,66.8462963 L194.262,66.8462963 L197.999469,77.3673333 L200.701381,77.3673333 L205.342991,58.3340741 L202.558726,58.3340741 L199.190973,73.112963 Z M180.375717,63.0392963 C178.863558,63.0392963 177.223487,63.6311481 176.449009,64.7191111 L176.329858,64.7191111 L176.329858,63.1576667 L173.712053,63.1576667 L173.712053,77.3673333 L176.413965,77.3673333 L176.413965,69.6001481 C176.413965,66.5973704 178.054035,65.3927778 180.221522,65.3927778 C180.959204,65.3927778 181.446319,65.4745926 182.101646,65.6295185 L182.721929,63.4657778 L182.709664,63.4762222 C181.85108,63.1228519 180.899628,63.0392963 180.375717,63.0392963 L180.375717,63.0392963 Z M164.572513,62.8617407 C160.68085,62.8617407 157.670549,65.9828889 157.670549,70.2755556 C157.670549,74.6848519 160.526655,77.6040741 164.644354,77.6040741 C167.106212,77.6040741 169.285965,76.7302222 170.594867,75.1583333 L168.951292,73.5968889 C167.766796,74.6796296 166.498195,75.2697407 164.947487,75.2732222 C162.340195,75.2645185 160.537168,73.2226296 160.537168,70.2633704 C160.537168,67.4973333 162.084372,65.1334074 164.632088,65.1334074 C167.54777,65.1334074 168.201345,67.5321481 168.404602,69.0344074 L163.370496,69.0344074 L162.419044,71.1964074 L171.141558,71.1964074 L171.178354,70.192 C171.178354,66.1012593 169.082708,62.8617407 164.572513,62.8617407 L164.572513,62.8617407 Z M154.253735,63.3004074 L154.253735,62.8739259 C154.253735,61.1018519 155.112319,60.1078889 156.634991,60.1078889 C157.253522,60.1078889 158.229504,60.2732593 159.014496,60.5448148 L159.87308,58.583 C158.832265,58.1042963 157.696832,57.8588519 156.552637,57.8622968 C153.815681,57.8622968 151.434425,59.2218519 151.434425,62.8617407 L151.434425,63.3004074 L149.626142,63.3004074 L149.626142,65.6643333 L151.434425,65.6643333 L151.434425,77.4874444 L154.136336,77.4874444 L154.136336,65.6643333 L156.873292,65.6643333 L157.826496,63.3004074 L154.253735,63.3004074 Z M229.500743,71.2207778 L238.223257,71.2207778 L238.258301,70.2163704 C238.258301,66.1256296 236.164407,62.8861111 231.654212,62.8861111 C227.764301,62.8861111 224.752248,66.0072593 224.752248,70.2981852 C224.752248,74.7092222 227.608354,77.6284444 231.724301,77.6284444 C234.189664,77.6284444 236.367664,76.7545926 237.676566,75.180963 L236.032991,73.6212593 C234.848496,74.704 233.579894,75.2923704 232.029186,75.2975926 C229.421894,75.2888889 227.620619,73.247 227.620619,70.2877407 C227.620619,67.519963 229.166071,65.156037 231.713788,65.156037 C234.629469,65.156037 235.284796,67.5565185 235.486301,69.057037 L230.452195,69.057037 L229.500743,71.2207778 Z M218.707115,69.1632222 L218.838531,69.1632222 C216.744637,68.8794815 215.505823,68.4773704 215.505823,67.1178519 C215.505823,65.8767037 216.732372,65.109037 218.242779,65.109037 C219.467575,65.109037 221.027044,65.5807778 222.01354,66.3153704 L223.205044,64.3866296 C221.980248,63.3822222 219.991487,62.8495556 218.158673,62.8495556 C215.00469,62.8495556 212.66023,64.7417407 212.66023,67.2257778 C212.66023,70.0614444 214.50531,70.984037 217.624248,71.4818889 C219.385221,71.7656296 220.909646,71.9536296 220.909646,73.441963 C220.909646,74.6848519 219.681345,75.3707037 218.05354,75.3707037 C216.42223,75.3707037 215.016956,74.9337778 213.625699,73.8336296 L212.435947,75.9625556 C213.459239,76.8834074 215.588177,77.6162593 217.969434,77.6162593 C221.25308,77.6162593 223.620319,75.7258148 223.620319,73.206963 C223.620319,70.1693704 221.15846,69.4835185 218.707115,69.1632222 L218.707115,69.1632222 Z M207.079434,61.2184815 L210.031912,61.2184815 L210.031912,58.3340741 L207.079434,58.3340741 L207.079434,61.2184815 Z M207.198584,77.3673333 L209.900496,77.3673333 L209.900496,63.1454815 L207.198584,63.1454815 L207.198584,77.3673333 Z M83.9251858,58.3462593 L83.9251858,60.9121111 L89.8739469,60.9121111 L89.8739469,77.3673333 L92.7300531,77.3673333 L92.7300531,60.8999259 L98.6805664,60.8999259 L98.6805664,58.3340741 L83.686885,58.3340741 L83.9251858,58.3462593 Z M107.807841,63.4187778 C107.064903,63.1367778 106.272903,62.9992593 105.475646,63.0166667 C104.023062,62.9574815 102.626549,63.5789259 101.703133,64.6947407 L101.583982,64.6947407 L101.583982,63.135037 L98.966177,63.135037 L98.966177,77.3673333 L101.668088,77.3673333 L101.668088,69.6001481 C101.668088,66.5973704 103.143451,65.3927778 105.321451,65.3927778 C106.059133,65.3927778 106.546248,65.4745926 107.201575,65.6295185 L107.820106,63.430963 L107.807841,63.4187778 Z M143.603788,69.1754074 L143.735204,69.1632222 C141.64131,68.8794815 140.402496,68.4773704 140.402496,67.1178519 C140.402496,65.8767037 141.629044,65.109037 143.141204,65.109037 C144.366,65.109037 145.925469,65.5807778 146.911965,66.3153704 L148.103469,64.3866296 C146.87692,63.3822222 144.889912,62.8495556 143.057097,62.8495556 C139.903115,62.8495556 137.558655,64.7417407 137.558655,67.2257778 C137.558655,70.0614444 139.403735,71.0084074 142.52092,71.4818889 C144.281894,71.7656296 145.806319,71.9536296 145.806319,73.441963 C145.806319,74.6848519 144.57977,75.3707037 142.94846,75.3707037 C141.339929,75.3915926 139.775204,74.8502222 138.522372,73.8458148 L137.332619,75.9747407 C138.355912,76.8955926 140.486602,77.6284444 142.866106,77.6284444 C146.149752,77.6284444 148.518743,75.738 148.518743,73.2191481 C148.518743,70.1798148 146.056885,69.493963 143.603788,69.1754074 L143.603788,69.1754074 Z M129.859434,62.8739259 L129.978584,62.8617407 C128.170301,62.8617407 126.526726,63.5475926 125.717204,64.9436667 L125.598053,64.9436667 L125.598053,63.1454815 L122.980248,63.1454815 L122.980248,77.3673333 L125.682159,77.3673333 L125.682159,69.6837037 C125.682159,66.8811111 127.110212,65.1908519 129.253168,65.1908519 C131.394372,65.1908519 132.655965,66.3153704 132.655965,68.916037 L132.655965,77.3673333 L135.357876,77.3673333 L135.357876,68.4303704 C135.357876,64.8252963 133.21492,62.8739259 129.859434,62.8739259 L129.859434,62.8739259 Z M117.126106,71.8700741 C117.126106,73.999 115.365133,75.3585185 112.901522,75.3585185 C111.426159,75.3585185 110.164566,74.6726667 110.164566,72.9945926 C110.164566,71.4331481 111.354319,70.3939259 113.497274,70.3939259 C115.305558,70.3939259 116.472531,70.7124815 117.150637,71.1964074 L117.126106,71.8700741 Z M113.330814,62.7677407 L113.318549,62.8617407 C111.724035,62.8617407 110.199611,63.0984815 109.05892,63.5475926 L109.509239,65.7113333 C110.700743,65.3092222 111.890496,65.1438519 112.961097,65.1438519 C115.258248,65.1438519 117.126106,66.1848148 117.126106,68.5139259 L117.126106,68.916037 C116.388425,68.6322963 115.245982,68.2771852 113.555097,68.2771852 C109.985841,68.2771852 107.452142,70.1206296 107.452142,73.005037 C107.452142,76.1261852 109.831646,77.5344444 112.496761,77.5344444 C114.709805,77.5344444 116.221965,76.6588519 117.019221,75.6074444 L117.138372,75.6074444 L117.138372,77.2628889 L119.756177,77.2628889 L119.756177,68.3711852 C119.756177,64.4701852 117.210212,62.7677407 113.330814,62.7677407 L113.330814,62.7677407 Z M47.3985664,45.0104444 L54.5668673,56.9397407 L42,68.8568519 L63.7291858,68.8568519 L65.7757699,64.0802593 L53.7818761,64.0802593 L60.9203894,56.9153704 L56.685292,49.787037 L76.4625133,49.787037 L59.0875752,90.5273333 L65.0380885,90.5273333 L84.4368319,45.0104444 L47.3985664,45.0104444 Z" id="TransferWise"></path>
                </g>
            </g>
        </g>
    </g>
</svg>