<svg xmlns="http://www.w3.org/2000/svg" xmlns:xlink="http://www.w3.org/1999/xlink" width="500" height="373"><style><![CDATA[.B{fill:#f0f0f0}.C{fill:#fafafa}.D{fill:#e6e6e6}.E{fill:#fff}.F{fill:#ed5c37}.G{fill:#263238}.H{opacity:.2}.I{fill:#000}.J{opacity:.6}.K{opacity:.3}.L{opacity:.4}.M{opacity:.5}.N{fill:#e0e0e0}.O{fill:#e4897b}.P{fill-rule:nonzero}]]></style><g fill="none" fill-rule="evenodd"><g class="P"><path d="M0 327.4h500v1H0zm416.78 16.09h33.12v1h-33.12zm-94.25 2.72h8.69v1h-8.69zm74.06-12h19.19v1h-19.19zm-344.13 1.68h43.19v1H52.46zm52.1 0h6.33v1h-6.33zm26.91 4.22h93.68v1h-93.68zM237 282.8H43.91a5.71 5.71 0 0 1-5.7-5.71V5.66A5.71 5.71 0 0 1 43.91 0H237a5.71 5.71 0 0 1 5.71 5.71v271.38a5.71 5.71 0 0 1-5.71 5.71zM43.91.2a5.46 5.46 0 0 0-5.45 5.46v271.43a5.46 5.46 0 0 0 5.45 5.46H237a5.47 5.47 0 0 0 5.46-5.46V5.66A5.47 5.47 0 0 0 237 .2H43.91zm409.4 282.6h-193.1a5.72 5.72 0 0 1-5.71-5.71V5.66A5.72 5.72 0 0 1 260.21 0h193.1A5.71 5.71 0 0 1 459 5.66v271.43a5.71 5.71 0 0 1-5.69 5.71zM260.21.2a5.47 5.47 0 0 0-5.46 5.46v271.43a5.47 5.47 0 0 0 5.46 5.46h193.1a5.47 5.47 0 0 0 5.46-5.46V5.66A5.47 5.47 0 0 0 453.31.2h-193.1z" fill="#ebebeb"/><g class="D"><path d="M112.11 319.92c-1.07 0-2.15 0-3.25-.08l.19-4c57.91 2.82 74.68-77 85.76-129.75 4.24-20.18 7.59-36.12 12.24-43C224 118.23 251.89 122 252.17 122l-.57 4h0c-1.09-.16-25.78-3.37-41.24 19.38-4.21 6.2-7.65 22.58-11.63 41.55-11.16 53.14-27.92 132.98-86.62 132.99z"/><path d="M89.28 306.83l-.28-4c33.82-2.34 52.86-39.63 71.28-75.69 10.34-20.27 20.12-39.41 32.31-52.41 34.5-36.79 51.14-31.48 51.83-31.24l-1.33 3.78.67-1.89-.63 1.9c-.15-.05-15.34-4.24-47.62 30.19C183.7 190.06 174.05 209 163.84 229c-18.92 37-38.49 75.33-74.56 77.83z"/><path d="M109.16 314.43l-1.22-3.81c11.66-3.76 18.79-17.51 27.05-33.44 10.07-19.44 21.49-41.46 44.79-53.66 42.67-22.34 94.78 6.45 97 7.69l-2 3.48c-.52-.29-52.44-28.95-93.16-7.63-22.19 11.62-33.3 33.05-43.1 52-8.64 16.67-16.13 31.11-29.36 35.37zm-6.33 13.07l-.19-4c.57 0 57.05-3 87.72-31.56 32-29.84 71-19 71.39-18.9l-1.11 3.84c-.37-.1-37.21-10.27-67.55 18-31.76 29.56-87.88 32.51-90.26 32.62z"/></g><rect x="50.73" y="288.19" width="52.01" height="39.69" rx="2.39" class="N"/><rect x="70.73" y="288.19" width="52.01" height="39.69" rx="2.39" class="B"/><g class="N"><use xlink:href="#B"/><path d="M105 317.84H88.43a.5.5 0 1 1 0-1H105a.5.5 0 1 1 0 1z"/><use xlink:href="#C"/><path d="M108.55 312.53H84.92a.5.5 0 1 1 0-1h23.63a.5.5 0 1 1 0 1zm.58-2.66H84.34a.5.5 0 1 1 0-1h24.79a.5.5 0 1 1 0 1zm0-2.65H84.34a.5.5 0 1 1 0-1h24.79a.5.5 0 1 1 0 1zm-.58-2.66H84.93a.5.5 0 1 1 0-1h23.62a.5.5 0 1 1 0 1z"/><use xlink:href="#C" y="-13.27"/><path d="M105 299.25H88.43a.5.5 0 1 1 0-1H105a.5.5 0 1 1 0 1z"/><use xlink:href="#B" y="-23.89"/><rect x="130.73" y="288.19" width="52.01" height="39.69" rx="2.39"/></g><rect x="150.73" y="288.19" width="52.01" height="39.69" rx="2.39" class="B"/><g class="N"><use xlink:href="#B" x="80"/><path d="M185 317.84h-16.57a.5.5 0 1 1 0-1H185a.5.5 0 1 1 0 1z"/><use xlink:href="#C" x="80"/><path d="M188.55 312.53h-23.63a.5.5 0 1 1 0-1h23.63a.5.5 0 1 1 0 1zm.58-2.66h-24.79a.5.5 0 1 1 0-1h24.79a.5.5 0 1 1 0 1zm0-2.65h-24.79a.5.5 0 1 1 0-1h24.79a.5.5 0 1 1 0 1zm-.58-2.66h-23.62a.5.5 0 1 1 0-1h23.62a.5.5 0 1 1 0 1z"/><use xlink:href="#C" x="80" y="-13.27"/><path d="M185 299.25h-16.57a.5.5 0 1 1 0-1H185a.5.5 0 1 1 0 1z"/><use xlink:href="#B" x="80" y="-23.89"/><path d="M265.78 80.82h183.61v246.59H265.78z"/></g><path fill="#ebebeb" d="M230.82 80.82h183.61v246.59H230.82z"/><path d="M234.67 84H410.9v243.41H234.67z" class="N"/><rect x="255.75" y="308.1" width="42.3" height="12.42" rx="1.65" class="B"/><rect x="255.75" y="308.1" width="42.3" height="12.42" rx="1.65" class="D"/><rect x="241.34" y="308.1" width="42.3" height="12.42" rx="1.65" class="B"/><use xlink:href="#D" class="C"/><circle cx="276.85" cy="314.31" r="1.33" class="B"/><path d="M268.29 312.83h2.97v2.97h-2.97z" class="C"/><rect x="255.75" y="294.54" width="42.3" height="12.42" rx="1.65" class="B"/><rect x="255.75" y="294.54" width="42.3" height="12.42" rx="1.65" class="D"/><rect x="241.34" y="294.54" width="42.3" height="12.42" rx="1.65" class="B"/><circle cx="276.85" cy="300.75" r="2.61" class="C"/><circle cx="276.85" cy="300.75" r="1.33" class="B"/><path d="M268.29 299.27h2.97v2.97h-2.97z" class="C"/><rect x="255.75" y="280.98" width="42.3" height="12.42" rx="1.65" class="B"/><rect x="255.75" y="280.98" width="42.3" height="12.42" rx="1.65" class="D"/><rect x="241.34" y="280.98" width="42.3" height="12.42" rx="1.65" class="B"/><use xlink:href="#D" y="-27.12" class="C"/><path d="M278.18 287.19a1.33 1.33 0 0 1-2.267.954 1.33 1.33 0 0 1 .937-2.274 1.32 1.32 0 0 1 1.33 1.32h0z" class="B"/><path d="M268.29 285.71h2.97v2.97h-2.97z" class="C"/><rect x="255.75" y="267.42" width="42.3" height="12.42" rx="1.65" class="B"/><rect x="255.75" y="267.42" width="42.3" height="12.42" rx="1.65" class="D"/><rect x="241.34" y="267.42" width="42.3" height="12.42" rx="1.65" class="B"/><circle cx="276.85" cy="273.63" r="2.61" class="C"/><circle cx="276.85" cy="273.63" r="1.33" class="B"/><path d="M268.29 272.15h2.97v2.97h-2.97z" class="C"/><rect x="255.83" y="253.86" width="42.3" height="12.42" rx="1.65" class="B"/><rect x="255.83" y="253.86" width="42.3" height="12.42" rx="1.65" class="D"/><rect x="241.42" y="253.86" width="42.3" height="12.42" rx="1.65" class="B"/><circle cx="276.94" cy="260.07" r="2.61" class="C"/><circle cx="276.94" cy="260.07" r="1.33" class="B"/><path d="M268.38 258.59h2.97v2.97h-2.97z" class="C"/><rect x="255.92" y="240.3" width="42.3" height="12.42" rx="1.65" class="B"/><rect x="255.92" y="240.3" width="42.3" height="12.42" rx="1.65" class="D"/><rect x="241.51" y="240.3" width="42.3" height="12.42" rx="1.65" class="B"/><path d="M279.63 246.51a2.61 2.61 0 1 1-5.22.013 2.61 2.61 0 0 1 4.449-1.866 2.61 2.61 0 0 1 .772 1.853z" class="C"/><circle cx="277.02" cy="246.51" r="1.33" class="B"/><path d="M268.46 245.03h2.97V248h-2.97z" class="C"/><rect x="256" y="226.74" width="42.3" height="12.42" rx="1.65" class="B"/><rect x="256" y="226.74" width="42.3" height="12.42" rx="1.65" class="D"/><rect x="241.6" y="226.74" width="42.3" height="12.42" rx="1.65" class="B"/><use xlink:href="#E" class="C"/><circle cx="277.11" cy="232.95" r="1.33" class="B"/><path d="M268.55 231.47h2.97v2.97h-2.97z" class="C"/><rect x="256.09" y="213.18" width="42.3" height="12.42" rx="1.65" class="B"/><rect x="256.09" y="213.18" width="42.3" height="12.42" rx="1.65" class="D"/><rect x="241.68" y="213.18" width="42.3" height="12.42" rx="1.65" class="B"/><use xlink:href="#E" x="0.08" y="-13.61" class="C"/><path d="M278.52 219.39a1.33 1.33 0 1 1-2.66 0 1.33 1.33 0 0 1 2.66 0z" class="B"/><path d="M268.63 217.91h2.97v2.97h-2.97z" class="C"/><rect x="256.17" y="199.62" width="42.3" height="12.42" rx="1.65" class="B"/><rect x="256.17" y="199.62" width="42.3" height="12.42" rx="1.65" class="D"/><rect x="241.77" y="199.62" width="42.3" height="12.42" rx="1.65" class="B"/><circle cx="277.28" cy="205.83" r="2.61" class="C"/><path d="M278.61 205.83a1.33 1.33 0 0 1-2.27.94 1.33 1.33 0 0 1 .94-2.27 1.34 1.34 0 0 1 1.33 1.33z" class="B"/><path d="M268.72 204.35h2.97v2.97h-2.97z" class="C"/><rect x="256.26" y="186.06" width="42.3" height="12.42" rx="1.65" class="B"/><rect x="256.26" y="186.06" width="42.3" height="12.42" rx="1.65" class="D"/><rect x="241.85" y="186.06" width="42.3" height="12.42" rx="1.65" class="B"/><circle cx="277.37" cy="192.27" r="2.61" class="C"/><circle cx="277.37" cy="192.27" r="1.33" class="B"/><path d="M268.8 190.79h2.97v2.97h-2.97z" class="C"/><rect x="256.35" y="172.5" width="42.3" height="12.42" rx="1.65" class="B"/><rect x="256.35" y="172.5" width="42.3" height="12.42" rx="1.65" class="D"/><rect x="241.94" y="172.5" width="42.3" height="12.42" rx="1.65" class="B"/><circle cx="277.45" cy="178.71" r="2.61" class="C"/><circle cx="277.45" cy="178.71" r="1.33" class="B"/><path d="M268.89 177.22h2.97v2.97h-2.97z" class="C"/><rect x="256.43" y="158.94" width="42.3" height="12.42" rx="1.65" class="B"/><rect x="256.43" y="158.94" width="42.3" height="12.42" rx="1.65" class="D"/><rect x="242.02" y="158.94" width="42.3" height="12.42" rx="1.65" class="B"/><path d="M280.15 165.15a2.61 2.61 0 0 1-5.22 0 2.61 2.61 0 0 1 4.456-1.846 2.61 2.61 0 0 1 .764 1.846h0z" class="C"/><circle cx="277.54" cy="165.15" r="1.33" class="B"/><path d="M268.98 163.66h2.97v2.97h-2.97z" class="C"/><rect x="256.52" y="145.38" width="42.3" height="12.42" rx="1.65" class="B"/><rect x="256.52" y="145.38" width="42.3" height="12.42" rx="1.65" class="D"/><rect x="242.11" y="145.38" width="42.3" height="12.42" rx="1.65" class="B"/><use xlink:href="#E" x="0.51" y="-81.41" class="C"/><circle cx="277.62" cy="151.59" r="1.33" class="B"/><path d="M269.06 150.1h2.97v2.97h-2.97z" class="C"/><rect x="256.6" y="131.82" width="42.3" height="12.42" rx="1.65" class="B"/><rect x="256.6" y="131.82" width="42.3" height="12.42" rx="1.65" class="D"/><rect x="242.19" y="131.82" width="42.3" height="12.42" rx="1.65" class="B"/><use xlink:href="#D" x="0.86" y="-176.31" class="C"/><path d="M279 138a1.33 1.33 0 0 1-2.274.937 1.33 1.33 0 0 1 .954-2.267A1.33 1.33 0 0 1 279 138h0z" class="B"/><path d="M269.15 136.54h2.97v2.97h-2.97z" class="C"/><rect x="256.69" y="118.26" width="42.3" height="12.42" rx="1.65" class="B"/><rect x="256.69" y="118.26" width="42.3" height="12.42" rx="1.65" class="D"/><rect x="242.28" y="118.26" width="42.3" height="12.42" rx="1.65" class="B"/><circle cx="277.79" cy="124.47" r="2.61" class="C"/><use xlink:href="#F" class="B"/><path d="M269.23 122.98h2.97v2.97h-2.97z" class="C"/><rect x="256.77" y="104.7" width="42.3" height="12.42" rx="1.65" class="B"/><rect x="256.77" y="104.7" width="42.3" height="12.42" rx="1.65" class="D"/><rect x="242.36" y="104.7" width="42.3" height="12.42" rx="1.65" class="B"/><circle cx="277.88" cy="110.91" r="2.61" class="C"/><use xlink:href="#F" x="0.09" y="-13.56" class="B"/><path d="M269.32 109.42h2.97v2.97h-2.97z" class="C"/><rect x="256.86" y="91.14" width="42.3" height="12.42" rx="1.65" class="B"/><rect x="256.86" y="91.14" width="42.3" height="12.42" rx="1.65" class="D"/><rect x="242.45" y="91.14" width="42.3" height="12.42" rx="1.65" class="B"/><circle cx="277.96" cy="97.35" r="2.61" class="C"/><circle cx="277.96" cy="97.35" r="1.33" class="B"/><path d="M269.4 95.86h2.97v2.97h-2.97z" class="C"/><rect x="308.18" y="308.1" width="42.3" height="12.42" rx="1.65" class="B"/><rect x="308.18" y="308.1" width="42.3" height="12.42" rx="1.65" class="D"/><rect x="293.77" y="308.1" width="42.3" height="12.42" rx="1.65" class="B"/><path d="M331.89 314.31a2.61 2.61 0 0 1-5.22 0 2.61 2.61 0 0 1 5.22 0z" class="C"/><use xlink:href="#G" class="B"/><path d="M320.72 312.83h2.97v2.97h-2.97z" class="C"/><rect x="308.18" y="294.54" width="42.3" height="12.42" rx="1.65" class="B"/><rect x="308.18" y="294.54" width="42.3" height="12.42" rx="1.65" class="D"/><rect x="293.77" y="294.54" width="42.3" height="12.42" rx="1.65" class="B"/><circle cx="329.28" cy="300.75" r="2.61" class="C"/><use xlink:href="#G" y="-13.56" class="B"/><path d="M320.72 299.27h2.97v2.97h-2.97z" class="C"/><rect x="308.18" y="280.98" width="42.3" height="12.42" rx="1.65" class="B"/><rect x="308.18" y="280.98" width="42.3" height="12.42" rx="1.65" class="D"/><rect x="293.77" y="280.98" width="42.3" height="12.42" rx="1.65" class="B"/><path d="M331.89 287.19a2.61 2.61 0 0 1-5.22 0 2.61 2.61 0 0 1 5.22 0z" class="C"/><use xlink:href="#G" y="-27.12" class="B"/><path d="M320.72 285.71h2.97v2.97h-2.97z" class="C"/><rect x="308.18" y="267.42" width="42.3" height="12.42" rx="1.65" class="B"/><rect x="308.18" y="267.42" width="42.3" height="12.42" rx="1.65" class="D"/><rect x="293.77" y="267.42" width="42.3" height="12.42" rx="1.65" class="B"/><circle cx="329.28" cy="273.63" r="2.61" class="C"/><use xlink:href="#F" x="51.49" y="149.16" class="B"/><path d="M320.72 272.15h2.97v2.97h-2.97z" class="C"/><rect x="308.26" y="253.86" width="42.3" height="12.42" rx="1.65" class="B"/><rect x="308.26" y="253.86" width="42.3" height="12.42" rx="1.65" class="D"/><rect x="293.85" y="253.86" width="42.3" height="12.42" rx="1.65" class="B"/><circle cx="329.37" cy="260.07" r="2.61" class="C"/><circle cx="329.37" cy="260.07" r="1.33" class="B"/><path d="M320.81 258.59h2.97v2.97h-2.97z" class="C"/><rect x="308.35" y="240.3" width="42.3" height="12.42" rx="1.65" class="B"/><rect x="308.35" y="240.3" width="42.3" height="12.42" rx="1.65" class="D"/><rect x="293.94" y="240.3" width="42.3" height="12.42" rx="1.65" class="B"/><circle cx="329.45" cy="246.51" r="2.61" class="C"/><circle cx="329.45" cy="246.51" r="1.33" class="B"/><path d="M320.89 245.03h2.97V248h-2.97z" class="C"/><rect x="308.43" y="226.74" width="42.3" height="12.42" rx="1.65" class="B"/><rect x="308.43" y="226.74" width="42.3" height="12.42" rx="1.65" class="D"/><rect x="294.02" y="226.74" width="42.3" height="12.42" rx="1.65" class="B"/><use xlink:href="#E" x="52.43" class="C"/><circle cx="329.54" cy="232.95" r="1.33" class="B"/><path d="M320.98 231.47h2.97v2.97h-2.97z" class="C"/><rect x="308.52" y="213.18" width="42.3" height="12.42" rx="1.65" class="B"/><rect x="308.52" y="213.18" width="42.3" height="12.42" rx="1.65" class="D"/><rect x="294.11" y="213.18" width="42.3" height="12.42" rx="1.65" class="B"/><path d="M332.23 219.39a2.61 2.61 0 1 1-5.22 0 2.61 2.61 0 1 1 5.22 0z" class="C"/><circle cx="329.62" cy="219.39" r="1.33" class="B"/><path d="M321.06 217.91h2.97v2.97h-2.97z" class="C"/><rect x="308.6" y="199.62" width="42.3" height="12.42" rx="1.65" class="B"/><rect x="308.6" y="199.62" width="42.3" height="12.42" rx="1.65" class="D"/><rect x="294.2" y="199.62" width="42.3" height="12.42" rx="1.65" class="B"/><use xlink:href="#E" x="52.6" y="-27.17" class="C"/><path d="M331 205.83a1.33 1.33 0 1 1-2.66 0 1.33 1.33 0 0 1 1.33-1.33 1.34 1.34 0 0 1 1.33 1.33z" class="B"/><path d="M321.15 204.35h2.97v2.97h-2.97z" class="C"/><rect x="308.69" y="186.06" width="42.3" height="12.42" rx="1.65" class="B"/><rect x="308.69" y="186.06" width="42.3" height="12.42" rx="1.65" class="D"/><rect x="294.28" y="186.06" width="42.3" height="12.42" rx="1.65" class="B"/><circle cx="329.79" cy="192.27" r="2.61" class="C"/><path d="M331.12 192.27a1.33 1.33 0 0 1-2.27.94 1.33 1.33 0 0 1 .94-2.27 1.33 1.33 0 0 1 1.33 1.33h0z" class="B"/><path d="M321.23 190.79h2.97v2.97h-2.97z" class="C"/><rect x="308.77" y="172.5" width="42.3" height="12.42" rx="1.65" class="B"/><rect x="308.77" y="172.5" width="42.3" height="12.42" rx="1.65" class="D"/><rect x="294.37" y="172.5" width="42.3" height="12.42" rx="1.65" class="B"/><circle cx="329.88" cy="178.71" r="2.61" class="C"/><circle cx="329.88" cy="178.71" r="1.33" class="B"/><path d="M321.32 177.22h2.97v2.97h-2.97z" class="C"/><rect x="308.86" y="158.94" width="42.3" height="12.42" rx="1.65" class="B"/><rect x="308.86" y="158.94" width="42.3" height="12.42" rx="1.65" class="D"/><rect x="294.45" y="158.94" width="42.3" height="12.42" rx="1.65" class="B"/><circle cx="329.97" cy="165.15" r="2.61" class="C"/><circle cx="329.97" cy="165.15" r="1.33" class="B"/><path d="M321.4 163.66h2.97v2.97h-2.97z" class="C"/><rect x="308.95" y="145.38" width="42.3" height="12.42" rx="1.65" class="B"/><rect x="308.95" y="145.38" width="42.3" height="12.42" rx="1.65" class="D"/><rect x="294.54" y="145.38" width="42.3" height="12.42" rx="1.65" class="B"/><path d="M332.66 151.59a2.61 2.61 0 1 1-5.22 0 2.61 2.61 0 1 1 5.22 0z" class="C"/><circle cx="330.05" cy="151.59" r="1.33" class="B"/><path d="M321.49 150.1h2.97v2.97h-2.97z" class="C"/><rect x="309.03" y="131.82" width="42.3" height="12.42" rx="1.65" class="B"/><rect x="309.03" y="131.82" width="42.3" height="12.42" rx="1.65" class="D"/><rect x="294.62" y="131.82" width="42.3" height="12.42" rx="1.65" class="B"/><path d="M332.75 138a2.61 2.61 0 1 1-5.22 0 2.61 2.61 0 1 1 5.22 0z" class="C"/><circle cx="330.14" cy="138.03" r="1.33" class="B"/><path d="M321.58 136.54h2.97v2.97h-2.97z" class="C"/><rect x="309.12" y="118.26" width="42.3" height="12.42" rx="1.65" class="B"/><rect x="309.12" y="118.26" width="42.3" height="12.42" rx="1.65" class="D"/><rect x="294.71" y="118.26" width="42.3" height="12.42" rx="1.65" class="B"/><path d="M332.83 124.47a2.61 2.61 0 0 1-5.22 0 2.61 2.61 0 0 1 5.22 0z" class="C"/><path d="M331.55 124.47a1.33 1.33 0 0 1-2.27.94 1.33 1.33 0 0 1 .94-2.27 1.34 1.34 0 0 1 1.33 1.33z" class="B"/><path d="M321.66 122.98h2.97v2.97h-2.97z" class="C"/><rect x="309.2" y="104.7" width="42.3" height="12.42" rx="1.65" class="B"/><rect x="309.2" y="104.7" width="42.3" height="12.42" rx="1.65" class="D"/><rect x="294.79" y="104.7" width="42.3" height="12.42" rx="1.65" class="B"/><use xlink:href="#E" x="53.2" y="-122.09" class="C"/><use xlink:href="#H" class="B"/><path d="M321.75 109.42h2.97v2.97h-2.97z" class="C"/><rect x="309.29" y="91.14" width="42.3" height="12.42" rx="1.65" class="B"/><rect x="309.29" y="91.14" width="42.3" height="12.42" rx="1.65" class="D"/><rect x="294.88" y="91.14" width="42.3" height="12.42" rx="1.65" class="B"/><circle cx="330.39" cy="97.35" r="2.61" class="C"/><path d="M331.72 97.35a1.33 1.33 0 1 1-2.66 0 1.33 1.33 0 0 1 1.33-1.33 1.32 1.32 0 0 1 1.33 1.33z" class="B"/><path d="M321.83 95.86h2.97v2.97h-2.97z" class="C"/><rect x="360.61" y="308.1" width="42.3" height="12.42" rx="1.65" class="B"/><rect x="360.61" y="308.1" width="42.3" height="12.42" rx="1.65" class="D"/><rect x="346.2" y="308.1" width="42.3" height="12.42" rx="1.65" class="B"/><use xlink:href="#D" x="104.86" class="C"/><use xlink:href="#G" x="52.39" class="B"/><path d="M373.15 312.83h2.97v2.97h-2.97z" class="C"/><rect x="360.61" y="294.54" width="42.3" height="12.42" rx="1.65" class="B"/><rect x="360.61" y="294.54" width="42.3" height="12.42" rx="1.65" class="D"/><rect x="346.2" y="294.54" width="42.3" height="12.42" rx="1.65" class="B"/><use xlink:href="#D" x="104.86" y="-13.56" class="C"/><use xlink:href="#G" x="52.39" y="-13.56" class="B"/><path d="M373.15 299.27h2.97v2.97h-2.97z" class="C"/><rect x="360.61" y="280.98" width="42.3" height="12.42" rx="1.65" class="B"/><rect x="360.61" y="280.98" width="42.3" height="12.42" rx="1.65" class="D"/><rect x="346.2" y="280.98" width="42.3" height="12.42" rx="1.65" class="B"/><use xlink:href="#D" x="104.86" y="-27.12" class="C"/><use xlink:href="#G" x="52.39" y="-27.12" class="B"/><path d="M373.15 285.71h2.97v2.97h-2.97z" class="C"/><rect x="360.61" y="267.42" width="42.3" height="12.42" rx="1.65" class="B"/><rect x="360.61" y="267.42" width="42.3" height="12.42" rx="1.65" class="D"/><rect x="346.2" y="267.42" width="42.3" height="12.42" rx="1.65" class="B"/><use xlink:href="#E" x="104.6" y="40.63" class="C"/><path d="M383 273.63a1.33 1.33 0 1 1-2.66 0 1.33 1.33 0 1 1 2.66 0z" class="B"/><path d="M373.15 272.15h2.97v2.97h-2.97z" class="C"/><rect x="360.69" y="253.86" width="42.3" height="12.42" rx="1.65" class="B"/><rect x="360.69" y="253.86" width="42.3" height="12.42" rx="1.65" class="D"/><rect x="346.28" y="253.86" width="42.3" height="12.42" rx="1.65" class="B"/><circle cx="381.8" cy="260.07" r="2.61" class="C"/><use xlink:href="#H" x="51.49" y="149.16" class="B"/><path d="M373.24 258.59h2.97v2.97h-2.97z" class="C"/><rect x="360.78" y="240.3" width="42.3" height="12.42" rx="1.65" class="B"/><rect x="360.78" y="240.3" width="42.3" height="12.42" rx="1.65" class="D"/><rect x="346.37" y="240.3" width="42.3" height="12.42" rx="1.65" class="B"/><circle cx="381.88" cy="246.51" r="2.61" class="C"/><circle cx="381.88" cy="246.51" r="1.33" class="B"/><path d="M373.32 245.03h2.97V248h-2.97z" class="C"/><rect x="360.86" y="226.74" width="42.3" height="12.42" rx="1.65" class="B"/><rect x="360.86" y="226.74" width="42.3" height="12.42" rx="1.65" class="D"/><rect x="346.45" y="226.74" width="42.3" height="12.42" rx="1.65" class="B"/><circle cx="381.97" cy="232.95" r="2.61" class="C"/><circle cx="381.97" cy="232.95" r="1.33" class="B"/><path d="M373.41 231.47h2.97v2.97h-2.97z" class="C"/><rect x="360.95" y="213.18" width="42.3" height="12.42" rx="1.65" class="B"/><rect x="360.95" y="213.18" width="42.3" height="12.42" rx="1.65" class="D"/><rect x="346.54" y="213.18" width="42.3" height="12.42" rx="1.65" class="B"/><path d="M384.66 219.39a2.61 2.61 0 1 1-5.22 0 2.61 2.61 0 1 1 5.22 0h0z" class="C"/><circle cx="382.05" cy="219.39" r="1.33" class="B"/><path d="M373.49 217.91h2.97v2.97h-2.97z" class="C"/><rect x="361.03" y="199.62" width="42.3" height="12.42" rx="1.65" class="B"/><rect x="361.03" y="199.62" width="42.3" height="12.42" rx="1.65" class="D"/><rect x="346.62" y="199.62" width="42.3" height="12.42" rx="1.65" class="B"/><use xlink:href="#E" x="105.03" y="-27.17" class="C"/><circle cx="382.14" cy="205.83" r="1.33" class="B"/><path d="M373.58 204.35h2.97v2.97h-2.97z" class="C"/><rect x="361.12" y="186.06" width="42.3" height="12.42" rx="1.65" class="B"/><rect x="361.12" y="186.06" width="42.3" height="12.42" rx="1.65" class="D"/><rect x="346.71" y="186.06" width="42.3" height="12.42" rx="1.65" class="B"/><path d="M384.83 192.27a2.61 2.61 0 0 1-5.22 0 2.61 2.61 0 0 1 4.456-1.846 2.61 2.61 0 0 1 .764 1.846h0z" class="C"/><path d="M383.55 192.27a1.33 1.33 0 1 1-2.66 0 1.33 1.33 0 1 1 2.66 0h0z" class="B"/><path d="M373.66 190.79h2.97v2.97h-2.97z" class="C"/><rect x="361.2" y="172.5" width="42.3" height="12.42" rx="1.65" class="B"/><rect x="361.2" y="172.5" width="42.3" height="12.42" rx="1.65" class="D"/><rect x="346.8" y="172.5" width="42.3" height="12.42" rx="1.65" class="B"/><circle cx="382.31" cy="178.71" r="2.61" class="C"/><path d="M383.64 178.71a1.33 1.33 0 0 1-2.66 0 1.33 1.33 0 0 1 1.33-1.33 1.34 1.34 0 0 1 1.33 1.33h0z" class="B"/><path d="M373.75 177.22h2.97v2.97h-2.97z" class="C"/><rect x="361.29" y="158.94" width="42.3" height="12.42" rx="1.65" class="B"/><rect x="361.29" y="158.94" width="42.3" height="12.42" rx="1.65" class="D"/><rect x="346.88" y="158.94" width="42.3" height="12.42" rx="1.65" class="B"/><circle cx="382.39" cy="165.15" r="2.61" class="C"/><path d="M383.72 165.15a1.33 1.33 0 1 1-2.66 0 1.33 1.33 0 1 1 2.66 0z" class="B"/><path d="M373.83 163.66h2.97v2.97h-2.97z" class="C"/><rect x="361.37" y="145.38" width="42.3" height="12.42" rx="1.65" class="B"/><rect x="361.37" y="145.38" width="42.3" height="12.42" rx="1.65" class="D"/><rect x="346.97" y="145.38" width="42.3" height="12.42" rx="1.65" class="B"/><circle cx="382.48" cy="151.59" r="2.61" class="C"/><circle cx="382.48" cy="151.59" r="1.33" class="B"/><path d="M373.92 150.1h2.97v2.97h-2.97z" class="C"/><rect x="361.46" y="131.82" width="42.3" height="12.42" rx="1.65" class="B"/><rect x="361.46" y="131.82" width="42.3" height="12.42" rx="1.65" class="D"/><rect x="347.05" y="131.82" width="42.3" height="12.42" rx="1.65" class="B"/><circle cx="382.57" cy="138.03" r="2.61" class="C"/><circle cx="382.57" cy="138.03" r="1.33" class="B"/><path d="M374 136.54h2.97v2.97H374z" class="C"/><rect x="361.55" y="118.26" width="42.3" height="12.42" rx="1.65" class="B"/><rect x="361.55" y="118.26" width="42.3" height="12.42" rx="1.65" class="D"/><rect x="347.14" y="118.26" width="42.3" height="12.42" rx="1.65" class="B"/><path d="M385.26 124.47a2.61 2.61 0 0 1-5.22 0 2.61 2.61 0 0 1 5.22 0h0z" class="C"/><circle cx="382.65" cy="124.47" r="1.33" class="B"/><path d="M374.09 122.98h2.97v2.97h-2.97z" class="C"/><rect x="361.63" y="104.7" width="42.3" height="12.42" rx="1.65" class="B"/><rect x="361.63" y="104.7" width="42.3" height="12.42" rx="1.65" class="D"/><rect x="347.22" y="104.7" width="42.3" height="12.42" rx="1.65" class="B"/><path d="M385.35 110.91a2.61 2.61 0 1 1-5.22 0 2.61 2.61 0 1 1 5.22 0h0z" class="C"/><use xlink:href="#H" x="52.43" class="B"/><path d="M374.18 109.42h2.97v2.97h-2.97z" class="C"/><rect x="361.72" y="91.14" width="42.3" height="12.42" rx="1.65" class="B"/><rect x="361.72" y="91.14" width="42.3" height="12.42" rx="1.65" class="D"/><rect x="347.31" y="91.14" width="42.3" height="12.42" rx="1.65" class="B"/><path d="M385.43 97.35a2.61 2.61 0 1 1-5.22 0 2.61 2.61 0 0 1 4.456-1.846 2.61 2.61 0 0 1 .764 1.846h0z" class="C"/><path d="M384.15 97.35a1.33 1.33 0 0 1-2.66 0 1.33 1.33 0 0 1 2.66 0z" class="B"/><path d="M374.26 95.86h2.97v2.97h-2.97z" class="C"/><ellipse cx="250" cy="361.24" rx="193.89" ry="11.32" fill="#f5f5f5"/><g class="F"><use xlink:href="#I"/><use xlink:href="#J"/><use xlink:href="#K"/><use xlink:href="#L"/><use xlink:href="#M"/><use xlink:href="#N"/><use xlink:href="#O"/><use xlink:href="#P"/><use xlink:href="#Q"/><use xlink:href="#R"/><use xlink:href="#S"/><use xlink:href="#T"/><use xlink:href="#U"/><use xlink:href="#V"/><use xlink:href="#W"/><use xlink:href="#X"/><use xlink:href="#Y"/><use xlink:href="#R" x="-21.53"/><use xlink:href="#Z"/><use xlink:href="#a"/><use xlink:href="#b"/><use xlink:href="#c"/><use xlink:href="#d"/><use xlink:href="#e"/><use xlink:href="#f"/><use xlink:href="#g"/><use xlink:href="#K" x="85.53"/><use xlink:href="#g" x="-9.46" y="13.23"/><use xlink:href="#P" x="75.56"/><use xlink:href="#P" x="78.4"/><use xlink:href="#h"/><use xlink:href="#i"/><use xlink:href="#P" x="86.91"/><use xlink:href="#j"/><use xlink:href="#k"/><use xlink:href="#e" x="42.72"/><use xlink:href="#l"/><use xlink:href="#m"/><use xlink:href="#m" x="2.84"/><use xlink:href="#n"/><use xlink:href="#o"/><use xlink:href="#p"/><use xlink:href="#q"/><use xlink:href="#r"/><use xlink:href="#s"/><use xlink:href="#t"/><use xlink:href="#P" x="-11.35" y="41.59"/><use xlink:href="#u"/><use xlink:href="#N" x="2.9" y="41.59"/><use xlink:href="#v"/><use xlink:href="#j" x="-86.85" y="41.59"/><use xlink:href="#w"/><use xlink:href="#x"/><use xlink:href="#y"/><use xlink:href="#z"/><use xlink:href="#AA"/><use xlink:href="#AB"/><use xlink:href="#AC"/><use xlink:href="#AD"/><use xlink:href="#N" x="42.8" y="41.59"/><use xlink:href="#P" x="38.51" y="41.59"/><use xlink:href="#AE"/><use xlink:href="#AF"/><use xlink:href="#t" x="62.66"/><use xlink:href="#AG"/><use xlink:href="#AH"/><use xlink:href="#N" x="65.56" y="41.59"/><use xlink:href="#AI"/><use xlink:href="#P" x="65.56" y="41.59"/><use xlink:href="#u" x="76.91"/><use xlink:href="#AJ"/><use xlink:href="#AK"/><use xlink:href="#AL"/><use xlink:href="#P" x="85.53" y="41.59"/><use xlink:href="#AM"/><use xlink:href="#AN"/><use xlink:href="#AO"/><use xlink:href="#AP"/><use xlink:href="#AQ"/><use xlink:href="#AR"/><use xlink:href="#AS"/><use xlink:href="#AT"/><use xlink:href="#AU"/><use xlink:href="#AV"/><use xlink:href="#AW"/><use xlink:href="#AX"/><use xlink:href="#AU" x="15.69"/><use xlink:href="#AY"/><use xlink:href="#AZ"/><use xlink:href="#Aa"/><use xlink:href="#AU" x="29.94" y="20"/><use xlink:href="#Ab"/><use xlink:href="#AZ" x="14.25" y="20"/><use xlink:href="#Ac"/><use xlink:href="#Ad"/><use xlink:href="#Ae"/><use xlink:href="#Af"/><use xlink:href="#AY" x="38.5" y="20"/><use xlink:href="#Ag"/><use xlink:href="#AW" x="58.47" y="20"/><use xlink:href="#Ah"/><use xlink:href="#Ai"/><use xlink:href="#AU" x="75.55"/><use xlink:href="#AU" x="78.39"/><use xlink:href="#Aj"/><use xlink:href="#Ai" x="11.35"/><use xlink:href="#AX" x="75.5"/><use xlink:href="#Ak"/><use xlink:href="#AU" x="95.47"/><use xlink:href="#Al"/><use xlink:href="#V" x="78.21" y="96.16"/><use xlink:href="#AZ" x="82.62"/><use xlink:href="#AU" x="108.27"/><use xlink:href="#Am"/><use xlink:href="#An"/><use xlink:href="#AZ" x="95.41"/><use xlink:href="#Ao"/><use xlink:href="#V" x="100.97" y="96.16"/><use xlink:href="#Ap"/><use xlink:href="#z" x="-212.43" y="-87.74"/><use xlink:href="#Aq"/><use xlink:href="#Ar"/><use xlink:href="#As"/><use xlink:href="#At"/><use xlink:href="#Au"/><use xlink:href="#Av"/><use xlink:href="#Av" x="4.28"/><use xlink:href="#At" x="15.69"/><use xlink:href="#Aw"/><use xlink:href="#Ax"/><use xlink:href="#Av" x="18.53"/><use xlink:href="#Ay"/><use xlink:href="#Az"/><use xlink:href="#V" x="-75.59" y="75.14"/><use xlink:href="#BA"/><use xlink:href="#AU" x="-44.08" y="-21.02"/><use xlink:href="#BB"/><use xlink:href="#At" x="29.94"/><use xlink:href="#BC"/><use xlink:href="#BD"/><use xlink:href="#Av" x="32.78"/><use xlink:href="#Av" x="37.06"/><use xlink:href="#BE"/><use xlink:href="#BF"/><use xlink:href="#BG"/><use xlink:href="#BH"/><use xlink:href="#BI"/><path d="M192.31 126.79v-5.43h-.91v-.74a1.61 1.61 0 0 0 1.23-.88h.74v7l-1.06.05z"/><use xlink:href="#BJ"/><use xlink:href="#BK"/><use xlink:href="#At" x="78.39"/><use xlink:href="#BL"/><use xlink:href="#BM"/><use xlink:href="#BI" x="21.31"/><use xlink:href="#BN"/><use xlink:href="#BO"/><use xlink:href="#BP"/><use xlink:href="#BQ"/><use xlink:href="#BR"/><use xlink:href="#At" x="108.27"/><use xlink:href="#At" x="111.11"/><use xlink:href="#Ap" x="132.48"/><use xlink:href="#BS"/><use xlink:href="#BT"/><use xlink:href="#BU"/><use xlink:href="#BV"/><use xlink:href="#BW"/><use xlink:href="#BX"/><use xlink:href="#BY"/><use xlink:href="#BZ"/><use xlink:href="#Ba"/><use xlink:href="#Bb"/><use xlink:href="#Bc"/><use xlink:href="#Bd"/><use xlink:href="#Ba" x="14.25" y="20"/><use xlink:href="#Bb" x="14.25"/><use xlink:href="#Bc" x="14.25"/><use xlink:href="#Be"/><use xlink:href="#Bf"/><use xlink:href="#Bg"/><use xlink:href="#Bh"/><use xlink:href="#Bi"/><use xlink:href="#Bj"/><use xlink:href="#Bk"/><use xlink:href="#Bl"/><use xlink:href="#Bm"/><use xlink:href="#Bn"/><path d="M198 168.38V163h-.9v-.74a1.59 1.59 0 0 0 .72-.29 1.41 1.41 0 0 0 .5-.59h.68v7h-1z"/><use xlink:href="#BX" x="78.39"/><use xlink:href="#Bo"/><use xlink:href="#Bp"/><use xlink:href="#Bq"/><use xlink:href="#Br"/><use xlink:href="#Bs"/><use xlink:href="#Bt"/><use xlink:href="#Bu"/><use xlink:href="#Bv"/><use xlink:href="#BL" x="45.62" y="150.92"/><use xlink:href="#Bw"/><use xlink:href="#Bx"/><use xlink:href="#By"/><use xlink:href="#Bz"/><use xlink:href="#CA"/><use xlink:href="#AZ" x="-18.59" y="-41.59"/><use xlink:href="#CB"/><use xlink:href="#AU" x="11.35" y="-41.59"/><use xlink:href="#CC"/><use xlink:href="#CD"/><use xlink:href="#CE"/><use xlink:href="#CF"/><use xlink:href="#CG"/><use xlink:href="#CH"/><use xlink:href="#CI"/><use xlink:href="#AU" x="23.92" y="-67.95"/><use xlink:href="#CJ"/><use xlink:href="#V" x="6.66" y="28.21"/><use xlink:href="#CK"/><use xlink:href="#CL"/><use xlink:href="#AI" x="-147.57" y="-22.04"/><path d="M127.2 15.77v-5.43h-.91V9.6a1.61 1.61 0 0 0 1.23-.88h.74v7l-1.06.05z"/><use xlink:href="#CM"/><use xlink:href="#Ai" x="-17.18" y="-41.59"/><use xlink:href="#CN"/><use xlink:href="#AU" x="62.66" y="-41.59"/><use xlink:href="#CO"/><use xlink:href="#AZ" x="46.97" y="-41.59"/><use xlink:href="#CP"/><use xlink:href="#AU" x="76.91" y="-41.59"/><use xlink:href="#CC" x="65.56"/><use xlink:href="#AZ" x="61.22" y="-41.59"/><use xlink:href="#CQ"/><use xlink:href="#CP" x="18.53"/><use xlink:href="#CG" x="65.56"/><use xlink:href="#CR"/><use xlink:href="#CS"/><use xlink:href="#CT"/><use xlink:href="#CU"/><use xlink:href="#CV"/><use xlink:href="#CS" x="14.25"/><use xlink:href="#CW"/><use xlink:href="#CX"/><use xlink:href="#CY"/><use xlink:href="#CZ"/><use xlink:href="#Ca"/><use xlink:href="#Cb"/><use xlink:href="#Cc"/><use xlink:href="#Cd"/><use xlink:href="#CU" x="-77.39" y="-29.6"/><use xlink:href="#Ce"/><use xlink:href="#Cf"/></g><g class="E J"><use xlink:href="#I"/><use xlink:href="#J"/><use xlink:href="#K"/><use xlink:href="#L"/><use xlink:href="#M"/><use xlink:href="#N"/><use xlink:href="#O"/><use xlink:href="#P"/><use xlink:href="#Q"/><use xlink:href="#R"/><use xlink:href="#S"/><use xlink:href="#T"/><use xlink:href="#U"/><use xlink:href="#V"/><use xlink:href="#W"/><use xlink:href="#X"/><use xlink:href="#Y"/><use xlink:href="#R" x="-21.53"/><use xlink:href="#Z"/><use xlink:href="#a"/><use xlink:href="#b"/><use xlink:href="#c"/><use xlink:href="#d"/><use xlink:href="#e"/><use xlink:href="#f"/><use xlink:href="#g"/><use xlink:href="#K" x="85.53"/><use xlink:href="#g" x="-9.46" y="13.23"/><use xlink:href="#P" x="75.56"/><use xlink:href="#P" x="78.4"/><use xlink:href="#h"/><use xlink:href="#i"/><use xlink:href="#P" x="86.91"/><use xlink:href="#j"/><use xlink:href="#k"/><use xlink:href="#e" x="42.72"/><use xlink:href="#l"/><use xlink:href="#m"/><use xlink:href="#m" x="2.84"/><use xlink:href="#n"/><use xlink:href="#o"/><use xlink:href="#p"/><use xlink:href="#q"/><use xlink:href="#r"/><use xlink:href="#s"/><use xlink:href="#t"/><use xlink:href="#P" x="-11.35" y="41.59"/><use xlink:href="#u"/><use xlink:href="#N" x="2.9" y="41.59"/><use xlink:href="#v"/><use xlink:href="#j" x="-86.85" y="41.59"/><use xlink:href="#w"/><use xlink:href="#x"/><use xlink:href="#y"/><use xlink:href="#z"/><use xlink:href="#AA"/><use xlink:href="#AB"/><use xlink:href="#AC"/><use xlink:href="#AD"/><use xlink:href="#N" x="42.8" y="41.59"/><use xlink:href="#P" x="38.51" y="41.59"/><use xlink:href="#AE"/><use xlink:href="#AF"/><use xlink:href="#t" x="62.66"/><use xlink:href="#AG"/><use xlink:href="#AH"/><use xlink:href="#N" x="65.56" y="41.59"/><use xlink:href="#AI"/><use xlink:href="#P" x="65.56" y="41.59"/><use xlink:href="#u" x="76.91"/><use xlink:href="#AJ"/><use xlink:href="#AK"/><use xlink:href="#AL"/><use xlink:href="#P" x="85.53" y="41.59"/><use xlink:href="#AM"/><use xlink:href="#AN"/><use xlink:href="#AO"/><use xlink:href="#AP"/><use xlink:href="#AQ"/><use xlink:href="#AR"/><use xlink:href="#AS"/><use xlink:href="#AT"/><use xlink:href="#AU"/><use xlink:href="#AV"/><use xlink:href="#AW"/><use xlink:href="#AX"/><use xlink:href="#AU" x="15.69"/><use xlink:href="#AY"/><use xlink:href="#AZ"/><use xlink:href="#Aa"/><use xlink:href="#AU" x="29.94" y="20"/><use xlink:href="#Ab"/><use xlink:href="#AZ" x="14.25" y="20"/><use xlink:href="#Ac"/><use xlink:href="#Ad"/><use xlink:href="#Ae"/><use xlink:href="#Af"/><use xlink:href="#AY" x="38.5" y="20"/><use xlink:href="#Ag"/><use xlink:href="#AW" x="58.47" y="20"/><use xlink:href="#Ah"/><use xlink:href="#Ai"/><use xlink:href="#AU" x="75.55"/><use xlink:href="#AU" x="78.39"/><use xlink:href="#Aj"/><use xlink:href="#Ai" x="11.35"/><use xlink:href="#AX" x="75.5"/><use xlink:href="#Ak"/><use xlink:href="#AU" x="95.47"/><use xlink:href="#Al"/><use xlink:href="#V" x="78.21" y="96.16"/><use xlink:href="#AZ" x="82.62"/><use xlink:href="#AU" x="108.27"/><use xlink:href="#Am"/><use xlink:href="#An"/><use xlink:href="#AZ" x="95.41"/><use xlink:href="#Ao"/><use xlink:href="#V" x="100.97" y="96.16"/><use xlink:href="#Ap"/><use xlink:href="#z" x="-212.43" y="-87.74"/><use xlink:href="#Aq"/><use xlink:href="#Ar"/><use xlink:href="#As"/><use xlink:href="#At"/><use xlink:href="#Au"/><use xlink:href="#Av"/><use xlink:href="#Av" x="4.28"/><use xlink:href="#At" x="15.69"/><use xlink:href="#Aw"/><use xlink:href="#Ax"/><use xlink:href="#Av" x="18.53"/><use xlink:href="#Ay"/><use xlink:href="#Az"/><use xlink:href="#V" x="-75.59" y="75.14"/><use xlink:href="#BA"/><use xlink:href="#AU" x="-44.08" y="-21.02"/><use xlink:href="#BB"/><use xlink:href="#At" x="29.94"/><use xlink:href="#BC"/><use xlink:href="#BD"/><use xlink:href="#Av" x="32.78"/><use xlink:href="#Av" x="37.06"/><use xlink:href="#BE"/><use xlink:href="#BF"/><use xlink:href="#BG"/><use xlink:href="#BH"/><use xlink:href="#BI"/><path d="M192.31 126.79v-5.43h-.91v-.74a1.61 1.61 0 0 0 1.23-.88h.74v7l-1.06.05z"/><use xlink:href="#BJ"/><use xlink:href="#BK"/><use xlink:href="#At" x="78.39"/><use xlink:href="#BL"/><use xlink:href="#BM"/><use xlink:href="#BI" x="21.31"/><use xlink:href="#BN"/><use xlink:href="#BO"/><use xlink:href="#BP"/><use xlink:href="#BQ"/><use xlink:href="#BR"/><use xlink:href="#At" x="108.27"/><use xlink:href="#At" x="111.11"/><use xlink:href="#Ap" x="132.48"/><use xlink:href="#BS"/><use xlink:href="#BT"/><use xlink:href="#BU"/><use xlink:href="#BV"/><use xlink:href="#BW"/><use xlink:href="#BX"/><use xlink:href="#BY"/><use xlink:href="#BZ"/><use xlink:href="#Ba"/><use xlink:href="#Bb"/><use xlink:href="#Bc"/><use xlink:href="#Bd"/><use xlink:href="#Ba" x="14.25" y="20"/><use xlink:href="#Bb" x="14.25"/><use xlink:href="#Bc" x="14.25"/><use xlink:href="#Be"/><use xlink:href="#Bf"/><use xlink:href="#Bg"/><use xlink:href="#Bh"/><use xlink:href="#Bi"/><use xlink:href="#Bj"/><use xlink:href="#Bk"/><use xlink:href="#Bl"/><use xlink:href="#Bm"/><use xlink:href="#Bn"/><path d="M198 168.38V163h-.9v-.74a1.59 1.59 0 0 0 .72-.29 1.41 1.41 0 0 0 .5-.59h.68v7h-1z"/><use xlink:href="#BX" x="78.39"/><use xlink:href="#Bo"/><use xlink:href="#Bp"/><use xlink:href="#Bq"/><use xlink:href="#Br"/><use xlink:href="#Bs"/><use xlink:href="#Bt"/><use xlink:href="#Bu"/><use xlink:href="#Bv"/><use xlink:href="#BL" x="45.62" y="150.92"/><use xlink:href="#Bw"/><use xlink:href="#Bx"/><use xlink:href="#By"/><use xlink:href="#Bz"/><use xlink:href="#CA"/><use xlink:href="#AZ" x="-18.59" y="-41.59"/><use xlink:href="#CB"/><use xlink:href="#AU" x="11.35" y="-41.59"/><use xlink:href="#CC"/><use xlink:href="#CD"/><use xlink:href="#CE"/><use xlink:href="#CF"/><use xlink:href="#CG"/><use xlink:href="#CH"/><use xlink:href="#CI"/><use xlink:href="#AU" x="23.92" y="-67.95"/><use xlink:href="#CJ"/><use xlink:href="#V" x="6.66" y="28.21"/><use xlink:href="#CK"/><use xlink:href="#CL"/><use xlink:href="#AI" x="-147.57" y="-22.04"/><path d="M127.2 15.77v-5.43h-.91V9.6a1.61 1.61 0 0 0 1.23-.88h.74v7l-1.06.05z"/><use xlink:href="#CM"/><use xlink:href="#Ai" x="-17.18" y="-41.59"/><use xlink:href="#CN"/><use xlink:href="#AU" x="62.66" y="-41.59"/><use xlink:href="#CO"/><use xlink:href="#AZ" x="46.97" y="-41.59"/><use xlink:href="#CP"/><use xlink:href="#AU" x="76.91" y="-41.59"/><use xlink:href="#CC" x="65.56"/><use xlink:href="#AZ" x="61.22" y="-41.59"/><use xlink:href="#CQ"/><use xlink:href="#CP" x="18.53"/><use xlink:href="#CG" x="65.56"/><use xlink:href="#CR"/><use xlink:href="#CS"/><use xlink:href="#CT"/><use xlink:href="#CU"/><use xlink:href="#CV"/><use xlink:href="#CS" x="14.25"/><use xlink:href="#CW"/><use xlink:href="#CX"/><use xlink:href="#CY"/><use xlink:href="#CZ"/><use xlink:href="#Ca"/><use xlink:href="#Cb"/><use xlink:href="#Cc"/><use xlink:href="#Cd"/><use xlink:href="#CU" x="-77.39" y="-29.6"/><use xlink:href="#Ce"/><use xlink:href="#Cf"/></g><use xlink:href="#Cg" class="F"/><use xlink:href="#Cg" class="E K"/><use xlink:href="#Ch" class="F"/><use xlink:href="#Ch" class="E J"/><g class="F"><rect transform="matrix(-1 0 0 -1 430.54 313.99)" width="52.8" height="5.57" rx="1.64"/><rect x="381.55" y="358.41" width="45.19" height="5.57" rx="1.64"/></g><g class="G"><path d="M203.55 161.17h12.85l-3.42 36.79 20.32 3.05v2.56h-42.8v-2.56l8.76-3.05z"/><path d="M253.43 184.52a4 4 0 0 1-4 4.47h-77.82a5 5 0 0 1-4.87-4.47l-4.62-49.8a4.31 4.31 0 0 1 .1-1.45 4 4 0 0 1 3.93-3.001h77.79a5 5 0 0 1 4.87 4.471l4.62 49.78z"/></g><use xlink:href="#Ci" class="F"/><use xlink:href="#Ci" class="E J"/><path d="M156.34 363.98h-6.12l-11.01-153.24h8.13z" class="G"/><path d="M156.35 363.98h-6.13l-10.47-145.63-.54-7.37h8.13l.44 7.37z" class="E L"/><path d="M147.78 217.98h-8.03l-.54-7h8.13z" class="H I"/><path d="M301.3 363.98h-6.12l-1-153.24h8.12z" class="G"/><path d="M302.31 210.98l-.16 24.73-.84 128.27h-6.13l-.84-128.27-.16-24.73z" class="E M"/><path d="M302.31 210.98l-.16 25h-7.81l-.16-25z" class="H I"/><path d="M366.34 363.98h-6.12l-11.01-153.24h8.13z" class="G"/><path d="M366.35 363.98h-6.13l-10.47-145.63-.54-7.37h8.13l.44 7.37z" class="E M"/><path d="M357.78 217.98h-8.03l-.54-7h8.13z" class="H I"/><path d="M86.26 363.98h-6.12l9-153.24h8.13z" class="G"/><path d="M97.27 210.98l-.54 7.37-10.47 145.63h-6.12l8.56-145.63.44-7.37z" class="E M"/><path d="M89.14 210.98h8.13l-.54 7H88.7z" class="H I"/><use xlink:href="#Cj" class="F"/><use xlink:href="#Cj" class="E J"/><path d="M82.7 206.9h281.08v3.84H82.7z" class="H I"/><use xlink:href="#Ck" class="F"/><use xlink:href="#Ck" class="E J"/><path d="M216.28 203.57l.98-3.73h40.55l18.68 1.87.71 1.86z" class="G"/><path d="M257.81 199.84v3.73h-41.53l.98-3.73z" class="I L"/><g class="G"><path d="M117.55 161.17h12.85l-13.42 36.79 20.32 3.05v2.56H94.5v-2.56l8.77-3.05z"/><path d="M155.17 134.16a5.58 5.58 0 0 0-5.25-4.51H80.13a3.58 3.58 0 0 0-3.68 3 4.3 4.3 0 0 0 0 1.47l8.85 50.3a5.56 5.56 0 0 0 5.28 4.58h69.79a3.66 3.66 0 0 0 3.65-4.51l-8.85-50.33z"/></g><path d="M164 184.46a3.66 3.66 0 0 1-3.65 4.51H92.58a5.56 5.56 0 0 1-5.25-4.51l-8.85-50.3a4.3 4.3 0 0 1 0-1.47 3.58 3.58 0 0 1 3.68-3h67.79a5.58 5.58 0 0 1 5.25 4.51l8.8 50.26z" class="E H"/><g class="F"><use xlink:href="#Cl"/><use xlink:href="#Cl" class="J"/></g><g class="G"><path d="M285.55 161.17h12.85l-13.42 36.79 20.32 3.05v2.56h-42.8v-2.56l8.76-3.05z"/><path d="M330.58 134.72a4.68 4.68 0 0 0-4.64-4.47h-69.79a4.23 4.23 0 0 0-4.08 3 4.37 4.37 0 0 0-.18 1.46l2.05 49.79a4.68 4.68 0 0 0 4.64 4.46h69.79a4.24 4.24 0 0 0 4.26-4.46l-2.05-49.78z"/></g><path d="M332.63 184.51a4.24 4.24 0 0 1-4.26 4.46h-67.79a4.68 4.68 0 0 1-4.64-4.46l-2.05-49.79a4.37 4.37 0 0 1 .18-1.46 4.23 4.23 0 0 1 4.08-3h67.79a4.68 4.68 0 0 1 4.64 4.47l2.05 49.78z" class="E L"/><g class="F"><use xlink:href="#Cm"/><use xlink:href="#Cm" class="J"/></g><use xlink:href="#Cm" class="I L"/><path d="M322.45 138.05h-49.77l-.04-.93h49.77zm.12 2.84h-44.28l-.04-.93h44.28zm.13 2.84h-27.99l-.04-.92h27.99zm.13 2.84h-36.34l-.05-.92h36.34zm.12 2.85h-24.1l-.04-.93h24.1zm.38 8.67h-49.76l-.04-.93h49.76zm.13 2.84h-44.28l-.04-.93h44.28zm.13 2.84H295.6l-.04-.93h27.99zm.12 2.85h-36.34l-.04-.93h36.34zm.13 2.84h-24.11l-.04-.93h24.11z" class="E"/><g class="F"><path d="M215.15 168.27h-43.42l-2.55-28.4h43.42z"/><path d="M215.15 168.27h-43.42l-2.55-28.4h43.42z"/></g><path d="M213.43 166.85h-40.24l-1.94-21.66h40.24z" class="G"/><path d="M204.67 149.36H174.9l-.09-.93h29.77zm-15.23 2.85h-14.28l-.09-.93h14.28zm3.96 2.85h-17.99l-.08-.93h17.99zm-11.39 2.86h-6.34l-.09-.93h6.34zm-1.98 2.85h-4.11l-.08-.93h4.1z" class="E"/><g class="F"><path d="M243.82 182.47h-43.41l-2.56-28.4h43.42z"/><path d="M243.82 182.47h-43.41l-2.56-28.4h43.42z"/></g><path d="M242.11 181.05h-40.24l-1.95-21.66h40.24z" class="G"/><g class="E"><path d="M233.34 163.56h-29.77l-.08-.93h29.77zm-15.23 2.85h-14.28l-.08-.93h14.28zm3.97 2.86h-17.99l-.09-.94h17.99zm-11.4 2.85h-6.34l-.08-.93h6.34zm-1.97 2.85h-4.11l-.08-.93h4.1z"/><path d="M159.34 181.05H91.7l-7.92-44.13h67.65z" class="J"/><path d="M110.35 179.32h-17.6l-6.52-36.34h17.6zm1.58 0h45.68l-6.52-36.34h-45.67z" class="J"/></g><g class="L I"><path d="M102.07 146.69H89.3l-.16-.92h12.77zm-4.99 2.75H89.8l-.17-.92h7.28zm3.2 2.75h-9.99l-.17-.93h9.99zm-3.16 2.74h-6.34l-.17-.92h6.34zm-1.74 2.75h-4.11l-.16-.92h4.1zm9.15 2.75H91.77l-.17-.93h12.77zm-4.99 2.74h-7.28l-.17-.92h7.28zm3.2 2.75h-9.99l-.17-.92h9.99zm-3.16 2.74h-6.34l-.16-.92h6.34zm-1.74 2.75h-4.11l-.16-.92h4.1zm2.73 2.75h-6.34l-.17-.93h6.34zm-1.74 2.74h-4.11l-.17-.92h4.11z"/><path d="M142.07 146.69H109.3l-.16-.92h32.77zm-4.99 2.75H109.8l-.17-.92h27.28zm3.2 2.75h-29.99l-.17-.93h29.99zm-3.16 2.74h-26.34l-.17-.92h26.34zm-1.74 2.75h-24.11l-.16-.92h24.1zm9.15 2.75h-32.76l-.17-.93h32.77zm-4.99 2.74h-27.28l-.17-.92h27.28zm3.2 2.75h-29.99l-.17-.92h29.99zm-3.16 2.74h-26.34l-.16-.92h26.34zm-1.74 2.75h-24.11l-.16-.92h24.1zm2.73 2.75h-26.34l-.17-.93h26.34zm-1.75 2.74h-24.1l-.17-.92h24.11z"/></g><g class="F"><rect transform="matrix(-1 0 0 -1 318.91 100.95)" width="36.13" height="36.13" rx="3.03"/><path d="M305 97.74s-1.84 10.18-15.29 14.77c0 0 7.64-7.39 7.64-14.77H305z"/></g><path fill="#ebb376" d="M294.06 353.2l-7.97-1.09-1.1-18.94 7.95 1.1z"/><path d="M292.94 334.27l-7.95-1.09.63 10.82 7.95.7z" class="H I"/><path d="M285.49 351.15l9-.57a.57.57 0 0 1 .63.51h0l.88 7.1a1.4 1.4 0 0 1-1.31 1.5l-8.61.28c-2.43.14-7.22.66-10.58.33s-2.94-3.63-1.49-3.79c3.43-.39 8-2.91 10.13-4.83a2.24 2.24 0 0 1 1.35-.53z" class="G"/><path d="M285.3 352.12h0c0-.14-.13-2.41-1-3.13a1.16 1.16 0 0 0-.9-.21.77.77 0 0 0-.68.6 2.91 2.91 0 0 0 .79 1.84 3.25 3.25 0 0 0-2.22-.41.74.74 0 0 0-.41.56 1 1 0 0 0 .3 1 2.13 2.13 0 0 0 1.52.3 9.31 9.31 0 0 0 2.1-.42.08.08 0 0 0 .07 0 .33.33 0 0 0 0-.06s.19 0 .2-.07h.17.06zm-2.21-2.66c0-.11.07-.25.33-.3h.09a.51.51 0 0 1 .41.15c.51.42.65 1.69.68 2.45l-.16-.09a3.78 3.78 0 0 1-1.35-2.21h0zm-1.64 2.65a.71.71 0 0 1-.18-.66.33.33 0 0 1 .2-.27c.51-.24 1.88.35 2.85.88-1.41.37-2.47.39-2.87.05h0z" class="F"/><use xlink:href="#Cn" class="G"/><use xlink:href="#Cn" class="H I"/></g><path d="M261.07 138.7c.2 1.88-.6 3.5-1.79 3.64s-2.33-1.29-2.54-3.16.6-3.51 1.79-3.64 2.33 1.28 2.54 3.16z" stroke="#263238" stroke-width=".5"/><g class="P"><path d="M261.1 148.37a12 12 0 0 0 .62 1.24 12.91 12.91 0 0 0 5.58 5.29 12.24 12.24 0 0 0 1.84.75 11.77 11.77 0 0 0 10.05-1.24 12 12 0 0 0 3.36-3.28c3.82-5.44 2.79-10.8 1.77-20a12.66 12.66 0 0 0-19.32-9.52c-8.33 5.15-7.26 18.9-3.9 26.76z" class="O"/><path d="M267.3 154.9a12.24 12.24 0 0 0 1.84.75 11.77 11.77 0 0 0 10.05-1.24 14 14 0 0 0-2.15-2.82 18.23 18.23 0 0 0-9.74 3.31h0z" class="H I"/><path d="M291.39 157.34c-1.57 5.94-11.76 10.71-11.76 10.71s-6.87 2.18-6.83-.44c3.08-2.79 3.7-5.48 3.06-8a11.73 11.73 0 0 0-2.19-4.15 24.76 24.76 0 0 0-1.7-2l6-16c2.17 6.6 7.03 18.2 13.42 19.88z" class="O"/><path d="M262.39 128.24s-2.58 8.69 6.33 14.93c0 0 3.75 8 5.84 9s6.8.39 8.4 0 9.81-7.23 7.44-23.26-15.84-11-15.84-11l-12.17 10.33z" class="G"/><path d="M269.93 139a6 6 0 0 1-2.34 4.56c-1.72 1.1-3.38-1.31-3.58-4.09-.16-2.47.52-6.09 2.58-6s3.57 2.99 3.34 5.53z" class="O"/><path d="M280.08 117.24s-9.89-2.71-17.61 1.38c0 0 1.52-1 1.06-2.26s-4 3.3-4 3.3 1.19-4.34.46-4.74-5.27 6.4-3 9.7c0 0-4.4-3-3.62-.66s.78 6.39 10.93 4.41 15.78-11.13 15.78-11.13z" class="G"/></g><path stroke="#263238" stroke-width=".5" d="M256.74 139.18l7.25-3.03"/><g class="P"><path d="M271.67 160.88s6.69-8.26 17.37-8.15l6.53 5.45-23.9 2.7z" class="F"/><path d="M271.67 160.88s6.69-8.26 17.37-8.15l6.53 5.45-23.9 2.7z" class="E M"/><path d="M231.27 195.13l-7.27-3.31s-6.06-1.13-8.57-.56-8 8.09-7.91 9 9.6 3.16 9.81 3.16 4.32-2.32 4.32-2.32l6.71 2.32 2.91-8.29z" class="O"/><path d="M296.81 341.14l-17.63 1.16-1.51-7.55 19.37-.9z" class="F"/><path d="M296.81 341.14l-17.63 1.16-1.51-7.55 19.37-.9z" class="E H"/><path fill="#ebb376" d="M275.68 353.13l-8.02.59-5.02-18.29 8.01-.58z"/><path d="M266.58 354h-.14 0c0-.12-.41-2.37-1.38-2.9a.9.9 0 0 0-.8 0 .7.7 0 0 0-.49.73 3 3 0 0 0 1.18 1.63 3.21 3.21 0 0 0-2.24.06.7.7 0 0 0-.28.63 1 1 0 0 0 .51.94 2.15 2.15 0 0 0 1.56 0 10 10 0 0 0 2-.84h.07v-.07a.11.11 0 0 0 .01-.18h0zm-2.41-2.24c0-.11 0-.25.27-.35h.09a.55.55 0 0 1 .43.06c.58.31 1 1.53 1.17 2.26l-.18-.05c-.79-.49-1.71-1.39-1.78-1.93v.01zm-1.05 2.94a.71.71 0 0 1-.31-.61.36.36 0 0 1 .13-.31c.46-.34 1.92 0 3 .27-1.33.65-2.35.89-2.82.64v.01z" class="F"/><path d="M270.65 334.85l-8.01.59 2.87 10.45 7.92-.97z" class="H I"/><path d="M259.92 344.6l14.08-4.15s-8.43-47.58-17-64.08l2.54-.79 7.35-2.1L329 257.12l-19-17.73s-75.68 11.54-77.25 31.48c-.69 9.59 27.17 73.73 27.17 73.73z" class="G"/><path d="M275.87 340.76l-17.01 4.81-3.05-7.07 18.76-4.92z" class="F"/><path d="M275.87 340.76l-17.01 4.81-3.05-7.07 18.76-4.92z" class="E H"/><path d="M266.88 352.9l8.68-2.42a.57.57 0 0 1 .72.36h0l2.35 6.76a1.43 1.43 0 0 1-1 1.75l-8.37 2.06c-2.35.65-6.93 2.15-10.28 2.53s-3.63-2.94-2.25-3.39c3.28-1.1 7.21-4.52 8.91-6.84a2.22 2.22 0 0 1 1.24-.81h0z" class="G"/><use xlink:href="#Co" class="F"/><use xlink:href="#Co" class="E J"/><use xlink:href="#Cp" class="F"/><use xlink:href="#Cp" class="E M"/><path d="M343 249.56c-28.68 5.54-56.81-5.8-56.81-5.8s-.07-2.06-.43-5.27h0c-.13-1.22-.31-2.61-.53-4.11a83.24 83.24 0 0 0-.76-4.32 70.84 70.84 0 0 0-3.63-12.63c-1.59-3.95-2.83-7.2-3.78-9.87l-.39-1.11-1.06-3.15c-2-6.36-1.77-7.57-1.77-7.57 7.26 1 7.8-13.93-1.91-25.05a12.47 12.47 0 0 0-8-4.32s-1-1.58 9.25-7.35c5.52-3.11 11.7-.82 16.27-.82 7.34 0 8.44-1 8.44-1 12 0 26.48 15.83 35.83 34.66.47.94.93 1.89 1.37 2.85l1.33 3a88.05 88.05 0 0 1 6.56 23l.28 2.35.35 3.1.34 3.47c1.82 19.18-.95 19.94-.95 19.94z" class="F"/><g class="E"><path d="M277.1 207.55l11.81 9.65-4.4 12.85a70.84 70.84 0 0 0-3.63-12.63c-1.59-3.95-2.83-7.2-3.78-9.87z" class="K"/><path d="M295.57 197.71l17.2 19.37-3.56 16.74-20.3-16.62z" class="K"/><path d="M317.72 193.83l15.94 18.18-4.6 23.41-16.29-18.34z" class="K"/><path d="M343.32 223l-9.66-11 2.82-14.37a88.05 88.05 0 0 1 6.56 23l.28 2.37zm-8.17-28.35l-3 12.57-15.58-16.72-5 22.11L294.26 192l-6.42 22-11.13-7.6-1.06-3.15 11 7.54 6.7-23 17.13 20.43 4.93-21.87L331 203.13l2.74-11.33 1.41 2.85zM344 229.6l-7.38-8.6-5 24.56-16.41-18.05-3.58 14.63-20.4-17.54-5.44 13.88-.53-4.11 5.14-13.13 20.06 17.25 3.7-15.1 16.29 17.91 5-24.7 8.19 9.53.36 3.47z" class="K"/></g><path d="M356.18 274.13h-89.92v-6.69a5 5 0 0 1 5-5h79.92a5 5 0 0 1 5 5v6.69h0z" class="F"/><path d="M356.18 274.13h-89.92v-6.69a5 5 0 0 1 5-5h79.92a5 5 0 0 1 5 5v6.69h0z" class="H I"/><use xlink:href="#Cq" class="G"/><use xlink:href="#Cq" class="E H"/><g class="G"><circle cx="282.08" cy="355.95" r="7.47"/><circle cx="355.26" cy="355.95" r="7.47"/><use xlink:href="#Cr"/></g><use xlink:href="#Cr" class="E K"/><use xlink:href="#Cs" class="F"/><use xlink:href="#Cs" class="H I"/><path d="M310.71 269.42s13.65-48.56 15.91-110c.28-7.344 6.32-13.151 13.67-13.14h24.51c7.532-.006 13.651 6.078 13.69 13.61.09 22.33-1.47 72.45-14.07 109.57l-53.71-.04z" class="G"/><path d="M364.42 269.42h-53.71s13.65-48.56 15.91-110c.28-7.344 6.32-13.151 13.67-13.14h24.51c7.532-.006 13.651 6.078 13.69 13.61.09 22.29-1.49 72.41-14.07 109.53z" class="E K"/><use xlink:href="#Ct" class="G"/><use xlink:href="#Ct" class="E K"/><path d="M364.42 269.42h-47.71s13.65-48.56 15.91-110c.28-7.344 6.32-13.151 13.67-13.14h18.51c7.532-.006 13.651 6.078 13.69 13.61.09 22.29-1.49 72.41-14.07 109.53z" class="H I"/><g transform="matrix(-1 0 0 -1 420.911186 427.516806)"><rect x="55.531" y="153.387" width="102.33" height="5.84" rx="2.01" class="G"/><rect x="55.531" y="153.387" width="102.33" height="5.84" rx="2.01" class="E J"/></g><path d="M300.399 74a11.82 11.82 0 0 0-1.959.165c-1.735.303-2.05.938-2.05 2.108v1.546h4.1v.515h-5.639c-1.192 0-2.235.709-2.562 2.056-.377 1.545-.393 2.509 0 4.122.291 1.201.988 2.056 2.179 2.056h1.41v-1.853c0-1.339 1.171-2.519 2.562-2.519h4.096c1.14 0 2.05-.928 2.05-2.061v-3.862c0-1.099-.937-1.925-2.05-2.108A12.93 12.93 0 0 0 300.4 74zm-2.218 1.243c.424 0 .769.348.769.775a.77.77 0 0 1-.769.771.77.77 0 0 1-.769-.771c0-.427.344-.775.769-.775zm6.916 3.092v1.801a2.62 2.62 0 0 1-2.562 2.571h-4.096c-1.122 0-2.05.95-2.05 2.061v3.862c0 1.099.966 1.746 2.05 2.061 1.298.378 2.543.446 4.096 0 1.032-.296 2.05-.891 2.05-2.061v-1.546h-4.096v-.515h6.146c1.192 0 1.636-.822 2.05-2.056.428-1.27.41-2.492 0-4.122-.295-1.173-.857-2.056-2.05-2.056h-1.539zm-2.304 9.78a.77.77 0 0 1 .769.771c0 .427-.344.775-.769.775s-.769-.348-.769-.775a.77.77 0 0 1 .769-.771z" class="E"/></g></g><defs ><path id="B" d="M100.3 320.49h-7.13a.5.5 0 1 1 0-1h7.13a.5.5 0 1 1 0 1z"/><path id="C" d="M107.29 315.18h-21.1a.5.5 0 1 1 0-1h21.1a.5.5 0 1 1 0 1z"/><path id="D" d="M279.46 314.31a2.61 2.61 0 1 1-5.22 0 2.61 2.61 0 0 1 5.22 0z"/><path id="E" d="M279.72 233a2.61 2.61 0 1 1-5.22 0 2.61 2.61 0 0 1 4.456-1.846 2.61 2.61 0 0 1 .764 1.846z"/><path id="F" d="M279.12 124.47a1.33 1.33 0 0 1-2.27.94 1.33 1.33 0 0 1 .94-2.27 1.33 1.33 0 0 1 1.33 1.33z"/><path id="G" d="M330.61 314.31a1.33 1.33 0 0 1-2.267.954 1.33 1.33 0 0 1 .937-2.274 1.33 1.33 0 0 1 1.33 1.32z"/><path id="H" d="M331.63 110.91a1.33 1.33 0 0 1-2.274.937 1.33 1.33 0 0 1 .954-2.267 1.32 1.32 0 0 1 1.32 1.33z"/><path id="I" d="M107.11 97.45a1.59 1.59 0 0 1-.49 1.19 1.62 1.62 0 0 1-1.19.49 1.59 1.59 0 0 1-1.19-.49 1.62 1.62 0 0 1-.5-1.19v-3.84a1.6 1.6 0 0 1 .5-1.19 1.63 1.63 0 0 1 1.19-.5 1.6 1.6 0 0 1 1.19.5 1.62 1.62 0 0 1 .49 1.19v3.84zm-1.1-3.86a.6.6 0 0 0-.18-.44.63.63 0 0 0-.43-.17.6.6 0 0 0-.61.61v3.85a.58.58 0 0 0 .18.43.57.57 0 0 0 .43.18.6.6 0 0 0 .43-.18.58.58 0 0 0 .18-.43v-3.85z"/><path id="J" d="M94.73 81.35a1.59 1.59 0 0 1-.49 1.19 1.62 1.62 0 0 1-1.19.49 1.67 1.67 0 0 1-1.68-1.68v-3.84a1.59 1.59 0 0 1 .49-1.19 1.63 1.63 0 0 1 1.19-.5 1.69 1.69 0 0 1 1.68 1.69v3.84zm-1.1-3.86a.6.6 0 0 0-.61-.622.6.6 0 0 0-.61.622v3.85a.6.6 0 0 0 .61.612.6.6 0 0 0 .61-.612v-3.85z"/><path id="K" d="M115.67 97.45a1.59 1.59 0 0 1-.49 1.19 1.68 1.68 0 0 1-2.87-1.19v-3.84a1.59 1.59 0 0 1 .49-1.19 1.63 1.63 0 0 1 1.19-.5 1.6 1.6 0 0 1 1.19.5 1.62 1.62 0 0 1 .49 1.19v3.84zm-1.1-3.86a.6.6 0 0 0-.18-.44.63.63 0 0 0-.86 0 .6.6 0 0 0-.18.44v3.85a.61.61 0 1 0 1.22 0v-3.85z"/><path id="L" d="M143.4 31.36v-5.42h-.91v-.75a1.48 1.48 0 0 0 .73-.29 1.41 1.41 0 0 0 .5-.59h.74v7l-1.06.05z"/><path id="M" d="M115 70.07a1.68 1.68 0 0 1-2.88 1.18 1.59 1.59 0 0 1-.49-1.18v-3.85a1.67 1.67 0 0 1 1.68-1.68 1.63 1.63 0 0 1 1.2.49 1.66 1.66 0 0 1 .49 1.19v3.85zm-1.11-3.87a.61.61 0 0 0-1.22 0v3.85a.61.61 0 0 0 1.22 0V66.2z"/><path id="N" d="M124.56 99.06v-5.42h-.9v-.74a1.59 1.59 0 0 0 .72-.29 1.43 1.43 0 0 0 .5-.6h.74v7.05h-1.06z"/><path id="O" d="M129.92 97.45a1.59 1.59 0 0 1-.49 1.19 1.68 1.68 0 0 1-2.87-1.19v-3.84a1.59 1.59 0 0 1 .49-1.19 1.63 1.63 0 0 1 1.19-.5 1.6 1.6 0 0 1 1.19.5 1.62 1.62 0 0 1 .49 1.19v3.84zm-1.1-3.86a.6.6 0 0 0-.18-.44.63.63 0 0 0-.86 0 .6.6 0 0 0-.18.44v3.85a.61.61 0 0 0 1.22 0v-3.85z"/><path id="P" d="M131.69 99.06v-5.42h-.91v-.74a1.58 1.58 0 0 0 .73-.29 1.43 1.43 0 0 0 .5-.6h.74v7.05h-1.06z"/><path id="Q" d="M137.05 97.45a1.69 1.69 0 0 1-1.68 1.68 1.63 1.63 0 0 1-1.2-.49 1.61 1.61 0 0 1-.49-1.19v-3.84a1.71 1.71 0 0 1 1.69-1.69 1.63 1.63 0 0 1 1.19.5 1.66 1.66 0 0 1 .49 1.19v3.84zm-1.1-3.86a.6.6 0 0 0-.18-.44.64.64 0 0 0-.44-.17.61.61 0 0 0-.43.17.6.6 0 0 0-.17.44v3.85a.57.57 0 0 0 .17.43.58.58 0 0 0 .43.18.6.6 0 0 0 .44-.18.58.58 0 0 0 .18-.43v-3.85z"/><path id="R" d="M190.12 84.32V78.9h-.9v-.74a1.59 1.59 0 0 0 .72-.29 1.43 1.43 0 0 0 .5-.6h.74v7l-1.06.05z"/><path id="S" d="M144.17 97.45a1.59 1.59 0 0 1-.49 1.19 1.62 1.62 0 0 1-1.19.49 1.67 1.67 0 0 1-1.68-1.68v-3.84a1.59 1.59 0 0 1 .49-1.19 1.63 1.63 0 0 1 1.19-.5 1.6 1.6 0 0 1 1.19.5 1.62 1.62 0 0 1 .49 1.19v3.84zm-1.1-3.86a.6.6 0 0 0-.18-.44.63.63 0 0 0-.86 0 .6.6 0 0 0-.18.44v3.85a.61.61 0 0 0 1.22 0v-3.85z"/><path id="T" d="M145.94 99.06v-5.42H145v-.74a1.58 1.58 0 0 0 .73-.29 1.51 1.51 0 0 0 .5-.6h.77v7.05h-1.06z"/><path id="U" d="M151.3 97.45a1.69 1.69 0 0 1-1.68 1.68 1.63 1.63 0 0 1-1.2-.49 1.61 1.61 0 0 1-.49-1.19v-3.84a1.59 1.59 0 0 1 .49-1.19 1.68 1.68 0 0 1 2.39 0 1.66 1.66 0 0 1 .49 1.19v3.84zm-1.11-3.86a.6.6 0 0 0-.18-.44.63.63 0 0 0-.86 0 .6.6 0 0 0-.18.44v3.85a.61.61 0 1 0 1.22 0v-3.85z"/><path id="V" d="M136.16 58.35v-5.42h-.9v-.74a1.63 1.63 0 0 0 .73-.29 1.38 1.38 0 0 0 .49-.59h.75v7l-1.07.04z"/><path id="W" d="M158.42 97.45a1.59 1.59 0 0 1-.49 1.19 1.62 1.62 0 0 1-1.19.49 1.59 1.59 0 0 1-1.19-.49 1.62 1.62 0 0 1-.5-1.19v-3.84a1.6 1.6 0 0 1 .5-1.19 1.63 1.63 0 0 1 1.19-.5 1.6 1.6 0 0 1 1.19.5 1.62 1.62 0 0 1 .49 1.19v3.84zm-1.1-3.86a.6.6 0 0 0-.18-.44.63.63 0 0 0-.86 0 .6.6 0 0 0-.18.44v3.85a.61.61 0 1 0 1.22 0v-3.85z"/><path id="X" d="M160.18 99.06v-5.42h-.9v-.74a1.63 1.63 0 0 0 .73-.29 1.51 1.51 0 0 0 .5-.6h.74v7.05h-1.07z"/><path id="Y" d="M165.55 97.45a1.69 1.69 0 0 1-1.69 1.68 1.67 1.67 0 0 1-1.68-1.68v-3.84a1.59 1.59 0 0 1 .49-1.19 1.68 1.68 0 0 1 2.39 0 1.66 1.66 0 0 1 .49 1.19v3.84zm-1.11-3.86a.6.6 0 0 0-.18-.44.63.63 0 0 0-.86 0 .6.6 0 0 0-.18.44v3.85a.61.61 0 0 0 1.22 0v-3.85z"/><path id="Z" d="M172.67 97.45a1.59 1.59 0 0 1-.49 1.19 1.62 1.62 0 0 1-1.19.49 1.59 1.59 0 0 1-1.19-.49 1.62 1.62 0 0 1-.5-1.19v-3.84a1.6 1.6 0 0 1 .5-1.19 1.63 1.63 0 0 1 1.19-.5 1.6 1.6 0 0 1 1.19.5 1.62 1.62 0 0 1 .49 1.19v3.84zm-1.1-3.86a.6.6 0 0 0-.18-.44.63.63 0 0 0-.39-.15.6.6 0 0 0-.61.61v3.85a.58.58 0 0 0 .18.43.57.57 0 0 0 .43.18.6.6 0 0 0 .43-.18.58.58 0 0 0 .18-.43l-.04-3.87z"/><path id="a" d="M168.93 43.87v-5.42H168v-.74a1.58 1.58 0 0 0 .73-.29 1.41 1.41 0 0 0 .5-.59h.77v7l-1.07.04z"/><path id="b" d="M198.8 20.63v-5.42h-.9v-.75a1.5 1.5 0 0 0 .73-.28 1.47 1.47 0 0 0 .49-.6h.74v7l-1.06.05z"/><path id="c" d="M161.25 68.23a1.62 1.62 0 0 1-.49 1.19 1.66 1.66 0 0 1-1.19.49 1.62 1.62 0 0 1-1.19-.5 1.59 1.59 0 0 1-.49-1.18v-3.85a1.68 1.68 0 0 1 3.36 0v3.85zm-1.1-3.87a.61.61 0 0 0-1.22 0v3.85a.61.61 0 1 0 1.22 0v-3.85z"/><path id="d" d="M184.08 97.45a1.69 1.69 0 0 1-1.68 1.68 1.63 1.63 0 0 1-1.2-.49 1.61 1.61 0 0 1-.49-1.19v-3.84a1.68 1.68 0 0 1 2.88-1.19 1.66 1.66 0 0 1 .49 1.19v3.84zM183 93.59a.6.6 0 0 0-.18-.44.63.63 0 0 0-.86 0 .6.6 0 0 0-.17.44v3.85a.57.57 0 0 0 .17.43.61.61 0 0 0 1-.43l.04-3.85z"/><path id="e" d="M188.36 97.45a1.69 1.69 0 0 1-1.68 1.68 1.63 1.63 0 0 1-1.2-.49 1.65 1.65 0 0 1-.49-1.19v-3.84a1.68 1.68 0 0 1 2.88-1.19 1.66 1.66 0 0 1 .49 1.19v3.84zm-1.1-3.86a.6.6 0 0 0-.18-.44.64.64 0 0 0-.44-.17.63.63 0 0 0-.43.17.64.64 0 0 0-.17.44v3.85a.61.61 0 0 0 .17.43.6.6 0 0 0 .43.18.6.6 0 0 0 .44-.18.58.58 0 0 0 .18-.43v-3.85z"/><path id="f" d="M192.64 97.45a1.67 1.67 0 0 1-1.68 1.68 1.59 1.59 0 0 1-1.19-.49 1.62 1.62 0 0 1-.5-1.19v-3.84a1.68 1.68 0 0 1 2.88-1.19 1.62 1.62 0 0 1 .49 1.19v3.84zm-1.1-3.86a.6.6 0 0 0-.18-.44.63.63 0 0 0-.43-.17.6.6 0 0 0-.61.61v3.85a.58.58 0 0 0 .18.43.57.57 0 0 0 .43.18.6.6 0 0 0 .43-.18.58.58 0 0 0 .18-.43v-3.85z"/><path id="g" d="M200 53.23a1.59 1.59 0 0 1-.49 1.19 1.62 1.62 0 0 1-1.19.49 1.67 1.67 0 0 1-1.68-1.68v-3.84a1.63 1.63 0 0 1 .49-1.2 1.66 1.66 0 0 1 1.19-.49 1.69 1.69 0 0 1 1.68 1.69v3.84zm-1.1-3.87a.6.6 0 0 0-.61-.612.6.6 0 0 0-.61.612v3.85a.6.6 0 0 0 .61.622.6.6 0 0 0 .61-.622v-3.85z"/><path id="h" d="M212.92 99.06v-5.42H212v-.74a1.63 1.63 0 0 0 .73-.29 1.41 1.41 0 0 0 .49-.6h.78v7.05h-1.08z"/><path id="i" d="M215 69.83V64.4h-.9v-.74a1.63 1.63 0 0 0 .73-.29 1.48 1.48 0 0 0 .5-.59h.67v7l-1 .05z"/><path id="j" d="M221.44 99.06v-5.42h-.91v-.74a1.58 1.58 0 0 0 .73-.29 1.51 1.51 0 0 0 .5-.6h.74v7.05h-1.06z"/><path id="k" d="M237.92 77.75a1.69 1.69 0 0 1-1.68 1.68 1.67 1.67 0 0 1-1.69-1.68V73.9a1.63 1.63 0 0 1 .5-1.19 1.69 1.69 0 0 1 2.38 0 1.66 1.66 0 0 1 .49 1.19v3.85zm-1.1-3.87a.58.58 0 0 0-.18-.43.6.6 0 0 0-.44-.18.6.6 0 0 0-.43.18.61.61 0 0 0-.17.43v3.85a.61.61 0 0 0 .17.43.6.6 0 0 0 .43.18.6.6 0 0 0 .44-.18.58.58 0 0 0 .18-.43v-3.85z"/><path id="l" d="M232.84 99.06v-5.42h-.9v-.74a1.59 1.59 0 0 0 .72-.29 1.36 1.36 0 0 0 .5-.6h.74v7.05h-1.06z"/><path id="m" d="M69.77 255.16v-5.43h-.91V249a1.48 1.48 0 0 0 .73-.29 1.41 1.41 0 0 0 .5-.59h.74v7.05l-1.06-.01z"/><path id="n" d="M82.25 253.55a1.69 1.69 0 0 1-2.88 1.19 1.66 1.66 0 0 1-.49-1.19v-3.84a1.64 1.64 0 0 1 .5-1.2 1.61 1.61 0 0 1 1.19-.49 1.65 1.65 0 0 1 1.19.49 1.63 1.63 0 0 1 .49 1.2v3.84zm-1.1-3.87a.58.58 0 0 0-.18-.43.6.6 0 0 0-.44-.18.6.6 0 0 0-.43.18.61.61 0 0 0-.17.43v3.85a.64.64 0 0 0 .17.44.6.6 0 0 0 .43.18.61.61 0 0 0 .62-.62v-3.85z"/><path id="o" d="M84 255.16v-5.43h-.9V249a1.52 1.52 0 0 0 .73-.29 1.38 1.38 0 0 0 .49-.59h.74v7.05l-1.06-.01z"/><path id="p" d="M248.71 62.86a1.62 1.62 0 0 1-.49 1.19 1.66 1.66 0 0 1-1.19.49 1.71 1.71 0 0 1-1.69-1.68V59a1.69 1.69 0 0 1 1.69-1.68 1.59 1.59 0 0 1 1.19.49 1.62 1.62 0 0 1 .49 1.19v3.86zm-1.1-3.87a.61.61 0 0 0-1.22 0v3.85a.61.61 0 1 0 1.22 0v-3.85z"/><path id="q" d="M76.89 103.39V98H76v-.74a1.59 1.59 0 0 0 .72-.29 1.41 1.41 0 0 0 .5-.59H78v7l-1.11.01z"/><path id="r" d="M66.46 92.72a1.62 1.62 0 0 1-.49 1.19 1.66 1.66 0 0 1-1.19.49 1.69 1.69 0 0 1-1.69-1.68v-3.85a1.69 1.69 0 0 1 1.69-1.68 1.59 1.59 0 0 1 1.19.49 1.62 1.62 0 0 1 .49 1.19v3.85zm-1.1-3.87a.58.58 0 0 0-.18-.43.6.6 0 0 0-.43-.18.57.57 0 0 0-.43.18.58.58 0 0 0-.18.43v3.85a.58.58 0 0 0 .18.43.57.57 0 0 0 .43.18.6.6 0 0 0 .43-.18.58.58 0 0 0 .18-.43v-3.85z"/><path id="s" d="M114.29 139a1.59 1.59 0 0 1-.49 1.19 1.62 1.62 0 0 1-1.19.49 1.59 1.59 0 0 1-1.19-.49 1.62 1.62 0 0 1-.5-1.19v-3.8a1.6 1.6 0 0 1 .5-1.19 1.63 1.63 0 0 1 1.19-.5 1.69 1.69 0 0 1 1.68 1.69v3.8zm-1.1-3.86a.6.6 0 0 0-.18-.44.58.58 0 0 0-.43-.18.57.57 0 0 0-.43.18.6.6 0 0 0-.18.44V139a.6.6 0 0 0 .18.43.57.57 0 0 0 .43.18.58.58 0 0 0 .43-.18.6.6 0 0 0 .18-.43v-3.86z"/><path id="t" d="M118.57 139a1.59 1.59 0 0 1-.49 1.19 1.68 1.68 0 0 1-2.87-1.19v-3.8a1.59 1.59 0 0 1 .49-1.19 1.63 1.63 0 0 1 1.19-.5 1.69 1.69 0 0 1 1.68 1.69v3.8zm-1.1-3.86a.6.6 0 0 0-.61-.622.6.6 0 0 0-.61.622V139a.6.6 0 0 0 .61.612.6.6 0 0 0 .61-.612v-3.86z"/><path id="u" d="M125.7 139a1.69 1.69 0 0 1-1.68 1.68 1.63 1.63 0 0 1-1.2-.49 1.61 1.61 0 0 1-.49-1.19v-3.8a1.71 1.71 0 0 1 1.69-1.69 1.69 1.69 0 0 1 1.68 1.69v3.8zm-1.1-3.86a.61.61 0 0 0-.62-.62.58.58 0 0 0-.43.18.6.6 0 0 0-.17.44V139a.59.59 0 0 0 .17.43.58.58 0 0 0 .43.18.6.6 0 0 0 .62-.61v-3.86z"/><path id="v" d="M132.82 139a1.59 1.59 0 0 1-.49 1.19 1.68 1.68 0 0 1-2.87-1.19v-3.8a1.59 1.59 0 0 1 .54-1.2 1.63 1.63 0 0 1 1.19-.5 1.69 1.69 0 0 1 1.68 1.69l-.05 3.81zm-1.1-3.86a.6.6 0 0 0-.61-.622.6.6 0 0 0-.61.622V139a.6.6 0 0 0 .61.612.6.6 0 0 0 .61-.612v-3.86z"/><path id="w" d="M140 139a1.69 1.69 0 0 1-1.68 1.68 1.63 1.63 0 0 1-1.2-.49 1.61 1.61 0 0 1-.49-1.19v-3.8a1.68 1.68 0 0 1 2.88-1.19 1.65 1.65 0 0 1 .49 1.19v3.8zm-1.11-3.86a.6.6 0 0 0-.18-.44.57.57 0 0 0-.43-.18.58.58 0 0 0-.43.18.6.6 0 0 0-.17.44V139a.59.59 0 0 0 .17.43.58.58 0 0 0 .43.18.57.57 0 0 0 .43-.18.6.6 0 0 0 .18-.43v-3.86z"/><path id="x" d="M268.3 120.63v-5.42h-.9v-.75a1.49 1.49 0 0 0 .72-.29 1.41 1.41 0 0 0 .5-.59h.74v7l-1.06.05z"/><path id="y" d="M273.66 119a1.59 1.59 0 0 1-.49 1.19 1.62 1.62 0 0 1-1.19.49 1.67 1.67 0 0 1-1.68-1.68v-3.84a1.63 1.63 0 0 1 .49-1.2 1.66 1.66 0 0 1 1.19-.49 1.69 1.69 0 0 1 1.68 1.69V119zm-1.1-3.86a.6.6 0 0 0-.61-.622.6.6 0 0 0-.61.622V119a.6.6 0 0 0 .61.622.6.6 0 0 0 .61-.622v-3.86z"/><path id="z" d="M275.43 120.63v-5.42h-.91v-.75a1.61 1.61 0 0 0 1.23-.88h.74v7l-1.06.05z"/><path id="AA" d="M280.79 119a1.69 1.69 0 0 1-1.68 1.68 1.63 1.63 0 0 1-1.2-.49 1.61 1.61 0 0 1-.49-1.19v-3.84a1.63 1.63 0 0 1 .49-1.2 1.67 1.67 0 0 1 1.2-.49 1.69 1.69 0 0 1 1.68 1.69V119zm-1.11-3.86a.6.6 0 0 0-.61-.622.6.6 0 0 0-.61.622V119a.6.6 0 0 0 .61.622.6.6 0 0 0 .61-.622v-3.86z"/><path id="AB" d="M306.6 120.07a1.59 1.59 0 0 1-.49 1.19 1.68 1.68 0 0 1-2.87-1.19v-3.84a1.63 1.63 0 0 1 .49-1.2 1.66 1.66 0 0 1 1.19-.49 1.69 1.69 0 0 1 1.68 1.69v3.84zm-1.1-3.86a.6.6 0 0 0-.61-.622.6.6 0 0 0-.61.622v3.85a.6.6 0 0 0 .61.612.6.6 0 0 0 .61-.612v-3.85z"/><path id="AC" d="M301.42 70.78a1.69 1.69 0 0 1-1.68 1.68 1.63 1.63 0 0 1-1.2-.49 1.61 1.61 0 0 1-.49-1.19v-3.84a1.69 1.69 0 0 1 2.567-1.571 1.69 1.69 0 0 1 .803 1.571v3.84zm-1.1-3.87a.6.6 0 0 0-.62-.61.58.58 0 0 0-.43.18.59.59 0 0 0-.17.43v3.85a.6.6 0 0 0 .17.44.58.58 0 0 0 .43.18.61.61 0 0 0 .62-.62v-3.85z"/><path id="AD" d="M164.52 140.65v-5.42h-.9v-.74a1.67 1.67 0 0 0 .73-.29 1.41 1.41 0 0 0 .49-.6h.74v7.05h-1.06z"/><path id="AE" d="M173 140.65v-5.42h-.9v-.74a1.58 1.58 0 0 0 .73-.29 1.51 1.51 0 0 0 .5-.6h.74v7.05H173z"/><path id="AF" d="M175.87 140.65v-5.42H175v-.74a1.63 1.63 0 0 0 .73-.29 1.41 1.41 0 0 0 .49-.6h.74v7.05h-1.09z"/><path id="AG" d="M183 140.65v-5.42h-.91v-.74a1.58 1.58 0 0 0 .73-.29 1.43 1.43 0 0 0 .5-.6h.74v7.05H183z"/><path id="AH" d="M188.36 139a1.69 1.69 0 0 1-1.68 1.68 1.63 1.63 0 0 1-1.2-.49A1.65 1.65 0 0 1 185 139v-3.8a1.68 1.68 0 0 1 2.88-1.19 1.65 1.65 0 0 1 .49 1.19l-.01 3.8zm-1.1-3.86a.61.61 0 0 0-.62-.62.58.58 0 0 0-.43.18.64.64 0 0 0-.17.44V139a.63.63 0 0 0 .17.43.58.58 0 0 0 .43.18.6.6 0 0 0 .62-.61v-3.86z"/><path id="AI" d="M273 36.2a1.67 1.67 0 0 1-1.68 1.68 1.65 1.65 0 0 1-1.19-.49 1.62 1.62 0 0 1-.49-1.19v-3.85a1.67 1.67 0 0 1 1.68-1.68 1.59 1.59 0 0 1 1.19.49 1.62 1.62 0 0 1 .49 1.19v3.85zm-1.1-3.87a.61.61 0 0 0-1.22 0v3.85a.61.61 0 1 0 1.22 0v-3.85z"/><path id="AJ" d="M206.89 139a1.69 1.69 0 0 1-1.68 1.68 1.63 1.63 0 0 1-1.2-.49 1.65 1.65 0 0 1-.49-1.19v-3.8a1.68 1.68 0 0 1 2.88-1.2 1.65 1.65 0 0 1 .49 1.19V139zm-1.1-3.86a.61.61 0 0 0-.62-.62.6.6 0 0 0-.43.18.64.64 0 0 0-.17.44V139a.63.63 0 0 0 .17.43.6.6 0 0 0 .43.18.6.6 0 0 0 .62-.61v-3.86z"/><path id="AK" d="M211.17 139a1.59 1.59 0 0 1-.49 1.19 1.62 1.62 0 0 1-1.19.49 1.59 1.59 0 0 1-1.19-.49 1.62 1.62 0 0 1-.5-1.19v-3.8a1.6 1.6 0 0 1 .5-1.19 1.63 1.63 0 0 1 1.19-.5 1.69 1.69 0 0 1 1.68 1.69v3.8zm-1.1-3.86a.6.6 0 0 0-.61-.62.57.57 0 0 0-.43.18.6.6 0 0 0-.18.44V139a.6.6 0 0 0 .18.43.57.57 0 0 0 .43.18.61.61 0 0 0 .61-.61v-3.86z"/><path id="AL" d="M215.45 139a1.59 1.59 0 0 1-.49 1.19 1.62 1.62 0 0 1-1.19.49 1.67 1.67 0 0 1-1.68-1.68v-3.8a1.59 1.59 0 0 1 .49-1.19 1.63 1.63 0 0 1 1.19-.5 1.69 1.69 0 0 1 1.68 1.69v3.8zm-1.1-3.86a.6.6 0 0 0-.61-.622.6.6 0 0 0-.61.622V139a.6.6 0 0 0 .61.612.6.6 0 0 0 .61-.612v-3.86z"/><path id="AM" d="M220.05 140.65v-5.42h-.9v-.74a1.63 1.63 0 0 0 .73-.29 1.41 1.41 0 0 0 .49-.6h.75v7.05h-1.07z"/><path id="AN" d="M222.89 140.65v-5.42H222v-.74a1.59 1.59 0 0 0 .72-.29 1.43 1.43 0 0 0 .5-.6h.78v7.05h-1.11z"/><path id="AO" d="M312.75 97.46a1.59 1.59 0 0 1-.49 1.19 1.68 1.68 0 0 1-2.87-1.19v-3.84a1.63 1.63 0 0 1 .49-1.2 1.66 1.66 0 0 1 1.19-.49 1.69 1.69 0 0 1 1.68 1.69v3.84zm-1.1-3.86a.6.6 0 0 0-.61-.622.6.6 0 0 0-.61.622v3.84a.6.6 0 0 0 .61.622.6.6 0 0 0 .61-.622V93.6z"/><path id="AP" d="M250.08 132.91v-5.42h-.91v-.74a1.58 1.58 0 0 0 .73-.29 1.44 1.44 0 0 0 .5-.6h.74v7l-1.06.05z"/><path id="AQ" d="M255.44 131.3a1.69 1.69 0 0 1-2.88 1.19 1.61 1.61 0 0 1-.49-1.19v-3.84a1.68 1.68 0 0 1 2.88-1.19 1.66 1.66 0 0 1 .49 1.19v3.84zm-1.11-3.86a.58.58 0 0 0-.18-.43.57.57 0 0 0-.43-.18.58.58 0 0 0-.43.18.57.57 0 0 0-.17.43v3.85a.57.57 0 0 0 .17.43.58.58 0 0 0 .43.18.57.57 0 0 0 .43-.18.58.58 0 0 0 .18-.43v-3.85z"/><path id="AR" d="M257.2 132.91v-5.42h-.9v-.74a1.59 1.59 0 0 0 .72-.29 1.37 1.37 0 0 0 .5-.6h.74v7l-1.06.05z"/><path id="AS" d="M51.64 182.39V177h-.91v-.74a1.48 1.48 0 0 0 .73-.29 1.41 1.41 0 0 0 .5-.59h.74v7l-1.06.01z"/><path id="AT" d="M80.34 177.83a1.69 1.69 0 0 1-2.567 1.571 1.69 1.69 0 0 1-.803-1.571V174a1.69 1.69 0 0 1 2.88-1.2 1.67 1.67 0 0 1 .49 1.2v3.83zM79.23 174c0-.34-.275-.615-.615-.615S78 173.66 78 174v3.85a.61.61 0 1 0 1.22 0l.01-3.85z"/><path id="AU" d="M111.78 154.51v-5.42h-.91v-.74a1.58 1.58 0 0 0 .73-.29 1.41 1.41 0 0 0 .5-.59h.74v7l-1.06.04z"/><path id="AV" d="M117.14 152.9a1.67 1.67 0 0 1-1.68 1.69 1.71 1.71 0 0 1-1.69-1.69v-3.84a1.69 1.69 0 0 1 2.88-1.19 1.62 1.62 0 0 1 .49 1.19v3.84zM116 149a.58.58 0 0 0-.18-.43.6.6 0 0 0-.43-.18.57.57 0 0 0-.43.18.58.58 0 0 0-.18.43v3.85a.58.58 0 0 0 .18.43.57.57 0 0 0 .43.18.6.6 0 0 0 .43-.18.58.58 0 0 0 .18-.43V149z"/><path id="AW" d="M121.42 152.9a1.63 1.63 0 0 1-.49 1.2 1.66 1.66 0 0 1-1.19.49 1.69 1.69 0 0 1-1.68-1.69v-3.84a1.59 1.59 0 0 1 .49-1.19 1.62 1.62 0 0 1 1.19-.49 1.59 1.59 0 0 1 1.19.49 1.62 1.62 0 0 1 .49 1.19v3.84zm-1.1-3.86a.61.61 0 0 0-1.22 0v3.85a.61.61 0 1 0 1.22 0v-3.85z"/><path id="AX" d="M125.7 152.9a1.63 1.63 0 0 1-.49 1.2 1.66 1.66 0 0 1-1.19.49 1.62 1.62 0 0 1-1.19-.5 1.59 1.59 0 0 1-.49-1.19v-3.84a1.59 1.59 0 0 1 .49-1.19 1.62 1.62 0 0 1 1.19-.49 1.59 1.59 0 0 1 1.19.49 1.62 1.62 0 0 1 .49 1.19v3.84zm-1.1-3.9a.61.61 0 0 0-1.22 0v3.85a.61.61 0 1 0 1.22 0V149z"/><path id="AY" d="M132.83 152.9a1.69 1.69 0 0 1-2.567 1.571 1.69 1.69 0 0 1-.803-1.571v-3.84a1.69 1.69 0 0 1 2.88-1.19 1.66 1.66 0 0 1 .49 1.19v3.84zm-1.1-3.86a.58.58 0 0 0-.18-.43.6.6 0 0 0-.44-.18.6.6 0 0 0-.43.18.61.61 0 0 0-.17.43v3.85a.61.61 0 0 0 .17.43.6.6 0 0 0 .43.18.6.6 0 0 0 .44-.18.58.58 0 0 0 .18-.43v-3.85z"/><path id="AZ" d="M134.59 154.51v-5.42h-.9v-.74a1.59 1.59 0 0 0 .72-.29 1.41 1.41 0 0 0 .5-.59h.74v7l-1.06.04z"/><path id="Aa" d="M140 172.9a1.63 1.63 0 0 1-.49 1.2 1.66 1.66 0 0 1-1.19.49 1.62 1.62 0 0 1-1.19-.5 1.59 1.59 0 0 1-.49-1.19v-3.84a1.59 1.59 0 0 1 .49-1.19 1.62 1.62 0 0 1 1.19-.49 1.59 1.59 0 0 1 1.19.49 1.62 1.62 0 0 1 .49 1.19v3.84zm-1.1-3.86a.61.61 0 0 0-1.22 0v3.85a.61.61 0 1 0 1.22 0v-3.85z"/><path id="Ab" d="M147.08 172.9a1.68 1.68 0 0 1-2.88 1.19 1.59 1.59 0 0 1-.49-1.19v-3.84a1.69 1.69 0 0 1 1.69-1.68 1.62 1.62 0 0 1 1.19.49 1.66 1.66 0 0 1 .49 1.19v3.84zM146 169a.58.58 0 0 0-.18-.43.6.6 0 0 0-.44-.18.58.58 0 0 0-.43.18.57.57 0 0 0-.17.43v3.85a.57.57 0 0 0 .17.43.58.58 0 0 0 .43.18.6.6 0 0 0 .44-.18.58.58 0 0 0 .18-.43V169z"/><path id="Ac" d="M154.2 172.9a1.63 1.63 0 0 1-.49 1.2 1.66 1.66 0 0 1-1.19.49 1.69 1.69 0 0 1-1.68-1.69v-3.84a1.59 1.59 0 0 1 .49-1.19 1.62 1.62 0 0 1 1.19-.49 1.59 1.59 0 0 1 1.19.49 1.62 1.62 0 0 1 .49 1.19v3.84zm-1.1-3.9a.61.61 0 0 0-1.22 0v3.85a.61.61 0 1 0 1.22 0V169z"/><path id="Ad" d="M129.47 195.8a1.61 1.61 0 0 1-.47 1.2 1.66 1.66 0 0 1-1.19.49 1.65 1.65 0 0 1-1.19-.49 1.62 1.62 0 0 1-.49-1.19V192a1.68 1.68 0 0 1 3.36 0l-.02 3.8zm-1.1-3.87a.61.61 0 0 0-1.22 0v3.85a.61.61 0 1 0 1.22 0v-3.85z"/><path id="Ae" d="M162.76 172.9a1.63 1.63 0 0 1-.49 1.2 1.68 1.68 0 0 1-2.38 0 1.59 1.59 0 0 1-.49-1.19v-3.84a1.59 1.59 0 0 1 .49-1.19 1.7 1.7 0 0 1 2.39 0 1.65 1.65 0 0 1 .48 1.19v3.83zm-1.1-3.86a.61.61 0 0 0-1.22 0v3.85a.61.61 0 1 0 1.22 0v-3.85z"/><path id="Af" d="M167.05 172.9a1.68 1.68 0 0 1-2.88 1.19 1.59 1.59 0 0 1-.49-1.19v-3.84a1.59 1.59 0 0 1 .49-1.19 1.7 1.7 0 0 1 2.39 0 1.66 1.66 0 0 1 .49 1.19v3.84zm-1.11-3.9a.61.61 0 0 0-1.22 0v3.85a.61.61 0 0 0 1.22 0V169z"/><path id="Ag" d="M175.61 172.9a1.69 1.69 0 0 1-1.68 1.69 1.71 1.71 0 0 1-1.69-1.69v-3.84a1.69 1.69 0 0 1 2.88-1.19 1.62 1.62 0 0 1 .49 1.19v3.84zm-1.1-3.86a.58.58 0 0 0-.18-.43.6.6 0 0 0-.43-.18.57.57 0 0 0-.43.18.58.58 0 0 0-.18.43v3.85a.58.58 0 0 0 .18.43.57.57 0 0 0 .43.18.6.6 0 0 0 .43-.18.58.58 0 0 0 .18-.43v-3.85z"/><path id="Ah" d="M181.65 154.51v-5.42h-.9v-.74a1.58 1.58 0 0 0 .73-.29 1.48 1.48 0 0 0 .5-.59h.74v7l-1.07.04z"/><path id="Ai" d="M184.49 154.51v-5.42h-.9v-.74a1.67 1.67 0 0 0 .73-.29 1.38 1.38 0 0 0 .49-.59h.74v7l-1.06.04z"/><path id="Aj" d="M193 154.51v-5.42h-.91v-.74a1.58 1.58 0 0 0 .73-.29 1.48 1.48 0 0 0 .5-.59h.74v7l-1.06.04z"/><path id="Ak" d="M205.48 152.9a1.63 1.63 0 0 1-.49 1.2 1.66 1.66 0 0 1-1.19.49 1.63 1.63 0 0 1-1.19-.5 1.59 1.59 0 0 1-.49-1.19v-3.84a1.59 1.59 0 0 1 .49-1.19 1.7 1.7 0 0 1 2.39 0 1.65 1.65 0 0 1 .48 1.19v3.84zm-1.1-3.86a.61.61 0 0 0-1.22 0v3.85a.61.61 0 0 0 1.22 0v-3.85z"/><path id="Al" d="M212.61 152.9a1.69 1.69 0 0 1-2.567 1.571 1.69 1.69 0 0 1-.803-1.571v-3.84a1.69 1.69 0 0 1 2.88-1.19 1.62 1.62 0 0 1 .49 1.19v3.84zm-1.1-3.86a.58.58 0 0 0-.18-.43.6.6 0 0 0-.44-.18.56.56 0 0 0-.42.18.58.58 0 0 0-.18.43v3.85a.58.58 0 0 0 .18.43.56.56 0 0 0 .42.18.6.6 0 0 0 .44-.18.58.58 0 0 0 .18-.43v-3.85z"/><path id="Am" d="M222.89 154.51v-5.42H222v-.74a1.58 1.58 0 0 0 .73-.29 1.48 1.48 0 0 0 .5-.59h.77v7l-1.11.04z"/><path id="An" d="M228.25 152.9a1.68 1.68 0 0 1-2.88 1.19 1.59 1.59 0 0 1-.49-1.19v-3.84a1.69 1.69 0 0 1 2.88-1.19 1.66 1.66 0 0 1 .49 1.19v3.84zm-1.11-3.9a.61.61 0 0 0-1.22 0v3.85a.61.61 0 1 0 1.22 0V149z"/><path id="Ao" d="M235.37 152.9a1.63 1.63 0 0 1-.49 1.2 1.66 1.66 0 0 1-1.19.49 1.71 1.71 0 0 1-1.69-1.69v-3.84a1.6 1.6 0 0 1 .5-1.19 1.62 1.62 0 0 1 1.19-.49 1.59 1.59 0 0 1 1.19.49 1.62 1.62 0 0 1 .49 1.19v3.84zm-1.1-3.86a.61.61 0 0 0-.61-.61.57.57 0 0 0-.43.18.58.58 0 0 0-.18.43v3.85a.58.58 0 0 0 .18.43.57.57 0 0 0 .43.18.61.61 0 0 0 .61-.61v-3.85z"/><path id="Ap" d="M106.42 125.18a1.69 1.69 0 0 1-2.567 1.571 1.69 1.69 0 0 1-.803-1.571v-3.84a1.67 1.67 0 0 1 .49-1.2 1.69 1.69 0 0 1 2.88 1.2v3.84zm-1.11-3.87a.6.6 0 0 0-.61-.612.6.6 0 0 0-.61.612v3.85a.6.6 0 0 0 .18.44.63.63 0 0 0 .86 0 .6.6 0 0 0 .18-.44v-3.85z"/><path id="Aq" d="M113.54 125.18a1.68 1.68 0 0 1-2.87 1.19 1.63 1.63 0 0 1-.5-1.19v-3.84a1.69 1.69 0 0 1 1.69-1.69 1.69 1.69 0 0 1 1.68 1.69v3.84zm-1.1-3.87a.6.6 0 0 0-.18-.43.58.58 0 0 0-.43-.18.57.57 0 0 0-.43.18.6.6 0 0 0-.18.43v3.85a.6.6 0 0 0 .18.44.56.56 0 0 0 .43.17.57.57 0 0 0 .43-.17.6.6 0 0 0 .18-.44v-3.85z"/><path id="Ar" d="M115.3 126.79v-5.43h-.9v-.74a1.52 1.52 0 0 0 .73-.29 1.48 1.48 0 0 0 .5-.59h.74v7l-1.07.05z"/><path id="As" d="M72.08 154.6a1.59 1.59 0 0 1-.49 1.19 1.68 1.68 0 0 1-2.87-1.19v-3.84a1.63 1.63 0 0 1 .49-1.2 1.66 1.66 0 0 1 1.19-.49 1.69 1.69 0 0 1 1.68 1.69v3.84zM71 150.74a.6.6 0 0 0-.61-.622.6.6 0 0 0-.61.622v3.85a.6.6 0 0 0 .61.612.6.6 0 0 0 .61-.612v-3.85z"/><path id="At" d="M122.43 126.79v-5.43h-.91v-.74a1.48 1.48 0 0 0 .73-.29 1.41 1.41 0 0 0 .5-.59h.74v7l-1.06.05z"/><path id="Au" d="M127.79 125.18a1.68 1.68 0 0 1-2.87 1.19 1.63 1.63 0 0 1-.5-1.19v-3.84a1.69 1.69 0 0 1 1.69-1.69 1.69 1.69 0 0 1 1.68 1.69v3.84zm-1.1-3.87a.61.61 0 0 0-.61-.61.57.57 0 0 0-.43.18.6.6 0 0 0-.18.43v3.85a.6.6 0 0 0 .18.44.56.56 0 0 0 .43.17.59.59 0 0 0 .43-.17.6.6 0 0 0 .18-.44v-3.85z"/><path id="Av" d="M132.07 125.18a1.68 1.68 0 0 1-3.36 0v-3.84a1.67 1.67 0 0 1 1.68-1.69 1.69 1.69 0 0 1 1.68 1.69v3.84zm-1.1-3.87a.6.6 0 0 0-.61-.612.6.6 0 0 0-.61.612v3.85a.6.6 0 0 0 .18.44.63.63 0 0 0 .86 0 .6.6 0 0 0 .18-.44v-3.85z"/><path id="Aw" d="M143.48 125.18a1.69 1.69 0 0 1-2.88 1.19 1.66 1.66 0 0 1-.49-1.19v-3.84a1.64 1.64 0 0 1 .5-1.2 1.68 1.68 0 0 1 2.38 0 1.63 1.63 0 0 1 .49 1.19v3.85zm-1.1-3.87a.6.6 0 0 0-.62-.61.58.58 0 0 0-.43.18.63.63 0 0 0-.17.43v3.85a.64.64 0 0 0 .17.44.57.57 0 0 0 .43.17.6.6 0 0 0 .62-.61v-3.85z"/><path id="Ax" d="M145.24 126.79v-5.43h-.9v-.74a1.49 1.49 0 0 0 .72-.29 1.34 1.34 0 0 0 .5-.59h.74v7l-1.06.05z"/><path id="Ay" d="M54.53 131.89a1.62 1.62 0 0 1-.5 1.19 1.68 1.68 0 0 1-2.38 0 1.62 1.62 0 0 1-.49-1.18V128a1.69 1.69 0 0 1 2.84-1.15 1.66 1.66 0 0 1 .49 1.19l.04 3.85zm-1.1-3.89a.58.58 0 0 0-.18-.43.6.6 0 0 0-.44-.18.6.6 0 0 0-.43.18.61.61 0 0 0-.17.43v3.85a.61.61 0 0 0 .17.43.6.6 0 0 0 .43.18.6.6 0 0 0 .44-.18.58.58 0 0 0 .18-.43V128z"/><path id="Az" d="M58.81 131.89a1.65 1.65 0 0 1-.49 1.19 1.66 1.66 0 0 1-1.19.49 1.71 1.71 0 0 1-1.69-1.68V128a1.69 1.69 0 0 1 2.567-1.571A1.69 1.69 0 0 1 58.81 128v3.89zm-1.1-3.89a.58.58 0 0 0-.18-.43.6.6 0 0 0-.43-.18.57.57 0 0 0-.43.18.58.58 0 0 0-.18.43v3.85a.58.58 0 0 0 .18.43.57.57 0 0 0 .43.18.6.6 0 0 0 .43-.18.58.58 0 0 0 .18-.43V128z"/><path id="BA" d="M65.93 131.89a1.61 1.61 0 0 1-.49 1.19 1.66 1.66 0 0 1-1.19.49 1.63 1.63 0 0 1-1.19-.5 1.59 1.59 0 0 1-.49-1.18V128a1.67 1.67 0 0 1 1.68-1.68 1.63 1.63 0 0 1 1.2.49 1.65 1.65 0 0 1 .48 1.19v3.89zm-1.1-3.89a.61.61 0 0 0-1.22 0v3.85a.61.61 0 1 0 1.22 0V128z"/><path id="BB" d="M73.06 131.89a1.62 1.62 0 0 1-.5 1.19 1.68 1.68 0 0 1-2.38 0 1.62 1.62 0 0 1-.49-1.18V128a1.69 1.69 0 0 1 2.567-1.571A1.69 1.69 0 0 1 73.06 128v3.89zM72 128a.58.58 0 0 0-.18-.43.6.6 0 0 0-.44-.18.56.56 0 0 0-.42.18.58.58 0 0 0-.18.43v3.85a.58.58 0 0 0 .18.43.56.56 0 0 0 .42.18.6.6 0 0 0 .44-.18.58.58 0 0 0 .18-.43V128z"/><path id="BC" d="M157.73 125.18a1.69 1.69 0 0 1-2.88 1.19 1.66 1.66 0 0 1-.49-1.19v-3.84a1.64 1.64 0 0 1 .5-1.2 1.61 1.61 0 0 1 1.19-.49 1.69 1.69 0 0 1 1.68 1.69v3.84zm-1.1-3.87a.6.6 0 0 0-.62-.61.58.58 0 0 0-.43.18.63.63 0 0 0-.17.43v3.85a.64.64 0 0 0 .17.44.57.57 0 0 0 .43.17.6.6 0 0 0 .62-.61v-3.85z"/><path id="BD" d="M159.49 126.79v-5.43h-.9v-.74a1.49 1.49 0 0 0 .72-.29 1.41 1.41 0 0 0 .5-.59h.74v7l-1.06.05z"/><path id="BE" d="M173.41 125.18a1.68 1.68 0 0 1-3.36 0v-3.84a1.68 1.68 0 0 1 3.36 0v3.84zm-1.1-3.87a.6.6 0 0 0-.61-.612.6.6 0 0 0-.61.612v3.85a.6.6 0 0 0 .18.44.63.63 0 0 0 .86 0 .6.6 0 0 0 .18-.44v-3.85z"/><path id="BF" d="M177.7 125.18a1.69 1.69 0 0 1-2.567 1.571 1.69 1.69 0 0 1-.803-1.571v-3.84a1.67 1.67 0 0 1 .49-1.2 1.69 1.69 0 0 1 2.88 1.2v3.84zm-1.11-3.87a.6.6 0 0 0-.18-.43.57.57 0 0 0-.43-.18.58.58 0 0 0-.43.18.59.59 0 0 0-.17.43v3.85a.6.6 0 0 0 .17.44.57.57 0 0 0 .43.17.56.56 0 0 0 .43-.17.6.6 0 0 0 .18-.44v-3.85z"/><path id="BG" d="M222.21 190.83a1.67 1.67 0 0 1-1.68 1.68 1.66 1.66 0 0 1-1.19-.49 1.62 1.62 0 0 1-.49-1.19V187a1.69 1.69 0 0 1 2.88-1.2 1.66 1.66 0 0 1 .48 1.2v3.83zm-1.1-3.87a.61.61 0 0 0-1.22 0v3.85a.61.61 0 0 0 1.22 0v-3.85z"/><path id="BH" d="M186.26 125.18a1.65 1.65 0 0 1-.49 1.19 1.62 1.62 0 0 1-1.19.49 1.59 1.59 0 0 1-1.19-.49 1.63 1.63 0 0 1-.5-1.19v-3.84a1.64 1.64 0 0 1 .5-1.2 1.69 1.69 0 0 1 2.87 1.2v3.84zm-1.1-3.87a.61.61 0 0 0-.61-.61.57.57 0 0 0-.43.18.6.6 0 0 0-.18.43v3.85a.6.6 0 0 0 .18.44.56.56 0 0 0 .43.17.59.59 0 0 0 .43-.17.6.6 0 0 0 .18-.44v-3.85z"/><path id="BI" d="M190.54 125.18a1.68 1.68 0 1 1-3.36 0v-3.84a1.67 1.67 0 0 1 1.68-1.69 1.69 1.69 0 0 1 1.68 1.69v3.84zm-1.1-3.87a.6.6 0 0 0-.61-.612.6.6 0 0 0-.61.612v3.85a.6.6 0 0 0 .18.44.63.63 0 0 0 .86 0 .6.6 0 0 0 .18-.44v-3.85z"/><path id="BJ" d="M195.14 126.79v-5.43h-.9v-.74a1.52 1.52 0 0 0 .73-.29 1.38 1.38 0 0 0 .49-.59h.74v7l-1.06.05z"/><path id="BK" d="M198 126.79v-5.43h-.9v-.74a1.49 1.49 0 0 0 .72-.29 1.41 1.41 0 0 0 .5-.59h.68v7l-1 .05z"/><path id="BL" d="M204.49 86.56v-5.43h-.91v-.74a1.48 1.48 0 0 0 .73-.29 1.41 1.41 0 0 0 .5-.59h.74v7.05h-1.06z"/><path id="BM" d="M206.49 126.79v-5.43h-.9v-.74a1.56 1.56 0 0 0 .73-.29 1.38 1.38 0 0 0 .49-.59h.74v7l-1.06.05z"/><path id="BN" d="M216.13 125.18a1.68 1.68 0 0 1-2.52 1.455 1.68 1.68 0 0 1-.84-1.455v-3.84a1.68 1.68 0 0 1 2.52-1.455 1.68 1.68 0 0 1 .84 1.455v3.84zm-1.1-3.87a.6.6 0 0 0-.61-.612.6.6 0 0 0-.61.612v3.85a.6.6 0 0 0 .18.44.63.63 0 0 0 .86 0 .6.6 0 0 0 .18-.44v-3.85z"/><path id="BO" d="M217.9 126.79v-5.43h-.9v-.74a1.48 1.48 0 0 0 .73-.29 1.41 1.41 0 0 0 .5-.59h.77v7l-1.1.05z"/><path id="BP" d="M223.26 125.18a1.69 1.69 0 0 1-1.68 1.68 1.59 1.59 0 0 1-1.19-.49 1.63 1.63 0 0 1-.5-1.19v-3.84a1.64 1.64 0 0 1 .5-1.2 1.69 1.69 0 0 1 2.87 1.2v3.84zm-1.1-3.87a.61.61 0 0 0-.61-.61.57.57 0 0 0-.43.18.6.6 0 0 0-.18.43v3.85a.6.6 0 0 0 .18.44.56.56 0 0 0 .43.17.59.59 0 0 0 .43-.17.6.6 0 0 0 .18-.44v-3.85z"/><path id="BQ" d="M225 126.79v-5.43h-.9v-.74a1.52 1.52 0 0 0 .73-.29 1.38 1.38 0 0 0 .49-.59h.75v7l-1.07.05z"/><path id="BR" d="M260.46 105.1v-5.43h-.91v-.74a1.58 1.58 0 0 0 .73-.29 1.41 1.41 0 0 0 .5-.59h.74v7l-1.06.05z"/><path id="BS" d="M106.45 229.77a1.67 1.67 0 0 1-1.68 1.68 1.65 1.65 0 0 1-1.19-.49 1.62 1.62 0 0 1-.49-1.19v-3.84a1.67 1.67 0 0 1 1.68-1.69 1.59 1.59 0 0 1 1.19.49 1.63 1.63 0 0 1 .49 1.2v3.84zm-1.1-3.87a.61.61 0 0 0-1.22 0v3.85a.61.61 0 0 0 1.22 0v-3.85z"/><path id="BT" d="M108.22 231.38V226h-.91v-.74a1.58 1.58 0 0 0 .73-.29 1.41 1.41 0 0 0 .5-.59h.74v7.05l-1.06-.05z"/><path id="BU" d="M113.58 229.77a1.69 1.69 0 0 1-1.68 1.68 1.67 1.67 0 0 1-1.69-1.68v-3.84a1.64 1.64 0 0 1 .5-1.2 1.69 1.69 0 0 1 2.38 0 1.67 1.67 0 0 1 .49 1.2v3.84zm-1.1-3.87a.58.58 0 0 0-.18-.43.6.6 0 0 0-.44-.18.58.58 0 0 0-.43.18.57.57 0 0 0-.17.43v3.85a.57.57 0 0 0 .17.43.58.58 0 0 0 .43.18.6.6 0 0 0 .44-.18.58.58 0 0 0 .18-.43v-3.85z"/><path id="BV" d="M115.34 231.38V226h-.9v-.74a1.59 1.59 0 0 0 .72-.29 1.41 1.41 0 0 0 .5-.59h.74v7.05l-1.06-.05z"/><path id="BW" d="M120.66 166.77a1.67 1.67 0 0 1-1.68 1.68 1.66 1.66 0 0 1-1.19-.49 1.62 1.62 0 0 1-.49-1.19v-3.85a1.69 1.69 0 0 1 2.88-1.19 1.65 1.65 0 0 1 .48 1.19v3.85zm-1.1-3.87a.61.61 0 0 0-1.22 0v3.85a.61.61 0 0 0 1.22 0v-3.85z"/><path id="BX" d="M122.43 168.38V163h-.91v-.74a1.58 1.58 0 0 0 .73-.29 1.41 1.41 0 0 0 .5-.59h.74v7h-1.06z"/><path id="BY" d="M97 198.32a1.62 1.62 0 0 1-.5 1.19 1.68 1.68 0 0 1-2.38 0 1.59 1.59 0 0 1-.49-1.18v-3.85a1.61 1.61 0 0 1 .49-1.19 1.7 1.7 0 0 1 2.39 0 1.66 1.66 0 0 1 .49 1.19v3.84zm-1.11-3.87a.61.61 0 0 0-1.22 0v3.85a.61.61 0 1 0 1.22 0v-3.85z"/><path id="BZ" d="M132.07 166.77a1.67 1.67 0 0 1-1.68 1.68 1.67 1.67 0 0 1-1.68-1.68v-3.85a1.67 1.67 0 0 1 1.68-1.68 1.59 1.59 0 0 1 1.19.49 1.62 1.62 0 0 1 .49 1.19v3.85zM131 162.9a.61.61 0 0 0-1.22 0v3.85a.61.61 0 0 0 1.22 0v-3.85z"/><path id="Ba" d="M136.35 166.77a1.67 1.67 0 0 1-1.68 1.68 1.65 1.65 0 0 1-1.19-.49 1.62 1.62 0 0 1-.49-1.19v-3.85a1.67 1.67 0 0 1 1.68-1.68 1.59 1.59 0 0 1 1.19.49 1.62 1.62 0 0 1 .49 1.19v3.85zm-1.1-3.87a.61.61 0 0 0-1.22 0v3.85a.61.61 0 0 0 1.22 0v-3.85z"/><path id="Bb" d="M138.12 188.38V183h-.91v-.74a1.58 1.58 0 0 0 .73-.29 1.41 1.41 0 0 0 .5-.59h.74v7h-1.06z"/><path id="Bc" d="M143.48 186.77a1.69 1.69 0 0 1-1.68 1.68 1.67 1.67 0 0 1-1.69-1.68v-3.85a1.63 1.63 0 0 1 .5-1.19 1.69 1.69 0 0 1 2.38 0 1.66 1.66 0 0 1 .49 1.19v3.85zm-1.1-3.87a.58.58 0 0 0-.18-.43.6.6 0 0 0-.44-.18.58.58 0 0 0-.43.18.61.61 0 0 0-.17.43v3.85a.61.61 0 0 0 .17.43.58.58 0 0 0 .43.18.6.6 0 0 0 .44-.18.58.58 0 0 0 .18-.43v-3.85z"/><path id="Bd" d="M145.24 188.38V183h-.9v-.74a1.59 1.59 0 0 0 .72-.29 1.34 1.34 0 0 0 .5-.59h.74v7h-1.06z"/><path id="Be" d="M159.49 188.38V183h-.9v-.74a1.59 1.59 0 0 0 .72-.29 1.41 1.41 0 0 0 .5-.59h.74v7h-1.06z"/><path id="Bf" d="M164.85 186.77a1.67 1.67 0 0 1-1.68 1.68 1.67 1.67 0 0 1-1.68-1.68v-3.85a1.67 1.67 0 0 1 1.68-1.68 1.59 1.59 0 0 1 1.19.49 1.62 1.62 0 0 1 .49 1.19v3.85zm-1.1-3.87a.61.61 0 0 0-1.22 0v3.85a.61.61 0 0 0 1.22 0v-3.85z"/><path id="Bg" d="M153.16 217.89a1.69 1.69 0 0 1-2.567 1.571 1.69 1.69 0 0 1-.803-1.571v-3.84a1.69 1.69 0 0 1 2.88-1.19 1.62 1.62 0 0 1 .49 1.19v3.84zm-1.1-3.86a.58.58 0 0 0-.18-.43.6.6 0 0 0-.44-.18.6.6 0 0 0-.43.18.61.61 0 0 0-.17.43v3.85a.61.61 0 0 0 .17.43.6.6 0 0 0 .43.18.6.6 0 0 0 .44-.18.58.58 0 0 0 .18-.43v-3.85z"/><path id="Bh" d="M157.44 217.89a1.66 1.66 0 0 1-1.68 1.68 1.69 1.69 0 0 1-1.69-1.68v-3.84a1.69 1.69 0 0 1 2.88-1.19 1.62 1.62 0 0 1 .49 1.19v3.84zm-1.1-3.86a.58.58 0 0 0-.18-.43.6.6 0 0 0-.43-.18.57.57 0 0 0-.43.18.58.58 0 0 0-.18.43v3.85a.58.58 0 0 0 .18.43.57.57 0 0 0 .43.18.6.6 0 0 0 .43-.18.58.58 0 0 0 .18-.43v-3.85z"/><path id="Bi" d="M161.72 217.89a1.63 1.63 0 0 1-.49 1.2 1.65 1.65 0 0 1-1.19.48 1.67 1.67 0 0 1-1.68-1.68v-3.84a1.59 1.59 0 0 1 .49-1.19 1.62 1.62 0 0 1 1.19-.49 1.59 1.59 0 0 1 1.19.49 1.62 1.62 0 0 1 .49 1.19v3.84zm-1.1-3.86a.61.61 0 0 0-1.22 0v3.85a.61.61 0 0 0 1.22 0v-3.85z"/><path id="Bj" d="M166.28 262.53a1.62 1.62 0 0 1-.49 1.19 1.66 1.66 0 0 1-1.19.49 1.63 1.63 0 0 1-1.19-.5 1.59 1.59 0 0 1-.49-1.18v-3.85a1.67 1.67 0 0 1 1.68-1.68 1.63 1.63 0 0 1 1.2.49 1.65 1.65 0 0 1 .48 1.19v3.85zm-1.1-3.87a.61.61 0 0 0-1.22 0v3.85a.61.61 0 1 0 1.22 0v-3.85z"/><path id="Bk" d="M170.28 217.89a1.68 1.68 0 0 1-2.87 1.19 1.59 1.59 0 0 1-.49-1.19v-3.84a1.59 1.59 0 0 1 .49-1.19 1.7 1.7 0 0 1 2.39 0 1.65 1.65 0 0 1 .48 1.19v3.84zm-1.1-3.86a.61.61 0 0 0-1.22 0v3.85a.61.61 0 1 0 1.22 0v-3.85z"/><path id="Bl" d="M174.57 217.89a1.69 1.69 0 0 1-2.88 1.19 1.59 1.59 0 0 1-.49-1.19v-3.84a1.69 1.69 0 0 1 1.69-1.68 1.62 1.62 0 0 1 1.19.49 1.66 1.66 0 0 1 .49 1.19v3.84zm-1.1-3.86a.58.58 0 0 0-.18-.43.6.6 0 0 0-.44-.18.58.58 0 0 0-.43.18.57.57 0 0 0-.17.43v3.85a.57.57 0 0 0 .17.43.58.58 0 0 0 .43.18.6.6 0 0 0 .44-.18.58.58 0 0 0 .18-.43v-3.85z"/><path id="Bm" d="M192.31 168.38V163h-.91v-.74a1.58 1.58 0 0 0 .73-.29 1.48 1.48 0 0 0 .5-.59h.74v7h-1.06z"/><path id="Bn" d="M195.14 168.38V163h-.9v-.74a1.63 1.63 0 0 0 .73-.29 1.38 1.38 0 0 0 .49-.59h.74v7h-1.06z"/><path id="Bo" d="M203.65 168.38V163h-.9v-.74a1.58 1.58 0 0 0 .73-.29 1.48 1.48 0 0 0 .5-.59h.74v7h-1.07z"/><path id="Bp" d="M184.87 197.4V192H184v-.74a1.58 1.58 0 0 0 .73-.29 1.41 1.41 0 0 0 .5-.59h.74v7.05l-1.1-.03z"/><path id="Bq" d="M211.85 166.77a1.67 1.67 0 0 1-1.68 1.68A1.65 1.65 0 0 1 209 168a1.62 1.62 0 0 1-.49-1.19v-3.85a1.67 1.67 0 0 1 1.68-1.68 1.59 1.59 0 0 1 1.19.49 1.62 1.62 0 0 1 .49 1.19l-.02 3.81zm-1.1-3.87a.61.61 0 0 0-1.22 0v3.85a.61.61 0 0 0 1.22 0v-3.85z"/><path id="Br" d="M216.13 166.77a1.67 1.67 0 0 1-1.68 1.68 1.66 1.66 0 0 1-1.19-.49 1.62 1.62 0 0 1-.49-1.19v-3.85a1.69 1.69 0 0 1 2.88-1.19 1.65 1.65 0 0 1 .48 1.19v3.85zM215 162.9a.61.61 0 0 0-1.22 0v3.85a.61.61 0 0 0 1.22 0v-3.85z"/><path id="Bs" d="M217.9 168.38V163h-.9v-.74a1.58 1.58 0 0 0 .73-.29 1.41 1.41 0 0 0 .5-.59h.77v7h-1.1z"/><path id="Bt" d="M223.26 166.77a1.69 1.69 0 0 1-3.37 0v-3.85a1.63 1.63 0 0 1 .5-1.19 1.68 1.68 0 0 1 2.87 1.19v3.85zm-1.1-3.87a.58.58 0 0 0-.18-.43.6.6 0 0 0-.43-.18.57.57 0 0 0-.43.18.58.58 0 0 0-.18.43v3.85a.58.58 0 0 0 .18.43.57.57 0 0 0 .43.18.6.6 0 0 0 .43-.18.58.58 0 0 0 .18-.43v-3.85z"/><path id="Bu" d="M225 168.38V163h-.9v-.74a1.63 1.63 0 0 0 .73-.29 1.38 1.38 0 0 0 .49-.59h.75v7H225z"/><path id="Bv" d="M227.86 168.38V163H227v-.74a1.59 1.59 0 0 0 .72-.29 1.41 1.41 0 0 0 .5-.59h.74v7h-1.1z"/><path id="Bw" d="M252.94 237.48v-5.43H252v-.74a1.52 1.52 0 0 0 .73-.29 1.38 1.38 0 0 0 .49-.59h.78v7.05h-1.06z"/><path id="Bx" d="M258.3 235.87a1.68 1.68 0 0 1-3.36 0V232a1.69 1.69 0 0 1 2.88-1.2 1.66 1.66 0 0 1 .48 1.2v3.87zm-1.1-3.87a.61.61 0 0 0-1.22 0v3.85a.6.6 0 0 0 .18.44.63.63 0 0 0 .86 0 .6.6 0 0 0 .18-.44V232z"/><path id="By" d="M187.72 242.16a1.61 1.61 0 0 1-.49 1.19 1.66 1.66 0 0 1-1.19.49 1.69 1.69 0 0 1-1.69-1.68v-3.85a1.69 1.69 0 0 1 1.69-1.68 1.59 1.59 0 0 1 1.19.49 1.62 1.62 0 0 1 .49 1.19v3.85zm-1.1-3.87a.58.58 0 0 0-.18-.43.6.6 0 0 0-.43-.18.57.57 0 0 0-.43.18.58.58 0 0 0-.18.43v3.85a.58.58 0 0 0 .18.43.57.57 0 0 0 .43.18.6.6 0 0 0 .43-.18.58.58 0 0 0 .18-.43v-3.85z"/><path id="Bz" d="M108.88 112.92v-5.42H108v-.74a1.58 1.58 0 0 0 .73-.29 1.41 1.41 0 0 0 .5-.59h.74v7l-1.09.04z"/><path id="CA" d="M114.24 111.32a1.69 1.69 0 0 1-1.68 1.68 1.67 1.67 0 0 1-1.69-1.68v-3.85a1.69 1.69 0 0 1 2.88-1.19 1.66 1.66 0 0 1 .49 1.19v3.85zm-1.1-3.87a.58.58 0 0 0-.14-.45.6.6 0 0 0-.44-.18.58.58 0 0 0-.43.18.61.61 0 0 0-.17.43v3.85a.61.61 0 0 0 .17.43.58.58 0 0 0 .43.18.6.6 0 0 0 .44-.18.58.58 0 0 0 .18-.43l-.04-3.83z"/><path id="CB" d="M83.7 122.63a1.62 1.62 0 0 1-.49 1.19 1.66 1.66 0 0 1-1.19.49 1.69 1.69 0 0 1-1.68-1.68v-3.85a1.68 1.68 0 0 1 2.52-1.455 1.68 1.68 0 0 1 .84 1.455v3.85zm-1.1-3.87a.61.61 0 0 0-1.22 0v3.85a.61.61 0 1 0 1.22 0v-3.85z"/><path id="CC" d="M128.49 111.32a1.69 1.69 0 0 1-1.68 1.68 1.67 1.67 0 0 1-1.2-.49 1.62 1.62 0 0 1-.49-1.19v-3.85a1.69 1.69 0 0 1 2.88-1.19 1.66 1.66 0 0 1 .49 1.19v3.85zm-1.1-3.87a.58.58 0 0 0-.18-.43.6.6 0 0 0-.44-.18.58.58 0 0 0-.43.18.57.57 0 0 0-.17.43v3.85a.57.57 0 0 0 .17.43.58.58 0 0 0 .43.18.6.6 0 0 0 .44-.18.58.58 0 0 0 .18-.43v-3.85z"/><path id="CD" d="M132.77 111.32a1.69 1.69 0 0 1-1.68 1.68 1.67 1.67 0 0 1-1.69-1.68v-3.85a1.69 1.69 0 0 1 2.88-1.19 1.66 1.66 0 0 1 .49 1.19v3.85zm-1.1-3.87a.58.58 0 0 0-.18-.43.6.6 0 0 0-.44-.18.6.6 0 0 0-.43.18.61.61 0 0 0-.17.43v3.85a.61.61 0 0 0 .17.43.6.6 0 0 0 .43.18.6.6 0 0 0 .44-.18.58.58 0 0 0 .18-.43v-3.85z"/><path id="CE" d="M113.11 38.75a1.59 1.59 0 0 1-.49 1.19 1.62 1.62 0 0 1-1.19.49 1.59 1.59 0 0 1-1.19-.49 1.62 1.62 0 0 1-.5-1.19v-3.84a1.64 1.64 0 0 1 .5-1.2 1.66 1.66 0 0 1 1.19-.49 1.69 1.69 0 0 1 1.68 1.69v3.84zM112 34.89a.6.6 0 0 0-.61-.622.6.6 0 0 0-.61.622v3.84a.6.6 0 0 0 .61.622.6.6 0 0 0 .61-.622v-3.84z"/><path id="CF" d="M114.88 40.36v-5.42H114v-.75a1.47 1.47 0 0 0 .73-.28 1.51 1.51 0 0 0 .5-.6h.74v7l-1.09.05z"/><path id="CG" d="M144.17 111.32a1.62 1.62 0 0 1-.49 1.19 1.69 1.69 0 0 1-2.38 0 1.62 1.62 0 0 1-.49-1.19v-3.85a1.67 1.67 0 0 1 1.68-1.68 1.63 1.63 0 0 1 1.2.49 1.65 1.65 0 0 1 .48 1.19v3.85zm-1.1-3.87a.61.61 0 0 0-1.22 0v3.85a.61.61 0 0 0 1.22 0v-3.85z"/><path id="CH" d="M145.94 112.92v-5.42H145v-.74a1.58 1.58 0 0 0 .73-.29 1.41 1.41 0 0 0 .5-.59h.77v7l-1.06.04z"/><path id="CI" d="M133.93 85a1.61 1.61 0 0 1-.49 1.19 1.65 1.65 0 0 1-1.19.49 1.66 1.66 0 0 1-1.19-.49 1.62 1.62 0 0 1-.49-1.19v-3.85a1.69 1.69 0 0 1 2.88-1.19 1.65 1.65 0 0 1 .48 1.19V85zm-1.1-3.87a.61.61 0 0 0-1.22 0v3.85a.61.61 0 1 0 1.22 0v-3.85z"/><path id="CJ" d="M141.06 85a1.61 1.61 0 0 1-.49 1.19 1.66 1.66 0 0 1-1.19.49 1.69 1.69 0 0 1-1.69-1.68v-3.85a1.69 1.69 0 0 1 1.69-1.68 1.59 1.59 0 0 1 1.19.49 1.62 1.62 0 0 1 .49 1.19V85zm-1.1-3.87a.61.61 0 0 0-.61-.61.57.57 0 0 0-.43.18.58.58 0 0 0-.18.43v3.85a.58.58 0 0 0 .18.43.57.57 0 0 0 .43.18.61.61 0 0 0 .61-.61v-3.85z"/><path id="CK" d="M118.31 14.16a1.69 1.69 0 0 1-1.68 1.68 1.67 1.67 0 0 1-1.2-.49 1.62 1.62 0 0 1-.49-1.19v-3.85a1.63 1.63 0 0 1 .5-1.19 1.59 1.59 0 0 1 1.19-.49 1.62 1.62 0 0 1 1.19.49 1.66 1.66 0 0 1 .49 1.19v3.85zm-1.1-3.87a.58.58 0 0 0-.18-.43.6.6 0 0 0-.44-.18.58.58 0 0 0-.43.18.57.57 0 0 0-.17.43v3.85a.57.57 0 0 0 .17.43.58.58 0 0 0 .43.18.6.6 0 0 0 .44-.18.58.58 0 0 0 .18-.43v-3.85z"/><path id="CL" d="M120.07 15.77v-5.43h-.9V9.6a1.49 1.49 0 0 0 .72-.29 1.41 1.41 0 0 0 .5-.59h.74v7l-1.06.05z"/><path id="CM" d="M165.55 111.32a1.69 1.69 0 0 1-1.68 1.68 1.67 1.67 0 0 1-1.69-1.68v-3.85a1.69 1.69 0 0 1 2.567-1.571 1.69 1.69 0 0 1 .803 1.571v3.85zm-1.1-3.87a.58.58 0 0 0-.18-.43.6.6 0 0 0-.44-.18.6.6 0 0 0-.43.18.61.61 0 0 0-.17.43v3.85a.61.61 0 0 0 .17.43.6.6 0 0 0 .43.18.6.6 0 0 0 .44-.18.58.58 0 0 0 .18-.43v-3.85z"/><path id="CN" d="M172.67 111.32a1.62 1.62 0 0 1-.49 1.19 1.66 1.66 0 0 1-1.18.49 1.65 1.65 0 0 1-1.19-.49 1.62 1.62 0 0 1-.49-1.19v-3.85a1.68 1.68 0 0 1 3.36 0l-.01 3.85zm-1.1-3.87a.61.61 0 0 0-1.22 0v3.85a.61.61 0 0 0 1.22 0v-3.85z"/><path id="CO" d="M179.8 111.32a1.69 1.69 0 0 1-1.68 1.68 1.67 1.67 0 0 1-1.69-1.68v-3.85a1.69 1.69 0 0 1 2.88-1.19 1.66 1.66 0 0 1 .49 1.19v3.85zm-1.1-3.87a.58.58 0 0 0-.18-.43.6.6 0 0 0-.44-.18.58.58 0 0 0-.43.18.61.61 0 0 0-.17.43v3.85a.61.61 0 0 0 .17.43.58.58 0 0 0 .43.18.6.6 0 0 0 .44-.18.58.58 0 0 0 .18-.43v-3.85z"/><path id="CP" d="M186.92 111.32a1.62 1.62 0 0 1-.49 1.19 1.66 1.66 0 0 1-1.19.49 1.65 1.65 0 0 1-1.19-.49 1.62 1.62 0 0 1-.49-1.19v-3.85a1.68 1.68 0 0 1 3.36 0v3.85zm-1.1-3.87a.61.61 0 0 0-1.22 0v3.85a.61.61 0 0 0 1.22 0v-3.85z"/><path id="CQ" d="M201.17 111.32a1.62 1.62 0 0 1-.49 1.19 1.66 1.66 0 0 1-1.19.49 1.67 1.67 0 0 1-1.68-1.68v-3.85a1.68 1.68 0 0 1 3.36 0v3.85zm-1.1-3.87a.61.61 0 0 0-1.22 0v3.85a.61.61 0 0 0 1.22 0v-3.85z"/><path id="CR" d="M214 111.32a1.69 1.69 0 0 1-1.68 1.68 1.67 1.67 0 0 1-1.2-.49 1.62 1.62 0 0 1-.49-1.19v-3.85a1.65 1.65 0 0 1 .49-1.19 1.7 1.7 0 0 1 2.39 0 1.66 1.66 0 0 1 .49 1.19v3.85zm-1.11-3.87a.61.61 0 0 0-1-.43.57.57 0 0 0-.17.43v3.85a.57.57 0 0 0 .17.43.61.61 0 0 0 1-.43v-3.85z"/><path id="CS" d="M332.37 119.69v-5.42h-.91v-.75a1.48 1.48 0 0 0 .73-.29 1.41 1.41 0 0 0 .5-.59h.74v7.05h-1.06z"/><path id="CT" d="M337.73 118.08a1.69 1.69 0 0 1-1.68 1.68 1.63 1.63 0 0 1-1.2-.49 1.65 1.65 0 0 1-.49-1.19v-3.84a1.69 1.69 0 0 1 1.69-1.69 1.62 1.62 0 0 1 1.19.5 1.65 1.65 0 0 1 .49 1.19v3.84zm-1.1-3.87a.6.6 0 0 0-.62-.61.58.58 0 0 0-.43.18.63.63 0 0 0-.17.43v3.85a.64.64 0 0 0 .17.44.58.58 0 0 0 .43.18.61.61 0 0 0 .62-.62v-3.85z"/><path id="CU" d="M339.49 119.69v-5.42h-.9v-.75a1.49 1.49 0 0 0 .72-.29 1.41 1.41 0 0 0 .5-.59h.74v7.05h-1.06z"/><path id="CV" d="M344.85 118.08a1.59 1.59 0 0 1-.49 1.19 1.68 1.68 0 0 1-2.87-1.19v-3.84A1.63 1.63 0 0 1 342 113a1.66 1.66 0 0 1 1.19-.49 1.69 1.69 0 0 1 1.68 1.69l-.02 3.88zm-1.1-3.87a.6.6 0 0 0-.61-.612.6.6 0 0 0-.61.612v3.85a.6.6 0 0 0 .61.622.6.6 0 0 0 .61-.622v-3.85z"/><path id="CW" d="M374.2 137.7a1.59 1.59 0 0 1-.49 1.19 1.62 1.62 0 0 1-1.19.49 1.59 1.59 0 0 1-1.19-.49 1.62 1.62 0 0 1-.5-1.19v-3.84a1.64 1.64 0 0 1 .5-1.2 1.66 1.66 0 0 1 1.19-.49 1.69 1.69 0 0 1 1.68 1.69v3.84zm-1.1-3.86a.6.6 0 0 0-.18-.44.58.58 0 0 0-.43-.18.57.57 0 0 0-.43.18.6.6 0 0 0-.18.44v3.85a.6.6 0 0 0 .18.43.57.57 0 0 0 .43.18.58.58 0 0 0 .43-.18.6.6 0 0 0 .18-.43v-3.85z"/><path id="CX" d="M356.26 118.08a1.69 1.69 0 0 1-1.68 1.68 1.63 1.63 0 0 1-1.2-.49 1.65 1.65 0 0 1-.49-1.19v-3.84a1.69 1.69 0 0 1 1.69-1.69 1.69 1.69 0 0 1 1.68 1.69v3.84zm-1.1-3.87a.6.6 0 0 0-.62-.61.6.6 0 0 0-.43.18.63.63 0 0 0-.17.43v3.85a.64.64 0 0 0 .17.44.6.6 0 0 0 .43.18.61.61 0 0 0 .62-.62v-3.85z"/><path id="CY" d="M360.54 118.08a1.59 1.59 0 0 1-.49 1.19 1.62 1.62 0 0 1-1.19.49 1.59 1.59 0 0 1-1.19-.49 1.62 1.62 0 0 1-.5-1.19v-3.84a1.64 1.64 0 0 1 .5-1.2 1.66 1.66 0 0 1 1.19-.49 1.69 1.69 0 0 1 1.68 1.69v3.84zm-1.1-3.87a.61.61 0 0 0-.61-.61.57.57 0 0 0-.43.18.6.6 0 0 0-.18.43v3.85a.6.6 0 0 0 .18.44.57.57 0 0 0 .43.18.6.6 0 0 0 .61-.62v-3.85z"/><path id="CZ" d="M372.52 89.11a1.69 1.69 0 0 1-1.68 1.68 1.63 1.63 0 0 1-1.2-.49 1.65 1.65 0 0 1-.49-1.19v-3.84a1.69 1.69 0 0 1 1.69-1.69 1.62 1.62 0 0 1 1.19.5 1.65 1.65 0 0 1 .49 1.19v3.84zm-1.1-3.86a.61.61 0 0 0-.62-.62.6.6 0 0 0-.43.18.64.64 0 0 0-.17.44v3.84a.64.64 0 0 0 .17.44.6.6 0 0 0 .43.18.61.61 0 0 0 .62-.62v-3.84z"/><path id="Ca" d="M248.93 88.48a1.67 1.67 0 0 1-1.68 1.68 1.67 1.67 0 0 1-1.68-1.68v-3.84a1.63 1.63 0 0 1 .49-1.2 1.66 1.66 0 0 1 1.19-.49 1.67 1.67 0 0 1 1.68 1.69v3.84zm-1.1-3.87a.6.6 0 0 0-.61-.612.6.6 0 0 0-.61.612v3.85a.6.6 0 0 0 .61.622.6.6 0 0 0 .61-.622v-3.85z"/><path id="Cb" d="M224.65 45.45a1.62 1.62 0 0 1-.49 1.19 1.66 1.66 0 0 1-1.19.49 1.62 1.62 0 0 1-1.19-.5 1.59 1.59 0 0 1-.49-1.18V41.6a1.68 1.68 0 0 1 3.36 0v3.85zm-1.1-3.87a.61.61 0 0 0-1.22 0v3.85a.61.61 0 0 0 1.22 0v-3.85z"/><path id="Cc" d="M257.5 88.48a1.69 1.69 0 0 1-1.68 1.68 1.63 1.63 0 0 1-1.2-.49 1.66 1.66 0 0 1-.49-1.19v-3.84a1.69 1.69 0 0 1 1.69-1.69 1.69 1.69 0 0 1 1.68 1.69v3.84zm-1.1-3.87a.6.6 0 0 0-.62-.61.6.6 0 0 0-.43.18.63.63 0 0 0-.17.43v3.85a.64.64 0 0 0 .17.44.6.6 0 0 0 .43.18.61.61 0 0 0 .62-.62v-3.85z"/><path id="Cd" d="M259.26 90.09v-5.42h-.9v-.75a1.56 1.56 0 0 0 .73-.29 1.38 1.38 0 0 0 .49-.59h.74v7.05h-1.06z"/><path id="Ce" d="M264.94 90.09v-5.42H264v-.75a1.48 1.48 0 0 0 .73-.29 1.41 1.41 0 0 0 .5-.59h.77v7.05h-1.06z"/><path id="Cf" d="M279.83 64.45V59h-.91v-.74a1.58 1.58 0 0 0 .73-.29 1.41 1.41 0 0 0 .5-.59h.74v7l-1.06.07z"/><path id="Cg" d="M421.43 339.19a3 3 0 0 0-2.39-4.27 6.36 6.36 0 0 0-2-7 1.47 1.47 0 0 0-.87-.39 1.7 1.7 0 0 0-.94.41l-5.58 4a3.4 3.4 0 0 0-1.11 1.09c-1.14 2.21 3 5 1.28 6.86-.48.52-1.26.63-1.87 1-1.32.83-1.48 2.65-2.1 4.09s-2.78 2.55-3.6 1.22c.61-1.38-1.24-2.57-2.73-2.74s-3.06-.26-3.89-1.66c-2.12 1.85-6.88-3.33-6.77-5.41-1.75.13-2.94 1.76-3.32 3.4a25.05 25.05 0 0 0-.18 5.2c0 3.38-1.14 6.7-1.08 10.08 0 2.63 1.06 5.55 3.47 6.61a9.05 9.05 0 0 0 3.74.5l27.43-.18a4 4 0 0 0 1.92-.32c1.24-.64 1.5-2.27 1.62-3.66l1.47-17.88-2.5-.95z"/><path id="Ch" d="M423 310.2h-42.53l.35 4.3.25 3.07.65 8 .37 4.59.49 6.11.21 2.62.07.78.25 3.08.34 4.22.21 2.62.22 2.66.25 3.08.19 2.33.21 2.62.09 1.14h39.06l.09-1.14.21-2.61.19-2.35.25-3.08.22-2.65.21-2.62.34-4.23.25-3.07.06-.78.21-2.62.5-6.11.37-4.58.64-8 .25-3.07.35-4.3-4.82-.01zm2.56 2.82h0l-.82-.82h.89l-.07.82zm-.21 2.61l-.08 1-3.81 3.81-4.37-4.37 3.91-3.87h1l3.35 3.43zm-1.1 13.62l-2.76 2.75-4.37-4.37 4.37-4.36 3 3-.24 2.98zm-40.5-2.92h0l3-3 4.37 4.36-4.32 4.31-2.8-2.75-.25-2.92zm36.3-4.44l-4.37 4.37-4.37-4.37 4.37-4.37 4.37 4.37zm-6.87-9.69h5l-2.5 2.5-2.5-2.5zm1.08 15.47l-4.33 4.33-4.37-4.37 4.37-4.36 4.33 4.4zm-14.51 5.78l4.37-4.36 4.36 4.36-4.36 4.37-4.37-4.37zm3 5.78l-4.37 4.37-4.38-4.36 4.37-4.37 4.38 4.36zm7.2-4.36l4.36 4.37-4.36 4.36-4.37-4.37 4.37-4.36zm-5.78-8.61l-4.37-4.37 4.37-4.37 4.36 4.37-4.36 4.37zm-1.42 1.41l-4.38 4.33-4.37-4.33 4.37-4.36 4.38 4.36zm-10.15-1.41l-4.36-4.37 4.36-4.37 4.37 4.37-4.37 4.37zm0 2.83l4.37 4.36-4.37 4.37-4.36-4.37 4.36-4.36zM397 345l-4.37 4.36-4.41-4.36 4.36-4.37L397 345zm1.41 1.41l4.37 4.37-4.36 4.37-4.42-4.35 4.41-4.39zm1.42-1.41l4.37-4.37 4.36 4.37-4.36 4.36-4.37-4.36zm10.15 1.41l4.36 4.37-4.36 4.37-4.37-4.37 4.37-4.37zm5.78 5.78l4.37 4.37-2.83 2.83h-3.08l-2.83-2.83 4.37-4.37zm-4.42-7.19l4.37-4.37 4.37 4.37-4.37 4.36-4.37-4.36zm0-11.57l4.37-4.36 4.37 4.36-4.37 4.37-4.37-4.37zm3-17.34l-4.36 4.37-4.37-4.37 3.91-3.91h.92l3.9 3.91zm-10.14-1.41l-2.5-2.5h5l-2.5 2.5zm-1.42 1.41l-4.36 4.37-4.42-4.35 3.91-3.91h.92l3.95 3.89zm-7.65-3.91l-2.5 2.5-2.49-2.5h4.99zm-7.82 0l3.91 3.91-4.37 4.37-3.8-3.81-.08-1 3.42-3.43.92-.04zm-3.74 0l-.81.81h0l-.07-.81h.88zm-.27 7.55l2.14 2.14-1.82 1.82-.32-3.96zm1.19 14.65l-.17-2.07h0l1.12 1.12-.95.95zm.21 2.63l2.15-2.16 4.37 4.37-4.37 4.36-1.85-1.74-.3-4.83zm.65 8.08v-.19l.1.1-.09.09h-.01zm.76 9.31l-.55-6.7 1.29-1.29 4.37 4.37-4.37 4.36-.74-.74zm.4 5l-.08-1 .42-.42 1.42 1.42h-1.76zm1.76-2.83l4.36-4.37 4.37 4.37-2.83 2.83H391l-2.73-2.83zm8.73 2.83l1.42-1.42 1.42 1.42H397zm5.66 0l-2.83-2.83 4.37-4.37 4.36 4.37-2.82 2.83h-3.08zm5.9 0l1.42-1.42 1.42 1.42h-2.84zm13.32 0h-1.76l1.42-1.42.42.42-.08 1zm.41-5l-.75.74-4.37-4.36 4.37-4.37 1.29 1.29-.54 6.7zm.77-9.51v.2l-.09-.09.11-.11h-.02zm.25-3.07l-1.77 1.76-4.37-4.36 4.37-4.37 2.16 2.16-.39 4.81zm.6-7.43l-1-1 1.13-1.12-.13 2.12zm1.19-14.67l-.32 4-1.83-1.83 2.15-2.15v-.02z"/><path id="Ci" d="M171.61 186.48a2.47 2.47 0 0 1-2.37-2.19l-4.62-49.8a1.73 1.73 0 0 1 0-.61 1.46 1.46 0 0 1 1.5-1.13h77.79a2.49 2.49 0 0 1 2.38 2.2l4.62 49.8a1.65 1.65 0 0 1-.38 1.26 1.5 1.5 0 0 1-1.16.47h-77.76z"/><path id="Cj" d="M82.7 206.9h281.08v5.51a2.16 2.16 0 0 1-2.16 2.16H84.86a2.16 2.16 0 0 1-2.16-2.16v-5.51z"/><path id="Ck" d="M367.58 207.9H78.9a2.16 2.16 0 0 1-2.16-2.16h0a2.17 2.17 0 0 1 2.16-2.17h288.68a2.17 2.17 0 0 1 2.16 2.17h0a2.16 2.16 0 0 1-2.16 2.16z"/><path id="Cl" d="M92.37 186.45a2.78 2.78 0 0 1-2.57-2.22l-8.8-50.3a1.88 1.88 0 0 1 0-.62 1.33 1.33 0 0 1 1.41-1.13h67.79a2.76 2.76 0 0 1 2.56 2.21l8.86 50.3a1.62 1.62 0 0 1-.28 1.28 1.4 1.4 0 0 1-1.11.48H92.37z"/><path id="Cm" d="M260.71 186.471a2.31 2.31 0 0 1-2.26-2.191l-2.05-49.79a2 2 0 0 1 .06-.62 1.57 1.57 0 0 1 1.56-1.12h67.79a2.34 2.34 0 0 1 2.27 2.2l2.05 49.79a1.69 1.69 0 0 1-.45 1.26c-.314.31-.739.479-1.18.471h-67.79z"/><path id="Cn" d="M293.74 241.88l1.94-12.18 44.66-2.7s4.75 25.34 1.1 32.09c-6.51 12.05-41.61 6-51.89 7.15 6.14 25.11 5.54 74.18 5.54 74.18l-14.67 1.12s-11.28-52.87-13.57-78c-1.54-16.92 12.51-16.54 26.89-21.66z"/><path id="Co" d="M261.29 169s12.65-14.16 29.54-12.7 33.81 14.5 42.22 35 11 51.5 11 51.5-27.34 7.82-55.12.69A295.54 295.54 0 0 0 261.29 169z"/><path id="Cp" d="M261.29 169c-4.26 4.43-16.45 24.74-19.92 25.5s-8.52-2.37-12.48-1.18-8 4.8-7.1 7.1 10.21 8.46 21.74 8.8c9.87.28 30.67-24.29 30.67-24.29 0-9.55-12.91-15.93-12.91-15.93z"/><path id="Cq" d="M353.25 340.68l-28.81-2.83v-40.5H313v40.48l-28.93 2.85a5.6 5.6 0 0 0-5.06 5.58v4.33h79.28v-4.33a5.6 5.6 0 0 0-5.04-5.58h0z"/><path id="Cr" d="M311.05 270h15.35v31.93a4.13 4.13 0 0 1-4.13 4.13h-7.09a4.13 4.13 0 0 1-4.13-4.13V270h0z"/><path id="Cs" d="M301.64 270S316 224.31 318.4 157.65c.312-7.958 6.856-14.246 14.82-14.24h26.58c8.163-.006 14.796 6.587 14.84 14.75.1 24.22-1.59 73.72-15.25 114L301.64 270z"/><path id="Ct" d="M321.23 234.12s-29.14-5.89-57.27-3 13.24 39.61 13.24 39.61h5.8s-21.92-23.31-20.7-29.11 56.42 1.85 56.42 1.85l2.51-9.35z"/></defs></svg>