<svg xmlns="http://www.w3.org/2000/svg" width="83" height="82" ><defs><filter id="A"><feColorMatrix in="SourceGraphic" values="0 0 0 0 1.000000 0 0 0 0 1.000000 0 0 0 0 1.000000 0 0 0 1.000000 0"/></filter></defs><g transform="translate(-37.333 -38)" filter="url(#A)" fill-rule="evenodd"><g transform="translate(38.138 38.271)" fill="#ed5c37" fill-rule="nonzero"><path d="M54.243 58.99l.512.023c3.79 0 6.862-3.318 6.862-7.41 0-1.611-.477-3.1-1.286-4.316 1.865-1.325 3.098-3.603 3.098-6.195 0-3.124-1.791-5.794-4.323-6.884.187-.674.289-1.388.289-2.127 0-3.951-2.864-7.179-6.473-7.397-.397-3.132-2.883-5.546-5.893-5.546-1.317 0-2.547.463-3.547 1.245v39.672c1.302 1.278 3.031 2.057 4.929 2.057 2.38 0 4.494-1.225 5.833-3.123h0z"/><path d="M38.679 20.407c-.991-.796-2.218-1.268-3.548-1.268-3.01 0-5.496 2.414-5.893 5.546-3.609.218-6.473 3.446-6.473 7.397 0 .74.102 1.453.288 2.127-2.532 1.09-4.323 3.76-4.323 6.884 0 2.591 1.232 4.87 3.098 6.195a7.78 7.78 0 0 0-1.286 4.316c0 4.092 3.072 7.41 6.862 7.41a6.43 6.43 0 0 0 .512-.023c1.339 1.897 3.453 3.123 5.833 3.123 1.898 0 3.627-.779 4.929-2.057V20.407h0z"/><path d="M8.629 31.854c3.103-11.41 12.107-20.423 23.528-23.562-.432-1.089-.671-2.274-.671-3.514a9.62 9.62 0 0 1 .092-1.314c-6.627 1.675-12.705 5.102-17.665 10.051C8.964 18.452 5.533 24.498 3.85 31.091c.306-.029.615-.046.928-.046a9.55 9.55 0 0 1 3.851.808z"/><path d="M8.629 49.398a9.55 9.55 0 0 1-3.851.808c-.313 0-.623-.016-.928-.046 1.684 6.593 5.115 12.64 10.063 17.576 4.96 4.949 11.038 8.376 17.665 10.051a9.59 9.59 0 0 1-.092-1.314c0-1.24.24-2.425.671-3.514-11.422-3.14-20.425-12.152-23.529-23.562z"/><path d="M73.531 31.854a9.55 9.55 0 0 1 3.851-.808l.928.046c-1.684-6.593-5.115-12.64-10.063-17.576-4.96-4.949-11.038-8.376-17.665-10.051.059.43.092.868.092 1.314 0 1.24-.24 2.425-.671 3.514 11.421 3.14 20.425 12.152 23.528 23.562z"/><path d="M73.531 49.398c-3.103 11.41-12.107 20.423-23.528 23.562.432 1.089.671 2.274.671 3.514a9.62 9.62 0 0 1-.092 1.314c6.627-1.675 12.705-5.102 17.665-10.051 4.948-4.937 8.38-10.983 10.063-17.576-.306.03-.615.046-.928.046a9.55 9.55 0 0 1-3.851-.808h0z"/><path d="M41.08 9.556a4.78 4.78 0 0 0 4.778-4.778A4.78 4.78 0 0 0 41.08 0a4.78 4.78 0 0 0-4.778 4.778 4.78 4.78 0 0 0 4.778 4.778z"/><path d="M77.382 35.848a4.78 4.78 0 0 0-4.778 4.778 4.78 4.78 0 0 0 4.778 4.778 4.78 4.78 0 0 0 4.778-4.778 4.78 4.78 0 0 0-4.778-4.778h0z"/><path d="M9.555 40.626a4.78 4.78 0 0 0-4.778-4.778A4.78 4.78 0 0 0 0 40.626a4.78 4.78 0 0 0 4.778 4.778 4.78 4.78 0 0 0 4.778-4.778z"/><path d="M41.08 71.696a4.78 4.78 0 0 0-4.778 4.778 4.78 4.78 0 0 0 4.778 4.778 4.78 4.78 0 0 0 4.778-4.778 4.78 4.78 0 0 0-4.778-4.778z"/></g></g></svg>