<svg xmlns="http://www.w3.org/2000/svg" width="54" height="84" ><defs><filter id="A"><feColorMatrix in="SourceGraphic" values="0 0 0 0 1.000000 0 0 0 0 1.000000 0 0 0 0 1.000000 0 0 0 1.000000 0"/></filter></defs><g transform="translate(-52 -37)" filter="url(#A)" fill-rule="evenodd"><g transform="translate(52.303 37.048)" fill="#ed5c37" fill-rule="nonzero"><path d="M45.766 83.903H7.628A7.63 7.63 0 0 1 0 76.276V7.296A7.63 7.63 0 0 1 7.628 0h38.138a7.63 7.63 0 0 1 7.628 7.628v68.648a7.63 7.63 0 0 1-7.628 7.628zM7.628 7.628v68.648h38.138V7.628h-7.628a7.63 7.63 0 0 1-7.628 7.628h-7.628a7.63 7.63 0 0 1-7.628-7.628H7.628z"/></g></g></svg>