<svg xmlns="http://www.w3.org/2000/svg" width="83" height="82" fill="#ed5c37" ><path d="M55.048 59.261l.512.023c3.79 0 6.862-3.318 6.862-7.41 0-1.611-.477-3.1-1.286-4.316 1.865-1.325 3.098-3.603 3.098-6.195 0-3.124-1.791-5.794-4.323-6.884a7.95 7.95 0 0 0 .289-2.127c0-3.951-2.864-7.179-6.473-7.397-.397-3.132-2.883-5.546-5.893-5.546-1.317 0-2.547.463-3.547 1.245v39.672c1.302 1.278 3.031 2.057 4.929 2.057 2.38 0 4.494-1.225 5.833-3.123h0zM39.484 20.678a5.64 5.64 0 0 0-3.548-1.268c-3.01 0-5.496 2.414-5.893 5.546-3.609.218-6.473 3.446-6.473 7.397 0 .74.102 1.453.288 2.127-2.532 1.09-4.323 3.76-4.323 6.884 0 2.591 1.232 4.87 3.098 6.195a7.78 7.78 0 0 0-1.286 4.316c0 4.092 3.072 7.41 6.862 7.41a6.43 6.43 0 0 0 .512-.023c1.339 1.897 3.453 3.123 5.833 3.123 1.898 0 3.627-.779 4.929-2.057v-39.65h0zM9.434 32.125A33.71 33.71 0 0 1 32.962 8.563a9.51 9.51 0 0 1-.671-3.514 9.62 9.62 0 0 1 .092-1.314C25.756 5.41 19.678 8.837 14.718 13.786c-4.949 4.937-8.38 10.983-10.063 17.576.306-.029.615-.046.928-.046a9.55 9.55 0 0 1 3.851.808zm0 17.544a9.55 9.55 0 0 1-3.851.808c-.313 0-.623-.016-.928-.046 1.684 6.593 5.115 12.64 10.063 17.576 4.96 4.949 11.038 8.376 17.665 10.051a9.59 9.59 0 0 1-.092-1.314 9.53 9.53 0 0 1 .671-3.514C21.54 70.09 12.537 61.078 9.433 49.668zm64.902-17.544a9.55 9.55 0 0 1 3.851-.808l.928.046C77.432 24.769 74 18.723 69.052 13.786 64.092 8.837 58.014 5.41 51.387 3.735c.059.43.092.868.092 1.314a9.53 9.53 0 0 1-.671 3.514c11.421 3.14 20.425 12.152 23.528 23.562zm0 17.544a33.71 33.71 0 0 1-23.528 23.562 9.51 9.51 0 0 1 .671 3.514 9.62 9.62 0 0 1-.092 1.314c6.627-1.675 12.705-5.102 17.665-10.051 4.948-4.937 8.38-10.983 10.063-17.576a9.5 9.5 0 0 1-.928.046 9.55 9.55 0 0 1-3.851-.808h0zM41.885 9.827a4.78 4.78 0 0 0 4.778-4.778A4.78 4.78 0 0 0 41.885.271a4.78 4.78 0 0 0-4.778 4.778 4.78 4.78 0 0 0 4.778 4.778zm36.302 26.292a4.78 4.78 0 0 0-4.778 4.778 4.78 4.78 0 0 0 4.778 4.778 4.78 4.78 0 0 0 4.778-4.778 4.78 4.78 0 0 0-4.778-4.778h0zM10.36 40.897a4.78 4.78 0 0 0-4.778-4.778 4.78 4.78 0 0 0-4.778 4.778 4.78 4.78 0 0 0 4.778 4.778 4.78 4.78 0 0 0 4.778-4.778zm31.525 31.07a4.78 4.78 0 0 0-4.778 4.778 4.78 4.78 0 0 0 4.778 4.778 4.78 4.78 0 0 0 4.778-4.778 4.78 4.78 0 0 0-4.778-4.778z"/></svg>