<svg xmlns="http://www.w3.org/2000/svg" width="112" height="100" ><defs><filter id="A"><feColorMatrix in="SourceGraphic" values="0 0 0 0 1.000000 0 0 0 0 1.000000 0 0 0 0 1.000000 0 0 0 1.000000 0"/></filter></defs><g transform="translate(-24 -29)" filter="url(#A)" fill-rule="evenodd"><g transform="translate(24.124 29.607)" fill="#61dafb" fill-rule="nonzero"><path d="M111.256 49.547c0-7.37-9.229-14.354-23.379-18.685 3.265-14.422 1.814-25.896-4.581-29.57-1.474-.862-3.197-1.27-5.079-1.27v5.057c1.043 0 1.882.204 2.585.59 3.084 1.769 4.422 8.504 3.379 17.166-.249 2.132-.658 4.377-1.156 6.667-4.445-1.088-9.297-1.927-14.399-2.472-3.061-4.195-6.236-8.005-9.433-11.338C66.584 8.821 73.523 5.057 78.239 5.057V0C72.003 0 63.84 4.445 55.586 12.154 47.332 4.49 39.168.091 32.932.091v5.057c4.694 0 11.656 3.742 19.048 10.567-3.175 3.333-6.349 7.12-9.365 11.315-5.125.544-9.978 1.383-14.422 2.494a68.41 68.41 0 0 1-1.179-6.576c-1.066-8.662.249-15.397 3.311-17.189.68-.408 1.565-.59 2.608-.59V.113c-1.905 0-3.628.408-5.125 1.27-6.372 3.674-7.801 15.125-4.513 29.502C9.19 35.239.007 42.2.007 49.547c0 7.37 9.229 14.354 23.379 18.685-3.265 14.422-1.814 25.896 4.581 29.57 1.474.862 3.197 1.27 5.102 1.27 6.236 0 14.399-4.445 22.653-12.154 8.254 7.665 16.418 12.064 22.653 12.064 1.905 0 3.628-.408 5.125-1.27 6.372-3.674 7.801-15.125 4.513-29.502 14.059-4.331 23.243-11.315 23.243-18.662h0zM81.732 34.422c-.839 2.925-1.882 5.941-3.061 8.957-.93-1.814-1.905-3.628-2.971-5.442-1.043-1.814-2.154-3.583-3.265-5.306 3.22.476 6.327 1.066 9.297 1.791zm-10.386 24.15c-1.769 3.061-3.583 5.964-5.465 8.662a117.99 117.99 0 0 1-10.25.454c-3.424 0-6.848-.159-10.204-.431a125 125 0 0 1-5.488-8.617c-1.723-2.971-3.288-5.987-4.717-9.025a118.25 118.25 0 0 1 4.694-9.048c1.769-3.061 3.583-5.964 5.465-8.662a117.99 117.99 0 0 1 10.25-.454c3.424 0 6.848.159 10.204.431a125 125 0 0 1 5.488 8.617c1.723 2.971 3.288 5.987 4.717 9.025-1.429 3.039-2.993 6.077-4.694 9.048zm7.324-2.948A97.18 97.18 0 0 1 81.8 64.65c-2.971.726-6.1 1.338-9.343 1.814 1.111-1.746 2.222-3.537 3.265-5.374 1.043-1.814 2.018-3.651 2.948-5.465zM55.677 79.82c-2.109-2.177-4.218-4.603-6.304-7.256 2.041.091 4.127.159 6.236.159a115.22 115.22 0 0 0 6.304-.159 88.51 88.51 0 0 1-6.236 7.256zM38.806 66.464c-3.22-.476-6.327-1.066-9.297-1.791.839-2.925 1.882-5.941 3.061-8.957.93 1.814 1.905 3.628 2.971 5.442s2.154 3.583 3.265 5.306zm16.758-47.189c2.109 2.177 4.218 4.603 6.304 7.256-2.041-.091-4.127-.159-6.236-.159a115.22 115.22 0 0 0-6.304.159 88.51 88.51 0 0 1 6.236-7.256zm-16.78 13.356c-1.111 1.746-2.222 3.537-3.265 5.374a128.1 128.1 0 0 0-2.948 5.442 97.18 97.18 0 0 1-3.129-9.025c2.971-.703 6.1-1.315 9.343-1.791zM18.261 61.022c-8.027-3.424-13.22-7.914-13.22-11.474s5.193-8.073 13.22-11.474c1.95-.839 4.082-1.587 6.281-2.29 1.293 4.445 2.993 9.07 5.102 13.81-2.086 4.717-3.764 9.32-5.034 13.742-2.245-.703-4.377-1.474-6.349-2.313zm12.2 32.404c-3.084-1.769-4.422-8.504-3.379-17.166.249-2.132.658-4.377 1.156-6.667 4.445 1.088 9.297 1.927 14.399 2.472 3.061 4.195 6.236 8.005 9.433 11.338-7.392 6.871-14.331 10.635-19.048 10.635-1.02-.023-1.882-.227-2.562-.612h0zm53.788-17.279c1.066 8.662-.249 15.397-3.311 17.189-.68.408-1.565.59-2.608.59-4.694 0-11.656-3.742-19.048-10.567 3.175-3.333 6.349-7.12 9.365-11.315 5.125-.544 9.978-1.383 14.422-2.494.522 2.29.93 4.49 1.179 6.599h0zm8.73-15.125c-1.95.839-4.082 1.587-6.281 2.29-1.293-4.445-2.993-9.07-5.102-13.81 2.086-4.717 3.764-9.32 5.034-13.742 2.245.703 4.377 1.474 6.372 2.313 8.027 3.424 13.22 7.914 13.22 11.474-.023 3.56-5.216 8.073-13.243 11.474h0z"/><circle cx="55.609" cy="49.547" r="10.363"/></g></g></svg>