<svg xmlns="http://www.w3.org/2000/svg" width="75" height="75" fill="#ed5c37" ><path d="M63.678 15.518c-.882-3.533-2.855-6.737-5.649-9.137-3.202-2.75-7.287-4.264-11.502-4.264-3.163 0-6.192.816-8.866 2.374C34.829 1.902 31.117.447 27.215.447c-8.368 0-15.207 6.67-15.48 14.973-2.893.809-5.512 2.454-7.514 4.75C1.762 22.991.407 26.602.407 30.34a15.51 15.51 0 0 0 15.488 15.488h43.283A15.51 15.51 0 0 0 74.667 30.34c0-6.847-4.541-12.863-10.989-14.822zM23.758 50.18v4.141h-7.701c-.95-3.344-4.029-5.801-7.673-5.801a7.99 7.99 0 0 0-7.977 7.977 7.99 7.99 0 0 0 7.977 7.977 7.99 7.99 0 0 0 7.673-5.802h9.876c1.201 0 2.176-.973 2.176-2.176V50.18h-4.351zm15.955 8.796V50.18h-4.351v8.796c-3.344.95-5.802 4.029-5.802 7.673a7.99 7.99 0 0 0 7.977 7.977 7.99 7.99 0 0 0 7.977-7.977 7.99 7.99 0 0 0-5.802-7.673zM66.69 48.52c-3.644 0-6.723 2.457-7.673 5.801h-7.701V50.18h-4.351v6.316c0 1.202.975 2.176 2.176 2.176h9.876c.95 3.344 4.029 5.802 7.673 5.802a7.99 7.99 0 0 0 7.977-7.977 7.99 7.99 0 0 0-7.977-7.977z"/></svg>