<svg xmlns="http://www.w3.org/2000/svg" width="75" height="75" ><defs><filter id="A"><feColorMatrix in="SourceGraphic" values="0 0 0 0 1.000000 0 0 0 0 1.000000 0 0 0 0 1.000000 0 0 0 1.000000 0"/></filter></defs><g transform="translate(-41 -41)" filter="url(#A)" fill-rule="evenodd"><g transform="translate(41.407 41.447)" fill="#ed5c37" fill-rule="nonzero"><path d="M63.271 15.071c-.882-3.533-2.855-6.737-5.649-9.137-3.202-2.75-7.287-4.264-11.502-4.264-3.163 0-6.192.816-8.866 2.374C34.422 1.455 30.71 0 26.808 0c-8.368 0-15.207 6.67-15.48 14.973-2.893.809-5.512 2.454-7.514 4.75C1.355 22.544 0 26.155 0 29.893a15.51 15.51 0 0 0 15.488 15.488h43.283A15.51 15.51 0 0 0 74.26 29.893c0-6.847-4.541-12.863-10.989-14.822z"/><path d="M23.351 49.733v4.141H15.65c-.95-3.344-4.029-5.801-7.673-5.801A7.99 7.99 0 0 0 0 56.05a7.99 7.99 0 0 0 7.977 7.977c3.645 0 6.724-2.458 7.673-5.802h9.876c1.201 0 2.176-.973 2.176-2.176v-6.316h-4.351z"/><path d="M39.306 58.529v-8.796h-4.351v8.796c-3.344.95-5.802 4.029-5.802 7.673a7.99 7.99 0 0 0 7.977 7.977 7.99 7.99 0 0 0 7.977-7.977c0-3.644-2.457-6.724-5.802-7.673z"/><path d="M66.283 48.073c-3.644 0-6.723 2.457-7.673 5.801h-7.701v-4.141h-4.351v6.316c0 1.202.975 2.176 2.176 2.176h9.876c.95 3.344 4.029 5.802 7.673 5.802a7.99 7.99 0 0 0 7.977-7.977 7.99 7.99 0 0 0-7.977-7.977z"/></g></g></svg>