<svg xmlns="http://www.w3.org/2000/svg" width="124" height="65" ><ellipse fill="#8993be" cx="62.388" cy="32.842" rx="61.62" ry="32.076"/><path d="M18.072 51.835l6.753-34.187h15.615c6.753.422 10.129 3.798 10.129 9.708 0 10.129-8.019 16.038-15.194 15.616H27.78l-1.688 8.863h-8.019z" fill="#fff"/><path d="M29.468 36.641l2.11-12.662h5.487c2.954 0 5.064 1.266 5.064 3.798-.422 7.175-3.798 8.441-7.597 8.864h-5.064 0z" fill="#8993be"/><path d="M49.001 42.971l6.753-34.186h8.019l-1.688 8.863h7.597c6.753.422 9.285 3.798 8.441 8.019l-2.954 17.304h-8.441l2.954-15.616c.422-2.11.422-3.377-2.532-3.377h-6.331L57.02 42.971h-8.019 0zm25.627 8.864l6.753-34.187h15.616c6.753.422 10.13 3.798 10.13 9.708 0 10.129-8.019 16.038-15.194 15.616h-7.597l-1.688 8.863h-8.019 0z" fill="#fff"/><path d="M86.023 36.641l2.11-12.662h5.487c2.954 0 5.064 1.266 5.064 3.798-.422 7.175-3.798 8.441-7.597 8.864h-5.065 0z" fill="#8993be"/></svg>