<?xml version="1.0" encoding="UTF-8"?>
<svg width="180px" height="35px" viewBox="0 0 180 35" version="1.1" xmlns="http://www.w3.org/2000/svg" xmlns:xlink="http://www.w3.org/1999/xlink">
    <!-- Generator: Sketch 61 (89581) - https://sketch.com -->
    <title>AmazonPay</title>
    <desc>Created with Sketch.</desc>
    <g id="Final" stroke="none" stroke-width="1" fill="none" fill-rule="evenodd">
        <g id="About-us" transform="translate(-210.000000, -1969.000000)" fill="#3F3F3F">
            <g id="Group-8" transform="translate(160.000000, 1915.000000)">
                <g id="Slot1">
                    <path d="M186.1318,69.7324 C185.1838,70.6674 184.1228,70.9224 182.5288,70.9224 C181.1108,70.9224 179.2428,70.1824 177.8478,69.1514 L177.8478,58.7714 C179.2998,57.6554 181.1528,57.0524 182.6958,57.0524 C186.7288,57.0524 187.8268,60.2234 187.8268,63.8534 C187.8488,66.3014 187.3998,68.4824 186.1318,69.7324 L186.1318,69.7324 Z M183.6948,54.0114 C181.5548,54.0114 179.3088,55.0044 177.5638,56.5534 L177.3678,55.2254 C177.3188,54.8904 177.0498,54.6074 176.6578,54.6074 L174.7948,54.6074 C174.4548,54.6074 174.1768,54.8844 174.1768,55.2254 L174.1768,80.5864 C174.1768,80.9264 174.4548,81.2054 174.7948,81.2054 L177.2298,81.2054 C177.5688,81.2054 177.8478,80.9264 177.8478,80.5864 L177.8478,71.8294 C179.3918,73.2064 181.3998,73.9994 183.5468,73.9994 C188.6468,73.9994 191.6618,69.5824 191.6618,64.0864 C191.6618,58.9504 189.6908,54.0114 183.6948,54.0114 L183.6948,54.0114 Z M205.9978,69.2814 C205.3838,69.8704 204.1508,70.5304 202.8368,70.9034 C201.4688,71.2924 200.0138,71.3694 199.0748,70.7324 C198.2678,70.2364 197.9218,69.2344 197.9218,68.2344 C197.9218,67.4614 198.1598,66.6624 198.6888,66.1054 C199.3938,65.3454 200.7438,65.0544 201.9788,65.0544 C202.7598,65.0544 204.7778,65.1924 205.9978,65.5254 L205.9978,69.2814 Z M202.4758,54.0004 C200.0168,54.0814 197.7038,54.5254 196.0708,55.2364 C195.7568,55.3364 195.4658,55.6664 195.4658,56.0074 L195.4658,57.4254 C195.4658,57.7664 195.6798,58.0444 196.0458,58.0314 C198.3318,57.3214 199.9748,56.9964 202.1218,56.9964 C204.9328,56.9964 205.9978,58.0924 205.9978,60.6234 L205.9978,63.1124 C204.5458,62.6384 202.5518,62.4744 201.1578,62.4744 C198.8498,62.4744 196.9398,63.1724 195.6198,64.5944 C194.6328,65.6364 194.1868,67.0704 194.1868,68.5164 C194.1868,70.3854 194.9878,72.1974 196.4988,73.1254 C198.5868,74.4074 201.0508,74.2694 203.1878,73.4394 C204.2998,73.0064 205.3238,72.3854 206.1598,71.6784 L206.3428,72.9164 C206.3918,73.2514 206.6608,73.5344 207.0538,73.5344 L208.8698,73.5344 C209.2108,73.5344 209.4898,73.2554 209.4898,72.9164 L209.4898,59.6524 C209.4898,54.7224 205.6808,54.0004 202.4758,54.0004 L202.4758,54.0004 Z M229.4698,54.5744 L227.0398,54.5744 C226.5518,54.5744 226.3438,54.8884 226.2388,55.1914 L221.1368,70.0254 L215.7928,55.1914 C215.6828,54.8864 215.4838,54.5744 214.9908,54.5744 L212.4148,54.5744 C211.7958,54.5744 211.8318,55.1494 211.9568,55.4594 L219.3288,73.7204 C219.0858,74.4234 218.7018,75.4944 218.1208,76.8224 C217.7088,77.7644 217.0128,78.4534 216.0418,78.6554 C215.2988,78.8074 214.2518,78.7034 213.5108,78.5984 C213.1138,78.5754 212.9268,78.8364 212.9268,79.2164 L212.9268,80.5524 C212.9268,80.7894 213.0288,81.1464 213.2958,81.2794 C214.3508,81.7204 216.1458,81.8544 217.5688,81.4834 C220.4078,80.7904 221.6688,76.7974 222.6158,74.2904 L229.9278,55.4594 C230.0498,55.1484 230.0838,54.5744 229.4698,54.5744 L229.4698,54.5744 Z M59.7778,69.1034 C59.2148,70.1004 58.3198,70.7134 57.3248,70.7134 C55.9668,70.7134 55.1708,69.6784 55.1708,68.1434 C55.1708,65.1264 57.8788,64.5774 60.4418,64.5774 L60.4418,65.3444 C60.4418,66.7254 60.4748,67.8754 59.7778,69.1034 L59.7778,69.1034 Z M66.7508,70.6964 C66.1038,69.8014 65.4138,69.0734 65.4138,67.4124 L65.4138,61.8934 C65.4138,59.5524 65.5788,57.4044 63.8558,55.7944 C62.5288,54.5194 60.3478,54.0514 58.6408,54.0304 L58.3788,54.0304 C55.0428,54.0654 51.3728,55.3454 50.5948,59.4544 C50.5108,59.8974 50.8338,60.1294 51.1238,60.1954 L54.5578,60.5674 C54.8798,60.5514 55.1118,60.2344 55.1738,59.9154 C55.4678,58.4804 56.6708,57.7884 58.0218,57.7884 C58.7508,57.7884 59.5798,58.0564 60.0108,58.7094 C60.5078,59.4384 60.4418,60.4344 60.4418,61.2784 L60.4418,61.7384 C58.3868,61.9694 55.7008,62.1224 53.7788,62.9664 C51.5578,63.9254 49.9998,65.8814 49.9998,68.7574 C49.9998,72.4394 52.3198,74.2804 55.3038,74.2804 C57.8228,74.2804 59.1998,73.6864 61.1458,71.7054 C61.7888,72.6364 61.9998,73.0874 63.1768,74.0664 C63.4408,74.2094 63.7798,74.1944 64.0138,73.9834 L64.0218,73.9914 C64.7298,73.3624 66.0158,72.2454 66.7398,71.6384 C67.0278,71.4024 66.9768,71.0194 66.7508,70.6964 L66.7508,70.6964 Z M106.2308,69.1034 C105.6668,70.1004 104.7718,70.7134 103.7778,70.7134 C102.4188,70.7134 101.6228,69.6784 101.6228,68.1434 C101.6228,65.1264 104.3298,64.5774 106.8938,64.5774 L106.8938,65.3444 C106.8938,66.7254 106.9258,67.8754 106.2308,69.1034 L106.2308,69.1034 Z M106.8938,61.7384 C104.8388,61.9694 102.1528,62.1224 100.2308,62.9664 C98.0098,63.9254 96.4518,65.8814 96.4518,68.7574 C96.4518,72.4394 98.7728,74.2804 101.7558,74.2804 C104.2748,74.2804 105.6528,73.6864 107.5968,71.7054 C108.2408,72.6364 108.4518,73.0874 109.6288,74.0664 C109.8928,74.2094 110.2318,74.1944 110.4648,73.9834 L110.4748,73.9914 C111.1818,73.3624 112.4678,72.2454 113.1918,71.6384 C113.4798,71.4024 113.4298,71.0194 113.2028,70.6964 C112.5558,69.8014 111.8648,69.0734 111.8648,67.4124 L111.8648,61.8934 C111.8648,59.5524 112.0318,57.4044 110.3078,55.7944 C108.9798,54.5194 106.7998,54.0514 105.0928,54.0304 L104.8298,54.0304 C101.4948,54.0654 97.8258,55.3454 97.0468,59.4544 C96.9638,59.8974 97.2848,60.1294 97.5758,60.1954 L101.0098,60.5674 C101.3308,60.5514 101.5638,60.2344 101.6248,59.9154 C101.9208,58.4804 103.1218,57.7884 104.4738,57.7884 C105.2028,57.7884 106.0308,58.0564 106.4628,58.7094 C106.9598,59.4384 106.8938,60.4344 106.8938,61.2784 L106.8938,61.7384 Z M159.4278,54.2054 C156.9808,54.2054 155.5918,55.3914 154.5998,57.8794 L154.5318,57.8794 L154.5318,55.0974 C154.4678,54.8154 154.2118,54.6044 153.9028,54.5884 L150.6158,54.5894 C150.2588,54.5894 149.9648,54.8494 149.9358,55.1824 L149.9418,73.3764 C149.9418,73.7244 150.2228,74.0054 150.5768,74.0294 L154.1078,74.0294 C154.4858,74.0294 154.7908,73.7374 154.7978,73.3754 L154.7978,63.5824 C154.7978,62.3564 154.8628,61.2474 155.3608,60.1364 C155.7568,59.2564 156.5508,58.6834 157.4108,58.6834 C159.8598,58.6834 159.6268,61.5914 159.6268,63.5824 L159.6268,73.4574 C159.6648,73.7664 159.9298,74.0074 160.2578,74.0294 L163.8098,74.0294 C164.1598,74.0294 164.4488,73.7784 164.4888,73.4574 L164.4888,62.0124 C164.4888,60.2514 164.4888,57.8024 163.5628,56.3484 C162.5698,54.7784 161.0158,54.2054 159.4278,54.2054 L159.4278,54.2054 Z M139.1838,70.6614 C136.4048,70.6614 136.437791,65.9164 136.437791,63.6964 C136.437791,61.4764 136.6028,57.9184 139.2148,57.9184 C140.3398,57.9184 141.1348,58.4154 141.5308,59.6784 C141.9948,61.1324 142.0618,62.9694 142.0618,64.5004 C142.0618,66.8344 141.9298,70.6614 139.1838,70.6614 L139.1838,70.6614 Z M139.1838,54.2054 C134.0558,54.2054 131.2118,58.6064 131.2118,64.2704 C131.2118,69.8954 134.0228,74.4124 139.1838,74.4124 C144.1458,74.4124 147.2868,70.0104 147.2868,64.4614 C147.2868,58.7214 144.4428,54.2054 139.1838,54.2054 L139.1838,54.2054 Z M70.1488,74.0294 L73.6918,74.0294 C74.0688,74.0294 74.3758,73.7374 74.3758,73.3754 L74.3768,63.7344 C74.3768,61.6294 74.2768,58.7214 76.8238,58.7214 C79.3378,58.7214 79.0068,61.7064 79.0068,63.7344 L79.0108,73.3764 C79.0108,73.7244 79.2908,74.0054 79.6468,74.0294 L83.1868,74.0294 C83.5638,74.0294 83.8698,73.7374 83.8698,73.3754 L83.8698,63.7344 C83.8698,62.7004 83.8368,61.1704 84.1998,60.2514 C84.5648,59.3334 85.4578,58.7584 86.3178,58.7584 C87.3428,58.7584 88.1368,59.1034 88.4008,60.3294 C88.5668,61.0564 88.5008,62.9694 88.5008,63.7344 L88.5018,73.3764 C88.5018,73.7244 88.7808,74.0054 89.1368,74.0294 L92.6758,74.0294 C93.0548,74.0294 93.3598,73.7374 93.3598,73.3754 L93.3628,61.8984 C93.3628,59.9454 93.5938,57.7264 92.4698,56.1954 C91.4778,54.8174 89.8568,54.2054 88.3678,54.2054 C86.2848,54.2054 84.3328,55.2764 83.4728,57.5734 C82.4808,55.2764 81.0908,54.2054 78.8748,54.2054 C76.6928,54.2054 75.0708,55.2764 74.2118,57.5734 L74.1448,57.5734 L74.1448,55.1994 C74.1228,54.8664 73.8458,54.6054 73.5008,54.5884 L70.2008,54.5894 C69.8228,54.5894 69.5168,54.8794 69.5168,55.2434 L69.5138,73.4294 C69.5418,73.7534 69.8108,74.0064 70.1488,74.0294 L70.1488,74.0294 Z M128.8898,69.1014 C126.8548,67.9584 124.4858,67.6224 122.2458,67.6744 L128.2798,59.0604 C128.8378,58.2864 129.1528,57.7984 129.1558,57.4244 L129.1558,55.1954 C129.1558,54.8114 128.8578,54.5404 128.4848,54.5404 L116.8378,54.5414 C116.4788,54.5404 116.1808,54.8034 116.1778,55.1994 L116.1778,57.7974 C116.1808,58.1874 116.4798,58.4524 116.8518,58.4524 L122.9378,58.4534 L115.9478,68.4814 C115.5228,69.1244 115.5138,69.8454 115.5138,70.2674 L115.5138,72.9034 C115.5138,73.2854 115.9378,73.7214 116.3428,73.5054 C120.3078,71.4004 125.0648,71.6044 128.6498,73.4824 C129.0888,73.7124 129.5078,73.2704 129.5078,72.8884 L129.5078,70.1164 C129.4708,69.7414 129.3478,69.3594 128.8898,69.1014 L128.8898,69.1014 Z M115.8618,76.6914 C115.2778,77.1014 115.3778,77.6694 116.0278,77.5914 C118.1718,77.3354 122.9448,76.7614 123.7958,77.8514 C124.6478,78.9414 122.8498,83.4304 122.0468,85.4364 C121.8028,86.0424 122.3248,86.2874 122.8748,85.8284 C126.4428,82.8424 127.3648,76.5874 126.6338,75.6844 C125.9098,74.7894 119.6708,74.0164 115.8618,76.6914 L115.8618,76.6914 Z M120.0608,79.4574 C112.6028,82.6204 104.4988,84.1504 97.1258,84.1504 C86.1968,84.1504 75.6138,81.1524 67.0578,76.1724 C66.3088,75.7374 65.7538,76.5044 66.3768,77.0674 C74.3078,84.2294 84.7888,88.5314 96.4268,88.5314 C104.7318,88.5314 114.3758,85.9204 121.0278,81.0114 C122.1278,80.1984 121.1858,78.9804 120.0608,79.4574 L120.0608,79.4574 Z" id="AmazonPay"></path>
                </g>
            </g>
        </g>
    </g>
</svg>