<?xml version="1.0" encoding="UTF-8"?>
<svg width="119px" height="49px" viewBox="0 0 119 49" version="1.1" xmlns="http://www.w3.org/2000/svg" xmlns:xlink="http://www.w3.org/1999/xlink">
    <!-- Generator: Sketch 61 (89581) - https://sketch.com -->
    <title>Stripe</title>
    <desc>Created with Sketch.</desc>
    <g id="Final" stroke="none" stroke-width="1" fill="none" fill-rule="evenodd">
        <g id="About-us" transform="translate(-1081.000000, -2095.000000)" fill="#3F3F3F">
            <g id="Group-8" transform="translate(160.000000, 1915.000000)">
                <g id="Slot8" transform="translate(840.000000, 136.000000)">
                    <path d="M89.3630556,63.2009346 C89.3630556,61.9252336 90.4208333,61.4345794 92.1727778,61.4345794 C94.685,61.4345794 97.8583333,62.1869159 100.370556,63.5280374 L100.370556,55.8411215 C97.6269444,54.7616822 94.9163889,54.3364486 92.1727778,54.3364486 C85.4625,54.3364486 81,57.8037383 81,63.5934579 C81,72.6214953 93.5611111,71.182243 93.5611111,75.0747664 C93.5611111,76.5794393 92.2388889,77.0700935 90.3877778,77.0700935 C87.6441667,77.0700935 84.1402778,75.9579439 81.3636111,74.453271 L81.3636111,82.2383178 C84.4377778,83.546729 87.545,84.1028037 90.3877778,84.1028037 C97.2633333,84.1028037 101.990278,80.7336449 101.990278,74.8785047 C101.957222,65.1308411 89.3630556,66.864486 89.3630556,63.2009346 L89.3630556,63.2009346 Z M111.708611,47.7943925 L103.643056,49.4953271 L103.61,75.6962617 C103.61,80.5373832 107.279167,84.1028037 112.171389,84.1028037 C114.881944,84.1028037 116.865278,83.6121495 117.956111,83.0233645 L117.956111,76.3831776 C116.898333,76.8084112 111.675556,78.3130841 111.675556,73.4719626 L111.675556,61.8598131 L117.956111,61.8598131 L117.956111,54.8925234 L111.675556,54.8925234 L111.708611,47.7943925 Z M128.236389,57.3130841 L127.7075,54.8925234 L120.5675,54.8925234 L120.5675,83.5140187 L128.831389,83.5140187 L128.831389,64.1168224 C130.781667,61.5981308 134.087222,62.0560748 135.111944,62.4158879 L135.111944,54.8925234 C134.054167,54.5 130.186667,53.7803738 128.236389,57.3130841 L128.236389,57.3130841 Z M137.128333,83.5140187 L145.425608,83.5140187 L145.425608,54.8925234 L137.128333,54.8925234 L137.128333,83.5140187 Z M137.128333,52.4065421 L145.425608,50.6401869 L145.425608,44 L137.128333,45.7336449 L137.128333,52.4065421 Z M160.696944,76.8738318 C158.746667,76.8738318 157.589722,76.1869159 156.796389,75.3364486 L156.763333,63.2009346 C157.622778,62.2523364 158.813108,61.5981308 160.696944,61.5981308 C163.705,61.5981308 165.7875,64.9345794 165.7875,69.2196262 C165.7875,73.6028037 163.738056,76.8738318 160.696944,76.8738318 L160.696944,76.8738318 Z M162.680278,54.3364486 C159.440833,54.3364486 157.358333,55.8411215 156.201389,56.8878505 L155.771667,54.8598131 L148.499444,54.8598131 L148.499444,93 L156.763333,91.2663551 L156.796389,82.0093458 C157.986719,82.8598131 159.738333,84.0700935 162.647222,84.0700935 C168.564497,84.0700935 173.952222,79.3598131 173.952222,68.9906542 C173.919167,59.5046729 168.465,54.3364486 162.680278,54.3364486 L162.680278,54.3364486 Z M183.670556,66.2102804 C183.670556,62.5140187 185.951389,60.9766355 188.033889,60.9766355 C190.050608,60.9766355 192.199219,62.5140187 192.199219,66.2102804 L183.670556,66.2102804 Z M200,69.317757 C200,60.9439252 195.901111,54.3364486 188.067275,54.3364486 C180.199722,54.3364486 175.439722,60.9439252 175.439722,69.2523364 C175.439722,79.0981308 181.059167,84.0700935 189.124722,84.0700935 C193.058333,84.0700935 196.033333,83.1869159 198.281111,81.9439252 L198.281111,75.4018692 C196.033333,76.5140187 193.455,77.2009346 190.1825,77.2009346 C186.976111,77.2009346 184.133333,76.088785 183.770053,72.228972 L199.933889,72.228972 C199.933889,71.8037383 200,70.1028037 200,69.317757 L200,69.317757 Z" id="Stripe"></path>
                </g>
            </g>
        </g>
    </g>
</svg>