<?xml version="1.0" encoding="UTF-8"?>
<svg width="111px" height="36px" viewBox="0 0 111 36" version="1.1" xmlns="http://www.w3.org/2000/svg" xmlns:xlink="http://www.w3.org/1999/xlink">
    <!-- Generator: Sketch 61 (89581) - https://sketch.com -->
    <title>Visa</title>
    <desc>Created with Sketch.</desc>
    <g id="Final" stroke="none" stroke-width="1" fill="none" fill-rule="evenodd">
        <g id="About-us" transform="translate(-525.000000, -1965.000000)" fill="#3F3F3F">
            <g id="Group-8" transform="translate(160.000000, 1915.000000)">
                <g id="Slot2" transform="translate(280.000000, 0.000000)">
                    <path d="M139.914096,50.6537682 L130.914699,50.6537682 C128.444847,62.1821545 125.980934,73.6825182 123.499613,85.2640864 L124.238725,85.2640864 C126.705915,85.2640864 129.17372,85.2352455 131.640091,85.2829045 C132.328004,85.2959955 132.562701,85.0857227 132.702782,84.4240182 C134.719214,74.8967 136.765751,65.3761318 138.804506,55.8537227 C139.17314,54.1318591 139.539522,52.4095864 139.914096,50.6537682 L139.914096,50.6537682 Z M127.096668,50.6449727 C126.844358,50.6331091 126.666389,50.6177682 126.488216,50.6177682 C123.733081,50.6161318 120.977742,50.6275864 118.222607,50.6056362 C117.782498,50.6022227 117.585074,50.7402909 117.424923,51.1475409 C114.489976,58.6056773 111.539056,66.0574727 108.589159,73.5096773 C108.533044,73.6514273 108.44703,73.7811091 108.323947,74.01245 C108.244895,73.6240182 108.185709,73.3495182 108.133485,73.0735864 C106.942591,66.7662227 105.76255,60.4568136 104.556705,54.1521091 C104.130727,51.9250182 102.504639,50.6179727 100.251871,50.6171545 C95.5022179,50.6155182 90.7525648,50.6167455 86.0029116,50.6167455 C85.0133323,50.6167455 85.0133323,50.6167455 85.0000205,51.6560409 C85.1104061,51.6836545 85.22755,51.7143364 85.3453083,51.7421545 C88.0048028,52.3727682 90.6118692,53.1488136 93.1235002,54.2535636 C94.6904024,54.9426773 95.5257696,56.0656318 95.9429411,57.7095636 C98.2178268,66.6713136 100.557019,75.6167 102.857913,84.5717 C102.990212,85.0873591 103.177806,85.2886318 103.753081,85.2810752 C106.466642,85.2432227 109.181227,85.2522227 111.895198,85.2749273 C112.391011,85.2788136 112.640659,85.1505636 112.844637,84.6623136 C117.127148,74.4096773 121.432391,64.1666545 125.73231,53.9215864 C126.182864,52.8483364 126.627273,51.7730409 127.096668,50.6449727 L127.096668,50.6449727 Z M164.128889,72.4810182 C163.808587,69.9131545 162.282644,68.0143591 160.190233,66.6330636 C158.413618,65.4604045 156.49426,64.5055864 154.666242,63.4075864 C153.862004,62.92445 153.057356,62.4004045 152.378454,61.7618136 C151.39379,60.8354273 151.407511,59.5656091 152.438255,58.6836091 C153.039334,58.1691773 153.812033,57.7613136 154.575517,57.5487909 C156.453506,57.0259727 158.376755,57.1838818 160.253925,57.5976773 C161.626474,57.9002 162.961546,58.3712682 164.358467,58.7803591 C164.868207,56.4002682 165.389211,53.9674045 165.922707,51.4750182 C164.863906,51.1737227 163.888458,50.8538136 162.89212,50.6241091 C161.800552,50.3727227 160.689528,50.2045864 159.587105,50.0002455 L155.391838,50.0002455 C155.219194,50.0419727 155.048598,50.1019045 154.873496,50.1229727 C151.719212,50.5046545 148.758461,51.4132455 146.264648,53.4603364 C143.398513,55.8132227 142.012856,58.8413136 142.414463,62.5705864 C142.682747,65.0613364 144.097281,66.9351773 146.05043,68.3406091 C147.57412,69.4369727 149.28479,70.2719273 150.894904,71.2514955 C151.925853,71.8788364 153.01353,72.4560636 153.918323,73.2374273 C155.294969,74.42645 155.149973,76.3285182 153.638161,77.3410182 C152.941236,77.8073818 152.103207,78.1698364 151.281151,78.3236545 C148.121747,78.9147909 145.073343,78.3715182 142.121604,77.1835182 C141.503936,76.9347909 140.899375,76.6533364 140.255288,76.3724955 C139.705613,78.9426091 139.171297,81.4425636 138.637596,83.9390409 C138.750439,84.0092 138.814746,84.0625864 138.888268,84.0926545 C139.135048,84.1937 139.381829,84.2972 139.635163,84.38045 C143.413258,85.6199955 147.289247,86.0624273 151.243469,85.6948591 C154.075402,85.4316091 156.793264,84.7210182 159.194919,83.1296545 C163.014179,80.5990182 164.695768,77.0219273 164.128889,72.4810182 L164.128889,72.4810182 Z M177.68584,72.9389955 C179.233491,68.6752455 180.764144,64.4583364 182.294797,60.2412227 C182.330637,60.2481773 182.366681,60.2551318 182.40252,60.2622909 C183.280895,64.4687682 184.159474,68.6752455 185.049932,72.9389955 L177.68584,72.9389955 Z M195.178784,81.4883818 C193.257993,72.3198364 191.346417,63.1492455 189.430131,53.9796773 C189.196867,52.8626545 188.952544,51.7480864 188.71027,50.6166545 C186.223829,50.6166545 183.799236,50.6166545 181.374849,50.6166545 C179.19929,50.6166545 177.934668,51.45845 177.091109,53.4681091 C173.196074,62.7464955 169.300425,72.0246773 165.406823,81.3038818 C164.862268,82.6009045 164.326109,83.9012 163.76005,85.2630636 C166.867026,85.2630636 169.887168,85.2698136 172.90731,85.2436318 C173.066233,85.2424045 173.298677,84.9889727 173.368718,84.8044727 C173.885216,83.44445 174.390041,82.0789045 174.851449,80.69945 C175.005865,80.2379955 175.207386,80.0706773 175.714668,80.0747682 C179.064943,80.1013591 182.416037,80.1119955 185.766312,80.0688364 C186.437637,80.0602455 186.629941,80.2930182 186.73746,80.8939727 C186.996118,82.3415409 187.324203,83.7770409 187.62976,85.2440409 L195.984865,85.2440409 L195.984865,84.9975636 C195.715148,83.8283818 195.424746,82.6628818 195.178784,81.4883818 L195.178784,81.4883818 Z" id="Visa"></path>
                </g>
            </g>
        </g>
    </g>
</svg>