<?xml version="1.0" encoding="UTF-8"?>
<svg width="55px" height="55px" viewBox="0 0 55 55" version="1.1" xmlns="http://www.w3.org/2000/svg" xmlns:xlink="http://www.w3.org/1999/xlink">
    <title>004</title>
    <g id="004" stroke="none" stroke-width="1" fill="none" fill-rule="evenodd">
        <g id="726px-Twisted_Logo_softwaresvg" transform="translate(1.000000, 6.000000)" fill-rule="nonzero">
            <g id="layer101" fill="#000000">
                <path d="M17.9667546,41.4345277 L14.5899736,38.8547231 L15.7013193,38.0234528 C17.4680739,36.6762215 18.6934037,35.8306189 18.8643799,35.8306189 C18.9498681,35.8306189 19.6337731,36.2892508 20.3746702,36.8482085 L21.7282322,37.8514658 L25.8316623,34.7986971 C28.0828496,33.1218241 33.4116095,29.1517915 37.6860158,25.9700326 C41.9604222,22.7882736 45.4654354,20.1654723 45.4939314,20.1368078 C45.5224274,20.1081433 27.5414248,6.7218241 26.8575198,6.26319218 L26.5013193,6.03387622 L17.2116095,12.9420195 C12.0965699,16.7400651 7.93614776,19.8931596 7.95039578,19.9504886 C7.9646438,20.0078176 11.0849604,22.3296417 14.860686,25.12443 L21.7567282,30.2123779 L24.3356201,28.2631922 C25.7604222,27.1882736 28.8237467,24.9094463 31.1319261,23.1752443 C33.4401055,21.4410423 35.3920844,19.9791531 35.4490765,19.9218241 C35.5488127,19.8358306 27.014248,13.3289902 26.7862797,13.3289902 C26.7435356,13.3289902 26.7150396,13.6729642 26.7292876,14.0885993 L26.7292876,14.8338762 L30.0633245,17.2703583 C31.9013193,18.6175896 33.3831135,19.7498371 33.3688654,19.8071661 C33.2976253,20.0364821 21.7994723,28.5355049 21.628496,28.4925081 C21.5145119,28.4638436 18.8643799,26.5576547 15.7298153,24.2358306 C10.3013193,20.2084691 10.0448549,20.0078176 10.2870712,19.7641694 C10.4295515,19.6351792 14.148285,16.8403909 18.5651715,13.5583062 L26.5868074,7.58175896 L31.3598945,11.1361564 C33.9957784,13.0996743 37.6860158,15.8371336 39.5810026,17.2416938 C41.4759894,18.6462541 43.1002639,19.8644951 43.2,19.9648208 C43.3282322,20.0938111 40.9915567,21.8996743 32.6564644,28.0912052 C26.5298153,32.6345277 21.8279683,36.0456026 21.6569921,36.0312704 C21.5002639,36.0312704 18.9356201,34.2254072 15.9577836,32.018241 C12.9799472,29.8110749 8.17836412,26.2423453 5.27176781,24.0925081 C2.37941953,21.942671 0,20.1224756 0,20.0651466 C0,20.0078176 0.199472296,19.8071661 0.427440633,19.6065147 C1.49604222,18.7322476 26.8432718,0 26.971504,0 C27.1282322,0 53.8432718,19.6065147 53.8860347,19.7498371 C53.9145119,19.8358306 21.7424802,43.8710098 21.4575198,43.9714701 C21.4005277,43.9856678 19.8332454,42.8534202 17.9667546,41.4345277 Z" id="Path"></path>
            </g>
            <g id="layer102" transform="translate(18.000000, 20.000000)" fill="#FDFDFD">
                <path d="M5.25090909,2.08333333 L5.25090909,1.31666667 L6.60363636,0.6 C7.65090909,0.05 7.95636364,-0.05 7.98545455,0.133333333 C8.05818182,0.433333333 7.79636364,0.716666667 6.38545455,1.9 L5.25090909,2.85 L5.25090909,2.08333333 Z" id="Path"></path>
                <path d="M1.29454545,1.56666667 C0.116363636,0.55 -0.261818182,0 0.203636364,0 C0.305454545,0 0.930909091,0.3 1.58545455,0.666666667 L2.77818182,1.31666667 L2.77818182,2 C2.77818182,2.36666667 2.73454545,2.66666667 2.67636364,2.66666667 C2.60363636,2.66666667 1.99272727,2.16666667 1.29454545,1.56666667 Z" id="Path"></path>
            </g>
        </g>
    </g>
</svg>