<?xml version="1.0" encoding="UTF-8"?>
<svg width="55px" height="55px" viewBox="0 0 55 55" version="1.1" xmlns="http://www.w3.org/2000/svg" xmlns:xlink="http://www.w3.org/1999/xlink">
    <title>005</title>
    <defs>
        <polygon id="path-1" points="0.00774880073 0.00371633858 52.2980996 0.00371633858 52.2980996 33.7345038 0.00774880073 33.7345038"></polygon>
    </defs>
    <g id="005" stroke="none" stroke-width="1" fill="none" fill-rule="evenodd">
        <g id="Nagare" transform="translate(1.000000, 11.000000)">
            <path d="M13.8844344,11.3673231 C13.8844344,8.51532606 13.8844344,5.66371824 13.8844344,2.81172123 C14.0174338,2.81561314 14.1500443,2.81911587 14.2826548,2.8226186 C14.2826548,6.38683648 14.2826548,9.95105436 14.2826548,13.5152722 C14.1414888,13.5752078 13.9999339,13.6351433 13.8587678,13.6946896 C11.8987765,10.6971349 9.93878522,7.69958019 7.69373962,4.26496315 C7.69373962,7.63614194 7.69373962,10.5449609 7.69373962,13.4533908 C7.52185149,13.4553367 7.34996337,13.4572827 7.17807524,13.4588394 C7.17807524,9.90902165 7.17807524,6.35920386 7.17807524,2.80938608 C7.29163029,2.72220713 7.40518535,2.63502818 7.5187404,2.54784923 C9.49973161,5.53917688 11.4807228,8.53050454 13.461714,11.5218322 C13.6024912,11.4704589 13.7436572,11.4186964 13.8844344,11.3673231" id="Fill-1" fill="#FFFFFE"></path>
            <path d="M27.887461,9.51011182 C27.8866813,7.45940887 26.9875449,6.39028884 25.2959228,6.42802706 C23.6323258,6.46459813 22.410123,7.84496126 22.4260817,9.6688458 C22.4424296,11.5798784 23.6163671,12.8793183 25.3064322,12.8567532 C27.0128453,12.833799 27.8886275,11.6985398 27.887461,9.51011182 Z M22.2976336,15.766098 C26.9929942,16.1543738 27.6593672,15.7758244 27.7453885,13.2053455 C26.3565924,13.2053455 24.8623133,13.5212572 23.6272657,13.0925198 C22.821546,12.8131792 22.084332,11.526578 21.8496223,10.5617244 C21.0516874,7.28394558 23.6872081,5.01887395 26.9081406,6.02107672 C27.4110343,6.17747637 28.00462,6.04286373 28.6468603,6.04286373 C28.6468603,8.23829472 28.6896764,10.4971415 28.6371294,12.7532649 C28.5538328,16.2952113 25.8186675,17.7475494 22.2976336,15.766098 L22.2976336,15.766098 Z" id="Fill-2" fill="#FFFFFE"></path>
            <path d="M45.6368752,8.89566291 C45.5664957,7.09190347 44.6916127,6.23708173 43.203145,6.39575655 C41.9507013,6.52876339 40.9821086,7.25874538 41.183915,8.89566291 C42.6634394,8.89566291 44.0554755,8.89566291 45.6368752,8.89566291 Z M46.4837619,9.72753902 C44.4968054,9.72753902 42.6533296,9.72753902 40.7923562,9.72753902 C41.1788601,12.5393503 41.2317419,12.5712408 45.8235169,12.8835347 C44.2565042,13.9343665 42.3846433,13.8565847 41.1283113,12.6879135 C39.8568146,11.5056305 39.6029041,9.20795675 40.5672197,7.49325744 C41.3985529,6.01579257 42.7112663,5.38109326 44.3078306,5.8205603 C46.0677065,6.30436296 46.5965246,7.71960242 46.4837619,9.72753902 L46.4837619,9.72753902 Z" id="Fill-3" fill="#FFFFFE"></path>
            <path d="M19.9307816,9.61498893 C18.355672,9.67395276 16.6720012,9.41559811 16.2871733,11.3714902 C16.063047,12.5108108 17.0225876,12.8704126 18.053335,12.8242501 C19.6276663,12.7532608 20.1704721,11.8955699 19.9307816,9.61498893 Z M20.8689212,13.1260518 C20.2000444,13.1954894 19.6455653,13.1621283 19.1521762,13.3203996 C17.3490493,13.8980123 16.0467045,13.4771193 15.6190747,12.1065983 C15.1937795,10.742672 15.9976768,9.6006359 17.8175354,9.07694406 C18.4871905,8.88414788 19.1926435,8.81509814 19.8720262,8.69173962 C19.9868131,6.49262181 19.8475124,6.41193448 16.3023485,6.59076554 C16.2836713,6.42279623 16.2649941,6.25443901 16.2459278,6.0864697 C17.2895157,6.02517836 18.4560618,5.65432695 19.3373917,6.00190316 C20.0303932,6.27499876 20.6938225,7.39259594 20.8016055,8.20994313 C21.0245644,9.89933421 20.8689212,11.638379 20.8689212,13.1260518 L20.8689212,13.1260518 Z" id="Fill-4" fill="#FFFFFE"></path>
            <path d="M34.2728741,9.59137555 C32.7105414,9.69611007 30.9928709,9.42784954 30.663508,11.4259817 C30.4742995,12.5729998 31.4596631,12.8977158 32.4812332,12.8334734 C34.0540775,12.7345791 34.5792673,11.8558215 34.2728741,9.59137555 Z M30.6775234,5.93851594 C31.7368574,5.93851594 33.0048658,5.58070545 33.7947917,6.04169306 C34.5453966,6.48009851 35.0600749,7.73457663 35.2064584,8.70171618 C35.4357666,10.2139424 35.267192,11.7861282 35.267192,13.1877798 C34.5999011,13.2516328 33.9886721,13.2189276 33.4338941,13.3808962 C31.9887461,13.802949 30.6358664,13.8165762 30.0557828,12.1863776 C29.4760884,10.5554003 30.4727422,9.63420379 31.9365775,9.17477357 C32.6649912,8.9462265 33.4311688,8.83876655 34.1880028,8.67446185 C34.4722049,6.53889001 33.9808857,6.24454319 30.7433182,6.63350149 C30.721127,6.40183964 30.6997145,6.17017779 30.6775234,5.93851594 L30.6775234,5.93851594 Z" id="Fill-5" fill="#FFFFFE"></path>
            <g id="Group-9">
                <mask id="mask-2" fill="white">
                    <use xlink:href="#path-1"></use>
                </mask>
                <g id="Clip-7"></g>
                <path d="M36.998614,13.4139887 C36.998614,10.9585429 36.998614,8.50270829 36.998614,6.21173654 C37.9376263,6.07564691 38.9015235,5.93644665 39.864643,5.79685757 C36.0938182,7.4431533 38.262684,10.9441563 36.998614,13.4139887" id="Fill-6" fill="#FFFFFE" mask="url(#mask-2)"></path>
                <path d="M46.4766119,9.7333474 C44.4897162,9.7333474 42.6462969,9.7333474 40.7853805,9.7333474 C41.1718726,12.5445704 41.2247528,12.5764542 45.816387,12.8886827 C44.2494223,13.9392947 42.3776189,13.8615292 41.1213253,12.6931025 C39.8498676,11.5110668 39.5959649,9.21387383 40.5602509,7.49953329 C41.3915587,6.02237754 42.7042318,5.38781102 44.3007472,5.82718612 C46.0605691,6.31088756 46.5893711,7.7258309 46.4766119,9.7333474 Z M36.998614,13.4139887 C36.998614,10.9585429 36.998614,8.50270829 36.998614,6.21173654 C37.9376263,6.07564691 38.9015235,5.93644665 39.864643,5.79685757 C36.0938182,7.4431533 38.262684,10.9441563 36.998614,13.4139887 Z M35.2644545,13.1876911 C34.5980085,13.2514588 33.9875533,13.2187973 33.4334777,13.3805495 C31.9901593,13.8020386 30.6389925,13.8156475 30.0596433,12.1876267 C29.4806828,10.5588282 30.4760748,9.63886231 31.9380568,9.18004583 C32.6655483,8.95180408 33.4307559,8.84448768 34.1866317,8.68040247 C34.4704739,6.54768352 33.9797768,6.25372991 30.7463082,6.6421686 C30.7241452,6.41081623 30.7027598,6.17946385 30.6805968,5.94811148 C31.7385895,5.94811148 33.0049925,5.59077899 33.7939184,6.05115077 C34.5439618,6.48897056 35.0575996,7.74177283 35.2037978,8.7076204 C35.4328158,10.2178265 35.2644545,11.787912 35.2644545,13.1876911 Z M28.6450979,12.7545372 C28.5618894,16.294423 25.8296162,17.7459161 22.3123054,15.7656176 C27.0027012,16.1536674 27.6683696,15.7753382 27.7542999,13.2063548 C26.3669723,13.2063548 24.8742732,13.5220828 23.6405315,13.0935948 C22.8356638,12.8144167 22.0992293,11.5285641 21.8647678,10.5642718 C21.0676766,7.28801112 23.7004106,5.02464612 26.9179374,6.02626581 C27.4202992,6.1829633 28.0132573,6.04804015 28.6548186,6.04804015 C28.6548186,8.24219385 28.6975893,10.4997264 28.6450979,12.7545372 Z M20.8615994,13.1402541 C20.1932092,13.2098543 19.6391336,13.1764151 19.1461035,13.3350567 C17.3442885,13.9140209 16.0428913,13.492143 15.6155726,12.1184154 C15.1905869,10.7512978 15.9938993,9.60658962 17.8124338,9.08167247 C18.4816016,8.88842519 19.1865413,8.81921389 19.8654297,8.69556674 C19.9801331,6.49130353 19.8409338,6.4104274 16.2983493,6.58967689 C16.2796857,6.42131457 16.2610221,6.25256343 16.2419697,6.08420111 C17.2847983,6.02276636 18.4504956,5.65104725 19.3311842,5.99943671 C20.0236815,6.27317129 20.6866281,7.39338337 20.7943326,8.21264296 C21.0171293,9.90598682 20.8615994,11.6491006 20.8615994,13.1402541 Z M14.2869576,13.5003084 C14.1458142,13.5601879 14.0042819,13.6200673 13.8631384,13.6795579 C11.9034605,10.6848083 9.94378253,7.69005877 7.69909588,4.2586559 C7.69909588,7.62667989 7.69909588,10.5327768 7.69909588,13.4384848 C7.52723523,13.440429 7.35537459,13.4423731 7.18351394,13.4439284 C7.18351394,9.89743261 7.18351394,6.35093679 7.18351394,2.80444097 C7.29705084,2.71734361 7.41058774,2.63024624 7.52412463,2.54314888 C9.50479912,5.5316772 11.4854736,8.52020553 13.4661481,11.5087339 C13.6069027,11.4574086 13.7480462,11.4056946 13.8888009,11.3539805 C13.8888009,8.50504126 13.8888009,5.65610201 13.8888009,2.80677394 C14.021779,2.81066221 14.1543683,2.81416166 14.2869576,2.81766111 C14.2869576,6.37854354 14.2869576,9.93942598 14.2869576,13.5003084 Z M51.8490067,0.00371633858 C34.3993189,0.00371633858 17.2136433,0.00371633858 -0.0155806985,0.00371633858 C-0.0155806985,33.4794329 -0.0155806985,-0.646403276 -0.0155806985,32.7729333 C0.591763932,32.7729333 1.09684759,32.8048172 1.5964877,32.7686562 C7.40864361,32.3417236 12.9466779,30.7078704 18.3167398,28.5992587 C28.9040554,24.4426925 38.8638074,25.6671104 48.4044062,31.5986742 C49.4359589,32.2398508 50.5196141,32.7982071 52.1826186,33.7345038 C52.4586843,0.35016166 52.1973939,33.5630308 51.8490067,0.00371633858 L51.8490067,0.00371633858 Z" id="Fill-8" fill="#3E6D37" mask="url(#mask-2)"></path>
            </g>
            <path d="M25.3115311,6.44408266 C23.6474336,6.48058911 22.4248631,7.85851332 22.4408266,9.67917531 C22.4571795,11.5868314 23.6314701,12.8839754 25.3220436,12.8614501 C27.02897,12.8385365 27.9050157,11.7052831 27.9038488,9.52072179 C27.9030689,7.47364216 27.003662,6.40641111 25.3115311,6.44408266" id="Fill-10" fill="#3E6D37"></path>
            <path d="M43.2051245,6.38832141 C41.9516802,6.52158076 40.9823135,7.2529486 41.1842811,8.89297376 C42.6649877,8.89297376 44.058136,8.89297376 45.6407992,8.89297376 C45.5703635,7.08578994 44.6947815,6.22934534 43.2051245,6.38832141" id="Fill-11" fill="#3E6D37"></path>
            <path d="M16.2753202,11.3712352 C16.0516069,12.5178868 17.0093797,12.8798024 18.0382282,12.8333429 C19.6096594,12.7618968 20.1514652,11.8986871 19.9122162,9.60343172 C18.3400083,9.66277495 16.6594392,9.40275792 16.2753202,11.3712352" id="Fill-12" fill="#3E6D37"></path>
            <path d="M30.6710713,11.428995 C30.4827252,12.5703594 31.4635973,12.8934748 32.4805109,12.8295491 C34.0461859,12.7311423 34.5689818,11.8567161 34.2639852,9.60343172 C32.7087739,9.70765 30.9989329,9.44071174 30.6710713,11.428995" id="Fill-13" fill="#3E6D37"></path>
        </g>
    </g>
</svg>