<?xml version="1.0" encoding="UTF-8"?>
<svg width="55px" height="55px" viewBox="0 0 55 55" version="1.1" xmlns="http://www.w3.org/2000/svg" xmlns:xlink="http://www.w3.org/1999/xlink">
    <title>006</title>
    <defs>
        <linearGradient x1="50%" y1="0%" x2="50%" y2="100%" id="linearGradient-1">
            <stop stop-color="#3A3C3E" offset="0%"></stop>
            <stop stop-color="#0F0F10" offset="100%"></stop>
        </linearGradient>
        <linearGradient x1="50%" y1="0%" x2="50%" y2="100%" id="linearGradient-2">
            <stop stop-color="#F6D26D" offset="0%"></stop>
            <stop stop-color="#F0A92A" offset="100%"></stop>
        </linearGradient>
    </defs>
    <g id="006" stroke="none" stroke-width="1" fill="none" fill-rule="evenodd">
        <g id="Group-9" transform="translate(1.000000, 1.000000)" fill-rule="nonzero">
            <g id="Group-8">
                <path d="M8.55327137,52.2585643 C4.60560766,50.8439848 1.66130848,47.8667884 0.345420574,43.9684705 C-3.34239316e-13,42.9486574 -3.34239316e-13,42.7512742 -3.34239316e-13,26.319124 C-3.34239316e-13,9.88697384 -3.34239316e-13,9.68959066 0.345420574,8.66977753 C1.66130848,4.73856242 4.73719645,1.66267445 8.66841156,0.346786548 C9.68822468,0.0013659736 9.88560787,0.0013659736 26.5973842,0.0013659736 C45.7600018,0.0013659736 44.2138335,-0.0973256191 46.9443009,1.38304827 C50.0530861,3.07725395 52.2900955,6.03800173 53.0796283,9.45931027 C53.3592545,10.6765066 53.3757031,11.8608057 53.3757031,26.319124 C53.3757031,40.7774424 53.3592545,41.9617415 53.0796283,43.1789378 C52.2900955,46.6002463 50.0530861,49.5609941 46.9443009,51.2551998 C44.2138335,52.7355737 45.7600018,52.6368821 26.564487,52.6368821 L9.62243029,52.6368821 L8.55327137,52.2585643 Z" id="Path-Copy" fill="url(#linearGradient-1)"></path>
                <g id="layer103-copy" transform="translate(15.412337, 13.176694)" fill="#58462F">
                    <path d="M9.91850507,20.7087859 C7.79663582,20.2646737 5.97084136,18.8007484 3.45420574,15.5603745 C2.58243001,14.4583183 1.46392529,13.1424304 0.954018729,12.6654211 L0,11.7607481 L0.0986915927,10.2803742 C0.345420574,6.38205633 2.59887861,2.99364498 6.16822454,1.20074771 C13.2904678,-2.38504682 21.9424308,2.48373842 22.3865429,10.2968228 L22.4687859,11.8265425 L21.9917766,12.1884117 C21.2680382,12.7476641 20.5442999,13.5536454 19.2777578,15.2314025 C16.9091596,18.323739 15.4123371,19.6889727 13.5536454,20.3798139 C12.5667295,20.7581317 10.905421,20.9061691 9.91850507,20.7087859 Z" id="Path"></path>
                </g>
                <g id="layer104-copy" transform="translate(15.412337, 13.160245)" fill="url(#linearGradient-2)">
                    <path d="M9.63887889,20.5607485 C7.76373863,20.1166363 5.98728996,18.6362624 3.40485995,15.3629913 C2.45084122,14.1622436 1.3158879,12.8463557 0.838878538,12.4186921 L0,11.6620565 L0.0986915927,10.3955144 C0.345420574,7.22093487 2.00672905,4.1121497 4.39177588,2.35214963 C6.54654232,0.756635544 8.75065455,0 11.234393,0 C17.0407483,0 21.8601878,4.47401887 22.3536457,10.32972 L22.4687859,11.6785051 L21.6792532,12.3693463 C21.235141,12.7641127 20.0508419,14.1128978 19.0474774,15.3794399 C16.3663558,18.734954 15.0998137,19.8205615 13.158879,20.4291597 C12.1719631,20.7252345 10.5928976,20.7910289 9.63887889,20.5607485 Z" id="Path"></path>
                </g>
                <g id="layer105-copy" transform="translate(11.514019, 24.663797)" fill="#F6D26D">
                    <path d="M0,6.78728999 L0,1.39214959 L0.477009365,0.931588822 C1.03626172,0.388785062 2.00672905,0.207850476 2.84560759,0.503925254 C3.73383192,0.783551433 4.93457964,1.96785055 6.7439255,4.28710297 C10.0007481,8.48149566 12.0897201,9.87962656 15.1327109,9.87962656 C18.1263559,9.87962656 20.2153279,8.49794426 23.3570103,4.46803756 C25.7914029,1.34280379 26.9921506,0.339439266 28.2915899,0.339439266 C28.8672909,0.339439266 29.3607488,0.55327105 29.9035526,1.04672901 C30.2654218,1.37570099 30.2654218,1.39214959 30.2654218,6.78728999 L30.2654218,12.1824304 L15.1327109,12.1824304 L0,12.1824304 L0,6.78728999 Z" id="Path"></path>
                </g>
                <g id="layer106-copy" transform="translate(11.678505, 25.052582)" fill="#FFFFFF">
                    <path d="M0,6.39850493 L0,0.986915927 L0.378317772,0.641495353 C1.66130848,-0.559252359 3.28971976,-3.46944695e-18 5.18130862,2.28635523 C5.72411238,2.94429918 6.49719652,3.91476651 6.89196289,4.44112167 C10.0007481,8.53682277 12.994393,10.1487855 16.31701,9.4908415 C18.6198138,9.04672933 20.8239261,7.35252366 23.1925243,4.22728989 C24.8373842,2.03962625 25.5117767,1.2994393 26.400001,0.707289748 C27.715889,-0.197383185 28.6534591,-0.213831784 29.5745806,0.641495353 C29.9364498,0.986915927 29.9364498,1.00336453 29.9364498,6.39850493 L29.9364498,11.7936453 L14.9682249,11.7936453 L0,11.7936453 L0,6.39850493 Z" id="Path"></path>
                </g>
            </g>
        </g>
    </g>
</svg>