<?xml version="1.0" encoding="UTF-8"?>
<svg width="55px" height="55px" viewBox="0 0 55 55" version="1.1" xmlns="http://www.w3.org/2000/svg" xmlns:xlink="http://www.w3.org/1999/xlink">
    <title>012</title>
    <defs>
        <polygon id="path-1" points="0.0244409127 0.032127337 11.8155727 0.032127337 11.8155727 5.11108288 0.0244409127 5.11108288"></polygon>
        <polygon id="path-3" points="0 -1.74971149e-13 20 -1.74971149e-13 20 11.8520858 0 11.8520858"></polygon>
    </defs>
    <g id="012" stroke="none" stroke-width="1" fill="none" fill-rule="evenodd">
        <rect fill="#FFFFFF" x="0" y="0" width="55" height="55"></rect>
        <g id="Group" transform="translate(0.000000, 22.000000)">
            <path d="M24.1288414,3.35388617 C24.1126949,2.94813181 24.0884751,2.55845057 23.9226065,2.1939432 C23.7372886,1.78613383 23.4191291,1.57193575 23.0077601,1.58558689 C22.5626303,1.60037562 22.2642869,1.82569277 22.1006201,2.23537366 C22.004108,2.47647035 21.9677784,2.73033746 21.9567694,2.98706691 C21.9354853,3.48004909 21.9692462,3.9662791 22.2147465,4.40964748 C22.4246511,4.78784269 22.7468473,4.96754596 23.1850047,4.92699621 C23.6073826,4.88791433 23.8550847,4.63984528 23.9945318,4.25941158 C24.1038877,3.96216908 24.1174654,3.65112867 24.1288414,3.35388617 Z M23.2202335,10.8638463 C23.3805976,10.8708553 23.5380261,10.8503786 23.6954545,10.8261589 C24.5431461,10.6955557 25.1688232,10.1154557 25.3020318,9.33664369 C25.4315709,8.57911568 25.1471722,8.12928871 24.4341571,8.01174948 C23.7794897,7.90378807 23.1185839,7.91116409 22.4591459,7.98213532 C22.2349296,8.00628169 22.0129152,8.04352874 21.8235607,8.18892069 C21.1410039,8.71203079 21.1035733,9.82335076 21.754938,10.3835244 C22.1762151,10.746197 22.6840961,10.8503786 23.2202335,10.8638463 Z M21.4444848,7.93237473 C21.2822858,7.8634585 21.1443065,7.81659694 21.0173363,7.74878161 C20.4705569,7.45678673 20.3850538,6.58637997 20.8602748,6.18587323 C21.1127475,5.97314301 21.366688,5.76202745 21.6187936,5.54900366 C21.6676001,5.50794016 21.7501675,5.46284003 21.6169588,5.41935455 C20.0988203,4.92317976 19.8790076,2.69298032 21.1307288,1.58158696 C21.7296174,1.04999994 22.4488708,0.856205176 23.2294076,0.857701052 C23.928111,0.859030815 24.5901177,0.997707283 25.1567133,1.44081878 C25.2264368,1.49538663 25.3060685,1.49076286 25.3834983,1.494616 C25.7878949,1.51476244 26.1911906,1.4946527 26.5911836,1.43880047 C26.7500799,1.41659902 26.7937488,1.45402956 26.7687951,1.61589828 C26.737603,1.82077543 26.727328,2.02950571 26.7192547,2.23702501 C26.715585,2.33672969 26.6770536,2.35856416 26.586046,2.35162851 C26.3607289,2.3344178 26.132843,2.33790398 25.9093606,2.30836321 C25.7115659,2.28223523 25.6935846,2.35764675 25.7211071,2.52560711 C25.7915645,2.95268219 25.7746841,3.38118844 25.6561541,3.79747472 C25.4132225,4.65037721 24.7967196,5.13668061 23.9985684,5.42159305 C23.5332555,5.58760848 23.0477594,5.64140571 22.5534562,5.59094788 C22.2477734,5.55975576 21.9586042,5.82059523 21.9505309,6.13016778 C21.9442925,6.38410829 22.1097942,6.55940797 22.4121742,6.56667389 C22.8272128,6.57665537 23.2433523,6.56036208 23.6587579,6.55137141 C24.2330597,6.53896796 24.8077286,6.48817986 25.3805626,6.56715095 C26.2539418,6.68751581 26.7497129,7.23965292 26.7831068,8.12385761 C26.846225,9.79171828 25.8594533,11.0569438 24.1754461,11.445304 C23.20372,11.6694468 22.2330948,11.6841255 21.2943957,11.2960222 C20.5824815,11.0016053 20.1270767,10.4889538 20.047812,9.69267415 C20.0228583,9.43847677 20.0580871,9.19242604 20.1479937,8.95485222 C20.210378,8.79059822 20.3156972,8.66230689 20.4679881,8.56660214 C20.7883495,8.36521118 21.1028394,8.15501303 21.4444848,7.93237473 L21.4444848,7.93237473 Z" id="Fill-56" fill="#474745"></path>
            <g id="Group-60" transform="translate(42.495492, 3.376088)">
                <mask id="mask-2" fill="white">
                    <use xlink:href="#path-1"></use>
                </mask>
                <g id="Clip-58"></g>
                <path d="M3.523241,2.57701905 C3.5221401,2.42436118 3.51369988,2.27269411 3.47663631,2.12315545 C3.34673033,1.598394 2.93059084,1.21865754 2.43775544,1.17781422 C1.92436994,1.13531955 1.46639632,1.40749827 1.26199623,1.9053978 C1.06199973,2.3917379 1.06787119,2.88644482 1.31043575,3.35722556 C1.71886895,4.15042267 2.76105252,4.20983447 3.27003443,3.47707667 C3.45792104,3.20640252 3.52801156,2.90218766 3.523241,2.57701905 Z M2.32106023,5.11102968 C1.60254072,5.11576354 1.03961481,4.80439285 0.595952857,4.2559621 C-0.246601182,3.21392532 -0.144951588,1.57751363 0.817600348,0.662300318 C1.73795119,-0.213133879 3.09315679,-0.168364021 3.95809576,0.766078316 C4.89862974,1.78176694 4.86560279,3.48599394 3.88653738,4.46329792 C3.45865497,4.89044639 2.93352656,5.10747011 2.32106023,5.11102968 L2.32106023,5.11102968 Z" id="Fill-57" fill="#474745" mask="url(#mask-2)"></path>
                <path d="M9.01525483,0.638741098 C9.23029693,0.46417535 9.41598175,0.30876523 9.63432655,0.199409349 C10.5539435,-0.261096341 11.6023654,0.270894334 11.7715368,1.28445455 C11.8008941,1.45990102 11.812637,1.63593463 11.812637,1.81354619 C11.8119031,2.81602404 11.8097013,3.81850188 11.8155878,4.82094302 C11.8163067,4.95334437 11.790619,5.00182059 11.6475023,4.99451796 C11.39136,4.98141728 11.1341168,4.98354568 10.8776075,4.99385742 C10.7466006,4.99910504 10.7161424,4.95613331 10.7161424,4.82978691 C10.7179773,3.96793045 10.7128398,3.1061107 10.7073353,2.24429094 C10.7062344,2.05460619 10.6864182,1.86565537 10.6357769,1.68209896 C10.4882565,1.14647532 9.90881715,0.960570319 9.47763205,1.31454577 C9.13818845,1.5930363 9.03507099,1.98297442 9.02736471,2.39573783 C9.01268607,3.19007253 9.01158517,3.98492098 9.02039235,4.77940247 C9.02222718,4.96178459 8.97085194,5.00618748 8.79801093,4.99477484 C8.5605839,4.979032 8.32095507,4.98229799 8.08316107,4.9941143 C7.94628274,5.00090317 7.91032007,4.96262861 7.91139665,4.82409893 C7.91802635,3.88279433 7.91472366,2.94145303 7.91472366,2.00007504 C7.91472366,1.43773627 7.91876029,0.875324107 7.91178793,0.313058733 C7.91032007,0.184657314 7.94628274,0.14535525 8.07508782,0.150125809 C8.33746854,0.159887106 8.60095016,0.158822904 8.86333089,0.150456078 C8.98369575,0.146639632 9.02883257,0.182675697 9.01708966,0.304581817 C9.00754854,0.404543368 9.01525483,0.506192963 9.01525483,0.638741098" id="Fill-59" fill="#474745" mask="url(#mask-2)"></path>
            </g>
            <path d="M32.432916,4.01233334 C32.5716292,3.90434334 32.681352,3.80973139 32.800249,3.72800805 C33.2934514,3.38871125 33.8204146,3.29183221 34.3752673,3.55472669 C34.9418629,3.82330913 35.2046106,4.31082352 35.2170874,4.91235427 C35.2398393,6.02462835 35.2266285,7.13767306 35.2328765,8.2504242 C35.2336009,8.35431228 35.1921337,8.36998173 35.1033279,8.36844048 C34.8405802,8.3638901 34.5774656,8.35922963 34.3147179,8.36998173 C34.1800414,8.37552292 34.1400421,8.34110151 34.141143,8.20044342 C34.1455466,7.44236497 34.141143,6.68421312 34.1345376,5.92613466 C34.1323358,5.67582712 34.1312349,5.42456547 34.0842632,5.17682669 C34.0288514,4.88413458 33.9048168,4.6396251 33.5965654,4.54861752 C33.276571,4.45416046 33.0046491,4.55261745 32.7859374,4.79514531 C32.5110798,5.10020418 32.4453929,5.47946359 32.4409893,5.86991546 C32.4314482,6.64630552 32.4310812,7.42287907 32.4362187,8.19930583 C32.4373196,8.33640434 32.4039257,8.37655043 32.2655795,8.37027531 C32.0031988,8.35838561 31.7397172,8.36242223 31.4769695,8.36902762 C31.3716502,8.37163308 31.3290822,8.35324808 31.3294468,8.23211259 C31.3342197,6.70968056 31.3334858,5.18724853 31.330917,3.6648165 C31.33055,3.56558888 31.3514671,3.52404832 31.460823,3.52683727 C31.741919,3.5340665 32.0233819,3.5339931 32.3044779,3.52687396 C32.4142008,3.52412172 32.4413562,3.56602924 32.4343839,3.66551373 C32.4270446,3.76892477 32.432916,3.87317982 32.432916,4.01233334" id="Fill-61" fill="#464644"></path>
            <path d="M27.0091579,5.09602077 C27.0091579,4.62538682 27.0142954,4.15471617 27.0058552,3.6843024 C27.0032864,3.54720388 27.0553956,3.52309421 27.1757605,3.52658039 C27.4385082,3.53421328 27.7016228,3.53718571 27.9640035,3.52562628 C28.1045515,3.51942455 28.1368445,3.56547879 28.1357436,3.70063238 C28.1306061,4.50120551 28.1346427,5.30181533 28.1361106,6.10242515 C28.1368445,6.33486144 28.1460187,6.567628 28.2131735,6.79184426 C28.3272999,7.1739293 28.6120656,7.37891654 28.9874718,7.35869671 C29.3687495,7.33814661 29.6436071,7.09422428 29.7195691,6.70938699 C29.7757149,6.42528188 29.7647059,6.13721353 29.7661738,5.85042957 C29.7698434,5.14152456 29.7735131,4.43250946 29.763238,3.72375125 C29.7606693,3.55626794 29.8113106,3.51740624 29.968739,3.5253327 C30.2307528,3.53854348 30.4942344,3.53223167 30.7569821,3.52724093 C30.8520263,3.5254061 30.8854202,3.55586428 30.8835854,3.65259653 C30.8652371,4.69074347 30.9257865,5.73035828 30.8193663,6.76689057 C30.7345972,7.59322471 30.2454314,8.2298741 29.5298476,8.41699009 C29.1015983,8.52895143 28.6656426,8.53063947 28.2469343,8.38557779 C27.5085987,8.12991255 27.1853016,7.54405126 27.0792484,6.81606402 C26.9959471,6.24642263 27.0091579,5.67035933 27.0091579,5.09602077" id="Fill-62" fill="#494946"></path>
            <path d="M37.5476888,5.92639154 C37.5862202,4.93848225 37.987681,4.09915751 38.9590402,3.6518259 C39.8856294,3.22511778 40.7905677,3.31818037 41.608168,3.96726991 C41.7622938,4.08961639 41.8841265,4.24326508 42.0011887,4.40087699 C42.0525639,4.47001339 42.0716462,4.51658139 41.976602,4.57118593 C41.727799,4.71404581 41.4815648,4.86211661 41.241202,5.01855424 C41.1472587,5.07969078 41.1109291,5.0221872 41.0621226,4.96842668 C40.701028,4.57070888 40.2415865,4.47507753 39.7395769,4.56975477 C39.134083,4.6839913 38.712806,5.19554196 38.6739076,5.82672356 C38.6588619,6.07251742 38.6753754,6.31497188 38.7619794,6.54880265 C39.10179,7.46555722 40.3645201,7.69076428 41.0474439,6.94923599 C41.144323,6.84410022 41.1949643,6.85022856 41.2944121,6.93074091 C41.4980782,7.09609581 41.7090837,7.25348754 41.9241258,7.4041271 C42.0136655,7.4668416 42.008895,7.50867573 41.9465107,7.58834406 C41.5373436,8.11332568 41.0008392,8.40895353 40.3417682,8.47280562 C39.9689307,8.50891508 39.5968272,8.49309884 39.2335308,8.38612824 C38.3498765,8.12620619 37.6581455,7.26112044 37.5726425,6.30605461 C37.5627344,6.19651524 37.5579638,6.08649882 37.5476888,5.92639154" id="Fill-63" fill="#474745"></path>
            <path d="M48.5412575,4.06062607 C48.6693287,3.87762011 48.7911614,3.69890764 48.9783141,3.57457955 C49.1515221,3.459499 49.3386748,3.40093122 49.5485793,3.4118668 C49.919949,3.43124261 49.9683885,3.49740659 49.854262,3.84235467 C49.7871073,4.04484653 49.7155489,4.24598062 49.6531647,4.44986696 C49.6271101,4.53522326 49.6076609,4.56872726 49.5038095,4.52843439 C49.2120715,4.41493179 49.0282215,4.49342583 48.8773984,4.78714545 C48.719603,5.09484648 48.6997869,5.43440016 48.6953833,5.76907319 C48.6843743,6.57540768 48.6869431,7.38203575 48.6928145,8.18844363 C48.6939154,8.32789073 48.6641912,8.37827517 48.5152029,8.37064227 C48.2531892,8.35728471 47.9897076,8.36326626 47.7273269,8.36880744 C47.6300808,8.37086245 47.5886137,8.35214719 47.5889782,8.24110326 C47.5922833,6.71364379 47.5915494,5.18618433 47.5897146,3.65872486 C47.5897146,3.57098328 47.6043932,3.5242685 47.7082446,3.52713084 C47.9464056,3.53369953 48.1849335,3.53358944 48.4230945,3.52716754 C48.525845,3.52441529 48.5460281,3.568598 48.5427254,3.65788084 C48.5372209,3.79193354 48.5412575,3.9263532 48.5412575,4.06062607" id="Fill-64" fill="#474745"></path>
            <path d="M36.9462314,5.9635652 C36.9462314,6.70909342 36.9421948,7.45458494 36.9495341,8.20003976 C36.951002,8.33849605 36.9150393,8.37603667 36.778161,8.37020191 C36.5095418,8.35878927 36.2401887,8.36253232 35.9715696,8.36899093 C35.8688191,8.3714863 35.837627,8.3411382 35.8379906,8.23669967 C35.8409297,6.71514835 35.8409297,5.19359704 35.8379906,3.67208243 C35.837627,3.56147886 35.8669843,3.52342448 35.9811107,3.52676387 C36.2500968,3.53458025 36.5190829,3.53634169 36.7877021,3.52617673 C36.918709,3.52122269 36.9499011,3.56419441 36.9488002,3.69046743 C36.9432957,4.44810552 36.9462314,5.20585371 36.9462314,5.9635652" id="Fill-65" fill="#464644"></path>
            <path d="M37.0963228,2.34010577 C37.0952196,2.75074078 36.810454,3.08893668 36.4438549,3.11557842 C36.0798246,3.14203667 35.7433167,2.84420703 35.6985469,2.4554065 C35.6460707,2.00433184 35.891938,1.62048536 36.2779862,1.55032145 C36.7058687,1.47256135 37.0974214,1.85057307 37.0963228,2.34010577" id="Fill-66" fill="#484846"></path>
            <path d="M1.42913784,0.163538677 C1.38114669,0.139326925 1.33337172,0.115115173 1.28559674,0.0906872447 C1.40730403,0.0132961086 1.43886578,0.0563152038 1.40795256,0.182562197 L1.42913784,0.163538677" id="Fill-67" fill="#479047"></path>
            <mask id="mask-4" fill="white">
                <use xlink:href="#path-3"></use>
            </mask>
            <g id="Clip-70"></g>
            <path d="M12.5026232,11.3193979 C12.3565707,11.3244988 12.2108851,11.3340032 12.0648327,11.3338931 C11.7947457,11.3336729 11.790709,11.3309941 11.813094,11.0550723 C11.8285065,10.8676627 11.8571299,10.6813908 11.8798818,10.494605 C11.9382294,10.1582073 11.9954761,9.82169941 12.0545576,9.48552182 C12.1617117,8.87566094 12.2226281,8.26565329 12.104465,7.64863658 C12.0420808,7.32211019 12.0387781,7.31040398 11.7136462,7.29183549 C10.7816625,7.23847863 9.84509175,7.30871593 8.91527319,7.1923143 C8.82720134,7.18126863 8.79997246,7.20919474 8.79865138,7.29899133 C8.79608262,7.4733736 8.83571495,7.63825144 8.88943878,7.80052383 C9.13633353,8.5465658 9.38407231,9.29235089 9.63511378,10.0370351 C9.68659912,10.1898397 9.72432323,10.3386445 9.65206761,10.4938711 C9.56403246,10.7278854 9.48388707,10.965239 9.38616402,11.1951065 C9.25156087,11.5115047 9.22000179,11.5252292 8.87468674,11.517266 C8.81366029,11.5158715 8.75263384,11.5151009 8.69157069,11.5139633 C8.6859928,11.5116514 8.6806351,11.508312 8.67483703,11.5071378 C8.22629444,11.4152495 8.22757882,11.4156531 8.36489751,10.9686518 C8.41245631,10.8139022 8.47891386,10.6627489 8.47216169,10.4954124 C8.5487475,10.1233822 8.45381338,9.78309458 8.22027619,9.50122796 C7.77995364,8.96975104 7.48476615,8.38744932 7.426969,7.68874597 C7.40304281,7.39924646 7.25313718,7.31847723 6.96727063,7.40071432 C6.61465296,7.50218043 6.27847537,7.64647148 5.95726999,7.82371608 C5.82732731,7.89542125 5.72109064,7.99479565 5.64244982,8.12338055 C5.38487635,8.54469427 5.52722248,9.15216986 5.9463711,9.42713752 C6.03800252,9.48724656 6.120313,9.561337 6.20900869,9.6261432 C6.3213003,9.70819681 6.33876789,9.80269057 6.27561303,9.92819296 C6.15862426,10.1606659 6.00211324,10.3595248 5.8058231,10.5286228 C5.76508987,10.5283292 5.72435664,10.527999 5.6836601,10.5277054 C5.41830696,10.3235255 5.15163273,10.1214373 4.89879313,9.90100077 C4.64312788,9.6781056 4.48045184,9.41781658 4.45777333,9.06945571 C4.44074611,8.80766214 4.40548067,8.54682267 4.41102186,8.2838915 C4.42173727,7.77784532 4.62199064,7.35095372 4.95772787,6.97929051 C5.35265673,6.54212386 5.81378626,6.17816694 6.257595,5.79512778 C6.33605234,5.72745924 6.37616173,5.65652471 6.38951929,5.55017795 C6.47124263,4.89980403 6.40970242,4.25761345 6.28941095,3.61905583 C6.25135658,3.41707772 6.15036752,3.24130099 5.99213176,3.10471622 C5.78894266,2.92930645 5.59133145,2.9547005 5.46223279,3.18875145 C5.3594823,3.37498672 5.2881441,3.5783593 5.19056783,3.76778717 C5.09504657,3.95317842 4.96260852,4.09985475 4.73193367,4.11508384 C4.44973678,4.13376241 4.19487886,3.9577288 4.13832939,3.6788713 C4.0366798,3.17774247 4.04071642,2.66949449 4.08570646,2.16374189 C4.12952221,1.67053953 4.13143043,1.64360422 3.70567642,1.40757166 C2.9429375,0.984790078 2.1767124,0.568283617 1.41331293,0.146639632 C1.36384591,0.119337358 1.29514987,0.107007299 1.27981069,0.0354122233 L1.27621442,0.0386415245 C1.54927385,0.0469716538 1.79793005,0.150382685 2.04548534,0.24803235 C2.7386475,0.521495447 3.45287352,0.731436721 4.16053084,0.961230858 C4.36269243,1.02688108 4.40316879,0.994881645 4.40159083,0.78516055 C4.40019636,0.601824314 4.38621496,0.418671561 4.38008662,0.235372021 C4.37784813,0.168143842 4.38907729,0.0987872593 4.48059862,0.152034032 C4.94693907,0.423185243 5.46623272,0.406965344 5.97730633,0.427772319 C6.32621765,0.441973905 6.67013823,0.483991517 7.01460925,0.540504288 C7.40370335,0.604319683 7.70659712,0.79671998 7.96061102,1.08732039 C8.25561502,1.42489246 8.49909699,1.79791344 8.7292581,2.18058563 C8.79538538,2.29049196 8.85843015,2.40226982 8.9248143,2.51202936 C9.40987002,3.31362999 9.92167757,3.54037831 10.844744,3.39883951 C11.5147506,3.29612571 12.1745555,3.12974331 12.850507,3.06721229 C13.379305,3.01829572 13.9238826,2.9288294 14.4310297,3.12677088 C15.4614704,3.52922254 16.3399871,4.13038632 16.859978,5.15807473 C17.2137332,5.8565946 17.5183151,6.57504072 17.7832645,7.31040398 C17.9098678,7.66133361 18.048948,8.00554776 18.2133487,8.34025749 C18.3142644,8.54535481 18.2856411,8.58700545 18.0636266,8.5973539 C17.3623545,8.63016066 16.9630954,8.38700896 16.6878709,7.73667173 C16.5194335,7.33788973 16.3741149,6.92905286 16.211549,6.52759201 C16.1381558,6.34686123 16.0541205,6.16954324 15.9212788,6.02139905 C15.8368766,5.92752913 15.7715567,5.92969423 15.7216493,6.05303152 C15.5337627,6.51639954 15.444223,6.97202459 15.7385297,7.43597976 C15.9803604,7.81681712 16.2276955,8.19611322 16.3961329,8.61933516 C16.6640181,9.29264446 16.7931902,9.98943959 16.7719061,10.7139773 C16.75209,10.883112 16.730072,11.0520632 16.7128246,11.2215281 C16.7040174,11.309233 16.6665869,11.3485717 16.5733775,11.3424801 C16.3851239,11.3302234 16.1979712,11.3727915 16.0082498,11.3537826 C15.865133,11.3394343 15.7910059,11.2760225 15.7642174,11.1325755 C15.7337592,10.9689454 15.7535753,10.8041409 15.7330252,10.6410979 C15.7337592,10.4762567 15.7348601,10.3114523 15.735961,10.1466478 C15.7381628,9.72926066 15.6192658,9.36581749 15.2831249,9.09180395 C15.1983557,9.02292442 15.1264304,8.93716445 15.0556059,8.85331271 C14.7044194,8.43823742 14.3565356,8.02037318 14.0049821,7.60595843 C13.963515,7.55729873 13.9209469,7.47663959 13.8490216,7.49627228 C13.7712248,7.51729943 13.7638854,7.60680245 13.7499407,7.67858101 C13.6864556,8.00444686 13.6912262,8.33489978 13.6842538,8.66450868 C13.6813181,8.79536877 13.6651716,8.92142161 13.5726961,9.02329138 C13.1837121,9.45157746 13.0281185,9.98085258 12.9187626,10.5303842 C12.8901393,10.6780147 12.8593141,10.8252781 12.8336265,10.9734223 C12.785554,11.2501514 12.7719762,11.2657475 12.5026232,11.3193979" id="Fill-69" fill="#479047" mask="url(#mask-4)"></path>
            <path d="M19.1920472,11.0121373 C19.2973664,11.0375313 19.4654369,11.0365772 19.4658039,11.1748133 C19.4658039,11.3053431 19.3036049,11.323141 19.1960838,11.3496726 C18.7652657,11.4561662 18.3263743,11.5183302 17.8849141,11.5589534 C17.3465749,11.6084571 16.8078688,11.6560893 16.2691626,11.7012628 C16.0449464,11.7200515 15.8196292,11.7149506 15.5943121,11.7353539 C15.1943191,11.7714634 14.7902895,11.7612617 14.3884617,11.7812981 C13.9007638,11.8056646 13.4130659,11.8255175 12.9246341,11.8172608 C12.8699562,11.8163433 12.8097737,11.8100315 12.8009665,11.8896999 C12.7029866,11.8896999 12.6053736,11.8896999 12.5073937,11.8896999 C12.5059258,11.6995748 12.504091,11.5094863 12.5026232,11.3193979 C12.7719762,11.2657475 12.785554,11.2501514 12.8336265,10.9734223 C12.8593141,10.8252781 12.8901393,10.6780147 12.9187626,10.5303842 C13.1906845,10.5452464 13.4640742,10.5499802 13.7356291,10.5576131 C14.4020394,10.5763284 15.0673488,10.60686 15.7330252,10.6410979 C15.7535753,10.8041409 15.7337592,10.9689454 15.7642174,11.1325755 C15.7910059,11.2760225 15.865133,11.3394343 16.0082498,11.3537826 C16.1979712,11.3727915 16.3851239,11.3302234 16.5733775,11.3424801 C16.6665869,11.3485717 16.7040174,11.309233 16.7128246,11.2215281 C16.730072,11.0520632 16.75209,10.883112 16.7719061,10.7139773 C17.5854698,10.7598114 18.3971987,10.8204342 19.1920472,11.0121373 Z" id="Fill-71" fill="#6C6C69" opacity="0.338099888" mask="url(#mask-4)"></path>
            <path d="M6.7093669,11.8896999 C6.70371562,11.8492969 6.68489026,11.8208203 6.64056076,11.8191323 C6.59182767,11.8172608 6.5428744,11.8148755 6.49417801,11.8169672 C5.89668389,11.8431686 5.30150166,11.7656653 4.70411764,11.7768211 C4.57791802,11.7792064 4.45340644,11.7284183 4.32423439,11.7425465 C4.31909687,11.6523829 4.31406943,11.5624028 4.3057026,11.472276 C4.27884069,11.1838407 4.25796032,10.8932403 4.32427109,10.6058692 C4.7402638,10.6156671 5.15372444,10.5425675 5.5702309,10.5679616 C5.61272557,10.570567 5.6556239,10.5686588 5.6836601,10.5277054 C5.72435664,10.527999 5.76508987,10.5283292 5.8058231,10.5286228 C6.69516531,10.5641451 7.58300296,10.4756329 8.47216169,10.4954124 C8.47891386,10.6627489 8.41245631,10.8139022 8.36489751,10.9686518 C8.22757882,11.4156531 8.22629444,11.4152495 8.67483703,11.5071378 C8.6806351,11.508312 8.6859928,11.5116514 8.69157069,11.5139633 C8.6913872,11.6391721 8.69116702,11.7644543 8.69098354,11.8896999 C8.03044466,11.8896999 7.36990578,11.8896999 6.7093669,11.8896999" id="Fill-72" fill="#6C6C69" opacity="0.338099888" mask="url(#mask-4)"></path>
            <path d="M8.69098354,11.8896999 C8.69116702,11.7644543 8.6913872,11.6391721 8.69157069,11.5139633 C8.75263384,11.5151009 8.81366029,11.5158715 8.87468674,11.517266 C9.22000179,11.5252292 9.25156087,11.5115047 9.38616402,11.1951065 C9.48388707,10.965239 9.56403246,10.7278854 9.65206761,10.4938711 C10.3946968,10.494128 11.1375095,10.4943482 11.8798818,10.494605 C11.8571299,10.6813908 11.8285065,10.8676627 11.813094,11.0550723 C11.790709,11.3309941 11.7947457,11.3336729 12.0648327,11.3338931 C12.2108851,11.3340032 12.3565707,11.3244988 12.5026232,11.3193979 C12.504091,11.5094863 12.5059258,11.6995748 12.5073937,11.8896999 C11.2351224,11.8896999 9.96314473,11.8896999 8.69098354,11.8896999" id="Fill-73" fill="#6C6C69" opacity="0.338099888" mask="url(#mask-4)"></path>
            <path d="M4.32427109,10.6058692 C4.25796032,10.8932403 4.27884069,11.1838407 4.3057026,11.472276 C4.31406943,11.5624028 4.31909687,11.6523829 4.32427109,11.7425465 C3.73451996,11.7347301 3.14781464,11.680676 2.55997174,11.6387685 C1.89983652,11.5916867 1.24373793,11.5225503 0.590942028,11.4148825 C0.427385261,11.3879472 0.271387996,11.3406086 0.116418235,11.2872884 C0.0608962722,11.2681695 -0.00592824462,11.2456378 0.000420267963,11.1657492 C0.00577797222,11.0987779 0.0651163817,11.0787416 0.115317337,11.061274 C0.351386593,10.9792571 0.597363933,10.9388908 0.843011004,10.8996622 C1.50799017,10.7933888 2.18019858,10.7521785 2.84921437,10.6823449 C3.04223851,10.6621984 3.23838186,10.6581985 3.43118582,10.6517032 C3.72934573,10.6417217 4.02552403,10.5949703 4.32427109,10.6058692" id="Fill-75" fill="#6C6C69" opacity="0.338099888" mask="url(#mask-4)"></path>
        </g>
    </g>
</svg>