<?xml version="1.0" encoding="UTF-8"?>
<svg width="55px" height="55px" viewBox="0 0 55 55" version="1.1" xmlns="http://www.w3.org/2000/svg" xmlns:xlink="http://www.w3.org/1999/xlink">
    <title>013</title>
    <defs>
        <linearGradient x1="-32.1797004%" y1="17.8522866%" x2="109.380271%" y2="-17.5286944%" id="linearGradient-1">
            <stop stop-color="#F69923" offset="0%"></stop>
            <stop stop-color="#F79A23" offset="31.2%"></stop>
            <stop stop-color="#E97826" offset="83.8%"></stop>
        </linearGradient>
        <linearGradient x1="-67.0294461%" y1="364.986087%" x2="40.9202199%" y2="-15.8092358%" id="linearGradient-2">
            <stop stop-color="#9E2064" offset="32.3%"></stop>
            <stop stop-color="#C92037" offset="63%"></stop>
            <stop stop-color="#CD2335" offset="75.1%"></stop>
            <stop stop-color="#E97826" offset="100%"></stop>
        </linearGradient>
        <linearGradient x1="-62.1803696%" y1="139.989875%" x2="83.8545175%" y2="-157.572344%" id="linearGradient-3">
            <stop stop-color="#282662" offset="0%"></stop>
            <stop stop-color="#662E8D" offset="9.5%"></stop>
            <stop stop-color="#9F2064" offset="78.8%"></stop>
            <stop stop-color="#CD2032" offset="94.9%"></stop>
        </linearGradient>
        <linearGradient x1="-107138.101%" y1="6389.95883%" x2="-106602.203%" y2="6389.95883%" id="linearGradient-4">
            <stop stop-color="#9E2064" offset="32.3%"></stop>
            <stop stop-color="#C92037" offset="63%"></stop>
            <stop stop-color="#CD2335" offset="75.1%"></stop>
            <stop stop-color="#E97826" offset="100%"></stop>
        </linearGradient>
        <linearGradient x1="-165047.906%" y1="6629.98409%" x2="-164613.704%" y2="6629.98409%" id="linearGradient-5">
            <stop stop-color="#282662" offset="0%"></stop>
            <stop stop-color="#662E8D" offset="9.5%"></stop>
            <stop stop-color="#9F2064" offset="78.8%"></stop>
            <stop stop-color="#CD2032" offset="94.9%"></stop>
        </linearGradient>
        <linearGradient x1="-68814.4896%" y1="7063.88266%" x2="-68470.3622%" y2="7063.88266%" id="linearGradient-6">
            <stop stop-color="#9E2064" offset="32.3%"></stop>
            <stop stop-color="#C92037" offset="63%"></stop>
            <stop stop-color="#CD2335" offset="75.1%"></stop>
            <stop stop-color="#E97826" offset="100%"></stop>
        </linearGradient>
        <linearGradient x1="-93002.0418%" y1="13347.2208%" x2="-92537.428%" y2="13347.2208%" id="linearGradient-7">
            <stop stop-color="#9E2064" offset="32.3%"></stop>
            <stop stop-color="#C92037" offset="63%"></stop>
            <stop stop-color="#CD2335" offset="75.1%"></stop>
            <stop stop-color="#E97826" offset="100%"></stop>
        </linearGradient>
        <linearGradient x1="-564693.55%" y1="75116.55%" x2="-561872.05%" y2="75116.55%" id="linearGradient-8">
            <stop stop-color="#9E2064" offset="32.3%"></stop>
            <stop stop-color="#C92037" offset="63%"></stop>
            <stop stop-color="#CD2335" offset="75.1%"></stop>
            <stop stop-color="#E97826" offset="100%"></stop>
        </linearGradient>
        <linearGradient x1="-564746.2%" y1="75262.85%" x2="-561924.7%" y2="75262.85%" id="linearGradient-9">
            <stop stop-color="#9E2064" offset="32.3%"></stop>
            <stop stop-color="#C92037" offset="63%"></stop>
            <stop stop-color="#CD2335" offset="75.1%"></stop>
            <stop stop-color="#E97826" offset="100%"></stop>
        </linearGradient>
    </defs>
    <g id="013" stroke="none" stroke-width="1" fill="none" fill-rule="evenodd">
        <g id="file_type_apache_icon_130750" transform="translate(13.000000, 0.000000)">
            <path d="M23.5576786,0.26125 C22.03784,1.41132761 20.6887047,2.77104438 19.5505357,4.29982143 L21.1219643,7.26589286 C22.1413241,5.78601114 23.2623615,4.3788073 24.4769643,3.05446429 C24.5633929,2.95821429 24.6105357,2.91303571 24.6105357,2.91303571 L24.4769643,3.05446429 C23.3231522,4.39662159 22.272535,5.82414773 21.3341071,7.32482143 C23.3828241,7.17904994 25.4225538,6.92662438 27.445,6.56857143 C27.9079488,4.91831969 27.6959575,3.15172585 26.8557143,1.65785714 C26.8557143,1.65785714 25.3392857,-0.785714286 23.5576786,0.26125 Z" id="Path" fill="url(#linearGradient-1)" fill-rule="nonzero"></path>
            <polygon id="Path" points="20.8960714 17.1855357 20.9314286 17.1855357 20.7055357 17.2110714 20.6642857 17.22875"></polygon>
            <path d="M19.29125,22.5008929 C19.1616071,22.5303571 19.0319643,22.5519643 18.8983929,22.5716071 C19.0319643,22.5519643 19.1635714,22.5283929 19.29125,22.5008929 Z" id="Path"></path>
            <path d="M8.3875,34.4221429 C8.40517857,34.3769643 8.42089286,34.33375 8.43660714,34.2885714 C8.78232143,33.3719048 9.1247619,32.4833929 9.46392857,31.6230357 C9.845,30.6526786 10.2214881,29.7124405 10.5933929,28.8023214 C10.98625,27.8424405 11.3725595,26.9139881 11.7523214,26.0169643 C12.1517262,25.0767262 12.5445833,24.1705357 12.9308929,23.2983929 C13.2451786,22.588631 13.5555357,21.9017857 13.8619643,21.2378571 C13.9641071,21.0165476 14.0655952,20.7972024 14.1664286,20.5798214 C14.3667857,20.1489881 14.5632143,19.7266667 14.7557143,19.3128571 C14.9364286,18.9317857 15.1158333,18.5585714 15.2939286,18.1932143 C15.3528571,18.0714286 15.4117857,17.9516071 15.4707143,17.8298214 L15.5001786,17.7708929 L15.30375,17.7925 L15.1505357,17.49 C15.1367857,17.5194643 15.1210714,17.5489286 15.1053571,17.5783929 C14.8290476,18.1257738 14.5560119,18.6790476 14.28625,19.2382143 C14.1304167,19.5603571 13.9745833,19.8844643 13.81875,20.2105357 C13.3892262,21.1127976 12.9669048,22.0222619 12.5517857,22.9389286 C12.1366667,23.8555952 11.7280952,24.7866667 11.3260714,25.7321429 C10.9332143,26.6488095 10.5442857,27.5654762 10.1592857,28.4821429 C9.77428571,29.3988095 9.40303571,30.3069643 9.04553571,31.2066071 C8.66708333,32.1494643 8.29910714,33.0831548 7.94160714,34.0076786 C7.86041667,34.2158929 7.77988095,34.4241071 7.7,34.6323214 C7.41321429,35.3774405 7.13428571,36.1133929 6.86321429,36.8401786 L7.10482143,37.3175 L7.32089286,37.2939286 L7.34446429,37.2291071 C7.69672619,36.2639881 8.04440476,35.3283333 8.3875,34.4221429 Z" id="Path"></path>
            <path d="M18.2776786,25.1782143 L17.6589286,25.28625 L17.6589286,25.28625 L17.9751786,25.2371429 C18.0714286,25.2194643 18.1755357,25.1998214 18.2776786,25.1782143 Z" id="Path" fill="#BE202E" fill-rule="nonzero"></path>
            <path d="M18.2776786,25.1782143 L17.6589286,25.28625 L17.6589286,25.28625 L17.9751786,25.2371429 C18.0714286,25.2194643 18.1755357,25.1998214 18.2776786,25.1782143 Z" id="Path" fill="#BE202E" fill-rule="nonzero" opacity="0.349999994"></path>
            <path d="M18.8041071,22.5892857 L18.8041071,22.5892857 L18.9023214,22.5755357 C19.0358929,22.5558929 19.1675,22.5323214 19.2951786,22.5048214 L18.8080357,22.5873214 L18.8041071,22.5892857 Z" id="Path" fill="#BE202E" fill-rule="nonzero"></path>
            <path d="M18.8041071,22.5892857 L18.8041071,22.5892857 L18.9023214,22.5755357 C19.0358929,22.5558929 19.1675,22.5323214 19.2951786,22.5048214 L18.8080357,22.5873214 L18.8041071,22.5892857 Z" id="Path" fill="#BE202E" fill-rule="nonzero" opacity="0.349999994"></path>
            <path d="M16.4882143,14.9285714 C16.9661905,14.0354762 17.4500595,13.1633333 17.9398214,12.3121429 C18.4479167,11.4295238 18.96125,10.5750595 19.4798214,9.74875 L19.5701786,9.60142857 C20.0835119,8.78952381 20.6007738,8.00970238 21.1219643,7.26196429 L19.5505357,4.29589286 L19.1930357,4.73785714 C18.7392857,5.30357143 18.2698214,5.91642857 17.7866071,6.55482143 C17.2425,7.28160714 16.6826786,8.05553571 16.115,8.87071429 C15.5905357,9.62303571 15.0582143,10.4107143 14.5258929,11.2278571 C14.0721429,11.92125 13.6183929,12.63625 13.1666071,13.3689286 L13.1155357,13.4514286 L15.1603571,17.4821429 C15.5977381,16.6230952 16.0403571,15.7719048 16.4882143,14.9285714 Z" id="Path" fill="url(#linearGradient-2)" fill-rule="nonzero"></path>
            <path d="M7.17160714,37.6985714 C6.90053571,38.442381 6.62880952,39.20125 6.35642857,39.9751786 L6.34464286,40.0085714 L6.22875,40.3366071 C6.04607143,40.8591071 5.885,41.31875 5.51964286,42.3971429 C6.20167465,42.8387556 6.73863207,43.4713543 7.06357143,44.2160714 C7.01929859,43.3493632 6.63539505,42.5349796 5.995,41.9492857 C8.62134262,42.3744747 11.2653984,41.2983615 12.8483929,39.16 C12.9693235,38.9621208 13.0775767,38.7567678 13.1725,38.5451786 C12.5117145,39.3623798 11.4548413,39.7496483 10.4225,39.5528571 L10.4225,39.5528571 L10.4225,39.5528571 C12.0909504,38.9369741 13.5055825,37.7809308 14.4414286,36.2685714 C14.6594643,35.9189286 14.8696429,35.5378571 15.0857143,35.1155357 C13.5436128,36.8094651 11.2219556,37.5636863 8.97875,37.0994643 L7.32482143,37.2801786 C7.26785714,37.4196429 7.22267857,37.5591071 7.17160714,37.6985714 Z" id="Path" fill="url(#linearGradient-3)" fill-rule="nonzero"></path>
            <path d="M7.94357143,33.9939286 C8.30107143,33.0694048 8.66904762,32.1357143 9.0475,31.1928571 C9.40892857,30.2892857 9.78017857,29.381131 10.16125,28.4683929 C10.5423214,27.5556548 10.93125,26.6389881 11.3280357,25.7183929 C11.731369,24.7873214 12.1432143,23.8582143 12.5635714,22.9310714 C12.9839286,22.0039286 13.40625,21.0944643 13.8305357,20.2026786 C13.9850595,19.8779167 14.1408929,19.5538095 14.2980357,19.2303571 C14.5691071,18.6725 14.8421429,18.1192262 15.1171429,17.5705357 C15.1308929,17.5410714 15.1466071,17.5116071 15.1623214,17.4821429 L13.1155357,13.4494643 L13.0153571,13.6125 C12.54,14.3982143 12.0646429,15.1839286 11.5991071,16.0010714 C11.1335714,16.8182143 10.6660714,17.6589286 10.2241071,18.5075 C9.84303571,19.2238095 9.47113095,19.9440476 9.10839286,20.6682143 L8.89232143,21.1101786 C8.44642857,22.0275 8.04375,22.9133929 7.68035714,23.7658929 C7.26785714,24.7310119 6.90380952,25.6516071 6.58821429,26.5276786 C6.37803571,27.1032143 6.19535714,27.6591071 6.01464286,28.1914286 C5.87125,28.6471429 5.73571429,29.1028571 5.60607143,29.5664286 C5.29964286,30.637619 5.0377381,31.7055357 4.82035714,32.7701786 L6.875,36.8264286 C7.14738095,36.1009524 7.42630952,35.365 7.71178571,34.6185714 L7.94357143,33.9939286 Z" id="Path" fill="url(#linearGradient-4)" fill-rule="nonzero"></path>
            <path d="M4.78303571,32.9116071 C4.52490094,34.1918103 4.34646276,35.4867992 4.24875,36.7891071 C4.24875,36.8342857 4.24875,36.8794643 4.23892857,36.9246429 C3.58997548,36.106091 2.78974667,35.4198948 1.88178571,34.9033929 C3.0883902,36.4410901 3.88096369,38.2622509 4.18392857,40.1932143 C3.29260553,40.2720916 2.39603018,40.1191663 1.58125,39.7492857 C2.19606125,40.3779394 2.95948076,40.8413958 3.80089286,41.0967857 C2.65056548,41.3164319 1.58291938,41.8485559 0.715,42.6348214 C1.84396301,42.0652276 3.11282497,41.8320461 4.37053571,41.9630357 C2.96607143,45.9426786 1.55767857,50.3367857 0.149285714,55 C0.546223467,54.8870845 0.859872107,54.5822918 0.984107143,54.18875 C1.23553571,53.3441071 2.90125,47.8028571 5.51375,40.5192857 L5.73964286,39.8946429 L5.8025,39.7198214 C6.07880952,38.956369 6.36494048,38.1772024 6.66089286,37.3823214 L6.85732143,36.8382143 L6.85732143,36.8283929 L4.8125,32.7721429 C4.80267857,32.8173214 4.79089286,32.8644643 4.78303571,32.9116071 Z" id="Path" fill="url(#linearGradient-5)" fill-rule="nonzero"></path>
            <path d="M15.4785714,17.8317857 L15.3017857,18.1951786 C15.125,18.5605357 14.9455952,18.93375 14.7635714,19.3148214 C14.5671429,19.7273214 14.3707143,20.1496429 14.1742857,20.5817857 C14.0721429,20.7998214 13.9778571,21.0178571 13.8698214,21.2398214 C13.5633929,21.9050595 13.2530357,22.5919048 12.93875,23.3003571 C12.5458929,24.1725 12.1530357,25.0786905 11.7601786,26.0189286 C11.3791071,26.9159524 10.9927976,27.8444048 10.60125,28.8042857 C10.2293452,29.7209524 9.85285714,30.6611905 9.47178571,31.625 C9.13261905,32.4905952 8.79017857,33.3791071 8.44446429,34.2905357 C8.42678571,34.3357143 8.41107143,34.3789286 8.39535714,34.4241071 C8.0522619,35.3316071 7.70589286,36.2626786 7.35625,37.2173214 L7.33267857,37.2821429 L8.98660714,37.1014286 L8.88839286,37.08375 C11.3103645,36.5910132 13.5161376,35.349321 15.19375,33.5342857 C16.0293385,32.6249803 16.7546008,31.6201624 17.3544643,30.5407143 C17.8758486,29.6097689 18.3389994,28.6473862 18.74125,27.6591071 C19.1242857,26.7319643 19.4916071,25.7301786 19.8451786,24.6419643 C19.3562849,24.8913518 18.8354711,25.072447 18.2973214,25.1801786 C18.1971429,25.2017857 18.1008929,25.2214286 17.9908929,25.2391071 C17.8808929,25.2567857 17.7807143,25.2744643 17.6746429,25.2882143 L17.6746429,25.2882143 C19.3964909,24.5805691 20.7776133,23.2339394 21.5285714,21.5305357 C20.8553955,21.9894969 20.1027084,22.3192138 19.3089286,22.5028571 C19.1792857,22.5323214 19.0496429,22.5539286 18.9160714,22.5735714 L18.8178571,22.5873214 L18.8178571,22.5873214 C19.4037904,22.3508327 19.9575156,22.041301 20.4658929,21.6660714 C20.5660714,21.5914286 20.6623214,21.5128571 20.7566071,21.4303571 C20.9,21.3066071 21.0355357,21.1769643 21.1651786,21.0375 C21.2476786,20.9510714 21.3282143,20.8607143 21.4067857,20.7664286 C21.5950217,20.5414783 21.7676281,20.3038984 21.9233929,20.0553571 C21.9725,19.9767857 22.0216071,19.8982143 22.06875,19.8157143 C22.1296429,19.6978571 22.1885714,19.5819643 22.2455357,19.4660714 C22.5028571,18.9475 22.7091071,18.4839286 22.8721429,18.0792857 C22.9546429,17.8828571 23.0253571,17.6864286 23.08625,17.5135714 C23.1117857,17.4448214 23.1353571,17.3760714 23.1569643,17.3171429 C23.2217857,17.1207143 23.2748214,16.9498214 23.3160714,16.7966071 C23.3663867,16.6188777 23.4070415,16.4385542 23.4378571,16.2564286 L23.4378571,16.2564286 C23.3697848,16.3101626 23.2982623,16.3593753 23.22375,16.40375 C22.5083747,16.7826867 21.7382939,17.0477748 20.94125,17.1894643 L22.4596429,17.0225 L20.94125,17.1894643 L20.9058929,17.1894643 L20.6721429,17.2267857 L20.7133929,17.2091071 L15.5178571,17.77875 L15.4785714,17.8317857 Z" id="Path" fill="url(#linearGradient-6)" fill-rule="nonzero"></path>
            <path d="M21.3282143,7.32678571 C20.8666071,8.03589286 20.3617857,8.84125 19.8196429,9.75464286 L19.7332143,9.9 C19.2644048,10.6857143 18.7674405,11.5545833 18.2423214,12.5066071 C17.7892262,13.326369 17.3184524,14.2083333 16.83,15.1525 C16.4030952,15.9761905 15.9630952,16.8509524 15.51,17.7767857 L20.7055357,17.2071429 C21.8524974,16.7544924 22.8419128,15.9760704 23.5517857,14.9678571 C23.7266071,14.7164286 23.9014286,14.4532143 24.07625,14.1821429 C24.6105357,13.3492857 25.1330357,12.4319643 25.6005357,11.5205357 C26.0280997,10.6932675 26.4135911,9.84492409 26.7555357,8.97875 C26.9328644,8.52903635 27.0856487,8.07002764 27.2132143,7.60375 C27.3075,7.24232143 27.3821429,6.90053571 27.4391071,6.57446429 C25.4165641,6.93101762 23.3768444,7.18213065 21.3282143,7.32678571 L21.3282143,7.32678571 Z" id="Path" fill="url(#linearGradient-7)" fill-rule="nonzero"></path>
            <path d="M17.97125,25.2371429 C17.8671429,25.2548214 17.7610714,25.2725 17.655,25.28625 L17.655,25.28625 C17.7610714,25.2725 17.875,25.2548214 17.97125,25.2371429 Z" id="Path" fill="#BE202E" fill-rule="nonzero"></path>
            <path d="M17.97125,25.2371429 C17.8671429,25.2548214 17.7610714,25.2725 17.655,25.28625 L17.655,25.28625 C17.7610714,25.2725 17.875,25.2548214 17.97125,25.2371429 Z" id="Path" fill="#BE202E" fill-rule="nonzero" opacity="0.349999994"></path>
            <path d="M17.97125,25.2371429 C17.8671429,25.2548214 17.7610714,25.2725 17.655,25.28625 L17.655,25.28625 C17.7610714,25.2725 17.875,25.2548214 17.97125,25.2371429 Z" id="Path" fill="url(#linearGradient-8)" fill-rule="nonzero"></path>
            <path d="M18.7982143,22.5892857 L18.8964286,22.5755357 L18.7982143,22.5892857 Z" id="Path" fill="#BE202E" fill-rule="nonzero"></path>
            <path d="M18.7982143,22.5892857 L18.8964286,22.5755357 L18.7982143,22.5892857 Z" id="Path" fill="#BE202E" fill-rule="nonzero" opacity="0.349999994"></path>
            <path d="M18.7982143,22.5892857 L18.8964286,22.5755357 L18.7982143,22.5892857 Z" id="Path" fill="url(#linearGradient-9)" fill-rule="nonzero"></path>
        </g>
    </g>
</svg>