<?xml version="1.0" encoding="UTF-8"?>
<svg width="55px" height="55px" viewBox="0 0 55 55" version="1.1" xmlns="http://www.w3.org/2000/svg" xmlns:xlink="http://www.w3.org/1999/xlink">
    <title>016</title>
    <g id="016" stroke="none" stroke-width="1" fill="none" fill-rule="evenodd">
        <g id="Group-11" transform="translate(15.000000, 1.000000)" fill-rule="nonzero">
            <path d="M13.7452436,53.819998 L12.3427839,53.3330677 C12.3427839,53.3330677 12.5140597,46.0701616 9.94788835,45.5489617 C8.23772534,43.5330778 10.2222262,-39.9417623 16.3799994,45.270662 C16.3799994,45.270662 14.2587003,46.3477081 13.8824125,48.1899842 C13.4716472,49.9972375 13.7452436,53.819998 13.7452436,53.819998 L13.7452436,53.819998 Z" id="Path" fill="#FFFFFF"></path>
            <path d="M13.7452436,53.819998 L12.3427839,53.3330677 C12.3427839,53.3330677 12.5140597,46.0701616 9.94788835,45.5489617 C8.23772534,43.5330778 10.2222262,-39.9417623 16.3799994,45.270662 C16.3799994,45.270662 14.2587003,46.3477081 13.8824125,48.1899842 C13.4716472,49.9972375 13.7452436,53.819998 13.7452436,53.819998 L13.7452436,53.819998 Z" id="Path" fill="#A6A385"></path>
            <path d="M14.0118273,46.7999983 C14.0118273,46.7999983 27.1853486,38.5199752 24.102514,21.2942577 C21.1306185,8.77043768 14.1219711,4.66578161 13.3513619,3.08695076 C12.5075885,1.96431953 11.6999996,0 11.6999996,0 L12.2507188,34.8361633 C12.2507188,34.8715187 11.1130959,45.50135 14.0122249,46.7999983" id="Path" fill="#FFFFFF"></path>
            <path d="M14.0118273,46.7999983 C14.0118273,46.7999983 27.1853486,38.5199752 24.102514,21.2942577 C21.1306185,8.77043768 14.1219711,4.66578161 13.3513619,3.08695076 C12.5075885,1.96431953 11.6999996,0 11.6999996,0 L12.2507188,34.8361633 C12.2507188,34.8715187 11.1130959,45.50135 14.0122249,46.7999983" id="Path" fill="#499D4A"></path>
            <path d="M11.403796,46.7999983 C11.403796,46.7999983 -0.686938715,38.8324517 0.0307299752,24.8031883 C0.712243093,10.7735494 9.25078992,3.87997932 10.9011169,2.63295037 C11.9776199,1.52443847 12.0133867,1.10851189 12.0853091,0 C12.8387446,1.55897389 12.6952886,23.3136606 12.802589,25.8767893 C13.1252678,35.7494148 12.2287651,44.9298302 11.403796,46.7999983 Z" id="Path" fill="#FFFFFF"></path>
            <path d="M11.403796,46.7999983 C11.403796,46.7999983 -0.686938715,38.8324517 0.0307299752,24.8031883 C0.712243093,10.7735494 9.25078992,3.87997932 10.9011169,2.63295037 C11.9776199,1.52443847 12.0133867,1.10851189 12.0853091,0 C12.8387446,1.55897389 12.6952886,23.3136606 12.802589,25.8767893 C13.1252678,35.7494148 12.2287651,44.9298302 11.403796,46.7999983 Z" id="Path" fill="#58AA50"></path>
        </g>
    </g>
</svg>