<?xml version="1.0" encoding="UTF-8"?>
<svg width="55px" height="55px" viewBox="0 0 55 55" version="1.1" xmlns="http://www.w3.org/2000/svg" xmlns:xlink="http://www.w3.org/1999/xlink">
    <title>018</title>
    <g id="018" stroke="none" stroke-width="1" fill="none" fill-rule="evenodd">
        <g id="postgresql" transform="translate(2.000000, 1.000000)" fill-rule="nonzero">
            <path d="M51.862386,32.3471711 C51.5498402,31.3937059 50.7311129,30.7296232 49.672326,30.5702679 C49.1730672,30.4952049 48.6013223,30.527199 47.9247167,30.6676859 C46.745391,30.9127689 45.8704665,31.006085 45.2319366,31.024133 C47.6421021,26.9254014 49.6018759,22.2513913 50.7300948,17.851587 C52.5544661,10.7372062 51.5795677,7.49616265 50.4403537,6.03017649 C47.425458,2.14986618 43.0268092,0.065327381 37.7202506,0.00154426747 C34.8894209,-0.0333211 32.4043259,0.52965204 31.1079228,0.934500484 C29.9009057,0.719975928 28.6030773,0.600203136 27.2413144,0.578053374 C24.6886199,0.537035294 22.4332002,1.09754735 20.5060044,2.24954011 C19.4390729,1.88611993 17.7266887,1.37380411 15.7492006,1.04689002 C11.0982754,0.277801032 7.34976254,0.877075173 4.60791166,2.82810012 C1.28780024,5.19033131 -0.251309422,9.29460034 0.0333413673,15.0268769 C0.123745481,16.8468491 1.13447976,22.3842898 2.72591793,27.6358345 C3.64054693,30.654355 4.61585257,33.1609698 5.62475432,35.0867687 C7.05554194,37.8175473 8.5865071,39.4256611 10.3052033,40.0031957 C11.2684958,40.3264181 13.018752,40.5528379 14.8596159,39.0085072 C15.0929563,39.2931727 15.4042804,39.5759924 15.8174109,39.8387132 C16.3421212,40.1719851 16.9837054,40.4443451 17.6244751,40.6057513 C19.9336486,41.1871825 22.0966281,41.0417734 23.9419715,40.2267442 C23.9533738,40.5573499 23.9621292,40.8731891 23.9694592,41.1459594 C23.981676,41.5883394 23.9938928,42.0221055 24.0099782,42.4277743 C24.1193183,45.1706533 24.304606,47.3033884 24.8535463,48.7956261 C24.883681,48.8776622 24.9242,49.0027674 24.9669587,49.1354609 C25.240818,49.9800231 25.6987433,51.3939163 26.8638162,52.5011994 C28.0702224,53.64827 29.5295158,54 30.8660307,54 C31.5363242,54 32.1758723,53.9114009 32.7368257,53.7903976 C34.7363041,53.3586823 37.0071984,52.7011625 38.649947,50.345084 C40.2031059,48.1178023 40.9581025,44.7631387 41.0947267,39.4773439 C41.112441,39.327833 41.12873,39.1850901 41.1444082,39.0491151 L41.1769863,38.769782 L41.5428786,38.8021863 L41.6371514,38.8085441 C43.6736873,38.9020653 46.1638726,38.4670686 47.6932089,37.7515082 C48.9016513,37.1866892 52.7741644,35.1273766 51.862386,32.3471711" id="Path" fill="#000000"></path>
            <path d="M48.6535309,33.3260525 C42.6606248,34.5721752 42.2485369,32.5269902 42.2485369,32.5269902 C48.5759496,23.0631599 51.2211708,11.0502113 48.9386675,8.11009279 C42.7112038,0.0900181392 31.9314286,3.88302495 31.7514802,3.98133358 L31.6936469,3.99189566 C30.5095744,3.74409293 29.1846464,3.59662999 27.6952863,3.57205283 C24.9837683,3.52736709 22.9267547,4.2886496 21.3658585,5.48175884 C21.3658585,5.48175884 2.13576331,-2.5035828 3.03026601,15.5246757 C3.22049141,19.3599308 8.48393149,44.5446105 14.7617727,36.9376758 C17.0563666,34.1559885 19.2735807,31.8040968 19.2735807,31.8040968 C20.3746311,32.5414115 21.6929092,32.9175842 23.0748645,32.7825114 L23.1822693,32.6907025 C23.1488186,33.0360014 23.1641334,33.373785 23.2251909,33.7737223 C21.607872,35.5950724 22.083234,35.9147786 18.8502082,36.585674 C15.5786941,37.2653035 17.5004945,38.4750684 18.755297,38.7915246 C20.2764957,39.1748064 23.7956656,39.7179413 26.1734831,36.3626516 L26.0787734,36.7455271 C26.7123207,37.2571788 27.1572547,40.0731929 27.082696,42.6261704 C27.0081373,45.1789449 26.9583644,46.9316414 27.4575045,48.30065 C27.9570477,49.6696586 28.4545758,52.7499278 32.7048238,51.8320421 C36.2560338,51.0648692 38.0964243,49.0769632 38.3525434,45.7608751 C38.5341039,43.4034992 38.9453857,43.752048 38.971179,41.6443029 L39.3010508,40.6465922 C39.6813001,37.4509525 39.3615038,36.4199306 41.5492974,36.8994898 L42.0812837,36.9466129 C43.6913482,37.0203444 45.7991424,36.6854045 47.036212,36.1059117 C49.6997706,34.859992 51.2796087,32.7794646 48.6531279,33.3260525 L48.6535309,33.3260525" id="Path" fill="#336791"></path>
            <path d="M21.5225456,16.3709398 C20.9648772,16.3014397 20.4598543,16.3657226 20.2043256,16.5390071 C20.0607468,16.6364563 20.0162165,16.7493707 20.0041476,16.8270692 C19.9721025,17.0329609 20.1331605,17.260653 20.232209,17.3780392 C20.5122918,17.7104473 20.9213874,17.9388846 21.3263213,17.989193 C21.3850013,17.9966461 21.4434732,18 21.501529,18 C22.1767657,18 22.7908252,17.5291507 22.8449274,17.1816502 C22.9125551,16.7463894 22.206938,16.4562777 21.5225456,16.3711261 M39.9971861,16.384728 C39.9439163,16.0435626 39.2659745,15.9462997 38.622575,16.0264205 C37.9800077,16.1065412 37.3570005,16.3662816 37.4090218,16.7081923 C37.4506389,16.9740815 37.9868745,17.427975 38.6215345,17.427975 C38.6752205,17.427975 38.7293227,17.4248074 38.783841,17.4179133 C39.2075026,17.365369 39.5183819,17.1244477 39.6661225,16.9856338 C39.8908545,16.7739659 40.0211159,16.5380754 39.9971861,16.384728" id="Shape" fill="#FFFFFF"></path>
            <path d="M49.946681,33.2102606 C49.7157436,32.509216 48.9724265,32.2837123 47.7375018,32.5396784 C44.0708101,33.299399 42.7576844,32.7731555 42.3265605,32.4544246 C45.1766216,28.0956403 47.5212271,22.8266633 48.7860881,17.9107642 C49.385222,15.5821267 49.7161509,13.4194991 49.7432361,11.6567674 C49.7731725,9.72209691 49.444891,8.30038087 48.7679633,7.43189515 C46.0386658,3.93076096 42.0328994,2.05272191 37.184028,2.00120157 C33.8505053,1.96358354 31.0340462,2.82000697 30.4880645,3.06084411 C29.338265,2.77380222 28.0848083,2.59756994 26.7201595,2.57508091 C24.2177265,2.53439619 22.0545719,3.13587572 20.2636867,4.36193713 C19.4857494,4.07121521 17.4753311,3.37834842 15.0166825,2.98070136 C10.7661305,2.2937635 7.3884161,2.81428248 4.97803217,4.52856045 C2.10190407,6.57424505 0.774115693,10.2309625 1.03132378,15.3968988 C1.1178744,17.1348924 2.10434785,22.4815588 3.66103717,27.6019037 C5.71014862,34.3412548 7.93765617,38.1564177 10.2812434,38.9412851 C10.5555579,39.0330813 10.8718241,39.0972772 11.220674,39.0972772 C12.0755905,39.0972772 13.1237695,38.7104658 14.2143073,37.3942438 C15.5444506,35.7923195 16.9203984,34.2292933 18.3404301,32.7071196 C19.261736,33.2035139 20.2738692,33.4807424 21.3090146,33.5085471 C21.3110511,33.5357383 21.3136985,33.5629296 21.3161423,33.5899165 C21.137955,33.8032316 20.9634698,34.019636 20.7927656,34.2390319 C20.0755155,35.153109 19.9262411,35.343448 17.6174778,35.8206245 C16.9607113,35.9567854 15.2164617,36.3176322 15.190802,37.5451248 C15.1631058,38.8862892 17.2527433,39.4495373 17.4908084,39.5092355 C18.3204725,39.7177702 19.119793,39.8206064 19.8820494,39.8206064 C21.7358619,39.8206064 23.3672902,39.2089046 24.6710481,38.0253679 C24.6309293,42.8065372 24.8294866,47.5177861 25.4013317,48.9532 C25.8697233,50.1283544 27.0138207,53 30.6277674,53 C31.1580682,53 31.7417248,52.9380529 32.3838286,52.7998476 C36.155603,51.9881978 37.793548,50.3146045 38.4270986,46.6249713 C38.7661734,44.6530916 39.3479972,39.9445006 39.6217008,37.4187773 C40.199248,37.5997118 40.9427688,37.6825124 41.7465695,37.6823079 C43.4230042,37.6823079 45.3574615,37.3247322 46.5705958,36.7594396 C47.9334117,36.1240221 50.3926713,34.5649185 49.946681,33.2102606 L49.946681,33.2102606 Z M40.9645592,16.1431259 C40.9521366,16.8887397 40.8499051,17.5656597 40.7415641,18.2722244 C40.6248735,19.0321494 40.5043135,19.8178346 40.4739699,20.7715742 C40.4440336,21.6997581 40.5595023,22.6647422 40.6711017,23.5980373 C40.8967442,25.4830275 41.1282926,27.4236269 40.2320355,29.3384662 C40.083156,29.0736349 39.9505372,28.799917 39.8349208,28.5188431 C39.7235251,28.2477479 39.4815906,27.8122784 39.1465888,27.2095722 C37.8434419,24.8633523 34.7917688,19.3690761 36.3539566,17.1271235 C36.8192935,16.4598124 38.0002513,15.7736924 40.9645592,16.1431259 L40.9645592,16.1431259 Z M37.3713846,3.51103374 C41.7160222,3.60732771 45.1527947,5.23900958 47.5859873,8.36048794 C49.4522224,10.7547526 47.3972051,21.6490555 41.4480208,31.0476331 C41.3881923,30.9712602 41.3280476,30.8951375 41.2675882,30.8192671 L41.1922382,30.7248132 C42.729581,28.1759875 42.4289957,25.6541486 42.1614016,23.4183294 C42.0514314,22.5007767 41.9475706,21.634131 41.9740449,20.8200279 C42.0013338,19.9572666 42.1149697,19.2171728 42.2249399,18.5016126 C42.3599589,17.6198379 42.4974216,16.7073963 42.459543,15.631807 C42.4878502,15.5189529 42.4992545,15.3856542 42.4843881,15.2274132 C42.3876551,14.1959842 41.2146396,11.1090572 38.8238059,8.31510097 C37.5159751,6.78686867 35.6088067,5.07667962 33.004753,3.92319646 C34.1248199,3.69012826 35.6564604,3.47280238 37.3713846,3.51103374 Z M13.0602311,36.4308952 C11.8587049,37.8812337 11.0290408,37.6031874 10.7561517,37.5120046 C8.97830013,36.9166584 6.91534058,33.1442247 5.09655561,27.1621408 C3.52275982,21.9859822 2.60308309,16.7809968 2.53017692,15.3214583 C2.30046138,10.7054812 3.41502975,7.48852663 5.8431311,5.75973301 C9.79472706,2.94655891 16.2915223,4.63037446 18.9020927,5.48434453 C18.8646214,5.52155366 18.8255209,5.55630945 18.7884568,5.59413192 C14.5045065,9.93737833 14.6061271,17.3579428 14.6167168,17.811608 C14.6163095,17.9866136 14.6309722,18.2344019 14.6509298,18.5752131 C14.7246505,19.8233546 14.8619096,22.1462677 14.4953423,24.7768717 C14.154842,27.2214301 14.9054904,29.6140592 16.5544325,31.3414217 C16.7236608,31.5183571 16.9015288,31.6867548 17.0873807,31.8459939 C16.3534314,32.6351546 14.7582525,34.3803039 13.0602311,36.4308952 Z M17.6380463,30.2989526 C16.309036,28.9066767 15.7054218,26.9701662 15.9817729,24.9854064 C16.3687051,22.2065792 16.2259474,19.7863499 16.149172,18.4860747 C16.1383786,18.3041179 16.1288071,18.1446502 16.1233086,18.0189161 C16.7491205,17.4618013 19.6492791,15.9018799 21.7175335,16.3776252 C22.6612408,16.5945422 23.2363442,17.2397731 23.4754276,18.3495049 C24.712796,24.095045 23.639161,26.4897186 22.7765059,28.4141668 C22.5987207,28.8105872 22.4307107,29.1853363 22.2873421,29.5729656 L22.17615,29.8726831 C21.8947078,30.6303592 21.6328158,31.3348794 21.4705079,32.003826 C20.0575944,31.9997371 18.6831705,31.3937598 17.6380463,30.2987481 L17.6380463,30.2989526 Z M17.854932,38.0474481 C17.4423401,37.9439985 17.0712925,37.7642907 16.8535922,37.6152497 C17.0354503,37.5293825 17.3590478,37.4124395 17.9203032,37.2963143 C20.6363635,36.7351106 21.0558795,36.3388946 21.9718906,35.1713047 C22.1818522,34.9034807 22.4199173,34.6000831 22.7496243,34.2304452 L22.7500316,34.2300363 C23.2410282,33.6780326 23.4656525,33.7716688 23.8729495,33.9413588 C24.2030638,34.0783375 24.5246248,34.4937713 24.6549599,34.9509121 C24.7166654,35.1668069 24.7859059,35.5765162 24.5592451,35.8954517 C22.6457635,38.5851405 19.8574079,38.5505892 17.854932,38.0474481 L17.854932,38.0474481 Z M32.0693953,51.3266112 C28.746666,52.0413537 27.5701885,50.3393425 26.7948985,48.3936319 C26.2945341,47.1375169 26.0485267,41.4731418 26.2230535,35.2177139 C26.2252936,35.1345044 26.213482,35.0541572 26.1906734,34.9785123 C26.1702706,34.8291382 26.1392366,34.6814229 26.0978096,34.5365005 C25.8383614,33.6263078 25.2060328,32.8649517 24.447442,32.5492874 C24.1460422,32.4239621 23.5929328,32.1939606 22.928224,32.3646729 C23.0699634,31.7783223 23.3157672,31.1161224 23.5823431,30.399131 L23.6941461,30.0975735 C23.8200009,29.7575801 23.9780322,29.40532 24.145024,29.0324109 C25.0477979,27.0190287 26.284148,24.2612594 24.9423079,18.0311828 C24.4397034,15.6976385 22.7612322,14.5580577 20.2168476,14.822815 C18.6915201,14.9812605 17.2959168,15.5990957 16.5998461,15.9534002 C16.4501645,16.029454 16.3133127,16.1030545 16.1854214,16.1746106 C16.3797021,13.823484 17.1136514,9.42953498 19.8592408,6.6494811 C21.5880131,4.89942512 23.8902596,4.03502831 26.6953144,4.08164195 C32.2223354,4.17241588 35.7666343,7.01993688 37.7668701,9.39293919 C39.4905512,11.4376016 40.4238724,13.4973929 40.7963455,14.6083513 C37.9951601,14.3223317 36.0900281,14.877402 35.1243268,16.2635445 C33.023285,19.278711 36.2737191,25.1307674 37.8359069,27.9433281 C38.1224404,28.458736 38.3696697,28.9042234 38.4474634,29.0935402 C38.9561775,30.331255 39.6147768,31.1576249 40.0955909,31.76074 C40.2430325,31.945559 40.3859937,32.1248579 40.4947421,32.2814634 C39.6463423,32.5270028 38.1224404,33.0943399 38.2613287,35.9302075 C38.149322,37.3531502 37.3528526,44.0152208 36.948203,46.3690052 C36.4140329,49.4786257 35.2742121,50.6368111 32.0693953,51.3268156 L32.0693953,51.3266112 Z M45.9386744,35.3929239 C45.0711317,35.7971133 43.6193214,36.1003064 42.2402136,36.1655246 C40.7169226,36.2370806 39.941429,35.994199 39.7589599,35.8447491 C39.6734276,34.0775197 40.3285649,33.8929051 41.0219881,33.697455 C41.13094,33.6667881 41.2372446,33.6367346 41.3398834,33.6007521 C41.4036254,33.6528858 41.4734769,33.7046106 41.5500487,33.7553131 C42.7743836,34.566554 44.9581068,34.6540568 48.0411418,34.0151637 L48.0749474,34.008417 C47.6590971,34.398704 46.9475492,34.9224942 45.9386744,35.3929239 Z" id="Shape" fill="#FFFFFF"></path>
        </g>
    </g>
</svg>