<?xml version="1.0" encoding="UTF-8"?>
<svg width="55px" height="55px" viewBox="0 0 55 55" version="1.1" xmlns="http://www.w3.org/2000/svg" xmlns:xlink="http://www.w3.org/1999/xlink">
    <title>Artboard Copy 5</title>
    <g id="Artboard-Copy-5" stroke="none" stroke-width="1" fill="none" fill-rule="evenodd">
        <g id="react" transform="translate(-0.000000, 3.000000)" fill-rule="nonzero">
            <path d="M0.00807291691,24.7467889 C0.00807291691,28.9167109 4.07990464,32.8092892 10.4991757,35.0035167 C9.21727458,41.4568589 10.269575,46.6584649 13.783898,48.6851577 C17.3960943,50.7684911 22.7776048,49.3264338 27.8854609,44.8613729 C32.8644107,49.1460952 37.8963119,50.8322932 41.4075967,48.799741 C45.0165378,46.7105483 46.1139771,41.1562946 44.7967027,34.5013465 C51.4829008,32.290843 55.2229183,28.9716154 55.2229183,24.7467889 C55.2229183,20.6736551 51.1437081,17.1500005 44.8108086,14.9698789 C46.2289944,8.0399742 45.0273885,2.96467023 41.3674491,0.854210095 C37.8390202,-1.18051219 32.7485253,0.592925365 27.6964418,4.98962688 C22.4403653,0.322960079 17.4002175,-1.10173614 13.7441844,1.01458336 C10.2190107,3.05516502 9.21315132,8.35138914 10.4991757,14.924089 C4.2964845,17.0866325 0.00807291691,20.6901482 0.00807291691,24.7467889 Z" id="Path" fill="#FFFFFF"></path>
            <path d="M43.4696628,17.1348095 C42.9477375,16.955779 42.4213841,16.7899278 41.8911037,16.6374137 C41.9790432,16.2800798 42.060365,15.9211498 42.1350273,15.5608078 C43.3299058,9.76046036 42.5486558,5.08771717 39.880687,3.54952268 C37.3227442,2.07426221 33.1391503,3.6124567 28.9138898,7.28932313 C28.4975449,7.65246184 28.0904416,8.02606196 27.6929696,8.40976588 C27.4267934,8.15462551 27.1559135,7.90443791 26.8804696,7.65933183 C22.452301,3.72747407 18.0137158,2.07078999 15.3485682,3.61354177 C12.7930125,5.0929255 12.0360681,9.48593778 13.1118059,14.9828998 C13.2188344,15.5272594 13.3396778,16.0688115 13.4742192,16.6070317 C12.8461809,16.7854172 12.2396271,16.9755213 11.6593319,17.1777783 C6.46792554,18.9876742 3.15238725,21.8244798 3.15238725,24.7667542 C3.15238725,27.8058168 6.71141513,30.853994 12.1189674,32.7020843 C12.55744,32.8512446 12.9995623,32.989453 13.4449223,33.1165808 C13.3002395,33.696429 13.1717895,34.2802072 13.0597226,34.8672319 C12.0341149,40.2687078 12.8351132,44.5575534 15.3839414,46.0278226 C18.016537,47.5458348 22.4349399,45.9855048 26.7374574,42.224654 C27.0775182,41.927345 27.418881,41.6120238 27.7606779,41.2815116 C28.1911948,41.6968891 28.6332068,42.1001853 29.0861988,42.4909301 C33.2537336,46.0770847 37.3696192,47.5252184 39.9162772,46.051043 C42.5464856,44.5284735 43.4010864,39.9210515 42.2912773,34.3153656 C42.2066419,33.8871972 42.1079006,33.4499142 41.9972235,33.0046017 C42.3075533,32.9130218 42.6120238,32.8184038 42.9091159,32.7198794 C48.5306438,30.8574662 52.187979,27.8463984 52.187979,24.7667542 C52.187979,21.8138461 48.7656699,18.9579433 43.4696628,17.1348095 Z" id="Path" fill="#53C1DE"></path>
            <path d="M42.2502617,30.7315981 C41.9822495,30.8203568 41.7070759,30.9060773 41.4266939,30.9891936 C40.8060342,29.0245668 39.9683606,26.9353741 38.943621,24.7771709 C39.9217026,22.669966 40.7268241,20.6076829 41.3301228,18.6556429 C41.8316419,18.8010422 42.3186211,18.954037 42.7878051,19.1157124 C47.3255656,20.6775614 50.0933609,22.9872403 50.0933609,24.7667542 C50.0933609,26.6623706 47.1039945,29.1233082 42.2504787,30.7315981 L42.2502617,30.7315981 Z M40.2363727,34.7222667 C40.7270411,37.2009994 40.7971366,39.4421019 40.4720498,41.194055 C40.1799491,42.7682738 39.5927095,43.817753 38.866581,44.238109 C37.3212251,45.1326402 34.0163205,43.9698798 30.4525183,40.9030394 C30.0438811,40.5514769 29.6322057,40.1760429 29.2194453,39.7789074 C30.6011728,38.2676227 31.9820322,36.5106782 33.3296885,34.5597233 C35.7003483,34.3494368 37.9399317,34.0054698 39.9709647,33.5360687 C40.0707911,33.9397146 40.1597668,34.3353309 40.2363727,34.7222667 L40.2363727,34.7222667 Z M19.8696186,44.0835951 C18.359853,44.6167982 17.157379,44.6319892 16.4305994,44.2129353 C14.8837244,43.3210082 14.2409292,39.8769977 15.1178824,35.257857 C15.2221663,34.7119716 15.3415698,34.1690835 15.4759553,33.6298187 C17.4844189,34.0740462 19.7077263,34.3937076 22.0840284,34.586416 C23.4405823,36.4954872 24.8613723,38.2502616 26.29323,39.7869369 C25.9889221,40.0813084 25.6774127,40.368143 25.3589851,40.64718 C23.4564243,42.3103745 21.5499572,43.4900621 19.8698357,44.0835951 L19.8696186,44.0835951 Z M12.7964848,30.7198794 C10.4054257,29.9026051 8.43081622,28.8405391 7.07730056,27.6816849 C5.86115469,26.6400182 5.24700536,25.6059469 5.24700536,24.7667542 C5.24700536,22.9813809 7.90911482,20.7038201 12.3490021,19.1558599 C12.9062719,18.9624175 13.4690853,18.7853307 14.0367192,18.6248269 C14.6504345,20.6207037 15.455339,22.7075094 16.4266932,24.8177525 C15.4427522,26.9594626 14.6263459,29.0794714 14.0069883,31.0987856 C13.6004434,30.9824211 13.1968203,30.8560809 12.7964848,30.7198794 L12.7964848,30.7198794 Z M15.1675786,14.580556 C14.2459206,9.87070342 14.8578997,6.31796894 16.3980474,5.42647586 C18.0386724,4.47682305 21.6660597,5.83098976 25.4894105,9.22573812 C25.7337681,9.44275202 25.9792108,9.66996557 26.2250876,9.90499161 C24.8006084,11.4347226 23.3928392,13.1762591 22.0480041,15.0742626 C19.7417975,15.2880213 17.5341151,15.6313373 15.5046012,16.0911897 C15.3795845,15.5904843 15.267208,15.0867074 15.1675786,14.580339 L15.1675786,14.580556 Z M36.3192719,19.8034294 C35.839905,18.9753977 35.3427555,18.157789 34.8281694,17.3511724 C36.3928396,17.548655 37.8917546,17.8112419 39.2993067,18.1326394 C38.8767807,19.4870232 38.3500879,20.9032558 37.7298622,22.3550788 C37.2766975,21.4952241 36.806407,20.6445047 36.3192719,19.8034294 L36.3192719,19.8034294 Z M27.6936206,11.4019535 C28.6597665,12.4486115 29.6274314,13.6174483 30.5792544,14.8854605 C28.6484841,14.7942236 26.7144924,14.7937891 24.7836813,14.8841584 C25.7363723,13.627865 26.7122838,12.4607643 27.6936206,11.4019535 L27.6936206,11.4019535 Z M19.0126308,19.8177523 C18.5315948,20.6521386 18.0700976,21.497638 17.6285162,22.3535597 C17.0184901,20.9067281 16.4965717,19.484202 16.0703564,18.110504 C17.469445,17.797353 18.9614155,17.5414936 20.515886,17.3472661 C19.995533,18.1588817 19.4943098,18.9826042 19.0126308,19.8177523 L19.0126308,19.8177523 Z M20.5605909,32.3357649 C18.9546881,32.1565114 17.4401481,31.9136728 16.0414935,31.6092023 C16.4744363,30.2111988 17.0078564,28.7580738 17.6309033,27.2802091 C18.0743463,28.1367653 18.5378714,28.9827747 19.0210943,29.8175356 C19.5141741,30.6690608 20.0274854,31.5087091 20.5605909,32.3357649 L20.5605909,32.3357649 Z M27.7515633,38.2795584 C26.7587248,37.2081608 25.7684904,36.023265 24.8012594,34.7487424 C25.7400615,34.7856347 26.6973098,34.8042979 27.6701831,34.8042979 C28.6697491,34.8042979 29.6578134,34.7819455 30.6302526,34.7385427 C29.6753915,36.0362858 28.7111988,37.2229178 27.7515633,38.2795584 Z M37.7498275,27.2049053 C38.4052095,28.698829 38.9577269,30.1441415 39.396529,31.5184905 C37.9746539,31.8429263 36.4397146,32.104211 34.8223101,32.2982214 C35.3406155,31.4765448 35.8425233,30.6446383 36.3277355,29.8029957 C36.8209832,28.9476236 37.2951313,28.081379 37.7498275,27.2049053 L37.7498275,27.2049053 Z M34.5130653,28.7565547 C33.7702701,30.0469098 32.985712,31.3127697 32.1606346,32.5521277 C30.7057735,32.6560774 29.2023012,32.7096798 27.6701831,32.7096798 C26.1443584,32.7096798 24.6599834,32.6621538 23.2305128,32.5694888 C22.3840363,31.3330165 21.5846366,30.0649657 20.8340284,28.7680564 C20.0869286,27.478028 19.3890878,26.1600934 18.7420144,24.8171014 C19.387442,23.4737071 20.083174,22.1550665 20.827735,20.8639763 L20.827735,20.8644103 C21.5720624,19.5730452 22.3651688,18.3104163 23.2053392,17.079254 C24.6636726,16.9690109 26.1588983,16.9112852 27.6704001,16.9112852 C29.1886293,16.9112852 30.6858082,16.969445 32.1437076,17.0805561 C32.9753799,18.3098239 33.7634136,19.5680577 34.5063378,20.8529086 C35.2534591,22.1411264 35.9584761,23.4533076 36.6202702,24.7873705 C35.9652837,26.1350254 35.262509,27.4589259 34.5132823,28.7565547 L34.5130653,28.7565547 Z M38.834463,5.36419287 C40.4763901,6.31124151 41.115062,10.130035 40.0833779,15.1380647 C40.0157565,15.4643076 39.9422492,15.7893027 39.8628918,16.1128911 C37.8286036,15.64349 35.6194021,15.2940977 33.306468,15.0770838 C31.9590287,13.1584639 30.5629783,11.4138892 29.1615026,9.90390655 C29.5287472,9.54985877 29.9047313,9.20498963 30.2891068,8.86961832 C33.9093326,5.71901059 37.2927963,4.47508694 38.834463,5.36419287 L38.834463,5.36419287 Z" id="Shape" fill="#FFFFFF"></path>
            <path d="M27.6701831,20.3880648 C30.088586,20.3880648 32.0488725,22.3485684 32.0488725,24.7667542 C32.0488725,27.1851571 30.088586,29.1456606 27.6701831,29.1456606 C25.2519973,29.1456606 23.2914937,27.1851571 23.2914937,24.7667542 C23.2914937,22.3485684 25.2519973,20.3880648 27.6701831,20.3880648" id="Path" fill="#53C1DE"></path>
        </g>
    </g>
</svg>