<?xml version="1.0" encoding="UTF-8"?>
<svg width="55px" height="55px" viewBox="0 0 55 55" version="1.1" xmlns="http://www.w3.org/2000/svg" xmlns:xlink="http://www.w3.org/1999/xlink">
    <title>Artboard Copy 2</title>
    <g id="Artboard-Copy-2" stroke="none" stroke-width="1" fill="none" fill-rule="evenodd">
        <g id="machine-learning" transform="translate(0.000000, 1.000000)" fill-rule="nonzero">
            <path d="M52.1399977,29.6377701 C50.9163321,29.6395145 49.8662856,30.5099374 49.6376549,31.7120557 L46.3107836,31.7120557 L43.1423124,28.4695702 C43.0534343,28.3788959 42.9317383,28.327906 42.8047695,28.3281416 L40.2128553,28.3281416 L41.1679696,24.3836989 C41.1971982,24.2625418 41.2184124,24.1409132 41.2452839,24.0197561 L47.7000836,24.0197561 C47.9434772,25.3125869 49.1310507,26.2076029 50.440903,26.0853775 C51.7507553,25.963152 52.7522361,24.86387 52.7522361,23.5483275 C52.7522361,22.232785 51.7507553,21.1335031 50.440903,21.0112776 C49.1310507,20.8890521 47.9434772,21.7840681 47.7000836,23.076899 L41.4300839,23.076899 C41.7964464,20.902426 41.7627366,18.6793358 41.3306124,16.5169707 L42.438941,15.3812993 L45.7653408,15.3812993 C46.0087187,16.6728082 47.1952183,17.5667717 48.5037636,17.4445531 C49.8123088,17.3223346 50.8127376,16.2241113 50.8127376,14.9098708 C50.8127376,13.5956303 49.8123088,12.497407 48.5037636,12.3751884 C47.1952183,12.2529698 46.0087187,13.1469333 45.7653408,14.4384422 L42.2399981,14.4384422 C42.1130293,14.4382066 41.9913333,14.4891966 41.9024553,14.5798708 L41.0774553,15.4251422 C38.7292615,6.58615263 30.189595,0.85983555 21.1208857,2.04316226 C12.0521764,3.22648896 5.2678124,10.9523557 5.26632834,20.097942 L5.26632834,22.1250847 L2.00687134,32.0953271 C1.76731336,32.8282573 1.8934568,33.6315953 2.34612236,34.2558297 C2.79878792,34.8800641 3.52315598,35.2495976 4.29424267,35.2496556 L5.61707118,35.2496556 C5.89112548,35.2499155 6.11322555,35.4720155 6.11348544,35.7460698 L6.11348544,41.3089267 C6.11556338,43.1715582 7.62486837,44.6810741 9.48749958,44.6834123 L15.8989279,44.6834123 C17.2408651,44.6852301 18.3282671,45.7726321 18.3300849,47.1145693 L18.3300849,51.590312 C18.3311243,52.3846923 18.9749756,53.0283328 19.7693563,53.0291119 L37.4974269,53.0291119 C37.9199744,53.0291119 38.3211491,52.8433112 38.5945662,52.5211474 C38.8679833,52.1989837 38.9860181,51.7729458 38.9173697,51.356012 L38.1659126,46.8001265 C37.5132282,42.8691363 37.6621994,38.8467551 38.6038697,34.9748127 L39.9856268,29.2705273 L42.6062981,29.2705273 L45.7733551,32.51537 C45.8622332,32.6060442 45.9839292,32.6570341 46.1108979,32.6567985 L49.6362406,32.6567985 C49.8852294,33.9780822 51.1188023,34.8779224 52.4530035,34.7115103 C53.7872047,34.5450981 54.7619521,33.3698186 54.6787597,32.0278555 C54.5955672,30.6858924 53.4831226,29.6400045 52.1385834,29.6396558 L52.1399977,29.6377701 Z" id="Path" fill="#E6E7E8"></path>
            <path d="M16.9153278,49.7055406 L16.9153278,45.2302694 C16.9153278,43.6271394 15.6158722,42.3274727 14.0127422,42.3272124 L7.60131395,42.3272124 C5.99818394,42.3269521 4.69872834,41.0272854 4.69872836,39.4241554 L4.69872836,33.8612985 C4.69872836,33.3267737 4.26541037,32.8934557 3.73088555,32.8934557 L2.40852846,32.8934557 C1.7882626,32.8942011 1.20532091,32.5972254 0.841275289,32.0950291 C0.477229668,31.5928328 0.376312551,30.9464341 0.569957117,30.3571701 L3.85345697,20.3157419 L3.85345697,18.2122278 C3.85345697,8.41737926 11.7937505,0.477085693 21.588599,0.477085693 L21.588599,0.477085693 C27.0267484,0.477085693 32.1642076,2.97238541 35.5266691,7.24641408 C38.8891306,11.5204428 40.1048574,17.1008653 38.8249697,22.3862561 L36.259927,32.9792557 C35.3076502,36.9132303 35.1563065,40.9985476 35.8148984,44.992198 L36.5663555,49.5480835 C36.6125998,49.8284064 36.5332766,50.114886 36.3494356,50.3315007 C36.1655945,50.5481154 35.8958244,50.672912 35.6117127,50.672912 L17.8831706,50.672912 C17.3488299,50.672912 16.9155881,50.2398813 16.9153278,49.7055406 Z" id="Path" fill="#6DC9F7"></path>
            <path d="M21.5876562,1.89137134 L21.5876562,1.89137134 C31.0836343,1.89227904 38.8958393,9.36893323 39.3133697,18.8557277 C39.4868936,14.0435685 37.6967025,9.36762138 34.3539035,5.90168992 C31.0111044,2.43575847 26.4029429,0.477669176 21.5876562,0.477085693 L21.5876562,0.477085693 C11.7928077,0.477085693 3.85251411,8.41737926 3.85251411,18.2122278 L3.85251411,19.6265134 C3.85251411,9.83166491 11.7928077,1.89137134 21.5876562,1.89137134 Z" id="Path" fill="#FFFFFF"></path>
            <path d="M33.0386557,22.8878561 L33.0386557,20.4364277 C33.0386557,20.059162 32.7328214,19.7533277 32.3555557,19.7533277 L30.7055558,19.7533277 C30.4620338,18.5564305 29.9896562,17.4178258 29.3143701,16.4000564 L30.4830415,15.2318565 C30.7494331,14.9651539 30.7494331,14.5330733 30.4830415,14.2663708 L28.7491273,12.5324566 C28.6211668,12.4042917 28.4474925,12.3322722 28.2663845,12.3322722 C28.0852764,12.3322722 27.9116021,12.4042917 27.7836416,12.5324566 L26.6149702,13.7006565 C25.5973095,13.0254891 24.4588826,12.5531188 23.2621704,12.3094709 L23.2621704,10.659471 C23.2624318,10.2830168 22.9578803,9.97741082 22.5814276,9.97637098 L20.1299991,9.97637098 C19.7529938,9.97637098 19.4473706,10.2819942 19.4473706,10.6589995 L19.4473706,12.3089994 C18.2505116,12.5526464 17.1119301,13.0250144 16.0940993,13.7001851 L14.9258993,12.5319852 C14.6591427,12.2652794 14.2266988,12.2652794 13.9599422,12.5319852 L12.2264995,14.2658994 C12.0983345,14.3938598 12.026315,14.5675342 12.026315,14.7486422 C12.026315,14.9297502 12.0983345,15.1034246 12.2264995,15.231385 L13.3946994,16.399585 C12.7196021,17.4174549 12.2472401,18.5560216 12.0035137,19.7528563 L10.3535138,19.7528563 C10.1718164,19.7521032 9.99731609,19.8238198 9.86865864,19.9521233 C9.74000119,20.0804268 9.66780418,20.2547288 9.66805605,20.4364277 L9.66805605,22.8878561 C9.66805605,23.2648615 9.97367992,23.5704847 10.3506853,23.5704847 L12.0006852,23.5704847 C12.2444116,24.7673193 12.7167735,25.905886 13.3918708,26.9237559 L12.2236709,28.0919559 C12.095506,28.2199163 12.0234865,28.3935907 12.0234865,28.5746987 C12.0234865,28.7558068 12.095506,28.9294811 12.2236709,29.0574416 L13.9571137,30.7913558 C14.2238703,31.0580615 14.6563142,31.0580615 14.9230708,30.7913558 L16.0912707,29.6231558 C17.1091016,30.2983265 18.247683,30.7706946 19.444542,31.0143415 L19.444542,32.6643414 C19.444542,33.0413467 19.7501652,33.3469701 20.1271705,33.3469701 L22.578599,33.3469701 C22.759725,33.3469701 22.9334754,33.2752307 23.061595,33.1471994 C23.1897147,33.0191682 23.261699,32.8454675 23.261699,32.6643414 L23.261699,31.0143415 C24.4584112,30.7706936 25.5968381,30.2983233 26.6144988,29.6231558 L27.7831702,30.7913558 C27.9111306,30.9195207 28.084805,30.9915402 28.265913,30.9915402 C28.4470211,30.9915402 28.6206954,30.9195207 28.7486559,30.7913558 L30.4825701,29.0574416 C30.7489617,28.790739 30.7489617,28.3586584 30.4825701,28.0919559 L29.3138987,26.9237559 C29.9894158,25.9061097 30.4618128,24.7674585 30.7050843,23.5704847 L32.3550843,23.5704847 C32.5362537,23.5706097 32.7100525,23.4987604 32.838247,23.3707427 C32.9664415,23.242725 33.0386557,23.0690255 33.0386557,22.8878561 L33.0386557,22.8878561 Z M21.3557133,27.2480993 C19.0959568,27.2490523 17.0581892,25.8885164 16.1928011,23.8010289 C15.327413,21.7135415 15.8048685,19.3102956 17.402488,17.7121365 C19.0001076,16.1139775 21.4031922,15.6357106 23.4909717,16.5003938 C25.5787512,17.3650771 26.939975,19.4023852 26.9397845,21.6621419 C26.9395245,24.7463367 24.4399079,27.2467974 21.3557133,27.2480993 L21.3557133,27.2480993 Z" id="Shape" fill="#FA759E"></path>
            <path d="M48.317655,19.5878563 C47.1720587,19.5878563 46.2433694,20.5165456 46.2433694,21.6621419 C46.2433694,22.8077382 47.1720587,23.7364275 48.317655,23.7364275 C49.4632513,23.7364275 50.3919406,22.8077382 50.3919406,21.6621419 C50.3919406,20.5165456 49.4632513,19.5878563 48.317655,19.5878563 Z" id="Path" fill="#FA759E"></path>
            <path d="M50.2542835,28.2234845 C49.1089942,28.2234845 48.1804327,29.151696 48.1799992,30.2969853 C48.179566,31.4422745 49.1074248,32.3711877 50.2527138,32.3720557 C51.3980028,32.3729225 52.3272676,31.4454158 52.3285704,30.3001272 C52.3291947,29.7495842 52.1109307,29.2213758 51.7218589,28.8318618 C51.3327871,28.4423478 50.8048269,28.2234845 50.2542835,28.2234845 L50.2542835,28.2234845 Z" id="Path" fill="#FFD7E5"></path>
            <path d="M46.3819694,10.947041 C45.2366808,10.9483438 44.3091741,11.8776086 44.3100409,13.0228976 C44.3109089,14.1681866 45.2398221,15.0960455 46.3851113,15.0956123 C47.5304006,15.0951788 48.4586121,14.1666173 48.4586121,13.021328 C48.4586121,12.4707846 48.2397488,11.9428244 47.8502348,11.5537526 C47.4607208,11.1646807 46.9325124,10.9464168 46.3819694,10.947041 L46.3819694,10.947041 Z" id="Path" fill="#0089EF"></path>
            <path d="M28.6911416,50.2014835 L24.5468132,50.2014835 C24.2864504,50.2014835 24.0753846,50.4125492 24.0753846,50.672912 C24.0753846,50.9332748 24.2864504,51.1443406 24.5468132,51.1443406 L28.6911416,51.1443406 C28.9515044,51.1443406 29.1625701,50.9332748 29.1625701,50.672912 C29.1625701,50.4125492 28.9515044,50.2014835 28.6911416,50.2014835 Z" id="Path" fill="#3A2C60"></path>
            <path d="M21.3557133,15.6038131 C18.9053676,15.6028602 16.6957597,17.0781539 15.7573482,19.3416864 C14.8189367,21.6052188 15.3365528,24.2111606 17.0688044,25.9442214 C18.8010561,27.6772821 21.4067558,28.1961152 23.6707262,27.2587609 C25.9346967,26.3214065 27.4110222,24.1124878 27.4112131,21.6621419 C27.4075788,18.31883 24.6990231,15.6090091 21.3557133,15.6038131 L21.3557133,15.6038131 Z M21.3557133,26.7766708 C19.2866319,26.7776237 17.4207642,25.5319477 16.6283443,23.6206211 C15.8359244,21.7092944 16.2730465,19.5088183 17.7358384,18.0454869 C19.1986302,16.5821555 21.398945,16.144222 23.3105637,16.9359371 C25.2221825,17.7276521 26.4685464,19.5930603 26.468356,21.6621419 C26.4647223,24.4845755 24.1781454,26.7719958 21.3557133,26.7766708 L21.3557133,26.7766708 Z" id="Shape" fill="#3A2C60"></path>
            <path d="M50.2542835,27.7520559 C49.0306179,27.7538003 47.9805714,28.6242232 47.7519407,29.8263415 L44.4250694,29.8263415 L41.2561267,26.583856 C41.167363,26.4932988 41.0458606,26.4423187 40.9190553,26.4424274 L38.3271411,26.4424274 L39.2822554,22.4979847 C39.311484,22.3768276 39.3326982,22.255199 39.3595697,22.1340419 L45.8143694,22.1340419 C46.057763,23.4268727 47.2453365,24.3218887 48.5551888,24.1996633 C49.8650411,24.0774378 50.8665219,22.9781558 50.8665219,21.6626133 C50.8665219,20.3470708 49.8650411,19.2477889 48.5551888,19.1255634 C47.2453365,19.0033379 46.057763,19.8983539 45.8143694,21.1911848 L39.5443697,21.1911848 C39.9103548,19.0166663 39.8764858,16.7936165 39.4444268,14.6312565 L40.5527553,13.4955851 L43.8796266,13.4955851 C44.1230045,14.787094 45.3095041,15.6810575 46.6180494,15.5588389 C47.9265946,15.4366204 48.9270234,14.3383971 48.9270234,13.0241566 C48.9270234,11.7099161 47.9265946,10.6116928 46.6180494,10.4894742 C45.3095041,10.3672556 44.1230045,11.2612191 43.8796266,12.552728 L40.3542839,12.552728 C40.2273151,12.5524924 40.1056191,12.6034824 40.0167411,12.6941566 L39.1917411,13.539428 C36.8435473,4.70043843 28.3038808,-1.02587865 19.2351715,0.157448055 C10.1664622,1.34077476 3.38209819,9.06664149 3.38061413,18.2122278 L3.38061413,20.2393705 L0.121157137,30.2096129 C-0.118400843,30.9425431 0.00774260216,31.7458811 0.460408158,32.3701155 C0.913073714,32.9943499 1.63744178,33.3638834 2.40852846,33.3639414 L3.73135698,33.3639414 C4.00541128,33.3642013 4.22751135,33.5863013 4.22777124,33.8603556 L4.22777124,39.4232125 C4.2298497,41.2860278 5.73944149,42.7956196 7.6022568,42.7976981 L14.0136851,42.7976981 C15.3556224,42.7995159 16.4430243,43.8869179 16.4448421,45.2288551 L16.4448421,49.7045978 C16.4458815,50.4989781 17.0897328,51.1426186 17.8841135,51.1433977 L22.4852561,51.1433977 C22.7456189,51.1433977 22.9566847,50.932332 22.9566847,50.6719692 C22.9566847,50.4116064 22.7456189,50.2005406 22.4852561,50.2005406 L17.8841135,50.2005406 C17.6102429,50.2002813 17.3882188,49.978468 17.3876992,49.7045978 L17.3876992,45.2288551 C17.3853616,43.3664077 15.8761325,41.8571786 14.0136851,41.854841 L7.6022568,41.854841 C6.25995165,41.8532823 5.17218705,40.7655177 5.17062834,39.4232125 L5.17062834,33.8603556 C5.16958949,33.0658987 4.5258139,32.4221231 3.73135698,32.4210843 L2.40852846,32.4210843 C1.9395021,32.4210485 1.4988972,32.1962586 1.22357865,31.816541 C0.948260096,31.4368235 0.871574552,30.9481697 1.01734281,30.5023701 L4.30084266,20.4609419 C4.31607669,20.4135588 4.32386932,20.3640995 4.32394266,20.3143277 L4.32394266,18.2122278 C4.3311504,9.43563262 10.9203442,2.06035053 19.6406837,1.06820525 C28.3610233,0.0760599843 36.43859,5.78265051 38.417184,14.3333136 L36.8501555,15.9389993 L30.4424986,15.9389993 L30.8163415,15.564685 C31.2659919,15.1135677 31.2659919,14.3837167 30.8163415,13.9325994 L29.0824273,12.1986852 C28.63131,11.7490348 27.9014589,11.7490348 27.4503416,12.1986852 L26.5489702,13.1000566 C25.6762322,12.5676345 24.7263877,12.1734165 23.7331275,11.9313852 L23.7331275,10.6585281 C23.732093,10.0225849 23.2173683,9.5070173 22.5814276,9.50494243 L20.1299991,9.50494243 C19.492954,9.50572169 18.9767213,10.0219545 18.975942,10.6589995 L18.975942,11.9318566 C17.9828026,12.173804 17.0331009,12.5680287 16.1605707,13.100528 L15.2591993,12.1986852 C14.8079205,11.7489804 14.0779211,11.7489804 13.6266422,12.1986852 L11.8903709,13.9307137 C11.6736825,14.1470991 11.5519228,14.4407627 11.5519228,14.7469922 C11.5519228,15.0532217 11.6736825,15.3468853 11.8903709,15.5632707 L12.7912709,16.4646421 C12.2589633,17.3372147 11.8648999,18.2869107 11.6230709,19.2800134 L10.3502138,19.2800134 C9.71235669,19.2810539 9.19589575,19.7985697 9.19615673,20.4364277 L9.19615673,22.8878561 C9.19693599,23.5251616 9.71337982,24.0416054 10.3506853,24.0423846 L11.6235423,24.0423846 C11.8654579,25.035459 12.259516,25.985142 12.7917423,26.8577559 L11.8908423,27.7591273 C11.6741826,27.9754323 11.5524345,28.2690178 11.5524345,28.5751702 C11.5524345,28.8813225 11.6741826,29.174908 11.8908423,29.391213 L13.6242851,31.1246558 C14.0810479,31.5608864 14.8000794,31.5608864 15.2568422,31.1246558 L16.1582136,30.2237558 C17.0307379,30.7561582 17.9804491,31.1502279 18.9735849,31.3919557 L18.9735849,32.6648128 C18.9743641,33.3018579 19.4905969,33.8180907 20.127642,33.8188699 L22.5790704,33.8188699 C23.2161155,33.8180907 23.7323482,33.3018579 23.7331275,32.6648128 L23.7331275,31.3919557 C24.7263793,31.1501294 25.6762311,30.7560673 26.5489702,30.2237558 L27.4503416,31.1246558 C27.9068493,31.5610678 28.6259196,31.5610678 29.0824273,31.1246558 L30.8163415,29.3907415 C31.2659919,28.9396242 31.2659919,28.2097732 30.8163415,27.7586559 L30.4420272,27.3843416 L37.1301841,27.3843416 L35.8021698,32.86847 C34.8302178,36.8632112 34.6762744,41.0132692 35.3495984,45.0690408 L36.1010555,49.6244549 C36.12488,49.7682114 36.0842774,49.9151713 35.9900304,50.0263065 C35.8957834,50.1374417 35.75743,50.2015051 35.6117127,50.2014835 L30.7932415,50.2014835 C30.5328787,50.2014835 30.3218129,50.4125492 30.3218129,50.672912 C30.3218129,50.9332748 30.5328787,51.1443406 30.7932415,51.1443406 L35.6117127,51.1443406 C36.0342602,51.1443406 36.4354349,50.9585398 36.708852,50.6363761 C36.9822691,50.3142123 37.1003039,49.8881744 37.0316555,49.4712406 L36.2801984,44.9153551 C35.627514,40.9843649 35.7764852,36.9619838 36.7181555,33.0900414 L38.0999126,27.3857559 L40.7205839,27.3857559 L43.889998,30.6291843 C43.9787617,30.7197415 44.1002641,30.7707216 44.2270695,30.7706129 L47.7524122,30.7706129 C48.001401,32.0918965 49.2349738,32.9917368 50.569175,32.8253246 C51.9033762,32.6589124 52.8781237,31.4836329 52.7949312,30.1416699 C52.7117387,28.7997068 51.5992941,27.7538189 50.2547549,27.7534702 L50.2542835,27.7520559 Z M48.3214264,20.0564562 C49.2079617,20.0564562 49.9266406,20.7751351 49.9266406,21.6616705 C49.9266406,22.5482058 49.2079617,23.2668847 48.3214264,23.2668847 C47.4348911,23.2668847 46.7162122,22.5482058 46.7162122,21.6616705 C46.7172447,20.7770342 47.4330236,20.0595696 48.317655,20.0564562 L48.3214264,20.0564562 Z M46.3857408,11.4184709 C47.2709743,11.4184709 47.9885979,12.1360945 47.9885979,13.021328 C47.9885979,13.9065615 47.2709743,14.6241851 46.3857408,14.6241851 C45.5005073,14.6241851 44.7828837,13.9065615 44.7828837,13.021328 C44.7852034,12.1385273 45.4991765,11.4228702 46.3819694,11.4184709 L46.3857408,11.4184709 Z M37.0486269,16.8818564 C37.1755957,16.882092 37.2972917,16.831102 37.3861698,16.7404278 L38.6406411,15.4553136 C38.9450487,17.3564253 38.9283164,19.2951389 38.5911411,21.1907133 L33.5100842,21.1907133 L33.5100842,20.4364277 C33.509305,19.7991222 32.9928611,19.2826784 32.3555557,19.2818991 L31.0826986,19.2818991 C30.8765496,18.4445784 30.5616289,17.6378615 30.1459701,16.8823278 L37.0486269,16.8818564 Z M30.1497415,28.7241416 L28.4153559,30.4580558 C28.3329079,30.5403563 28.1993896,30.5403563 28.1169416,30.4580558 L26.9487417,29.2898558 C26.7902848,29.1313472 26.5421342,29.1063154 26.3552131,29.2299844 C25.3881787,29.8722258 24.306,30.3212659 23.1683561,30.5523415 C22.9488277,30.5971525 22.7911675,30.7902863 22.7912133,31.0143415 L22.7912133,32.6643414 C22.790954,32.7808764 22.6965483,32.8752821 22.5800133,32.8755414 L20.1285848,32.8755414 C20.0120498,32.8752821 19.9176441,32.7808764 19.9173848,32.6643414 L19.9173848,31.0143415 C19.9174306,30.7902863 19.7597704,30.5971525 19.540242,30.5523415 C18.4026923,30.3214365 17.3206362,29.8723809 16.3538564,29.2299844 C16.1669353,29.1063154 15.9187847,29.1313472 15.7603279,29.2898558 L14.5921279,30.4580558 C14.5095183,30.5404105 14.3758518,30.5404105 14.2932422,30.4580558 L12.5569709,28.7241416 C12.5171846,28.6845875 12.4948134,28.6308011 12.4948134,28.5746987 C12.4948134,28.5185964 12.5171846,28.46481 12.5569709,28.4252559 L13.7251708,27.2570559 C13.8836794,27.0985991 13.9087113,26.8504485 13.7850422,26.6635274 C13.1433576,25.6964589 12.6950994,24.6142355 12.4650423,23.4766704 C12.4202313,23.257142 12.2270975,23.0994818 12.0030423,23.0995275 L10.3530424,23.0995275 C10.2362471,23.0992683 10.1416302,23.0046515 10.141371,22.8878561 L10.141371,20.4364277 C10.1416302,20.3196323 10.2362471,20.2250155 10.3530424,20.2247562 L12.0030423,20.2247562 C12.2270975,20.224802 12.4202313,20.0671418 12.4650423,19.8476134 C12.6958206,18.7098786 13.1448837,17.6276445 13.7873994,16.6607564 C13.9110684,16.4738353 13.8860366,16.2256847 13.727528,16.0672279 L12.559328,14.8990279 C12.5195418,14.8594738 12.4971705,14.8056874 12.4971705,14.7495851 C12.4971705,14.6934827 12.5195418,14.6396963 12.559328,14.6001422 L14.2932422,12.866228 C14.3758518,12.7838733 14.5095183,12.7838733 14.5921279,12.866228 L15.7603279,14.0348994 C15.9189033,14.1932569 16.1670437,14.2180907 16.3538564,14.0942994 C17.3209642,13.4526886 18.4031728,13.0044366 19.5407134,12.7742994 C19.7602418,12.7294884 19.917902,12.5363546 19.9178563,12.3122994 L19.9178563,10.6622995 C19.9181155,10.5457645 20.0125213,10.4513588 20.1290562,10.4510995 L22.5804847,10.4510995 C22.6970197,10.4513588 22.7914254,10.5457645 22.7916847,10.6622995 L22.7916847,12.3122994 C22.791639,12.5363546 22.9492992,12.7294884 23.1688275,12.7742994 C24.3066313,13.0051074 25.3888889,13.4543404 26.3556845,14.0971279 C26.5427061,14.2210576 26.7911561,14.1960155 26.9496845,14.0372565 L28.1178845,12.8690566 C28.1575004,12.8293865 28.2112636,12.8070955 28.2673273,12.8070955 C28.323391,12.8070955 28.3771542,12.8293865 28.4167702,12.8690566 L30.1506844,14.6029708 C30.2327811,14.6856869 30.2327811,14.8191404 30.1506844,14.9018565 L28.9810701,16.066285 C28.8225615,16.2247418 28.7975297,16.4728924 28.9211987,16.6598135 C29.5638729,17.6266171 30.0129493,18.7088832 30.2435558,19.8466705 C30.2883668,20.0661989 30.4815006,20.2238591 30.7055558,20.2238134 L32.3555557,20.2238134 C32.472351,20.2240726 32.5669679,20.3186895 32.5672271,20.4354848 L32.5672271,22.8869133 C32.5669679,23.0037086 32.472351,23.0983254 32.3555557,23.0985847 L30.7055558,23.0985847 C30.4815006,23.098539 30.2883668,23.2561992 30.2435558,23.4757275 C30.0129493,24.6135148 29.5638729,25.695781 28.9211987,26.6625845 C28.7975297,26.8495056 28.8225615,27.0976562 28.9810701,27.2561131 L30.1492701,28.424313 C30.1891757,28.4639658 30.2116549,28.517873 30.2117434,28.5741294 C30.2118318,28.6303859 30.1895222,28.6843635 30.1497415,28.7241416 Z M30.1469129,26.4414845 C30.5625718,25.6859508 30.8774925,24.879234 31.0836415,24.0419132 L32.3564986,24.0419132 C32.993252,24.0406156 33.5090468,23.5246101 33.5100842,22.8878561 L33.5100842,22.1335704 L38.397384,22.1335704 C38.3860697,22.1807133 38.3785269,22.2278561 38.3672126,22.274999 L37.3583555,26.4414845 L30.1469129,26.4414845 Z M50.2542835,31.90487 C49.369357,31.90487 48.6518615,31.1877239 48.6514281,30.3027975 C48.6509952,29.4178711 49.3677883,28.7000239 50.2527143,28.6991558 C51.1376404,28.6982894 51.8558392,29.4147303 51.8571405,30.2996558 C51.856105,31.1848422 51.1394674,31.9025337 50.2542835,31.90487 Z" id="Shape" fill="#3A2C60"></path>
        </g>
    </g>
</svg>