<?xml version="1.0" encoding="UTF-8"?>
<svg width="55px" height="55px" viewBox="0 0 55 55" version="1.1" xmlns="http://www.w3.org/2000/svg" xmlns:xlink="http://www.w3.org/1999/xlink">
    <title>Artboard Copy 6</title>
    <defs>
        <linearGradient x1="12.959%" y1="12.039%" x2="79.639%" y2="78.201%" id="linearGradient-1">
            <stop stop-color="#387EB8" offset="0%"></stop>
            <stop stop-color="#366994" offset="100%"></stop>
        </linearGradient>
        <linearGradient x1="19.128%" y1="20.579%" x2="90.742%" y2="88.429%" id="linearGradient-2">
            <stop stop-color="#FFE052" offset="0%"></stop>
            <stop stop-color="#FFC331" offset="100%"></stop>
        </linearGradient>
    </defs>
    <g id="Artboard-Copy-6" stroke="none" stroke-width="1" fill="none" fill-rule="evenodd">
        <g id="python-5" fill-rule="nonzero">
            <path d="M27.2451102,0.0154687505 C13.3163598,0.0154687505 14.1860473,6.05580096 14.1860473,6.05580096 L14.201516,12.3137699 L27.4934696,12.3137699 L27.4934696,14.1925785 L8.92216042,14.1925785 C8.92216042,14.1925785 0.00915234402,13.1817387 0.00915234402,27.235743 C0.00915234402,41.290177 7.78864476,40.7917395 7.78864476,40.7917395 L12.4314183,40.7917395 L12.4314183,34.2699424 C12.4314183,34.2699424 12.1811254,26.49045 20.0867311,26.49045 L33.2699736,26.49045 C33.2699736,26.49045 40.6767121,26.610118 40.6767121,19.3320709 L40.6767121,7.29824241 C40.6767121,7.29824241 41.8016341,0.0154687505 27.2451102,0.0154687505 Z M19.9159303,4.22382728 C20.5502937,4.22325752 21.1588392,4.47500468 21.607402,4.92356751 C22.0559649,5.37213034 22.307712,5.98067588 22.3071423,6.61503926 C22.307712,7.24940264 22.0559649,7.85794818 21.607402,8.30651101 C21.1588392,8.75507384 20.5502937,9.006821 19.9159303,9.00625124 C19.2815669,9.006821 18.6730214,8.75507384 18.2244585,8.30651101 C17.7758957,7.85794818 17.5241485,7.24940264 17.5247183,6.61503926 C17.5241485,5.98067588 17.7758957,5.37213034 18.2244585,4.92356751 C18.6730214,4.47500468 19.2815669,4.22325752 19.9159303,4.22382728 L19.9159303,4.22382728 Z" id="Shape" fill="url(#linearGradient-1)"></path>
            <path d="M27.6406375,54.5973844 C41.569388,54.5973844 40.6997004,48.5570522 40.6997004,48.5570522 L40.6842317,42.2992981 L27.3920633,42.2992981 L27.3920633,40.4204895 L45.9633725,40.4204895 C45.9633725,40.4204895 54.8763805,41.4313294 54.8763805,27.3768953 C54.8763805,13.3226762 47.0968881,13.8211137 47.0968881,13.8211137 L42.4541145,13.8211137 L42.4541145,20.3426959 C42.4541145,20.3426959 42.7044075,28.1221883 34.7988018,28.1221883 L21.6155592,28.1221883 C21.6155592,28.1221883 14.2088207,28.0025204 14.2088207,35.2807823 L14.2088207,47.3148256 C14.2088207,47.3148256 13.0841137,54.5973844 27.6404227,54.5973844 L27.6406375,54.5973844 Z M34.9698174,50.3894556 C34.3354541,50.3900254 33.7269085,50.1382782 33.2783457,49.6897154 C32.8297829,49.2411525 32.5780357,48.632607 32.5786053,47.9982436 C32.5779786,47.363843 32.8297006,46.7552422 33.2782696,46.3066329 C33.7268386,45.8580236 34.3354168,45.606247 34.9698174,45.6068168 C35.6041808,45.606247 36.2127264,45.8579942 36.6612892,46.306557 C37.109852,46.7551199 37.3615992,47.3636654 37.3610294,47.9980288 C37.3615992,48.6323922 37.109852,49.2409377 36.6612892,49.6895005 C36.2127264,50.1380634 35.6041808,50.3898105 34.9698174,50.3892398 L34.9698174,50.3894556 Z" id="Shape" fill="url(#linearGradient-2)"></path>
        </g>
    </g>
</svg>