<?xml version="1.0" encoding="UTF-8"?>
<svg width="55px" height="55px" viewBox="0 0 55 55" version="1.1" xmlns="http://www.w3.org/2000/svg" xmlns:xlink="http://www.w3.org/1999/xlink">
    <title>Artboard Copy</title>
    <g id="Artboard-Copy" stroke="none" stroke-width="1" fill="none" fill-rule="evenodd">
        <g id="cloud-coding-(1)" transform="translate(0.000000, 6.000000)" fill-rule="nonzero">
            <g id="Group" fill="#846F75">
                <path d="M47.5277626,12.7214347 C47.2147439,8.55578962 43.7514761,5.33099482 39.5741159,5.31545859 C38.6088149,5.31416249 37.6514325,5.48960365 36.749316,5.83310562 C32.7586819,1.18321227 26.5178879,-0.869012619 20.5463751,0.504924828 C14.5748623,1.87886227 9.85847632,6.45213677 8.30124669,12.3784936 C3.08315736,13.5196674 -0.436576125,18.4094382 0.137514994,23.719914 C0.711606113,29.0303898 5.19502976,33.0549762 10.5364466,33.0546103 C10.5535289,33.0546103 10.569576,33.0509868 10.5863995,33.0496926 L10.5863995,42.1548452 C10.5878243,42.9833311 11.25909,43.6545968 12.0875759,43.6560216 L42.523151,43.6560216 C43.351637,43.6545968 44.0229027,42.9833311 44.0243274,42.1548452 L44.0243274,33.0496926 C44.041151,33.0496926 44.057198,33.0546103 44.0742804,33.0546103 C49.1751096,33.0541939 53.5317988,29.3745834 54.3856669,24.3457299 C55.239535,19.3168763 52.3415476,14.4054668 47.5267273,12.7214347 L47.5277626,12.7214347 Z M42.7317628,22.6310108 L11.8799995,22.6310108 L11.8799995,18.8780697 C11.8799995,18.7637143 11.9727029,18.6710109 12.0870583,18.6710109 L42.523151,18.6710109 C42.5780665,18.6710109 42.6307327,18.692826 42.6695637,18.7316571 C42.7083948,18.7704881 42.7302099,18.8231543 42.7302099,18.8780697 L42.7317628,22.6310108 Z M42.524704,42.3626863 L12.0886112,42.3626863 C11.9742558,42.3626863 11.8815524,42.2699771 11.8815524,42.1556216 L11.8815524,23.9251283 L42.7317643,23.9251283 L42.7317643,42.1548452 C42.7317643,42.2101652 42.7100352,42.2632685 42.6708449,42.3023129 C42.6316546,42.3413573 42.5784699,42.3630958 42.523151,42.3626863 L42.524704,42.3626863 Z M44.0776451,31.7604927 C44.0605627,31.7604927 44.0445157,31.7643751 44.0276921,31.7656692 L44.0276921,18.8778109 C44.0262674,18.049325 43.3550017,17.3780593 42.5265157,17.3766345 L12.0886112,17.3766345 C11.2601253,17.3780593 10.5888596,18.049325 10.5874348,18.8778109 L10.5874348,31.7656692 C10.5706113,31.7656692 10.5545642,31.7604927 10.5374819,31.7604927 C5.78623935,31.7605894 1.82283173,28.1295207 1.40788838,23.3964321 C0.992945031,18.6633435 4.26408786,14.3980317 8.94287019,13.5714112 C9.19778086,13.5264865 9.40139244,13.3339718 9.46051722,13.0819759 C10.7908039,7.44049047 15.2160813,3.04805068 20.8673182,1.75981859 C26.5185551,0.471586504 32.4102852,2.51220486 36.054116,7.01981145 C36.2396177,7.24807756 36.5557385,7.32250895 36.8235984,7.20098791 C37.687557,6.80930908 38.6255205,6.60762971 39.5741159,6.60957618 C43.2248491,6.62320575 46.1934323,9.55565967 46.2517626,13.2059524 C46.2553174,13.4886267 46.4419676,13.7362711 46.7127273,13.8175523 C51.0666841,15.1272347 53.8024432,19.4307499 53.1406031,23.9289912 C52.4787631,28.4272326 48.6193974,31.7603868 44.0727274,31.7604927 L44.0776451,31.7604927 Z" id="Shape"></path>
                <path d="M34.7721632,20.1232697 L33.8600691,20.1232697 C33.5027084,20.1232697 33.2130103,20.4129678 33.2130103,20.7703285 C33.2130103,21.1276892 33.5027084,21.4173873 33.8600691,21.4173873 L34.7721632,21.4173873 C35.1295239,21.4173873 35.4192219,21.1276892 35.4192219,20.7703285 C35.4192219,20.4129678 35.1295239,20.1232697 34.7721632,20.1232697 Z" id="Path"></path>
                <path d="M37.8495748,20.1232697 L36.9379983,20.1232697 C36.5806376,20.1232697 36.2909396,20.4129678 36.2909396,20.7703285 C36.2909396,21.1276892 36.5806376,21.4173873 36.9379983,21.4173873 L37.8495748,21.4173873 C38.2069355,21.4173873 38.4966336,21.1276892 38.4966336,20.7703285 C38.4966336,20.4129678 38.2069355,20.1232697 37.8495748,20.1232697 Z" id="Path"></path>
                <path d="M40.9275041,20.1232697 L40.01541,20.1232697 C39.6580493,20.1232697 39.3683512,20.4129678 39.3683512,20.7703285 C39.3683512,21.1276892 39.6580493,21.4173873 40.01541,21.4173873 L40.9275041,21.4173873 C41.2848648,21.4173873 41.5745628,21.1276892 41.5745628,20.7703285 C41.5745628,20.4129678 41.2848648,20.1232697 40.9275041,20.1232697 Z" id="Path"></path>
                <path d="M14.5976464,20.1232697 L13.6842582,20.1232697 C13.3268975,20.1232697 13.0371994,20.4129678 13.0371994,20.7703285 C13.0371994,21.1276892 13.3268975,21.4173873 13.6842582,21.4173873 L14.5976464,21.4173873 C14.9550071,21.4173873 15.2447052,21.1276892 15.2447052,20.7703285 C15.2447052,20.4129678 14.9550071,20.1232697 14.5976464,20.1232697 Z" id="Path"></path>
            </g>
            <path d="M24.7409401,39.679716 C24.5246627,39.679716 24.322725,39.5715065 24.2027679,39.3915449 C24.0828108,39.2115832 24.0606972,38.9835878 24.1438342,38.7839277 L29.2731987,26.4535753 C29.4104252,26.1235884 29.7891765,25.9673253 30.1191634,26.1045518 C30.4491502,26.2417783 30.6054134,26.6205296 30.4681869,26.9505164 L25.3388224,39.2811277 C25.2383941,39.522609 25.0024722,39.6798903 24.7409401,39.679716 L24.7409401,39.679716 Z" id="Path" fill="#A58BC9"></path>
            <path d="M32.2626103,37.5356224 C32.0010228,37.5354614 31.765264,37.3778125 31.6651805,37.1361281 C31.565097,36.8944437 31.620379,36.6162724 31.8052692,36.4312219 L35.3690102,32.8672221 L31.8052692,29.303481 C31.637062,29.1410211 31.5696022,28.9004424 31.6288181,28.6742116 C31.6880339,28.4479808 31.8647101,28.2713047 32.0909409,28.2120888 C32.3171717,28.1528729 32.5577504,28.2203327 32.7202103,28.3885399 L36.7415513,32.4098809 C36.9941514,32.6625573 36.9941514,33.0721457 36.7415513,33.324822 L32.7202103,37.346163 C32.5989517,37.467672 32.4342729,37.5358536 32.2626103,37.5356224 L32.2626103,37.5356224 Z" id="Path" fill="#A58BC9"></path>
            <path d="M22.3491519,37.5356224 C22.1774894,37.5358536 22.0128105,37.467672 21.891552,37.346163 L17.870211,33.324822 C17.6176109,33.0721457 17.6176109,32.6625573 17.870211,32.4098809 L21.891552,28.3885399 C22.0540119,28.2203327 22.2945906,28.1528729 22.5208214,28.2120888 C22.7470522,28.2713047 22.9237283,28.4479808 22.9829442,28.6742116 C23.0421601,28.9004424 22.9747003,29.1410211 22.8064931,29.303481 L19.2427521,32.8672221 L22.8064931,36.4312219 C22.9913833,36.6162724 23.0466653,36.8944437 22.9465818,37.1361281 C22.8464983,37.3778125 22.6107395,37.5354614 22.3491519,37.5356224 Z" id="Path" fill="#A58BC9"></path>
        </g>
    </g>
</svg>