<?xml version="1.0" encoding="UTF-8"?>
<svg width="82px" height="82px" viewBox="0 0 82 82" version="1.1" xmlns="http://www.w3.org/2000/svg" xmlns:xlink="http://www.w3.org/1999/xlink">
    <title>api-icon</title>
    <g id="Page-1" stroke="none" stroke-width="1" fill="none" fill-rule="evenodd">
        <g id="12-copy-6" transform="translate(-196.000000, -801.000000)" fill="#FFFFFF" fill-rule="nonzero" stroke="#181818" stroke-width="1.4">
            <g id="Group-5" transform="translate(0.000000, 593.000000)">
                <g id="Group" transform="translate(197.000000, 194.000000)">
                    <g id="api-icon" transform="translate(0.000000, 15.000000)">
                        <path d="M80,29.6774198 C80,23.2748391 74.7896785,18.0645164 68.3870978,18.0645164 C67.8387107,18.0645164 67.2929042,18.1096777 66.7522591,18.1858067 C64.9651623,7.8735485 55.9754847,0 45.161291,0 C34.4993554,0 25.4116133,7.70709689 23.5780649,18.1019358 C17.6116132,18.5806454 12.903226,23.5896778 12.903226,29.6774198 C12.903226,31.5303231 13.3535486,33.3238715 14.1858067,34.9496779 C11.1096776,36.7393554 9.0322582,40.0632264 9.0322582,43.8709684 C9.0322582,47.4580652 10.8735485,50.6206459 13.6580647,52.4709685 C5.75741944,54.9096782 0,62.2774203 0,70.967743 L0,73.5483882 C0,77.1058076 2.89419359,80 6.451613,80 L24.246452,80 L26.4516133,80 L38.709678,80 L38.709678,70.967743 C38.709678,69.643872 38.5625812,68.3367752 38.2980651,67.0554849 C38.4374199,67.0645171 38.5690328,67.0967752 38.709678,67.0967752 L49.0064523,67.0967752 L47.9741943,72.2580656 L46.4516136,72.2580656 C43.6051619,72.2580656 41.2903232,74.5729043 41.2903232,77.419356 L41.2903232,80 L67.0967752,80 L67.0967752,77.419356 C67.0967752,74.5729043 64.7819364,72.2580656 61.9354848,72.2580656 L60.4129041,72.2580656 L59.380646,67.0967752 L69.6774204,67.0967752 C73.2348398,67.0967752 76.1290334,64.2025816 76.1290334,60.6451622 L76.1290334,42.5806458 C76.1290334,41.313549 75.7483882,40.1393554 75.1148398,39.1406457 C78.1600012,36.9780651 80,33.4774199 80,29.6774198 L80,29.6774198 Z M15.4838712,29.6774198 C15.4838712,24.6980649 19.5341938,20.6464519 24.51871,20.6464519 L24.5212907,20.6464519 L25.8296778,20.6774197 L25.9729036,19.5225809 C27.1767746,9.86451628 35.425807,2.5806452 45.161291,2.5806452 C55.8335492,2.5806452 64.51613,11.263226 64.51613,21.9354842 C64.51613,24.4451617 64.0425816,26.8877423 63.1096784,29.1935488 L65.5019365,30.1612908 C66.560001,27.5470972 67.0967752,24.7793552 67.0967752,21.9354842 C67.0967752,21.5367745 67.0580655,21.1483874 67.0374204,20.754839 C67.4825817,20.6877422 67.9329042,20.6451616 68.3870978,20.6451616 C73.367743,20.6451616 77.419356,24.6967746 77.419356,29.6774198 C77.419356,32.7625811 75.8503237,35.581936 73.2929043,37.2412909 C72.2606462,36.5406457 71.0167753,36.1290328 69.6774204,36.1290328 L38.709678,36.1290328 C36.6103231,36.1290328 34.7600005,37.1522586 33.581936,38.709678 L28.2812907,38.709678 C26.4929036,35.629678 23.166452,33.5483876 19.354839,33.5483876 C18.390968,33.5483876 17.4606454,33.6916134 16.5741938,33.9393553 C15.870968,32.6322586 15.4838712,31.1819359 15.4838712,29.6774198 Z M13.8064518,61.1161299 L11.1200002,59.7729041 L10.5135485,56.7393557 C10.9561292,56.4632266 11.4116131,56.2077428 11.8812905,55.9729041 L13.8064518,61.1161299 Z M14.0103228,61.6619364 L17.4941938,70.967743 L17.3690325,70.967743 L12.7238712,65.5225816 L14.0103228,61.6619364 Z M21.2154842,70.967743 L24.6993552,61.6619364 L25.9858068,65.5225816 L21.3406455,70.967743 L21.2154842,70.967743 Z M24.9032262,61.1161299 L26.8361294,55.9535492 C27.3019359,56.1858073 27.7587101,56.4387105 28.2012907,56.7148396 L27.5896778,59.7729041 L24.9032262,61.1161299 Z M25.0296778,52.4838717 C27.8270972,50.6348395 29.6774198,47.4670975 29.6774198,43.8709684 C29.6774198,42.9780652 29.5522585,42.11742 29.338065,41.2903232 L32.3883876,41.2903232 C32.3032263,41.7070974 32.258065,42.1393555 32.258065,42.5806458 L32.258065,56.5780654 C30.1600004,54.6903234 27.7032262,53.300646 25.0296778,52.4838717 Z M11.6129034,43.8709684 C11.6129034,39.6012909 15.0851615,36.1290328 19.354839,36.1290328 C23.6245165,36.1290328 27.0967746,39.6012909 27.0967746,43.8709684 C27.0967746,48.1406459 23.6245165,51.612904 19.354839,51.612904 C15.0851615,51.612904 11.6129034,48.1406459 11.6129034,43.8709684 Z M24.43871,54.9961299 L19.354839,68.5780655 L14.267097,54.9883879 C15.8735486,54.4748395 17.5806454,54.1935492 19.354839,54.1935492 C21.1096777,54.1935492 22.8154842,54.4825815 24.43871,54.9961299 L24.43871,54.9961299 Z M24.246452,77.419356 L6.451613,77.419356 C4.31741942,77.419356 2.5806452,75.6825818 2.5806452,73.5483882 L2.5806452,70.967743 C2.5806452,65.9909687 4.77161297,61.5277429 8.22451625,58.4529041 L8.83741949,61.5174203 L10.9819356,62.5896784 L9.81419369,66.0903236 L13.9767744,70.967743 L6.451613,70.967743 L6.451613,73.5483882 L26.4516133,73.5483882 C27.5187101,73.5483882 28.3870972,74.4167753 28.3870972,75.4838721 C28.3870972,76.5509689 27.5187101,77.419356 26.4516133,77.419356 L24.246452,77.419356 Z M36.1290328,70.967743 L36.1290328,77.419356 L30.5148392,77.419356 C30.7961295,76.8309689 30.9677424,76.179356 30.9677424,75.4838721 C30.9677424,72.9935495 28.9419359,70.967743 26.4516133,70.967743 L24.7329036,70.967743 L28.8954843,66.0903236 L27.7290327,62.5896784 L29.8735488,61.5174203 L30.4864521,58.4503235 C31.1161295,59.0116138 31.7109682,59.6167751 32.258065,60.2787106 L32.258065,60.6451622 C32.258065,62.99613 33.5354844,65.03613 35.4193554,66.163872 C35.8825812,67.7174204 36.1290328,69.3290333 36.1290328,70.967743 L36.1290328,70.967743 Z M64.51613,77.419356 L43.8709684,77.419356 C43.8709684,75.9961302 45.0283878,74.8387108 46.4516136,74.8387108 L61.9354848,74.8387108 C63.3587106,74.8387108 64.51613,75.9961302 64.51613,77.419356 Z M50.6064524,72.2580656 L52.6709685,61.9354848 L55.7161299,61.9354848 L57.780646,72.2580656 L50.6064524,72.2580656 Z M73.5483882,60.6451622 C73.5483882,62.7793558 71.811614,64.51613 69.6774204,64.51613 L58.864517,64.51613 L57.8322589,59.3548396 L50.5548395,59.3548396 L49.5225814,64.51613 L38.709678,64.51613 C36.5754844,64.51613 34.8387102,62.7793558 34.8387102,60.6451622 L34.8387102,42.5806458 C34.8387102,40.4464522 36.5754844,38.709678 38.709678,38.709678 L69.6774204,38.709678 C71.811614,38.709678 73.5483882,40.4464522 73.5483882,42.5806458 L73.5483882,60.6451622 Z" id="Shape"></path>
                        <path d="M30.9677424,28.3870972 L37.4193554,28.3870972 L37.4193554,33.5483876 L40.0000006,33.5483876 L40.0000006,21.2903229 C40.0000006,18.0890325 37.3948393,15.4838712 34.1935489,15.4838712 C30.9922585,15.4838712 28.3870972,18.0890325 28.3870972,21.2903229 L28.3870972,33.5483876 L30.9677424,33.5483876 L30.9677424,28.3870972 Z M34.1935489,18.0645164 C35.9716134,18.0645164 37.4193554,19.5122584 37.4193554,21.2903229 L37.4193554,25.806452 L30.9677424,25.806452 L30.9677424,21.2903229 C30.9677424,19.5122584 32.4154844,18.0645164 34.1935489,18.0645164 Z" id="Shape"></path>
                        <path d="M45.161291,25.806452 L47.7419362,25.806452 C50.5883879,25.806452 52.9032266,23.4916133 52.9032266,20.6451616 C52.9032266,17.7987099 50.5883879,15.4838712 47.7419362,15.4838712 L42.5806458,15.4838712 L42.5806458,33.5483876 L45.161291,33.5483876 L45.161291,25.806452 Z M45.161291,18.0645164 L47.7419362,18.0645164 C49.165162,18.0645164 50.3225814,19.2219358 50.3225814,20.6451616 C50.3225814,22.0683874 49.165162,23.2258068 47.7419362,23.2258068 L45.161291,23.2258068 L45.161291,18.0645164 Z" id="Shape"></path>
                        <polygon id="Path" points="61.9354848 30.9677424 59.3548396 30.9677424 59.3548396 18.0645164 61.9354848 18.0645164 61.9354848 15.4838712 54.1935492 15.4838712 54.1935492 18.0645164 56.7741944 18.0645164 56.7741944 30.9677424 54.1935492 30.9677424 54.1935492 33.5483876 61.9354848 33.5483876"></polygon>
                        <polygon id="Path" points="68.3870978 59.3548396 70.967743 59.3548396 70.967743 61.9354848 68.3870978 61.9354848"></polygon>
                        <polygon id="Path" points="68.3870978 54.1935492 70.967743 54.1935492 70.967743 56.7741944 68.3870978 56.7741944"></polygon>
                        <polygon id="Path" points="68.3870978 49.0322588 70.967743 49.0322588 70.967743 51.612904 68.3870978 51.612904"></polygon>
                    </g>
                </g>
            </g>
        </g>
    </g>
</svg>