<?xml version="1.0" encoding="UTF-8"?>
<svg width="34px" height="38px" viewBox="0 0 34 38" version="1.1" xmlns="http://www.w3.org/2000/svg" xmlns:xlink="http://www.w3.org/1999/xlink">
    <title>s-icon5</title>
    <g id="Page-1" stroke="none" stroke-width="1" fill="none" fill-rule="evenodd">
        <g id="Group-24" transform="translate(-20.000000, -18.000000)" fill="#FFFFFF" fill-rule="nonzero">
            <g id="s-icon5" transform="translate(20.042437, 18.500000)">
                <path d="M18.883875,0 C21.2218125,0 23.125,1.900875 23.1226875,4.2388125 L23.1226875,4.2388125 L23.1226875,4.625 L29.290125,4.625 C31.8408125,4.625 33.915125,6.6993125 33.915125,9.25 L33.915125,9.25 L33.915125,32.375 C33.915125,34.9256875 31.8408125,37 29.290125,37 L29.290125,37 L12.3325625,37 C9.781875,37 7.7075625,34.9256875 7.7075625,32.375 L7.7075625,32.375 L4.2388125,32.375 C1.900875,32.375 -7.10542736e-15,30.474125 -7.10542736e-15,28.133875 L-7.10542736e-15,28.133875 L-7.10542736e-15,4.2388125 C-7.10542736e-15,1.900875 1.900875,0 4.2388125,0 L4.2388125,0 Z M29.290125,7.7075625 L12.3325625,7.7075625 C11.4815625,7.7075625 10.790125,8.399 10.790125,9.25 L10.790125,9.25 L10.790125,32.375 C10.790125,33.226 11.4815625,33.9174375 12.3325625,33.9174375 L12.3325625,33.9174375 L29.290125,33.9174375 C30.141125,33.9174375 30.8325625,33.226 30.8325625,32.375 L30.8325625,32.375 L30.8325625,9.25 C30.8325625,8.399 30.141125,7.7075625 29.290125,7.7075625 L29.290125,7.7075625 Z M27.3638125,28.1361875 C28.2148125,28.1361875 28.90625,28.827625 28.90625,29.678625 C28.90625,30.529625 28.2148125,31.2210625 27.3638125,31.2210625 L27.3638125,31.2210625 L14.258875,31.2210625 C13.407875,31.2210625 12.7164375,30.529625 12.7164375,29.678625 C12.7164375,28.827625 13.407875,28.1361875 14.258875,28.1361875 L14.258875,28.1361875 Z M27.3638125,21.96875 C28.2148125,21.96875 28.90625,22.6601875 28.90625,23.5111875 C28.90625,24.3621875 28.2148125,25.053625 27.3638125,25.053625 L27.3638125,25.053625 L14.258875,25.053625 C13.407875,25.053625 12.7164375,24.3621875 12.7164375,23.5111875 C12.7164375,22.6601875 13.407875,21.96875 14.258875,21.96875 L14.258875,21.96875 Z M19.6539375,11.178625 C20.2921875,11.178625 20.8101875,11.696625 20.8101875,12.334875 L20.8101875,12.334875 L20.8101875,17.7299375 C20.8101875,18.3681875 20.2921875,18.8861875 19.6539375,18.8861875 L19.6539375,18.8861875 L14.258875,18.8861875 C13.620625,18.8861875 13.102625,18.3681875 13.102625,17.7299375 L13.102625,17.7299375 L13.102625,12.334875 C13.102625,11.696625 13.620625,11.178625 14.258875,11.178625 L14.258875,11.178625 Z M27.75,15.8013125 C28.601,15.8013125 29.2924375,16.49275 29.2924375,17.34375 C29.2924375,18.19475 28.601,18.8861875 27.75,18.8861875 L27.75,18.8861875 L24.28125,18.8861875 C23.43025,18.8861875 22.7388125,18.19475 22.7388125,17.34375 C22.7388125,16.49275 23.43025,15.8013125 24.28125,15.8013125 L24.28125,15.8013125 Z M27.75,11.1763125 C28.601,11.1763125 29.2924375,11.86775 29.2924375,12.71875 C29.2924375,13.56975 28.601,14.2611875 27.75,14.2611875 L27.75,14.2611875 L24.28125,14.2611875 C23.43025,14.2611875 22.7388125,13.56975 22.7388125,12.71875 C22.7388125,11.86775 23.43025,11.1763125 24.28125,11.1763125 L24.28125,11.1763125 Z" id="Combined-Shape"></path>
            </g>
        </g>
    </g>
</svg>