<?xml version="1.0" encoding="UTF-8"?>
<svg width="1200px" height="175px" viewBox="0 0 1200 175" version="1.1" xmlns="http://www.w3.org/2000/svg" xmlns:xlink="http://www.w3.org/1999/xlink">
    <title>Group 19 Copy</title>
    <g id="Page-1" stroke="none" stroke-width="1" fill="none" fill-rule="evenodd">
        <g id="Group-19-Copy" transform="translate(0.000000, 1.000000)">
            <path d="M0,96.5 C79,96.5 100,20 200,20 C283,20 300,173 400,173 C500,173 500,0 600,0 C700,0 700,173 800,173 C900,173 900,20 1000,20 C1100,20 1123,96 1200,96.5" id="Path-8" stroke="#BFBFBF" stroke-width="0.4"></path>
            <path d="M0,95.2283237 C79,95.2283237 100,28.4566474 200,28.4566474 C283,28.4566474 300,162 400,162 C500,162 500,11 600,11 C700,11 700,162 800,162 C900,162 900,28.4566474 1000,28.4566474 C1100,28.4566474 1123,94.7919075 1200,95.2283237" id="Path-8-Copy" stroke="#282828" stroke-width="0.4"></path>
            <path d="M0,93.7254335 C79,93.7254335 100,38.4508671 200,38.4508671 C283,38.4508671 300,149 400,149 C500,149 500,24 600,24 C700,24 700,149 800,149 C900,149 900,38.4508671 1000,38.4508671 C1100,38.4508671 1123,93.3641618 1200,93.7254335" id="Path-8-Copy-2" stroke="#BFBFBF" stroke-width="0.4"></path>
            <path d="M0,92.2225434 C79,92.2225434 100,48.4450867 200,48.4450867 C283,48.4450867 300,136 400,136 C500,136 500,37 600,37 C700,37 700,136 800,136 C900,136 900,48.4450867 1000,48.4450867 C1100,48.4450867 1123,91.9364162 1200,92.2225434" id="Path-8-Copy-3" stroke="#ED5C37" stroke-width="2"></path>
            <path d="M0,90.4884393 C79,90.4884393 100,59.9768786 200,59.9768786 C283,59.9768786 300,121 400,121 C500,121 500,52 600,52 C700,52 700,121 800,121 C900,121 900,59.9768786 1000,59.9768786 C1100,59.9768786 1123,90.2890173 1200,90.4884393" id="Path-8-Copy-4" stroke="#BFBFBF" stroke-width="0.4"></path>
            <path d="M0,88.7543353 C79,88.7543353 100,71.5086705 200,71.5086705 C283,71.5086705 300,106 400,106 C500,106 500,67 600,67 C700,67 700,106 800,106 C900,106 900,71.5086705 1000,71.5086705 C1100,71.5086705 1123,88.6416185 1200,88.7543353" id="Path-8-Copy-5" stroke="#282828" stroke-width="0.4"></path>
            <path d="M0,87.2514451 C79,87.2514451 100,81.5028902 200,81.5028902 C283,81.5028902 300,93 400,93 C500,93 500,80 600,80 C700,80 700,93 800,93 C900,93 900,81.5028902 1000,81.5028902 C1100,81.5028902 1123,87.2138728 1200,87.2514451" id="Path-8-Copy-6" stroke="#BFBFBF" stroke-width="0.4"></path>
        </g>
    </g>
</svg>