<?xml version="1.0" encoding="UTF-8"?>
<svg width="39px" height="39px" viewBox="0 0 39 39" version="1.1" xmlns="http://www.w3.org/2000/svg" xmlns:xlink="http://www.w3.org/1999/xlink">
    <title>LinkedIN Copy</title>
    <g id="Final" stroke="none" stroke-width="1" fill="none" fill-rule="evenodd">
        <g id="Blog-HTML" transform="translate(-354.000000, -449.000000)" fill-rule="nonzero">
            <g id="Group-14" transform="translate(119.000000, -409.000000)">
                <g id="Group-11" transform="translate(0.000000, 644.000000)">
                    <g id="LinkedIN-Copy" transform="translate(235.000000, 214.000000)">
                        <path d="M0,19.1999989 C0,8.59613178 8.59613178,0 19.1999989,0 C29.8038659,0 38.3999977,8.59613178 38.3999977,19.1999989 C38.3999977,29.8038659 29.8038659,38.3999977 19.1999989,38.3999977 C8.59613178,38.3999977 0,29.8038659 0,19.1999989 Z" id="back" fill="#0077B5"></path>
                        <path d="M13.5684328,15.9022777 L13.5684328,28.9756461 L9.21729315,28.9756461 L9.21729315,15.9022777 L13.5684328,15.9022777 Z M13.8550098,11.8581574 C13.8550098,13.1134417 12.9101224,14.1178773 11.3929498,14.1178773 L11.3651437,14.1178773 C9.90436549,14.1178773 8.95999947,13.1134417 8.95999947,11.8581574 C8.95999947,10.576322 9.93312747,9.59999943 11.4216249,9.59999943 C12.9101224,9.59999943 13.8267692,10.576322 13.8550098,11.8581574 Z M29.2603067,21.4797762 L29.260133,28.9756461 L24.9091672,28.9756461 L24.9091672,21.9813866 C24.9091672,20.2245787 24.2795319,19.0257809 22.7044009,19.0257809 C21.5023067,19.0257809 20.7862985,19.8339456 20.4718285,20.6145177 C20.3567806,20.8942603 20.32854,21.2840257 20.32854,21.6747457 L20.32854,28.9759932 L15.976879,28.9759932 C15.976879,28.9759932 16.0342292,17.1293621 15.976879,15.9026248 L20.32854,15.9026248 L20.32854,17.7543577 C20.9060388,16.8641966 21.9403403,15.5952897 24.2505091,15.5952897 C27.1137596,15.5952897 29.2603067,17.4642029 29.2603067,21.4797762 Z" id="Shape" fill="#FFFFFF"></path>
                    </g>
                </g>
            </g>
        </g>
    </g>
</svg>