<?xml version="1.0" encoding="UTF-8"?>
<svg width="38px" height="30px" viewBox="0 0 38 30" version="1.1" xmlns="http://www.w3.org/2000/svg" xmlns:xlink="http://www.w3.org/1999/xlink">
    <!-- Generator: Sketch 61 (89581) - https://sketch.com -->
    <title>logo</title>
    <desc>Created with Sketch.</desc>
    <g id="Final" stroke="none" stroke-width="1" fill="none" fill-rule="evenodd">
        <g id="Minimal3-Copy-25" transform="translate(-21.000000, -26.000000)" fill="#FEFEFE" fill-rule="nonzero">
            <g id="Group">
                <g id="logo">
                    <g transform="translate(8.000000, 8.000000)">
                        <path d="M46.1296607,18.6674706 C49.2549987,18.8593971 51.0926811,21.3020147 49.98076,22.60675 C46.1301172,25.9935 39.048239,31.2033235 38.9318434,33.5479265 C38.8455736,35.2880294 46.889656,40.3533382 50.5166366,43.9762353 C51.8157036,45.5526765 49.1299305,46.80225 47.4693521,47.0903676 L47.4693521,47.0903676 L16.4471144,47.089966 C15.1543997,47.0583687 14.3348543,46.5013916 13.9884781,45.4186471 L13.9884781,45.4186471 L13.9884781,22.0113676 C14.2906504,19.9722059 15.6271466,18.9660735 17.671146,18.6674706 L17.671146,18.6674706 Z M36.2072716,22.6413971 C32.5583813,26.2693088 28.9099474,29.5452794 25.2615135,33.1736471 C24.8557262,33.5470147 25.0310044,33.7129559 25.2692732,33.9595882 L36.4113064,42.7781765 C33.5771858,40.3647353 31.231927,37.5446471 31.1082281,33.4991471 C31.2538368,29.0766324 33.6264828,25.6347206 36.2072716,22.6413971 Z"></path>
                    </g>
                </g>
            </g>
        </g>
    </g>
</svg>