<svg xmlns="http://www.w3.org/2000/svg" width="54" height="72" fill-rule="evenodd" ><path d="M28.719 3.526L24.865 8.88a2 2 0 0 0-.218 1.95l1.729 4.075a2 2 0 0 1 .159.781v1.161a1.57 1.57 0 0 0 1.567 1.567h4.577c.698 0 1.264-.566 1.264-1.264 0-.102-.012-.204-.037-.304l-.177-.717A2 2 0 0 1 34 14.548l1.894-2.869a2 2 0 0 0 0-2.203l-3.882-5.882a2 2 0 0 0-3.292-.067z" fill="#ed5c37"/><g fill="#181818" fill-rule="nonzero"><circle cx="13.593" cy="20.956" r="1.31"/><circle cx="18.281" cy="20.956" r="1.31"/><circle cx="22.968" cy="20.956" r="1.31"/><path d="M53.812 37.304c-.192-.285-.514-.457-.858-.457H46.75v-17.65c0-1.577-1.283-2.86-2.86-2.86H31.569v-2.075l2.576-4.488c.205-.358.178-.803-.068-1.133l-5.59-7.486c-.147-.393-.525-.672-.969-.672s-.822.28-.969.672l-5.59 7.486a1.03 1.03 0 0 0-.068 1.133l2.576 4.488v2.075H10.869c-1.577 0-2.86 1.283-2.86 2.86v17.65H1.805c-.344 0-.666.171-.858.457s-.23.648-.1.967l3.62 8.912v21.69c0 1.23 1.001 2.231 2.231 2.231h41.5c1.23 0 2.231-1.001 2.231-2.231V46.875l-.001-.031 3.483-8.574c.13-.319.092-.681-.1-.967zM27.518 9.169c.266 0 .482.216.482.482s-.216.482-.482.482-.482-.216-.482-.482.216-.482.482-.482zm-4.496.166L26.484 4.7v2.62c-.893.398-1.517 1.293-1.517 2.331 0 1.406 1.144 2.55 2.55 2.55s2.55-1.144 2.55-2.55c0-1.039-.624-1.934-1.517-2.331V4.699l3.462 4.635-2.375 4.137c-.09.157-.137.334-.137.515v2.351h-3.967v-2.351a1.03 1.03 0 0 0-.137-.515l-2.374-4.138zm-12.153 9.072h33.022c.436 0 .792.355.792.792v4.447H10.077v-4.447h0c0-.437.355-.792.792-.792zm-.792 7.307h34.605v11.134h-5.589c-.419 0-.796.252-.956.639l-3.453 8.355H10.077V25.713zM3.342 38.915H8.01v6.926H6.155l-2.813-6.926zm45.02 29.958c0 .09-.073.163-.163.163h-11.63v-4.651c0-.571-.463-1.034-1.034-1.034s-1.034.463-1.034 1.034v4.651H6.699c-.09 0-.163-.073-.163-.163V47.909h27.965v12.339c0 .571.463 1.034 1.034 1.034s1.034-.463 1.034-1.034V47.909h11.793v20.964h0zm.243-23.032H36.922l2.862-6.926h11.634l-2.813 6.926zM13.593 30.814h6.618c.571 0 1.034-.463 1.034-1.034s-.463-1.034-1.034-1.034h-6.618c-.571 0-1.034.463-1.034 1.034s.463 1.034 1.034 1.034zm10.754 0h15.579c.571 0 1.034-.463 1.034-1.034s-.463-1.034-1.034-1.034H24.347c-.571 0-1.034.463-1.034 1.034s.463 1.034 1.034 1.034zM13.593 34.95h3.309c.571 0 1.034-.463 1.034-1.034s-.463-1.034-1.034-1.034h-3.309c-.571 0-1.034.463-1.034 1.034s.463 1.034 1.034 1.034zm26.333-2.068H20.762c-.571 0-1.034.463-1.034 1.034s.463 1.034 1.034 1.034h19.163c.571 0 1.034-.463 1.034-1.034s-.463-1.034-1.034-1.034zm-26.333 6.479h10.754c.571 0 1.034-.463 1.034-1.034s-.463-1.034-1.034-1.034H13.593c-.571 0-1.034.463-1.034 1.034s.463 1.034 1.034 1.034zm19.715-2.068h-5.377c-.571 0-1.034.463-1.034 1.034s.463 1.034 1.034 1.034h5.377c.571 0 1.034-.463 1.034-1.034s-.463-1.034-1.034-1.034zm-4.825 4.274h-14.89c-.571 0-1.034.463-1.034 1.034s.463 1.034 1.034 1.034h14.89c.571 0 1.034-.463 1.034-1.034s-.463-1.034-1.034-1.034zm4.825 0h-1.654c-.571 0-1.034.463-1.034 1.034s.463 1.034 1.034 1.034h1.654c.571 0 1.034-.463 1.034-1.034s-.463-1.034-1.034-1.034zM16.875 53.796c-.404-.404-1.058-.404-1.462 0l-3.929 3.929c-.404.404-.404 1.058 0 1.462l3.791 3.791a1.03 1.03 0 0 0 1.462 0c.404-.404.404-1.058 0-1.462l-3.06-3.06 3.198-3.198c.404-.404.404-1.058 0-1.462zm8.272 0c-.404-.404-1.058-.404-1.462 0s-.404 1.058 0 1.462l3.198 3.198-3.06 3.06c-.404.404-.404 1.058 0 1.462a1.03 1.03 0 0 0 1.462 0l3.791-3.791c.404-.404.404-1.058 0-1.462l-3.929-3.929zm-3.047-.303c-.533-.206-1.131.059-1.337.592l-3.033 7.858c-.206.533.06 1.131.592 1.337a1.03 1.03 0 0 0 .372.07c.415 0 .806-.252.965-.662l3.033-7.858c.206-.533-.06-1.131-.592-1.337z"/></g></svg>