<svg xmlns="http://www.w3.org/2000/svg" width="65" height="65" fill-rule="evenodd" ><path d="M22.31 39.629v-9.852a3 3 0 0 1 1.782-2.741l9.51-4.227a3 3 0 0 1 2.272-.068l8.031 3.012a3 3 0 0 1 1.944 2.673l.511 11.247a3 3 0 0 1-1.655 2.82l-8.057 4.028a3 3 0 0 1-2.506.082l-9.996-4.209a3 3 0 0 1-1.836-2.765z" fill="#ed5c37"/><path d="M61.623 11.359H48.6a.93.93 0 1 0 0 1.862h13.023c.554 0 1.005.45 1.005 1.005v35.853c0 .554-.45 1.005-1.005 1.005H3.798c-.554 0-1.005-.45-1.005-1.005V14.225c0-.554.45-1.005 1.005-1.005h20.456v1.862H5.586a.93.93 0 0 0-.931.931v24.6a.93.93 0 1 0 1.862 0V16.945h17.736v4.995l-3.986 1.904a.94.94 0 0 0-.53.84v15.184a.93.93 0 0 0 .53.84l12.041 5.753c.261.123.555.116.803 0l6.769-3.234a.93.93 0 0 0-.803-1.68l-5.437 2.598v-13.12l10.179-4.863v13.12l-1.383.66a.93.93 0 1 0 .803 1.68l1.913-.914a.93.93 0 0 0 .53-.84V24.684c0-.355-.207-.686-.53-.84l-3.986-1.904v-4.995h17.736v30.414H6.517v-2.772a.93.93 0 1 0-1.862 0v3.703a.93.93 0 0 0 .931.931h54.248a.93.93 0 0 0 .931-.931V16.014a.93.93 0 0 0-.931-.931H41.167v-1.862h3.46a.93.93 0 1 0 0-1.862h-3.46V9.497h8.348a.93.93 0 0 0 .931-.931V6.357c1.084-.385 1.862-1.419 1.862-2.633 0-1.54-1.253-2.793-2.793-2.793s-2.793 1.253-2.793 2.793c0 1.214.778 2.249 1.862 2.633v1.277h-8.348a.93.93 0 0 0-.931.931v2.793h-5.664V6.357c1.084-.385 1.862-1.419 1.862-2.633 0-1.54-1.253-2.793-2.793-2.793s-2.793 1.253-2.793 2.793c0 1.214.778 2.249 1.862 2.633v5.001h-5.664V8.565a.93.93 0 0 0-.931-.931h-8.348V6.357c1.084-.385 1.862-1.419 1.862-2.633 0-1.54-1.253-2.793-2.793-2.793s-2.793 1.253-2.793 2.793c0 1.214.778 2.249 1.862 2.633v2.208a.93.93 0 0 0 .931.931h8.348v1.862H3.798a2.87 2.87 0 0 0-2.867 2.867v35.853a2.87 2.87 0 0 0 2.867 2.867h20.185c-.36 3.415-2.619 5.41-3.33 5.959h-3.956c-1.54 0-2.793 1.253-2.793 2.793s1.253 2.793 2.793 2.793h32.028c1.54 0 2.793-1.253 2.793-2.793s-1.253-2.793-2.793-2.793h-3.954c-.703-.547-2.969-2.559-3.332-5.959h20.184a2.87 2.87 0 0 0 2.867-2.867V14.225a2.87 2.87 0 0 0-2.867-2.867zM49.515 2.793a.93.93 0 1 1 0 1.862.93.93 0 1 1 0-1.862zm-16.805 0a.93.93 0 1 1 0 1.862.93.93 0 1 1 0-1.862zm-16.805 0a.93.93 0 1 1 0 1.862.93.93 0 1 1 0-1.862zm10.21 14.152h5.664v1.399l-5.664 2.706v-4.105zm16.476 7.739l-9.882 4.721-9.882-4.721 9.882-4.721 9.882 4.721zM21.6 26.161l10.179 4.863v13.12L21.6 39.281v-13.12zm17.705-5.111l-5.664-2.706v-1.399h5.664v4.105zm0-7.829v1.862h-5.664v-1.862h5.664zm-7.526 0v1.862h-5.664v-1.862h5.664zm17.876 48.476a.93.93 0 0 1-.931.931H16.697a.93.93 0 1 1 0-1.862h32.028a.93.93 0 0 1 .931.931zM42.1 58.903H23.32c1.092-1.275 2.302-3.262 2.535-5.959h13.71c.232 2.697 1.443 4.684 2.535 5.959z" fill="#181818" fill-rule="nonzero"/></svg>