<svg xmlns="http://www.w3.org/2000/svg" width="66" height="47" fill-rule="evenodd" ><g fill="#ed5c37"><rect x="42.31" y="18.138" width="9.655" height="4.138" rx="2.069"/><rect x="42.31" y="25.724" width="19.31" height="4.138" rx="2.069"/><rect x="42.31" y="33.31" width="15.172" height="4.138" rx="2.069"/><circle cx="9.207" cy="7.103" r="2.069"/><circle cx="16.793" cy="7.103" r="2.069"/><circle cx="23.69" cy="7.103" r="2.069"/></g><path d="M60.489.27h-3.296a.941.941 0 1 0 0 1.883h3.296a2.83 2.83 0 0 1 2.824 2.824v4.33H2.814v-4.33a2.83 2.83 0 0 1 2.824-2.824H53.06a.941.941 0 1 0 0-1.883H5.638C3.042.27.931 2.381.931 4.977v10.378a.941.941 0 1 0 1.883 0V11.19h60.499v24.271a.941.941 0 1 0 1.883 0V4.977c0-2.595-2.111-4.707-4.707-4.707zm3.765 38.219a.94.94 0 0 0-.941.941v2.448a2.83 2.83 0 0 1-2.824 2.824H5.638a2.83 2.83 0 0 1-2.824-2.824V19.394a.941.941 0 1 0-1.883 0v22.484c0 2.595 2.111 4.707 4.707 4.707h54.851c2.595 0 4.707-2.111 4.707-4.707V39.43a.94.94 0 0 0-.941-.941zM14.547 20.724a.94.94 0 0 0-1.331 0l-5.657 5.657a.94.94 0 0 0 0 1.331l5.582 5.582a.94.94 0 1 0 1.331-1.331l-4.917-4.917 4.991-4.991a.94.94 0 0 0 0-1.331h0zm12.66 12.57a.94.94 0 0 0 1.331 0l5.582-5.582a.94.94 0 0 0 0-1.331l-5.657-5.657a.941.941 0 1 0-1.331 1.331l4.992 4.991-4.917 4.917a.94.94 0 0 0 0 1.331h0zm-9.709 3.468a.94.94 0 0 0 .88-.608l6.689-17.622a.941.941 0 1 0-1.76-.668l-6.689 17.623a.94.94 0 0 0 .88 1.276h0zM5.074 5.776A2.83 2.83 0 0 0 7.898 8.6a2.83 2.83 0 0 0 2.824-2.824 2.83 2.83 0 0 0-2.824-2.824 2.83 2.83 0 0 0-2.824 2.824h0zm3.766 0a.94.94 0 1 1-1.882 0 .94.94 0 1 1 1.882 0zm3.534 0A2.83 2.83 0 0 0 15.198 8.6a2.83 2.83 0 0 0 2.824-2.824 2.83 2.83 0 0 0-2.824-2.824 2.83 2.83 0 0 0-2.824 2.824h0zm3.766 0a.94.94 0 1 1-1.882 0 .94.94 0 1 1 1.882 0zm3.534 0A2.83 2.83 0 0 0 22.498 8.6a2.83 2.83 0 0 0 2.824-2.824 2.83 2.83 0 0 0-2.824-2.824 2.83 2.83 0 0 0-2.824 2.824h0zm3.766 0a.94.94 0 1 1-1.882 0 .94.94 0 1 1 1.882 0zm19.602 15.941h5.899a2.83 2.83 0 0 0 2.824-2.824 2.83 2.83 0 0 0-2.824-2.824h-5.899a2.83 2.83 0 0 0-2.824 2.824 2.83 2.83 0 0 0 2.824 2.824zm0-3.766h5.899a.94.94 0 1 1 0 1.882h-5.899a.94.94 0 1 1 0-1.882zm0 11.297h15.564a2.83 2.83 0 0 0 2.824-2.824 2.83 2.83 0 0 0-2.824-2.824H43.042a2.83 2.83 0 0 0-2.824 2.824 2.83 2.83 0 0 0 2.824 2.824zm0-3.766h15.564a.94.94 0 1 1 0 1.882H43.042a.94.94 0 1 1 0-1.882zm0 11.297h10.941a2.83 2.83 0 0 0 2.824-2.824 2.83 2.83 0 0 0-2.824-2.824H43.042a2.83 2.83 0 0 0-2.824 2.824 2.83 2.83 0 0 0 2.824 2.824zm0-3.766h10.941a.94.94 0 1 1 0 1.882H43.042a.94.94 0 1 1 0-1.882z" fill="#181818" fill-rule="nonzero"/></svg>