<svg xmlns="http://www.w3.org/2000/svg" xmlns:xlink="http://www.w3.org/1999/xlink" width="60" height="72" ><g fill="none" fill-rule="evenodd"><ellipse fill="#ed5c37" cx="39.31" cy="21.862" rx="11.034" ry="11.724"/><g fill-rule="nonzero"><path d="M46.224 17.521c-3.611-5.337-9.612-8.542-16.054-8.575a19.34 19.34 0 0 0-13.833 5.678 19.57 19.57 0 0 0-5.797 13.971c0 4.88 1.787 9.555 5.035 13.17l2.98 4.043c.203.275.516.421.833.421a1.03 1.03 0 0 0 .613-.202c.46-.339.558-.987.219-1.447l-3.01-4.083a.99.99 0 0 0-.065-.079c-2.925-3.24-4.536-7.439-4.536-11.823 0-4.735 1.842-9.176 5.188-12.505 3.292-3.276 7.647-5.076 12.274-5.076h.089c5.758.029 11.123 2.894 14.351 7.665.32.473.963.597 1.437.277s.597-.963.277-1.437z" fill="#181818"/><path d="M22.948 54.552h.23c-.024 0-.126 0-.23 0z" fill="#000"/><path d="M48.322 21.566c-.202-.534-.8-.803-1.334-.601s-.804.799-.601 1.334a17.73 17.73 0 0 1 1.144 6.299c0 4.392-1.618 8.597-4.554 11.839-.024.026-.046.053-.066.081l-.694.943-2.471 3.356c-.024.032-.046.066-.066.101-1.589 2.785-2.726 5.548-3.455 7.565H23.913c-.475-1.318-1.003-2.626-1.582-3.895-.237-.52-.85-.75-1.37-.513s-.75.85-.513 1.37c.509 1.118.931 2.162 1.262 3.038h-.055c-.571 0-1.034.463-1.034 1.034v3.103h-.483c-.571 0-1.034.463-1.034 1.034v4.138c0 .571.463 1.034 1.034 1.034h.483v3.103c0 .571.463 1.034 1.034 1.034h.684l.726 3.324c.104.475.524.814 1.011.814h11.986c.486 0 .907-.339 1.011-.814l.726-3.324h.684c.571 0 1.034-.463 1.034-1.034v-3.103h.483c.571 0 1.034-.463 1.034-1.034v-4.138c0-.571-.463-1.034-1.034-1.034h-.483v-3.103c0-.571-.463-1.034-1.034-1.034h-.054c.693-1.834 1.69-4.154 3.017-6.488l2.436-3.308.663-.901c3.26-3.618 5.054-8.3 5.054-13.189a19.79 19.79 0 0 0-1.278-7.031zM35.23 69.035H24.909l-.452-2.069h11.224l-.452 2.069zm2.219-4.138H22.69v-2.069h14.759v2.069zm1.517-6.207v2.069H21.173V58.69h4.46c.571 0 1.034-.463 1.034-1.034s-.463-1.034-1.034-1.034H22.69v-2.069h.258c-.111 0-.226 0-.252 0h14.747-.241.242.005v2.069h-7.379c-.571 0-1.034.463-1.034 1.034s.463 1.034 1.034 1.034h8.897z" fill="#181818"/><path d="M37.202 54.552h-.242.242z" fill="#000"/><g fill="#181818"><path d="M30.069.483c-.571 0-1.034.463-1.034 1.034V6.25c0 .571.463 1.034 1.034 1.034s1.034-.463 1.034-1.034V1.517c0-.571-.463-1.034-1.034-1.034zM19.193 8.888L16.827 4.79c-.286-.495-.918-.664-1.413-.379s-.664.918-.379 1.413l2.366 4.098c.192.332.539.517.897.517a1.03 1.03 0 0 0 .516-.139c.495-.286.664-.918.379-1.413z"/><use xlink:href="#B"/><use xlink:href="#B" x="44.877" y="25.909"/><path d="M6.526 28.717H1.793c-.571 0-1.034.463-1.034 1.034s.463 1.034 1.034 1.034h4.732c.571 0 1.034-.463 1.034-1.034s-.463-1.034-1.034-1.034zm51.819 0h-4.732c-.571 0-1.034.463-1.034 1.034s.463 1.034 1.034 1.034h4.732c.571 0 1.034-.463 1.034-1.034s-.463-1.034-1.034-1.034zM10.576 40.974c-.286-.495-.918-.664-1.413-.379l-4.098 2.366c-.495.286-.664.918-.379 1.413.192.332.539.517.897.517a1.03 1.03 0 0 0 .516-.139l4.098-2.366c.495-.286.664-.918.379-1.413zm44.877-25.909c-.286-.495-.919-.664-1.413-.379l-4.098 2.366c-.495.286-.664.918-.379 1.413.192.332.539.517.897.517a1.03 1.03 0 0 0 .516-.139l4.098-2.366c.495-.286.664-.918.379-1.413zM44.724 4.308c-.495-.286-1.128-.116-1.413.379l-2.366 4.098c-.286.495-.116 1.127.379 1.413a1.03 1.03 0 0 0 .516.139c.358 0 .705-.186.897-.517l2.366-4.098c.286-.495.116-1.127-.379-1.413z"/></g><path d="M25.341 33.148l-4.8-3.886 4.8-3.886c.444-.359.513-1.011.153-1.455s-1.011-.513-1.455-.153l-5.793 4.69c-.243.196-.384.492-.384.804s.141.608.384.804l5.793 4.69a1.03 1.03 0 0 0 1.455-.153c.359-.444.291-1.095-.153-1.455zm16.552-4.69l-5.793-4.69c-.444-.36-1.095-.291-1.455.153s-.291 1.095.153 1.455l4.8 3.886-4.8 3.886c-.444.359-.513 1.011-.153 1.455a1.03 1.03 0 0 0 1.455.153l5.793-4.69c.243-.196.384-.492.384-.804s-.141-.608-.384-.804zm-8.252-7.736c-.527-.22-1.133.028-1.354.555l-6.345 15.172c-.221.527.028 1.133.555 1.354a1.03 1.03 0 0 0 .399.08c.405 0 .789-.239.955-.636l6.345-15.172c.221-.527-.028-1.133-.555-1.354z" fill="#000"/></g></g><defs ><path id="B" d="M10.197 17.112l-4.098-2.366c-.495-.286-1.128-.116-1.413.379s-.116 1.127.379 1.413l4.098 2.366a1.03 1.03 0 0 0 .516.139c.358 0 .705-.186.897-.517.286-.495.116-1.127-.379-1.413z"/></defs></svg>