<?xml version="1.0" encoding="UTF-8"?>
<svg width="120px" height="57px" viewBox="0 0 120 57" version="1.1" xmlns="http://www.w3.org/2000/svg" xmlns:xlink="http://www.w3.org/1999/xlink">
    <!-- Generator: Sketch 61 (89581) - https://sketch.com -->
    <title>ApplePay</title>
    <desc>Created with Sketch.</desc>
    <g id="Final" stroke="none" stroke-width="1" fill="none" fill-rule="evenodd">
        <g id="About-us" transform="translate(-1080.000000, -1955.000000)" fill="#3F3F3F">
            <g id="Group-8" transform="translate(160.000000, 1915.000000)">
                <g id="Slot4" transform="translate(840.000000, 0.000000)">
                    <path d="M194.724865,57.1785769 L189.354288,73.0653077 C188.683519,75.0233846 188.123904,77.0931923 187.620442,78.7155 L187.508712,78.7155 C187.061019,77.0931923 186.389673,74.9674231 185.774288,73.1772308 L179.845058,57.1785769 L174.474673,57.1785769 L184.487942,82.1276154 C184.711596,82.743 184.823327,83.1347308 184.823327,83.4143462 C184.823327,83.6939615 184.655827,84.0856923 184.431981,84.5889615 C183.312942,87.1062692 181.634865,89.0083846 180.292173,90.0710769 C178.837942,91.3016538 177.216019,92.0851154 175.985058,92.4766538 L177.216019,96.6160769 C178.446788,96.3924231 180.851788,95.5533846 183.257173,93.4274231 C186.613519,90.5187692 189.018904,85.7639615 192.543135,76.4776154 L199.927365,57.1785769 L194.724865,57.1785769 Z M137.397365,65.5695385 C135.775058,65.5695385 134.432558,65.4578077 133.369481,65.178 L133.369481,50.5216538 C134.208519,50.298 135.831019,50.1301154 137.956788,50.1301154 C143.326788,50.1301154 146.851019,52.5355 146.851019,57.5141538 C146.851019,62.7166538 143.270827,65.5695385 137.397365,65.5695385 L137.397365,65.5695385 Z M148.417365,49.4028077 C146.179865,47.3891538 142.655442,46.2703077 137.844865,46.2703077 C133.928904,46.2703077 130.852173,46.6058846 128.502942,46.9976154 L128.502942,84.2533846 L133.369481,84.2533846 L133.369481,69.1495385 C134.488519,69.4293462 135.831019,69.4853077 137.28525,69.4853077 C142.04025,69.4853077 146.235635,68.0870385 148.808904,65.3458846 C150.711019,63.3878077 151.71775,60.7028077 151.71775,57.2905 C151.71775,53.9341538 150.487173,51.193 148.417365,49.4028077 L148.417365,49.4028077 Z M168.551212,75.1353077 C168.551212,75.6385769 168.439288,76.1981923 168.271404,76.7016538 C167.488327,78.9949231 165.250635,81.2326154 161.726596,81.2326154 C159.209096,81.2326154 157.083712,79.7224231 157.083712,76.5335769 C157.083712,71.2753077 163.181212,70.3243462 168.551212,70.4360769 L168.551212,75.1353077 Z M173.306212,67.6393462 C173.306212,62.2131923 171.292173,56.5631923 163.013135,56.5631923 C159.600827,56.5631923 156.356404,57.5141538 154.118904,58.9687692 L155.237558,62.2131923 C157.139481,60.9824231 159.768712,60.1991538 162.285827,60.1991538 C167.824096,60.1991538 168.439288,64.2268462 168.439288,66.4645385 L168.439288,67.0239615 C157.978519,66.968 152.160827,70.548 152.160827,77.0931923 C152.160827,81.0089615 154.957942,84.8685769 160.440058,84.8685769 C164.299865,84.8685769 167.208712,82.9668462 168.719096,80.8410769 L168.886981,80.8410769 L169.278519,84.2533846 L173.753519,84.2533846 C173.418135,82.4074231 173.306212,80.1137692 173.306212,77.7645385 L173.306212,67.6393462 Z M101.116981,50.3691538 C102.238712,49.9260769 103.144865,49.1691538 103.966596,48.3070385 C105.786788,46.3976154 106.822558,44.1310769 107.006404,41.4945385 C107.040058,41.0114615 106.967173,40.5206923 106.941981,40.0001154 C101.199481,41.1835769 98.2281346,44.9908846 98.0873654,50.8764615 C98.1035192,50.8851154 98.12025,50.9024231 98.1356346,50.9013242 C99.1481346,50.8276154 100.162558,50.7458846 101.116981,50.3691538 L101.116981,50.3691538 Z M113.136981,69.6351154 C111.296212,67.138 110.672558,64.3539615 111.258327,61.3178077 C111.681212,59.1262692 112.881981,57.3666538 114.480058,55.8556923 C114.931212,55.4289615 115.393904,55.0141538 115.850442,54.5947308 C115.831788,54.5585769 115.823519,54.5303077 115.806019,54.5097308 C115.612942,54.2831923 115.420442,54.0562692 115.223904,53.833 C113.655635,52.0520385 111.783327,50.7758846 109.413519,50.3170385 C107.581788,49.9626154 105.780827,50.1133846 104.005635,50.6405 C102.811596,50.9951154 101.63025,51.3928077 100.435058,51.7433846 C99.5873654,51.9922308 98.7215962,52.0931923 97.8450577,51.8706923 C97.2319808,51.7155 96.6123654,51.5826154 96.0056346,51.4060769 C94.5494808,50.9826154 93.0987115,50.5424231 91.5798654,50.3918462 C88.5289038,50.0895385 85.9285192,51.0095385 83.8146731,53.2483846 C81.7740962,55.4097308 80.6937115,58.0247308 80.2537115,60.9233846 C79.7548654,64.2093462 80.0037115,67.4545385 80.8910192,70.6533846 C81.8885192,74.2499231 83.5154423,77.5487692 85.6510192,80.5981923 C86.5031346,81.8147308 87.4865962,82.9197308 88.7308269,83.7612692 C89.9646731,84.5956923 91.3087115,85.0537692 92.7950577,84.7006923 C93.7396731,84.4760769 94.6581346,84.1274231 95.5721731,83.7905 C96.7740962,83.3474231 97.9804423,82.9570385 99.2825577,82.988 C100.334865,83.0131923 101.344096,83.2606923 102.341788,83.5689615 C103.309865,83.8683846 104.271981,84.1872308 105.244481,84.4706923 C107.192942,85.0385769 108.922173,84.5576154 110.465827,83.3087692 C110.92025,82.9410769 111.364096,82.5501154 111.757173,82.1189615 C113.869288,79.803 115.417942,77.1345385 116.608904,74.2493462 C116.813135,73.7543462 116.981404,73.2447308 117.171981,72.7272308 C116.961596,72.6472308 116.788327,72.5853077 116.617942,72.5160769 C115.156212,71.9201154 114.057365,70.8837692 113.136981,69.6351154 L113.136981,69.6351154 Z" id="ApplePay"></path>
                </g>
            </g>
        </g>
    </g>
</svg>