<?xml version="1.0" encoding="UTF-8"?>
<svg width="136px" height="48px" viewBox="0 0 136 48" version="1.1" xmlns="http://www.w3.org/2000/svg" xmlns:xlink="http://www.w3.org/1999/xlink">
    <!-- Generator: Sketch 61 (89581) - https://sketch.com -->
    <title>Payoneer</title>
    <desc>Created with Sketch.</desc>
    <g id="Final" stroke="none" stroke-width="1" fill="none" fill-rule="evenodd">
        <g id="About-us" transform="translate(-513.000000, -2098.000000)" fill="#3F3F3F">
            <g id="Group-8" transform="translate(160.000000, 1915.000000)">
                <g id="Slot6" transform="translate(280.000000, 136.000000)">
                    <path d="M109.844554,52.0453773 C110.374576,55.0537072 110.889962,58.0651711 111.459452,61.0660784 C111.904946,63.4141196 112.392869,65.755233 112.923384,68.0852948 C113.095234,68.840099 113.400288,69.5828619 113.759447,70.270532 C114.033749,70.7957278 114.422508,70.7564701 114.789067,70.2754804 C114.941019,70.0762227 115.108593,69.8711918 115.192791,69.6407588 C115.980341,67.4842227 116.386697,65.2569237 116.43225,62.9529237 C116.371074,62.2134598 116.331442,61.4713567 116.244941,60.7346969 C115.7955,56.9102021 114.151166,53.6486763 111.538387,50.8658309 C111.235142,50.5428619 110.795732,50.302367 110.373918,50.1499546 C109.937633,49.9925938 109.653793,50.2388619 109.694576,50.7353567 C109.730755,51.1732948 109.768578,51.6132124 109.844554,52.0453773 M202.463514,70.3691711 C202.551331,69.2712742 202.638982,68.1730474 202.732883,67.000099 C201.373541,67.000099 200.126025,66.9836041 198.880646,67.022532 C198.736424,67.0269856 198.492874,67.3304907 198.478566,67.5101196 C198.130097,71.870532 197.244206,76.1417072 196.396138,80.4201402 C196.176927,81.5267794 195.989947,82.6400165 195.76794,83.8604701 C197.388429,83.8604701 198.910247,83.8718515 200.431079,83.8378722 C200.545701,83.835068 200.715742,83.5211711 200.754387,83.3303258 C201.22899,80.9902021 201.600317,78.625666 202.164216,76.3081402 C202.974131,72.9798103 204.335611,71.8231918 207.577246,71.3964701 C207.720153,71.377666 207.93624,71.2293773 207.962059,71.1081402 C208.267277,69.665501 208.542895,68.2164289 208.849101,66.6527175 C205.725541,66.3264495 203.981057,68.1349443 202.463514,70.3691711 M190.069425,73.0471093 C189.465401,73.3126763 188.808588,73.5107794 188.156051,73.5998515 C187.180535,73.7331299 186.188245,73.7446763 185.138562,73.8121402 C185.358431,71.5017072 187.775021,69.7168 189.727205,70.2568412 C190.355403,70.4306969 190.82573,70.763233 190.921275,71.4505732 C191.022247,72.1786557 190.718508,72.7614186 190.069425,73.0471093 M192.010591,66.9801402 C188.427229,65.9902845 185.306136,66.9492948 182.780351,69.6366351 C180.430528,72.1365938 179.565357,75.198367 179.973522,78.5755216 C180.293705,81.223934 181.687253,83.1502021 184.328811,83.8746557 C187.267036,84.6805938 190.155926,84.2842227 192.948777,83.137666 C193.139374,83.0593155 193.361217,82.7373361 193.350692,82.5400577 C193.297739,81.5328825 193.173086,80.529501 193.067181,79.4621196 C192.723809,79.592099 192.467761,79.6913979 192.209904,79.7860784 C190.664569,80.3539959 189.076477,80.5992742 187.434445,80.3982021 C185.673517,80.1826144 184.512008,78.945666 184.668071,77.3215835 C185.159776,77.3215835 185.620071,77.329666 186.079872,77.3202639 C188.310305,77.275068 190.526924,77.1320577 192.593236,76.1705732 C194.648201,75.214367 195.637202,73.5726351 195.50482,71.3976247 C195.368985,69.1708206 194.204516,67.5861608 192.010591,66.9801402 M173.583495,73.1045113 C172.585614,73.6250887 169.995364,73.9370062 168.721372,73.675233 C168.982682,71.4853773 171.292216,69.7628206 173.257062,70.241501 C173.921439,70.4034804 174.394562,70.7592742 174.505565,71.4673979 C174.613938,72.1563876 174.266455,72.7482227 173.583495,73.1045113 M175.678421,66.9953155 C172.552888,66.0636866 169.68143,66.7188619 167.226687,68.8113979 C164.243074,71.3545732 163.124651,74.7221608 163.55403,78.561501 C163.856946,81.2711093 165.327456,83.2156866 168.032327,83.9149031 C170.926808,84.6634392 173.776724,84.2728412 176.525173,83.1437691 C176.715935,83.0652536 176.939258,82.7467381 176.929556,82.5511093 C176.879069,81.5411299 176.757705,80.5347794 176.661667,79.5360165 C176.542441,79.5360165 176.492941,79.5241402 176.452322,79.5379959 C176.277841,79.5982021 176.105004,79.6641814 175.932332,79.7303258 C174.349831,80.3370062 172.720791,80.6048825 171.028767,80.3995216 C169.282639,80.1875629 168.125899,78.971233 168.238218,77.2570887 C169.323916,77.2570887 170.389715,77.3085526 171.448279,77.2453773 C173.141783,77.1447588 174.808811,76.8602227 176.347074,76.0892536 C178.311263,75.1048412 179.240404,73.473501 179.086973,71.3446763 C178.931074,69.1822021 177.766441,67.6178309 175.678421,66.9953155 M158.291471,66.7076454 C156.136356,66.3544907 154.26837,66.9836041 152.64262,68.4029856 C152.197783,68.7911093 151.777614,69.2072742 151.293638,69.6597278 C151.363858,68.7742845 151.431611,67.9210062 151.502325,67.0292948 L147.324148,67.0292948 C146.297488,72.635068 145.278557,78.199934 144.239892,83.8721814 C145.851335,83.8721814 147.306552,83.8901608 148.759795,83.8466144 C148.922765,83.8418309 149.174537,83.5066557 149.216965,83.291233 C149.574973,81.4716866 149.901406,79.6458722 150.222576,77.819068 C150.516448,76.1478103 150.818871,74.4790268 151.671543,72.9798103 C152.25534,71.9530062 152.959021,71.035068 154.145855,70.6561814 C155.372815,70.2642639 156.293734,70.8529649 156.433517,72.1174598 C156.474136,72.4836454 156.502092,72.8659959 156.444042,73.2260784 C156.101164,75.3530887 155.740196,77.4774598 155.367389,79.5995216 C155.123838,80.9857485 154.85003,82.366532 154.592008,83.7384082 C154.724883,83.7994392 154.786716,83.8522227 154.849043,83.8527175 C156.262489,83.8634392 157.6761,83.886367 159.088559,83.8495835 C159.24972,83.8456247 159.501164,83.5221608 159.543427,83.3126763 C160.02543,80.9278515 160.47816,78.5372536 160.93089,76.1466557 C161.306823,74.1631505 161.731597,72.1827794 161.505807,70.1417072 C161.303534,68.3134186 160.073942,66.9997691 158.291471,66.7076454 M136.455988,79.2732536 C135.90837,79.969501 135.195481,80.4443876 134.289855,80.5276866 C132.671505,80.6764701 131.438789,79.5571299 131.302953,77.8314392 C131.283055,77.5774186 131.300322,77.3204289 131.300322,77.0647588 C131.353768,75.1688412 131.81357,73.3991093 132.954194,71.8500784 C133.463988,71.1581196 134.105014,70.6268206 134.953739,70.4316866 C136.701348,70.0297072 138.128607,71.0456247 138.288782,72.9398928 C138.484806,75.2602227 137.917125,77.4152742 136.455988,79.2732536 M140.835945,68.0100784 C139.106262,66.7241402 137.136153,66.4562639 135.028893,66.6914804 C127.979916,67.4779546 125.102702,74.9466557 126.602978,79.7336247 C127.517154,82.6497485 130.000675,84.2654186 134.35432,84.2588407 C137.357009,84.1702433 140.322697,82.4716041 142.18542,78.9760165 C143.181493,77.1071505 143.536704,75.0825732 143.406296,72.9758515 C143.280491,70.945666 142.483074,69.2343258 140.835945,68.0100784 M101.145817,78.446532 C100.848327,78.9062433 100.459403,79.3275216 100.042687,79.6839753 C99.3539715,80.2728412 98.5435628,80.5309856 97.6555337,80.1717278 C96.7666825,79.8123052 96.4491299,79.0055423 96.3930525,78.1572124 C96.2108421,75.4086763 97.1662955,73.0871918 99.2699376,71.3110268 C100.390334,70.3650474 101.7232,70.0585732 103.316061,70.5026144 C102.744269,73.2265732 102.702663,76.0414186 101.145817,78.446532 M108.722184,68.1194392 C108.814934,67.6318515 108.73978,67.3174598 108.172593,67.2379546 C106.776743,67.0424907 105.391089,66.7099546 103.990141,66.6314392 C101.251722,66.4775423 98.6080271,66.961501 96.3014539,68.5393979 C92.629125,71.0517278 91.1143778,74.6657485 91.2885301,79.0342433 C91.3714128,81.1132536 92.1842883,82.8757278 94.1553838,83.7860784 C96.1532846,84.7089649 98.1242157,84.4003464 99.8486365,83.0687175 C100.678615,82.4278928 101.332467,81.5577897 102.159814,80.6936247 C102.10571,81.5581196 102.071669,82.3810474 101.996516,83.1998515 C101.949319,83.7131711 102.119853,83.9078103 102.649217,83.8909856 C103.668806,83.8586557 104.690861,83.8579959 105.710286,83.8919753 C106.261028,83.9102845 106.390286,83.7032742 106.424491,83.1688412 C106.53714,81.4086763 106.621338,79.6363052 106.905178,77.8998928 C107.440133,74.6281402 108.102866,71.3771711 108.722184,68.1194392 M86.7127139,69.0014186 C85.9490089,70.6296247 84.5719062,71.3974598 82.8660682,71.5846763 C81.9879062,71.6810062 81.090668,71.601501 80.0832484,71.601501 C80.5405833,69.1686763 80.9403608,67.0062021 81.3657925,64.8488412 C81.3972024,64.6899959 81.5994757,64.4646763 81.7455071,64.4452124 C82.9410573,64.2860371 84.1451589,64.1954804 85.3119304,64.6113155 C86.9570863,65.1975423 87.5800222,67.1525113 86.7127139,69.0014186 M91.9104793,65.6424082 C91.5901311,63.4179134 89.7265857,61.5313979 87.0383245,60.8641814 C83.9616329,60.1004701 80.8744164,60.4163464 77.7941069,60.8841402 C77.3887381,60.945666 77.2726365,61.2199753 77.1984696,61.6132124 C76.0216667,67.8601402 74.8224987,74.1031093 73.633362,80.3477278 C73.4177683,81.4794392 73.2237175,82.6151093 73.0000658,83.857666 C74.5766462,83.857666 76.0517611,83.8695423 77.5258892,83.8347381 C77.6419908,83.832099 77.8148276,83.5165526 77.8528155,83.3248825 C78.3293911,80.913666 78.7979086,78.5003052 79.2371541,76.081666 C79.3220102,75.6150268 79.4693572,75.4835629 79.9628711,75.5290887 C82.0559884,75.7219134 84.1168735,75.5671918 86.1351661,74.9004701 C89.9752339,73.6316866 92.5493669,70.0788619 91.9104793,65.6424082 M138.997231,58.433666 C141.13771,57.2824907 143.311901,56.1669443 145.555655,55.2427381 C149.42187,53.6503258 153.443326,52.5608412 157.589763,51.9459134 C158.031311,51.8804289 158.627606,51.531068 158.76854,51.1648825 C158.890726,50.8473567 158.574653,50.2149443 158.269106,49.9018722 C157.001691,48.603233 155.532661,47.6161814 153.687534,47.3166351 C153.236119,47.243233 152.795065,47.1071505 152.349241,46.999934 L150.818213,46.999934 C150.399195,47.0904907 149.981822,47.1906144 149.56083,47.2701196 C147.044254,47.745666 144.665981,48.6113155 142.384404,49.771233 C137.437918,52.286367 133.005338,55.534367 129.022528,59.377666 C126.373734,61.9333773 123.802397,64.5791505 121.325454,67.3026144 C116.967369,72.094367 113.240772,77.3544082 110.264724,83.1243052 C108.730242,86.0991505 107.360046,89.1539959 106.730039,92.4694598 C106.614102,93.0789443 106.808811,93.7847588 107.005328,94.3995216 C107.086237,94.6522227 107.535679,94.8344907 107.853067,94.9299959 C107.936279,94.9547381 108.191505,94.5539134 108.301028,94.3172124 C109.03135,92.7393155 109.602649,91.0678928 110.491171,89.5869856 C112.267229,86.6269856 114.12469,83.7067381 116.11075,80.8846351 C119.300419,76.3518515 122.955809,72.1996041 126.863137,68.2723464 C130.558325,64.5582021 134.338697,60.939233 138.997231,58.433666" id="Payoneer"></path>
                </g>
            </g>
        </g>
    </g>
</svg>