<?xml version="1.0" encoding="UTF-8"?>
<svg width="113px" height="39px" viewBox="0 0 113 39" version="1.1" xmlns="http://www.w3.org/2000/svg" xmlns:xlink="http://www.w3.org/1999/xlink">
    <!-- Generator: Sketch 61 (89581) - https://sketch.com -->
    <title>Skrill</title>
    <desc>Created with Sketch.</desc>
    <g id="Final" stroke="none" stroke-width="1" fill="none" fill-rule="evenodd">
        <g id="About-us" transform="translate(-804.000000, -2100.000000)" fill="#00AEA5">
            <g id="Group-8" transform="translate(160.000000, 1915.000000)">
                <g id="Slot7" transform="translate(560.000000, 136.000000)">
                    <path d="M165.168235,58.3698487 C167.729984,58.3698487 169.806391,56.2727226 169.806391,53.6861831 C169.806391,51.0991402 167.729984,49 165.168235,49 C162.609476,49 160.534065,51.0991402 160.534065,53.6861831 C160.534065,56.2727226 162.609476,58.3698487 165.168235,58.3698487 L165.168235,58.3698487 Z M129.645578,60.8984843 C129.436791,61.4301926 127.930437,65.7296788 124.287381,70.1857571 L124.287381,51.1318684 L114.580539,53.0708919 L114.580539,87.6067574 L124.287381,87.6067574 L124.287381,76.9313029 C127.098778,81.1920187 128.487035,87.6067574 128.487035,87.6067574 L140.113819,87.6067574 C138.963748,82.7760664 133.932434,73.8674344 133.932434,73.8674344 C138.448009,68.0835958 140.430737,61.9201095 140.746657,60.8984843 L129.645578,60.8984843 Z M155.164906,60.5384735 C146.470605,60.82044 142.057181,64.7619294 142.057181,72.5970745 L142.057181,87.6067574 L151.54228,87.6067574 L151.54228,75.3668922 C151.54228,70.6746669 152.150204,68.6636413 157.659883,68.4723069 L157.659883,60.6759321 C156.732551,60.477045 155.164906,60.5384735 155.164906,60.5384735 L155.164906,60.5384735 Z M98.3011483,64.701508 C97.1122096,64.6224566 94.359114,64.4432065 94.359114,61.9392429 C94.359114,58.9176694 98.3225751,58.9176694 99.8084993,58.9176694 C102.42257,58.9176694 105.807507,59.697609 108.22475,60.4282044 C108.22475,60.4282044 109.573144,60.9085545 110.720226,61.4009889 L110.82736,61.4301926 L110.82736,61.3204271 L110.82736,53.1549783 L110.68086,53.1111728 C107.828105,52.1026389 104.510936,51.1318684 98.360944,51.1318684 C87.7571658,51.1318684 84,57.3739026 84,62.7217001 C84,65.8041985 85.3070353,73.0587947 97.4515505,73.8956311 C98.4810338,73.9595771 101.212703,74.1181832 101.212703,76.7062332 C101.212703,78.8426332 98.9763419,80.1024194 95.2141931,80.1024194 C91.0912767,80.1024194 87.0914399,79.0400098 84.6627361,78.032483 L84.6627361,86.555425 C88.2993138,87.5186428 92.3988103,88 97.2033981,88 C107.571481,88 112.215119,82.0938081 112.215119,76.2404849 C112.215119,69.6042011 107.018869,65.2921271 98.3011483,64.701508 L98.3011483,64.701508 Z M160.465798,87.6067574 L169.874658,87.6067574 L169.874658,60.928695 L160.465798,60.928695 L160.465798,87.6067574 Z M187.590143,52.8327308 L187.590143,87.6067574 L197,87.6067574 L197,51.1318684 L187.590143,52.8327308 Z M173.860044,52.8327308 L183.260932,51.1318684 L183.260932,87.6067574 L173.860044,87.6067574 L173.860044,52.8327308 Z" id="Skrill"></path>
                </g>
            </g>
        </g>
    </g>
</svg>