<?xml version="1.0" encoding="UTF-8"?>
<svg width="340px" height="483px" viewBox="0 0 340 483" version="1.1" xmlns="http://www.w3.org/2000/svg" xmlns:xlink="http://www.w3.org/1999/xlink">
    <!-- Generator: Sketch 61 (89581) - https://sketch.com -->
    <title>404</title>
    <desc>Created with Sketch.</desc>
    <g id="Page-1" stroke="none" stroke-width="1" fill="none" fill-rule="evenodd">
        <g id="Technologies-Copy-2" transform="translate(-554.000000, 0.000000)">
            <g id="404" transform="translate(543.000000, -52.000000)">
                <g id="page-not-found" transform="translate(177.000000, 391.000000) rotate(10.000000) translate(-177.000000, -391.000000) translate(21.000000, 258.500000)">
                    <path d="M202.744015,217.364415 L202.744015,237.789616 L219.858616,237.789616 C225.319666,237.789616 229.79896,242.150833 229.954763,247.612157 L229.958617,247.889617 L229.958617,265.619618 L81.8322069,265.619618 L81.8322069,247.889617 C81.8322069,242.428567 86.1934237,237.949273 91.6547481,237.79347 L91.9322075,237.789616 L109.046809,237.789616 L109.046809,217.364415 L21.5430027,217.364415 C9.42075765,217.364415 -0.488064017,207.605326 -0.685115787,195.492085 L-0.687998753,195.133413 L-0.687998753,21.8470015 C-0.687998753,9.72475644 9.07108967,-0.184065222 21.184331,-0.381116992 L21.5430027,-0.383999958 L290.247821,-0.383999958 C302.370066,-0.383999958 312.278888,9.37508847 312.475939,21.4883298 L312.478822,21.8470015 L312.478822,195.133413 C312.478822,207.255658 302.719734,217.16448 290.606493,217.361532 L290.247821,217.364415 L202.744015,217.364415 Z M88.0322072,259.419618 L223.757217,259.419618 L223.757217,247.889617 C223.757217,245.739901 222.006932,243.989617 219.857216,243.989617 L91.9322075,243.989617 C89.8472465,243.989617 88.127295,245.640201 88.0367496,247.693615 L88.0322072,247.889617 L88.0322072,259.419618 Z M196.542615,217.364415 L115.246809,217.364415 L115.246809,237.789616 L196.542615,237.789616 L196.542615,217.364415 Z M290.247821,5.81600033 L21.5444027,5.81600033 C12.8189631,5.81600033 5.67913593,12.8319489 5.51637701,21.533213 L5.51340153,21.8470015 L5.51340153,195.133413 C5.51340153,203.858653 12.5291516,210.998678 21.2292633,211.161439 L21.5430027,211.164414 L290.247821,211.164414 C298.973261,211.164414 306.113088,204.148466 306.275847,195.447202 L306.278822,195.133413 L306.278822,21.8470015 C306.278822,13.0080856 299.086737,5.81600033 290.247821,5.81600033 Z M155.895412,192.678813 C159.927091,192.678813 163.195412,195.947135 163.195412,199.978814 C163.195412,204.010493 159.927091,207.278814 155.895412,207.278814 C151.863733,207.278814 148.595411,204.010493 148.595411,199.978814 C148.595411,195.947135 151.863733,192.678813 155.895412,192.678813 Z M290.246421,11.3886008 C295.903883,11.3886008 300.542393,15.9073646 300.700957,21.5641364 L300.704822,21.8470015 L300.704822,178.333412 C300.704822,183.989935 296.185622,188.629344 290.529291,188.787947 L290.246421,188.791813 L21.5430027,188.791813 C15.8866857,188.791813 11.2484234,184.272819 11.0898664,178.616277 L11.086002,178.333412 L11.086002,21.8470015 C11.086002,16.1902663 15.6040652,11.5510634 21.2601342,11.3924665 L21.5430027,11.3886008 L290.246421,11.3886008 Z M290.246421,17.5886011 L21.5430027,17.5886011 C19.2625128,17.5886011 17.3820051,19.399201 17.2901909,21.6508909 L17.2860023,21.8470015 L17.2860023,178.333412 C17.2860023,180.615443 19.0954519,182.495817 21.346895,182.587624 L21.5430027,182.591813 L290.246421,182.591813 C292.528114,182.591813 294.408811,180.781373 294.500633,178.529523 L294.504821,178.333412 L294.504821,21.8470015 C294.504821,19.499886 292.593536,17.5886011 290.246421,17.5886011 Z M109.688263,58.6232041 L222.854616,58.6232041 C228.315463,58.6232041 232.793609,62.9842168 232.949365,68.4457501 L232.953217,68.7232047 L232.953217,159.982211 C232.953217,162.433386 231.471785,164.597201 229.187739,165.482542 C228.496265,165.751172 227.770736,165.886411 227.040617,165.886411 C225.502694,165.886411 224.026247,165.282343 222.897419,164.167836 L222.696919,163.958848 L202.256148,141.55721 L88.9348073,141.55721 C83.4737577,141.55721 78.9944636,137.195993 78.8386608,131.734668 L78.8348067,131.457209 L78.8348067,89.4768651 C64.7995283,87.920596 53.984805,76.0047955 53.984805,61.7232042 C53.984805,46.3113184 66.522921,33.7732024 81.9348068,33.7732024 C96.1991059,33.7732024 108.125507,44.5682513 109.688263,58.6232041 Z M109.688333,64.8232102 C108.25271,77.7441445 97.9853192,88.034812 85.034807,89.47658 L85.034807,131.457209 C85.034807,133.54217 86.6853915,135.262121 88.7388059,135.352667 L88.9348073,135.357209 L203.624215,135.357209 C204.40612,135.357209 205.159293,135.65271 205.761707,136.212729 L205.914117,136.367777 L226.754617,159.207794 L226.754617,68.7232047 C226.754617,66.5734892 225.004332,64.8232043 222.854616,64.8232043 L109.688333,64.8232043 Z M129.24821,104.068607 L132.95781,104.068607 C133.812495,104.068607 134.50521,104.761322 134.50521,105.616007 L134.50521,113.736008 C134.50521,114.590693 133.812495,115.283408 132.95781,115.283408 L129.24821,115.283408 L129.24821,121.776208 C129.24821,122.630893 128.555495,123.323608 127.70081,123.323608 L118.096809,123.323608 C117.242125,123.323608 116.549409,122.630893 116.549409,121.776208 L116.549409,115.283408 L97.4416374,115.283397 C96.584723,115.287364 95.8896078,114.593477 95.8896078,113.737408 L95.8896078,105.618807 C95.8896078,105.290801 95.9932665,104.970588 96.1865999,104.706236 L115.89715,77.674588 C116.18875,77.2765935 116.6519,77.0402053 117.146209,77.0402053 L127.70081,77.0402053 C128.555495,77.0402053 129.24821,77.7329206 129.24821,78.5876054 L129.24821,104.068607 Z M210.642816,104.068607 L214.352416,104.068607 C215.207101,104.068607 215.899816,104.761322 215.899816,105.616007 L215.899816,113.736008 C215.899816,114.590693 215.207101,115.283408 214.352416,115.283408 L210.642816,115.283408 L210.642816,121.776208 C210.642816,122.630893 209.9501,123.323608 209.095415,123.323608 L199.491415,123.323608 C198.63673,123.323608 197.944015,122.630893 197.944015,121.776208 L197.944015,115.283408 L178.839001,115.283397 C177.980536,115.287335 177.284213,114.594691 177.284213,113.737408 L177.284213,105.618807 C177.284213,105.290801 177.387872,104.970588 177.581205,104.706236 L197.291756,77.674588 C197.583356,77.2765935 198.046506,77.0402053 198.540815,77.0402053 L209.095415,77.0402053 C209.9501,77.0402053 210.642816,77.7329206 210.642816,78.5876054 L210.642816,104.068607 Z M155.709212,76.8554053 C162.036508,76.8554053 166.750966,78.9862442 169.734929,83.2505497 C172.647838,87.4162444 174.090213,93.0039957 174.090213,99.9978068 C174.090213,107.031933 172.648127,112.650845 169.736341,116.835439 C166.75391,121.123059 162.041169,123.263408 155.709212,123.263408 C149.338207,123.263408 144.612825,121.12188 141.65089,116.832854 C138.760169,112.649069 137.329611,107.033058 137.329611,99.9978068 C137.329611,93.0058535 138.76123,87.4190207 141.652158,83.2533291 C144.614789,78.9858193 149.339631,76.8554053 155.709212,76.8554053 Z M155.709212,88.875206 C153.319475,88.875206 151.83039,89.7188895 151.054255,91.4408303 C150.173304,93.392436 149.720411,96.2496086 149.720411,99.9978068 C149.720411,103.788652 150.173581,106.676691 151.056001,108.651073 C151.833086,110.392339 153.321192,111.243608 155.709212,111.243608 C158.052704,111.243608 159.508079,110.397011 160.266902,108.658137 C161.130859,106.681331 161.574812,103.790107 161.574812,99.9978068 C161.574812,96.207322 161.131173,93.3375592 160.269654,91.4053146 C159.513438,89.7066842 158.056185,88.875206 155.709212,88.875206 Z M117.411815,93.3612002 L109.615229,104.070007 L117.411812,104.070007 L117.411815,93.3612002 Z M198.80782,93.3612002 L191.011234,104.070007 L198.807817,104.070007 L198.80782,93.3612002 Z M81.9348068,39.9732027 C69.9430907,39.9732027 60.1848053,49.7314881 60.1848053,61.7232042 C60.1848053,73.7158269 69.9425973,83.4732027 81.9348068,83.4732027 C93.9265229,83.4732027 103.684805,73.7149203 103.684805,61.7232042 C103.684805,49.7314875 93.9265223,39.9732027 81.9348068,39.9732027 Z M82.6320069,67.8254047 C84.5534917,67.8254047 86.112807,69.38472 86.112807,71.3062049 L86.112807,72.4150049 C86.112807,74.3374937 84.553888,75.8958051 82.6320069,75.8958051 L81.2740068,75.8958051 C79.351518,75.8958051 77.7932066,74.3368861 77.7932066,72.4150049 L77.7932066,71.3062049 C77.7932066,69.3837161 79.3521256,67.8254047 81.2740068,67.8254047 L82.6320069,67.8254047 Z M82.6628069,47.5506033 C84.6454889,47.5506033 86.2271634,49.2004059 86.1426833,51.1807757 L85.6092731,63.5822129 C85.5287168,65.4448313 83.9958485,66.9134045 82.1308068,66.9134045 L81.7360068,66.9134045 C79.8719657,66.9134045 78.3380796,65.444432 78.2575304,63.5819766 L77.7241152,51.1804235 C77.6396633,49.2007124 79.2210178,47.5506033 81.2026068,47.5506033 L82.6628069,47.5506033 Z" id="Combined-Shape" stroke="#FFFFFF" stroke-width="2" fill="#BFBFBF" fill-rule="nonzero"></path>
                    <g id="Group" transform="translate(96.800008, 77.700005)"></g>
                    <g id="Group"></g>
                </g>
                <path d="M68,112 C68.6666667,113.08448 69,114.044682 69,114.880606 C69,116.572103 68.3000496,118.100118 67.1739913,119.190809 C68.3000496,120.280487 69,121.808502 69,123.5 C69,125.036645 68.4223406,126.438371 67.4723307,127.499868 C68.4219775,128.560748 69,129.962872 69,131.5 C69,133.036645 68.4223406,134.438371 67.4723307,135.499868 C68.4219775,136.560748 69,137.962872 69,139.5 C69,141.036645 68.4223406,142.438371 67.4723307,143.499868 C68.4219775,144.560748 69,145.962872 69,147.5 C69,149.036645 68.4223406,150.438371 67.4723307,151.499868 C68.4219775,152.560748 69,153.962872 69,155.5 C69,157.036645 68.4223406,158.438371 67.4723307,159.499868 C68.4219775,160.560748 69,161.962872 69,163.5 C69,165.036645 68.4223406,166.438371 67.4723307,167.499868 C68.4219775,168.560748 69,169.962872 69,171.5 C69,173.036645 68.4223406,174.438371 67.4723307,175.499868 C68.4219775,176.560748 69,177.962872 69,179.5 C69,181.036645 68.4223406,182.438371 67.4723307,183.499868 C68.4219775,184.560748 69,185.962872 69,187.5 C69,189.036645 68.4223406,190.438371 67.4723307,191.499868 C68.4219775,192.560748 69,193.962872 69,195.5 C69,197.036645 68.4223406,198.438371 67.4723307,199.499868 C68.4219775,200.560748 69,201.962872 69,203.5 C69,205.036645 68.4223406,206.438371 67.4723307,207.499868 C68.4219775,208.560748 69,209.962872 69,211.5 C69,213.036645 68.4223406,214.438371 67.4723307,215.499868 C68.4219775,216.560748 69,217.962872 69,219.5 C69,221.036645 68.4223406,222.438371 67.4723307,223.499868 C68.4219775,224.560748 69,225.962872 69,227.5 C69,228.857876 68.5489289,230.1104 67.7884533,231.115903 C69.144273,232.306579 70,234.053357 70,236 C70,237.525748 69.4711443,238.971452 68.5255799,240.122618 L68.3309441,240.348861 L66.8448747,239.010355 C67.584494,238.189196 68,237.128271 68,236 C68,234.584071 67.3460479,233.320882 66.3236979,232.495985 C65.3721108,233.130354 64.2292231,233.5 63,233.5 C62.0229316,233.5 61.1004111,233.266453 60.2852175,232.852138 C59.4902025,233.662687 59,234.774097 59,236 C59,237.074844 59.3772348,238.088347 60.0512499,238.890953 L60.2120235,239.072358 L58.7510567,240.438219 C57.6335164,239.242864 57,237.669751 57,236 C57,234.327709 57.6315184,232.802917 58.6690804,231.6511 C57.6350453,230.574008 57,229.111165 57,227.5 C57,225.962872 57.5780225,224.560748 58.5285648,223.499131 C57.5776594,222.438371 57,221.036645 57,219.5 C57,217.962872 57.5780225,216.560748 58.5285648,215.499131 C57.5776594,214.438371 57,213.036645 57,211.5 C57,209.962872 57.5780225,208.560748 58.5285648,207.499131 C57.5776594,206.438371 57,205.036645 57,203.5 C57,201.962872 57.5780225,200.560748 58.5285648,199.499131 C57.5776594,198.438371 57,197.036645 57,195.5 C57,193.962872 57.5780225,192.560748 58.5285648,191.499131 C57.5776594,190.438371 57,189.036645 57,187.5 C57,185.962872 57.5780225,184.560748 58.5285648,183.499131 C57.5776594,182.438371 57,181.036645 57,179.5 C57,177.962872 57.5780225,176.560748 58.5285648,175.499131 C57.5776594,174.438371 57,173.036645 57,171.5 C57,169.962872 57.5780225,168.560748 58.5285648,167.499131 C57.5776594,166.438371 57,165.036645 57,163.5 C57,161.962872 57.5780225,160.560748 58.5285648,159.499131 C57.5776594,158.438371 57,157.036645 57,155.5 C57,153.962872 57.5780225,152.560748 58.5285648,151.499131 C57.5776594,150.438371 57,149.036645 57,147.5 C57,145.962872 57.5780225,144.560748 58.5285648,143.499131 C57.5776594,142.438371 57,141.036645 57,139.5 C57,137.962872 57.5780225,136.560748 58.5285648,135.499131 C57.5776594,134.438371 57,133.036645 57,131.5 C57,129.962872 57.5780225,128.560748 58.5285648,127.499131 C57.5776594,126.438371 57,125.036645 57,123.5 C57,121.808502 57.6999504,120.280487 58.8260087,119.189797 C57.6999504,118.100118 57,116.572103 57,114.880606 C57,114.049709 57.3576114,113.095303 58.0728343,112.017389 L58.0728343,112.017389 L65.5958922,112.004211 Z M65.905636,224.750936 L65.7197417,224.849614 C64.9033311,225.265505 63.9790502,225.5 63,225.5 C61.9460409,225.5 60.9555529,225.228248 60.0947815,224.750991 C59.4160134,225.467674 59,226.435255 59,227.5 C59,228.632463 59.4706126,229.655008 60.2269361,230.382734 C61.1882523,229.821632 62.3065655,229.5 63.5,229.5 C64.420721,229.5 65.2967303,229.691434 66.0903967,230.03667 C66.6591937,229.347818 67,228.463709 67,227.5 C67,226.435255 66.5839866,225.467674 65.905636,224.750936 Z M65.905636,216.750936 L65.7197417,216.849614 C64.9033311,217.265505 63.9790502,217.5 63,217.5 C61.9460409,217.5 60.9555529,217.228248 60.0947815,216.750991 C59.4160134,217.467674 59,218.435255 59,219.5 C59,220.564745 59.4160134,221.532326 60.094364,222.249064 C60.9555529,221.771752 61.9460409,221.5 63,221.5 C64.0539591,221.5 65.0444471,221.771752 65.9052185,222.249009 C66.5839866,221.532326 67,220.564745 67,219.5 C67,218.435255 66.5839866,217.467674 65.905636,216.750936 Z M65.905636,208.750936 L65.7197417,208.849614 C64.9033311,209.265505 63.9790502,209.5 63,209.5 C61.9460409,209.5 60.9555529,209.228248 60.0947815,208.750991 C59.4160134,209.467674 59,210.435255 59,211.5 C59,212.564745 59.4160134,213.532326 60.094364,214.249064 C60.9555529,213.771752 61.9460409,213.5 63,213.5 C64.0539591,213.5 65.0444471,213.771752 65.9052185,214.249009 C66.5839866,213.532326 67,212.564745 67,211.5 C67,210.435255 66.5839866,209.467674 65.905636,208.750936 Z M65.905636,200.750936 L65.7197417,200.849614 C64.9033311,201.265505 63.9790502,201.5 63,201.5 C61.9460409,201.5 60.9555529,201.228248 60.0947815,200.750991 C59.4160134,201.467674 59,202.435255 59,203.5 C59,204.564745 59.4160134,205.532326 60.094364,206.249064 C60.9555529,205.771752 61.9460409,205.5 63,205.5 C64.0539591,205.5 65.0444471,205.771752 65.9052185,206.249009 C66.5839866,205.532326 67,204.564745 67,203.5 C67,202.435255 66.5839866,201.467674 65.905636,200.750936 Z M65.905636,192.750936 L65.7197417,192.849614 C64.9033311,193.265505 63.9790502,193.5 63,193.5 C61.9460409,193.5 60.9555529,193.228248 60.0947815,192.750991 C59.4160134,193.467674 59,194.435255 59,195.5 C59,196.564745 59.4160134,197.532326 60.094364,198.249064 C60.9555529,197.771752 61.9460409,197.5 63,197.5 C64.0539591,197.5 65.0444471,197.771752 65.9052185,198.249009 C66.5839866,197.532326 67,196.564745 67,195.5 C67,194.435255 66.5839866,193.467674 65.905636,192.750936 Z M65.905636,184.750936 L65.7197417,184.849614 C64.9033311,185.265505 63.9790502,185.5 63,185.5 C61.9460409,185.5 60.9555529,185.228248 60.0947815,184.750991 C59.4160134,185.467674 59,186.435255 59,187.5 C59,188.564745 59.4160134,189.532326 60.094364,190.249064 C60.9555529,189.771752 61.9460409,189.5 63,189.5 C64.0539591,189.5 65.0444471,189.771752 65.9052185,190.249009 C66.5839866,189.532326 67,188.564745 67,187.5 C67,186.435255 66.5839866,185.467674 65.905636,184.750936 Z M65.905636,176.750936 L65.7197417,176.849614 C64.9033311,177.265505 63.9790502,177.5 63,177.5 C61.9460409,177.5 60.9555529,177.228248 60.0947815,176.750991 C59.4160134,177.467674 59,178.435255 59,179.5 C59,180.564745 59.4160134,181.532326 60.094364,182.249064 C60.9555529,181.771752 61.9460409,181.5 63,181.5 C64.0539591,181.5 65.0444471,181.771752 65.9052185,182.249009 C66.5839866,181.532326 67,180.564745 67,179.5 C67,178.435255 66.5839866,177.467674 65.905636,176.750936 Z M65.905636,168.750936 L65.7197417,168.849614 C64.9033311,169.265505 63.9790502,169.5 63,169.5 C61.9460409,169.5 60.9555529,169.228248 60.0947815,168.750991 C59.4160134,169.467674 59,170.435255 59,171.5 C59,172.564745 59.4160134,173.532326 60.094364,174.249064 C60.9555529,173.771752 61.9460409,173.5 63,173.5 C64.0539591,173.5 65.0444471,173.771752 65.9052185,174.249009 C66.5839866,173.532326 67,172.564745 67,171.5 C67,170.435255 66.5839866,169.467674 65.905636,168.750936 Z M65.905636,160.750936 L65.7197417,160.849614 C64.9033311,161.265505 63.9790502,161.5 63,161.5 C61.9460409,161.5 60.9555529,161.228248 60.0947815,160.750991 C59.4160134,161.467674 59,162.435255 59,163.5 C59,164.564745 59.4160134,165.532326 60.094364,166.249064 C60.9555529,165.771752 61.9460409,165.5 63,165.5 C64.0539591,165.5 65.0444471,165.771752 65.9052185,166.249009 C66.5839866,165.532326 67,164.564745 67,163.5 C67,162.435255 66.5839866,161.467674 65.905636,160.750936 Z M65.905636,152.750936 L65.7197417,152.849614 C64.9033311,153.265505 63.9790502,153.5 63,153.5 C61.9460409,153.5 60.9555529,153.228248 60.0947815,152.750991 C59.4160134,153.467674 59,154.435255 59,155.5 C59,156.564745 59.4160134,157.532326 60.094364,158.249064 C60.9555529,157.771752 61.9460409,157.5 63,157.5 C64.0539591,157.5 65.0444471,157.771752 65.9052185,158.249009 C66.5839866,157.532326 67,156.564745 67,155.5 C67,154.435255 66.5839866,153.467674 65.905636,152.750936 Z M65.905636,144.750936 L65.7197417,144.849614 C64.9033311,145.265505 63.9790502,145.5 63,145.5 C61.9460409,145.5 60.9555529,145.228248 60.0947815,144.750991 C59.4160134,145.467674 59,146.435255 59,147.5 C59,148.564745 59.4160134,149.532326 60.094364,150.249064 C60.9555529,149.771752 61.9460409,149.5 63,149.5 C64.0539591,149.5 65.0444471,149.771752 65.9052185,150.249009 C66.5839866,149.532326 67,148.564745 67,147.5 C67,146.435255 66.5839866,145.467674 65.905636,144.750936 Z M65.905636,136.750936 L65.7197417,136.849614 C64.9033311,137.265505 63.9790502,137.5 63,137.5 C61.9460409,137.5 60.9555529,137.228248 60.0947815,136.750991 C59.4160134,137.467674 59,138.435255 59,139.5 C59,140.564745 59.4160134,141.532326 60.094364,142.249064 C60.9555529,141.771752 61.9460409,141.5 63,141.5 C64.0539591,141.5 65.0444471,141.771752 65.9052185,142.249009 C66.5839866,141.532326 67,140.564745 67,139.5 C67,138.435255 66.5839866,137.467674 65.905636,136.750936 Z M65.905636,128.750936 L65.7197417,128.849614 C64.9033311,129.265505 63.9790502,129.5 63,129.5 C61.9460409,129.5 60.9555529,129.228248 60.0947815,128.750991 C59.4160134,129.467674 59,130.435255 59,131.5 C59,132.564745 59.4160134,133.532326 60.094364,134.249064 C60.9555529,133.771752 61.9460409,133.5 63,133.5 C64.0539591,133.5 65.0444471,133.771752 65.9052185,134.249009 C66.5839866,133.532326 67,132.564745 67,131.5 C67,130.435255 66.5839866,129.467674 65.905636,128.750936 Z M65.466143,120.350471 L65.3354708,120.409096 C64.6176407,120.712712 63.8284271,120.880606 63,120.880606 C62.1211064,120.880606 61.2863495,120.691634 60.5341439,120.352104 C59.6000151,121.082714 59,122.221287 59,123.5 C59,124.564745 59.4160134,125.532326 60.094364,126.249064 C60.9555529,125.771752 61.9460409,125.5 63,125.5 C64.0539591,125.5 65.0444471,125.771752 65.9052185,126.249009 C66.5839866,125.532326 67,124.564745 67,123.5 C67,122.221287 66.3999849,121.082714 65.466143,120.350471 Z M60.8598615,112.50068 C59.6199538,113.139331 59,113.93264 59,114.880606 C59,116.158867 59.5995907,117.297086 60.5328661,118.029357 C61.2856121,117.689139 62.1207182,117.5 63,117.5 C63.8792818,117.5 64.7143879,117.689139 65.4668528,118.028951 C66.4004093,117.297086 67,116.158867 67,114.880606 C67,113.936228 66.3842724,113.145613 65.1528172,112.508758 L65.1528172,112.508758 Z" id="Combined-Shape" fill="#BFBFBF" fill-rule="nonzero"></path>
                <path d="M68,0 C68.6666667,1.0844799 69,2.04468173 69,2.88060551 C69,4.57210307 68.3000496,6.10011846 67.1739913,7.190809 C68.3000496,8.28048705 69,9.80850243 69,11.5 C69,13.0366454 68.4223406,14.4383712 67.4723307,15.4998685 C68.4219775,16.560748 69,17.9628718 69,19.5 C69,21.0366454 68.4223406,22.4383712 67.4723307,23.4998685 C68.4219775,24.560748 69,25.9628718 69,27.5 C69,29.0366454 68.4223406,30.4383712 67.4723307,31.4998685 C68.4219775,32.560748 69,33.9628718 69,35.5 C69,37.0366454 68.4223406,38.4383712 67.4723307,39.4998685 C68.4219775,40.560748 69,41.9628718 69,43.5 C69,45.0366454 68.4223406,46.4383712 67.4723307,47.4998685 C68.4219775,48.560748 69,49.9628718 69,51.5 C69,53.0366454 68.4223406,54.4383712 67.4723307,55.4998685 C68.4219775,56.560748 69,57.9628718 69,59.5 C69,61.0366454 68.4223406,62.4383712 67.4723307,63.4998685 C68.4219775,64.560748 69,65.9628718 69,67.5 C69,69.0366454 68.4223406,70.4383712 67.4723307,71.4998685 C68.4219775,72.560748 69,73.9628718 69,75.5 C69,77.0366454 68.4223406,78.4383712 67.4723307,79.4998685 C68.4219775,80.560748 69,81.9628718 69,83.5 C69,85.0366454 68.4223406,86.4383712 67.4723307,87.4998685 C68.4219775,88.560748 69,89.9628718 69,91.5 C69,93.0366454 68.4223406,94.4383712 67.4723307,95.4998685 C68.4219775,96.560748 69,97.9628718 69,99.5 C69,101.036645 68.4223406,102.438371 67.4723307,103.499868 C68.4219775,104.560748 69,105.962872 69,107.5 C69,109.036645 68.4223406,110.438371 67.4723307,111.499868 C68.4219775,112.560748 69,113.962872 69,115.5 C69,116.857876 68.5489289,118.1104 67.7884533,119.115903 C69.144273,120.306579 70,122.053357 70,124 C70,125.525748 69.4711443,126.971452 68.5255799,128.122618 L68.3309441,128.348861 L66.8448747,127.010355 C67.584494,126.189196 68,125.128271 68,124 C68,122.584071 67.3460479,121.320882 66.3236979,120.495985 C65.3721108,121.130354 64.2292231,121.5 63,121.5 C62.0229316,121.5 61.1004111,121.266453 60.2852175,120.852138 C59.4902025,121.662687 59,122.774097 59,124 C59,125.074844 59.3772348,126.088347 60.0512499,126.890953 L60.2120235,127.072358 L58.7510567,128.438219 C57.6335164,127.242864 57,125.669751 57,124 C57,122.327709 57.6315184,120.802917 58.6690804,119.6511 C57.6350453,118.574008 57,117.111165 57,115.5 C57,113.962872 57.5780225,112.560748 58.5285648,111.499131 C57.5776594,110.438371 57,109.036645 57,107.5 C57,105.962872 57.5780225,104.560748 58.5285648,103.499131 C57.5776594,102.438371 57,101.036645 57,99.5 C57,97.9628718 57.5780225,96.560748 58.5285648,95.4991311 C57.5776594,94.4383712 57,93.0366454 57,91.5 C57,89.9628718 57.5780225,88.560748 58.5285648,87.4991311 C57.5776594,86.4383712 57,85.0366454 57,83.5 C57,81.9628718 57.5780225,80.560748 58.5285648,79.4991311 C57.5776594,78.4383712 57,77.0366454 57,75.5 C57,73.9628718 57.5780225,72.560748 58.5285648,71.4991311 C57.5776594,70.4383712 57,69.0366454 57,67.5 C57,65.9628718 57.5780225,64.560748 58.5285648,63.4991311 C57.5776594,62.4383712 57,61.0366454 57,59.5 C57,57.9628718 57.5780225,56.560748 58.5285648,55.4991311 C57.5776594,54.4383712 57,53.0366454 57,51.5 C57,49.9628718 57.5780225,48.560748 58.5285648,47.4991311 C57.5776594,46.4383712 57,45.0366454 57,43.5 C57,41.9628718 57.5780225,40.560748 58.5285648,39.4991311 C57.5776594,38.4383712 57,37.0366454 57,35.5 C57,33.9628718 57.5780225,32.560748 58.5285648,31.4991311 C57.5776594,30.4383712 57,29.0366454 57,27.5 C57,25.9628718 57.5780225,24.560748 58.5285648,23.4991311 C57.5776594,22.4383712 57,21.0366454 57,19.5 C57,17.9628718 57.5780225,16.560748 58.5285648,15.4991311 C57.5776594,14.4383712 57,13.0366454 57,11.5 C57,9.80850243 57.6999504,8.28048705 58.8260087,7.18979651 C57.6999504,6.10011846 57,4.57210307 57,2.88060551 C57,2.04970853 57.3576114,1.09530294 58.0728343,0.017388735 L58.0728343,0.017388735 L65.5958922,0.00421111071 Z M65.905636,112.750936 L65.7197417,112.849614 C64.9033311,113.265505 63.9790502,113.5 63,113.5 C61.9460409,113.5 60.9555529,113.228248 60.0947815,112.750991 C59.4160134,113.467674 59,114.435255 59,115.5 C59,116.632463 59.4706126,117.655008 60.2269361,118.382734 C61.1882523,117.821632 62.3065655,117.5 63.5,117.5 C64.420721,117.5 65.2967303,117.691434 66.0903967,118.03667 C66.6591937,117.347818 67,116.463709 67,115.5 C67,114.435255 66.5839866,113.467674 65.905636,112.750936 Z M65.905636,104.750936 L65.7197417,104.849614 C64.9033311,105.265505 63.9790502,105.5 63,105.5 C61.9460409,105.5 60.9555529,105.228248 60.0947815,104.750991 C59.4160134,105.467674 59,106.435255 59,107.5 C59,108.564745 59.4160134,109.532326 60.094364,110.249064 C60.9555529,109.771752 61.9460409,109.5 63,109.5 C64.0539591,109.5 65.0444471,109.771752 65.9052185,110.249009 C66.5839866,109.532326 67,108.564745 67,107.5 C67,106.435255 66.5839866,105.467674 65.905636,104.750936 Z M65.905636,96.7509355 L65.7197417,96.8496144 C64.9033311,97.2655045 63.9790502,97.5 63,97.5 C61.9460409,97.5 60.9555529,97.2282485 60.0947815,96.7509911 C59.4160134,97.4676744 59,98.4352546 59,99.5 C59,100.564745 59.4160134,101.532326 60.094364,102.249064 C60.9555529,101.771752 61.9460409,101.5 63,101.5 C64.0539591,101.5 65.0444471,101.771752 65.9052185,102.249009 C66.5839866,101.532326 67,100.564745 67,99.5 C67,98.4352546 66.5839866,97.4676744 65.905636,96.7509355 Z M65.905636,88.7509355 L65.7197417,88.8496144 C64.9033311,89.2655045 63.9790502,89.5 63,89.5 C61.9460409,89.5 60.9555529,89.2282485 60.0947815,88.7509911 C59.4160134,89.4676744 59,90.4352546 59,91.5 C59,92.5647454 59.4160134,93.5323256 60.094364,94.2490645 C60.9555529,93.7717515 61.9460409,93.5 63,93.5 C64.0539591,93.5 65.0444471,93.7717515 65.9052185,94.2490089 C66.5839866,93.5323256 67,92.5647454 67,91.5 C67,90.4352546 66.5839866,89.4676744 65.905636,88.7509355 Z M65.905636,80.7509355 L65.7197417,80.8496144 C64.9033311,81.2655045 63.9790502,81.5 63,81.5 C61.9460409,81.5 60.9555529,81.2282485 60.0947815,80.7509911 C59.4160134,81.4676744 59,82.4352546 59,83.5 C59,84.5647454 59.4160134,85.5323256 60.094364,86.2490645 C60.9555529,85.7717515 61.9460409,85.5 63,85.5 C64.0539591,85.5 65.0444471,85.7717515 65.9052185,86.2490089 C66.5839866,85.5323256 67,84.5647454 67,83.5 C67,82.4352546 66.5839866,81.4676744 65.905636,80.7509355 Z M65.905636,72.7509355 L65.7197417,72.8496144 C64.9033311,73.2655045 63.9790502,73.5 63,73.5 C61.9460409,73.5 60.9555529,73.2282485 60.0947815,72.7509911 C59.4160134,73.4676744 59,74.4352546 59,75.5 C59,76.5647454 59.4160134,77.5323256 60.094364,78.2490645 C60.9555529,77.7717515 61.9460409,77.5 63,77.5 C64.0539591,77.5 65.0444471,77.7717515 65.9052185,78.2490089 C66.5839866,77.5323256 67,76.5647454 67,75.5 C67,74.4352546 66.5839866,73.4676744 65.905636,72.7509355 Z M65.905636,64.7509355 L65.7197417,64.8496144 C64.9033311,65.2655045 63.9790502,65.5 63,65.5 C61.9460409,65.5 60.9555529,65.2282485 60.0947815,64.7509911 C59.4160134,65.4676744 59,66.4352546 59,67.5 C59,68.5647454 59.4160134,69.5323256 60.094364,70.2490645 C60.9555529,69.7717515 61.9460409,69.5 63,69.5 C64.0539591,69.5 65.0444471,69.7717515 65.9052185,70.2490089 C66.5839866,69.5323256 67,68.5647454 67,67.5 C67,66.4352546 66.5839866,65.4676744 65.905636,64.7509355 Z M65.905636,56.7509355 L65.7197417,56.8496144 C64.9033311,57.2655045 63.9790502,57.5 63,57.5 C61.9460409,57.5 60.9555529,57.2282485 60.0947815,56.7509911 C59.4160134,57.4676744 59,58.4352546 59,59.5 C59,60.5647454 59.4160134,61.5323256 60.094364,62.2490645 C60.9555529,61.7717515 61.9460409,61.5 63,61.5 C64.0539591,61.5 65.0444471,61.7717515 65.9052185,62.2490089 C66.5839866,61.5323256 67,60.5647454 67,59.5 C67,58.4352546 66.5839866,57.4676744 65.905636,56.7509355 Z M65.905636,48.7509355 L65.7197417,48.8496144 C64.9033311,49.2655045 63.9790502,49.5 63,49.5 C61.9460409,49.5 60.9555529,49.2282485 60.0947815,48.7509911 C59.4160134,49.4676744 59,50.4352546 59,51.5 C59,52.5647454 59.4160134,53.5323256 60.094364,54.2490645 C60.9555529,53.7717515 61.9460409,53.5 63,53.5 C64.0539591,53.5 65.0444471,53.7717515 65.9052185,54.2490089 C66.5839866,53.5323256 67,52.5647454 67,51.5 C67,50.4352546 66.5839866,49.4676744 65.905636,48.7509355 Z M65.905636,40.7509355 L65.7197417,40.8496144 C64.9033311,41.2655045 63.9790502,41.5 63,41.5 C61.9460409,41.5 60.9555529,41.2282485 60.0947815,40.7509911 C59.4160134,41.4676744 59,42.4352546 59,43.5 C59,44.5647454 59.4160134,45.5323256 60.094364,46.2490645 C60.9555529,45.7717515 61.9460409,45.5 63,45.5 C64.0539591,45.5 65.0444471,45.7717515 65.9052185,46.2490089 C66.5839866,45.5323256 67,44.5647454 67,43.5 C67,42.4352546 66.5839866,41.4676744 65.905636,40.7509355 Z M65.905636,32.7509355 L65.7197417,32.8496144 C64.9033311,33.2655045 63.9790502,33.5 63,33.5 C61.9460409,33.5 60.9555529,33.2282485 60.0947815,32.7509911 C59.4160134,33.4676744 59,34.4352546 59,35.5 C59,36.5647454 59.4160134,37.5323256 60.094364,38.2490645 C60.9555529,37.7717515 61.9460409,37.5 63,37.5 C64.0539591,37.5 65.0444471,37.7717515 65.9052185,38.2490089 C66.5839866,37.5323256 67,36.5647454 67,35.5 C67,34.4352546 66.5839866,33.4676744 65.905636,32.7509355 Z M65.905636,24.7509355 L65.7197417,24.8496144 C64.9033311,25.2655045 63.9790502,25.5 63,25.5 C61.9460409,25.5 60.9555529,25.2282485 60.0947815,24.7509911 C59.4160134,25.4676744 59,26.4352546 59,27.5 C59,28.5647454 59.4160134,29.5323256 60.094364,30.2490645 C60.9555529,29.7717515 61.9460409,29.5 63,29.5 C64.0539591,29.5 65.0444471,29.7717515 65.9052185,30.2490089 C66.5839866,29.5323256 67,28.5647454 67,27.5 C67,26.4352546 66.5839866,25.4676744 65.905636,24.7509355 Z M65.905636,16.7509355 L65.7197417,16.8496144 C64.9033311,17.2655045 63.9790502,17.5 63,17.5 C61.9460409,17.5 60.9555529,17.2282485 60.0947815,16.7509911 C59.4160134,17.4676744 59,18.4352546 59,19.5 C59,20.5647454 59.4160134,21.5323256 60.094364,22.2490645 C60.9555529,21.7717515 61.9460409,21.5 63,21.5 C64.0539591,21.5 65.0444471,21.7717515 65.9052185,22.2490089 C66.5839866,21.5323256 67,20.5647454 67,19.5 C67,18.4352546 66.5839866,17.4676744 65.905636,16.7509355 Z M65.466143,8.35047146 L65.3354708,8.40909577 C64.6176407,8.71271229 63.8284271,8.88060551 63,8.88060551 C62.1211064,8.88060551 61.2863495,8.69163363 60.5341439,8.35210445 C59.6000151,9.08271436 59,10.2212867 59,11.5 C59,12.5647454 59.4160134,13.5323256 60.094364,14.2490645 C60.9555529,13.7717515 61.9460409,13.5 63,13.5 C64.0539591,13.5 65.0444471,13.7717515 65.9052185,14.2490089 C66.5839866,13.5323256 67,12.5647454 67,11.5 C67,10.2212867 66.3999849,9.08271436 65.466143,8.35047146 Z M60.8598615,0.500679693 C59.6199538,1.13933133 59,1.93263993 59,2.88060551 C59,4.15886653 59.5995907,5.29708563 60.5328661,6.02935684 C61.2856121,5.68913885 62.1207182,5.5 63,5.5 C63.8792818,5.5 64.7143879,5.68913885 65.4668528,6.02895105 C66.4004093,5.29708563 67,4.15886653 67,2.88060551 C67,1.93622833 66.3842724,1.1456125 65.1528172,0.508758017 L65.1528172,0.508758017 Z" id="Combined-Shape-Copy" fill="#BFBFBF" fill-rule="nonzero"></path>
            </g>
        </g>
    </g>
</svg>