<?xml version="1.0" encoding="UTF-8"?>
<svg width="40px" height="39px" viewBox="0 0 40 39" version="1.1" xmlns="http://www.w3.org/2000/svg" xmlns:xlink="http://www.w3.org/1999/xlink">
    <title>Behance Copy</title>
    <g id="Final" stroke="none" stroke-width="1" fill="none" fill-rule="evenodd">
        <g id="Blog-HTML" transform="translate(-400.000000, -449.000000)" fill-rule="nonzero">
            <g id="Group-14" transform="translate(119.000000, -409.000000)">
                <g id="Group-11" transform="translate(0.000000, 644.000000)">
                    <g id="Behance-Copy" transform="translate(281.399997, 214.000000)">
                        <path d="M0,19.1999989 C0,8.59613178 8.59613178,0 19.1999989,0 C29.8038659,0 38.3999977,8.59613178 38.3999977,19.1999989 C38.3999977,29.8038659 29.8038659,38.3999977 19.1999989,38.3999977 C8.59613178,38.3999977 0,29.8038659 0,19.1999989 Z" id="back" fill="#1769FF"></path>
                        <path d="M22.0466195,14.9359063 L27.4700771,14.9359063 L27.4700771,13.3820874 L22.0466195,13.3820874 L22.0466195,14.9359063 L22.0466195,14.9359063 Z M23.3314395,18.3262727 C22.9858506,18.6779014 22.7679009,19.1542634 22.6787943,19.7553584 L26.8969053,19.7553584 C26.852352,19.1138735 26.6331981,18.6291961 26.2454642,18.2953864 C25.8529138,17.9639525 25.3700526,17.7988296 24.7920643,17.7988296 C24.1659102,17.7988296 23.6770284,17.9746439 23.3314395,18.3262727 L23.3314395,18.3262727 L23.3314395,18.3262727 Z M26.9920325,16.2402589 C27.6458819,16.5277392 28.1841336,16.9839062 28.6079917,17.6063841 C28.9945214,18.1552101 29.2425748,18.7919432 29.3557641,19.5153956 C29.421992,19.9383004 29.4484831,20.5512749 29.4376459,21.3483792 L22.6185872,21.3483792 C22.659528,22.2737806 22.9822382,22.923581 23.5987591,23.2954046 C23.9720433,23.527052 24.4211884,23.6434696 24.9486028,23.6434696 C25.5037125,23.6434696 25.9576742,23.5021054 26.3056713,23.2205648 C26.49713,23.0673211 26.6657099,22.8558687 26.810207,22.5850195 L29.3088026,22.5850195 C29.2425748,23.1314696 28.9391309,23.6886111 28.4020833,24.2540682 C27.5640002,25.1509591 26.3899613,25.5999985 24.8811708,25.5999985 C23.6348834,25.5999985 22.5355014,25.2222352 21.585433,24.4643326 C20.630548,23.7076181 20.1561159,22.4745416 20.1561159,20.768667 C20.1561159,19.1685186 20.5859947,17.9413818 21.4445483,17.0872565 C22.3055102,16.2355071 23.4193419,15.8066626 24.7908602,15.8066626 C25.6060646,15.8066626 26.3393874,15.9515907 26.9920325,16.2402589 L26.9920325,16.2402589 L26.9920325,16.2402589 Z M11.4826779,19.7886206 L11.4826779,23.1184023 L14.5556494,23.1184023 C15.1047384,23.1184023 15.533413,23.0447504 15.8380611,22.8986343 C16.3931707,22.6254093 16.6701236,22.1074697 16.6701236,21.3400637 C16.6701236,20.6890753 16.4028039,20.2435998 15.8645522,20.000073 C15.5635166,19.8646485 15.1408626,19.7933724 14.5989985,19.7886206 L11.4826779,19.7886206 L11.4826779,19.7886206 Z M11.4826779,14.9679805 L11.4826779,17.7228018 L14.5604659,17.7228018 C15.1083508,17.7228018 15.5550876,17.6194514 15.8994723,17.4127507 C16.2414488,17.20605 16.4136412,16.840166 16.4136412,16.3174747 C16.4136412,15.7341986 16.1872624,15.3504956 15.7345049,15.1628019 C15.3419544,15.033317 14.8434394,14.9679805 14.2377558,14.9679805 L11.4826779,14.9679805 L11.4826779,14.9679805 Z M18.3559229,14.1304864 C18.7424526,14.6614933 18.9363196,15.2958506 18.9363196,16.0359341 C18.9363196,16.7974004 18.7424526,17.4115627 18.3511064,17.8748574 C18.1319525,18.1338272 17.8104464,18.3714142 17.3853841,18.5852425 C18.0308045,18.8180778 18.517278,19.1851496 18.8484172,19.6876462 C19.1759439,20.1889547 19.3409115,20.7995533 19.3409115,21.517066 C19.3409115,22.2571495 19.1530652,22.9212052 18.7761687,23.508045 C18.5377485,23.8964998 18.2391212,24.2243698 17.8802867,24.4904672 C17.4768989,24.7957665 17.0012627,25.0036551 16.4509696,25.1176969 C15.9006765,25.2305507 15.3058301,25.2851957 14.6628181,25.2851957 L8.95999947,25.2851957 L8.95999947,12.7999992 L15.0758389,12.7999992 C16.6195495,12.82257 17.7117067,13.2656697 18.3559229,14.1304864 L18.3559229,14.1304864 L18.3559229,14.1304864 Z" id="Shape" fill="#FFFFFF"></path>
                    </g>
                </g>
            </g>
        </g>
    </g>
</svg>