<?xml version="1.0" encoding="UTF-8"?>
<svg width="1440px" height="555px" viewBox="0 0 1440 555" version="1.1" xmlns="http://www.w3.org/2000/svg" xmlns:xlink="http://www.w3.org/1999/xlink">
    <!-- Generator: Sketch 61 (89581) - https://sketch.com -->
    <title>Cloud</title>
    <desc>Created with Sketch.</desc>
    <g id="Page-1" stroke="none" stroke-width="1" fill="none" fill-rule="evenodd">
        <g id="Technologies-Copy-2" transform="translate(0.000000, -345.000000)" fill="#FAFAFA">
            <path d="M1356.768,505.2432 C1336.2048,482.6928 1291.2192,495.8544 1286.0352,525.8928 C1270.656,498.3888 1218.4128,513.6816 1220.2848,545.16 C1217.6064,486.8112 1168.7904,433.992 1110.8448,426.7344 C1052.8992,419.4768 992.5632,458.616 975.6,514.5168 C958.6368,570.3888 987.0048,636.4848 1039.1904,662.6928 C994.2624,651.4032 946.3104,700.0752 958.2912,744.8304 C942.7968,730.8624 917.568,729.2496 900.432,741.1152 C897.3216,743.2752 894.6144,745.752 892.2816,748.488 C881.6256,760.872 878.4576,778.5552 881.91072,794.5104 C860.976,773.688 826.7904,766.0272 802.2528,785.9568 C798.2928,789.17376 794.91456,793.0128 792.09504,797.232 C771.2208,797.46528 750.384,804.91872 734.4144,818.35392 C732.78144,817.53888 731.15424,816.71808 729.50688,815.94624 C738.35136,767.12736 675.66528,736.02624 641.4912,778.2384 C643.1904,738.2064 592.704,706.6128 557.4528,725.6208 C543.3696,684.6384 481.392,671.16 451.5552,702.6096 C522.576,629.8032 498.3552,489.432 407.0592,444.6192 C317.376,400.584 194.3424,464.2032 176.6304,561.9504 C180.8352,522.0336 129.6288,485.9472 93.8304,506.28 C105.4368,487.272 97.7184,459.1632 78.048,448.7376 C58.3488,438.2832 30.7872,447.6432 21.5136,467.9184 C30.2112,425.8416 21.0816,382.2096 0,345 L0,900 L1440,900 L1440,360.1488 C1429.1712,362.7984 1418.6592,366.8304 1408.83552,372.3888 C1363.6512,397.848 1337.9616,456.888 1356.768,505.2432 Z" id="Cloud"></path>
        </g>
    </g>
</svg>