<?xml version="1.0" encoding="UTF-8"?>
<svg width="40px" height="39px" viewBox="0 0 40 39" version="1.1" xmlns="http://www.w3.org/2000/svg" xmlns:xlink="http://www.w3.org/1999/xlink">
    <title>Facebook Copy</title>
    <g id="Final" stroke="none" stroke-width="1" fill="none" fill-rule="evenodd">
        <g id="Blog-HTML" transform="translate(-446.000000, -449.000000)" fill-rule="nonzero">
            <g id="Group-14" transform="translate(119.000000, -409.000000)">
                <g id="Group-11" transform="translate(0.000000, 644.000000)">
                    <g id="Facebook-Copy" transform="translate(327.799994, 214.000000)">
                        <path d="M0,19.1999989 C0,8.59613178 8.59613178,0 19.1999989,0 C29.8038659,0 38.3999977,8.59613178 38.3999977,19.1999989 C38.3999977,29.8038659 29.8038659,38.3999977 19.1999989,38.3999977 C8.59613178,38.3999977 0,29.8038659 0,19.1999989 Z" id="back" fill="#3B5998"></path>
                        <path d="M21.2012428,30.4891796 L21.2012428,20.0433665 L24.084744,20.0433665 L24.4668702,16.4436815 L21.2012428,16.4436815 L21.2061418,14.6420044 C21.2061418,13.7031512 21.2953455,13.2000921 22.6438099,13.2000921 L24.4464575,13.2000921 L24.4464575,9.59999943 L21.562548,9.59999943 C18.0985089,9.59999943 16.879257,11.3462339 16.879257,14.2828513 L16.879257,16.4440891 L14.7199991,16.4440891 L14.7199991,20.0437742 L16.879257,20.0437742 L16.879257,30.4891796 L21.2012428,30.4891796 Z" id="Shape" fill="#FFFFFF"></path>
                    </g>
                </g>
            </g>
        </g>
    </g>
</svg>