<?xml version="1.0" encoding="UTF-8"?>
<svg width="470px" height="133px" viewBox="0 0 470 133" version="1.1" xmlns="http://www.w3.org/2000/svg" xmlns:xlink="http://www.w3.org/1999/xlink">
    <title>Group</title>
    <g id="Page-1" stroke="none" stroke-width="1" fill="none" fill-rule="evenodd">
        <g id="Group" fill-rule="nonzero">
            <path d="M39.33,133 L39.33,13.49 L63.84,13.49 L63.84,0 L2.84217094e-14,0 L2.84217094e-14,13.49 L24.51,13.49 L24.51,133 L39.33,133 Z M84.92,133 L84.92,73.15 L117.6,73.15 L117.6,133 L132.42,133 L132.42,0 L117.6,0 L117.6,59.85 L84.92,59.85 L84.92,0 L70.1,0 L70.1,133 L84.92,133 Z M153.5,133 L158.63,106.21 L192.26,106.21 L197.39,133 L212.21,133 L186.75,0 L165.28,0 L139.82,133 L153.5,133 Z M190.17,93.48 L160.53,93.48 L175.16,16.72 L190.17,93.48 Z M232.91,133 L232.91,25.46 L266.92,133 L282.31,133 L282.31,0 L269.2,0 L269.2,96.14 L238.42,0 L219.61,0 L219.61,133 L232.91,133 Z M308.33,133 L308.33,88.35 L316.12,75.24 L322.075,88 L338.075,88 L325.05,60.61 L358.68,0 L343.67,0 L308.33,64.22 L308.33,0 L293.51,0 L293.51,133 L308.33,133 Z" id="THANK" fill="#212529"></path>
            <g id="YOU." transform="translate(322.000000, 87.000000)">
                <g id="path-1-link" fill="#000000">
                    <path d="M30.069521,46 L30.069521,32.334746 L46.075,1 L30.321575,1 L23.201027,16.95339 L16.080479,1 L0.075,1 L16.080479,32.334746 L16.080479,46 L30.069521,46 Z M65.138187,46 C69.308516,46 73.152381,45.008712 76.66978,43.026135 C80.187179,41.043558 82.967399,38.301696 85.01044,34.80055 C87.05348,31.299404 88.075,27.355342 88.075,22.968363 C88.075,18.581385 87.05348,14.637322 85.01044,11.1361761 C82.967399,7.6350298 80.197711,4.9037139 76.701374,2.9422283 C73.205037,0.9807428 69.350641,0 65.138187,0 C60.925733,0 57.060806,0.9807428 53.543407,2.9422283 C50.026007,4.9037139 47.235256,7.6350298 45.171154,11.1361761 C43.107051,14.637322 42.075,18.581385 42.075,22.968363 C42.075,27.355342 43.107051,31.299404 45.171154,34.80055 C47.235256,38.301696 50.026007,41.043558 53.543407,43.026135 C57.060806,45.008712 60.925733,46 65.138187,46 Z M65.107491,33 C62.204964,33 59.973917,32.100529 58.41435,30.301587 C56.854783,28.502646 56.075,26.079365 56.075,23.031746 C56.075,19.941799 56.854783,17.497354 58.41435,15.698413 C59.973917,13.899471 62.204964,13 65.107491,13 C67.966697,13 70.176083,13.899471 71.73565,15.698413 C73.295217,17.497354 74.075,19.941799 74.075,23.031746 C74.075,26.079365 73.295217,28.502646 71.73565,30.301587 C70.176083,32.100529 67.966697,33 65.107491,33 Z M110.660327,46 C114.488078,46 117.95432,45.244755 121.059051,43.734266 C124.163783,42.223776 126.60929,39.968531 128.395574,36.968531 C130.181858,33.968531 131.075,30.34965 131.075,26.111888 L131.075,26.111888 L131.075,1 L116.976116,1 L116.976116,26.111888 C116.976116,28.167832 116.487015,29.793706 115.508812,30.98951 C114.530609,32.185315 113.020774,32.783217 110.979306,32.783217 C108.937839,32.783217 107.459902,32.185315 106.545494,30.98951 C105.631087,29.793706 105.173884,28.167832 105.173884,26.111888 L105.173884,26.111888 L105.173884,1 L91.075,1 L91.075,26.111888 C91.075,30.391608 91.904346,34.020979 93.563038,37 C95.22173,39.979021 97.529014,42.223776 100.484888,43.734266 C103.440763,45.244755 106.832576,46 110.660327,46 Z M147.075,46 L147.075,33 L133.075,33 L133.075,46 L147.075,46 Z" id="path-1"></path>
                </g>
                <g id="path-1-link" fill="#ED5C37">
                    <path d="M30.069521,46 L30.069521,32.334746 L46.075,1 L30.321575,1 L23.201027,16.95339 L16.080479,1 L0.075,1 L16.080479,32.334746 L16.080479,46 L30.069521,46 Z M65.138187,46 C69.308516,46 73.152381,45.008712 76.66978,43.026135 C80.187179,41.043558 82.967399,38.301696 85.01044,34.80055 C87.05348,31.299404 88.075,27.355342 88.075,22.968363 C88.075,18.581385 87.05348,14.637322 85.01044,11.1361761 C82.967399,7.6350298 80.197711,4.9037139 76.701374,2.9422283 C73.205037,0.9807428 69.350641,0 65.138187,0 C60.925733,0 57.060806,0.9807428 53.543407,2.9422283 C50.026007,4.9037139 47.235256,7.6350298 45.171154,11.1361761 C43.107051,14.637322 42.075,18.581385 42.075,22.968363 C42.075,27.355342 43.107051,31.299404 45.171154,34.80055 C47.235256,38.301696 50.026007,41.043558 53.543407,43.026135 C57.060806,45.008712 60.925733,46 65.138187,46 Z M65.107491,33 C62.204964,33 59.973917,32.100529 58.41435,30.301587 C56.854783,28.502646 56.075,26.079365 56.075,23.031746 C56.075,19.941799 56.854783,17.497354 58.41435,15.698413 C59.973917,13.899471 62.204964,13 65.107491,13 C67.966697,13 70.176083,13.899471 71.73565,15.698413 C73.295217,17.497354 74.075,19.941799 74.075,23.031746 C74.075,26.079365 73.295217,28.502646 71.73565,30.301587 C70.176083,32.100529 67.966697,33 65.107491,33 Z M110.660327,46 C114.488078,46 117.95432,45.244755 121.059051,43.734266 C124.163783,42.223776 126.60929,39.968531 128.395574,36.968531 C130.181858,33.968531 131.075,30.34965 131.075,26.111888 L131.075,26.111888 L131.075,1 L116.976116,1 L116.976116,26.111888 C116.976116,28.167832 116.487015,29.793706 115.508812,30.98951 C114.530609,32.185315 113.020774,32.783217 110.979306,32.783217 C108.937839,32.783217 107.459902,32.185315 106.545494,30.98951 C105.631087,29.793706 105.173884,28.167832 105.173884,26.111888 L105.173884,26.111888 L105.173884,1 L91.075,1 L91.075,26.111888 C91.075,30.391608 91.904346,34.020979 93.563038,37 C95.22173,39.979021 97.529014,42.223776 100.484888,43.734266 C103.440763,45.244755 106.832576,46 110.660327,46 Z M147.075,46 L147.075,33 L133.075,33 L133.075,46 L147.075,46 Z" id="path-1"></path>
                </g>
            </g>
        </g>
    </g>
</svg>