<?xml version="1.0" encoding="UTF-8"?>
<svg width="470px" height="133px" viewBox="0 0 470 133" version="1.1" xmlns="http://www.w3.org/2000/svg" xmlns:xlink="http://www.w3.org/1999/xlink">
    <!-- Generator: Sketch 61 (89581) - https://sketch.com -->
    <title>thankyou</title>
    <desc>Created with Sketch.</desc>
    <defs>
        <path d="M352.069521,133 L352.069521,119.334746 L368.075,88 L352.321575,88 L345.201027,103.95339 L338.080479,88 L322.075,88 L338.080479,119.334746 L338.080479,133 L352.069521,133 Z M387.138187,133 C391.308516,133 395.152381,132.008712 398.66978,130.026135 C402.187179,128.043558 404.967399,125.301696 407.01044,121.80055 C409.05348,118.299404 410.075,114.355342 410.075,109.968363 C410.075,105.581385 409.05348,101.637322 407.01044,98.1361761 C404.967399,94.6350298 402.197711,91.9037139 398.701374,89.9422283 C395.205037,87.9807428 391.350641,87 387.138187,87 C382.925733,87 379.060806,87.9807428 375.543407,89.9422283 C372.026007,91.9037139 369.235256,94.6350298 367.171154,98.1361761 C365.107051,101.637322 364.075,105.581385 364.075,109.968363 C364.075,114.355342 365.107051,118.299404 367.171154,121.80055 C369.235256,125.301696 372.026007,128.043558 375.543407,130.026135 C379.060806,132.008712 382.925733,133 387.138187,133 Z M387.107491,120 C384.204964,120 381.973917,119.100529 380.41435,117.301587 C378.854783,115.502646 378.075,113.079365 378.075,110.031746 C378.075,106.941799 378.854783,104.497354 380.41435,102.698413 C381.973917,100.899471 384.204964,100 387.107491,100 C389.966697,100 392.176083,100.899471 393.73565,102.698413 C395.295217,104.497354 396.075,106.941799 396.075,110.031746 C396.075,113.079365 395.295217,115.502646 393.73565,117.301587 C392.176083,119.100529 389.966697,120 387.107491,120 Z M432.660327,133 C436.488078,133 439.95432,132.244755 443.059051,130.734266 C446.163783,129.223776 448.60929,126.968531 450.395574,123.968531 C452.181858,120.968531 453.075,117.34965 453.075,113.111888 L453.075,113.111888 L453.075,88 L438.976116,88 L438.976116,113.111888 C438.976116,115.167832 438.487015,116.793706 437.508812,117.98951 C436.530609,119.185315 435.020774,119.783217 432.979306,119.783217 C430.937839,119.783217 429.459902,119.185315 428.545494,117.98951 C427.631087,116.793706 427.173884,115.167832 427.173884,113.111888 L427.173884,113.111888 L427.173884,88 L413.075,88 L413.075,113.111888 C413.075,117.391608 413.904346,121.020979 415.563038,124 C417.22173,126.979021 419.529014,129.223776 422.484888,130.734266 C425.440763,132.244755 428.832576,133 432.660327,133 Z M469.075,133 L469.075,120 L455.075,120 L455.075,133 L469.075,133 Z" id="path-1"></path>
        <filter x="-4.1%" y="-4.3%" width="105.4%" height="108.7%" filterUnits="objectBoundingBox" id="filter-2">
            <feOffset dx="-4" dy="0" in="SourceAlpha" result="shadowOffsetOuter1"></feOffset>
            <feColorMatrix values="0 0 0 0 0   0 0 0 0 0   0 0 0 0 0  0 0 0 1 0" type="matrix" in="shadowOffsetOuter1"></feColorMatrix>
        </filter>
    </defs>
    <g id="Page-1" stroke="none" stroke-width="1" fill="none" fill-rule="evenodd">
        <g id="Minimal3-Copy-81" transform="translate(-485.000000, -317.000000)" fill-rule="nonzero">
            <g id="Group-3" transform="translate(402.000000, 317.000000)">
                <g id="Group" transform="translate(83.000000, 0.000000)">
                    <g id="thankyou" transform="translate(-0.000000, 0.000000)">
                        <path d="M39.33,133 L39.33,13.49 L63.84,13.49 L63.84,0 L2.84217094e-14,0 L2.84217094e-14,13.49 L24.51,13.49 L24.51,133 L39.33,133 Z M84.92,133 L84.92,73.15 L117.6,73.15 L117.6,133 L132.42,133 L132.42,0 L117.6,0 L117.6,59.85 L84.92,59.85 L84.92,0 L70.1,0 L70.1,133 L84.92,133 Z M153.5,133 L158.63,106.21 L192.26,106.21 L197.39,133 L212.21,133 L186.75,0 L165.28,0 L139.82,133 L153.5,133 Z M190.17,93.48 L160.53,93.48 L175.16,16.72 L190.17,93.48 Z M232.91,133 L232.91,25.46 L266.92,133 L282.31,133 L282.31,0 L269.2,0 L269.2,96.14 L238.42,0 L219.61,0 L219.61,133 L232.91,133 Z M308.33,133 L308.33,88.35 L316.12,75.24 L322.075,88 L338.075,88 L325.05,60.61 L358.68,0 L343.67,0 L308.33,64.22 L308.33,0 L293.51,0 L293.51,133 L308.33,133 Z" id="THANK" fill="#FFFFFF"></path>
                        <g id="YOU.">
                            <use fill="black" fill-opacity="1" filter="url(#filter-2)" xlink:href="#path-1"></use>
                            <use fill="#ED5C37" xlink:href="#path-1"></use>
                        </g>
                    </g>
                </g>
            </g>
        </g>
    </g>
</svg>