<?xml version="1.0" encoding="UTF-8"?>
<svg width="1446px" height="900px" viewBox="0 0 1446 900" version="1.1" xmlns="http://www.w3.org/2000/svg" xmlns:xlink="http://www.w3.org/1999/xlink">
    <title>Group 12 Copy</title>
    <defs>
        <polygon id="path-1" points="1446 0 1446 900 0 900 0 0"></polygon>
    </defs>
    <g id="Page-1" stroke="none" stroke-width="1" fill="none" fill-rule="evenodd">
        <g id="Group-12-Copy" transform="translate(0.000000, 0.000000)">
            <mask id="mask-2" fill="white">
                <use xlink:href="#path-1"></use>
            </mask>
            <use id="Mask" fill="#C0002B" fill-rule="nonzero" xlink:href="#path-1"></use>
            <g id="Group-12" mask="url(#mask-2)">
                <g transform="translate(-638.000000, -288.000000)">
                    <g id="Group-9" transform="translate(527.000000, 858.000000)">
                        <g id="wave-(6)" fill="#FFFFFF" fill-opacity="0.18" fill-rule="nonzero">
                            <path d="M0,166.502965 L54.7291667,176.171202 C109.458333,186.569117 218.916667,204.811072 328.375,205.358331 C437.833333,204.811072 547.291667,186.569117 656.75,215.208987 C766.208333,244.943375 875.666667,321.55959 985.125,312.438612 C1094.58333,303.317634 1204.04167,204.811072 1313.5,127.647599 C1422.95833,49.7544477 1532.41667,-8.61981102 1641.875,1.04842558 C1751.33333,11.4463404 1860.79167,88.062555 1970.25,127.647599 C2079.70833,166.502965 2189.16667,166.502965 2298.625,156.834729 C2408.08333,146.436814 2517.54167,128.194858 2572.27083,117.796943 L2627,108.128706 L2627,400 L2572.27083,400 C2517.54167,400 2408.08333,400 2298.625,400 C2189.16667,400 2079.70833,400 1970.25,400 C1860.79167,400 1751.33333,400 1641.875,400 C1532.41667,400 1422.95833,400 1313.5,400 C1204.04167,400 1094.58333,400 985.125,400 C875.666667,400 766.208333,400 656.75,400 C547.291667,400 437.833333,400 328.375,400 C218.916667,400 109.458333,400 54.7291667,400 L0,400 L0,166.502965 Z" id="Path"></path>
                        </g>
                        <g id="wave-(8)" transform="translate(110.000000, 42.000000)" fill="#FFFFFF" fill-opacity="0.112598339" fill-rule="nonzero">
                            <path d="M0,256 L30,240 C60,224 120,192 180,170.7 C240,149 300,139 360,122.7 C420,107 480,85 540,80 C600,75 660,85 720,101.3 C780,117 840,139 900,144 C960,149 1020,139 1080,112 C1140,85 1200,43 1260,21.3 C1320,0 1380,0 1410,0 L1440,0 L1440,288 L1410,288 C1380,288 1320,288 1260,288 C1200,288 1140,288 1080,288 C1020,288 960,288 900,288 C840,288 780,288 720,288 C660,288 600,288 540,288 C480,288 420,288 360,288 C300,288 240,288 180,288 C120,288 60,288 30,288 L0,288 L0,256 Z" id="Path"></path>
                        </g>
                    </g>
                    <g id="Group-9-Copy" transform="translate(1313.500000, 221.500000) scale(-1, -1) translate(-1313.500000, -221.500000) ">
                        <g id="wave-(6)" transform="translate(0.000000, 43.000000)" fill="#FFFFFF" fill-opacity="0.18" fill-rule="nonzero">
                            <path d="M0,166.502965 L54.7291667,176.171202 C109.458333,186.569117 218.916667,204.811072 328.375,205.358331 C437.833333,204.811072 547.291667,186.569117 656.75,215.208987 C766.208333,244.943375 875.666667,321.55959 985.125,312.438612 C1094.58333,303.317634 1204.04167,204.811072 1313.5,127.647599 C1422.95833,49.7544477 1532.41667,-8.61981102 1641.875,1.04842558 C1751.33333,11.4463404 1860.79167,88.062555 1970.25,127.647599 C2079.70833,166.502965 2189.16667,166.502965 2298.625,156.834729 C2408.08333,146.436814 2517.54167,128.194858 2572.27083,117.796943 L2627,108.128706 L2627,400 L2572.27083,400 C2517.54167,400 2408.08333,400 2298.625,400 C2189.16667,400 2079.70833,400 1970.25,400 C1860.79167,400 1751.33333,400 1641.875,400 C1532.41667,400 1422.95833,400 1313.5,400 C1204.04167,400 1094.58333,400 985.125,400 C875.666667,400 766.208333,400 656.75,400 C547.291667,400 437.833333,400 328.375,400 C218.916667,400 109.458333,400 54.7291667,400 L0,400 L0,166.502965 Z" id="Path"></path>
                        </g>
                        <g id="wave-(8)" transform="translate(619.000000, 0.000000)" fill="#FFFFFF" fill-opacity="0.112598339" fill-rule="nonzero">
                            <path d="M0,256 L30,240 C60,224 120,192 180,170.7 C240,149 300,139 360,122.7 C420,107 480,85 540,80 C600,75 660,85 720,101.3 C780,117 840,139 900,144 C960,149 1020,139 1080,112 C1140,85 1200,43 1260,21.3 C1320,0 1380,0 1410,0 L1440,0 L1440,288 L1410,288 C1380,288 1320,288 1260,288 C1200,288 1140,288 1080,288 C1020,288 960,288 900,288 C840,288 780,288 720,288 C660,288 600,288 540,288 C480,288 420,288 360,288 C300,288 240,288 180,288 C120,288 60,288 30,288 L0,288 L0,256 Z" id="Path"></path>
                        </g>
                    </g>
                </g>
            </g>
        </g>
    </g>
</svg>