<?xml version="1.0" encoding="UTF-8"?>
<svg width="1430px" height="900px" viewBox="0 0 1430 900" version="1.1" xmlns="http://www.w3.org/2000/svg" xmlns:xlink="http://www.w3.org/1999/xlink">
    <title>pattern-1</title>
    <defs>
        <linearGradient x1="0%" y1="49.9928164%" x2="100%" y2="49.9928164%" id="linearGradient-1">
            <stop stop-color="#FFFFFF" offset="0%"></stop>
            <stop stop-color="#FFFFFF" stop-opacity="0.978911713" offset="100%"></stop>
        </linearGradient>
        <linearGradient x1="0%" y1="49.9928164%" x2="100%" y2="49.9928164%" id="linearGradient-2">
            <stop stop-color="#FFFFFF" offset="0%"></stop>
            <stop stop-color="#FFFFFF" stop-opacity="0.978911713" offset="100%"></stop>
        </linearGradient>
        <linearGradient x1="0%" y1="49.9928164%" x2="100%" y2="49.9928164%" id="linearGradient-3">
            <stop stop-color="#FFFFFF" offset="0%"></stop>
            <stop stop-color="#FFFFFF" stop-opacity="0.978911713" offset="100%"></stop>
        </linearGradient>
        <linearGradient x1="0%" y1="49.9928164%" x2="100%" y2="49.9928164%" id="linearGradient-4">
            <stop stop-color="#FFFFFF" offset="0%"></stop>
            <stop stop-color="#FFFFFF" stop-opacity="0.978911713" offset="100%"></stop>
        </linearGradient>
    </defs>
    <g id="pattern-1" stroke="none" stroke-width="1" fill="none" fill-rule="evenodd">
        <rect fill="#FFFFFF" x="0" y="0" width="1430" height="900"></rect>
        <polygon id="Path" fill="#1C4168" fill-rule="nonzero" points="1437 0 1437 900 -9 900 -9 0"></polygon>
        <rect id="Rectangle" x="1361" y="0" width="60" height="900"></rect>
        <g id="Group-9" transform="translate(-9.000000, -177.000000)" fill-rule="nonzero">
            <path d="M1446,856.48331 L1446,1108 L0,1108 L0,0 C0,0 291.375234,788.563191 1446,856.48331 Z" id="Path-Copy-4" fill="url(#linearGradient-1)" opacity="0.033833"></path>
            <path d="M1446,940.05448 L1446,1108 L0,1108 L0,368 C0,368 291.375234,894.646595 1446,940.05448 Z" id="Path-Copy-7" fill="url(#linearGradient-2)" opacity="0.033833"></path>
            <path d="M1446,526 L1446,150 L926,150 C1038.64898,276.782069 1205.79184,418.510854 1446,526 Z" id="Path-Copy-5" fill="url(#linearGradient-3)" opacity="0.03" style="mix-blend-mode: screen;"></path>
            <path d="M1446,373 L1446,150 L1138,150 C1204.80414,225.076667 1303.73586,309.285714 1446,373 Z" id="Path-Copy-6" fill="url(#linearGradient-4)" opacity="0.03" style="mix-blend-mode: screen;"></path>
        </g>
        <rect id="Rectangle" x="-9" y="0" width="78" height="900"></rect>
    </g>
</svg>