<?xml version="1.0" encoding="UTF-8"?>
<svg width="55px" height="55px" viewBox="0 0 55 55" version="1.1" xmlns="http://www.w3.org/2000/svg" xmlns:xlink="http://www.w3.org/1999/xlink">
    <title>001</title>
    <g id="001" stroke="none" stroke-width="1" fill="none" fill-rule="evenodd">
        <g id="django-community" transform="translate(1.000000, 18.000000)" fill="#092E20" fill-rule="nonzero">
            <path d="M6.83139535,0 L10,0 L10,14.5706449 C8.37461506,14.8772329 7.18116173,15 5.88483594,15 C2.01643305,14.9997363 0,13.262536 0,9.93055067 C0,6.72133237 2.14001274,4.63653386 5.45263884,4.63653386 C5.96700117,4.63653386 6.35791653,4.6772804 6.83139535,4.79991561 L6.83139535,0 Z M6.83139535,7.33437654 C6.46105448,7.2118732 6.15243708,7.1709948 5.76138898,7.1709948 C4.15644579,7.1709948 3.23046087,8.15220831 3.23046087,9.8691012 C3.23046087,11.5453794 4.1152968,12.4651435 5.74081448,12.4651435 C6.09058086,12.4651435 6.3787565,12.4448361 6.83139535,12.3835185 L6.83139535,7.33437654 Z" id="Shape"></path>
            <path d="M13.870441,4.58091825 L13.870441,11.4810994 C13.870441,13.8585932 13.6971053,14.9990222 13.1775951,15.9847089 C12.6963279,16.9319906 12.061095,17.5310088 10.7523861,18.1883827 L8,16.874009 C9.30883306,16.2554142 9.94394178,15.7143776 10.3481019,14.8829343 C10.7716319,14.0326626 10.9064761,13.0467265 10.9064761,10.4567583 L10.9064761,4.58091825 L13.870441,4.58091825 Z M10.9064761,0 L13.870441,0 L13.870441,3.0539455 L10.9064761,3.0539455 L10.9064761,0 Z M15.6607895,5.25736993 C16.9697467,4.63902452 18.2207184,4.36844385 19.5872886,4.36844385 C21.1078246,4.36844385 22.108602,4.77419016 22.5513777,5.56672967 C22.8014479,6.01125505 22.8784308,6.59107077 22.8784308,7.82826036 L22.8784308,13.8779204 C21.5502278,14.0711923 19.8758503,14.2066073 18.6441243,14.2066073 C16.1613023,14.2066073 15.0448023,13.3365097 15.0448023,11.4037906 C15.0448023,9.31607996 16.5268468,8.34972043 20.1645361,8.04036069 L20.1645361,7.38323621 C20.1645361,6.84207487 19.895096,6.64892765 19.1443888,6.64892765 C18.0473828,6.64892765 16.8155326,6.9581627 15.6605411,7.5574303 L15.6607895,5.25736993 L15.6607895,5.25736993 Z M20.2995044,9.99290571 C18.3361927,10.1861776 17.7009599,10.4954127 17.7009599,11.268625 C17.7009599,11.848316 18.0667527,12.1188967 18.8750729,12.1188967 C19.3178486,12.1188967 19.7218845,12.080367 20.2993803,11.983731 L20.2995044,9.99290571 Z M24.322108,5.04477083 C26.0734684,4.58091825 27.5170215,4.36844385 28.9798203,4.36844385 C30.5003563,4.36844385 31.5974864,4.71620859 32.2520892,5.39278495 C32.8679522,6.03045755 33.0602853,6.72623642 33.0602853,8.21480417 L33.0602853,14.0518651 L30.0961962,14.0518651 L30.0961962,8.33076731 C30.0961962,7.19046307 29.7112818,6.76501549 28.6527673,6.76501549 C28.2486072,6.76501549 27.8829385,6.80366987 27.2860729,6.97761458 L27.2860729,14.0518651 L24.322108,14.0518651 L24.322108,5.04477083 Z M34.2125451,15.6754738 C35.2520622,16.2167599 36.2913311,16.467764 37.388337,16.467764 C39.3320305,16.467764 40.1597206,15.6754738 40.1597206,13.7811598 L40.1597206,13.7231782 C39.5824732,14.0129614 39.0048533,14.1290492 38.2351487,14.1290492 C35.6367283,14.1290492 33.981224,12.4088045 33.981224,9.68367066 C33.981224,6.30091353 36.4258028,4.38752166 40.7562137,4.38752166 C42.0265553,4.38752166 43.2007925,4.5226873 44.6249757,4.81259516 L43.6100434,6.959659 C42.8209689,6.80504148 43.5468429,6.9389602 42.950474,6.88097863 L42.950474,7.19033837 L42.9888413,8.44648107 L43.0079628,10.0702145 C43.0272085,10.4759608 43.0272085,10.8819565 43.0465784,11.2878275 L43.0465784,12.0998189 C43.0465784,14.6511327 42.8348755,15.8494185 42.1998909,16.83523 C41.2759723,18.2850186 39.6783293,19 37.4072103,19 C36.252343,19 35.2518139,18.8260553 34.2122967,18.4201843 L34.2125451,15.6754738 L34.2125451,15.6754738 Z M40.1022317,6.78434268 L39.7944244,6.78434268 C39.217177,6.76501549 38.5435768,6.91950832 38.0814313,7.20941618 C37.3694638,7.61541188 37.0034227,8.34996981 37.0034227,9.39363811 C37.0034227,10.8820812 37.7351325,11.7324776 39.0438414,11.7324776 C39.4480015,11.7324776 39.7753029,11.6550441 40.1599689,11.5392056 L40.1599689,10.5148645 C40.1599689,10.1668504 40.1409715,9.78005723 40.1409715,9.37443561 L40.12185,8.00220507 L40.1024801,7.01639366 L40.1022317,6.78434268 L40.1022317,6.78434268 Z M49.2266892,4.32966478 C52.1906541,4.32966478 54,6.20465165 54,9.23914527 C54,12.351197 52.1139195,14.303368 49.1112149,14.303368 C46.1470017,14.303368 44.31841,12.4283811 44.31841,9.41321468 C44.3186584,6.28171103 46.2049872,4.32966478 49.2266892,4.32966478 Z M49.1687037,11.9064223 C50.3043253,11.9064223 50.9780496,10.9592652 50.9780496,9.31632934 C50.9780496,7.69284533 50.323571,6.72636111 49.1881978,6.72636111 C48.0139606,6.72636111 47.3401121,7.67364283 47.3401121,9.31632934 C47.3403604,10.9593899 48.0140847,11.9064223 49.1687037,11.9064223 L49.1687037,11.9064223 Z" id="Shape"></path>
        </g>
    </g>
</svg>