<?xml version="1.0" encoding="UTF-8"?>
<svg width="55px" height="55px" viewBox="0 0 55 55" version="1.1" xmlns="http://www.w3.org/2000/svg" xmlns:xlink="http://www.w3.org/1999/xlink">
    <title>002</title>
    <g id="002" stroke="none" stroke-width="1" fill="none" fill-rule="evenodd">
        <g id="flask" transform="translate(6.000000, 0.000000)" fill="#000000" fill-rule="nonzero">
            <path d="M12.8498204,34.012808 C11.2121274,32.7299089 9.46475109,31.5005336 8.27099893,29.7682017 C5.75802214,26.7133296 3.82369685,23.1772449 2.50128081,19.4606846 C1.70175073,17.0437495 1.42796207,14.4526948 0.396635454,12.1295937 C-0.680714532,10.4417534 0.582240651,8.59802506 2.43862856,8.06178328 C3.2645297,7.90321896 4.71762523,7.12678903 2.96353014,7.6824332 C1.39067306,8.83085368 1.23916547,6.63871868 2.85166311,6.49989127 C3.95219275,6.35454065 4.35733278,5.45784938 3.98057943,4.65064325 C2.79875303,3.88291094 6.84528227,3.04057981 4.80900009,1.8953373 C2.68923757,-0.382770337 7.77532388,-0.821331146 6.52026321,1.76637834 C6.22027147,3.75595913 10.0754846,1.400911 9.18021245,3.69892281 C10.0897619,4.80268436 12.58527,3.95065203 12.5226177,5.49815951 C13.8472173,5.58881548 14.3019081,6.69792941 15.5440352,6.783233 C16.8335294,7.36296289 19.1687955,7.81891894 19.6068573,9.26489842 C18.328617,10.2723171 15.3695159,7.18365809 15.2265747,9.97275096 C15.6132382,14.0937507 15.5146407,18.3386915 17.0282049,22.2628239 C17.7440866,24.6386125 19.480545,26.5087682 21.0478591,28.3595216 C22.5483218,30.1716375 24.5802368,31.4481806 26.6517924,32.5221695 C28.4683717,33.3752054 30.4268845,33.9405508 32.4072332,34.2961497 C33.2101226,33.68464 34.6279447,31.4108812 35.879982,32.3689576 C35.9404506,33.4476299 33.39472,34.6221432 35.7605564,34.5028854 C37.1509996,34.0850651 38.114299,35.5723583 39.2586684,34.2304157 C40.3131747,35.4741755 43.6409667,33.4364233 42.8909873,35.978303 C41.8761216,36.6302901 40.3966551,36.2363882 39.3807815,37.133414 C37.7057996,36.2999477 36.3721297,37.8782314 34.5170855,37.6791897 C32.4577917,38.0464969 30.3618807,38.1943565 28.2742001,38.1973672 C24.8483145,37.9282427 21.3502025,37.8146719 18.0912775,36.6267776 C16.2548779,36.0955536 14.4634938,35.0541808 12.8498204,34.012808 Z M15.7429099,35.2619201 C17.5354698,36.0329977 19.288557,36.846727 21.2534526,37.0927693 C24.3706121,37.5238034 27.5897285,38.1886696 30.7178059,37.5828468 C29.3021674,36.9464151 27.8379859,37.83006 26.4277224,37.1278943 C24.7362795,37.4898492 22.9208759,37.0348967 21.2005425,36.8105984 C19.2453891,35.9435125 17.1346969,35.347391 15.3036722,34.2205473 C13.0145975,33.3884191 16.4866744,35.2881803 17.1049665,35.442563 C18.5350503,36.2504382 15.5319414,35.0277534 15.107821,34.6920587 C13.9098696,34.0226764 13.7573542,34.1626747 14.9895711,34.8419254 C15.2376606,34.9864397 15.4827267,35.1384808 15.7429099,35.2619201 L15.7429099,35.2619201 Z M12.3314696,32.8612095 C14.0691037,33.5021572 12.323743,31.6448807 11.5285801,31.7522628 C11.1758462,31.1429276 10.1809688,30.7578906 10.8827412,30.4308935 C9.62079383,30.8674472 9.56032517,28.771655 8.96739635,29.0715557 C7.63171081,28.651561 8.4477018,27.1639333 6.85620022,26.2498467 C6.71107543,25.287087 5.2756166,24.4526172 4.81874227,23.0011181 C4.61667616,22.2574715 3.19650245,20.1237109 4.06859493,22.1096119 C4.81101571,24.0214159 6.11697084,25.6600811 7.20439893,27.2952339 C8.04793676,28.8524425 9.04533374,30.4812393 10.5819096,31.4525294 C11.1004284,31.9479593 11.5999667,32.7058231 12.3313016,32.8612095 L12.3314696,32.8612095 Z M19.9847865,36.0778239 C20.696469,36.5252496 24.1399913,37.0578116 21.9839476,36.2614775 C21.6223114,36.3370799 17.9857933,35.2366636 19.9847865,36.0778239 L19.9847865,36.0778239 Z M12.1206691,29.7200302 C12.9554725,30.3574655 15.4884376,29.8019886 13.3990774,29.3395093 C12.4490475,28.8352146 10.3072811,28.4898187 11.7672633,29.6435915 L12.1206691,29.7200302 Z M16.1624952,31.85262 C18.2033125,32.4269975 14.4458571,30.5663757 15.6585897,31.6405318 L15.9278432,31.761964 L16.1624952,31.85262 Z M16.1802999,30.7756203 C17.6629578,30.9656299 14.4152868,29.7703761 15.854105,30.6682382 L16.1802999,30.7756203 Z M21.3335736,33.9308496 C22.7188098,33.1074191 22.2619355,35.8613869 23.683285,34.1638455 C25.0846462,33.1445512 22.472736,35.4238297 24.1994522,34.345492 C25.4493058,33.5130293 27.2944399,34.7402301 28.4599733,35.1394844 C29.2978002,35.099007 30.1129514,35.8613869 30.9727821,35.3974023 C32.626936,34.9533218 27.7372048,34.7392266 29.0188045,33.9525937 C27.5054083,34.391489 26.3874099,33.4299001 25.6426376,32.4641296 C23.944476,32.073573 21.981764,31.2096651 21.133859,29.7123362 C20.7878439,29.1513396 21.6327255,29.7922874 20.835211,28.8735176 C19.8126188,27.9677941 19.3019945,26.9384642 18.6153393,25.8372115 C17.7948131,25.4018287 17.6982312,24.1189296 17.6157587,25.794727 C17.6224774,24.7369625 16.6250805,24.0249284 16.3811902,24.320313 C16.376823,23.301855 17.448966,23.812673 16.6986507,23.059158 C16.5374009,22.0035678 16.0056126,20.9034861 15.8462105,19.7112429 C15.598289,19.1370327 15.8109371,17.9066539 14.9984735,19.2069482 C14.7028489,20.5818413 14.9007158,17.5182716 15.3609495,18.5278647 C15.9649642,17.4975312 15.1432623,17.6187961 15.1103405,17.761136 C15.5037227,16.8917084 15.3597737,15.6578171 15.0072078,16.1281576 C15.2170005,15.2060426 15.3389456,12.7354164 14.6942825,13.1739772 C15.0851452,12.2093776 15.4356955,8.76160724 13.7373659,10.0766206 C13.0498708,10.0863218 11.8583023,10.3250046 11.2959437,10.6038303 C13.0609568,11.5729459 11.1178971,10.9537422 10.398488,10.7995267 C10.3050975,11.6963853 9.59341497,11.3091739 8.7036858,11.3178715 C10.1250353,11.4928275 8.01165556,12.7646873 7.19801613,12.2705955 C6.13914268,12.7737194 8.11075698,14.0315292 7.21884422,14.4207478 C7.32886359,15.0059973 5.59761222,14.2088269 5.73282687,15.5628123 C4.70569946,15.131611 5.59223723,17.1683597 6.10622085,16.4794077 C7.85376517,16.9507519 7.33642218,18.0237372 7.38026196,19.0440351 C7.09572331,19.637815 5.97436557,17.6473979 7.13082873,17.7393919 C6.21808787,16.2636398 6.12167395,17.2054918 5.36363209,17.8912658 C5.18793704,17.940608 7.29678161,18.8667374 5.97335776,19.3240316 C7.13754747,19.5035036 7.17164507,20.5184491 7.40898457,21.1605677 C8.10857339,21.8864845 7.96445641,20.3585467 8.80278722,21.231654 C8.27200674,20.453886 5.99519367,19.0405226 7.82856989,19.4938024 C7.81849178,18.7116856 7.49666413,18.080439 8.05902268,18.0956599 C8.61600624,17.0927573 7.47583603,20.5697985 8.73022482,19.2945935 C9.07707979,19.1437232 9.16408747,18.29052 9.7879225,19.3755482 C10.6939446,20.2637091 10.1152931,20.9064968 8.83671686,20.0929347 C9.06515402,20.8661866 10.5468042,21.1416671 10.2678085,22.3504691 C10.5630971,23.413586 10.9762997,23.0218585 11.3364241,22.9606407 C11.6186112,23.9931486 11.7793571,23.2341139 11.7924586,22.7418621 C13.0851442,23.0178443 12.7819611,23.7788861 13.1871011,24.3104445 C14.0778381,24.7105351 11.9120522,21.5967868 13.4410695,23.3741122 C15.0498718,24.8210952 14.0450842,25.4247436 12.600891,25.1930858 C13.5146397,25.1194905 13.8087526,26.4236319 14.9524501,26.3776349 C15.9946947,26.8718939 16.7010022,28.7684771 14.9040752,27.9786662 C14.281248,27.4186732 12.0744777,26.7285504 13.8771157,27.7928382 C15.5400039,28.5605705 16.86242,29.0188682 18.4670231,29.9826315 C19.6149198,30.7985352 20.1110988,31.7333622 20.5461372,31.9185212 C19.5808222,32.3776552 17.6379305,31.5520503 19.080948,31.2994847 C18.1803008,31.1364044 17.1677867,30.6826227 18.0298011,31.7992634 C18.7634875,32.4096022 20.627434,32.3448719 20.9625311,32.4137838 C20.6791683,33.0351619 20.1927315,33.0845042 20.9734491,33.1325084 C20.1023644,33.5951549 21.2536206,33.667412 21.3337415,33.9308496 L21.3335736,33.9308496 Z M19.5520996,28.9205182 C19.0216551,28.3682192 18.8844248,27.3347077 19.4577013,28.2334061 C19.7521501,28.3516603 20.3991648,29.923588 19.5520996,28.9205182 Z M16.1539288,23.3478521 C15.5223672,21.939172 16.6020688,22.5777781 16.2945184,23.5786735 L16.1539288,23.3478521 Z M10.3381873,19.4857739 C10.0560002,19.0232946 9.58904779,17.6669675 9.73954757,17.2526597 C9.87459424,17.9273943 11.1795416,20.1553234 10.3786677,18.1757783 C9.49464949,16.5165399 11.4365334,18.7136927 11.6364159,19.1283351 C11.7298064,19.5396322 11.0905182,19.0157678 11.5232051,19.981371 C10.7335852,18.8821255 11.0574285,20.5885318 10.3381873,19.4857739 Z M7.40444942,17.0317067 C6.73543087,16.3686803 6.2510097,15.7585088 7.43619547,16.6202423 C7.89206199,16.6378048 6.42149773,15.23247 7.54621484,16.1739874 C8.72787327,16.3885845 8.12923352,18.104692 7.40444942,17.0317067 Z M7.80539024,16.0167612 C5.86031496,14.2916215 10.249164,16.9178013 8.12285071,16.335897 L7.80539024,16.0167612 Z M13.3794251,19.2409024 C12.537063,18.738782 13.1553551,15.7028105 13.4432531,17.7786985 C14.2615956,17.5149264 13.3979016,18.8516838 14.0076273,18.8384701 C13.9122211,19.6814703 13.6387684,19.9848835 13.3794251,19.2409024 Z M8.18634281,15.4500777 C6.93665714,13.7327994 11.8186617,17.1867585 8.98721664,15.8854606 C8.69159207,15.807851 8.33482697,15.7804201 8.18634281,15.4500777 Z M8.37866674,14.7949127 C9.1212555,14.6363484 11.4561857,16.0931999 9.31223569,15.2105586 C9.07405635,14.9479574 8.56544772,15.0672152 8.37866674,14.7947455 L8.37866674,14.7949127 Z M14.7565988,17.9601777 C14.8360479,16.4815821 15.2007075,17.0775364 14.7599582,18.1724331 L14.7565988,17.9600104 L14.7565988,17.9601777 Z M8.93111516,14.2799132 C9.23413034,13.8378399 8.12688196,12.2816348 9.09018133,13.7219274 C9.50674322,14.0510989 10.2950194,14.2732227 9.59878996,14.4120501 C10.6937766,15.373639 9.33205597,14.672477 8.93111516,14.2799132 Z M13.7723034,13.4879279 C13.3858079,12.8106843 14.2602519,10.5019677 14.3580096,11.93373 C13.95035,13.0493671 14.2404316,13.6729196 14.5236265,12.1765943 C15.048864,10.9997393 14.4105837,14.5008662 13.7723034,13.4879279 Z M15.3728753,29.9913291 C16.4787799,30.2746708 16.4734049,29.8205547 15.4736564,29.6849052 C14.9366611,29.1874682 13.2396753,28.6590877 14.7587824,29.6236874 C14.8588916,29.877591 15.1763521,29.8709005 15.3728753,29.9913291 Z M11.4474513,27.3945875 C12.0558332,27.8477001 13.7417331,28.676483 12.3150086,27.5677036 C12.7960704,27.0107213 11.3945412,26.7145004 11.8593101,26.3416736 C10.6763079,25.6206073 10.9254052,25.6851704 11.7550016,25.7082526 C10.3336522,25.0748316 11.9602592,25.123003 11.8834976,24.7983476 C11.3354163,24.6909655 9.16056013,23.8355879 10.4401442,24.8682631 C9.13973204,24.208582 10.1302423,25.1143054 9.73719601,25.0191334 C8.40688545,24.6581821 10.921374,26.0277229 9.52622757,25.6875121 C10.2886366,26.288986 11.5791386,27.2296672 9.84805522,26.3239438 C9.62079383,26.6509409 11.0871589,27.146538 11.4472833,27.3945875 L11.4474513,27.3945875 Z M25.2635327,35.4631362 C25.8467193,34.9011361 25.2877201,36.3599948 26.2300234,35.3254797 C26.2397656,34.5848438 26.2014688,34.1476211 25.1471305,35.0474903 C24.8558731,35.2083963 24.7265374,35.8896542 25.2635327,35.4633035 L25.2635327,35.4631362 Z M15.7121716,29.3569046 C16.3615379,29.9312821 18.6921009,29.7780701 16.4999439,29.4281581 C16.1757647,28.9501235 14.4393063,29.0650325 15.7121716,29.3569046 Z M5.02517556,22.2082965 C4.08287225,20.8695319 4.43980532,20.2678907 3.53042384,19.1741649 C3.35775222,18.3375206 1.97083628,16.4409375 2.81319832,18.4500879 C3.58417376,19.6259394 3.81261093,21.4457493 5.02534353,22.2082965 L5.02517556,22.2082965 Z M27.8094313,35.8426536 C28.7957423,35.2095671 27.5821699,35.3067463 27.6305448,35.9005262 L27.8094313,35.8426536 Z M29.3921985,36.2705096 C30.6563295,35.3624446 28.626766,36.09639 29.1274801,36.4432912 L29.3921985,36.2705096 Z M8.18634281,22.8119448 C9.1121852,23.0185133 11.8887046,25.0835292 10.2511796,22.9552883 C9.41217695,22.7080751 9.91524262,20.6659741 9.05961106,21.0269254 C9.63406335,21.9828274 9.53160256,22.3884376 8.3255887,21.7871309 C6.81118466,21.0498403 7.47449229,22.1514274 7.77129263,22.4555096 C7.36682448,22.5473364 8.30492857,22.804418 8.18617484,22.8117775 L8.18634281,22.8119448 Z M3.9652943,19.4926316 C4.13107921,18.8088648 2.43745278,15.734423 3.16576422,17.9514801 C3.42813102,18.416301 3.40092012,19.2966006 3.9652943,19.4926316 L3.9652943,19.4926316 Z M32.9497714,35.4248333 C33.8668795,35.2400088 35.9570795,35.8898215 36.2941923,35.183307 C35.1805611,35.1558761 32.4423386,34.4000193 32.3126669,35.3624446 L32.5565572,35.4009148 L32.9499394,35.4248333 L32.9497714,35.4248333 Z M4.38739915,15.5669938 C5.31223373,15.2060426 2.70334692,14.8188312 4.19843458,15.4992527 L4.38739915,15.5669938 Z M1.49951665,12.3505467 C1.33255596,11.3968191 1.35556765,9.72219257 2.95378796,10.2877052 C0.820587959,10.7098743 4.43107096,12.9287712 3.97520444,11.1767024 C4.87249219,11.2206923 5.73047531,10.6486565 5.25915568,11.5157424 C7.0275281,11.3222203 8.25235443,9.7954533 9.96009021,10.0098831 C11.2900648,9.83392354 12.7443361,9.70145209 14.1777794,9.16771923 C15.3562464,9.08341921 16.4907057,7.82008977 15.8452027,7.07092354 C14.238248,6.93544137 12.5553716,7.13548665 10.7794406,7.4877403 C8.81135361,7.89452134 7.02332888,8.66877686 5.03726929,9.00146086 C3.1007604,9.26071687 5.42611638,9.71449852 4.87131641,9.81619378 C3.8618257,10.1651022 6.07632246,10.4002725 4.74063691,10.7687505 C3.91591156,10.6125279 3.05692062,10.330357 3.40948652,9.46410739 C1.55545017,9.70463006 -0.0745162002,10.470188 1.39084103,12.3492086 L1.49968462,12.3502122 L1.49951665,12.3505467 Z M5.96882261,10.0841474 C6.40268526,8.48963932 8.29720202,11.3968191 6.68050517,10.2964028 C6.48818123,10.1518885 6.16954498,10.0348051 5.96882261,10.0841474 Z M6.84948148,9.32410915 C6.90692671,8.59016375 8.67412334,9.71232411 7.14073887,9.58771397 L6.84948148,9.32394189 L6.84948148,9.32410915 Z M8.21825682,8.70189473 C8.88156445,7.90890587 11.9711771,8.19525831 9.70964917,8.62395066 C9.10328287,8.16899818 8.63884996,8.89190429 8.21825682,8.70189473 Z M13.395886,8.07600054 C13.8141275,6.98461638 15.0201414,7.637607 13.5902255,7.85621835 C13.6207958,7.97330171 13.5473936,8.4207274 13.395886,8.07600054 Z M40.3054482,35.4392178 C41.3040209,35.442563 43.3312328,35.1294487 41.1587282,35.1306162 C40.8172482,35.183307 39.1719967,35.172435 40.3054482,35.4392178 Z M5.897436,13.6735887 C6.70586841,13.618894 7.16156696,12.7864313 5.74021748,12.8335992 C3.53815039,12.6072938 7.68310917,13.5851071 5.45803039,13.3051106 C5.15938239,13.5019779 5.87963134,13.7282833 5.897436,13.6735887 Z M4.76482438,7.31596228 C6.20817773,6.82822646 8.18079985,6.27910551 8.86191213,7.55681948 C8.16870611,6.72669847 8.58190863,5.90845305 9.2364819,7.12361105 C10.1623243,8.35198275 10.6255814,6.56478891 10.0237503,6.15232096 C10.7104055,7.00100805 11.4901153,7.40260397 10.4828082,6.20617931 C11.5779628,4.89467843 8.29165906,6.37779006 7.54487109,6.36240196 C7.18575443,6.52297342 3.8346148,7.21326345 4.76499234,7.31596228 L4.76482438,7.31596228 Z M5.61054579,5.70405896 C6.4334235,5.08619335 8.45643616,6.07253701 7.15820759,5.08920406 C7.03088747,4.97780761 4.31584456,5.83519232 5.61054579,5.70405896 Z M8.61029531,5.82749827 C9.5724189,5.85158399 8.19524514,4.53907954 9.34179815,5.13403026 C9.15400936,4.5216843 8.00628057,4.40677534 7.4450978,4.16190386 C7.12763733,4.72189684 8.09060076,5.83519232 8.61029531,5.82749827 L8.61029531,5.82749827 Z M7.36279323,3.40788703 C8.91448627,3.20349294 6.96705944,2.74302082 7.049364,3.39166262 L7.36262526,3.40788703 L7.36279323,3.40788703 Z M5.07338252,1.62520927 C3.98041146,0.204486338 7.12847717,1.86372479 6.01786942,0.37609709 C5.08329266,-0.364204261 4.18600491,1.21073418 5.07338252,1.62520927 L5.07338252,1.62520927 Z M19.0937136,9.14480435 C19.5949316,8.26082499 17.0256853,7.95256123 18.7566008,8.83168999 C18.9158349,8.88437751 18.8798897,9.20585496 19.0937136,9.14480435 Z M8.92053314,42.0654668 C8.80967393,42.5013515 8.74097481,43.2327879 8.71527563,44.2594417 C8.71527563,44.4611596 8.62406873,44.5621858 8.44115103,44.5621858 C8.25823333,44.5621858 8.1309132,44.4740388 8.05885471,44.298581 C7.86300344,43.8238916 7.67756621,43.4928802 7.5005274,43.3038743 C7.29191052,43.0830885 7.01442655,42.9496135 6.66824347,42.9041182 C6.29619323,42.8455765 5.36934302,42.8163057 3.88752488,42.8163057 C3.5482285,42.8163057 3.32600617,42.852267 3.2218657,42.9240224 C3.15652595,42.9691831 3.12394006,43.0668641 3.12394006,43.2165635 L3.12394006,47.6337841 C3.12394006,47.7833163 3.21850633,47.8545699 3.40747089,47.8483812 C3.98880989,47.8416907 4.830836,47.8022169 5.9337172,47.7312978 C6.14938876,47.7048704 6.29484948,47.6351222 6.36976343,47.5212168 C6.44534926,47.4074787 6.5187515,47.1137667 6.59013811,46.6389101 C6.63548961,46.3788178 6.78934876,46.2779588 7.05037181,46.336835 C7.27209024,46.3823303 7.36749635,46.4831892 7.33474249,46.6389101 C7.15165682,47.5233912 7.09253191,48.6739861 7.15787166,50.0911966 C7.16475836,50.2597966 7.05709055,50.3511216 6.83486822,50.364168 C6.65178255,50.3837377 6.53756397,50.2860567 6.49221247,50.0714596 C6.32290022,49.2590684 6.0072874,48.8248564 5.54755761,48.7693254 C5.0873239,48.7144635 4.33768047,48.686698 3.30013902,48.686698 C3.18256107,48.686698 3.12394006,48.7286808 3.12394006,48.8133153 L3.12394006,53.2014323 C3.12394006,53.5265896 3.24437348,53.7478771 3.48574422,53.8644587 C3.67554863,53.9619724 4.08337615,54.0499522 4.70973071,54.1278962 C5.03004664,54.1603451 5.16996441,54.3005106 5.13133165,54.5470547 C5.09185905,54.7616517 4.80496885,54.8462863 4.26914932,54.800791 C2.7221594,54.6770172 1.44559876,54.6837077 0.440643202,54.8206952 C0.159631895,54.8591654 0.0197141307,54.7454273 0.0197141307,54.4793136 C0.0197141307,54.3098772 0.159631895,54.2125308 0.440643202,54.1866052 C1.08043524,54.1148498 1.4000793,53.5556931 1.4000793,52.5094697 L1.4000793,44.1617607 C1.4000793,43.7332357 1.32314972,43.4033951 1.17013042,43.1724064 C1.01643923,42.9415849 0.730724809,42.7316712 0.313491045,42.5433342 C0.052132052,42.4262508 -0.0456256174,42.2671847 0.0195461622,42.0654668 C0.052132052,41.9421948 0.104538225,41.8736174 0.17592484,41.8609055 C0.241264588,41.8411686 0.414608084,41.854215 0.694779549,41.9000448 C1.10630238,41.9649424 2.07598456,41.9975585 3.60332217,41.9975585 C5.40545625,41.9975585 6.96202038,41.9582519 8.27452627,41.8804751 C8.71174829,41.8540477 8.93077922,41.8900091 8.93077922,41.9875228 C8.93077922,42.0139502 8.92741985,42.0395412 8.92053314,42.0654668 L8.92053314,42.0654668 Z M15.2709184,54.4440213 C15.2709184,54.7041136 15.1239459,54.8178517 14.830337,54.7852357 C13.9300258,54.7006011 12.8133712,54.713313 11.4817169,54.8238732 C11.2138071,54.8503006 11.049366,54.8434428 10.9868817,54.8049726 C10.9247333,54.765666 10.8941631,54.6586184 10.8941631,54.4824916 C10.8941631,54.3269379 11.0717058,54.1954701 11.4274631,54.0877534 C11.7837243,53.980873 11.961099,53.6605664 11.961099,53.1276698 L11.961099,44.3025953 C11.961099,43.7757202 11.8843374,43.3890106 11.7313181,43.1417974 C11.5776269,42.8947515 11.3083734,42.7030694 10.9233896,42.5669181 C10.7208196,42.4949955 10.6193666,42.3943038 10.6193666,42.264174 C10.6193666,42.0691466 10.766339,41.9229597 11.0601159,41.825446 C11.5042247,41.682437 11.9646263,41.4618185 12.441321,41.1624196 C12.8330235,40.9282529 13.081281,40.8116713 13.1852535,40.8116713 C13.4266242,40.8116713 13.5478975,40.9769261 13.5478975,41.3086066 C13.5478975,41.2830155 13.5347959,41.6080054 13.5082569,42.2837437 C13.4892765,42.9272004 13.4825577,43.5609559 13.4892765,44.1855119 L13.5279092,52.8931686 C13.5279092,53.2899139 13.6260028,53.5777717 13.8218541,53.7565747 C14.0177054,53.9352105 14.3543143,54.0537992 14.830337,54.1121736 C15.1239459,54.1444552 15.2709184,54.2550153 15.2709184,54.443854 L15.2709184,54.4440213 Z M24.1277296,53.8689748 C24.1277296,54.005795 23.8781284,54.2118617 23.378926,54.4878439 C22.8792197,54.7643279 22.4792867,54.9024863 22.179295,54.9024863 C21.9243188,54.9024863 21.699409,54.7792142 21.5035577,54.5320011 C21.3077064,54.2849552 21.1701402,54.1616832 21.0920349,54.1616832 C21.0334139,54.1616832 20.723344,54.2949909 20.1614893,54.5611047 C19.6006425,54.8278875 19.0355965,54.9613625 18.467695,54.9613625 C17.9325473,54.9613625 17.4850792,54.8049726 17.1261305,54.4935308 C16.734428,54.1486367 16.5385767,53.6806378 16.5385767,53.0888651 C16.5385767,51.9641958 17.8312623,51.1583277 20.4166335,50.6707592 C20.8600704,50.5861246 21.08582,50.4073216 21.0918669,50.1343501 L21.1118551,49.5101286 C21.1511598,48.4441682 20.6778245,47.9112717 19.6918494,47.9112717 C19.4110061,47.9112717 19.1451119,48.161161 18.8933271,48.6616087 C18.6425502,49.1627255 18.2814179,49.4321845 17.811442,49.4714911 C17.2762944,49.5230077 17.0083846,49.2988767 17.0083846,48.798429 C17.0083846,48.486151 17.4068059,48.1226908 18.2031446,47.7062085 C19.0389558,47.2708257 19.8421812,47.0527161 20.6124848,47.0527161 C21.9374203,47.0527161 22.5935053,47.6804502 22.5805717,48.935082 L22.5410991,52.9522121 C22.5350523,53.374883 22.7146106,53.5859676 23.0797741,53.5859676 C23.1518326,53.5859676 23.2890629,53.5699104 23.491129,53.5372943 C23.693867,53.5048455 23.8114449,53.4884538 23.8441988,53.4884538 C24.0331634,53.4884538 24.1277296,53.6157402 24.1277296,53.8689748 L24.1277296,53.8689748 Z M21.1118551,51.6460636 C21.1185739,51.4833177 21.080445,51.375601 20.9988123,51.3242516 C20.9171797,51.2722331 20.7888517,51.2618629 20.6124848,51.294479 C19.0389558,51.5741409 18.2521914,52.0846244 18.2521914,52.8255948 C18.2521914,53.5732556 18.6601869,53.9469188 19.4761779,53.9469188 C19.8027086,53.9469188 20.1393175,53.8853664 20.4846608,53.7620944 C20.8899688,53.6185836 21.0920349,53.4466384 21.0920349,53.2447532 L21.1118551,51.6458963 L21.1118551,51.6460636 Z M31.4081565,52.7471489 C31.4081565,53.4362681 31.1414225,53.9843855 30.6098022,54.3904975 C30.0778459,54.796944 29.3517181,55 28.4309148,55 C27.8174938,55 27.2034009,54.9351024 26.5899799,54.8049726 C26.0608792,54.6878892 25.7541687,54.5808416 25.6693446,54.4833279 C25.6169384,54.3918356 25.5910712,53.9470861 25.5910712,53.1472395 C25.5910712,52.8026799 25.6693446,52.6237096 25.8262272,52.6109977 C25.9827738,52.5912608 26.1168127,52.6760626 26.2276719,52.8642323 C26.7171321,53.7160973 27.5072559,54.1421135 28.5975395,54.1421135 C29.517503,54.1421135 29.9779047,53.823145 29.9779047,53.185877 C29.9779047,52.9068841 29.8737642,52.6725501 29.6644754,52.4842131 C29.4358703,52.2696161 28.9926014,52.0192249 28.3329891,51.733207 C27.3795999,51.3108706 26.7429993,50.9403854 26.4233552,50.6214169 C26.0771721,50.2835478 25.9043325,49.8285953 25.9043325,49.2562249 C25.9043325,48.5538921 26.1752657,48.0082836 26.7171321,47.6182288 C27.2196939,47.2408858 27.8922398,47.0527161 28.7340979,47.0527161 C29.2631987,47.0527161 29.7461081,47.0945316 30.184002,47.1793334 C30.6539779,47.263968 30.898708,47.3676704 30.9183603,47.4914442 C30.9700946,47.8550717 31.0782663,48.3819468 31.2415317,49.0714005 C31.261184,49.155366 31.1693053,49.2237761 30.9674071,49.2757946 C30.7517356,49.3212898 30.6082905,49.2853285 30.536232,49.168747 C30.0207366,48.3297611 29.368011,47.9106026 28.5777192,47.9106026 C27.6834549,47.9106026 27.2361548,48.1966205 27.2361548,48.7686564 C27.2361548,49.0874576 27.3570921,49.3406922 27.5984628,49.5290292 C27.8141344,49.6916078 28.3198876,49.9455114 29.1163942,50.2902383 C29.9520375,50.647677 30.519939,50.969489 30.8206027,51.2553397 C31.2123052,51.6256576 31.4081565,52.1234291 31.4081565,52.7471489 Z M42.9286123,54.4537225 C42.9286123,54.6811987 42.7749211,54.8016273 42.4682106,54.8145065 C42.0111683,54.821197 41.4133684,54.8536458 40.6763226,54.9120202 C40.3104872,54.9837756 40.0492962,54.9384476 39.8929175,54.775869 C38.861255,53.6707694 37.9861391,52.513484 37.2679057,51.3040129 C37.2094527,51.2003105 37.1345387,51.148292 37.0428279,51.148292 C36.9319687,51.148292 36.7396448,51.2458057 36.4655202,51.4410004 C36.1581378,51.6096005 36.0051185,51.8504577 36.0051185,52.1618994 C36.0051185,52.3833542 36.0111654,52.7016537 36.0247708,53.1183032 C36.0378724,53.5339491 36.1418449,53.8067533 36.3376962,53.9368831 C36.4749264,54.0283754 36.792051,54.0994617 37.287558,54.1516474 C37.5944365,54.1907867 37.7481277,54.3045248 37.7481277,54.4928618 C37.7481277,54.6425612 37.7236043,54.7353916 37.6745575,54.7705166 C37.6258466,54.8063107 37.4965109,54.8145065 37.287558,54.7949369 C36.6348324,54.7367297 35.5317833,54.7691785 33.9780746,54.8924506 C33.5863721,54.9248994 33.3740599,54.8760589 33.341474,54.7460964 C33.3285404,54.7009356 33.3216537,54.6357035 33.3216537,54.551069 C33.3216537,54.3500201 33.5210323,54.1968082 33.9196216,54.0934403 C34.2785703,54.0017807 34.4579606,53.5826223 34.4579606,52.8351287 L34.4579606,44.3122965 C34.4579606,43.7793999 34.4058904,43.4089147 34.3009101,43.2010082 C34.157465,42.9342254 33.8568013,42.7261515 33.399927,42.5766193 C33.1849273,42.505533 33.0769236,42.4046741 33.0769236,42.2745443 C33.0769236,42.0855383 33.2306148,41.9393513 33.5371573,41.8358162 C34.0306408,41.67145 34.5011404,41.4452832 34.9373427,41.1627541 C35.2966274,40.9290892 35.5188497,40.8118386 35.6031699,40.8118386 C35.8712476,40.8118386 36.0051185,40.9804386 36.0051185,41.3191441 C36.0051185,41.273147 36.0017591,41.5954608 35.9948724,42.2842455 C35.9878283,42.9213769 35.9846928,43.5585453 35.9854662,44.1957149 L36.0051185,50.2997722 C36.0051185,50.4690413 36.050638,50.5530068 36.1418449,50.5530068 C36.2397705,50.5530068 36.3901023,50.4690413 36.5926723,50.2997722 C37.1345387,49.8771013 37.8003659,49.3246351 38.5899858,48.6420391 C38.7470364,48.4796278 38.8251417,48.349498 38.8251417,48.2519843 C38.8251417,48.0766937 38.5607593,47.9525854 38.0323304,47.8816663 C37.8038932,47.8550717 37.6957215,47.7286216 37.7084871,47.5009781 C37.7283074,47.2735019 37.8426939,47.1759882 38.0513108,47.208437 C38.5219586,47.2736692 39.207438,47.3094632 40.1077492,47.3161537 C40.7347757,47.3221751 41.3582747,47.3256876 41.9785824,47.3256876 C42.1804806,47.3323781 42.2819335,47.4523049 42.2819335,47.6866389 C42.2819335,47.9074247 42.1220275,48.0278533 41.8023835,48.0475902 C41.2991498,48.0664908 40.8258146,48.1802289 40.3825457,48.3888045 C39.762238,48.6677974 39.0992663,49.1587112 38.3941345,49.8610441 C38.3424002,49.9001834 38.3158612,49.9488566 38.3158612,50.0072311 C38.3158612,50.0980543 38.4267204,50.3161639 38.6491107,50.6607235 C39.4651017,51.8959529 40.2355733,52.8284382 40.9598535,53.4593503 C41.4236145,53.8557611 41.8574771,54.0539665 42.2621133,54.0539665 C42.5627769,54.0539665 42.748886,54.0750415 42.8202726,54.117526 C42.8924991,54.1598433 42.9286123,54.272076 42.9286123,54.4537225 Z" id="Shape"></path>
        </g>
    </g>
</svg>