<?xml version="1.0" encoding="UTF-8"?>
<svg width="55px" height="55px" viewBox="0 0 55 55" version="1.1" xmlns="http://www.w3.org/2000/svg" xmlns:xlink="http://www.w3.org/1999/xlink">
    <title>007</title>
    <defs>
        <polygon id="path-1" points="0.0794811874 0.137952942 25.7963863 0.137952942 25.7963863 11.6905773 0.0794811874 11.6905773"></polygon>
        <polygon id="path-3" points="0.01092 0.00168235295 0.391130199 0.00168235295 0.391130199 3.51336472 0.01092 3.51336472"></polygon>
        <polygon id="path-5" points="0.0941596704 0.147435295 28.8240906 0.147435295 28.8240906 32.882353 0.0941596704 32.882353"></polygon>
    </defs>
    <g id="007" stroke="none" stroke-width="1" fill="none" fill-rule="evenodd">
        <g id="tornado" transform="translate(5.000000, 0.000000)">
            <g id="Group-3" transform="translate(7.846639, 0.000000)">
                <mask id="mask-2" fill="white">
                    <use xlink:href="#path-1"></use>
                </mask>
                <g id="Clip-2"></g>
                <path d="M23.9311726,10.7008353 L23.8483982,9.78471768 C23.8483982,9.78471768 23.6848496,9.65349415 24.3415056,9.18549415 C24.9981616,8.71764709 26.1942356,7.98827061 25.6648183,5.80212943 C25.1350932,3.61583531 24.7715322,3.90137648 24.7715322,3.90137648 C24.7715322,3.90137648 25.6846656,3.30658825 24.6149072,1.21802353 C23.5453025,-0.870388238 17.5977039,0.604576472 15.3917213,1.21802353 C13.1857387,1.83162354 5.40064175,5.03482354 0.626038724,9.34700003 C-4.14871816,13.6590236 23.9311726,10.7008353 23.9311726,10.7008353" id="Fill-1" fill="#EEF7F6" mask="url(#mask-2)"></path>
            </g>
            <path d="M10.942523,9.33552944 C14.0991798,6.7517412 17.5738563,4.68061178 21.4008622,3.26835295 C23.9062479,2.3436706 26.4936388,1.61414118 29.2036525,1.534 C30.2803345,1.50218824 30.8823718,2.02188236 30.9265283,2.93830589 C30.9745313,3.93349413 30.3883412,4.64558825 29.3615085,4.7174706 C26.2145446,4.9377059 23.2715933,5.86911766 20.4238787,7.1625412 C18.985482,7.81575297 17.6129356,8.58122356 16.3079318,9.46782356 C16.1213049,9.54276474 15.9094456,9.58329415 15.7515897,9.69754121 C13.6582294,11.2116589 11.5721004,12.7358706 10.0070805,14.8345295 C9.80614502,14.8385059 9.70352329,14.9385295 9.70506184,15.1401059 C8.93286023,16.0667765 8.25774155,17.0524824 7.82848423,18.1877648 C7.69155268,18.2440471 7.55477499,18.3003295 7.41784345,18.3566118 C6.08345321,18.8148236 4.74906298,19.2728824 3.41467275,19.7310942 C3.44698244,19.1159648 3.85500768,18.6649412 4.10640785,18.1434118 C5.4115655,15.4368118 7.13182575,13.0345647 9.33673137,10.9759765 C9.89553516,10.4541412 10.40849,9.88367062 10.942523,9.33552944" id="Fill-4" fill="#AFDBD8"></path>
            <path d="M29.9473909,10.5868942 C30.6108165,9.77691768 31.1634661,10.7289765 31.7778118,10.7008353 C31.8647402,10.9296353 31.9027426,11.2220589 32.275381,11.0801294 C32.391542,11.1049059 32.5078569,11.1296824 32.624018,11.1544589 C33.1832833,11.4121647 33.7442411,11.4013059 34.3070451,11.1660824 C34.7695353,11.2186942 35.1800222,11.6626824 35.6939002,11.3477765 C35.7297485,11.3259059 35.8312933,11.3347765 35.8382168,11.3531294 C36.1074642,12.0711883 36.7979684,11.5550118 37.1642988,11.7899294 C38.0195825,12.3383765 39.2201183,12.1955294 39.8550806,13.1472824 C39.9197,13.273153 40.0346302,13.299 40.1621765,13.2999177 C40.1621765,13.2999177 40.1644844,13.3009883 40.1644844,13.3011412 C40.4498866,13.767 40.9588412,13.9419647 41.3839444,14.2261295 C41.4876431,14.3250824 41.5913419,14.4238824 41.6951944,14.5226824 L41.7036565,14.5310942 C41.8025857,14.635553 41.9016687,14.7401648 42.0005979,14.8446236 C42.0482932,14.8947883 42.0961423,14.9448 42.1439914,14.9948118 C42.6290984,15.7985177 43.1919024,16.5467059 43.7867084,17.2722589 C44.0682643,18.0895765 44.349974,18.9068942 44.6315299,19.7240589 C44.663378,20.0738354 44.6952262,20.4237648 44.7270743,20.7735412 C44.5382934,21.4932824 44.6359917,22.2226589 44.652762,22.9492824 C44.5918351,23.2102001 44.6409151,23.4565883 44.7535375,23.6942589 C44.5492171,23.7964236 44.6558391,24.0093177 44.5856809,24.1592001 C43.9313328,23.8349648 43.2994475,23.7789883 42.7146421,24.3110707 C42.7003335,24.3239177 42.665716,24.3144354 42.6406375,24.315506 C42.6509459,24.112706 42.661408,23.909906 42.6718702,23.707106 C42.976966,23.6096824 43.0108143,23.4546001 42.7718764,23.2418589 C42.7631066,22.7860942 42.7546446,22.3303295 42.7458748,21.8745648 C42.7575678,21.5148471 42.7692609,21.1551295 42.7809539,20.7954118 C42.9968134,20.6176942 42.874652,20.5409177 42.6866404,20.4838707 C42.6632543,20.2319765 42.6400221,19.9800824 42.616636,19.7281883 C42.8569586,19.5000001 42.6812554,19.4535059 42.4797045,19.4183295 C41.9695191,17.934953 41.1665464,16.6565177 39.8649274,15.7272471 C39.7343039,15.4966118 39.5159827,15.3696706 39.2998155,15.2320236 C36.7450421,13.6047295 33.9334836,13.0237059 30.9363751,13.1911765 C29.6589115,13.0949765 28.4685301,13.5541059 27.2392233,13.764553 C26.9982854,13.5293295 26.9615139,13.7157647 26.9299734,13.912753 C25.7148214,14.2891412 24.5453644,14.7855883 23.4589895,15.4351295 C22.6284766,15.9317295 21.6847259,16.2848706 21.062072,17.0856706 C18.9197857,18.3397883 17.0498238,19.8406001 16.2613135,22.321153 C15.7205109,22.2368824 15.1595531,22.3714707 14.6284433,22.1752471 C14.5873638,21.4344001 15.0883179,20.865153 15.2627902,20.1926706 C15.3734125,20.0889765 15.510344,20.0022589 15.590349,19.8789883 C16.4690187,18.5248471 17.5273918,17.329153 18.8997844,16.4664118 C20.5892735,15.4043883 22.21122,14.2454 24.1265693,13.5371295 C25.6395859,12.9778236 27.0559812,12.1446 28.651003,11.7980353 C29.3675088,11.6423412 29.7741494,11.2647294 29.9473909,10.5868942" id="Fill-5" fill="#EEF7F6"></path>
            <path d="M17.8723363,10.1302118 C18.9534801,9.86455297 19.807379,9.1403765 20.8035945,8.69531767 C23.434988,7.51965885 26.1003837,6.45717649 28.9416363,5.89527061 C29.4887471,5.78714119 30.0458585,5.70302355 30.6020467,5.67121178 C31.2505484,5.63404708 31.8372001,6.14227061 31.8252311,6.66181179 C31.8135063,7.15963532 31.2628568,7.57043532 30.650819,7.64032944 C28.6240782,7.87203532 26.6622646,8.35701179 24.796303,9.19910591 C24.5002847,9.33262356 24.1687257,9.38844709 23.8536293,9.48021179 C22.8824923,9.78945885 21.9878216,10.2670941 21.0803808,10.7181177 C18.7340819,11.8841412 16.4344012,13.1139412 14.615981,15.0601177 C14.1359513,15.5736942 13.6080725,16.0430706 13.1020412,16.5326353 C12.8403327,16.2018236 12.5818552,16.4450001 12.3666111,16.5722471 C11.8228851,16.8937295 11.2508498,17.0373412 10.6237341,16.9737177 C10.7077392,16.7891177 10.7560499,16.575153 10.8811346,16.424353 C12.331532,14.6751648 13.8656269,13.0148353 15.7306653,11.6755294 C16.4451711,11.1624118 17.3250716,10.8709059 17.8723363,10.1302118" id="Fill-6" fill="#AFDBD8"></path>
            <path d="M29.9473909,10.5868942 C29.7741494,11.2647294 29.3675088,11.6423412 28.651003,11.7980353 C27.0559812,12.1446 25.6395859,12.9778236 24.1265693,13.5371295 C22.21122,14.2454 20.5892735,15.4043883 18.8997844,16.4664118 C17.5273918,17.329153 16.4690187,18.5248471 15.590349,19.8789883 C15.510344,20.0022589 15.3734125,20.0889765 15.2626364,20.1925177 C14.9667719,20.1480118 14.7266032,20.2939177 14.4733568,20.4084707 C13.9237843,20.657153 13.3703655,20.8995648 12.7546351,20.9387177 C13.0518842,19.4896001 13.9230151,18.3503412 14.8695351,17.2898471 C16.7276501,15.2077059 19.0519477,13.7163765 21.50133,12.4237177 C22.8734148,11.6995412 24.3025802,11.0816589 25.7058977,10.4160589 C25.8051346,10.4044353 25.9040638,10.3926589 26.0033007,10.3810353 C26.1363859,10.3946471 26.2490082,10.3655883 26.3116275,10.2336 C26.8813551,10.0470118 27.4407743,9.81316474 28.0237334,9.68744709 C28.5833065,9.5667765 29.1698043,9.54582356 29.6586038,9.96304709 C29.7146072,10.0592471 29.7701491,10.155753 29.8258449,10.2521059 C29.8661551,10.363753 29.906773,10.4752471 29.9473909,10.5868942" id="Fill-7" fill="#A0CCD2"></path>
            <path d="M25.7058977,10.4160589 C24.3025802,11.0816589 22.8734148,11.6995412 21.50133,12.4237177 C19.0519477,13.7163765 16.7276501,15.2077059 14.8695351,17.2898471 C13.9230151,18.3503412 13.0518842,19.4896001 12.7547889,20.9387177 C12.7117094,20.9422354 12.6683221,20.9462118 12.6252425,20.950953 C12.0421295,20.9472824 11.4567087,20.9166942 10.8872888,21.0863059 C10.9085209,20.6001059 11.1029945,20.1695765 11.2611581,19.7150354 C11.6741067,18.5288236 12.4593861,17.5755412 13.1023489,16.5327883 C13.6080725,16.0430706 14.1359513,15.5736942 14.615981,15.0601177 C16.4344012,13.1139412 18.7340819,11.8841412 21.0803808,10.7181177 C21.9878216,10.2670941 22.8824923,9.78945885 23.8536293,9.48021179 C23.8796309,10.2109647 24.5221322,10.0789765 24.9460046,10.2322236 C25.187558,10.3197059 25.5015774,10.1429059 25.7058977,10.4160589" id="Fill-8" fill="#EEF7F6"></path>
            <path d="M10.942523,9.33552944 C10.40849,9.88367062 9.89553516,10.4541412 9.33673137,10.9759765 C7.13182575,13.0345647 5.4115655,15.4368118 4.10640785,18.1434118 C3.85500768,18.6649412 3.44698244,19.1159648 3.41436504,19.7310942 C3.3915944,19.9961412 3.38928657,20.2668471 3.20404434,20.4873883 C3.0768057,20.4837177 2.94356669,20.5032942 2.8230977,20.472553 C2.11859258,20.2937648 1.40901023,20.0620589 1.1856118,21.1172001 C1.15130198,21.2794707 0.931596085,21.2481177 0.78112524,21.2576001 C0.685427012,20.8351765 1.07345101,20.6487412 1.22946066,20.3491295 C1.23022994,20.2913177 1.23099922,20.2336589 1.23161464,20.1760001 C1.23823044,19.4411177 1.66948788,18.8795177 1.92873469,18.2507765 C2.20382863,17.5838001 2.46815267,16.8645177 2.81263551,16.2324118 C4.1565648,13.7665412 5.62219391,11.3746942 7.95079949,9.66175297 C8.38790345,9.34027062 8.80669858,9.11865885 9.41904415,9.29698826 C9.89030407,9.4341765 10.4321837,9.33155297 10.942523,9.33552944" id="Fill-9" fill="#EEF7F6"></path>
            <g id="Group-13" transform="translate(0.000000, 9.329412)">
                <path d="M17.8723363,0.800800002 C17.3250716,1.54149412 16.4451711,1.83300001 15.7306653,2.34611765 C13.8656269,3.68542354 12.331532,5.34575296 10.8811346,7.0949412 C10.7560499,7.2457412 10.7077392,7.45970591 10.6237341,7.64430591 C10.3266388,8.0569412 10.0295435,8.46972944 9.73244815,8.88236473 C9.09779351,8.87441179 8.46313887,8.86645885 7.82848423,8.85835297 C8.25774155,7.72307061 8.93286023,6.73736473 9.70490799,5.81069414 C9.9006124,5.80167061 10.0009263,5.6995059 10.0070805,5.50511766 C11.5721004,3.40645883 13.6582294,1.88224706 15.7515897,0.368129413 C15.9094456,0.253882354 16.1213049,0.213352942 16.3079318,0.138411765 C16.3407031,0.53927059 16.6079504,0.599988237 16.9493561,0.616352943 C17.2613754,0.631341178 17.620013,0.474576472 17.8723363,0.800800002" id="Fill-10" fill="#EEF7F6"></path>
                <path d="M1.08329778,23.701753 C1.08360549,23.548506 1.08406705,23.3952589 1.08437477,23.2421648 C1.31700454,22.9939412 1.11622289,22.9676354 0.92574957,22.9359765 C0.600652538,22.3541883 0.653578889,21.6524942 0.276170929,21.0700942 C-0.00830820621,20.631153 0.203397196,20.0744471 0.162933155,19.5721883 C0.388024001,19.3143295 0.387100867,19.0580001 0.156778928,18.8036589 C0.158163629,18.7031765 0.159702186,18.6028471 0.161086887,18.5025177 C0.72389093,18.2544471 0.414794888,17.7618236 0.453258806,17.3831412 C0.497415383,16.9500118 0.474798599,16.2827295 0.88559324,16.2845648 C1.68948912,16.2880824 2.06658937,15.9508471 2.30814277,15.2899883 C2.34999151,16.4632001 2.14751745,17.6371765 2.32168207,18.8099295 C2.36368467,19.3218236 2.40584112,19.8338706 2.44799757,20.3459177 C2.26075522,20.6005648 2.2032132,20.8260001 2.58662153,20.9518707 C2.59769914,21.1551295 2.60877675,21.3583883 2.61985436,21.5616471 C1.27915605,21.7447177 1.28807967,22.6960118 1.38854743,23.6994589 C1.28669497,23.7002236 1.18499637,23.7009883 1.08329778,23.701753" id="Fill-12" fill="#DBEFED"></path>
            </g>
            <path d="M2.30814277,24.6194001 C2.06658937,25.2802589 1.68948912,25.6174942 0.88559324,25.6139765 C0.474798599,25.6121413 0.497415383,26.2794236 0.453258806,26.712553 C0.414794888,27.0912354 0.72389093,27.5838589 0.161086887,27.8319295 C0.0755431343,27.0201177 0.329558846,26.187506 0.00969290725,25.3899177 C0.0810819384,24.705506 0.152778681,24.0209412 0.24093798,23.176553 C0.582651424,23.6165648 0.377561816,24.003506 0.568188991,24.4234824 C0.5941906,24.1904001 0.60449893,24.0770707 0.619730641,23.964353 C0.691735095,23.4312001 0.456951342,22.8806118 0.888670353,22.3578589 C1.10945324,22.0905177 0.86497658,21.6268001 0.78112524,21.2576001 C0.931596085,21.2481177 1.15130198,21.2794707 1.1856118,21.1172001 C1.40901023,20.0620589 2.11859258,20.2937648 2.8230977,20.472553 C2.94356669,20.5032942 3.0768057,20.4837177 3.20450591,20.4875412 C2.95802912,21.6099765 2.51400166,22.6895883 2.46538327,23.855153 C2.32460533,24.091906 2.32198978,24.3568001 2.30814277,24.6194001" id="Fill-14" fill="#E6F4F1"></path>
            <g id="Group-18" transform="translate(0.000000, 25.388235)">
                <mask id="mask-4" fill="white">
                    <use xlink:href="#path-3"></use>
                </mask>
                <g id="Clip-16"></g>
                <path d="M0.011466,0.00168235295 C0.389844001,0.799270591 0.0893620003,1.63188236 0.190554001,2.44369413 C0.188916001,2.54402354 0.187096001,2.64435295 0.185458001,2.74498824 C0.128674,2.74697648 0.0718900002,2.74712942 0.014924,2.74529413 C0.013832,1.83070589 0.012558,0.916270591 0.011466,0.00168235295" id="Fill-15" fill="#D2EBE8" mask="url(#mask-4)"></path>
                <path d="M0.014924,2.74529413 C0.0718900002,2.74712942 0.128674,2.74697648 0.185458001,2.74498824 C0.457912001,2.99917648 0.459004001,3.25550589 0.192738001,3.51336472 C-0.116844,3.29832942 0.0476840001,3.00560001 0.014924,2.74529413" id="Fill-17" fill="#E6F4F1" mask="url(#mask-4)"></path>
            </g>
            <path d="M1.08329778,33.0311648 C1.18499637,33.0304001 1.28669497,33.0296354 1.38854743,33.0288707 C1.44085835,33.1825766 1.49316928,33.3362825 1.54532636,33.4898354 L1.54147996,33.4932001 C1.29946499,33.5207295 1.24484623,33.2740354 1.08360549,33.1834942 C1.07868211,33.1327177 1.07852825,33.0819413 1.08329778,33.0311648" id="Fill-19" fill="#C4E3E1"></path>
            <path d="M29.8258449,10.2521059 C29.7701491,10.155753 29.7146072,10.0592471 29.6586038,9.96304709 C29.8592316,9.97635297 30.1207862,9.95478827 29.8258449,10.2521059" id="Fill-21" fill="#EEF7F6"></path>
            <path d="M26.3116275,10.2336 C26.2490082,10.3655883 26.1363859,10.3946471 26.0033007,10.3810353 C26.0394568,10.1942941 26.0783823,10.0130589 26.3116275,10.2336" id="Fill-22" fill="#EEF7F6"></path>
            <path d="M0.92574957,32.2653883 C1.11622289,32.2970472 1.31700454,32.323353 1.08437477,32.5715766 C1.03144842,32.4695648 0.978522065,32.3674001 0.92574957,32.2653883" id="Fill-23" fill="#D2EBE8"></path>
            <path d="M40.1621765,13.2999177 C40.0346302,13.299 39.9197,13.273153 39.8550806,13.1472824 C39.9807807,13.1518706 40.0983264,13.1723647 40.1621765,13.2999177" id="Fill-24" fill="#DBEFED"></path>
            <path d="M32.310614,0.923764709 C32.4398527,0.981882356 32.4627772,1.0938353 32.4615464,1.21802353 C32.3356924,1.15837647 32.319076,1.04305883 32.310614,0.923764709" id="Fill-25" fill="#AFDBD8"></path>
            <path d="M1.23161464,20.1760001 C1.23099922,20.2336589 1.23022994,20.2913177 1.22946066,20.3491295 C1.12145398,20.2900942 1.12037699,20.2324354 1.23161464,20.1760001" id="Fill-26" fill="#E6F4F1"></path>
            <path d="M7.82848423,18.1877648 C8.46313887,18.1958706 9.09779351,18.2038236 9.73214044,18.2116236 C9.63536523,18.5254589 9.56336077,18.8493883 9.43827611,19.1516001 C8.95809256,20.3115059 8.35420906,21.4125295 8.42636737,22.752753 C8.46883153,23.5425412 8.56822229,23.9447765 9.14471949,24.0016707 C9.90599735,24.0766118 10.2438644,23.7256118 10.326331,22.8878001 C10.388181,22.2576824 10.4646473,21.6136471 10.8872888,21.0863059 C11.4567087,20.9166942 12.0421295,20.9472824 12.6252425,20.950953 C12.617242,21.2028471 12.6092415,21.4547412 12.6013948,21.7066354 C12.4860031,21.7820354 12.4655403,21.8958236 12.4721561,22.0207765 C12.4650787,22.6843883 12.4580014,23.3480001 12.4510779,24.0114589 C12.2273717,24.2584589 12.3029148,24.4048236 12.6084722,24.4738001 C12.6230885,24.7529177 12.7375571,24.9956354 12.8326399,25.2557883 C13.1058876,26.0038236 13.9051678,26.3370824 14.1804156,27.0629413 C13.8105466,27.1787177 13.4776029,27.1882001 13.0857325,27.0216471 C12.4835414,26.7656236 11.8407324,26.9341648 11.2116166,27.0554471 C10.4447999,27.2031883 9.72475537,26.8313883 8.98455574,26.785353 C7.77786571,26.710106 6.56840629,26.8402589 5.40341115,27.2183295 C5.34340744,26.1440707 5.40002633,25.0754707 5.55649754,24.0114589 C5.87359408,23.9426354 5.94236756,23.795353 5.70327585,23.551106 C5.703122,23.3470824 5.70296814,23.1430589 5.70266043,22.9390354 C6.30192827,21.4217059 6.59194621,19.7901295 7.41784345,18.3566118 C7.55477499,18.3003295 7.69155268,18.2440471 7.82848423,18.1877648" id="Fill-27" fill="#E6F4F1"></path>
            <path d="M7.41784345,18.3566118 C6.59194621,19.7901295 6.30192827,21.4217059 5.70266043,22.9390354 C4.53981927,22.9520354 3.54575778,23.5541648 2.46538327,23.855153 C2.51400166,22.6895883 2.95802912,21.6099765 3.20450591,20.4875412 C3.38928657,20.2668471 3.3915944,19.9961412 3.41436504,19.7310942 C4.74906298,19.2728824 6.08345321,18.8148236 7.41784345,18.3566118" id="Fill-28" fill="#A0CCD2"></path>
            <path d="M10.0070805,14.8345295 C10.0009263,15.0289177 9.9006124,15.1310824 9.70490799,15.1401059 C9.70352329,14.9385295 9.80614502,14.8385059 10.0070805,14.8345295" id="Fill-29" fill="#E6F4F1"></path>
            <path d="M36.009612,43.9020707 C35.7052855,44.0202943 35.6331272,44.3026237 35.5489681,44.566906 C35.0641689,46.0874472 34.275197,47.4467884 33.2002074,48.6129649 C31.8981269,50.0255296 30.391726,51.168459 28.4611451,51.6292707 C28.1632805,51.7002355 27.8583386,51.7582002 27.5740133,51.8667884 C27.1442944,52.0310472 26.9436666,51.9131296 26.929358,51.4536943 C26.8775087,49.7786825 26.0257637,48.5984354 24.6156764,47.759706 C23.8374745,47.2967531 23.108814,46.7955648 22.194142,46.5367884 C20.9028314,46.171106 19.8783065,45.2869531 18.9394792,44.3374943 C19.1725705,43.8451766 19.6698321,44.0557766 20.0320083,43.9783884 C20.940526,43.784459 21.7004192,43.2607884 22.5623187,42.9721884 C23.5862282,42.6294472 24.8744617,42.6790001 25.2377149,41.2901413 C25.5888136,41.3162942 25.7155906,41.5356119 25.7291299,41.8528119 C25.7298992,42.0912472 25.7309762,42.3298354 25.7318993,42.5684237 C25.7197447,43.2133766 25.1295544,43.1702472 24.752608,43.381306 C24.2478075,43.4498237 23.7430071,43.5183413 23.2383605,43.5870119 C22.9829601,43.3328237 22.8387973,43.4132707 22.7763319,43.7390354 C22.5475485,43.813059 22.2116816,43.781859 22.1892187,44.1033413 C22.168602,44.3991295 22.5123156,44.3960707 22.6940191,44.4740707 C23.6153069,44.8700354 24.5676735,44.9847413 25.5400413,44.6435295 C25.798365,44.595659 26.0565348,44.5480943 26.3145508,44.5002237 C26.4874845,44.5060354 26.6633416,44.5207178 26.7744254,44.3451413 C27.0312105,44.2923766 27.2881494,44.2396119 27.5450884,44.1868472 C27.7177145,44.200459 27.8874173,44.2038237 28.009271,44.0485884 C28.2132836,44.0337531 28.4171424,44.0186119 28.621155,44.0036237 C28.7759338,44.0036237 28.9307126,44.0037766 29.0854914,44.0039295 C29.2441166,44.0675531 29.4030495,44.1311766 29.5618285,44.1949531 C30.1910982,45.2364825 29.8718477,45.9355766 28.6713119,46.1675884 C28.1709733,46.2640943 27.6723271,46.3732943 27.1781426,46.4976354 C26.8416603,46.5822119 26.6544179,46.7220001 27.0036703,47.057706 C27.6112464,47.6419413 28.160665,48.274506 28.4731458,49.0748472 C28.5768445,49.340659 28.736239,49.4130002 29.010256,49.2632707 C30.8579087,48.2523296 32.473701,47.0220707 33.2159007,44.9480354 C33.4048355,44.8516825 33.3888345,44.6732001 33.3959119,44.5040472 C33.5094573,44.4304825 33.5414593,44.3228119 33.5265353,44.1955648 C33.6097712,43.9467295 33.7319326,43.7066119 33.6999307,43.4319295 C33.8222459,43.3624943 33.8520939,43.2545178 33.8297848,43.1246707 C33.8905578,42.8305648 34.0724152,42.6511648 34.3388933,42.5106119 C35.3184923,41.993059 35.7743667,41.1410237 35.8626798,40.0681413 C36.0008422,39.6805884 35.891297,39.2362942 36.2991684,38.9068589 C37.5732472,37.8778707 38.1442056,36.4677531 38.3611421,34.889553 C38.4483782,34.8803766 38.5353067,34.8710472 38.622389,34.8617178 C39.078571,35.5025413 39.4127456,35.503306 39.7193799,34.8426001 C39.8495418,34.561953 39.9946277,34.3612942 40.3384951,34.411306 C40.3446494,34.7150472 40.3506497,35.0186354 40.356804,35.3223766 C40.3309562,35.4707295 40.3049546,35.6192354 40.278953,35.7677413 C40.0960186,35.8214236 39.9318546,35.8824472 40.1557146,36.0898354 C39.9877042,37.2446942 39.3716661,38.2221413 38.8879439,39.2518942 C38.3999137,39.7916237 37.7014089,40.2134354 37.8377251,41.1030942 C37.4807799,41.2594001 37.475395,41.5915884 37.4312384,41.904659 C37.1469131,42.7034707 36.69827,43.3872707 36.009612,43.9020707" id="Fill-30" fill="#689BC1"></path>
            <path d="M25.2377149,41.2901413 C24.8744617,42.6790001 23.5862282,42.6294472 22.5623187,42.9721884 C21.7004192,43.2607884 20.940526,43.784459 20.0320083,43.9783884 C19.6698321,44.0557766 19.1725705,43.8451766 18.9394792,44.3374943 C17.954649,43.6327413 16.8068857,43.1841648 15.8785206,42.3850472 C15.4904966,42.0511766 15.0747786,41.7385648 14.8047619,41.3098707 C14.5661318,40.9308825 14.2753445,40.7840589 13.852703,40.8305531 C13.0885019,40.6464119 12.2784518,40.6907648 11.5411754,40.3726472 C11.4927109,40.331506 11.4442463,40.2902119 11.3957818,40.2489178 C11.2913138,40.2402001 11.186692,40.2311766 11.0820701,40.222306 C11.0172969,40.0857295 10.9015974,40.0776237 10.7731279,40.1013295 C8.82362271,39.4669295 7.37060975,38.1470472 6.01360274,36.6945648 C6.0817608,36.5504942 6.18592109,36.4312001 6.34700798,36.4143766 C7.19736827,36.3261295 8.06188328,36.2956942 8.65038122,35.518753 C8.71069265,35.4389178 8.94009145,35.4855648 9.09117772,35.4736354 C9.63228811,35.6871413 9.87814947,36.2548589 10.3912581,36.5177648 C12.1998315,37.4445883 14.1585681,37.8235766 16.147768,37.8910236 C18.1400451,37.9587766 20.0138533,37.2925648 21.8187342,36.4853413 C22.2029118,36.3135883 22.5752425,36.1846589 22.9995765,36.2930942 C23.6826957,36.4676001 24.1334928,36.8811531 24.2585774,37.5756589 C24.3979707,38.3483178 24.0225628,38.8927884 23.3900622,39.2950236 C21.6197988,40.0699766 19.7712229,40.6173531 17.7067876,41.0515531 C18.0006519,41.2520589 18.096504,41.3302119 18.2034337,41.3886354 C19.6009047,42.1507413 21.0385321,41.9736354 22.5098539,41.6269178 C23.3994474,41.4173884 24.2791941,40.9957295 25.2377149,41.2901413" id="Fill-31" fill="#78A9C6"></path>
            <path d="M6.01360274,36.6945648 C7.37060975,38.1470472 8.82362271,39.4669295 10.7731279,40.1011766 C10.8148228,40.2955648 10.8735957,40.4468237 11.0820701,40.222306 C11.186692,40.2311766 11.2913138,40.2402001 11.3957818,40.2487648 C11.4440925,40.289906 11.4927109,40.3313531 11.5411754,40.3726472 C12.2784518,40.6907648 13.0885019,40.6464119 13.852703,40.8305531 C13.9120913,41.2069413 13.6511521,41.358506 13.3674422,41.3578942 C12.7929452,41.3566707 12.1710605,41.4046942 11.6579519,41.2052589 C11.182384,41.0206589 10.7371257,40.9905295 10.2638656,40.9882354 C9.8936889,40.9865531 9.38258036,40.8718472 9.68783001,41.5571766 C9.61828725,41.5828707 9.54889834,41.6084119 9.47981714,41.6338001 C9.14348865,41.506859 8.80669858,41.3800707 8.46990852,41.2534354 C8.4991411,40.8096001 8.29266679,40.6841884 7.88741095,40.8274942 C7.51923433,40.5630589 7.17090509,40.2640589 6.77857313,40.0422942 C6.16930468,39.6977178 5.8158982,39.0024472 5.08062195,38.8415531 L5.08585305,38.8455295 C5.08800703,38.6360001 4.98338517,38.5327648 4.77291061,38.5346001 L4.77752628,38.5408707 C4.79137329,38.3912942 4.71659944,38.2807178 4.61597783,38.1817648 C4.52858781,38.0985648 4.44089008,38.0152119 4.3533462,37.9320119 C4.23641589,37.7799884 4.11948558,37.6279648 4.00255527,37.4760942 C3.9028568,37.3193295 3.80331218,37.1627178 3.70345985,37.006106 C4.03532653,36.5682354 4.4158116,36.2692354 5.03031115,36.3568707 C5.24155499,36.3870001 5.22155375,36.1080354 5.23678546,35.9370472 C5.61834752,36.0653648 5.64557998,36.5526354 6.01360274,36.6945648" id="Fill-32" fill="#CBE7E5"></path>
            <path d="M40.6682078,39.9280472 C39.765075,40.893106 39.6107578,42.2188001 39.0068743,43.3271648 C38.8056311,43.6968237 38.6516216,44.1207766 38.2088249,44.3015531 C37.8031075,43.477659 37.1724531,43.8462472 36.5768778,43.9904707 C36.3847121,44.0371178 36.1217728,44.4020354 36.009612,43.9020707 C36.69827,43.3872707 37.1469131,42.7034707 37.4310845,41.904659 C37.931577,41.8205413 37.8546492,41.4467531 37.8377251,41.1030942 C37.7014089,40.2134354 38.3999137,39.7916237 38.8882516,39.2522001 C39.4693645,39.5100589 40.0175522,39.8524942 40.6682078,39.9280472" id="Fill-33" fill="#CBE7E5"></path>
            <path d="M24.5970599,50.5046943 C24.6813728,50.5170825 24.7402995,50.5554707 24.7153749,50.643259 C24.7059897,50.6762943 24.6304466,50.7244707 24.6244462,50.7192707 C24.5779818,50.6804237 24.5413642,50.6299531 24.5015155,50.5831531 C24.5341329,50.5563884 24.5665965,50.5297766 24.5970599,50.5046943" id="Fill-34" fill="#A0A09D"></path>
            <path d="M30.9363751,13.1911765 C33.9334836,13.0237059 36.7450421,13.6047295 39.2998155,15.2320236 C39.5159827,15.3696706 39.7343039,15.4966118 39.8647735,15.7274 C39.5202907,16.5870824 38.6163886,16.5971765 37.9432701,16.9411412 C37.6875619,17.0719059 37.4055445,17.0849059 37.3876972,17.4432471 C36.2285486,16.5454824 35.0124734,15.7553883 33.5465366,15.4380353 C33.4879175,15.1125765 33.337139,15.0546118 33.0878928,15.2818824 C32.7286398,15.2670471 32.369233,15.2523648 32.00998,15.2375295 C31.7993516,14.8536471 31.5924157,14.8519648 31.3894801,15.2434942 C30.9282208,15.2580236 30.4669615,15.2724 30.0057022,15.2867765 C29.7679951,15.0506353 29.6176782,15.1082942 29.5438274,15.4225883 C29.2345775,15.4750471 28.9253276,15.5275059 28.6160777,15.5799648 C28.3982181,15.3710471 28.3506767,15.5348471 28.3117512,15.7174589 C27.8655698,15.6940589 27.5070861,15.9985648 27.0792134,16.0427648 C26.8407372,15.8265059 26.8076582,16.0114118 26.7747331,16.1967765 C26.6328781,16.2065648 26.4908694,16.2162 26.3487067,16.2259883 C26.14054,16.2019765 26.0220711,16.2885412 26.0054547,16.5009765 C25.9568363,16.5122942 25.9076025,16.5174942 25.8575994,16.5162706 C25.6991281,16.5407412 25.4171106,16.4547883 25.4684984,16.7167765 C25.5077316,16.9165177 25.6526637,17.2384589 26.0022237,16.9848824 C26.841968,17.4522706 27.7631019,17.8245295 28.1618958,18.8082471 C28.0137328,18.8360824 27.8235672,18.8148236 27.7240226,18.8994001 C26.9025871,19.5974236 25.8363673,19.7774354 24.8806159,20.1301177 C23.0500411,20.8056589 21.2371598,21.5345765 19.3882762,22.1578118 C18.4005228,22.4909177 17.4447714,23.2273295 16.3022391,22.6290236 C16.2883921,22.5264001 16.274699,22.4237765 16.260852,22.3210001 C17.0498238,19.8406001 18.9197857,18.3397883 21.0622259,17.0859765 C21.2727004,17.5259883 21.5941049,17.4294824 21.9684358,17.3160001 C23.5083772,16.8487648 24.964775,16.1733765 26.4577904,15.5888353 C27.7515627,15.0821412 29.0744138,14.6482471 30.3863411,14.1880471 C30.8763714,14.0162942 31.1719281,13.7520118 30.9363751,13.1911765" id="Fill-35" fill="#98C4CF"></path>
            <path d="M40.3384951,34.411306 C39.9946277,34.3612942 39.8495418,34.561953 39.7193799,34.8426001 C39.4127456,35.503306 39.078571,35.5025413 38.622389,34.8618707 C38.5974644,34.6558589 38.6891623,34.4229295 38.4820726,34.2586707 C38.4822265,33.7972472 38.4822265,33.3356707 38.4823803,32.8744001 C38.5685395,32.8138354 38.6291586,32.7156472 38.5234598,32.6578354 C38.370835,32.5743295 38.3376021,32.7197766 38.3037539,32.8297413 C38.2054401,32.8568119 38.0694317,32.8519177 38.0143514,32.9160001 C36.6945774,34.4515295 35.1004788,35.6643531 33.4023738,36.7425883 C32.5570907,37.279106 31.7465791,37.9434825 30.6583579,37.9425658 C30.1906367,37.942106 29.8293836,37.7654589 29.6276788,37.3046472 C29.4392056,36.8730472 29.6727585,36.5989766 29.9073884,36.2856001 C30.1820208,35.9188472 30.6765129,35.8833648 30.9539147,35.5380236 C31.588877,35.3286472 32.1501425,34.9947766 32.6904836,34.6023295 C33.7562418,33.8278354 34.7456877,32.9762589 35.7359027,32.1043413 C38.5399223,29.6346471 40.0757096,26.5599177 40.6642076,22.9472942 C41.0888492,22.8104118 40.8817595,22.4514589 40.9328396,22.1847295 C40.9634569,22.0250589 40.9280701,21.7144354 41.1380831,21.7965648 C41.6801166,22.0086942 42.2306122,21.551553 42.7458748,21.8745648 C42.7546446,22.3303295 42.7631066,22.7860942 42.7718764,23.2418589 C42.6007889,23.3675765 42.6312523,23.5362707 42.6718702,23.707106 C42.661408,23.909906 42.6509459,24.112706 42.6404837,24.315506 C42.4649344,24.4305177 42.4946285,24.6229177 42.4493949,24.791306 C42.0970654,26.1036942 41.7748917,27.4066001 41.0139215,28.5929648 C40.5883567,29.2564236 40.0012435,29.9654589 40.1674076,30.8895295 C39.9310853,31.098753 40.0909414,31.158553 40.2877228,31.2042824 C40.3011082,31.4072354 40.3144936,31.6103413 40.3277252,31.8132942 C40.189409,31.860553 40.1797161,31.9761766 40.1763313,32.0950119 C40.1884859,32.336353 40.0441692,32.6387177 40.4286546,32.7353766 C40.4412707,33.038353 40.4540407,33.3414825 40.4668108,33.6446119 C40.2738758,33.7940354 40.2731065,33.9460589 40.4609642,34.1000707 C40.4658876,34.2216589 40.4485019,34.3346825 40.3384951,34.411306" id="Fill-36" fill="#78A9C6"></path>
            <g id="Group-40" transform="translate(35.079093, 15.600000)">
                <path d="M7.66678192,6.27456473 C7.15151928,5.95155296 6.60102369,6.40869414 6.05899016,6.19656472 C5.84897717,6.11443531 5.88436398,6.42505884 5.8537467,6.58472943 C5.80266662,6.85145884 6.00975635,7.21041179 5.58480699,7.34729414 C5.52880352,6.21140002 5.72681577,5.04032943 5.10923911,3.93120001 C5.00430954,4.68504707 5.15247255,5.39882355 5.00615581,6.10296472 C4.57320595,8.18847061 3.49390842,9.88887062 1.92442673,11.3096942 C1.06206569,12.0903059 0.939904292,12.0994824 0.0268576992,11.3193294 C0.0224629279,10.8328236 0.24093798,10.4958941 0.612960992,10.1621765 C1.59486788,9.28108238 2.54154182,8.35318826 2.93756632,7.03315296 C3.66745762,5.1906706 3.50714001,3.45478825 2.30860434,1.84340001 C2.32645159,1.48490589 2.60846904,1.47190589 2.86417716,1.34114118 C3.53729572,0.997176474 4.44119779,0.987082356 4.78568063,0.1274 C6.08745346,1.05651765 6.89042621,2.33495295 7.40045775,3.81832942 C7.3909187,3.94588237 7.41722802,4.05752942 7.53754316,4.12818825 C7.56092922,4.38008237 7.58416143,4.63197648 7.60693206,4.8838706 C7.55754439,5.01203531 7.57585322,5.12001178 7.70186101,5.19541178 C7.69016798,5.55512943 7.67847495,5.91484708 7.66678192,6.27456473" id="Fill-37" fill="#8FBCCD"></path>
                <path d="M5.25940224,18.8113059 C5.36940905,18.7346824 5.38679474,18.6216589 5.38202521,18.5002236 C5.5784989,18.3508001 5.57496022,18.1987765 5.38771787,18.0446118 C5.37494785,17.7414824 5.36217783,17.438353 5.34986938,17.1352236 C5.36294711,16.9296706 5.37571713,16.7242706 5.38833329,16.5187177 C5.38879486,16.395753 5.36910134,16.2818118 5.2487862,16.2132942 C5.23540076,16.0103412 5.22201531,15.8072353 5.20893758,15.6042824 C5.23693931,15.4733648 5.21293783,15.3624824 5.08831474,15.2895295 C4.92215061,14.3654589 5.50926385,13.6564236 5.93482864,12.9929647 C6.69579878,11.8066 7.01797256,10.5036941 7.37030204,9.19130591 C7.41553561,9.02291767 7.38584147,8.83051767 7.56139079,8.71550591 C7.58662312,8.71443532 7.62124064,8.72391767 7.63554922,8.71107061 C8.22035462,8.17898826 8.85223986,8.23496473 9.50658803,8.55920003 C9.47227821,8.90622356 9.70229244,9.30631768 9.29903673,9.57901179 C9.26364993,9.4419765 9.22826312,9.30478826 9.17118267,9.08332944 C9.05179067,9.4029765 9.01963483,9.62091768 9.26734246,9.79863532 C9.06502225,10.9768942 8.59483933,12.0649177 8.15373512,13.1671647 C7.7272472,14.2331647 6.79765124,15.1890471 7.32814559,16.4933295 C7.31968353,17.4753648 7.31152918,18.4574001 7.30322097,19.4392824 C7.28121961,19.5348706 7.25952596,19.6304589 7.2375246,19.7260471 C6.58533041,19.2412236 5.93159767,19.4807295 5.27771107,19.7223765 C5.27155684,19.4186354 5.26555647,19.1150471 5.25940224,18.8113059" id="Fill-39" fill="#DBEFED"></path>
            </g>
            <path d="M30.9363751,13.1911765 C31.1719281,13.7520118 30.8763714,14.0162942 30.3863411,14.1880471 C29.0744138,14.6482471 27.7515627,15.0821412 26.4577904,15.5888353 C24.964775,16.1733765 23.5083772,16.8487648 21.9684358,17.3160001 C21.5941049,17.4294824 21.2727004,17.5259883 21.0622259,17.0859765 C21.6847259,16.2848706 22.6284766,15.9317295 23.4589895,15.4351295 C24.5453644,14.7855883 25.7148214,14.2891412 26.9299734,13.912753 C27.0569044,13.9124471 27.1689113,13.881553 27.2392233,13.764553 C28.4685301,13.5541059 29.6589115,13.0949765 30.9363751,13.1911765" id="Fill-41" fill="#A0CCD2"></path>
            <path d="M12.6013948,21.7066354 C12.6092415,21.4547412 12.617242,21.2028471 12.6252425,20.950953 C12.6683221,20.9462118 12.7117094,20.9422354 12.7547889,20.9387177 C13.3703655,20.8995648 13.9237843,20.657153 14.4733568,20.4084707 C14.7266032,20.2939177 14.9667719,20.1480118 15.2626364,20.1925177 C15.0883179,20.865153 14.5873638,21.4344001 14.6282894,22.1752471 C14.3105775,22.5465883 14.557362,22.997153 14.4547403,23.3987765 C14.3342713,23.4276824 14.1197965,23.4348707 14.1070264,23.4890118 C13.900706,24.3624589 13.2023551,24.1287648 12.6227808,24.1614942 C12.5653926,24.1114824 12.5081583,24.0614707 12.450924,24.0114589 C12.4580014,23.3480001 12.4650787,22.6843883 12.4721561,22.0207765 C12.6812459,21.9836118 12.8598724,21.9340589 12.6013948,21.7066354" id="Fill-42" fill="#98C4CF"></path>
            <path d="M14.4545864,23.3987765 C14.557362,22.997153 14.3105775,22.5465883 14.6282894,22.1752471 C15.1595531,22.3714707 15.7205109,22.2368824 16.2613135,22.321153 C16.274699,22.4237765 16.2883921,22.5264001 16.302393,22.6291765 C16.2520822,22.8836707 16.2016175,23.1383177 16.1513067,23.3929648 C15.9266775,23.7525295 15.9243696,24.1114824 16.15423,24.4698236 C16.1066886,24.9208471 16.4860967,25.3027413 16.4008606,25.776553 C15.4043374,25.461953 14.7112177,24.6036471 14.4545864,23.3987765" id="Fill-43" fill="#E6F4F1"></path>
            <path d="M42.6718702,23.707106 C42.6312523,23.5362707 42.6007889,23.3675765 42.7718764,23.2418589 C43.0108143,23.4546001 42.976966,23.6096824 42.6718702,23.707106" id="Fill-44" fill="#DBEFED"></path>
            <path d="M42.7809539,20.7954118 C42.6549461,20.7200118 42.6366373,20.6120354 42.686025,20.4838707 C42.874652,20.5409177 42.9968134,20.6176942 42.7809539,20.7954118" id="Fill-45" fill="#DBEFED"></path>
            <path d="M42.616636,19.7281883 C42.4963209,19.6575295 42.4700116,19.5458824 42.4795506,19.4183295 C42.6812554,19.4535059 42.8569586,19.5000001 42.616636,19.7281883" id="Fill-46" fill="#DBEFED"></path>
            <path d="M27.2392233,13.764553 C27.1689113,13.881553 27.0569044,13.9124471 26.9299734,13.912753 C26.9615139,13.7157647 26.9982854,13.5293295 27.2392233,13.764553" id="Fill-47" fill="#E6F4F1"></path>
            <path d="M41.7036565,14.5310942 C41.9141311,14.5310942 42.0102909,14.6383059 42.0005979,14.8444706 C41.9016687,14.7401648 41.8025857,14.635553 41.7036565,14.5310942" id="Fill-48" fill="#C4E3E1"></path>
            <path d="M41.3839444,14.2261295 C41.58688,14.222153 41.6962714,14.3152942 41.6951944,14.5226824 C41.5913419,14.4238824 41.4876431,14.3250824 41.3839444,14.2261295" id="Fill-49" fill="#C4E3E1"></path>
            <path d="M10.8872888,21.0863059 C10.4646473,21.6136471 10.388181,22.2576824 10.326331,22.8878001 C10.2438644,23.7256118 9.90599735,24.0766118 9.14471949,24.0016707 C8.56822229,23.9447765 8.46883153,23.5425412 8.42636737,22.752753 C8.35420906,21.4125295 8.95809256,20.3115059 9.43827611,19.1516001 C9.56336077,18.8493883 9.63536523,18.5254589 9.73214044,18.2116236 C10.0295435,17.7991412 10.3266388,17.386353 10.6237341,16.9737177 C11.2508498,17.0373412 11.8228851,16.8937295 12.3666111,16.5722471 C12.5818552,16.4450001 12.8403327,16.2018236 13.1020412,16.5326353 C12.4593861,17.5755412 11.6741067,18.5288236 11.2611581,19.7150354 C11.1029945,20.1695765 10.9085209,20.6001059 10.8872888,21.0863059" id="Fill-50" fill="#A0CCD2"></path>
            <path d="M1.99612347,34.5706707 C1.69502792,34.5454354 1.69748961,34.3232119 1.69118153,34.1066472 C1.69118153,34.1066472 1.70348998,34.0973178 1.70333613,34.0974688 C2.00673951,34.1185766 2.00812421,34.338506 2.01027819,34.5581295 L1.99612347,34.5706707" id="Fill-51" fill="#C4E3E1"></path>
            <path d="M1.69118153,34.1066472 C1.47424504,33.9423883 1.56025036,33.7051766 1.54163382,33.4932001 C1.54147996,33.4932001 1.54532636,33.4898354 1.54532636,33.4898354 C1.76718623,33.6488942 1.67564211,33.888553 1.70348998,34.0973178 L1.69118153,34.1066472" id="Fill-52" fill="#C4E3E1"></path>
            <path d="M6.01360274,36.6945648 C5.64557998,36.5526354 5.61834752,36.0653648 5.23678546,35.9370472 C5.02569548,35.6271883 4.82352913,35.3104472 4.60166925,35.0082354 C3.68345861,33.7576354 3.25712455,32.2744119 2.61985436,30.8910589 C2.60877675,30.6878001 2.59769914,30.4845413 2.58692925,30.2812824 C2.59431432,30.0670119 2.70709052,29.8290354 2.44799757,29.6753295 C2.40584112,29.1632824 2.36368467,28.6512354 2.32152821,28.1393413 C2.96218323,28.3406119 3.60006884,28.6052001 4.25226302,28.1664119 C4.73167729,27.843706 5.1023156,27.9958824 5.39602608,28.444306 C5.40571899,28.7702236 5.37817882,29.0897177 5.49187816,29.416553 C5.98760113,30.8410472 6.56625231,32.2234825 7.41122765,33.4835648 C7.83417689,34.2612707 8.56991471,34.777906 9.09117772,35.4736354 C8.94009145,35.4855648 8.71069265,35.4389178 8.65038122,35.518753 C8.06188328,36.2956942 7.19736827,36.3261295 6.34700798,36.4143766 C6.18592109,36.4312001 6.0817608,36.5504942 6.01360274,36.6945648" id="Fill-53" fill="#8FBCCD"></path>
            <path d="M5.39602608,28.444306 C5.1023156,27.9958824 4.73167729,27.843706 4.25226302,28.1664119 C3.60006884,28.6052001 2.96218323,28.3406119 2.32152821,28.1393413 C2.14751745,26.9665883 2.34999151,25.7926118 2.30814277,24.6194001 C2.32198978,24.3568001 2.32460533,24.091906 2.46538327,23.855153 C3.54575778,23.5541648 4.53981927,22.9520354 5.70266043,22.9390354 C5.70296814,23.1430589 5.703122,23.3470824 5.70327585,23.551106 C5.5201876,23.6622942 5.54080426,23.8377177 5.55649754,24.0114589 C5.40002633,25.0754707 5.34340744,26.1440707 5.40325729,27.2183295 C5.24417053,27.6260707 5.67250472,28.0371766 5.39602608,28.444306" id="Fill-54" fill="#98C4CF"></path>
            <path d="M2.61985436,30.8910589 C3.25712455,32.2744119 3.68345861,33.7576354 4.60166925,35.0082354 C4.82352913,35.3104472 5.02569548,35.6271883 5.23678546,35.9370472 C5.22155375,36.1080354 5.24155499,36.3870001 5.03031115,36.3568707 C4.4158116,36.2692354 4.03532653,36.5682354 3.70345985,37.006106 C3.01141704,36.2774942 2.70555197,35.2846001 2.01012434,34.5581295 C2.00812421,34.338506 2.00673951,34.1185766 1.70333613,34.0974707 C1.67564211,33.888553 1.76718623,33.6488942 1.54532636,33.4898354 C1.49316928,33.3362825 1.44085835,33.1825766 1.38854743,33.0288707 C1.28807967,32.0254236 1.27915605,31.0741295 2.61985436,30.8910589" id="Fill-55" fill="#D2EBE8"></path>
            <path d="M2.44799757,29.6753295 C2.70709052,29.8290354 2.59431432,30.0670119 2.58692925,30.2812824 C2.2032132,30.1554119 2.26075522,29.9299766 2.44799757,29.6753295" id="Fill-56" fill="#D2EBE8"></path>
            <path d="M5.39602608,28.444306 C5.67250472,28.0371766 5.24417053,27.6260707 5.40325729,27.2183295 C6.56840629,26.8402589 7.77786571,26.710106 8.98455574,26.785353 C9.72475537,26.8313883 10.4447999,27.2031883 11.2116166,27.0554471 C11.8407324,26.9341648 12.4835414,26.7656236 13.0857325,27.0216471 C13.4776029,27.1882001 13.8105466,27.1787177 14.1801079,27.0629413 C15.2197106,27.791553 16.3423955,28.3045177 17.5886264,28.6227883 C18.4037537,28.8309413 19.1490306,28.5423413 19.9249248,28.5886824 C20.8469818,28.6440471 21.6391846,28.2392119 22.4600046,27.9209413 C23.8650146,27.3758589 25.0946291,26.5392707 26.3043963,25.6672001 C26.3385522,26.0645413 26.5957989,26.1706824 26.9459744,26.1489648 C28.6591573,26.0425177 30.3609549,26.2942589 32.0705991,26.3176589 C32.4993949,26.3236236 32.8923422,26.1728236 33.346678,26.2320118 C34.0157964,26.3188824 34.5053651,26.7358001 35.1061715,26.9194824 C36.0189972,27.6994824 36.1411586,27.690306 37.0035196,26.9096942 C38.5730013,25.4888707 39.6522988,23.7884707 40.0852487,21.7029648 C40.2315654,20.9988236 40.0834024,20.2850471 40.188332,19.5312001 C40.8059087,20.6403295 40.6078964,21.8114001 40.6638999,22.9472942 C40.0757096,26.5599177 38.5399223,29.6346471 35.7359027,32.1043413 C34.7456877,32.9762589 33.7562418,33.8278354 32.6904836,34.6023295 C32.1501425,34.9947766 31.588877,35.3286472 30.9537608,35.5374119 C30.7785192,34.8002354 30.3664937,34.5059766 29.6155242,34.8150707 C29.5295189,34.850706 29.4150502,34.8306707 29.3156595,34.8192001 C27.9229579,34.658306 26.5293333,34.5198942 25.1237079,34.5592001 C24.8683075,34.5663883 24.6030603,34.5899413 24.3576605,34.5365648 C22.2575306,34.081106 20.1086284,34.1314236 17.9846509,33.9882707 C16.3605504,33.8786119 14.7261417,33.688353 13.0877326,33.7928119 C12.9629557,33.8006119 12.8318706,33.7782825 12.7094015,33.7473883 C10.9608318,33.3060001 9.18164485,33.4812707 7.41122765,33.4835648 C6.56625231,32.2234825 5.98760113,30.8410472 5.49187816,29.416553 C5.37817882,29.0897177 5.40571899,28.7702236 5.39602608,28.444306" id="Fill-57" fill="#DBEFED"></path>
            <path d="M26.3042424,25.6670471 C25.0946291,26.5392707 23.8650146,27.3758589 22.4600046,27.9209413 C21.6391846,28.2392119 20.8469818,28.6440471 19.9249248,28.5886824 C19.1490306,28.5423413 18.4037537,28.8309413 17.5886264,28.6227883 C16.3423955,28.3045177 15.2197106,27.791553 14.1801079,27.0629413 C13.9051678,26.3370824 13.1058876,26.0038236 12.8326399,25.2557883 C12.7375571,24.9956354 12.6230885,24.7529177 12.6086261,24.4736471 C12.6133956,24.3696471 12.6181651,24.2656471 12.6227808,24.1614942 C13.2023551,24.1287648 13.900706,24.3624589 14.1070264,23.4890118 C14.1197965,23.4348707 14.3342713,23.4276824 14.4547403,23.3987765 C14.7112177,24.6036471 15.4043374,25.461953 16.4008606,25.776553 C16.4860967,25.3027413 16.1066886,24.9208471 16.15423,24.4698236 C16.4054763,24.110106 16.409015,23.751153 16.1513067,23.3929648 C16.2016175,23.1383177 16.2520822,22.8836707 16.302393,22.6291765 C17.4447714,23.2273295 18.4005228,22.4909177 19.3882762,22.1578118 C21.2371598,21.5345765 23.0500411,20.8056589 24.8806159,20.1301177 C25.8363673,19.7774354 26.9025871,19.5974236 27.7240226,18.8994001 C27.8235672,18.8148236 28.0137328,18.8360824 28.1618958,18.8082471 C28.3392914,19.2600354 28.5882299,19.6878118 28.6320787,20.1847177 C28.6302325,20.5926118 28.6283862,21.0005059 28.6266938,21.4084001 C28.6240782,21.5611883 28.6214627,21.7139765 28.619001,21.8667648 C28.6139238,21.9164707 28.6102312,21.9663295 28.6082311,22.0163412 C28.4848388,22.0848589 28.4669916,22.2014001 28.4663762,22.3257412 C27.9311123,23.5581412 27.1978362,24.663906 26.3042424,25.6670471" id="Fill-58" fill="#8FBCCD"></path>
            <path d="M5.55649754,24.0114589 C5.54080426,23.8377177 5.5201876,23.6622942 5.70327585,23.551106 C5.94236756,23.795353 5.87359408,23.9426354 5.55649754,24.0114589" id="Fill-59" fill="#D2EBE8"></path>
            <path d="M12.6227808,24.1614942 C12.6181651,24.2656471 12.6133956,24.3696471 12.6086261,24.4736471 C12.3029148,24.4048236 12.2273717,24.2584589 12.4510779,24.0114589 C12.5081583,24.0614707 12.5653926,24.1114824 12.6227808,24.1614942" id="Fill-60" fill="#C4E3E1"></path>
            <path d="M12.6013948,21.7066354 C12.8598724,21.9340589 12.6812459,21.9836118 12.4721561,22.0207765 C12.4655403,21.8958236 12.4860031,21.7820354 12.6013948,21.7066354" id="Fill-61" fill="#A0CCD2"></path>
            <path d="M7.41122765,33.4835648 C9.18164485,33.4812707 10.9608318,33.3060001 12.7094015,33.7473883 C12.8318706,33.7782825 12.9629557,33.8006119 13.0877326,33.7928119 C14.7261417,33.688353 16.3605504,33.8786119 17.9846509,33.9882707 C20.1086284,34.1314236 22.2575306,34.081106 24.3576605,34.5365648 C24.6030603,34.5899413 24.8683075,34.5663883 25.1237079,34.5592001 C26.5293333,34.5198942 27.9229579,34.658306 29.3156595,34.8192001 C29.4150502,34.8306707 29.5295189,34.850706 29.6155242,34.8150707 C30.3664937,34.5059766 30.7785192,34.8002354 30.9537608,35.5374119 C30.6765129,35.8833648 30.1820208,35.9188472 29.9073884,36.2856001 C29.6727585,36.5989766 29.4392056,36.8730472 29.6276788,37.3046472 C29.8293836,37.7654589 30.1906367,37.942106 30.6583579,37.9425648 C31.7465791,37.9434825 32.5570907,37.279106 33.4023738,36.7425883 C35.1004788,35.6643531 36.6945774,34.4515295 38.0143514,32.9160001 C38.0694317,32.8519177 38.2054401,32.8568119 38.3037539,32.8302001 C38.3634499,32.8451883 38.422992,32.8597177 38.4823803,32.8744001 C38.4823803,33.3356707 38.4823803,33.7972472 38.4823803,34.2586707 C38.2489813,34.4325648 38.3236013,34.6647295 38.3611421,34.889553 C38.1442056,36.4677531 37.5732472,37.8778707 36.2991684,38.9068589 C35.891297,39.2362942 36.0008422,39.6805884 35.862526,40.0681413 C35.3046453,40.0318942 34.7172244,40.1995178 34.1927304,39.9841766 C33.3445241,39.6356237 32.4997026,39.7286119 31.6444189,39.8618237 C31.2625491,39.9211648 30.823445,40.0421413 30.5229649,39.8326119 C29.8261526,39.3468707 29.0676441,39.4754942 28.3155976,39.4551531 C27.5293951,39.4338942 26.7461159,39.4857413 25.9586826,39.3220942 C25.2209447,39.1686942 24.4544357,39.1240354 23.7425455,39.5059295 C23.5137621,39.6285884 23.4131405,39.5213766 23.3900622,39.2950236 C24.0225628,38.8927884 24.3979707,38.3483178 24.2585774,37.5756589 C24.1334928,36.8811531 23.6826957,36.4676001 22.9995765,36.2930942 C22.5752425,36.1846589 22.2029118,36.3135883 21.8187342,36.4853413 C20.0138533,37.2925648 18.1400451,37.9587766 16.147768,37.8910236 C14.1585681,37.8235766 12.1998315,37.4445883 10.3912581,36.5177648 C9.87814947,36.2548589 9.63228811,35.6871413 9.09117772,35.4736354 C8.56991471,34.777906 7.83417689,34.2612707 7.41122765,33.4835648" id="Fill-62" fill="#D2EBE8"></path>
            <path d="M23.3900622,39.2950236 C23.4131405,39.5213766 23.5137621,39.6285884 23.7425455,39.5059295 C24.4544357,39.1240354 25.2209447,39.1686942 25.9586826,39.3220942 C26.7461159,39.4857413 27.5293951,39.4338942 28.3155976,39.4551531 C29.0676441,39.4754942 29.8261526,39.3468707 30.5229649,39.8326119 C30.823445,40.0421413 31.2625491,39.9211648 31.6444189,39.8618237 C32.4997026,39.7286119 33.3445241,39.6356237 34.1927304,39.9841766 C34.7172244,40.1995178 35.3046453,40.0318942 35.862526,40.0681413 C35.7743667,41.1410237 35.3184923,41.993059 34.3388933,42.5106119 C34.0724152,42.6511648 33.8905578,42.8305648 33.8299387,43.1246707 C33.6311572,43.1618354 33.4696087,43.214906 33.6999307,43.4319295 C33.7319326,43.7066119 33.6097712,43.9467295 33.526843,44.1955648 C33.3246767,44.2318119 33.1614358,44.2844237 33.3959119,44.5040472 C33.3888345,44.6732001 33.4048355,44.8516825 33.2160546,44.9480354 C32.7777198,44.8714119 32.9057277,44.182259 32.362771,44.1929648 C31.4293287,44.2111648 30.4954248,44.1960237 29.5618285,44.1949531 C29.4030495,44.1311766 29.2441166,44.0675531 29.0854914,44.0042354 C28.9314819,43.6341178 28.7767031,43.6332001 28.621155,44.0036237 C28.4171424,44.0186119 28.2132836,44.0337531 28.009271,44.0485884 C27.7652559,43.7980707 27.6150927,43.859859 27.5450884,44.1868472 C27.2881494,44.2396119 27.0312105,44.2923766 26.7744254,44.3452943 C26.5196404,44.0996707 26.3759392,44.1792001 26.3145508,44.5002237 C26.0565348,44.5480943 25.798365,44.595659 25.5401952,44.6436825 C25.0017003,44.3930119 24.9735447,43.8277413 24.752608,43.381306 C25.1295544,43.1702472 25.7197447,43.2133766 25.7317455,42.5679648 C26.1120767,42.3280001 26.1146922,42.0897178 25.7291299,41.8528119 C25.7155906,41.5356119 25.5888136,41.3162942 25.2377149,41.2901413 C24.2791941,40.9957295 23.3994474,41.4173884 22.5098539,41.6269178 C21.0385321,41.9736354 19.6009047,42.1507413 18.2034337,41.3886354 C18.096504,41.3302119 18.0006519,41.2520589 17.7067876,41.0515531 C19.7712229,40.6173531 21.6197988,40.0699766 23.3900622,39.2950236" id="Fill-63" fill="#CBE7E5"></path>
            <path d="M29.5618285,44.1949531 C30.4954248,44.1960237 31.4293287,44.2111648 32.362771,44.1929648 C32.9057277,44.182259 32.7777198,44.8714119 33.2160546,44.9480354 C32.473701,47.0220707 30.8579087,48.2523296 29.010256,49.2632707 C28.736239,49.4130002 28.5768445,49.340659 28.4731458,49.0748472 C28.160665,48.274506 27.6112464,47.6419413 27.0036703,47.057706 C26.6544179,46.7220001 26.8416603,46.5822119 27.1781426,46.4976354 C27.6723271,46.3732943 28.1709733,46.2640943 28.6713119,46.1675884 C29.8718477,45.9355766 30.1910982,45.2364825 29.5618285,44.1949531" id="Fill-64" fill="#C4E3E1"></path>
            <path d="M40.356804,35.3223766 C41.0106906,35.0807295 41.6644233,34.8412236 42.3166175,35.3260472 C42.1495302,36.9955531 41.4882586,38.4899413 40.668054,39.9280472 C40.0175522,39.8524942 39.4693645,39.5100589 38.8882516,39.2522001 C39.3716661,38.2221413 39.9877042,37.2446942 40.1557146,36.0898354 C40.296031,36.0199413 40.3149552,35.9041648 40.278953,35.7677413 C40.3049546,35.6192354 40.3309562,35.4707295 40.356804,35.3223766" id="Fill-65" fill="#D2EBE8"></path>
            <path d="M24.752608,43.381306 C24.9735447,43.8277413 25.0017003,44.3930119 25.5401952,44.6436825 C24.5676735,44.9847413 23.6153069,44.8700354 22.6940191,44.4740707 C22.5123156,44.3960707 22.168602,44.3991295 22.1892187,44.1033413 C22.2116816,43.781859 22.5475485,43.813059 22.7763319,43.7390354 C22.9494195,43.7456119 23.1268151,43.7651884 23.2383605,43.5870119 C23.7430071,43.5183413 24.2478075,43.4498237 24.752608,43.381306" id="Fill-66" fill="#C4E3E1"></path>
            <path d="M37.8377251,41.1030942 C37.8546492,41.4467531 37.931577,41.8205413 37.4310845,41.904659 C37.475395,41.5915884 37.4807799,41.2594001 37.8377251,41.1030942" id="Fill-67" fill="#C4E3E1"></path>
            <path d="M25.7291299,41.8528119 C26.1146922,42.0897178 26.1120767,42.3280001 25.7317455,42.5679648 C25.7309762,42.3298354 25.7298992,42.0912472 25.7291299,41.8528119" id="Fill-68" fill="#78A9C6"></path>
            <path d="M38.3611421,34.889553 C38.3236013,34.6647295 38.2489813,34.4325648 38.4820726,34.2586707 C38.6891623,34.4229295 38.5974644,34.6558589 38.622389,34.8618707 C38.5353067,34.8710472 38.4483782,34.8803766 38.3611421,34.889553" id="Fill-69" fill="#8FBCCD"></path>
            <path d="M23.2383605,43.5870119 C23.1268151,43.7651884 22.9494195,43.7456119 22.7763319,43.7390354 C22.8387973,43.4132707 22.9829601,43.3328237 23.2383605,43.5870119" id="Fill-70" fill="#78A9C6"></path>
            <path d="M28.621155,44.0036237 C28.7767031,43.6332001 28.9314819,43.6341178 29.0854914,44.0042354 C28.9307126,44.0037766 28.7759338,44.0036237 28.621155,44.0036237" id="Fill-71" fill="#C4E3E1"></path>
            <path d="M27.5450884,44.1868472 C27.6150927,43.859859 27.7652559,43.7980707 28.009271,44.0485884 C27.8874173,44.2038237 27.7177145,44.200459 27.5450884,44.1868472" id="Fill-72" fill="#C4E3E1"></path>
            <path d="M26.3145508,44.5002237 C26.3759392,44.1792001 26.5196404,44.0996707 26.7744254,44.3452943 C26.6633416,44.5207178 26.4874845,44.5060354 26.3145508,44.5002237" id="Fill-73" fill="#C4E3E1"></path>
            <path d="M33.3959119,44.5040472 C33.1614358,44.2844237 33.3246767,44.2318119 33.526843,44.1955648 C33.5414593,44.3228119 33.5094573,44.4304825 33.3959119,44.5040472" id="Fill-74" fill="#C4E3E1"></path>
            <path d="M33.6999307,43.4319295 C33.4696087,43.214906 33.6311572,43.1618354 33.8299387,43.1246707 C33.8520939,43.2545178 33.8222459,43.3624943 33.6999307,43.4319295" id="Fill-75" fill="#C4E3E1"></path>
            <path d="M40.278953,35.7677413 C40.3149552,35.9041648 40.296031,36.0199413 40.1557146,36.0898354 C39.9318546,35.8824472 40.0960186,35.8214236 40.278953,35.7677413" id="Fill-76" fill="#8FBCCD"></path>
            <path d="M11.0820701,40.222306 C10.8735957,40.4468237 10.8148228,40.2955648 10.7731279,40.1011766 C10.9015974,40.0776237 11.0172969,40.0857295 11.0820701,40.222306" id="Fill-77" fill="#C4E3E1"></path>
            <path d="M11.5411754,40.3726472 C11.4927109,40.3313531 11.4440925,40.289906 11.3957818,40.2487648 C11.4442463,40.2902119 11.4927109,40.331506 11.5411754,40.3726472" id="Fill-78" fill="#C4E3E1"></path>
            <path d="M7.86233248,40.9354707 C7.87187153,40.8996825 7.88002588,40.8638942 7.88710324,40.8274942 C8.29266679,40.6841884 8.4991411,40.8096001 8.46990852,41.2534354 C8.26743446,41.1472942 8.0649604,41.041306 7.86233248,40.9354707" id="Fill-79" fill="#C4E3E1"></path>
            <path d="M28.619001,21.8667648 C28.6214627,21.7139765 28.6240782,21.5611883 28.6266938,21.4084001 C29.1190319,21.0026471 29.1085697,20.594753 28.6320787,20.1847177 C28.5882299,19.6878118 28.3392914,19.2600354 28.1618958,18.8082471 C27.7631019,17.8245295 26.841968,17.4522706 26.0022237,16.9847295 C25.9542208,16.8284236 25.9059101,16.6724236 25.8575994,16.5162706 C25.9076025,16.5174942 25.9568363,16.5122942 26.0054547,16.5011295 C26.204544,16.5138236 26.304704,16.4044706 26.3487067,16.2259883 C26.4908694,16.2162 26.6328781,16.2065648 26.7747331,16.1969295 C26.9061258,16.2038118 27.0162865,16.1694 27.0792134,16.0427648 C27.5070861,15.9985648 27.8655698,15.6940589 28.3117512,15.7177648 C28.4449902,15.7413177 28.5542278,15.7122589 28.6160777,15.5799648 C28.9253276,15.5275059 29.2345775,15.4750471 29.5438274,15.4228942 C29.7153765,15.4369648 29.890772,15.4632706 30.0057022,15.2867765 C30.4669615,15.2724 30.9282208,15.2580236 31.3894801,15.243953 C31.5961082,15.2421177 31.8030441,15.2398236 32.00998,15.2375295 C32.369233,15.2523648 32.7286398,15.2670471 33.0878928,15.2818824 C33.1966688,15.462353 33.3740643,15.4427765 33.5465366,15.4380353 C35.0124734,15.7553883 36.2285486,16.5454824 37.3876972,17.4432471 C38.5862329,19.0547883 38.7465505,20.7906707 38.0165054,22.633153 C37.249381,22.4670589 36.4834875,22.3338471 35.6934386,22.2720589 C34.9966263,22.2176118 34.2781203,22.5485765 33.6054633,22.167906 C33.0477365,21.8525412 32.4409297,21.8482589 31.8250455,21.8649295 C30.6877443,21.8958236 29.5170565,21.6748236 28.4663762,22.3257412 C28.4669916,22.2014001 28.4848388,22.0848589 28.608385,22.0163412 C28.724546,21.9741295 28.7316233,21.9245765 28.619001,21.8667648" id="Fill-80" fill="#EEF7F6"></path>
            <path d="M25.8575994,16.5162706 C25.9059101,16.6724236 25.9542208,16.8284236 26.0022237,16.9847295 C25.6526637,17.2384589 25.5077316,16.9165177 25.4684984,16.7167765 C25.4171106,16.4547883 25.6991281,16.5407412 25.8575994,16.5162706" id="Fill-81" fill="#A0CCD2"></path>
            <path d="M32.00998,15.2375295 C31.8030441,15.2398236 31.5961082,15.2421177 31.3894801,15.243953 C31.5924157,14.8519648 31.7993516,14.8536471 32.00998,15.2375295" id="Fill-82" fill="#A0CCD2"></path>
            <path d="M33.5465366,15.4380353 C33.3740643,15.4427765 33.1966688,15.462353 33.0878928,15.2818824 C33.337139,15.0546118 33.4879175,15.1125765 33.5465366,15.4380353" id="Fill-83" fill="#A0CCD2"></path>
            <path d="M30.0057022,15.2867765 C29.890772,15.4632706 29.7153765,15.4369648 29.5438274,15.4228942 C29.6176782,15.1082942 29.7679951,15.0506353 30.0057022,15.2867765" id="Fill-84" fill="#A0CCD2"></path>
            <path d="M26.3487067,16.2259883 C26.304704,16.4044706 26.204544,16.5138236 26.0054547,16.5011295 C26.0220711,16.2885412 26.14054,16.2019765 26.3487067,16.2259883" id="Fill-85" fill="#A0CCD2"></path>
            <path d="M27.0792134,16.0427648 C27.0162865,16.1694 26.9061258,16.2038118 26.7747331,16.1969295 C26.8076582,16.0114118 26.8407372,15.8265059 27.0792134,16.0427648" id="Fill-86" fill="#A0CCD2"></path>
            <path d="M28.6160777,15.5799648 C28.5542278,15.7122589 28.4449902,15.7413177 28.3117512,15.7177648 C28.3506767,15.5348471 28.3982181,15.3710471 28.6160777,15.5799648" id="Fill-87" fill="#A0CCD2"></path>
            <path d="M40.4674262,32.1187177 C40.45481,32.3242707 40.44204,32.5296707 40.4289623,32.7352236 C40.0441692,32.6387177 40.1884859,32.336353 40.1761774,32.0951648 C40.2732603,32.1031177 40.3703433,32.1110707 40.4674262,32.1187177" id="Fill-88" fill="#8FBCCD"></path>
            <path d="M40.4668108,33.6446119 C40.6540531,33.7987766 40.6575918,33.9508001 40.4611181,34.1002236 C40.2731065,33.9460589 40.2738758,33.7940354 40.4668108,33.6446119" id="Fill-89" fill="#8FBCCD"></path>
            <path d="M40.1674076,30.8895295 C40.2920307,30.9624824 40.3160322,31.0733648 40.2880305,31.2042824 C40.0909414,31.158553 39.9310853,31.098753 40.1674076,30.8895295" id="Fill-90" fill="#8FBCCD"></path>
            <path d="M40.4674262,32.1187177 C40.3703433,32.1110707 40.2732603,32.1031177 40.1761774,32.0951648 C40.1797161,31.9761766 40.189409,31.860553 40.3277252,31.8132942 C40.4481942,31.8818119 40.4678878,31.995753 40.4674262,32.1187177" id="Fill-91" fill="#D2EBE8"></path>
            <path d="M38.4823803,32.8744001 C38.422992,32.8597177 38.3634499,32.8451883 38.3037539,32.8302001 C38.3376021,32.7197766 38.370835,32.5743295 38.5234598,32.6578354 C38.6291586,32.7156472 38.5685395,32.8138354 38.4823803,32.8744001" id="Fill-92" fill="#8FBCCD"></path>
            <path d="M28.4663762,22.3257412 C29.5170565,21.6748236 30.6877443,21.8958236 31.8250455,21.8649295 C32.4409297,21.8482589 33.0477365,21.8525412 33.6054633,22.167906 C34.2781203,22.5485765 34.9966263,22.2176118 35.6934386,22.2720589 C36.4834875,22.3338471 37.249381,22.4670589 38.0165054,22.633153 C37.6206347,23.9531883 36.6739608,24.8810824 35.6920539,25.7621765 C35.3200309,26.0958942 35.1015558,26.4328236 35.1060176,26.9193295 C34.5053651,26.7358001 34.0157964,26.3188824 33.346678,26.2320118 C32.8923422,26.1728236 32.4993949,26.3236236 32.0705991,26.3176589 C30.3609549,26.2942589 28.6591573,26.0425177 26.9459744,26.1489648 C26.5957989,26.1706824 26.3385522,26.0645413 26.3043963,25.6672001 C27.1978362,24.663906 27.9311123,23.5581412 28.4663762,22.3257412" id="Fill-93" fill="#E6F4F1"></path>
            <path d="M44.3781296,25.1790118 C44.3675136,25.2522707 44.3568975,25.3253765 44.3462815,25.3984824 C44.0987277,25.2209177 44.1308836,25.0029765 44.2502756,24.6833295 C44.307356,24.9047883 44.3427428,25.0419765 44.3781296,25.1790118" id="Fill-94" fill="#EEF7F6"></path>
            <path d="M16.1513067,23.3929648 C16.409015,23.751153 16.4054763,24.110106 16.15423,24.4698236 C15.9243696,24.1114824 15.9266775,23.7525295 16.1513067,23.3929648" id="Fill-95" fill="#98C4CF"></path>
            <path d="M28.6320787,20.1847177 C29.1085697,20.594753 29.1190319,21.0026471 28.6266938,21.4084001 C28.6283862,21.0005059 28.6302325,20.5926118 28.6320787,20.1847177" id="Fill-96" fill="#E6F4F1"></path>
            <g id="Group-100" transform="translate(9.385196, 21.717647)">
                <mask id="mask-6" fill="white">
                    <use xlink:href="#path-5"></use>
                </mask>
                <g id="Clip-98"></g>
                <path d="M19.2338051,0.149117648 C19.3464274,0.206929412 19.3393501,0.256482354 19.223189,0.298694119 C19.2250353,0.248682354 19.2287279,0.19882353 19.2338051,0.149117648" id="Fill-97" fill="#E6F4F1" mask="url(#mask-6)"></path>
                <path d="M27.1916819,22.2728236 C26.9995162,22.3194707 26.7365769,22.6843883 26.6244161,22.1844236 C26.3200896,22.3026471 26.2479313,22.5849765 26.1637722,22.8492589 C25.678973,24.3698001 24.8900011,25.7291413 23.8150115,26.8953177 C22.512931,28.3078824 21.0065301,29.4508119 19.0759492,29.9116236 C18.7780846,29.9825883 18.4731427,30.0404001 18.1888174,30.1491413 C17.7590985,30.3134001 17.5584707,30.1954824 17.5441621,29.7360471 C17.4923128,28.0610354 16.6405678,26.8807883 15.2304805,26.0420589 C14.4522786,25.579106 13.7236181,25.0779177 12.8089461,24.8191413 C11.5176355,24.4534589 10.4931106,23.569306 9.55443714,22.6198471 C8.56945314,21.9150942 7.42168984,21.4665177 6.49332472,20.6674001 C6.10530072,20.3335295 5.6895827,20.0209177 5.419566,19.5922236 C5.18093585,19.2132354 4.89014863,19.0664118 4.46750711,19.1129059 C4.5268954,19.4892942 4.26595618,19.6408589 3.98224632,19.6402471 C3.40774925,19.6390236 2.78586463,19.6870471 2.27275597,19.4876118 C1.79734194,19.3030118 1.35192978,19.2728824 0.878669735,19.2705883 C0.508492991,19.2689059 -0.0026155464,19.1542001 0.302634104,19.8395295 C0.233091341,19.8652236 0.163702433,19.8907648 0.0941596704,19.9164589 C1.04344916,20.3866001 2.02858702,20.7487648 3.09634537,20.8191177 C3.85469997,20.8694354 4.3561156,21.2970589 4.77891098,21.8647765 C5.38294835,22.1562824 5.81282109,22.6680236 6.32685289,23.0734707 C7.06289841,23.5078236 8.06465268,23.5296942 8.48806349,24.4491765 C9.23518663,24.9531177 9.9818482,25.4576707 10.6283497,26.0905413 C12.1625985,26.6149766 13.702386,27.128553 14.9030757,28.2928942 C14.9700029,28.3361766 15.0286219,28.3979648 15.0398534,28.4557766 C15.1049343,28.5545766 15.1578607,28.6711177 15.2007864,28.7963766 C15.2043251,28.7933177 15.2083253,28.790106 15.211864,28.7870471 C15.2961769,28.7994354 15.3551036,28.8378236 15.330179,28.9256119 C15.3235632,28.9490119 15.2849454,28.9786824 15.2601747,28.9932119 C15.3821822,29.4696236 15.3869518,29.9744824 15.3869518,29.9744824 C15.2997156,30.9129295 15.5468078,31.8126825 15.7091255,32.7223766 C15.8914445,32.8326472 16.0853026,32.8996354 16.3027007,32.8785295 C16.327933,32.6050707 16.5119444,32.5428236 16.7471897,32.5489413 C16.8496576,32.5414472 16.9521255,32.534106 17.0544395,32.526306 C18.4143698,32.0613648 19.8489201,31.8470942 21.1639245,31.2188119 C23.3059031,30.1957883 25.1532482,28.8214589 26.456098,26.834906 C27.0315182,25.9573295 27.4789305,24.9777413 27.8509535,23.9944824 C28.0697363,23.4162118 28.7497783,23.2166236 28.8240906,22.5840589 C28.4179116,21.7600118 27.7872572,22.1286001 27.1916819,22.2728236" id="Fill-99" fill="#C4E3E1" mask="url(#mask-6)"></path>
            </g>
            <path d="M24.6244462,50.7192707 C24.6262925,50.7208002 24.6347545,50.7168237 24.6453706,50.710859 C24.6281388,50.6438707 24.6079837,50.578259 24.5859823,50.5140237 C24.558596,50.5363531 24.5302865,50.5596002 24.5015155,50.5831531 C24.5413642,50.6299531 24.5779818,50.6804237 24.6244462,50.7192707" id="Fill-101" fill="#C4E3E1"></path>
            <path d="M24.4250493,50.1734237 C24.3841237,50.1113296 24.3393517,50.0552002 24.2882716,50.0105413 L24.3651994,50.2777296 C24.4165872,50.2495884 24.4327421,50.2128825 24.4250493,50.1734237" id="Fill-102" fill="#C4E3E1"></path>
            <path d="M24.6244462,50.7192707 C24.5779818,50.6804237 24.5413642,50.6299531 24.5015155,50.5831531 C24.5302865,50.5596002 24.558596,50.5363531 24.5859823,50.5140237 C24.5430566,50.3887649 24.4901302,50.2722237 24.4250493,50.1734237 C24.4327421,50.2128825 24.4165872,50.2495884 24.3651994,50.2777296 L24.7721477,51.6921296 C24.7721477,51.6921296 24.7673781,51.1872707 24.6453706,50.710859 C24.6347545,50.7168237 24.6262925,50.7208002 24.6244462,50.7192707" id="Fill-103" fill="#C4E3E1"></path>
        </g>
    </g>
</svg>