<?xml version="1.0" encoding="UTF-8"?>
<svg width="55px" height="55px" viewBox="0 0 55 55" version="1.1" xmlns="http://www.w3.org/2000/svg" xmlns:xlink="http://www.w3.org/1999/xlink">
    <title>008</title>
    <g id="008" stroke="none" stroke-width="1" fill="none" fill-rule="evenodd">
        <g id="Group-5" transform="translate(0.000000, 22.000000)" fill-rule="nonzero">
            <g id="Group" transform="translate(0.000000, 3.201000)" fill="#000000">
                <polygon id="_Path_" points="10.3738202 7.45195802 8.15918439 7.45195802 6.52734751 1.87614176 4.89551064 7.45195802 2.56431509 7.45195802 0 0.0918805603 2.09807599 0.0918805603 3.72991287 5.44466417 5.24518997 0.0918805603 7.57638551 0.0918805603 9.09166261 5.44466417 10.7234995 0.0918805603 12.8215755 0.0918805603"></polygon>
                <polygon id="_Path_2" points="11.0731788 7.45195802 11.0731788 0.0918805603 17.3674068 0.0918805603 17.3674068 1.54159279 12.9381353 1.54159279 12.9381353 2.99130501 16.3183688 2.99130501 16.3183688 4.44101724 12.9381353 4.44101724 12.9381353 6.00224579 19.6986023 6.00224579 19.6986023 7.45195802"></polygon>
                <path d="M27.7412269,5.33314784 C27.7412269,6.55982742 26.6921889,7.45195802 24.8272325,7.45195802 L18.1833252,7.45195802 L18.1833252,0.0918805603 L24.594113,0.0918805603 C25.4100314,0.0918805603 26.2259498,0.426429536 26.8087487,0.984011161 C27.1584281,1.31856014 27.2749878,1.76462544 27.3915476,2.21069074 C27.3915476,2.76827236 27.1584281,3.32585399 26.5756292,3.66040297 C27.2749878,3.99495194 27.7412269,4.66404989 27.7412269,5.33314784 Z M25.4100314,2.21069074 C25.4100314,1.76462544 25.0603521,1.54159279 24.7106727,1.54159279 C24.7106727,1.54159279 24.7106727,1.54159279 24.594113,1.54159279 L20.0482817,1.54159279 L20.0482817,2.99130501 L24.7106727,2.99130501 C25.0603521,2.99130501 25.4100314,2.65675604 25.4100314,2.21069074 C25.4100314,2.21069074 25.4100314,2.21069074 25.4100314,2.21069074 L25.4100314,2.21069074 Z M25.7597107,5.22163152 C25.7597107,4.66404989 25.2934716,4.32950092 24.594113,4.32950092 L19.9317219,4.32950092 L19.9317219,6.00224579 L24.594113,6.00224579 C25.4100314,6.00224579 25.8762705,5.77921314 25.7597107,5.22163152 L25.7597107,5.22163152 Z" id="_Compound_Path_"></path>
            </g>
            <g id="Group" transform="translate(37.345002, 2.134000)" fill="#000000">
                <path d="M9.32179846,3.00756741 C9.32179846,4.76052578 8.26008931,5.63700497 6.37260639,5.63700497 L2.00780212,5.63700497 L2.00780212,8.51686515 L0.120319198,8.51686515 L0.120319198,0.252918531 L6.37260639,0.252918531 C7.78821858,0.00249590656 9.08586309,1.12939772 9.32179846,2.63193347 C9.32179846,2.75714478 9.32179846,2.88235609 9.32179846,3.00756741 Z M7.43431553,3.00756741 C7.43431553,2.25629953 6.9624448,1.88066559 6.13667102,1.88066559 L1.88983444,1.88066559 L1.88983444,4.0092579 L6.13667102,4.0092579 C6.9624448,4.0092579 7.43431553,3.63362397 7.43431553,3.00756741 Z" id="_Compound_Path_2"></path>
                <polygon id="_Path_3" points="12.3889582 5.26137103 12.3889582 8.51686515 10.5014753 8.51686515 10.5014753 5.26137103 5.90073566 0.252918531 8.26008931 0.252918531 11.4452167 3.63362397 14.6303442 0.127707219 16.9896978 0.127707219"></polygon>
            </g>
            <g id="_Group_4" transform="translate(26.675001, 0.000000)" fill="#A2B1B0">
                <path d="M0.0695373967,10.6123035 C0.0695373967,7.99538708 1.78517317,5.85427363 4.18706325,5.2595199 C6.58895333,4.42686467 8.07583766,4.42686467 8.07583766,3.4752587 C8.07583766,2.52365272 7.27520764,2.16680048 5.67394758,2.16680048 C4.30143897,2.16680048 2.81455463,2.64260347 1.78517317,3.59420944 L0.298288833,2.04784973 C1.78517317,0.739391519 3.72956038,0.144637785 5.67394758,0.0256870384 C8.53334054,0.0256870384 10.363352,1.453096 10.363352,3.4752587 C10.363352,5.14056915 9.33397056,5.85427363 7.16083192,6.44902737 C4.98769328,7.0437811 3.61518466,7.16273185 2.58580319,8.59014081 L10.5921035,8.59014081 L10.5921035,10.6123035 L0.0695373967,10.6123035 Z" id="_Path_4"></path>
            </g>
        </g>
    </g>
</svg>