<?xml version="1.0" encoding="UTF-8"?>
<svg width="55px" height="55px" viewBox="0 0 55 55" version="1.1" xmlns="http://www.w3.org/2000/svg" xmlns:xlink="http://www.w3.org/1999/xlink">
    <title>009</title>
    <defs>
        <polygon id="path-1" points="-0.000238105597 0 54.9822438 0 54.9822438 55 -0.000238105597 55"></polygon>
    </defs>
    <g id="009" stroke="none" stroke-width="1" fill="none" fill-rule="evenodd">
        <g id="Group-6" transform="translate(27.500000, 27.500000) rotate(-360.000000) translate(-27.500000, -27.500000) ">
            <g id="Group-3" transform="translate(0.000000, 0.000000)">
                <mask id="mask-2" fill="white">
                    <use xlink:href="#path-1"></use>
                </mask>
                <g id="Clip-2"></g>
                <path d="M50.7280075,55.0004297 L4.25399819,55.0004297 C1.90437455,55.0004297 -0.000238105597,53.0947656 -0.000238105597,50.744375 L-0.000238105597,4.255625 C-0.000238105597,1.90523437 1.90437455,0 4.25399819,0 L50.7280075,0 C53.0772016,0 54.9822438,1.90523437 54.9822438,4.255625 L54.9822438,50.744375 C54.9822438,53.0947656 53.0772016,55.0004297 50.7280075,55.0004297" id="Fill-1" fill="#D8232A" mask="url(#mask-2)"></path>
            </g>
            <path d="M29.3998406,14.4890164 C27.1735744,19.7045869 25.9510907,24.4586825 27.043734,29.4458809 C27.4203142,31.1653376 28.5629957,32.7686729 29.5887777,34.2657786 C29.9092807,34.7328446 31.0122767,34.8412246 31.7231635,34.7715518 C31.9699033,34.7470372 32.22829,33.6993643 32.2843672,33.100264 C32.4793434,31.0367439 32.4284425,28.9366672 32.80416,26.9114242 C32.9555685,26.0938436 34.0313887,24.7752207 34.5714556,24.8289806 C36.0290323,24.9743474 35.655903,26.2435112 35.47775,27.3578464 C35.1274829,29.543939 34.9450163,31.7566965 34.6378856,34.4455517 C36.4056125,33.4503484 37.6375862,32.8675911 38.7517977,32.1128021 C45.7860396,27.3475245 46.2204225,21.5965053 41.8097324,15.931502 C38.8963044,12.1885227 35.6131981,12.1240108 32.1027632,15.3599268 C31.423366,15.9861221 30.6145597,16.4716815 29.5335632,17.2660378 C29.4805055,16.1663253 29.4550551,15.6321669 29.3998406,14.4890164 Z M30.3639376,13.0039529 C32.4789121,12.0186414 34.4618893,10.6359367 36.6363919,10.2006966 C39.1797101,9.6914828 41.492249,11.2272957 43.0408434,13.1106125 C45.1816996,15.714312 46.6431586,18.717125 46.9118979,22.2588273 C47.421338,28.9813954 43.4325213,32.8792032 38.2147503,35.5899925 C35.1136793,37.2010692 34.1353473,39.1506182 34.590867,42.3276133 C34.802235,43.8045053 34.8281168,45.3132232 34.8384695,46.8086086 C34.8419204,47.2657828 34.5145156,47.7259675 34.1638173,48.6394558 C31.7430062,45.1661361 32.3141313,41.6601304 32.103626,38.3764757 C26.6041748,36.6114306 24.4641813,33.534644 24.1630897,27.7771736 C23.8706253,22.1784025 25.7436049,17.0647607 27.3029834,11.8668234 C27.4427451,11.4001875 28.0634769,10.7477573 28.4409199,10.7610898 C28.9684772,10.7791531 29.62113,11.2397679 29.9537111,11.701673 C30.3009586,12.1837918 30.3328795,12.8921323 30.3639376,13.0039529 L30.3639376,13.0039529 Z" id="Fill-59" fill="#FFFFFE"></path>
            <path d="M12.1532287,30.0048579 C13.4376864,28.9192345 14.400066,28.2404513 15.1996934,27.4048606 C17.1321619,25.383977 19.3610107,23.5160344 20.7825229,21.1677883 C22.5903575,18.1802831 21.6917939,15.0754945 19.5160536,12.4312474 C17.7887386,10.3317452 14.8776153,9.54770768 12.3545275,10.3106943 C11.1163258,10.6848843 10.6734684,11.3357429 10.8259415,12.6688215 C11.1501611,15.5055337 11.3223358,18.3602895 11.5364835,21.2094605 C11.7429218,23.9572435 11.9232341,26.706745 12.1532287,30.0048579 Z M12.75841,35.7113624 C12.75841,36.4245143 12.9331545,37.2008189 12.7065863,37.832345 C12.5040026,38.3994297 11.860703,38.8075588 11.4114212,39.2857143 C10.9758449,38.80627 10.1607989,38.3160854 10.1732195,37.8482405 C10.2151924,36.2715733 9.80145912,34.9982104 8.7679825,33.8021773 C8.46817578,33.4554823 8.61208301,32.6409425 8.694744,32.0613991 C8.8870486,30.7064104 9.44854377,29.3458368 9.36159982,28.0204912 C8.96628324,21.9685806 8.3473965,15.9312768 7.91438993,9.88108473 C7.70067056,6.8922907 7.96450048,6.71185466 10.8302245,6.55977286 C11.6080088,6.51853034 12.382795,6.36387088 13.1597227,6.36070259 C17.4431043,6.34153118 20.6972921,8.06211766 22.7184178,11.9801573 C24.8453323,16.1035503 24.4834228,20.1143856 22.234444,24.0057894 C21.4926365,25.2890333 20.5730865,26.5568112 19.4646582,27.5191368 C17.7737483,28.9862536 18.2881309,30.1363185 19.3250339,31.6910757 C20.3743575,33.2651653 21.1298704,35.0630815 21.8112883,36.840806 C22.0258642,37.4001577 21.5851483,38.2125495 21.4446675,38.9089467 C20.8609009,38.585021 20.1306574,38.3874006 19.7229203,37.9113932 C18.7061472,36.7248114 17.9557738,35.2937818 16.8679037,34.1888259 C16.0717026,33.3803006 14.9097374,32.9339362 13.9105244,32.3260387 C13.3207618,33.3497983 12.7305708,34.3739876 12.1412365,35.3977473 C12.3468182,35.5025721 12.5528283,35.6069672 12.75841,35.7113624 L12.75841,35.7113624 Z" id="Fill-60" fill="#FFFFFE"></path>
        </g>
    </g>
</svg>