<?xml version="1.0" encoding="UTF-8"?>
<svg width="55px" height="55px" viewBox="0 0 55 55" version="1.1" xmlns="http://www.w3.org/2000/svg" xmlns:xlink="http://www.w3.org/1999/xlink">
    <title>011</title>
    <defs>
        <polygon id="path-1" points="0 0.00010167078 8.28470873 0.00010167078 8.28470873 13.549147 0 13.549147"></polygon>
        <polygon id="path-3" points="0.0129341932 0.0144782601 33.3463664 0.0144782601 33.3463664 12.1951497 0.0129341932 12.1951497"></polygon>
    </defs>
    <g id="011" stroke="none" stroke-width="1" fill="none" fill-rule="evenodd">
        <g id="gevent" transform="translate(1.000000, 19.000000)">
            <g id="Group-3" transform="translate(0.000000, 2.457901)">
                <mask id="mask-2" fill="white">
                    <use xlink:href="#path-1"></use>
                </mask>
                <g id="Clip-2"></g>
                <path d="M6.75152826,4.71260601 C6.76523786,4.32362095 6.71188965,3.87002885 6.60176584,3.42121141 C6.3125232,2.24202117 5.43019158,1.48479094 4.29765986,1.45092074 C3.13741091,1.41630451 2.28577686,2.05133344 1.93141364,3.2609621 C1.62220268,4.31630976 1.60804603,5.39254653 1.83887388,6.4650531 C2.04854126,7.43982848 2.79631024,8.20243019 3.60979585,8.31403772 C4.82607532,8.48100139 5.76115907,8.02905058 6.28823338,7.0184653 C6.65362388,6.31808329 6.77134757,5.56562772 6.75152826,4.71260601 Z M6.74422641,1.31364945 C6.75301844,1.1902545 6.75897913,1.14101588 6.75987323,1.09192647 C6.77462595,0.25621288 6.77462595,0.25621288 7.62640902,0.25621288 C8.28238332,0.25621288 8.28238332,0.25621288 8.28238332,0.929289835 C8.28238332,3.47656755 8.28983418,6.02384526 8.27806181,8.57127219 C8.2744854,9.36431231 8.24274471,10.1589937 8.01445015,10.9305479 C7.65248705,12.1539037 6.89041242,12.991557 5.64745885,13.3239923 C4.27605234,13.6908945 2.92446514,13.6667229 1.64485331,12.9626107 C0.854614399,12.527968 0.466275232,11.8243034 0.340057552,10.9532275 C0.3172579,10.7961116 0.333053737,10.6919644 0.537654534,10.6974851 C0.946856128,10.7083773 1.35665379,10.7044979 1.76615342,10.6983804 C1.89535145,10.6965899 1.96986011,10.728222 2.00115375,10.8675822 C2.19487628,11.7280643 2.81985497,12.0590075 3.61769377,12.1630054 C4.17919108,12.2362665 4.73144931,12.1841929 5.26418627,11.985448 C5.85846739,11.7638742 6.26185731,11.3474349 6.46258366,10.7464253 C6.70592896,10.0181414 6.68953705,9.26285092 6.69922318,8.50412862 C6.64647104,8.50994773 6.6133892,8.50353179 6.60340504,8.51591605 C5.60051839,9.75105926 4.26144864,9.90026719 2.85427798,9.56096836 C1.47035402,9.22733944 0.553748406,8.31418693 0.238725766,6.89715926 C-0.121896178,5.27497068 -0.137244963,3.65397577 0.637645164,2.13548671 C1.79819215,-0.138591292 4.1982653,-0.43372457 5.81361318,0.489126453 C6.15992946,0.686976163 6.41698435,0.990614293 6.74422641,1.31364945 L6.74422641,1.31364945 Z" id="Fill-1" fill="#7B9361" mask="url(#mask-2)"></path>
            </g>
            <path d="M14.4290259,6.57887907 C15.0499754,6.57887907 15.6707758,6.57887907 16.2915762,6.57887907 C17.0744736,6.57887907 17.0744736,6.57887907 16.8861309,5.8033935 C16.5671561,4.49021803 15.606951,3.75623102 14.3264291,3.84713972 C13.0718546,3.93610784 12.0455879,4.93446155 11.9043681,6.18300077 C11.8700697,6.48573123 11.9409033,6.59783704 12.2688255,6.58649211 C12.9880472,6.5617124 13.7089094,6.57887907 14.4290259,6.57887907 Z M15.230862,7.86682699 C14.2122006,7.86682699 13.1932409,7.88115743 12.1750269,7.85846757 C11.8497889,7.85130236 11.8053502,7.97236468 11.8482977,8.24434441 C11.9276313,8.7487459 12.0256053,9.24493725 12.2583868,9.70634743 C12.7311078,10.6430504 13.5277245,10.9748896 14.5272982,10.9447359 C15.6005387,10.9123432 16.3782168,10.4121214 16.8029201,9.43332277 C16.9374293,9.12342709 17.0835702,9.02386042 17.3985186,9.05476042 C17.6815547,9.08252564 17.9704066,9.07521115 18.2549339,9.05640245 C18.5238032,9.03863868 18.576742,9.12954738 18.4990487,9.37794161 C18.043477,10.8354664 17.1430704,11.8612867 15.6290213,12.2190998 C14.2202533,12.5522824 12.8669591,12.4398781 11.6891831,11.4698867 C10.731364,10.6812649 10.2570027,9.63275467 10.1394936,8.43153573 C9.99558954,6.9599791 10.1266689,5.53066739 10.987707,4.24809338 C12.7000901,1.69772361 16.3361641,2.00851494 17.8199411,3.97954698 C18.3056358,4.62456587 18.5091891,5.37736158 18.6049263,6.16016164 C18.6605493,6.61530226 18.6499615,7.07835447 18.6885845,7.53603277 C18.7106547,7.79666757 18.6264,7.87638062 18.3612588,7.87279801 C17.317992,7.85801975 16.274427,7.86682699 15.230862,7.86682699 L15.230862,7.86682699 Z" id="Fill-4" fill="#7B9260"></path>
            <path d="M33.3467318,6.56536174 C34.0288674,6.56536174 34.7111522,6.56536174 35.3932878,6.56536174 C35.9386383,6.56521241 35.9386383,6.56521241 35.8422771,6.02821281 C35.8400396,6.01596755 35.8391446,6.00357295 35.836758,5.99147702 C35.5276863,4.38764618 34.3765731,3.58752275 32.8180878,3.89320634 C31.7782524,4.0971945 30.997369,5.02141323 30.8015142,6.24982221 C30.7607919,6.50518075 30.8240382,6.57462036 31.0768744,6.56999105 C31.8332946,6.55670046 32.5900132,6.56521241 33.3467318,6.56536174 Z M34.1581942,7.85380238 C33.1268612,7.85380238 32.0953791,7.85932769 31.0640461,7.84962108 C30.830154,7.84738109 30.7333454,7.89442082 30.7607919,8.15784332 C30.8599872,9.11282453 31.0856752,10.014046 31.9447216,10.5741922 C33.0091694,11.2684389 35.0515487,11.0999918 35.7475568,9.35474315 C35.8407855,9.12073915 35.9377433,9.02173172 36.1943086,9.0418916 C36.515612,9.06727812 36.8415394,9.06653146 37.1628428,9.04248893 C37.4464071,9.02113439 37.458937,9.14298969 37.4104581,9.36698841 C37.1157063,10.7256153 35.772915,12.0191333 34.3943238,12.2522413 C33.4022215,12.420091 32.4131025,12.4584694 31.4761915,12.0101733 C30.0601597,11.3328012 29.299712,10.1615865 29.0732782,8.64063522 C28.8681751,7.26229643 28.974232,5.91337613 29.6426444,4.65345799 C31.1293808,1.850786 34.678634,1.83346343 36.4589289,3.65128772 C37.2338457,4.4428992 37.4574454,5.45910673 37.5511216,6.5150367 C37.5808056,6.84879479 37.5538066,7.18733152 37.5793139,7.52168695 C37.5988547,7.78003214 37.5183051,7.86335966 37.2523423,7.85962635 C36.2211585,7.84499177 35.1896763,7.85365305 34.1581942,7.85380238 L34.1581942,7.85380238 Z" id="Fill-5" fill="#7B9260"></path>
            <path d="M41.1105264,3.79022656 C41.6583211,3.19098217 42.2847346,2.72157407 43.0903151,2.53628532 C43.8447263,2.36292183 44.5951096,2.37663588 45.3319174,2.60336491 C46.3811114,2.92624137 47.0097626,3.83971639 47.1156815,5.10230344 C47.195792,6.05706969 47.1652098,7.01228312 47.1698344,7.96749656 C47.1758433,9.22128874 47.1658065,10.4750809 47.1758433,11.7285749 C47.177741,11.9691671 47.1123995,12.0592028 46.8614761,12.0437 C46.5149273,12.0226817 46.1649473,12.0207439 45.8186969,12.0441472 C45.5418159,12.0627804 45.4931827,11.9477016 45.494227,11.7004015 C45.5033271,9.9503694 45.4997467,8.20018823 45.4982549,6.45000705 C45.4981057,6.20181255 45.4931827,5.95331991 45.4791596,5.70572167 C45.4033754,4.36114845 44.5006777,3.67067581 43.1740059,3.93899419 C41.9935321,4.17749942 41.1966042,5.09783147 41.1442414,6.31554973 C41.0684572,8.07735803 41.1158969,9.84035887 41.1202232,11.6026144 C41.1211183,11.9691671 41.0169896,12.0829043 40.6613407,12.0445944 C40.37894,12.014334 40.0893785,12.0223836 39.8053368,12.0432528 C39.5448658,12.0624823 39.4617716,11.9736391 39.4663963,11.7121777 C39.4808669,10.9054338 39.4716176,10.0985408 39.4716176,9.29164778 C39.4716176,7.21873921 39.4777341,5.14583065 39.4651697,3.07292208 C39.4634126,2.74616992 39.5333788,2.59382471 39.8930556,2.63601032 C40.1626267,2.66761226 40.4401044,2.65837018 40.711764,2.63765004 C40.9682072,2.61797336 41.0320569,2.72440632 41.0172879,2.95858864 C41.000132,3.22556543 41.01326,3.49462914 41.01326,3.76264939 C41.0456324,3.77189147 41.078154,3.78098448 41.1105264,3.79022656" id="Fill-6" fill="#7B9361"></path>
            <g id="Group-10" transform="translate(19.544278, 0.000000)">
                <mask id="mask-4" fill="white">
                    <use xlink:href="#path-3"></use>
                </mask>
                <g id="Clip-8"></g>
                <path d="M4.33991335,10.0913473 C4.72543145,8.96831193 5.10572775,7.86035189 5.48617325,6.75239184 C5.92510292,5.47337936 6.36970197,4.19645652 6.79759126,2.91386179 C6.86935372,2.69862827 6.9669268,2.61952025 7.1925086,2.63056552 C7.56445002,2.64877529 7.93907694,2.65131272 8.31071997,2.63056552 C8.61701589,2.61354984 8.67177021,2.69653863 8.55942689,2.98461122 C8.12273514,4.10600471 7.70603542,5.23501048 7.2815776,6.36118029 C6.61214272,8.13722995 5.93703846,9.91133922 5.27968832,11.6918667 C5.18450235,11.9494902 5.07976794,12.0780034 4.78466159,12.0497932 C4.33036491,12.0063584 3.76491847,12.2203978 3.44519506,11.9703866 C3.14412094,11.7351522 3.09279809,11.1764705 2.93823279,10.757795 C1.98443355,8.17379875 1.03824322,5.58696653 0.0728068244,3.00744807 C-0.0487865401,2.68235889 0.00283469193,2.6065346 0.338969477,2.62966996 C0.710015732,2.65519349 1.08688056,2.66205947 1.45658407,2.62743106 C1.77392037,2.59772823 1.88178786,2.73668968 1.97070767,3.01103032 C2.70340094,5.27695265 3.44967089,7.53839717 4.19191259,9.8013343 C4.22249743,9.8944728 4.23070311,9.99791026 4.33991335,10.0913473" id="Fill-7" fill="#7C9260" mask="url(#mask-4)"></path>
                <path d="M31.8310541,1.35050822 C31.8312033,1.68604563 31.8391106,2.0217323 31.8282194,2.35697119 C31.8215057,2.5628013 31.8910302,2.64802899 32.1057208,2.63877485 C32.4279805,2.62504289 32.7517322,2.64474526 33.0741411,2.63220739 C33.2718236,2.62444585 33.3209085,2.70161348 33.329711,2.89057716 C33.3801386,3.97450629 33.3846145,3.99032789 32.2956452,3.96599844 C31.9274336,3.95778912 31.8152395,4.04137495 31.8206105,4.43019833 C31.8444816,6.16938066 31.8301589,7.90916004 31.8322477,9.6486409 C31.8323969,9.80954362 31.838663,9.97193895 31.8607438,10.1309013 C31.9226594,10.5746525 32.1216846,10.7483916 32.5779208,10.7731689 C33.3256827,10.8140662 33.2997229,10.8154095 33.3359771,11.5697717 C33.3552232,11.968894 33.2251258,12.1181544 32.8390109,12.1527829 C32.441408,12.1887546 32.0442528,12.2190545 31.6509766,12.1681567 C30.8401055,12.0632266 30.3743208,11.5861903 30.254667,10.7567502 C30.2137878,10.4749465 30.192453,10.1879188 30.1915578,9.90342842 C30.1861868,8.06454013 30.1815618,6.22550258 30.1957352,4.38661429 C30.1981224,4.0743615 30.1409809,3.95584873 29.7949993,3.96555066 C28.9209901,3.99017863 28.9204223,3.97122256 28.9209901,3.10640772 C28.9214666,2.63549112 28.9214666,2.63549112 29.4057514,2.63534186 C30.1887231,2.63504334 30.1887231,2.63504334 30.1887231,1.86724777 C30.1887231,1.35782198 30.1982715,0.848097668 30.1846949,0.338970399 C30.1784287,0.105974893 30.233929,-6.29704622e-16 30.4923335,0.0159708642 C30.8389119,0.0374643637 31.1881758,0.0329865513 31.5352018,0.0171649475 C31.7577997,0.00716449984 31.8480623,0.0700031338 31.8355299,0.30702867 C31.817179,0.653909871 31.8309049,1.0025822 31.8310541,1.35050822" id="Fill-9" fill="#7B9361" mask="url(#mask-4)"></path>
            </g>
        </g>
    </g>
</svg>