<?xml version="1.0" encoding="UTF-8"?>
<svg width="55px" height="55px" viewBox="0 0 55 55" version="1.1" xmlns="http://www.w3.org/2000/svg" xmlns:xlink="http://www.w3.org/1999/xlink">
    <title>015</title>
    <g id="015" stroke="none" stroke-width="1" fill="none" fill-rule="evenodd">
        <g id="couchdb" transform="translate(1.000000, 6.000000)" fill-rule="nonzero">
            <polygon id="Path" fill="#FF0000" points="49.5169003 12.0064486 49.5169003 2.60878922 4.48387104 2.60878922 4.48387104 12.0064486 0.960490457 12.0064486 0.960490457 31.2622416 52.9722587 31.2622416 52.9722587 12.0062367 49.5169003 12.0062367"></polygon>
            <path d="M0.0202583258,31.6712224 L0.0202583258,11.0662164 L3.54427463,11.0662164 L3.54427463,1.66876899 L50.4569205,1.66876899 L50.4569205,11.0662164 L53.9122789,11.0662164 L53.9122789,31.6712224 L0.0202583258,31.6712224 Z M1.48983458,30.9314545 L52.2526219,30.975955 L52.0326623,12.9464688 L48.5764563,12.9464688 L48.5764563,3.54838563 L5.42304363,3.54838563 L5.42304363,12.9464688 L1.89987496,12.9464688 L1.55616152,30.3349358 L1.48983458,30.9314545 L1.48983458,30.9314545 Z" id="Shape" fill="#EB1019"></path>
            <polygon id="Path" fill="#FFFFFF" points="6.83053108 1.59099906 6.83053108 5.82596393 8.43551602 7.99737674 13.1536292 6.39535851 13.1345576 0.000423814348 6.83031918 1.59078715"></polygon>
            <path d="M7.80784697,23.193664 L18.4551229,25.5994461 L46.1492715,23.0192644 L46.1556287,31.4177814 L7.78644434,31.4177814 L7.80784697,23.193664 Z M39.4955981,17.2329271 L36.6017938,16.032473 L30.58363,11.9238048 L23.3931958,14.1119582 L7.80106594,12.9316353 L7.80106594,18.4630483 L17.687807,21.2996377 L45.9384238,18.790021 L45.9384238,13.0200006 L39.4955981,17.2329271 L39.4955981,17.2329271 Z" id="Shape" stroke="#BD101D" fill="#BD101D"></path>
            <polygon id="Path" fill="#FFFFFF" points="3.54003649 9.26097922 1.75789715 11.1463173 1.75789715 16.201363 4.27408294 17.2723418 4.27408294 14.3526848 5.34484989 15.1918372 5.34484989 13.1969431 7.80085403 13.1965193 12.3462629 20.0406972 14.0224487 20.4977809 16.2985436 29.930405 17.4795023 30.4199105 18.3150523 33.8710308 24.9015511 33.8710308 21.7343864 20.7798294 30.6821669 14.9697585 35.5486151 19.0818172 36.7310571 18.6188 37.1796646 19.8415044 45.9386358 19.0553288 45.1785247 17.1146829 40.2504115 15.9095668 31.3270004 8.63903167 21.6040635 12.327276 18.6163843 8.39533842 23.1172927 3.81962681 27.4069296 3.81962681 29.0994322 5.24533828 29.0994322 3.81962681 32.4708753 3.81962681 31.656516 1.92729575 21.7807941 0.363420803 12.6639118 6.20252298"></polygon>
            <path d="M7.83475918,42.5653702 C7.43700941,42.7709202 6.55907799,42.990456 5.44847249,42.990456 C2.51355813,42.990456 0.730571173,41.139023 0.730571173,38.3274386 C0.730571173,35.2827564 2.84243807,33.4448855 5.66800833,33.4448855 C6.77882573,33.4448855 7.57432526,33.6781952 7.91719107,33.8559854 L7.54698924,35.2001126 C7.10791757,35.0083366 6.50482976,34.8434728 5.73666625,34.8434728 C3.85747343,34.8434728 2.49978417,36.02316 2.49978417,38.2445829 C2.49978417,40.2746537 3.69303346,41.5778828 5.72289228,41.5778828 C6.4086239,41.5778828 7.12190345,41.440355 7.5605513,41.2348051 L7.83475918,42.5651583 L7.83475918,42.5653702 Z M15.1167373,39.438468 C15.1167373,41.8934126 13.3888462,42.990456 11.6880792,42.990456 C9.79532435,42.990456 8.34142923,41.6874388 8.34142923,39.548024 C8.34142923,37.3537252 9.78155039,36.0093861 11.7976352,36.0093861 C13.7861722,36.009598 15.1167373,37.4086091 15.1167373,39.438468 L15.1167373,39.438468 Z M10.0830943,39.506914 C10.0830943,40.7961572 10.713942,41.7700826 11.7427513,41.7700826 C12.7026908,41.7700826 13.3748603,40.8234932 13.3748603,39.479366 C13.3748603,38.4374185 12.9086646,37.2441692 11.7567372,37.2441692 C10.563276,37.2441692 10.0830943,38.3958847 10.0830943,39.506914 Z M22.2514399,40.8372672 C22.2514399,41.6327667 22.2789879,42.2909504 22.3065358,42.83979 L20.8250928,42.83979 L20.7426609,41.8247546 L20.7151129,41.8247546 C20.427343,42.3049363 19.7689474,42.9906679 18.5756981,42.9906679 C17.3551128,42.9906679 16.2440835,42.2638263 16.2440835,40.0828777 L16.2440835,36.1604759 L17.9308646,36.1604759 L17.9308646,39.7946839 C17.9308646,40.9057132 18.2875043,41.6187809 19.1789978,41.6187809 C19.8511674,41.6187809 20.2898152,41.1388111 20.4682411,40.7135134 C20.5233369,40.5628474 20.564235,40.3846335 20.564235,40.1924337 L20.564235,36.160264 L22.2510161,36.160264 L22.2510161,40.8370553 L22.2514399,40.8370553 L22.2514399,40.8372672 Z M28.7364352,42.6338162 C28.3795835,42.79868 27.6802898,42.9906679 26.8436803,42.9906679 C24.7591494,42.9906679 23.4012483,41.6467526 23.4012483,39.5755719 C23.4012483,37.5730491 24.7727115,36.009598 27.1181001,36.009598 C27.7351738,36.009598 28.3662334,36.1467019 28.7502092,36.3253397 L28.4486652,37.5868231 C28.1742455,37.4632812 27.7769195,37.3261772 27.1729841,37.3261772 C25.8837408,37.3261772 25.1157892,38.2725547 25.1295632,39.49314 C25.1295632,40.8648151 26.0212686,41.6465407 27.173196,41.6465407 C27.7629336,41.6465407 28.1742455,41.5229988 28.5033373,41.3858949 L28.7364352,42.6340281 L28.7364352,42.6338162 Z M29.7073939,33.1018077 L31.4079489,33.1018077 L31.4079489,37.0793054 L31.4354969,37.0793054 C31.6410468,36.7635637 31.9290287,36.4893558 32.2718945,36.3111419 C32.6009863,36.1193659 32.998948,36.0093861 33.4240338,36.0093861 C34.5623991,36.0093861 35.7558603,36.7637756 35.7558603,38.9031904 L35.7558603,42.8393662 L34.0688673,42.8393662 L34.0688673,39.0953902 C34.0688673,38.1216768 33.7120156,37.3944114 32.7794122,37.3944114 C32.1212285,37.3944114 31.6546089,37.833483 31.4766069,38.3407888 C31.421511,38.4781046 31.4079489,38.6565305 31.4079489,38.8485184 L31.4079489,42.8393662 L29.7073939,42.8393662 L29.7073939,33.1018077 L29.7073939,33.1018077 Z M37.3811884,33.7190933 C38.1220158,33.5955515 39.0679695,33.5271054 40.0694428,33.5271054 C41.7975458,33.5271054 42.9905832,33.8837452 43.8409666,34.5970248 C44.732672,35.3238664 45.2810878,36.4209098 45.2810878,37.9983468 C45.2810878,39.6440179 44.7186862,40.8781653 43.8409666,41.6740886 C42.922349,42.5106982 41.454468,42.935784 39.657919,42.935784 C38.6704316,42.935784 37.929816,42.8806881 37.3811884,42.8122421 L37.3811884,33.7190933 Z M39.0679695,41.5503349 C39.3012793,41.5914448 39.657919,41.5914448 40.0007848,41.5914448 C42.1950836,41.6054307 43.4981008,40.3984075 43.4981008,38.0528069 C43.5120867,36.0093861 42.3321876,34.8438966 40.2203207,34.8438966 C39.685467,34.8438966 39.3012793,34.8847947 39.0681814,34.9398906 L39.0681814,41.5503349 L39.0679695,41.5503349 Z M46.554438,33.7190933 C47.0890798,33.6095373 48.0627933,33.5271054 49.0091707,33.5271054 C50.257304,33.5271054 51.0256794,33.6779833 51.656527,34.1168431 C52.2322788,34.4599208 52.6162546,35.0632205 52.6162546,35.8449461 C52.6162546,36.6951177 52.0814009,37.4770552 51.0801395,37.8474689 L51.0801395,37.8748049 C52.0540649,38.1216768 52.9455584,38.8894165 52.9455584,40.1650977 C52.9455584,40.9879332 52.5889186,41.6325548 52.0540649,42.0714146 C51.3956693,42.6473783 50.3121879,42.9355721 48.6254068,42.9355721 C47.6925914,42.9355721 46.9797357,42.867126 46.554438,42.8120302 L46.554438,33.7190933 L46.554438,33.7190933 Z M48.227657,37.3672872 L49.0918145,37.3672872 C50.2577278,37.3672872 50.9159115,36.8188715 50.9159115,36.036934 C50.9159115,35.1727765 50.2575159,34.7754506 49.1880204,34.7754506 C48.6942766,34.7754506 48.4060829,34.8027866 48.227869,34.8438966 L48.227869,37.3672872 L48.227657,37.3672872 Z M48.227657,41.6189928 C48.4471929,41.6601028 48.7351747,41.6601028 49.1191505,41.6601028 C50.2026319,41.6601028 51.1627833,41.2490029 51.1627833,40.1104256 C51.1627833,39.0405063 50.2301798,38.6018584 49.0642666,38.6018584 L48.227657,38.6018584 L48.227657,41.6189928 Z" id="Shape" fill="#000000"></path>
        </g>
    </g>
</svg>