<?xml version="1.0" encoding="UTF-8"?>
<svg width="55px" height="55px" viewBox="0 0 55 55" version="1.1" xmlns="http://www.w3.org/2000/svg" xmlns:xlink="http://www.w3.org/1999/xlink">
    <title>017</title>
    <g id="017" stroke="none" stroke-width="1" fill="none" fill-rule="evenodd">
        <g id="mysql-6" transform="translate(1.000000, 2.000000)" fill="#00546B" fill-rule="nonzero">
            <path d="M48.8185206,40.2184874 C45.9348702,40.1466287 43.6999273,40.4348918 41.8254924,41.2274083 C41.2847303,41.4433986 40.4195109,41.4436057 40.3474092,42.1282306 C40.6358157,42.4164937 40.6718665,42.8849213 40.9242222,43.281076 C41.3572463,44.0015267 42.1136917,44.9744147 42.798657,45.4790823 C43.5555168,46.0554015 44.312791,46.6317206 45.1054944,47.1361811 C46.511476,48.0009704 48.0977116,48.5052238 49.4674351,49.3700132 C50.2607601,49.8740595 51.0532563,50.5230657 51.8463741,51.0633519 C52.242933,51.3512009 52.4950815,51.8200426 53,52 L53,51.8921084 C52.7474371,51.5676053 52.6753355,51.0993848 52.4231871,50.7390559 C52.0630933,50.378727 51.7021709,50.054431 51.3416628,49.6941021 C50.2963965,48.2892336 48.9987746,47.0641153 47.5930002,46.0554015 C46.4395815,45.2626779 43.9160249,44.1818982 43.4475716,42.8486813 C43.4475716,42.8486813 43.4113136,42.8128555 43.37547,42.7768226 C44.1683806,42.7047568 45.1054944,42.4164937 45.8627686,42.2002964 C47.0882889,41.8757933 48.2056568,41.9480661 49.4674351,41.6237701 C50.0440409,41.4796386 50.6208538,41.2994741 51.1974596,41.1193097 L51.1974596,40.7952207 C50.5489594,40.1466287 50.0802989,39.2820464 49.3953335,38.6694873 C47.5569494,37.083833 45.5381041,35.5348329 43.4475716,34.237856 C42.3299965,33.5171982 40.8879642,33.0487706 39.6984947,32.4364185 C39.2662993,32.2200141 38.545076,32.1121225 38.2929275,31.7517936 C37.6438058,30.9592771 37.2832977,29.9145304 36.8148443,28.9776752 C35.7697853,26.9958663 34.7601554,24.7982741 33.8588852,22.7087807 C33.210385,21.303498 32.8138261,19.8982152 32.0207083,18.6014454 C28.3078894,12.4764753 24.2706132,8.76550175 18.0707028,5.12638692 C16.7368229,4.36990331 15.1507945,4.0456073 13.4566137,3.64945259 C12.5557578,3.61321262 11.6542804,3.54135392 10.7532174,3.50511395 C10.1764045,3.25288371 9.59959152,2.56846588 9.09488019,2.24416987 C7.04060566,0.946985823 1.74134395,-1.86295836 0.227417166,1.84801516 C-0.745954672,4.18973886 1.66944952,6.49542967 2.49820374,7.68472213 C3.11148187,8.51327152 3.90418529,9.44991958 4.33679499,10.3867747 C4.58915066,10.9989197 4.66104509,11.6479259 4.91340075,12.2963108 C5.49042088,13.8811367 6.03076863,15.6469554 6.78804281,17.1243039 C7.1846017,17.8807876 7.61700422,18.6733041 8.12171554,19.357929 C8.41012201,19.7540837 8.91462615,19.9344552 9.02298576,20.5828402 C8.51848163,21.303498 8.48222363,22.3844847 8.19360997,23.2850998 C6.89598804,27.3564023 7.40090656,32.4003856 9.23908343,35.3907014 C9.81568918,36.2911094 11.1856199,38.2733326 13.024004,37.5164348 C14.6462904,36.8680499 14.2857823,34.8143822 14.7540284,33.0129448 C14.8625952,32.5801359 14.7904936,32.292287 15.0065913,32.0040239 L15.0065913,32.0762967 C15.5113026,33.0848035 16.0158067,34.0578986 16.4844672,35.0666124 C17.6020423,36.8318099 19.5483716,38.6694873 21.1704508,39.8946056 C22.0358774,40.5427834 22.7206356,41.659803 23.8021599,42.0561648 L23.8021599,41.947859 L23.7298511,41.947859 C23.5135462,41.623563 23.1890889,41.4796386 22.9008897,41.2272012 C22.2521823,40.5790234 21.5309589,39.7862998 21.0264548,39.065642 C19.5127352,37.0478001 18.1786481,34.8141751 16.9891786,32.5082772 C16.4125728,31.3916718 15.9076543,30.1665535 15.439201,29.049741 C15.2226889,28.6169322 15.2226889,27.9687543 14.862388,27.7527641 C14.3216259,28.5452806 13.5287153,29.2299055 13.1321564,30.2025864 C12.4476054,31.7517936 12.3752966,33.6613297 12.1229409,35.6427245 C11.9787377,35.6791716 12.0506321,35.6427245 11.9785305,35.7152045 C10.825319,35.4265272 10.4287601,34.237856 9.99594323,33.228935 C8.91441896,30.671014 8.73416492,26.5636787 9.67169313,23.6093959 C9.9240488,22.8527052 11.0055731,20.4749486 10.5729634,19.7542908 C10.3566585,19.0696658 9.63543514,18.6733041 9.23908343,18.1330178 C8.7706301,17.4483929 8.26571159,16.5840177 7.9414615,15.8271199 C7.07624209,13.8094851 6.64363238,11.575653 5.70651854,9.55801825 C5.27390884,8.6211631 4.51725623,7.64868924 3.90418529,6.78389987 C3.21942711,5.81121892 2.46236012,5.12638692 1.92159799,3.97354152 C1.74155114,3.57738681 1.48898829,2.92879479 1.77739476,2.4964001 C1.84949637,2.20813698 1.99349242,2.1002454 2.28210608,2.02817962 C2.7507666,1.63161074 4.08464652,2.1360712 4.55289266,2.35226854 C5.88677259,2.89234773 7.00414047,3.39722236 8.12171554,4.15370597 C8.62621968,4.51403487 9.16698181,5.19865979 9.81568918,5.37882424 L10.5727562,5.37882424 C11.726382,5.63084738 13.0237968,5.45089002 14.1053211,5.77497895 C16.0160139,6.38733099 17.7460384,7.28815325 19.2962231,8.26104129 C24.0184647,11.251357 27.9111233,15.5028239 30.5428324,20.5828402 C30.9754421,21.4111825 31.1554889,22.1682873 31.5520478,23.0326625 C32.309322,24.7982741 33.2464358,26.5997116 34.0030884,28.3290832 C34.7601554,30.0222149 35.4809644,31.7517936 36.5624887,33.1570763 C37.1032508,33.9133529 39.265885,34.3099217 40.2392568,34.7062835 C40.960273,35.0303725 42.0778481,35.3188427 42.7265554,35.7149974 C43.9520757,36.4712739 45.1775961,37.3364774 46.3312219,38.1648197 C46.9080349,38.5972144 48.7101609,39.4980367 48.8185206,40.2184874 Z" id="Path"></path>
            <path d="M12.5372898,9 C11.8999138,9 11.4500647,9.0628592 11,9.1564296 L11,9.2189296 L11.0750108,9.2189296 C11.3752694,9.7189296 11.8999138,10.0626796 12.2747521,10.5 C12.5750108,10.9998204 12.837333,11.5 13.1375916,12 C13.1748814,11.9685704 13.2123868,11.9375 13.2123868,11.9375 C13.7376778,11.6248204 14,11.125 14,10.375 C13.7749677,10.1564296 13.7374623,9.9376796 13.5499353,9.7189296 C13.3251186,9.40625 12.837333,9.2501796 12.5372898,9 L12.5372898,9 Z" id="Path"></path>
        </g>
    </g>
</svg>