<?xml version="1.0" encoding="UTF-8"?>
<svg width="55px" height="55px" viewBox="0 0 55 55" version="1.1" xmlns="http://www.w3.org/2000/svg" xmlns:xlink="http://www.w3.org/1999/xlink">
    <title>Artboard Copy 4</title>
    <g id="Artboard-Copy-4" stroke="none" stroke-width="1" fill="none" fill-rule="evenodd">
        <g id="Group-33" transform="translate(0.000000, 13.000000)" fill-rule="nonzero">
            <ellipse id="Oval" fill="#8993BE" cx="27.5000008" cy="14.3150395" rx="27.5000008" ry="14.3150395"></ellipse>
            <path d="M7.72255882,22.7910554 L10.736387,7.53414085 L17.705274,7.53414085 C20.7188873,7.72255882 22.2258014,9.22925809 22.2258014,11.8664652 C22.2258014,16.3869927 18.647149,19.0239849 15.4449028,18.835567 L12.0548832,18.835567 L11.3014261,22.7910554 L7.72255882,22.7910554 Z" id="Path" fill="#232531"></path>
            <path d="M12.8081254,16.0103716 L13.7500004,10.3595511 L16.1985747,10.3595511 C17.5170708,10.3595511 18.458731,10.9245902 18.458731,12.0546683 C18.2705279,15.2569145 16.7636138,15.8219536 15.0684965,16.0103716 L12.8083402,16.0103716 L12.8081254,16.0103716 Z" id="Path" fill="#8993BE"></path>
            <path d="M21.5256256,18.835567 L24.539239,3.57886729 L28.1181063,3.57886729 L27.3646493,7.53414085 L30.7548837,7.53414085 C33.7687119,7.72255882 34.8987901,9.22925809 34.522169,11.1130081 L33.2036729,18.835567 L29.4366024,18.835567 L30.7550986,11.8664652 C30.9433017,10.9245902 30.9433017,10.3595511 29.6250204,10.3595511 L26.7996102,10.3595511 L25.1044929,18.835567 L21.5256256,18.835567 L21.5256256,18.835567 Z" id="Path" fill="#232531"></path>
            <path d="M32.9624033,22.7910554 L35.9760167,7.53414085 L42.9451185,7.53414085 C45.9589467,7.72255882 47.4658608,9.22925809 47.4658608,11.8664652 C47.4658608,16.3869927 43.8869935,19.0239849 40.6849622,18.835567 L37.2945128,18.835567 L36.5410558,22.7910554 L32.9624033,22.7910554 L32.9624033,22.7910554 Z" id="Path" fill="#232531"></path>
            <path d="M38.047755,16.0103716 L38.9896301,10.3595511 L41.4384192,10.3595511 C42.7569153,10.3595511 43.6985755,10.9245902 43.6985755,12.0546683 C43.5103724,15.2569145 42.0034583,15.8219536 40.308341,16.0103716 L38.0479699,16.0103716 L38.047755,16.0103716 Z" id="Path" fill="#8993BE"></path>
        </g>
    </g>
</svg>