<?xml version="1.0" encoding="UTF-8"?>
<svg width="55px" height="55px" viewBox="0 0 55 55" version="1.1" xmlns="http://www.w3.org/2000/svg" xmlns:xlink="http://www.w3.org/1999/xlink">
    <title>Artboard Copy 3</title>
    <g id="Artboard-Copy-3" stroke="none" stroke-width="1" fill="none" fill-rule="evenodd">
        <g id="mobile-app" transform="translate(1.000000, 0.000000)" fill-rule="nonzero">
            <path d="M52.5840834,40.0322982 L51.2980263,40.0322982 C51.0542318,39.0288397 50.6566737,38.0691343 50.1194549,37.1872269 L51.0302549,36.2764269 C51.4824371,35.8230443 51.4824371,35.0892382 51.0302549,34.6358556 L49.2817264,32.8873271 C48.8227509,32.4488811 48.1001304,32.4488811 47.641155,32.8873271 L46.7298836,33.7981271 C45.8484333,33.2606722 44.8890004,32.8630952 43.8857552,32.6195557 L43.8857552,31.3316129 C43.8855052,31.0236624 43.7629326,30.7284241 43.5450019,30.5108471 C43.3270712,30.29327 43.0316343,30.1711771 42.7236838,30.1714272 L41.9613838,30.1714272 L41.9613838,20.2242848 L47.2569407,20.2242848 C48.5581086,20.2227262 49.6125249,19.1683099 49.6140835,17.8671421 L49.6140835,11.7743995 C49.6125249,10.4732316 48.5581086,9.41881532 47.2569407,9.41725672 L41.9613838,9.41725672 L41.9613838,5.67411403 C41.9590456,3.58280788 40.2642902,1.88805246 38.172984,1.8857142 L15.9201421,1.8857142 C13.828836,1.88805246 12.1340806,3.58280788 12.1317423,5.67411403 L12.1317423,14.7599565 L5.04428549,14.7599565 C3.29992261,14.7641113 1.88752739,16.1784037 1.8857142,17.9227706 L1.8857142,26.6182702 C1.88778605,28.3625299 3.30003016,29.7766711 5.04428549,29.7810844 L12.1317423,29.7810844 L12.1317423,50.897312 C12.1340806,52.9886182 13.828836,54.6833736 15.9201421,54.6857118 L42.7236838,54.6857118 C43.3642212,54.6857118 43.8833495,54.1660635 43.8838695,53.5255262 L43.8838695,52.2394691 C44.8870132,51.9956187 45.8463994,51.598061 46.7279979,51.0608977 L47.6392693,51.9716977 C48.0925447,52.4241393 48.8265653,52.4241393 49.2798407,51.9716977 L51.0283691,50.2231692 C51.4805514,49.7697866 51.4805514,49.0359805 51.0283691,48.5825978 L50.1175692,47.6713264 C50.6547799,46.789752 51.0523407,45.8303582 51.2961406,44.827198 L52.5821976,44.827198 C52.8902298,44.827073 53.1855892,44.7045556 53.4032682,44.4866113 C53.6209472,44.2686671 53.7428551,43.9731587 53.7428551,43.6651266 L53.7428551,41.1920124 C53.7423358,40.552103 53.2239921,40.0333377 52.5840834,40.0322982 Z" id="Path" fill="#E6E7E8"></path>
            <path d="M36.2872698,0.47142855 L14.0358422,0.47142855 C12.2041899,0.47142855 10.7193424,1.95627611 10.7193424,3.7879284 L10.7193424,49.0120692 C10.7193424,50.8429854 12.2030407,52.3275281 14.0339565,52.3285691 L39.6042411,52.3285691 L39.6042411,3.7879284 C39.6042411,1.95619986 38.1189984,0.47142855 36.2872698,0.47142855 Z" id="Path" fill="#6DC9F7"></path>
            <rect id="Rectangle" fill="#D4FBFF" transform="translate(25.160849, 25.343292) rotate(90.000000) translate(-25.160849, -25.343292) " x="5.20598548" y="10.8998995" width="39.9097268" height="28.8867844"></rect>
            <rect id="Rectangle" fill="#FFFFFF" x="10.7174567" y="5.3879569" width="28.8867844" height="1.41428565"></rect>
            <rect id="Rectangle" fill="#0089EF" x="20.6518705" y="2.44482846" width="9.01748531" height="1.07014281" rx="0.535071405"></rect>
            <path d="M31.80917,2.39249989 C31.484758,2.39249989 31.22177,2.65548782 31.22177,2.97989987 C31.22177,3.30431191 31.484758,3.56729984 31.80917,3.56729984 C32.1335821,3.56729984 32.39657,3.30431191 32.39657,2.97989987 C32.39657,2.65548782 32.1335821,2.39249989 31.80917,2.39249989 Z" id="Path" fill="#0089EF"></path>
            <rect id="Rectangle" fill="#0089EF" x="21.2633133" y="47.2149836" width="7.79459965" height="2.59804274" rx="1.29902137"></rect>
            <circle id="Oval" fill="#FFD7E5" cx="39.6014125" cy="40.5428553" r="5.63451403"></circle>
            <path d="M51.385712,41.7794124 L51.385712,39.3062982 C51.385712,38.9259082 51.0773449,38.6175411 50.6969549,38.6175411 L49.0328121,38.6175411 C48.7871843,37.4104088 48.3108098,36.2620518 47.6298407,35.2355127 L48.8084121,34.0569413 C48.9376708,33.9278389 49.0103007,33.7526446 49.0103007,33.5699556 C49.0103007,33.3872667 48.9376708,33.2120724 48.8084121,33.0829699 L47.0598836,31.3344415 C46.9307812,31.2051828 46.7555869,31.1325529 46.5728979,31.1325529 C46.390209,31.1325529 46.2150147,31.2051828 46.0859122,31.3344415 L44.9073408,32.5130128 C43.8808018,31.8320437 42.7324447,31.3556692 41.5253124,31.1100415 L41.5253124,29.4458987 C41.5253132,29.0660603 41.2178072,28.7579215 40.8379696,28.7571416 L38.3648554,28.7571416 C37.9844654,28.7571416 37.6760983,29.0655086 37.6760983,29.4458987 L37.6760983,31.1100415 C36.468966,31.3556692 35.320609,31.8320437 34.2940699,32.5130128 L33.1154985,31.3344415 C32.9863961,31.2051828 32.8112018,31.1325529 32.6285128,31.1325529 C32.4458239,31.1325529 32.2706296,31.2051828 32.1415271,31.3344415 L30.3929986,33.0829699 C30.26374,33.2120724 30.19111,33.3872667 30.19111,33.5699556 C30.19111,33.7526446 30.26374,33.9278389 30.3929986,34.0569413 L31.57157,35.2355127 C30.8906009,36.2620518 30.4142264,37.4104088 30.1685987,38.6175411 L28.5044559,38.6175411 C28.3215412,38.6171655 28.1459896,38.689565 28.0165165,38.8187727 C27.8870435,38.9479805 27.8142845,39.1233832 27.8142845,39.3062982 L27.8142845,41.7794124 C27.8142845,42.1598025 28.1226515,42.4681695 28.5030416,42.4681695 L30.1671844,42.4681695 C30.4128121,43.6753018 30.8891866,44.8236589 31.5701557,45.850198 L30.3915844,47.0287693 C30.2623257,47.1578718 30.1896958,47.3330661 30.1896958,47.515755 C30.1896958,47.698444 30.2623257,47.8736383 30.3915844,48.0027407 L32.1401128,49.7512692 C32.2692153,49.8805279 32.4444096,49.9531578 32.6270985,49.9531578 C32.8097875,49.9531578 32.9849818,49.8805279 33.1140842,49.7512692 L34.2926556,48.5726978 C35.3191947,49.2536669 36.4675517,49.7300414 37.674684,49.9756692 L37.674684,51.639812 C37.6746836,51.822727 37.747443,51.9981298 37.8769161,52.1273375 C38.0063891,52.2565453 38.1819408,52.3289447 38.3648554,52.3285705 L40.8379696,52.3285705 C41.2183597,52.3285705 41.5267267,52.020202 41.5267267,51.639812 L41.5267267,49.9756692 C42.733859,49.7300414 43.8822161,49.2536669 44.9087551,48.5726978 L46.0873265,49.7512692 C46.216429,49.8805279 46.3916233,49.9531578 46.5743122,49.9531578 C46.7570011,49.9531578 46.9321954,49.8805279 47.0612979,49.7512692 L48.8098264,48.0027407 C48.9390851,47.8736383 49.011715,47.698444 49.011715,47.515755 C49.011715,47.3330661 48.9390851,47.1578718 48.8098264,47.0287693 L47.631255,45.850198 C48.3122241,44.8236589 48.7885986,43.6753018 49.0342264,42.4681695 L50.6983692,42.4681695 C51.0782068,42.4673896 51.385712,42.1592508 51.385712,41.7794124 L51.385712,41.7794124 Z M39.5999982,46.1773695 C36.4883263,46.1765883 33.9663779,43.6535847 33.9668985,40.5419127 C33.9674192,37.4302407 36.4902118,34.9080812 39.6018838,34.9083415 C42.7135559,34.9086018 45.2359265,37.4311833 45.2359265,40.5428553 C45.2359265,42.0374664 44.6420979,43.4708415 43.5851156,44.5275585 C42.5281333,45.5842755 41.0946093,46.1777445 39.5999982,46.1773695 Z" id="Shape" fill="#FA759E"></path>
            <path d="M45.371698,8.00249817 L33.8957128,8.00249817 C32.8542616,8.00249817 32.0099986,8.84676265 32.0099986,9.88821384 L32.0099986,15.9814279 C32.0099986,17.0228791 32.8542616,17.8671421 33.8957128,17.8671421 L36.7016555,17.8671421 L36.7016555,20.5825705 L39.7748982,17.8671421 L45.3740551,17.8671421 C46.4155063,17.8671421 47.2597693,17.0228791 47.2597693,15.9814279 L47.2597693,9.88821384 C47.2597693,9.38768267 47.0607733,8.90768632 46.7066233,8.55397848 C46.3524733,8.20027063 45.8722288,8.00187398 45.371698,8.00249817 Z" id="Path" fill="#FFD7E5"></path>
            <path d="M42.7915695,10.4925852 L42.7915695,10.4925852 C42.4201084,10.120209 41.9157495,9.91093315 41.3897767,9.91093315 C40.8638039,9.91093315 40.359445,10.120209 39.9879839,10.4925852 L39.6325268,10.8480424 L39.2765982,10.4925852 C38.9051561,10.1203535 38.4008983,9.9111694 37.8750412,9.9111694 C37.349184,9.9111694 36.8449262,10.1203535 36.4734841,10.4925852 L36.4734841,10.4925852 C36.1012524,10.8640274 35.8920682,11.3682852 35.8920682,11.8941423 C35.8920682,12.4199995 36.1012524,12.9242573 36.4734841,13.2956994 L36.8289412,13.651628 L39.1922125,16.0144279 C39.4354048,16.2575743 39.8296488,16.2575743 40.0728411,16.0144279 L42.435641,13.651628 L42.7915695,13.2956994 C43.1638012,12.9242573 43.3729854,12.4199995 43.3729854,11.8941423 C43.3729854,11.3682852 43.1638012,10.8640274 42.7915695,10.4925852 L42.7915695,10.4925852 Z" id="Path" fill="#FA759E"></path>
            <path d="M3.16092843,13.3456708 L19.5425991,13.3456708 C21.0288263,13.3456708 22.2337244,14.5503579 22.2339847,16.036585 L22.2339847,24.732556 C22.2339847,26.2189673 21.0290103,27.4239416 19.5425991,27.4239416 L15.538285,27.4239416 L15.538285,31.2990843 L11.1539995,27.4239416 L3.16092843,27.4239416 C1.67525368,27.4229007 0.47142855,26.2182312 0.47142855,24.732556 L0.47142855,16.036585 C0.471688387,14.551094 1.67543774,13.3467116 3.16092843,13.3456708 Z" id="Path" fill="#0089EF"></path>
            <path d="M10.7174567,38.539284 C10.9778195,38.539284 11.1888852,38.3282182 11.1888852,38.0678554 L11.1888852,33.4714271 C11.1888852,33.2110643 10.9778195,32.9999985 10.7174567,32.9999985 C10.4570939,32.9999985 10.2460281,33.2110643 10.2460281,33.4714271 L10.2460281,38.0678554 C10.2460281,38.3282182 10.4570939,38.539284 10.7174567,38.539284 Z" id="Path" fill="#3A2C60"></path>
            <path d="M50.6983692,38.1461126 L49.4123121,38.1461126 C49.1687535,37.1427254 48.7711791,36.18314 48.2337407,35.3015127 L49.1445407,34.3907127 C49.3626421,34.1734508 49.4852411,33.8782761 49.4852411,33.5704271 C49.4852411,33.2625781 49.3626421,32.9674033 49.1445407,32.7501414 L47.3960122,31.0016129 C46.9371333,30.562926 46.2143197,30.562926 45.7554408,31.0016129 L44.8441694,31.9124129 C43.9627986,31.3748016 43.0033406,30.9772142 42.000041,30.7338415 L42.000041,29.4458987 C41.9992604,28.804733 41.4791357,28.2854523 40.8379696,28.285713 L40.0756696,28.285713 L40.0756696,18.3385706 L45.371698,18.3385706 C46.6728658,18.337012 47.7272821,17.2825957 47.7288407,15.9814279 L47.7288407,9.88868527 C47.7272821,8.58751742 46.6728658,7.53310112 45.371698,7.53154252 L40.0756696,7.53154252 L40.0756696,3.7879284 C40.0733309,1.69669879 38.3784997,0.0020784843 36.2872698,0 L14.0358422,0 C11.9447964,0.00233825306 10.2502521,1.69688261 10.2479138,3.7879284 L10.2479138,12.8742423 L3.16092843,12.8742423 C1.41564485,12.8770999 0.00181674951,14.2917714 0,16.0370564 L0,24.732556 C0.00181842605,26.4783923 1.41650678,27.8932915 3.16234272,27.8953702 L10.2460281,27.8953702 L10.2460281,31.4678557 C10.2460281,31.7282185 10.4570939,31.9392843 10.7174567,31.9392843 C10.9778195,31.9392843 11.1888852,31.7282185 11.1888852,31.4678557 L11.1888852,28.0858273 L15.2271422,31.6526557 C15.3661133,31.7754021 15.5641308,31.805287 15.733137,31.7290207 C15.9021431,31.6527544 16.0107484,31.4845018 16.0106564,31.2990843 L16.0106564,27.8953702 L19.543542,27.8953702 C21.2894545,27.893292 22.704278,26.4784685 22.7063561,24.732556 L22.7063561,16.0370564 C22.7045372,14.2910364 21.289562,12.8760612 19.543542,12.8742423 L11.1888852,12.8742423 L11.1888852,5.85938545 L39.1328125,5.85938545 L39.1328125,7.53154252 L33.8928842,7.53154252 C32.5917163,7.53310112 31.5373,8.58751742 31.5357414,9.88868527 L31.5357414,15.9814279 C31.5373,17.2825957 32.5917163,18.337012 33.8928842,18.3385706 L36.2273984,18.3385706 L36.2273984,20.5825705 C36.2273278,20.7680921 36.3360732,20.9364064 36.5052296,21.0125929 C36.674386,21.0887794 36.872499,21.0586713 37.0113841,20.9356705 L39.1328125,19.061742 L39.1328125,28.285713 L38.3653269,28.285713 C37.7247895,28.2862329 37.2056611,28.8053613 37.2051412,29.4458987 L37.2051412,30.7324272 C36.2016901,30.9757901 35.2420753,31.3733766 34.3605413,31.9109986 L33.4492699,31.0001986 C32.9903911,30.5615117 32.2675774,30.5615117 31.8086986,31.0001986 L30.0596987,32.7487271 C29.6075164,33.2021097 29.6075164,33.9359158 30.0596987,34.3892985 L30.9728558,35.3019841 C30.4348896,36.1834499 30.0365353,37.1428397 29.7919272,38.1461126 L28.5044559,38.1461126 C27.8633663,38.1458521 27.3433764,38.6652088 27.3428559,39.3062982 L27.3428559,41.7794124 C27.3436357,42.4197657 27.8626881,42.9386071 28.5030416,42.9391267 L29.7890987,42.9391267 C29.9496026,43.5887737 30.1753049,44.2205507 30.4627701,44.8248409 L11.1888852,44.8248409 L11.1888852,40.1892839 C11.1888852,39.9289211 10.9778195,39.7178554 10.7174567,39.7178554 C10.4570939,39.7178554 10.2460281,39.9289211 10.2460281,40.1892839 L10.2460281,49.0115978 C10.2483659,51.1027202 11.9428345,52.7973997 14.0339565,52.7999976 L40.8379696,52.7999976 C41.4783994,52.7992184 41.997376,52.2802418 41.9981553,51.639812 L41.9981553,50.3537549 C43.0013273,50.1099912 43.9607265,49.7124281 44.8422837,49.1751835 L45.7535551,50.0859835 C46.206723,50.5386848 46.9409586,50.5386848 47.3941265,50.0859835 L49.1426549,48.3379264 C49.3605529,48.1204605 49.4830031,47.8252539 49.4830031,47.517405 C49.4830031,47.2095561 49.3605529,46.9143496 49.1426549,46.6968836 L48.2313836,45.7856122 C48.7690805,44.9041163 49.166672,43.9444895 49.4099549,42.9410124 L50.696012,42.9410124 C51.3373618,42.9407521 51.8571405,42.4207623 51.8571405,41.7794124 L51.8571405,39.3062982 C51.8563634,38.6664194 51.3382466,38.1476703 50.6983692,38.1461126 Z M21.7625562,16.0361136 L21.7625562,24.732556 C21.761257,25.9580659 20.768109,26.9512139 19.5425991,26.9525131 L15.538285,26.9525131 C15.2779222,26.9525131 15.0668565,27.1635788 15.0668565,27.4239416 L15.0668565,30.2525129 L11.4637281,27.0694274 C11.377541,26.9934175 11.2665584,26.9515056 11.1516424,26.9515702 L3.16092843,26.9515702 C1.93652253,26.9492339 0.944673043,25.9569628 0.942857101,24.732556 L0.942857101,16.0370564 C0.944155777,14.8117303 1.93701694,13.8186583 3.16234272,13.8170994 L19.5425991,13.8170994 C20.768109,13.8183986 21.761257,14.8115465 21.7625562,16.0370564 L21.7625562,16.0361136 Z M11.1888852,4.91652835 L11.1888852,3.7879284 C11.1907037,2.21739278 12.4634209,0.944675604 14.0339565,0.942857101 L36.2853841,0.942857101 C37.8561038,0.944415849 39.1291078,2.21720895 39.1309268,3.7879284 L39.1309268,4.91652835 L11.1888852,4.91652835 Z M36.6988269,17.3957135 L33.8928842,17.3957135 C33.1117958,17.3957135 32.4785985,16.7625163 32.4785985,15.9814279 L32.4785985,9.88868527 C32.4785985,9.10759688 33.1117958,8.47439962 33.8928842,8.47439962 L45.371698,8.47439962 C46.1527864,8.47439962 46.7859836,9.10759688 46.7859836,9.88868527 L46.7859836,15.9814279 C46.7859836,16.7625163 46.1527864,17.3957135 45.371698,17.3957135 L39.7725411,17.3957135 C39.657625,17.3956489 39.5466424,17.4375608 39.4604554,17.5135706 L37.1702555,19.536942 L37.1702555,17.8671421 C37.1702555,17.6067793 36.9591897,17.3957135 36.6988269,17.3957135 Z M11.1888852,49.0115978 L11.1888852,45.7691122 L30.9634272,45.7691122 L30.9714415,45.7837265 L30.0596987,46.6949979 C29.6075164,47.1483805 29.6075164,47.8821866 30.0596987,48.3355693 L31.8086986,50.0840978 C32.2619739,50.5365394 32.9959946,50.5365394 33.4492699,50.0840978 L34.3605413,49.1732978 C35.242265,49.7105464 36.2018201,50.1081081 37.2051412,50.3518692 L37.2051412,51.6379263 C37.2056273,51.7108842 37.212887,51.7836394 37.2268269,51.8552548 L14.0325422,51.8552548 C12.4631101,51.8526594 11.1914806,50.5810299 11.1888852,49.0115978 Z M50.9142834,41.7794124 C50.9140235,41.8992555 50.8167983,41.9962698 50.6969549,41.9962696 L49.0328121,41.9962696 C48.8087569,41.9962238 48.6156231,42.153884 48.5708121,42.3734124 C48.3384666,43.5215468 47.885365,44.6136337 47.2366693,45.5890265 C47.1130003,45.7759477 47.1380321,46.0240983 47.2965407,46.1825551 L48.4751121,47.3611265 C48.5159635,47.4017421 48.5389335,47.4569703 48.5389335,47.5145764 C48.5389335,47.5721825 48.5159635,47.6274108 48.4751121,47.6680264 L46.7265836,49.4165549 C46.685968,49.4574063 46.6307397,49.4803763 46.5731336,49.4803763 C46.5155275,49.4803763 46.4602992,49.4574063 46.4196836,49.4165549 L45.2411123,48.2379836 C45.0826554,48.0794749 44.8345048,48.0544431 44.6475837,48.1781121 C43.6717779,48.8263557 42.5796284,49.2794168 41.4314981,49.5122549 C41.2119698,49.557066 41.0543096,49.7501997 41.0543553,49.9742549 L41.0543553,51.6383977 C41.054096,51.7583174 40.9569464,51.855467 40.8370267,51.8557263 L38.3653269,51.8557263 C38.2454072,51.855467 38.1482576,51.7583174 38.1479983,51.6383977 L38.1479983,49.9742549 C38.148044,49.7501997 37.9903838,49.557066 37.7708555,49.5122549 C36.6231471,49.2800152 35.531311,48.8275916 34.5557127,48.1799978 C34.3687916,48.0563288 34.120641,48.0813607 33.9621842,48.2398693 L32.7836128,49.4184406 C32.7429165,49.4593204 32.6876103,49.482302 32.6299271,49.482302 C32.572244,49.482302 32.5169377,49.4593204 32.4762414,49.4184406 L30.7272415,47.6699122 C30.6428715,47.584824 30.6428715,47.4476289 30.7272415,47.3625407 L31.9058129,46.1839694 C32.0643215,46.0255125 32.0893533,45.7773619 31.9656843,45.5904408 C31.3173698,44.6148447 30.8643002,43.5228349 30.6315415,42.3748267 C30.5867305,42.1552983 30.3935967,41.9976381 30.1695415,41.9976838 L28.5053987,41.9976838 C28.3855553,41.9976841 28.2883301,41.9006698 28.2880702,41.7808267 L28.2880702,39.3062982 C28.2883295,39.1863786 28.385479,39.089229 28.5053987,39.0889697 L30.1695415,39.0889697 C30.3935967,39.0890154 30.5867305,38.9313552 30.6315415,38.7118268 C30.8643796,37.5636966 31.3174407,36.4715471 31.9656843,35.4957413 C32.0893533,35.3088201 32.0643215,35.0606695 31.9058129,34.9022127 L30.7272415,33.7236413 C30.6428715,33.6385532 30.6428715,33.5013581 30.7272415,33.4162699 L32.4762414,31.6677414 C32.5169993,31.6269776 32.5722825,31.6040762 32.6299271,31.6040762 C32.6875717,31.6040762 32.7428549,31.6269776 32.7836128,31.6677414 L33.9621842,32.8463128 C34.1207126,33.0050718 34.3691626,33.0301139 34.5561842,32.9061842 C35.5315253,32.2577141 36.6234127,31.8046289 37.7713269,31.5720414 C37.9908553,31.5272304 38.1485155,31.3340967 38.1484697,31.1100415 L38.1484697,29.4458987 C38.1487278,29.3261623 38.2455913,29.2290882 38.3653269,29.2285701 L40.8379696,29.2285701 C40.9578893,29.2288294 41.0550389,29.325979 41.0552982,29.4458987 L41.0552982,31.1100415 C41.0552524,31.3340967 41.2129126,31.5272304 41.432441,31.5720414 C42.5805018,31.8046282 43.6725436,32.2577111 44.6480551,32.9061842 C44.8350767,33.0301139 45.0835268,33.0050718 45.2420551,32.8463128 L46.4206265,31.6677414 C46.4613039,31.6270062 46.516509,31.6041165 46.5740765,31.6041165 C46.6316439,31.6041165 46.6868491,31.6270062 46.7275265,31.6677414 L48.476055,33.4162699 C48.5170515,33.456904 48.5401138,33.5122336 48.5401138,33.5699556 C48.5401138,33.6276777 48.5170515,33.6830073 48.476055,33.7236413 L47.2974836,34.9022127 C47.138975,35.0606695 47.1139431,35.3088201 47.2376122,35.4957413 C47.8862684,36.4713271 48.3393641,37.5635599 48.571755,38.7118268 C48.616566,38.9313552 48.8096998,39.0890154 49.033755,39.0889697 L50.6978977,39.0889697 C50.8178174,39.089229 50.914967,39.1863786 50.9152263,39.3062982 L50.9142834,41.7794124 Z" id="Shape" fill="#3A2C60"></path>
            <path d="M39.5999982,34.4369127 C36.2279635,34.4376938 33.4949493,37.1717632 33.49547,40.543798 C33.4959907,43.9158328 36.229849,46.649058 39.6018838,46.6487977 C42.9739187,46.6485374 45.7073551,43.9148902 45.7073551,40.5428553 C45.7037162,37.1715927 42.9712616,34.4397709 39.5999982,34.4369127 Z M39.5999982,45.7040551 C37.5116823,45.7034829 35.6293489,44.4449708 34.8307577,42.5153813 C34.0321664,40.5857918 34.4745928,38.3651409 35.9517271,36.8889505 C37.4288613,35.4127601 39.6497946,34.9717531 41.5788733,35.7715776 C43.5079519,36.5714021 44.7652606,38.4545395 44.7644983,40.5428553 C44.7613788,43.3936078 42.4507515,45.7036024 39.5999982,45.7059408 L39.5999982,45.7040551 Z" id="Shape" fill="#3A2C60"></path>
            <circle id="Oval" fill="#FFFFFF" cx="5.69485689" cy="20.7428562" r="1.64999993"></circle>
            <circle id="Oval" fill="#FFFFFF" cx="11.3519995" cy="20.7428562" r="1.64999993"></circle>
            <circle id="Oval" fill="#FFFFFF" cx="17.0091421" cy="20.7428562" r="1.64999993"></circle>
        </g>
    </g>
</svg>