<svg xmlns="http://www.w3.org/2000/svg" xmlns:xlink="http://www.w3.org/1999/xlink" width="250" height="111" ><style><![CDATA[.B{fill:#263238}.C{fill:#ed5c37}.D{fill:#000}.E{fill:#ffbe9d}.F{fill:#eb996e}]]></style><g fill="none"><g transform="matrix(-1 0 0 1 239.364078 0)"><path d="M19.696 9.148c-1.898.294-3.289-1.31-3.733-2.72-.41-1.31-.605-2.675-1.179-3.931C13.98.756 11.849-.049 9.938.112S6.099 1.235 4.407 2.136l.468 10.483s3.682-3.931 5.453-3.995c2.954-.118 2.793 4.736 5.661 5.453 0 0 4.021 1.089 6.739-2.42 1.724-2.229 1.872-4.936 1.872-4.936s-1.322 1.876-4.902 2.428z" class="C"/><path d="M4.403.109c.083.013.496 7.95.92 17.727s.708 9.838.625 9.827-.491-.09-.921-9.871L4.403.109z" class="B"/><path d="M14.455 5.702c.322 1.108.791 2.167 1.396 3.149.547.855 1.376 1.576 2.37 1.784.182.025.36.07.532.137s.295.231.316.417c0 .275-.275.455-.522.577-.343.188-.71.329-1.091.419-.374.071-.685.112-.949-.187a5.34 5.34 0 0 1-.685-.822c-.867-1.477-1.295-3.588-1.366-5.258" opacity=".2" class="D"/><path d="M17.029 12.435s-.03-.013-.084-.049c-.079-.051-.154-.107-.226-.167-.267-.221-.502-.476-.7-.76-.293-.421-.529-.879-.702-1.363a15.12 15.12 0 0 1-.519-1.803 19.99 19.99 0 0 1-.485-3.369l-.028-1.03v-.281a.5.5 0 0 1 0-.097.34.34 0 0 1 .011.097l.011.279.058 1.028a22.45 22.45 0 0 0 .509 3.351c.137.608.31 1.207.517 1.795a6.05 6.05 0 0 0 .681 1.351 4.14 4.14 0 0 0 .668.769l.288.247z" class="B"/></g><g class="C"><path d="M27.795 76.955h27.87v7.488h-27.87z"/><path d="M55.535 69.468h27.87v7.488h-27.87z"/><path d="M83.275 61.98h27.87v7.488h-27.87z"/><path d="M111.015 54.493h27.87v7.488h-27.87z"/><path d="M138.756 47.005h27.87v7.488h-27.87z"/><path d="M166.496 39.517h27.87v7.488h-27.87z"/><path d="M194.236 32.03h27.87v7.488h-27.87z"/><path d="M221.976 24.542h27.87v7.488h-27.87z"/><path fill-opacity=".137" d="M249.792 110.857H0V91.93h27.87v1.456h.208v-8.943H55.74v-7.488h27.87v-7.488h27.87V61.98h27.87v-7.488h27.662v-7.488h26.83v-7.488h27.87v3.12h.208V32.03h27.87z"/><path d="M.055 84.443h27.87v7.488H.055z"/></g><g fill="#181818"><path d="M6.532 97.546a1.23 1.23 0 0 0 .581-.128c.162-.085.285-.205.37-.36s.127-.335.127-.543-.042-.388-.127-.542a.87.87 0 0 0-.37-.357c-.162-.084-.356-.127-.581-.127h0-.687v2.056h.687zm-.026-.3h-.329v-1.462h.329c.247 0 .436.064.568.192s.198.308.198.539-.066.411-.198.539-.321.192-.568.192h0zm1.604-1.581c.064 0 .116-.017.156-.052s.06-.081.06-.137-.02-.103-.06-.14a.22.22 0 0 0-.156-.055c-.064 0-.116.018-.154.055s-.058.083-.058.14.019.102.058.137.09.052.154.052zm.166 1.881v-1.604h-.332v1.604h.332zm1.042.02c.173 0 .31-.042.412-.125a.4.4 0 0 0 .153-.326c0-.109-.027-.195-.08-.258s-.117-.109-.192-.138a2.11 2.11 0 0 0-.293-.084l-.211-.058c-.05-.017-.091-.042-.124-.073a.16.16 0 0 1-.05-.122c0-.068.023-.122.068-.162s.11-.06.194-.06c.101 0 .182.027.243.08a.34.34 0 0 1 .112.211h0 .314a.61.61 0 0 0-.208-.386c-.114-.096-.264-.144-.453-.144-.181 0-.322.042-.424.127a.41.41 0 0 0-.153.33c0 .105.026.188.077.249s.114.105.186.132.167.054.284.082l.215.057c.052.018.096.044.131.077s.052.078.052.134c0 .064-.023.117-.068.159s-.108.063-.188.063c-.111 0-.2-.027-.268-.082s-.107-.125-.116-.213h0-.323c.025.167.099.297.223.39s.285.14.485.14zm1.61 0a.79.79 0 0 0 .515-.166c.136-.111.22-.26.253-.448h0-.352c-.019.101-.066.181-.141.239s-.168.087-.281.087a.42.42 0 0 1-.32-.137c-.085-.091-.128-.224-.128-.399s.043-.307.128-.397.192-.135.32-.135c.113 0 .206.029.281.086s.122.136.141.237h0 .352a.71.71 0 0 0-.253-.447c-.136-.11-.308-.165-.515-.165-.155 0-.293.033-.412.099s-.213.161-.281.285-.102.27-.102.437.034.315.102.44.162.219.281.285.257.099.412.099zm1.823 0a.88.88 0 0 0 .419-.099.71.71 0 0 0 .291-.285c.07-.124.105-.271.105-.44s-.035-.313-.105-.437a.71.71 0 0 0-.291-.285.88.88 0 0 0-.419-.099.87.87 0 0 0-.418.099.72.72 0 0 0-.291.285c-.071.124-.106.27-.106.437s.035.313.106.438a.72.72 0 0 0 .291.287.87.87 0 0 0 .418.099zm0-.291a.49.49 0 0 1-.236-.058.43.43 0 0 1-.173-.178.61.61 0 0 1-.066-.297c0-.116.022-.215.066-.296a.43.43 0 0 1 .173-.179.49.49 0 0 1 .236-.058.49.49 0 0 1 .236.058.43.43 0 0 1 .173.179c.044.081.066.179.066.296a.61.61 0 0 1-.066.297.43.43 0 0 1-.173.178.49.49 0 0 1-.236.058zm1.992.271l.611-1.604H15l-.454 1.261-.46-1.261h-.355l.611 1.604h.402zm1.569.02a.87.87 0 0 0 .364-.074c.109-.05.197-.118.265-.205a.69.69 0 0 0 .134-.3h0-.355a.35.35 0 0 1-.141.224c-.077.056-.17.084-.281.084-.126 0-.232-.04-.317-.119s-.131-.202-.137-.367h0 1.235a.77.77 0 0 0 .012-.143.77.77 0 0 0-.095-.38.68.68 0 0 0-.271-.268c-.117-.065-.255-.098-.412-.098s-.293.033-.412.099-.213.161-.281.285-.102.27-.102.437.034.315.102.44.162.219.281.285.257.099.412.099zm.443-.908h-.911c.008-.155.055-.273.143-.352s.196-.119.326-.119c.082 0 .157.017.226.051s.123.086.163.157.058.159.054.264h0zm.987.888v-.812c0-.163.044-.28.132-.351s.205-.106.351-.106h0 .099v-.361a.66.66 0 0 0-.349.092.62.62 0 0 0-.233.249h0v-.314h-.332v1.604h.332zm1.345.763l.97-2.367h-.37l-.446 1.179-.48-1.179h-.373l.676 1.567-.347.801h.37zm2.396-.743c.124 0 .231-.033.322-.098s.149-.15.176-.255c.017-.049.027-.083.029-.102h0l.384.434h.341l-1.072-1.302a.86.86 0 0 1-.095-.137.29.29 0 0 1-.031-.137c0-.062.021-.115.063-.157s.099-.064.173-.064c.08 0 .142.023.188.07s.069.111.071.192a.5.5 0 0 1 .003.064h0v.032h.314a.65.65 0 0 0-.02-.207c-.023-.124-.08-.227-.17-.309s-.221-.122-.392-.122c-.115 0-.213.022-.296.066s-.145.101-.186.173a.45.45 0 0 0-.063.23c0 .072.013.136.038.194a.79.79 0 0 0 .108.173h0l.038.052h-.02c-.099 0-.189.023-.271.07s-.146.115-.194.204-.071.195-.071.317a.64.64 0 0 0 .079.32c.052.093.126.166.221.218s.206.079.332.079zm.003-.282a.35.35 0 0 1-.246-.092c-.067-.061-.1-.145-.1-.252s.029-.186.087-.243a.31.31 0 0 1 .227-.086c.06 0 .118.015.173.045a.36.36 0 0 1 .134.125c.034.053.051.113.051.179 0 .095-.031.173-.092.233a.32.32 0 0 1-.234.09zm-12.639 4.422c.217 0 .383-.05.498-.15a.51.51 0 0 0 .172-.406c0-.124-.038-.233-.115-.326a.51.51 0 0 0-.301-.178c.111-.027.2-.081.268-.162s.102-.186.102-.316a.47.47 0 0 0-.165-.38c-.11-.092-.267-.138-.473-.138h0-.804v2.056h.818zm-.076-1.171h-.411v-.614h.399c.124 0 .217.027.278.082s.092.129.092.224-.031.173-.092.227-.15.082-.266.082h0zm.009.897h-.419v-.655h.416c.126 0 .224.029.294.087s.105.139.105.242-.034.183-.103.24-.166.086-.293.086h0zm1.628.297c.134 0 .251-.033.352-.098s.172-.157.213-.275h0v.349h.335v-1.604h-.335v.85c0 .163-.04.287-.119.373s-.185.128-.317.128-.229-.039-.303-.118-.111-.191-.111-.336h0v-.897h-.332v.932c0 .223.056.395.169.515s.262.181.448.181zm1.939-.003c.173 0 .31-.042.412-.125a.4.4 0 0 0 .153-.326c0-.109-.027-.195-.08-.258s-.117-.109-.192-.138a2.11 2.11 0 0 0-.293-.084l-.211-.058c-.05-.017-.091-.042-.124-.073a.16.16 0 0 1-.05-.122c0-.068.023-.122.068-.162s.11-.06.194-.06c.101 0 .182.027.243.08a.34.34 0 0 1 .112.211h0 .314a.61.61 0 0 0-.208-.386c-.114-.096-.264-.144-.453-.144-.181 0-.322.042-.424.127a.41.41 0 0 0-.153.33c0 .105.026.188.077.249s.114.105.186.132.167.054.284.082l.215.057c.052.018.096.044.131.077s.052.078.052.134c0 .064-.023.117-.068.159s-.108.063-.188.063c-.111 0-.2-.027-.268-.082s-.107-.125-.116-.213h0-.323c.025.167.099.297.223.39s.285.14.485.14zm1.063-1.901c.064 0 .116-.017.156-.052s.06-.081.06-.137-.02-.103-.06-.14a.22.22 0 0 0-.156-.055c-.064 0-.116.018-.154.055s-.058.083-.058.14.019.102.058.137.09.052.154.052zm.166 1.881v-1.604h-.332v1.604h.332zm.734 0v-.853c0-.163.04-.287.119-.371s.185-.127.317-.127.229.039.303.118.111.19.111.333h0v.9h.332v-.935c0-.223-.056-.395-.169-.515s-.262-.181-.448-.181c-.132 0-.248.033-.349.099a.54.54 0 0 0-.215.28h0v-.352h-.332v1.604h.332zm2.283.02a.87.87 0 0 0 .364-.074c.109-.05.197-.118.265-.205a.69.69 0 0 0 .134-.3h0-.355a.35.35 0 0 1-.141.224c-.077.056-.17.084-.281.084-.126 0-.232-.04-.317-.119s-.131-.202-.137-.367h0 1.235a.77.77 0 0 0 .012-.143.77.77 0 0 0-.095-.38.68.68 0 0 0-.271-.268c-.117-.065-.255-.098-.412-.098s-.293.033-.412.099-.213.161-.281.285-.102.27-.102.437.034.315.102.44.162.219.281.285.257.099.412.099zm.443-.908h-.911c.008-.155.055-.273.143-.352s.196-.119.326-.119c.082 0 .157.017.226.051s.123.086.163.157.058.159.054.264h0zm1.296.908c.173 0 .31-.042.412-.125a.4.4 0 0 0 .153-.326c0-.109-.027-.195-.08-.258s-.117-.109-.192-.138a2.11 2.11 0 0 0-.293-.084l-.211-.058c-.05-.017-.091-.042-.124-.073a.16.16 0 0 1-.05-.122c0-.068.023-.122.068-.162s.11-.06.194-.06c.101 0 .182.027.243.08a.34.34 0 0 1 .112.211h0 .314a.61.61 0 0 0-.208-.386c-.114-.096-.264-.144-.453-.144-.181 0-.322.042-.424.127a.41.41 0 0 0-.153.33c0 .105.026.188.077.249s.114.105.186.132.167.054.284.082l.215.057c.052.018.096.044.131.077s.052.078.052.134c0 .064-.023.117-.068.159s-.108.063-.188.063c-.111 0-.2-.027-.268-.082s-.107-.125-.116-.213h0-.323c.025.167.099.297.223.39s.285.14.485.14zm1.537 0c.173 0 .31-.042.412-.125a.4.4 0 0 0 .153-.326c0-.109-.027-.195-.08-.258s-.117-.109-.192-.138a2.11 2.11 0 0 0-.293-.084l-.211-.058c-.05-.017-.091-.042-.124-.073a.16.16 0 0 1-.05-.122c0-.068.023-.122.068-.162s.11-.06.194-.06c.101 0 .182.027.243.08a.34.34 0 0 1 .112.211h0 .314a.61.61 0 0 0-.208-.386c-.114-.096-.264-.144-.453-.144-.181 0-.322.042-.424.127a.41.41 0 0 0-.153.33c0 .105.026.188.077.249s.114.105.186.132.167.054.284.082l.215.057c.052.018.096.044.131.077s.052.078.052.134c0 .064-.023.117-.068.159s-.108.063-.188.063c-.111 0-.2-.027-.268-.082s-.107-.125-.116-.213h0-.323c.025.167.099.297.223.39s.285.14.485.14zm-11.32 4.139l.157-.446h.868l.157.446h.355l-.754-2.024h-.381l-.757 2.024h.355zm.932-.702h-.681l.341-.961.341.961zm1.185.702v-.853c0-.163.04-.287.119-.371s.185-.127.317-.127.229.039.303.118.111.19.111.333h0v.9h.332v-.935c0-.223-.056-.395-.169-.515s-.262-.181-.448-.181c-.132 0-.248.033-.349.099a.54.54 0 0 0-.215.28h0v-.352h-.332v1.604h.332zm2.213.02c.146 0 .27-.036.373-.108a.58.58 0 0 0 .218-.285h0v.373h.332v-1.604h-.332v.373a.58.58 0 0 0-.218-.285c-.103-.072-.227-.108-.373-.108a.71.71 0 0 0-.374.099c-.11.066-.196.161-.258.285s-.093.27-.093.437.031.315.093.44.148.219.258.285a.71.71 0 0 0 .374.099zm.102-.294c-.148 0-.265-.047-.354-.141s-.132-.224-.132-.389.044-.295.132-.389.206-.141.354-.141a.48.48 0 0 1 .25.066c.074.044.132.106.175.186s.064.173.064.278-.021.2-.064.28-.101.141-.175.185a.48.48 0 0 1-.25.066zm1.552.274v-2.155h-.332v2.155h.332zm.917.763l.97-2.367h-.37l-.446 1.179-.48-1.179h-.373l.676 1.567-.347.801h.37zm1.829-.743c.173 0 .31-.042.412-.125a.4.4 0 0 0 .153-.326c0-.109-.027-.195-.08-.258s-.117-.109-.192-.138a2.11 2.11 0 0 0-.293-.084l-.211-.058c-.05-.017-.091-.042-.124-.073a.16.16 0 0 1-.05-.122c0-.068.023-.122.068-.162s.11-.06.194-.06c.101 0 .182.027.243.08a.34.34 0 0 1 .112.211h0 .314a.61.61 0 0 0-.208-.386c-.114-.096-.264-.144-.453-.144-.181 0-.322.042-.424.127a.41.41 0 0 0-.153.33c0 .105.026.188.077.249s.114.105.186.132.167.054.284.082l.215.057c.052.018.096.044.131.077s.052.078.052.134c0 .064-.023.117-.068.159s-.108.063-.188.063c-.111 0-.2-.027-.268-.082s-.107-.125-.116-.213h0-.323c.025.167.099.297.223.39s.285.14.485.14zm1.063-1.901c.064 0 .116-.017.156-.052s.06-.081.06-.137-.02-.103-.06-.14a.22.22 0 0 0-.156-.055c-.064 0-.116.018-.154.055s-.058.083-.058.14.019.102.058.137.09.052.154.052zm.166 1.881v-1.604h-.332v1.604h.332zm1.042.02c.173 0 .31-.042.412-.125a.4.4 0 0 0 .153-.326c0-.109-.027-.195-.08-.258s-.117-.109-.192-.138a2.11 2.11 0 0 0-.293-.084l-.211-.058c-.05-.017-.091-.042-.124-.073a.16.16 0 0 1-.05-.122c0-.068.023-.122.068-.162s.11-.06.194-.06c.101 0 .182.027.243.08a.34.34 0 0 1 .112.211h0 .314a.61.61 0 0 0-.208-.386c-.114-.096-.264-.144-.453-.144-.181 0-.322.042-.424.127a.41.41 0 0 0-.153.33c0 .105.026.188.077.249s.114.105.186.132.167.054.284.082l.215.057c.052.018.096.044.131.077s.052.078.052.134c0 .064-.023.117-.068.159s-.108.063-.188.063c-.111 0-.2-.027-.268-.082s-.107-.125-.116-.213h0-.323c.025.167.099.297.223.39s.285.14.485.14z"/><path d="M31.891 89.247c.239 0 .431-.072.577-.217s.218-.358.218-.639h0v-1.22h-.332v1.22c0 .182-.04.318-.121.408a.43.43 0 0 1-.336.134c-.146 0-.259-.045-.339-.134s-.121-.225-.121-.408h0v-1.22h-.332v1.22c0 .281.072.495.215.639s.334.217.571.217zm1.514-.02v-.853c0-.163.04-.287.119-.371s.185-.127.317-.127.229.039.303.118.111.19.111.333h0v.9h.332v-.935c0-.223-.056-.395-.169-.515s-.262-.181-.448-.181c-.132 0-.248.033-.349.099a.54.54 0 0 0-.215.28h0v-.352h-.332v1.604h.332zm2.213.02c.146 0 .27-.036.373-.108s.175-.167.215-.285h0v.373h.335v-2.155h-.335v.923c-.041-.118-.113-.214-.215-.285s-.227-.108-.373-.108a.71.71 0 0 0-.374.099c-.11.066-.196.161-.258.285s-.093.27-.093.437.031.315.093.44.148.219.258.285a.71.71 0 0 0 .374.099zm.102-.294c-.148 0-.265-.047-.354-.141s-.132-.224-.132-.389.044-.295.132-.389.206-.141.354-.141a.48.48 0 0 1 .25.066c.074.044.132.106.175.186s.064.173.064.278-.021.2-.064.28-.101.141-.175.185a.48.48 0 0 1-.25.066zm1.933.294a.87.87 0 0 0 .364-.074c.109-.05.197-.118.265-.205a.69.69 0 0 0 .134-.3h0-.355a.35.35 0 0 1-.141.224c-.077.056-.17.084-.281.084-.126 0-.232-.04-.317-.119s-.131-.202-.137-.367h0 1.235a.77.77 0 0 0 .012-.143.77.77 0 0 0-.095-.38.68.68 0 0 0-.271-.268c-.117-.065-.255-.098-.412-.098s-.293.033-.412.099-.213.161-.281.285-.102.27-.102.437.034.315.102.44.162.219.281.285.257.099.412.099zm.443-.908h-.911c.008-.155.055-.273.143-.352s.196-.119.326-.119c.082 0 .157.017.226.051s.123.086.163.157.058.159.054.264h0zm.987.888v-.812c0-.163.044-.28.132-.351s.205-.106.351-.106h0 .099v-.361a.66.66 0 0 0-.349.092.62.62 0 0 0-.233.249h0v-.314h-.332v1.604h.332zm1.47.02c.173 0 .31-.042.412-.125a.4.4 0 0 0 .153-.326c0-.109-.027-.195-.08-.258s-.117-.109-.192-.138a2.11 2.11 0 0 0-.293-.084l-.211-.058c-.05-.017-.091-.042-.124-.073a.16.16 0 0 1-.05-.122c0-.068.023-.122.068-.162s.11-.06.194-.06c.101 0 .182.027.243.08a.34.34 0 0 1 .112.211h0 .314a.61.61 0 0 0-.208-.386c-.114-.096-.264-.144-.453-.144-.181 0-.322.042-.424.127a.41.41 0 0 0-.153.33c0 .105.026.188.077.249s.114.105.186.132.167.054.284.082l.215.057c.052.018.096.044.131.077s.052.078.052.134c0 .064-.023.117-.068.159s-.108.063-.188.063c-.111 0-.2-.027-.268-.082s-.107-.125-.116-.213h0-.323c.025.167.099.297.223.39s.285.14.485.14zm1.703-.02v-.288h-.16c-.085 0-.145-.017-.179-.052s-.051-.098-.051-.189h0v-.792h.387v-.282h-.387v-.399h-.335v.399h-.23v.282h.23v.786c0 .192.044.33.132.412s.218.124.389.124h0 .204zm.955.02c.146 0 .27-.036.373-.108a.58.58 0 0 0 .218-.285h0v.373h.332v-1.604h-.332v.373a.58.58 0 0 0-.218-.285c-.103-.072-.227-.108-.373-.108a.71.71 0 0 0-.374.099c-.11.066-.196.161-.258.285s-.093.27-.093.437.031.315.093.44.148.219.258.285a.71.71 0 0 0 .374.099zm.102-.294c-.148 0-.265-.047-.354-.141s-.132-.224-.132-.389.044-.295.132-.389.206-.141.354-.141a.48.48 0 0 1 .25.066c.074.044.132.106.175.186s.064.173.064.278-.021.2-.064.28-.101.141-.175.185a.48.48 0 0 1-.25.066zm1.552.274v-.853c0-.163.04-.287.119-.371s.185-.127.317-.127.229.039.303.118.111.19.111.333h0v.9h.332v-.935c0-.223-.056-.395-.169-.515s-.262-.181-.448-.181c-.132 0-.248.033-.349.099a.54.54 0 0 0-.215.28h0v-.352h-.332v1.604h.332zm2.213.02c.146 0 .27-.036.373-.108s.175-.167.215-.285h0v.373h.335v-2.155h-.335v.923c-.041-.118-.113-.214-.215-.285s-.227-.108-.373-.108a.71.71 0 0 0-.374.099c-.11.066-.196.161-.258.285s-.093.27-.093.437.031.315.093.44.148.219.258.285a.71.71 0 0 0 .374.099zm.102-.294c-.148 0-.265-.047-.354-.141s-.132-.224-.132-.389.044-.295.132-.389.206-.141.354-.141a.48.48 0 0 1 .25.066c.074.044.132.106.175.186s.064.173.064.278-.021.2-.064.28-.101.141-.175.185a.48.48 0 0 1-.25.066zm1.386-1.607c.064 0 .116-.017.156-.052s.06-.081.06-.137-.02-.103-.06-.14a.22.22 0 0 0-.156-.055c-.064 0-.116.018-.154.055s-.058.083-.058.14.019.102.058.137.09.052.154.052zm.166 1.881v-1.604h-.332v1.604h.332zm.734 0v-.853c0-.163.04-.287.119-.371s.185-.127.317-.127.229.039.303.118.111.19.111.333h0v.9h.332v-.935c0-.223-.056-.395-.169-.515s-.262-.181-.448-.181c-.132 0-.248.033-.349.099a.54.54 0 0 0-.215.28h0v-.352h-.332v1.604h.332zm2.373.786c.157 0 .293-.033.408-.099a.67.67 0 0 0 .264-.272c.061-.116.092-.248.092-.397h0v-1.622h-.332v.373a.58.58 0 0 0-.218-.285c-.103-.072-.227-.108-.373-.108a.71.71 0 0 0-.374.099c-.11.066-.196.161-.258.285s-.093.27-.093.437.031.315.093.44.148.219.258.285a.71.71 0 0 0 .374.099c.146 0 .27-.036.373-.108a.58.58 0 0 0 .218-.285h0v.39c0 .155-.043.274-.128.355s-.194.122-.326.122c-.12 0-.219-.027-.297-.08a.39.39 0 0 1-.157-.223h0-.329a.69.69 0 0 0 .261.434c.139.107.321.16.546.16zm-.058-1.06c-.148 0-.265-.047-.354-.141s-.132-.224-.132-.389.044-.295.132-.389.206-.141.354-.141a.48.48 0 0 1 .25.066c.074.044.132.106.175.186s.064.173.064.278-.021.2-.064.28-.101.141-.175.185a.48.48 0 0 1-.25.066zm-18.866 4.433v-.821h.236l.512.821h.373l-.539-.836c.171-.029.301-.095.392-.198s.135-.235.135-.396c0-.188-.061-.34-.182-.454s-.299-.172-.534-.172h0-.725v2.056h.332zm.367-1.057h-.367v-.713h.367c.138 0 .239.032.304.095a.35.35 0 0 1 .098.264c0 .237-.134.355-.402.355h0zm1.756 1.077a.87.87 0 0 0 .364-.074c.109-.05.197-.118.265-.205a.69.69 0 0 0 .134-.3h0-.355a.35.35 0 0 1-.141.224c-.077.056-.17.084-.281.084-.126 0-.232-.04-.317-.119s-.131-.202-.137-.367h0 1.235a.77.77 0 0 0 .012-.143.77.77 0 0 0-.095-.38.68.68 0 0 0-.271-.268c-.117-.065-.255-.098-.412-.098s-.293.033-.412.099-.213.161-.281.285-.102.27-.102.437.034.315.102.44.162.219.281.285.257.099.412.099zm.443-.908h-.911c.008-.155.055-.273.143-.352s.196-.119.326-.119c.082 0 .157.017.226.051s.123.086.163.157.058.159.054.264h0zm2.222 1.651v-2.367h-.332v.335c-.049-.111-.121-.197-.218-.259s-.214-.093-.349-.093-.267.034-.381.103a.72.72 0 0 0-.269.29c-.065.124-.098.268-.098.431s.033.306.098.429a.71.71 0 0 0 .269.287c.115.068.242.102.381.102a.6.6 0 0 0 .347-.099.62.62 0 0 0 .221-.274h0v1.115h.332zm-.821-1.037c-.144 0-.261-.046-.351-.137s-.135-.22-.135-.387.046-.297.137-.392.208-.141.349-.141a.49.49 0 0 1 .245.063c.074.042.133.102.178.182s.067.174.067.282-.022.206-.067.285-.104.14-.178.182a.49.49 0 0 1-.245.063zm1.8.297c.134 0 .251-.033.352-.098s.172-.157.213-.275h0v.349h.335v-1.604h-.335v.85c0 .163-.04.287-.119.373s-.185.128-.317.128-.229-.039-.303-.118-.111-.191-.111-.336h0v-.897h-.332v.932c0 .223.056.395.169.515s.262.181.448.181zm1.465-1.904c.064 0 .116-.017.156-.052s.06-.081.06-.137-.02-.103-.06-.14a.22.22 0 0 0-.156-.055c-.064 0-.116.018-.154.055s-.058.083-.058.14.019.102.058.137.09.052.154.052zm.166 1.881v-1.604h-.332v1.604h.332zm.734 0v-.812c0-.163.044-.28.132-.351s.205-.106.351-.106h0 .099v-.361a.66.66 0 0 0-.349.092.62.62 0 0 0-.233.249h0v-.314h-.332v1.604h.332zm1.543.02a.87.87 0 0 0 .364-.074c.109-.05.197-.118.265-.205a.69.69 0 0 0 .134-.3h0-.355a.35.35 0 0 1-.141.224c-.077.056-.17.084-.281.084-.126 0-.232-.04-.317-.119s-.131-.202-.137-.367h0 1.235a.77.77 0 0 0 .012-.143.77.77 0 0 0-.095-.38.68.68 0 0 0-.271-.268c-.117-.065-.255-.098-.412-.098s-.293.033-.412.099-.213.161-.281.285-.102.27-.102.437.034.315.102.44.162.219.281.285.257.099.412.099zm.443-.908h-.911c.008-.155.055-.273.143-.352s.196-.119.326-.119c.082 0 .157.017.226.051s.123.086.163.157.058.159.054.264h0zm.987-.716h-.332v1.604h.332v-.853c0-.159.038-.28.115-.363s.18-.124.31-.124a.37.37 0 0 1 .288.115c.07.077.105.185.105.325h0v.9h.332v-.853c0-.159.038-.28.115-.363s.18-.124.31-.124a.37.37 0 0 1 .288.115c.07.077.105.185.105.325h0v.9h.332v-.935c0-.223-.057-.395-.17-.515s-.265-.181-.456-.181a.62.62 0 0 0-.349.102.58.58 0 0 0-.224.282.56.56 0 0 0-.214-.285c-.098-.066-.214-.099-.348-.099a.6.6 0 0 0-.335.093.51.51 0 0 0-.204.268h0v-.335zm3.401 1.625a.87.87 0 0 0 .364-.074c.109-.05.197-.118.265-.205a.69.69 0 0 0 .134-.3h0-.355a.35.35 0 0 1-.141.224c-.077.056-.17.084-.281.084-.126 0-.232-.04-.317-.119s-.131-.202-.137-.367h0 1.235a.77.77 0 0 0 .012-.143.77.77 0 0 0-.095-.38.68.68 0 0 0-.271-.268c-.117-.065-.255-.098-.412-.098s-.293.033-.412.099-.213.161-.281.285-.102.27-.102.437.034.315.102.44.162.219.281.285.257.099.412.099zm.443-.908h-.911c.008-.155.055-.273.143-.352s.196-.119.326-.119c.082 0 .157.017.226.051s.123.086.163.157.058.159.054.264h0zm.987.888v-.853c0-.163.04-.287.119-.371s.185-.127.317-.127.229.039.303.118.111.19.111.333h0v.9h.332v-.935c0-.223-.056-.395-.169-.515s-.262-.181-.448-.181c-.132 0-.248.033-.349.099a.54.54 0 0 0-.215.28h0v-.352h-.332v1.604h.332zm2.376 0v-.288h-.16c-.085 0-.145-.017-.179-.052s-.051-.098-.051-.189h0v-.792h.387v-.282h-.387v-.399h-.335v.399h-.23v.282h.23v.786c0 .192.044.33.132.412s.218.124.389.124h0 .204z"/><path d="M58.762 81.739a1.23 1.23 0 0 0 .581-.128c.162-.085.285-.205.37-.36s.127-.335.127-.543-.042-.388-.127-.542a.87.87 0 0 0-.37-.357c-.162-.084-.356-.127-.581-.127h0-.687v2.056h.687zm-.026-.3h-.329v-1.462h.329c.247 0 .436.064.568.192s.198.308.198.539-.066.411-.198.539-.321.192-.568.192h0zm2.172.32a.88.88 0 0 0 .419-.099.71.71 0 0 0 .291-.285c.07-.124.105-.271.105-.44s-.035-.313-.105-.437a.71.71 0 0 0-.291-.285.88.88 0 0 0-.419-.099.87.87 0 0 0-.418.099.72.72 0 0 0-.291.285c-.071.124-.106.27-.106.437s.035.313.106.438a.72.72 0 0 0 .291.287.87.87 0 0 0 .418.099zm0-.291a.49.49 0 0 1-.236-.058.43.43 0 0 1-.173-.178.61.61 0 0 1-.066-.297c0-.116.022-.215.066-.296a.43.43 0 0 1 .173-.179.49.49 0 0 1 .236-.058.49.49 0 0 1 .236.058.43.43 0 0 1 .173.179c.044.081.066.179.066.296a.61.61 0 0 1-.066.297.43.43 0 0 1-.173.178.49.49 0 0 1-.236.058zm1.849.291a.79.79 0 0 0 .515-.166c.136-.111.22-.26.253-.448h0-.352c-.019.101-.066.181-.141.239s-.168.087-.281.087a.42.42 0 0 1-.32-.137c-.085-.091-.128-.224-.128-.399s.043-.307.128-.397.192-.135.32-.135c.113 0 .206.029.281.086s.122.136.141.237h0 .352a.71.71 0 0 0-.253-.447c-.136-.11-.308-.165-.515-.165-.155 0-.293.033-.412.099s-.213.161-.281.285-.102.27-.102.437.034.315.102.44.162.219.281.285.257.099.412.099zm1.668.003c.134 0 .251-.033.352-.098s.172-.157.213-.275h0v.349h.335v-1.604h-.335v.85c0 .163-.04.287-.119.373s-.185.128-.317.128-.229-.039-.303-.118-.111-.191-.111-.336h0v-.897h-.332v.932c0 .223.056.395.169.515s.262.181.448.181zm1.631-1.628h-.332v1.604h.332v-.853c0-.159.038-.28.115-.363s.18-.124.31-.124a.37.37 0 0 1 .288.115c.07.077.105.185.105.325h0v.9h.332v-.853c0-.159.038-.28.115-.363s.18-.124.31-.124a.37.37 0 0 1 .288.115c.07.077.105.185.105.325h0v.9h.332v-.935c0-.223-.057-.395-.17-.515s-.265-.181-.456-.181a.62.62 0 0 0-.349.102.58.58 0 0 0-.224.282.56.56 0 0 0-.214-.285c-.098-.066-.214-.099-.348-.099a.6.6 0 0 0-.335.093.51.51 0 0 0-.204.268h0v-.335zm3.401 1.625a.87.87 0 0 0 .364-.074c.109-.05.197-.118.265-.205a.69.69 0 0 0 .134-.3h0-.355a.35.35 0 0 1-.141.224c-.077.056-.17.084-.281.084-.126 0-.232-.04-.317-.119s-.131-.202-.137-.367h0 1.235a.77.77 0 0 0 .012-.143.77.77 0 0 0-.095-.38.68.68 0 0 0-.271-.268c-.117-.065-.255-.098-.412-.098s-.293.033-.412.099-.213.161-.281.285-.102.27-.102.437.034.315.102.44.162.219.281.285.257.099.412.099zm.443-.908h-.911c.008-.155.055-.273.143-.352s.196-.119.326-.119c.082 0 .157.017.226.051s.123.086.163.157.058.159.054.264h0zm.987.888v-.853c0-.163.04-.287.119-.371s.185-.127.317-.127.229.039.303.118.111.19.111.333h0v.9h.332v-.935c0-.223-.056-.395-.169-.515s-.262-.181-.448-.181c-.132 0-.248.033-.349.099a.54.54 0 0 0-.215.28h0v-.352h-.332v1.604h.332zm2.376 0v-.288h-.16c-.085 0-.145-.017-.179-.052s-.051-.098-.051-.189h0v-.792h.387v-.282h-.387v-.399h-.335v.399h-.23v.282h.23v.786c0 .192.044.33.132.412s.218.124.389.124h0 .204zm.955.02c.146 0 .27-.036.373-.108a.58.58 0 0 0 .218-.285h0v.373h.332v-1.604h-.332v.373a.58.58 0 0 0-.218-.285c-.103-.072-.227-.108-.373-.108a.71.71 0 0 0-.374.099c-.11.066-.196.161-.258.285s-.093.27-.093.437.031.315.093.44.148.219.258.285a.71.71 0 0 0 .374.099zm.102-.294c-.148 0-.265-.047-.354-.141s-.132-.224-.132-.389.044-.295.132-.389.206-.141.354-.141a.48.48 0 0 1 .25.066c.074.044.132.106.175.186s.064.173.064.278-.021.2-.064.28-.101.141-.175.185a.48.48 0 0 1-.25.066zm2.027.274v-.288h-.16c-.085 0-.145-.017-.179-.052s-.051-.098-.051-.189h0v-.792h.387v-.282h-.387v-.399h-.335v.399h-.23v.282h.23v.786c0 .192.044.33.132.412s.218.124.389.124h0 .204zm.478-1.881c.064 0 .116-.017.156-.052s.06-.081.06-.137-.02-.103-.06-.14a.22.22 0 0 0-.156-.055c-.064 0-.116.018-.154.055s-.058.083-.058.14.019.102.058.137.09.052.154.052zm.166 1.881v-1.604h-.332v1.604h.332zm1.136.02a.88.88 0 0 0 .419-.099.71.71 0 0 0 .291-.285c.07-.124.105-.271.105-.44s-.035-.313-.105-.437a.71.71 0 0 0-.291-.285.88.88 0 0 0-.419-.099.87.87 0 0 0-.418.099.72.72 0 0 0-.291.285c-.071.124-.106.27-.106.437s.035.313.106.438a.72.72 0 0 0 .291.287.87.87 0 0 0 .418.099zm0-.291a.49.49 0 0 1-.236-.058.43.43 0 0 1-.173-.178.61.61 0 0 1-.066-.297c0-.116.022-.215.066-.296a.43.43 0 0 1 .173-.179.49.49 0 0 1 .236-.058.49.49 0 0 1 .236.058.43.43 0 0 1 .173.179c.044.081.066.179.066.296a.61.61 0 0 1-.066.297.43.43 0 0 1-.173.178.49.49 0 0 1-.236.058zm1.468.271v-.853c0-.163.04-.287.119-.371s.185-.127.317-.127.229.039.303.118.111.19.111.333h0v.9h.332v-.935c0-.223-.056-.395-.169-.515s-.262-.181-.448-.181c-.132 0-.248.033-.349.099a.54.54 0 0 0-.215.28h0v-.352h-.332v1.604h.332zm-15.319 4.18c.124 0 .231-.033.322-.098s.149-.15.176-.255c.017-.049.027-.083.029-.102h0l.384.434h.341l-1.072-1.302a.86.86 0 0 1-.095-.137.29.29 0 0 1-.031-.137c0-.062.021-.115.063-.157s.099-.064.173-.064c.08 0 .142.023.188.07s.069.111.071.192a.5.5 0 0 1 .003.064h0v.032h.314a.65.65 0 0 0-.02-.207c-.023-.124-.08-.227-.17-.309s-.221-.122-.392-.122c-.115 0-.213.022-.296.066s-.145.101-.186.173a.45.45 0 0 0-.063.23c0 .072.013.136.038.194a.79.79 0 0 0 .108.173h0l.038.052h-.02c-.099 0-.189.023-.271.07s-.146.115-.194.204-.071.195-.071.317a.64.64 0 0 0 .079.32c.052.093.126.166.221.218s.206.079.332.079zm.003-.282a.35.35 0 0 1-.246-.092c-.067-.061-.1-.145-.1-.252s.029-.186.087-.243a.31.31 0 0 1 .227-.086c.06 0 .118.015.173.045a.36.36 0 0 1 .134.125c.034.053.051.113.051.179 0 .095-.031.173-.092.233a.32.32 0 0 1-.234.09zm3.063.28c.252 0 .462-.064.629-.191a.93.93 0 0 0 .338-.52h0-.352a.63.63 0 0 1-.231.293.67.67 0 0 1-.389.109c-.122 0-.231-.03-.328-.09a.62.62 0 0 1-.227-.258c-.055-.112-.083-.241-.083-.389s.028-.28.083-.392a.62.62 0 0 1 .227-.258c.096-.06.205-.09.328-.09a.67.67 0 0 1 .389.109c.106.073.183.171.231.296h0 .352a.94.94 0 0 0-.338-.521c-.167-.128-.377-.192-.629-.192-.194 0-.366.045-.515.134s-.265.213-.347.371a1.17 1.17 0 0 0-.122.543 1.17 1.17 0 0 0 .122.543c.082.158.197.281.347.37s.321.132.515.132zm1.942.003c.146 0 .27-.036.373-.108a.58.58 0 0 0 .218-.285h0v.373h.332v-1.604h-.332v.373a.58.58 0 0 0-.218-.285c-.103-.072-.227-.108-.373-.108a.71.71 0 0 0-.374.099c-.11.066-.196.161-.258.285s-.093.27-.093.437.031.315.093.44.148.219.258.285a.71.71 0 0 0 .374.099zm.102-.294c-.148 0-.265-.047-.354-.141s-.132-.224-.132-.389.044-.295.132-.389.206-.141.354-.141a.48.48 0 0 1 .25.066c.074.044.132.106.175.186s.064.173.064.278-.021.2-.064.28-.101.141-.175.185a.48.48 0 0 1-.25.066zm1.861.294c.173 0 .31-.042.412-.125a.4.4 0 0 0 .153-.326c0-.109-.027-.195-.08-.258s-.117-.109-.192-.138a2.11 2.11 0 0 0-.293-.084l-.211-.058c-.05-.017-.091-.042-.124-.073a.16.16 0 0 1-.05-.122c0-.068.023-.122.068-.162s.11-.06.194-.06c.101 0 .182.027.243.08a.34.34 0 0 1 .112.211h0 .314a.61.61 0 0 0-.208-.386c-.114-.096-.264-.144-.453-.144-.181 0-.322.042-.424.127a.41.41 0 0 0-.153.33c0 .105.026.188.077.249s.114.105.186.132.167.054.284.082l.215.057c.052.018.096.044.131.077s.052.078.052.134c0 .064-.023.117-.068.159s-.108.063-.188.063c-.111 0-.2-.027-.268-.082s-.107-.125-.116-.213h0-.323c.025.167.099.297.223.39s.285.14.485.14zm1.61 0a.87.87 0 0 0 .364-.074c.109-.05.197-.118.265-.205a.69.69 0 0 0 .134-.3h0-.355a.35.35 0 0 1-.141.224c-.077.056-.17.084-.281.084-.126 0-.232-.04-.317-.119s-.131-.202-.137-.367h0 1.235a.77.77 0 0 0 .012-.143.77.77 0 0 0-.095-.38.68.68 0 0 0-.271-.268c-.117-.065-.255-.098-.412-.098s-.293.033-.412.099-.213.161-.281.285-.102.27-.102.437.034.315.102.44.162.219.281.285.257.099.412.099zm.443-.908h-.911c.008-.155.055-.273.143-.352s.196-.119.326-.119c.082 0 .157.017.226.051s.123.086.163.157.058.159.054.264h0zm1.296.908c.173 0 .31-.042.412-.125a.4.4 0 0 0 .153-.326c0-.109-.027-.195-.08-.258s-.117-.109-.192-.138a2.11 2.11 0 0 0-.293-.084l-.211-.058c-.05-.017-.091-.042-.124-.073a.16.16 0 0 1-.05-.122c0-.068.023-.122.068-.162s.11-.06.194-.06c.101 0 .182.027.243.08a.34.34 0 0 1 .112.211h0 .314a.61.61 0 0 0-.208-.386c-.114-.096-.264-.144-.453-.144-.181 0-.322.042-.424.127a.41.41 0 0 0-.153.33c0 .105.026.188.077.249s.114.105.186.132.167.054.284.082l.215.057c.052.018.096.044.131.077s.052.078.052.134c0 .064-.023.117-.068.159s-.108.063-.188.063c-.111 0-.2-.027-.268-.082s-.107-.125-.116-.213h0-.323c.025.167.099.297.223.39s.285.14.485.14z"/><path d="M89.407 74.251v-.923h.967v.923h.335v-2.056h-.335v.862h-.967v-.862h-.332v2.056h.332zm1.869-1.881c.064 0 .116-.017.156-.052s.06-.081.06-.137-.02-.103-.06-.14a.22.22 0 0 0-.156-.055c-.064 0-.116.018-.154.055s-.058.083-.058.14.019.102.058.137.09.052.154.052zm.166 1.881v-1.604h-.332v1.604h.332zm.734 0v-.812c0-.163.044-.28.132-.351s.205-.106.351-.106h0 .099v-.361a.66.66 0 0 0-.349.092.62.62 0 0 0-.233.249h0v-.314h-.332v1.604h.332zm1.543.02a.87.87 0 0 0 .364-.074c.109-.05.197-.118.265-.205a.69.69 0 0 0 .134-.3h0-.355a.35.35 0 0 1-.141.224c-.077.056-.17.084-.281.084-.126 0-.232-.04-.317-.119s-.131-.202-.137-.367h0 1.235a.77.77 0 0 0 .012-.143.77.77 0 0 0-.095-.38.68.68 0 0 0-.271-.268c-.117-.065-.255-.098-.412-.098s-.293.033-.412.099-.213.161-.281.285-.102.27-.102.437.034.315.102.44.162.219.281.285.257.099.412.099zm.443-.908h-.911c.008-.155.055-.273.143-.352s.196-.119.326-.119c.082 0 .157.017.226.051s.123.086.163.157.058.159.054.264h0zm1.668.888v-.798h.367c.231 0 .408-.056.53-.167a.59.59 0 0 0 .183-.459c0-.196-.06-.35-.179-.463s-.297-.169-.534-.169h0-.699v2.056h.332zm.332-1.069h-.332v-.713h.332c.144 0 .248.031.313.092s.098.15.098.266c0 .237-.137.355-.411.355h0zm1.555 1.832l.97-2.367h-.37l-.446 1.179-.48-1.179h-.373l.676 1.567-.347.801h.37zm1.995-.763v-.288h-.16c-.085 0-.145-.017-.179-.052s-.051-.098-.051-.189h0v-.792h.387v-.282h-.387v-.399h-.335v.399h-.23v.282h.23v.786c0 .192.044.33.132.412s.218.124.389.124h0 .204zm.644 0v-.853c0-.163.04-.287.119-.371s.185-.127.317-.127.229.039.303.118.111.19.111.333h0v.9h.332v-.935c0-.223-.056-.395-.169-.515s-.262-.181-.448-.181c-.132 0-.248.033-.349.099a.54.54 0 0 0-.215.28h0v-.903h-.332v2.155h.332zm2.303.02a.88.88 0 0 0 .419-.099.71.71 0 0 0 .291-.285c.07-.124.105-.271.105-.44s-.035-.313-.105-.437a.71.71 0 0 0-.291-.285.88.88 0 0 0-.419-.099.87.87 0 0 0-.418.099.72.72 0 0 0-.291.285c-.071.124-.106.27-.106.437s.035.313.106.438a.72.72 0 0 0 .291.287.87.87 0 0 0 .418.099zm0-.291a.49.49 0 0 1-.236-.058.43.43 0 0 1-.173-.178.61.61 0 0 1-.066-.297c0-.116.022-.215.066-.296a.43.43 0 0 1 .173-.179.49.49 0 0 1 .236-.058.49.49 0 0 1 .236.058.43.43 0 0 1 .173.179c.044.081.066.179.066.296a.61.61 0 0 1-.066.297.43.43 0 0 1-.173.178.49.49 0 0 1-.236.058zm1.468.271v-.853c0-.163.04-.287.119-.371s.185-.127.317-.127.229.039.303.118.111.19.111.333h0v.9h.332v-.935c0-.223-.056-.395-.169-.515s-.262-.181-.448-.181c-.132 0-.248.033-.349.099a.54.54 0 0 0-.215.28h0v-.352h-.332v1.604h.332zm-14.31 4.16a1.23 1.23 0 0 0 .581-.128c.162-.085.285-.205.37-.36s.127-.335.127-.543-.042-.388-.127-.542a.87.87 0 0 0-.37-.357c-.162-.084-.356-.127-.581-.127h0-.687v2.056h.687zm-.026-.3h-.329v-1.462h.329c.247 0 .436.064.568.192s.198.308.198.539-.066.411-.198.539-.321.192-.568.192h0zm2.152.32a.87.87 0 0 0 .364-.074c.109-.05.197-.118.265-.205a.69.69 0 0 0 .134-.3h0-.355a.35.35 0 0 1-.141.224c-.077.056-.17.084-.281.084-.126 0-.232-.04-.317-.119s-.131-.202-.137-.367h0 1.235a.77.77 0 0 0 .012-.143.77.77 0 0 0-.095-.38.68.68 0 0 0-.271-.268c-.117-.065-.255-.098-.412-.098s-.293.033-.412.099-.213.161-.281.285-.102.27-.102.437.034.315.102.44.162.219.281.285.257.099.412.099zm.443-.908h-.911c.008-.155.055-.273.143-.352s.196-.119.326-.119c.082 0 .157.017.226.051s.123.086.163.157.058.159.054.264h0zm1.511.888l.611-1.604h-.355l-.454 1.261-.46-1.261h-.355l.611 1.604h.402zm1.569.02a.87.87 0 0 0 .364-.074c.109-.05.197-.118.265-.205a.69.69 0 0 0 .134-.3h0-.355a.35.35 0 0 1-.141.224c-.077.056-.17.084-.281.084-.126 0-.232-.04-.317-.119s-.131-.202-.137-.367h0 1.235a.77.77 0 0 0 .012-.143.77.77 0 0 0-.095-.38.68.68 0 0 0-.271-.268c-.117-.065-.255-.098-.412-.098s-.293.033-.412.099-.213.161-.281.285-.102.27-.102.437.034.315.102.44.162.219.281.285.257.099.412.099zm.443-.908h-.911c.008-.155.055-.273.143-.352s.196-.119.326-.119c.082 0 .157.017.226.051s.123.086.163.157.058.159.054.264h0zm.987.888v-2.155h-.332v2.155h.332zm1.136.02a.88.88 0 0 0 .419-.099.71.71 0 0 0 .291-.285c.07-.124.105-.271.105-.44s-.035-.313-.105-.437a.71.71 0 0 0-.291-.285.88.88 0 0 0-.419-.099.87.87 0 0 0-.418.099.72.72 0 0 0-.291.285c-.071.124-.106.27-.106.437s.035.313.106.438a.72.72 0 0 0 .291.287.87.87 0 0 0 .418.099zm0-.291a.49.49 0 0 1-.236-.058.43.43 0 0 1-.173-.178.61.61 0 0 1-.066-.297c0-.116.022-.215.066-.296a.43.43 0 0 1 .173-.179.49.49 0 0 1 .236-.058.49.49 0 0 1 .236.058.43.43 0 0 1 .173.179c.044.081.066.179.066.296a.61.61 0 0 1-.066.297.43.43 0 0 1-.173.178.49.49 0 0 1-.236.058zm1.468 1.034v-1.136c.041.118.113.214.215.285s.227.108.373.108a.71.71 0 0 0 .374-.099c.11-.066.196-.161.258-.285s.093-.271.093-.44-.031-.313-.093-.437-.148-.219-.258-.285a.71.71 0 0 0-.374-.099c-.146 0-.27.036-.373.108s-.175.167-.215.285h0v-.373h-.332v2.367h.332zm.486-1.037a.48.48 0 0 1-.25-.066c-.074-.044-.132-.105-.175-.185s-.064-.173-.064-.28.021-.198.064-.278.101-.143.175-.186a.48.48 0 0 1 .25-.066c.148 0 .266.048.355.143s.134.224.134.387-.045.295-.134.389-.208.141-.355.141zm1.861.294a.87.87 0 0 0 .364-.074c.109-.05.197-.118.265-.205a.69.69 0 0 0 .134-.3h0-.355a.35.35 0 0 1-.141.224c-.077.056-.17.084-.281.084-.126 0-.232-.04-.317-.119s-.131-.202-.137-.367h0 1.235a.77.77 0 0 0 .012-.143.77.77 0 0 0-.095-.38.68.68 0 0 0-.271-.268c-.117-.065-.255-.098-.412-.098s-.293.033-.412.099-.213.161-.281.285-.102.27-.102.437.034.315.102.44.162.219.281.285.257.099.412.099zm.443-.908h-.911c.008-.155.055-.273.143-.352s.196-.119.326-.119c.082 0 .157.017.226.051s.123.086.163.157.058.159.054.264h0zm.987.888v-.812c0-.163.044-.28.132-.351s.205-.106.351-.106h0 .099v-.361a.66.66 0 0 0-.349.092.62.62 0 0 0-.233.249h0v-.314h-.332v1.604h.332zm1.47.02c.173 0 .31-.042.412-.125a.4.4 0 0 0 .153-.326c0-.109-.027-.195-.08-.258s-.117-.109-.192-.138a2.11 2.11 0 0 0-.293-.084l-.211-.058c-.05-.017-.091-.042-.124-.073a.16.16 0 0 1-.05-.122c0-.068.023-.122.068-.162s.11-.06.194-.06c.101 0 .182.027.243.08a.34.34 0 0 1 .112.211h0 .314a.61.61 0 0 0-.208-.386c-.114-.096-.264-.144-.453-.144-.181 0-.322.042-.424.127a.41.41 0 0 0-.153.33c0 .105.026.188.077.249s.114.105.186.132.167.054.284.082l.215.057c.052.018.096.044.131.077s.052.078.052.134c0 .064-.023.117-.068.159s-.108.063-.188.063c-.111 0-.2-.027-.268-.082s-.107-.125-.116-.213h0-.323c.025.167.099.297.223.39s.285.14.485.14zm-12.163 4.16c.146 0 .27-.036.373-.108a.58.58 0 0 0 .218-.285h0v.373h.332v-1.604h-.332v.373a.58.58 0 0 0-.218-.285c-.103-.072-.227-.108-.373-.108a.71.71 0 0 0-.374.099c-.11.066-.196.161-.258.285s-.093.27-.093.437.031.315.093.44.148.219.258.285a.71.71 0 0 0 .374.099zm.102-.294c-.148 0-.265-.047-.354-.141s-.132-.224-.132-.389.044-.295.132-.389.206-.141.354-.141a.48.48 0 0 1 .25.066c.074.044.132.106.175.186s.064.173.064.278-.021.2-.064.28-.101.141-.175.185a.48.48 0 0 1-.25.066zm2.14.294a.71.71 0 0 0 .374-.099c.11-.066.196-.161.258-.285s.093-.271.093-.44-.031-.313-.093-.437-.148-.219-.258-.285a.71.71 0 0 0-.374-.099c-.146 0-.27.036-.373.108s-.175.167-.215.285h0v-.923h-.332v2.155h.332v-.373c.041.118.113.214.215.285s.227.108.373.108zm-.102-.294a.48.48 0 0 1-.25-.066c-.074-.044-.132-.105-.175-.185s-.064-.173-.064-.28.021-.198.064-.278.101-.143.175-.186a.48.48 0 0 1 .25-.066c.148 0 .266.048.355.143s.134.224.134.387-.045.295-.134.389-.208.141-.355.141zm1.881.294a.88.88 0 0 0 .419-.099.71.71 0 0 0 .291-.285c.07-.124.105-.271.105-.44s-.035-.313-.105-.437a.71.71 0 0 0-.291-.285.88.88 0 0 0-.419-.099.87.87 0 0 0-.418.099.72.72 0 0 0-.291.285c-.071.124-.106.27-.106.437s.035.313.106.438a.72.72 0 0 0 .291.287.87.87 0 0 0 .418.099zm0-.291a.49.49 0 0 1-.236-.058.43.43 0 0 1-.173-.178.61.61 0 0 1-.066-.297c0-.116.022-.215.066-.296a.43.43 0 0 1 .173-.179.49.49 0 0 1 .236-.058.49.49 0 0 1 .236.058.43.43 0 0 1 .173.179c.044.081.066.179.066.296a.61.61 0 0 1-.066.297.43.43 0 0 1-.173.178.49.49 0 0 1-.236.058zm1.779.291c.146 0 .27-.036.373-.108a.58.58 0 0 0 .218-.285h0v.373h.332v-1.604h-.332v.373a.58.58 0 0 0-.218-.285c-.103-.072-.227-.108-.373-.108a.71.71 0 0 0-.374.099c-.11.066-.196.161-.258.285s-.093.27-.093.437.031.315.093.44.148.219.258.285a.71.71 0 0 0 .374.099zm.102-.294c-.148 0-.265-.047-.354-.141s-.132-.224-.132-.389.044-.295.132-.389.206-.141.354-.141a.48.48 0 0 1 .25.066c.074.044.132.106.175.186s.064.173.064.278-.021.2-.064.28-.101.141-.175.185a.48.48 0 0 1-.25.066zm1.552.274v-.812c0-.163.044-.28.132-.351s.205-.106.351-.106h0 .099v-.361a.66.66 0 0 0-.349.092.62.62 0 0 0-.233.249h0v-.314h-.332v1.604h.332zm1.473.02c.146 0 .27-.036.373-.108s.175-.167.215-.285h0v.373h.335v-2.155h-.335v.923c-.041-.118-.113-.214-.215-.285s-.227-.108-.373-.108a.71.71 0 0 0-.374.099c-.11.066-.196.161-.258.285s-.093.27-.093.437.031.315.093.44.148.219.258.285a.71.71 0 0 0 .374.099zm.102-.294c-.148 0-.265-.047-.354-.141s-.132-.224-.132-.389.044-.295.132-.389.206-.141.354-.141a.48.48 0 0 1 .25.066c.074.044.132.106.175.186s.064.173.064.278-.021.2-.064.28-.101.141-.175.185a.48.48 0 0 1-.25.066z"/><path d="M120.274 66.764v-.798h.367c.231 0 .408-.056.53-.167a.59.59 0 0 0 .183-.459c0-.196-.06-.35-.179-.463s-.297-.169-.534-.169h0-.699v2.056h.332zm.332-1.069h-.332v-.713h.332c.144 0 .248.031.313.092s.098.15.098.266c0 .237-.137.355-.411.355h0zm1.371 1.069v-.812c0-.163.044-.28.132-.351s.205-.106.351-.106h0 .099v-.361a.66.66 0 0 0-.349.092.62.62 0 0 0-.233.249h0v-.314h-.332v1.604h.332zm1.564.02a.88.88 0 0 0 .419-.099.71.71 0 0 0 .291-.285.88.88 0 0 0 .105-.44.87.87 0 0 0-.105-.437.71.71 0 0 0-.291-.285.88.88 0 0 0-.419-.099.87.87 0 0 0-.418.099.72.72 0 0 0-.291.285c-.071.124-.106.27-.106.437a.87.87 0 0 0 .106.438.72.72 0 0 0 .291.287.87.87 0 0 0 .418.099zm0-.291a.49.49 0 0 1-.236-.058.43.43 0 0 1-.173-.178.61.61 0 0 1-.066-.297c0-.116.022-.215.066-.296a.43.43 0 0 1 .173-.179.49.49 0 0 1 .236-.058.49.49 0 0 1 .236.058.43.43 0 0 1 .173.179.61.61 0 0 1 .066.296.61.61 0 0 1-.066.297.43.43 0 0 1-.173.178.49.49 0 0 1-.236.058zm1.316-1.61c.064 0 .116-.017.154-.052s.058-.081.058-.137-.019-.103-.058-.14-.09-.055-.154-.055a.22.22 0 0 0-.156.055c-.04.037-.06.083-.06.14s.02.102.06.137.092.052.156.052zm-.309 2.644c.318 0 .478-.158.478-.475h0v-1.893h-.335v1.89c0 .068-.015.116-.045.144s-.077.042-.141.042h0-.114v.291h.157zm1.587-.743a.87.87 0 0 0 .364-.074.7.7 0 0 0 .265-.205.69.69 0 0 0 .134-.3h0-.355a.35.35 0 0 1-.141.224c-.077.056-.17.084-.281.084a.45.45 0 0 1-.317-.119c-.085-.079-.131-.202-.137-.367h0 1.235a.77.77 0 0 0 .012-.143.77.77 0 0 0-.095-.38.68.68 0 0 0-.271-.268c-.117-.065-.255-.098-.412-.098a.83.83 0 0 0-.412.099c-.119.066-.213.161-.281.285s-.102.27-.102.437a.91.91 0 0 0 .102.44.7.7 0 0 0 .281.285c.119.066.257.099.412.099zm.443-.908h-.911c.008-.155.055-.273.143-.352a.47.47 0 0 1 .326-.119c.082 0 .157.017.226.051s.123.086.163.157.058.159.054.264h0zm1.369.908a.79.79 0 0 0 .515-.166c.136-.111.22-.26.253-.448h0-.352a.38.38 0 0 1-.141.239c-.075.058-.168.087-.281.087a.42.42 0 0 1-.32-.137c-.085-.091-.128-.224-.128-.399s.043-.307.128-.397.192-.135.32-.135a.45.45 0 0 1 .281.086c.075.057.122.136.141.237h0 .352a.71.71 0 0 0-.253-.447c-.136-.11-.308-.165-.515-.165-.155 0-.293.033-.412.099s-.213.161-.281.285-.102.27-.102.437a.91.91 0 0 0 .102.44.7.7 0 0 0 .281.285c.119.066.257.099.412.099zm1.896-.02v-.288h-.16c-.085 0-.145-.017-.179-.052s-.051-.098-.051-.189h0v-.792h.387v-.282h-.387v-.399h-.335v.399h-.23v.282h.23v.786c0 .192.044.33.132.412s.218.124.389.124h0 .204zm-10.865 4.16v-.798h.367c.231 0 .408-.056.53-.167a.59.59 0 0 0 .183-.459c0-.196-.06-.35-.179-.463s-.297-.169-.534-.169h0-.699v2.056h.332zm.332-1.069h-.332v-.713h.332c.144 0 .248.031.313.092s.098.15.098.266c0 .237-.137.355-.411.355h0zm1.371 1.069v-2.155h-.332v2.155h.332zm1.045.02c.146 0 .27-.036.373-.108a.58.58 0 0 0 .218-.285h0v.373h.332V69.32h-.332v.373a.58.58 0 0 0-.218-.285c-.103-.072-.227-.108-.373-.108a.71.71 0 0 0-.374.099c-.11.066-.196.161-.258.285s-.093.27-.093.437.031.315.093.44a.67.67 0 0 0 .258.285.71.71 0 0 0 .374.099zm.102-.294c-.148 0-.265-.047-.354-.141s-.132-.224-.132-.389.044-.295.132-.389.206-.141.354-.141a.48.48 0 0 1 .25.066.47.47 0 0 1 .175.186.58.58 0 0 1 .064.278c0 .105-.021.2-.064.28s-.101.141-.175.185a.48.48 0 0 1-.25.066zm1.552.274v-.853c0-.163.04-.287.119-.371s.185-.127.317-.127.229.039.303.118.111.19.111.333h0v.9h.332v-.935c0-.223-.056-.395-.169-.515s-.262-.181-.448-.181c-.132 0-.248.033-.349.099a.54.54 0 0 0-.215.28h0v-.352h-.332v1.604h.332zm1.901 0v-.853c0-.163.04-.287.119-.371s.185-.127.317-.127.229.039.303.118.111.19.111.333h0v.9h.332v-.935c0-.223-.056-.395-.169-.515s-.262-.181-.448-.181c-.132 0-.248.033-.349.099a.54.54 0 0 0-.215.28h0v-.352h-.332v1.604h.332zm1.735-1.881c.064 0 .116-.017.156-.052s.06-.081.06-.137-.02-.103-.06-.14a.22.22 0 0 0-.156-.055c-.064 0-.116.018-.154.055s-.058.083-.058.14.019.102.058.137.09.052.154.052zm.166 1.881V69.32h-.332v1.604h.332zm.734 0v-.853c0-.163.04-.287.119-.371s.185-.127.317-.127.229.039.303.118.111.19.111.333h0v.9h.332v-.935c0-.223-.056-.395-.169-.515s-.262-.181-.448-.181c-.132 0-.248.033-.349.099a.54.54 0 0 0-.215.28h0v-.352h-.332v1.604h.332zm2.373.786c.157 0 .293-.033.408-.099a.67.67 0 0 0 .264-.272.84.84 0 0 0 .092-.397h0V69.32h-.332v.373a.58.58 0 0 0-.218-.285c-.103-.072-.227-.108-.373-.108a.71.71 0 0 0-.374.099c-.11.066-.196.161-.258.285s-.093.27-.093.437.031.315.093.44a.67.67 0 0 0 .258.285.71.71 0 0 0 .374.099c.146 0 .27-.036.373-.108a.58.58 0 0 0 .218-.285h0v.39c0 .155-.043.274-.128.355s-.194.122-.326.122c-.12 0-.219-.027-.297-.08a.39.39 0 0 1-.157-.223h0-.329a.69.69 0 0 0 .261.434c.139.107.321.16.546.16zm-.058-1.06c-.148 0-.265-.047-.354-.141s-.132-.224-.132-.389.044-.295.132-.389.206-.141.354-.141a.48.48 0 0 1 .25.066.47.47 0 0 1 .175.186.58.58 0 0 1 .064.278c0 .105-.021.2-.064.28s-.101.141-.175.185a.48.48 0 0 1-.25.066zm14.464-11.374v-.798h.367c.231 0 .408-.056.53-.167a.59.59 0 0 0 .183-.459c0-.196-.06-.35-.179-.463s-.297-.169-.534-.169h0-.699v2.056h.332zm.332-1.069h-.332v-.713h.332c.144 0 .248.031.313.092s.098.15.098.266c0 .237-.137.355-.411.355h0zm1.371 1.069v-.812c0-.163.044-.28.132-.351s.205-.106.351-.106h0 .099v-.361a.66.66 0 0 0-.349.092.62.62 0 0 0-.233.249h0v-.314h-.332v1.604h.332zm1.564.02a.88.88 0 0 0 .419-.099.71.71 0 0 0 .291-.285.88.88 0 0 0 .105-.44.87.87 0 0 0-.105-.437.71.71 0 0 0-.291-.285.88.88 0 0 0-.419-.099.87.87 0 0 0-.418.099.72.72 0 0 0-.291.285c-.071.124-.106.27-.106.437a.87.87 0 0 0 .106.438.72.72 0 0 0 .291.287.87.87 0 0 0 .418.099zm0-.291a.49.49 0 0 1-.236-.058.43.43 0 0 1-.173-.178.61.61 0 0 1-.066-.297c0-.116.022-.215.066-.296a.43.43 0 0 1 .173-.179.49.49 0 0 1 .236-.058.49.49 0 0 1 .236.058.43.43 0 0 1 .173.179.61.61 0 0 1 .066.296.61.61 0 0 1-.066.297.43.43 0 0 1-.173.178.49.49 0 0 1-.236.058zm1.942.271v-.288h-.16c-.085 0-.145-.017-.179-.052s-.051-.098-.051-.189h0v-.792h.387v-.282h-.387v-.399h-.335v.399h-.23v.282h.23v.786c0 .192.044.33.132.412s.218.124.389.124h0 .204zm1.045.02a.88.88 0 0 0 .419-.099.71.71 0 0 0 .291-.285.88.88 0 0 0 .105-.44.87.87 0 0 0-.105-.437.71.71 0 0 0-.291-.285.88.88 0 0 0-.419-.099.87.87 0 0 0-.418.099.72.72 0 0 0-.291.285c-.071.124-.106.27-.106.437a.87.87 0 0 0 .106.438.72.72 0 0 0 .291.287.87.87 0 0 0 .418.099zm0-.291a.49.49 0 0 1-.236-.058.43.43 0 0 1-.173-.178.61.61 0 0 1-.066-.297c0-.116.022-.215.066-.296a.43.43 0 0 1 .173-.179.49.49 0 0 1 .236-.058.49.49 0 0 1 .236.058.43.43 0 0 1 .173.179.61.61 0 0 1 .066.296.61.61 0 0 1-.066.297.43.43 0 0 1-.173.178.49.49 0 0 1-.236.058zm1.942.271v-.288h-.16c-.085 0-.145-.017-.179-.052s-.051-.098-.051-.189h0v-.792h.387v-.282h-.387v-.399h-.335v.399h-.23v.282h.23v.786c0 .192.044.33.132.412s.218.124.389.124h0 .204zm.827.763l.97-2.367h-.37l-.446 1.179-.48-1.179h-.373l.676 1.567-.347.801h.37zm1.52 0v-1.136c.041.118.113.214.215.285a.64.64 0 0 0 .373.108.71.71 0 0 0 .374-.099c.11-.066.196-.161.258-.285s.093-.271.093-.44a.96.96 0 0 0-.093-.437c-.062-.124-.148-.219-.258-.285a.71.71 0 0 0-.374-.099c-.146 0-.27.036-.373.108a.56.56 0 0 0-.215.285h0v-.373h-.332v2.367h.332zm.486-1.037a.48.48 0 0 1-.25-.066c-.074-.044-.132-.105-.175-.185a.58.58 0 0 1-.064-.28c0-.107.021-.198.064-.278s.101-.143.175-.186a.48.48 0 0 1 .25-.066c.148 0 .266.048.355.143s.134.224.134.387-.045.295-.134.389-.208.141-.355.141zm1.313-1.607c.064 0 .116-.017.156-.052s.06-.081.06-.137-.02-.103-.06-.14a.22.22 0 0 0-.156-.055c-.064 0-.116.018-.154.055s-.058.083-.058.14.019.102.058.137.09.052.154.052zm.166 1.881v-1.604h-.332v1.604h.332zm.734 0v-.853c0-.163.04-.287.119-.371s.185-.127.317-.127.229.039.303.118.111.19.111.333h0v.9h.332v-.935c0-.223-.056-.395-.169-.515s-.262-.181-.448-.181c-.132 0-.248.033-.349.099a.54.54 0 0 0-.215.28h0v-.352h-.332v1.604h.332zm2.373.786c.157 0 .293-.033.408-.099a.67.67 0 0 0 .264-.272.84.84 0 0 0 .092-.397h0v-1.622h-.332v.373a.58.58 0 0 0-.218-.285c-.103-.072-.227-.108-.373-.108a.71.71 0 0 0-.374.099c-.11.066-.196.161-.258.285s-.093.27-.093.437.031.315.093.44a.67.67 0 0 0 .258.285.71.71 0 0 0 .374.099c.146 0 .27-.036.373-.108a.58.58 0 0 0 .218-.285h0v.39c0 .155-.043.274-.128.355s-.194.122-.326.122c-.12 0-.219-.027-.297-.08a.39.39 0 0 1-.157-.223h0-.329a.69.69 0 0 0 .261.434c.139.107.321.16.546.16zm-.058-1.06c-.148 0-.265-.047-.354-.141s-.132-.224-.132-.389.044-.295.132-.389.206-.141.354-.141a.48.48 0 0 1 .25.066.47.47 0 0 1 .175.186.58.58 0 0 1 .064.278c0 .105-.021.2-.064.28s-.101.141-.175.185a.48.48 0 0 1-.25.066z"/><path d="M177.79 51.789l.157-.446h.868l.157.446h.355l-.754-2.024h-.381l-.757 2.024h.355zm.932-.702h-.681l.341-.961.341.961zm1.657 1.488c.157 0 .293-.033.408-.099a.67.67 0 0 0 .264-.272.84.84 0 0 0 .092-.397h0v-1.622h-.332v.373a.58.58 0 0 0-.218-.285c-.103-.072-.227-.108-.373-.108a.71.71 0 0 0-.374.099c-.11.066-.196.161-.258.285s-.093.27-.093.437.031.315.093.44a.67.67 0 0 0 .258.285.71.71 0 0 0 .374.099c.146 0 .27-.036.373-.108a.58.58 0 0 0 .218-.285h0v.39c0 .155-.043.274-.128.355s-.194.122-.326.122c-.12 0-.219-.027-.297-.08a.39.39 0 0 1-.157-.223h0-.329a.69.69 0 0 0 .261.434c.139.107.321.16.546.16zm-.058-1.06c-.148 0-.265-.047-.354-.141s-.132-.224-.132-.389.044-.295.132-.389.206-.141.354-.141a.48.48 0 0 1 .25.066.47.47 0 0 1 .175.186.58.58 0 0 1 .064.278c0 .105-.021.2-.064.28s-.101.141-.175.185a.48.48 0 0 1-.25.066zm1.386-1.607c.064 0 .116-.017.156-.052s.06-.081.06-.137-.02-.103-.06-.14a.22.22 0 0 0-.156-.055c-.064 0-.116.018-.154.055s-.058.083-.058.14.019.102.058.137.09.052.154.052zm.166 1.881v-1.604h-.332v1.604h.332zm.734 0v-2.155h-.332v2.155h.332zm1.115.02a.87.87 0 0 0 .364-.074.7.7 0 0 0 .265-.205.69.69 0 0 0 .134-.3h0-.355a.35.35 0 0 1-.141.224c-.077.056-.17.084-.281.084a.45.45 0 0 1-.317-.119c-.085-.079-.131-.202-.137-.367h0 1.235a.77.77 0 0 0 .012-.143.77.77 0 0 0-.095-.38.68.68 0 0 0-.271-.268c-.117-.065-.255-.098-.412-.098a.83.83 0 0 0-.412.099c-.119.066-.213.161-.281.285s-.102.27-.102.437a.91.91 0 0 0 .102.44.7.7 0 0 0 .281.285c.119.066.257.099.412.099zm.443-.908h-.911c.008-.155.055-.273.143-.352a.47.47 0 0 1 .326-.119c.082 0 .157.017.226.051s.123.086.163.157.058.159.054.264h0zm-12.199 5.048a1.23 1.23 0 0 0 .581-.128c.162-.085.285-.205.37-.36a1.11 1.11 0 0 0 .127-.543c0-.208-.042-.388-.127-.542a.87.87 0 0 0-.37-.357c-.162-.084-.356-.127-.581-.127h0-.687v2.056h.687zm-.026-.3h-.329v-1.462h.329c.247 0 .436.064.568.192s.198.308.198.539-.066.411-.198.539-.321.192-.568.192h0zm2.152.32a.87.87 0 0 0 .364-.074.7.7 0 0 0 .265-.205.69.69 0 0 0 .134-.3h0-.355a.35.35 0 0 1-.141.224c-.077.056-.17.084-.281.084a.45.45 0 0 1-.317-.119c-.085-.079-.131-.202-.137-.367h0 1.235a.77.77 0 0 0 .012-.143.77.77 0 0 0-.095-.38.68.68 0 0 0-.271-.268c-.117-.065-.255-.098-.412-.098a.83.83 0 0 0-.412.099c-.119.066-.213.161-.281.285s-.102.27-.102.437a.91.91 0 0 0 .102.44.7.7 0 0 0 .281.285c.119.066.257.099.412.099zm.443-.908h-.911c.008-.155.055-.273.143-.352a.47.47 0 0 1 .326-.119c.082 0 .157.017.226.051s.123.086.163.157.058.159.054.264h0zm1.511.888l.611-1.604h-.355l-.454 1.261-.46-1.261h-.355l.611 1.604h.402zm1.569.02a.87.87 0 0 0 .364-.074.7.7 0 0 0 .265-.205.69.69 0 0 0 .134-.3h0-.355a.35.35 0 0 1-.141.224c-.077.056-.17.084-.281.084a.45.45 0 0 1-.317-.119c-.085-.079-.131-.202-.137-.367h0 1.235a.77.77 0 0 0 .012-.143.77.77 0 0 0-.095-.38.68.68 0 0 0-.271-.268c-.117-.065-.255-.098-.412-.098a.83.83 0 0 0-.412.099c-.119.066-.213.161-.281.285s-.102.27-.102.437a.91.91 0 0 0 .102.44.7.7 0 0 0 .281.285c.119.066.257.099.412.099zm.443-.908h-.911c.008-.155.055-.273.143-.352a.47.47 0 0 1 .326-.119c.082 0 .157.017.226.051s.123.086.163.157.058.159.054.264h0zm.987.888v-2.155h-.332v2.155h.332zm1.136.02a.88.88 0 0 0 .419-.099.71.71 0 0 0 .291-.285.88.88 0 0 0 .105-.44.87.87 0 0 0-.105-.437.71.71 0 0 0-.291-.285.88.88 0 0 0-.419-.099.87.87 0 0 0-.418.099.72.72 0 0 0-.291.285c-.071.124-.106.27-.106.437a.87.87 0 0 0 .106.438.72.72 0 0 0 .291.287.87.87 0 0 0 .418.099zm0-.291a.49.49 0 0 1-.236-.058.43.43 0 0 1-.173-.178.61.61 0 0 1-.066-.297c0-.116.022-.215.066-.296a.43.43 0 0 1 .173-.179.49.49 0 0 1 .236-.058.49.49 0 0 1 .236.058.43.43 0 0 1 .173.179.61.61 0 0 1 .066.296.61.61 0 0 1-.066.297.43.43 0 0 1-.173.178.49.49 0 0 1-.236.058zm1.468 1.034v-1.136c.041.118.113.214.215.285a.64.64 0 0 0 .373.108.71.71 0 0 0 .374-.099c.11-.066.196-.161.258-.285s.093-.271.093-.44a.96.96 0 0 0-.093-.437c-.062-.124-.148-.219-.258-.285a.71.71 0 0 0-.374-.099c-.146 0-.27.036-.373.108a.56.56 0 0 0-.215.285h0v-.373h-.332v2.367h.332zm.486-1.037a.48.48 0 0 1-.25-.066c-.074-.044-.132-.105-.175-.185a.58.58 0 0 1-.064-.28c0-.107.021-.198.064-.278s.101-.143.175-.186a.48.48 0 0 1 .25-.066c.148 0 .266.048.355.143s.134.224.134.387-.045.295-.134.389-.208.141-.355.141zm1.479-1.331h-.332v1.604h.332v-.853c0-.159.038-.28.115-.363s.18-.124.31-.124a.37.37 0 0 1 .288.115c.07.077.105.185.105.325h0v.9h.332v-.853c0-.159.038-.28.115-.363s.18-.124.31-.124a.37.37 0 0 1 .288.115c.07.077.105.185.105.325h0v.9h.332v-.935c0-.223-.057-.395-.17-.515s-.265-.181-.456-.181a.62.62 0 0 0-.349.102.58.58 0 0 0-.224.282.56.56 0 0 0-.214-.285c-.098-.066-.214-.099-.348-.099a.6.6 0 0 0-.335.093.51.51 0 0 0-.204.268h0v-.335zm3.401 1.625a.87.87 0 0 0 .364-.074.7.7 0 0 0 .265-.205.69.69 0 0 0 .134-.3h0-.355a.35.35 0 0 1-.141.224c-.077.056-.17.084-.281.084a.45.45 0 0 1-.317-.119c-.085-.079-.131-.202-.137-.367h0 1.235a.77.77 0 0 0 .012-.143.77.77 0 0 0-.095-.38.68.68 0 0 0-.271-.268c-.117-.065-.255-.098-.412-.098a.83.83 0 0 0-.412.099c-.119.066-.213.161-.281.285s-.102.27-.102.437a.91.91 0 0 0 .102.44.7.7 0 0 0 .281.285c.119.066.257.099.412.099zm.443-.908h-.911c.008-.155.055-.273.143-.352a.47.47 0 0 1 .326-.119c.082 0 .157.017.226.051s.123.086.163.157.058.159.054.264h0zm.987.888v-.853c0-.163.04-.287.119-.371s.185-.127.317-.127.229.039.303.118.111.19.111.333h0v.9h.332v-.935c0-.223-.056-.395-.169-.515s-.262-.181-.448-.181c-.132 0-.248.033-.349.099a.54.54 0 0 0-.215.28h0v-.352h-.332v1.604h.332zm2.376 0v-.288h-.16c-.085 0-.145-.017-.179-.052s-.051-.098-.051-.189h0v-.792h.387v-.282h-.387v-.399h-.335v.399h-.23v.282h.23v.786c0 .192.044.33.132.412s.218.124.389.124h0 .204zm9.445-11.648v-1.788h.574v-.268h-1.479v.268h.571v1.788h.335zm1.535.02a.87.87 0 0 0 .364-.074.7.7 0 0 0 .265-.205.69.69 0 0 0 .134-.3h0-.355a.35.35 0 0 1-.141.224c-.077.056-.17.084-.281.084a.45.45 0 0 1-.317-.119c-.085-.079-.131-.202-.137-.367h0 1.235a.77.77 0 0 0 .012-.143.77.77 0 0 0-.095-.38.68.68 0 0 0-.271-.268c-.117-.065-.255-.098-.412-.098a.83.83 0 0 0-.412.099c-.119.066-.213.161-.281.285s-.102.27-.102.437a.91.91 0 0 0 .102.44.7.7 0 0 0 .281.285c.119.066.257.099.412.099zm.443-.908h-.911c.008-.155.055-.273.143-.352a.47.47 0 0 1 .326-.119c.082 0 .157.017.226.051s.123.086.163.157.058.159.054.264h0zm1.296.908c.173 0 .31-.042.412-.125a.4.4 0 0 0 .153-.326c0-.109-.027-.195-.08-.258a.47.47 0 0 0-.192-.138 2.11 2.11 0 0 0-.293-.084l-.211-.058c-.05-.017-.091-.042-.124-.073a.16.16 0 0 1-.05-.122c0-.068.023-.122.068-.162s.11-.06.194-.06c.101 0 .182.027.243.08a.34.34 0 0 1 .112.211h0 .314a.61.61 0 0 0-.208-.386c-.114-.096-.264-.144-.453-.144-.181 0-.322.042-.424.127a.41.41 0 0 0-.153.33c0 .105.026.188.077.249s.114.105.186.132a2.5 2.5 0 0 0 .284.082l.215.057a.36.36 0 0 1 .131.077c.035.033.052.078.052.134 0 .064-.023.117-.068.159s-.108.063-.188.063c-.111 0-.2-.027-.268-.082s-.107-.125-.116-.213h0-.323a.57.57 0 0 0 .223.39c.124.093.285.14.485.14zm1.703-.02v-.288h-.16c-.085 0-.145-.017-.179-.052s-.051-.098-.051-.189h0v-.792h.387v-.282h-.387v-.399h-.335v.399h-.23v.282h.23v.786c0 .192.044.33.132.412s.218.124.389.124h0 .204zm.478-1.881c.064 0 .116-.017.156-.052s.06-.081.06-.137-.02-.103-.06-.14a.22.22 0 0 0-.156-.055c-.064 0-.116.018-.154.055s-.058.083-.058.14.019.102.058.137.09.052.154.052zm.166 1.881v-1.604h-.332v1.604h.332zm.734 0v-.853c0-.163.04-.287.119-.371s.185-.127.317-.127.229.039.303.118.111.19.111.333h0v.9h.332v-.935c0-.223-.056-.395-.169-.515s-.262-.181-.448-.181c-.132 0-.248.033-.349.099a.54.54 0 0 0-.215.28h0v-.352h-.332v1.604h.332zm2.373.786c.157 0 .293-.033.408-.099a.67.67 0 0 0 .264-.272.84.84 0 0 0 .092-.397h0v-1.622h-.332v.373a.58.58 0 0 0-.218-.285c-.103-.072-.227-.108-.373-.108a.71.71 0 0 0-.374.099c-.11.066-.196.161-.258.285s-.093.27-.093.437.031.315.093.44a.67.67 0 0 0 .258.285.71.71 0 0 0 .374.099c.146 0 .27-.036.373-.108a.58.58 0 0 0 .218-.285h0v.39c0 .155-.043.274-.128.355s-.194.122-.326.122c-.12 0-.219-.027-.297-.08a.39.39 0 0 1-.157-.223h0-.329a.69.69 0 0 0 .261.434c.139.107.321.16.546.16zm-.058-1.06c-.148 0-.265-.047-.354-.141s-.132-.224-.132-.389.044-.295.132-.389.206-.141.354-.141a.48.48 0 0 1 .25.066.47.47 0 0 1 .175.186.58.58 0 0 1 .064.278c0 .105-.021.2-.064.28s-.101.141-.175.185a.48.48 0 0 1-.25.066zm2.428.294a.54.54 0 0 0 .322-.098.44.44 0 0 0 .176-.255.57.57 0 0 0 .029-.102h0l.384.434h.341l-1.072-1.3a.86.86 0 0 1-.095-.137.29.29 0 0 1-.031-.137c0-.062.021-.115.063-.157s.099-.064.173-.064c.08 0 .142.023.188.07s.069.111.071.192a.5.5 0 0 1 .003.064h0v.032h.314a.65.65 0 0 0-.02-.207.54.54 0 0 0-.17-.309c-.09-.082-.221-.122-.392-.122-.115 0-.213.022-.296.066s-.145.101-.186.173a.45.45 0 0 0-.063.23c0 .072.013.136.038.194a.79.79 0 0 0 .108.173h0l.038.052h-.02c-.099 0-.189.023-.271.07s-.146.115-.194.204a.66.66 0 0 0-.071.317.64.64 0 0 0 .079.32.55.55 0 0 0 .221.218.68.68 0 0 0 .332.079zm.003-.282a.35.35 0 0 1-.246-.092c-.067-.061-.1-.145-.1-.252s.029-.186.087-.243a.31.31 0 0 1 .227-.086c.06 0 .118.015.173.045a.36.36 0 0 1 .134.125c.034.053.051.113.051.179 0 .095-.031.173-.092.233a.32.32 0 0 1-.234.09zm4.155.649l-.51-.518a.97.97 0 0 0 .341-.373 1.11 1.11 0 0 0 .125-.527c0-.202-.044-.383-.132-.543s-.21-.285-.364-.374-.327-.134-.517-.134a1.02 1.02 0 0 0-.52.134c-.154.089-.276.214-.365.374s-.134.341-.134.543.045.383.134.543a.98.98 0 0 0 .365.376 1.01 1.01 0 0 0 .52.135c.097 0 .19-.012.28-.035h0l.367.399h.411zm-1.057-.676c-.132 0-.249-.03-.352-.09s-.183-.147-.24-.259a.86.86 0 0 1-.086-.393.86.86 0 0 1 .086-.393c.057-.112.137-.199.24-.259s.22-.09.352-.09a.67.67 0 0 1 .348.09.62.62 0 0 1 .239.259.86.86 0 0 1 .086.393.86.86 0 0 1-.086.393.62.62 0 0 1-.239.259.67.67 0 0 1-.348.09zm1.549.288l.157-.446h.868l.157.446h.355l-.754-2.024h-.381l-.757 2.024h.355zm.932-.702h-.681l.341-.961.341.961z"/><path d="M231.754 36.814v-.798h.367c.231 0 .408-.056.53-.167a.59.59 0 0 0 .183-.459c0-.196-.06-.35-.179-.463s-.297-.169-.534-.169h0-.699v2.056h.332zm.332-1.069h-.332v-.713h.332c.144 0 .248.031.313.092s.098.15.098.266c0 .237-.137.355-.411.355h0zm1.371 1.069v-.812c0-.163.044-.28.132-.351s.205-.106.351-.106h0 .099v-.361a.66.66 0 0 0-.349.092.62.62 0 0 0-.233.249h0v-.314h-.332v1.604h.332zm1.564.02a.88.88 0 0 0 .419-.099.71.71 0 0 0 .291-.285c.07-.124.105-.271.105-.44s-.035-.313-.105-.437a.71.71 0 0 0-.291-.285.88.88 0 0 0-.419-.099.87.87 0 0 0-.418.099.72.72 0 0 0-.291.285c-.071.124-.106.27-.106.437s.035.313.106.438a.72.72 0 0 0 .291.287.87.87 0 0 0 .418.099zm0-.291a.49.49 0 0 1-.236-.058.43.43 0 0 1-.173-.178.61.61 0 0 1-.066-.297c0-.116.022-.215.066-.296a.43.43 0 0 1 .173-.179.49.49 0 0 1 .236-.058.49.49 0 0 1 .236.058.43.43 0 0 1 .173.179c.044.081.066.179.066.296a.61.61 0 0 1-.066.297.43.43 0 0 1-.173.178.49.49 0 0 1-.236.058zm1.316-1.61c.064 0 .116-.017.154-.052s.058-.081.058-.137-.019-.103-.058-.14-.09-.055-.154-.055a.22.22 0 0 0-.156.055c-.04.037-.06.083-.06.14s.02.102.06.137.092.052.156.052zm-.309 2.644c.318 0 .478-.158.478-.475h0v-1.893h-.335v1.89c0 .068-.015.116-.045.144s-.077.042-.141.042h0-.114v.291h.157zm1.587-.743a.87.87 0 0 0 .364-.074c.109-.05.197-.118.265-.205a.69.69 0 0 0 .134-.3h0-.355a.35.35 0 0 1-.141.224c-.077.056-.17.084-.281.084-.126 0-.232-.04-.317-.119s-.131-.202-.137-.367h0 1.235a.77.77 0 0 0 .012-.143.77.77 0 0 0-.095-.38.68.68 0 0 0-.271-.268c-.117-.065-.255-.098-.412-.098s-.293.033-.412.099-.213.161-.281.285-.102.27-.102.437.034.315.102.44.162.219.281.285.257.099.412.099zm.443-.908h-.911c.008-.155.055-.273.143-.352s.196-.119.326-.119c.082 0 .157.017.226.051s.123.086.163.157.058.159.054.264h0zm1.369.908a.79.79 0 0 0 .515-.166c.136-.111.22-.26.253-.448h0-.352c-.019.101-.066.181-.141.239s-.168.087-.281.087a.42.42 0 0 1-.32-.137c-.085-.091-.128-.224-.128-.399s.043-.307.128-.397.192-.135.32-.135c.113 0 .206.029.281.086s.122.136.141.237h0 .352a.71.71 0 0 0-.253-.447c-.136-.11-.308-.165-.515-.165-.155 0-.293.033-.412.099s-.213.161-.281.285-.102.27-.102.437.034.315.102.44.162.219.281.285.257.099.412.099zm1.896-.02v-.288h-.16c-.085 0-.145-.017-.179-.052s-.051-.098-.051-.189h0v-.792h.387v-.282h-.387v-.399h-.335v.399h-.23v.282h.23v.786c0 .192.044.33.132.412s.218.124.389.124h0 .204zm-9.127 4.16v-.259h-.71v-1.797h-.332v2.056h1.042zm.903.02c.146 0 .27-.036.373-.108a.58.58 0 0 0 .218-.285h0v.373h.332v-1.604h-.332v.373a.58.58 0 0 0-.218-.285c-.103-.072-.227-.108-.373-.108a.71.71 0 0 0-.374.099c-.11.066-.196.161-.258.285s-.093.27-.093.437.031.315.093.44.148.219.258.285a.71.71 0 0 0 .374.099zm.102-.294c-.148 0-.265-.047-.354-.141s-.132-.224-.132-.389.044-.295.132-.389.206-.141.354-.141a.48.48 0 0 1 .25.066c.074.044.132.106.175.186s.064.173.064.278-.021.2-.064.28-.101.141-.175.185a.48.48 0 0 1-.25.066zm1.8.297c.134 0 .251-.033.352-.098s.172-.157.213-.275h0v.349h.335v-1.604h-.335v.85c0 .163-.04.287-.119.373s-.185.128-.317.128-.229-.039-.303-.118-.111-.191-.111-.336h0v-.897h-.332v.932c0 .223.056.395.169.515s.262.181.448.181zm1.631-.023v-.853c0-.163.04-.287.119-.371s.185-.127.317-.127.229.039.303.118.111.19.111.333h0v.9h.332v-.935c0-.223-.056-.395-.169-.515s-.262-.181-.448-.181c-.132 0-.248.033-.349.099a.54.54 0 0 0-.215.28h0v-.352h-.332v1.604h.332zm2.283.02a.79.79 0 0 0 .515-.166c.136-.111.22-.26.253-.448h0-.352c-.019.101-.066.181-.141.239s-.168.087-.281.087a.42.42 0 0 1-.32-.137c-.085-.091-.128-.224-.128-.399s.043-.307.128-.397.192-.135.32-.135c.113 0 .206.029.281.086s.122.136.141.237h0 .352a.71.71 0 0 0-.253-.447c-.136-.11-.308-.165-.515-.165-.155 0-.293.033-.412.099s-.213.161-.281.285-.102.27-.102.437.034.315.102.44.162.219.281.285.257.099.412.099zm1.421-.02v-.853c0-.163.04-.287.119-.371s.185-.127.317-.127.229.039.303.118.111.19.111.333h0v.9h.332v-.935c0-.223-.056-.395-.169-.515s-.262-.181-.448-.181c-.132 0-.248.033-.349.099a.54.54 0 0 0-.215.28h0v-.903h-.332v2.155h.332z"/></g><path d="M10.56 89.458a.88.88 0 0 0 .416-.09.61.61 0 0 0 .253-.238.64.64 0 0 0 .083-.321c0-.149-.033-.268-.098-.359a.66.66 0 0 0-.24-.208 2.44 2.44 0 0 0-.364-.141l-.278-.105a.46.46 0 0 1-.168-.123c-.044-.052-.067-.118-.067-.198a.29.29 0 0 1 .097-.235c.065-.055.15-.082.256-.082.118 0 .21.032.278.095a.4.4 0 0 1 .125.228h0 .409a.65.65 0 0 0-.241-.453c-.141-.115-.331-.173-.571-.173a.96.96 0 0 0-.399.078c-.115.052-.204.126-.266.221s-.093.206-.093.333c0 .144.032.261.097.349a.65.65 0 0 0 .235.203 2.44 2.44 0 0 0 .358.14l.283.106a.49.49 0 0 1 .173.128c.047.054.07.124.07.208 0 .098-.032.177-.095.24s-.153.093-.268.093c-.129 0-.231-.037-.308-.11s-.12-.161-.131-.263h0H9.7a.67.67 0 0 0 .13.353.75.75 0 0 0 .303.238 1.04 1.04 0 0 0 .429.085zm2.053-.023v-.329h-.183c-.098 0-.166-.02-.205-.06s-.058-.112-.058-.216h0v-.905h.443v-.323h-.443v-.456h-.383v.456h-.263v.323h.263v.899c0 .22.05.377.151.471s.249.141.444.141h0 .233zm1.171.023c.153 0 .292-.028.416-.085a.79.79 0 0 0 .456-.577h0-.406a.4.4 0 0 1-.161.256.53.53 0 0 1-.321.097.51.51 0 0 1-.363-.136c-.098-.091-.15-.231-.156-.419h0 1.411a.88.88 0 0 0 .013-.163.88.88 0 0 0-.108-.434.77.77 0 0 0-.309-.306.96.96 0 0 0-.471-.111c-.18 0-.334.038-.471.113a.8.8 0 0 0-.321.326 1.02 1.02 0 0 0-.116.499 1.04 1.04 0 0 0 .116.502c.077.141.185.251.321.326a.96.96 0 0 0 .471.113zm.506-1.038h-1.042c.009-.177.063-.312.163-.403s.224-.136.373-.136c.093 0 .179.019.258.058s.141.099.186.18a.57.57 0 0 1 .062.301h0zm1.128 1.887v-1.298a.65.65 0 0 0 .246.326c.117.082.26.123.426.123a.82.82 0 0 0 .428-.113c.126-.075.224-.184.295-.326a1.11 1.11 0 0 0 .106-.502c0-.191-.035-.357-.106-.499s-.169-.251-.295-.326a.82.82 0 0 0-.428-.113c-.166 0-.308.041-.426.123a.64.64 0 0 0-.246.326h0v-.426h-.379v2.705h.379zm.556-1.185a.55.55 0 0 1-.286-.075.53.53 0 0 1-.2-.211.66.66 0 0 1-.073-.319.67.67 0 0 1 .073-.318.53.53 0 0 1 .2-.213.55.55 0 0 1 .286-.075.53.53 0 0 1 .406.163.62.62 0 0 1 .153.443c0 .189-.051.337-.153.444s-.237.161-.406.161zm2.656.313v-2.349h-.752v.356h.353v1.993h.399zm17.912-7.673a.88.88 0 0 0 .416-.09.61.61 0 0 0 .253-.238.64.64 0 0 0 .083-.321c0-.149-.033-.268-.098-.359a.66.66 0 0 0-.24-.208 2.44 2.44 0 0 0-.364-.141l-.278-.105a.46.46 0 0 1-.168-.123c-.044-.052-.067-.118-.067-.198a.29.29 0 0 1 .097-.235c.065-.055.15-.082.256-.082.118 0 .21.032.278.095a.4.4 0 0 1 .125.228h0 .409a.65.65 0 0 0-.241-.453c-.141-.115-.331-.173-.571-.173a.96.96 0 0 0-.399.078c-.115.052-.204.126-.266.221s-.093.206-.093.333c0 .144.032.261.097.349a.65.65 0 0 0 .235.203 2.44 2.44 0 0 0 .358.14l.283.106a.49.49 0 0 1 .173.128c.047.054.07.124.07.208 0 .098-.032.177-.095.24s-.153.093-.268.093c-.129 0-.231-.037-.308-.11s-.12-.161-.131-.263h0-.406a.67.67 0 0 0 .13.353.75.75 0 0 0 .303.238 1.04 1.04 0 0 0 .429.085zm2.053-.023v-.329h-.183c-.098 0-.166-.02-.205-.06s-.058-.112-.058-.216h0v-.905h.443v-.323h-.443v-.456h-.383v.456h-.263v.323h.263v.899c0 .22.05.377.151.471s.249.141.444.141h0 .233zm1.171.023c.153 0 .292-.028.416-.085a.79.79 0 0 0 .456-.577h0-.406a.4.4 0 0 1-.161.256.53.53 0 0 1-.321.097.51.51 0 0 1-.363-.136c-.098-.091-.15-.231-.156-.419h0 1.411a.88.88 0 0 0 .013-.163.88.88 0 0 0-.108-.434.77.77 0 0 0-.309-.306.96.96 0 0 0-.471-.111c-.18 0-.334.038-.471.113a.8.8 0 0 0-.321.326 1.02 1.02 0 0 0-.116.499 1.04 1.04 0 0 0 .116.502c.077.141.185.251.321.326a.96.96 0 0 0 .471.113zm.506-1.038H39.23c.009-.177.063-.312.163-.403s.224-.136.373-.136c.093 0 .179.019.258.058s.141.099.186.18a.57.57 0 0 1 .062.301h0zm1.128 1.887v-1.298a.65.65 0 0 0 .246.326c.117.082.26.123.426.123a.82.82 0 0 0 .428-.113c.126-.075.224-.184.295-.326a1.11 1.11 0 0 0 .106-.502c0-.191-.035-.357-.106-.499s-.169-.251-.295-.326a.82.82 0 0 0-.428-.113c-.166 0-.308.041-.426.123a.64.64 0 0 0-.246.326h0v-.426h-.379v2.705h.379zm.556-1.185a.55.55 0 0 1-.286-.075.53.53 0 0 1-.2-.211.66.66 0 0 1-.073-.319.67.67 0 0 1 .073-.318.53.53 0 0 1 .2-.213.55.55 0 0 1 .286-.075.53.53 0 0 1 .406.163.62.62 0 0 1 .153.443c0 .189-.051.337-.153.444s-.237.161-.406.161zm3.624.296v-.309h-1.115a3.37 3.37 0 0 0 .502-.381 2.16 2.16 0 0 0 .401-.484c.105-.175.158-.348.158-.519 0-.213-.065-.38-.195-.501s-.309-.181-.537-.181a.8.8 0 0 0-.574.213c-.15.142-.232.347-.248.616h0 .369c.009-.162.048-.287.116-.374s.171-.131.306-.131.226.035.285.106.088.166.088.286c0 .202-.108.421-.324.657a4.98 4.98 0 0 1-.864.724h0v.28h1.631zm19.827-7.031a.88.88 0 0 0 .416-.09.61.61 0 0 0 .253-.238.64.64 0 0 0 .083-.321c0-.149-.033-.268-.098-.359a.66.66 0 0 0-.24-.208 2.44 2.44 0 0 0-.364-.141l-.278-.105a.46.46 0 0 1-.168-.123c-.044-.052-.067-.118-.067-.198a.29.29 0 0 1 .097-.235c.065-.055.15-.082.256-.082.118 0 .21.032.278.095a.4.4 0 0 1 .125.228h0 .409a.65.65 0 0 0-.241-.453c-.141-.115-.331-.173-.571-.173a.96.96 0 0 0-.399.078c-.115.052-.204.126-.266.221s-.093.206-.093.333c0 .144.032.261.097.349a.65.65 0 0 0 .235.203 2.44 2.44 0 0 0 .358.14l.283.106a.49.49 0 0 1 .173.128c.047.054.07.124.07.208 0 .098-.032.177-.095.24s-.153.093-.268.093c-.129 0-.231-.037-.308-.11s-.12-.161-.131-.263h0-.406a.67.67 0 0 0 .13.353.75.75 0 0 0 .303.238 1.04 1.04 0 0 0 .429.085zm2.053-.023v-.329h-.183c-.098 0-.166-.02-.205-.06s-.058-.112-.058-.216h0v-.905h.443v-.323h-.443v-.456h-.383v.456h-.263v.323h.263v.899c0 .22.05.377.151.471s.249.141.444.141h0 .233zm1.171.023c.153 0 .292-.028.416-.085a.79.79 0 0 0 .456-.577h0-.406a.4.4 0 0 1-.161.256.53.53 0 0 1-.321.097.51.51 0 0 1-.363-.136c-.098-.091-.15-.231-.156-.419h0 1.411a.88.88 0 0 0 .013-.163.88.88 0 0 0-.108-.434.77.77 0 0 0-.309-.306.96.96 0 0 0-.471-.111c-.18 0-.334.038-.471.113a.8.8 0 0 0-.321.326 1.02 1.02 0 0 0-.116.499 1.04 1.04 0 0 0 .116.502c.077.141.185.251.321.326a.96.96 0 0 0 .471.113zm.506-1.038h-1.042c.009-.177.063-.312.163-.403s.224-.136.373-.136c.093 0 .179.019.258.058s.141.099.186.18a.57.57 0 0 1 .062.301h0zm1.128 1.887v-1.298a.65.65 0 0 0 .246.326c.117.082.26.123.426.123a.82.82 0 0 0 .428-.113c.126-.075.224-.184.295-.326a1.11 1.11 0 0 0 .106-.502c0-.191-.035-.357-.106-.499s-.169-.251-.295-.326a.82.82 0 0 0-.428-.113c-.166 0-.308.041-.426.123a.64.64 0 0 0-.246.326h0v-.426h-.379v2.705h.379zm.556-1.185a.55.55 0 0 1-.286-.075.53.53 0 0 1-.2-.211.66.66 0 0 1-.073-.319.67.67 0 0 1 .073-.318.53.53 0 0 1 .2-.213.55.55 0 0 1 .286-.075.53.53 0 0 1 .406.163.62.62 0 0 1 .153.443c0 .189-.051.337-.153.444s-.237.161-.406.161zm2.879.336c.244 0 .432-.062.562-.185a.63.63 0 0 0 .196-.481c0-.162-.046-.289-.138-.381a.87.87 0 0 0-.381-.208h0v-.017a.53.53 0 0 0 .351-.178c.083-.099.125-.222.125-.371 0-.118-.028-.224-.085-.319a.58.58 0 0 0-.251-.225.9.9 0 0 0-.399-.082c-.246 0-.439.064-.579.191s-.217.307-.233.537h0 .373c.016-.133.062-.235.14-.304a.42.42 0 0 1 .29-.105c.116 0 .206.031.273.093s.1.148.1.256c0 .251-.181.374-.542.369h-.09v.313h.09c.191 0 .337.034.438.103a.34.34 0 0 1 .151.3c0 .109-.035.197-.105.266s-.17.103-.301.103a.46.46 0 0 1-.333-.118.49.49 0 0 1-.143-.318h0-.376c.022.251.11.44.263.567s.355.191.606.191z" fill="#fff"/><g transform="matrix(-.97437 .224951 .224951 .97437 113.198248 .6897)"><path d="M8.423 47.508l1.366 3.098s-2.696 2.429-2.493 3.032l6.102-2.434-1.931-4.914-3.044 1.218z" class="C"/><path d="M8.423 47.508l1.366 3.098s-2.696 2.429-2.493 3.032l6.102-2.434-1.931-4.914-3.044 1.218z" opacity=".5" class="D"/><path d="M13.398 51.203l-.214-.494-5.772 2.527s-.224.226-.118.406l6.104-2.439z" class="B"/><path d="M19.168 51.9l1.712 2.923s-2.396 2.719-2.133 3.299l5.785-3.113-2.478-4.67-2.886 1.562z" class="C"/><path d="M19.168 51.9l1.712 2.923s-2.396 2.719-2.133 3.299l5.785-3.113-2.478-4.67-2.886 1.562z" opacity=".5" class="D"/><path d="M24.532 55l-.273-.46-5.442 3.157s-.197.251-.071.416L24.532 55z" class="B"/><path d="M11.705 10.912l-3.75.293-.125-2.099s-1.516-.022-1.739-1.499-.448-4.911-.448-4.911h0c1.61-.977 3.622-1.006 5.26-.076l.243.138.559 8.154z" class="E"/><path d="M7.825 9.084a3.48 3.48 0 0 0 1.853-.819s-.327 1.162-1.823 1.237l-.03-.418z" class="F"/><path d="M11.18 4.314c.024-.015.975-.445 1.085.573s-.933.916-.938.888-.147-1.461-.147-1.461z" class="E"/><path d="M11.596 5.356s.019.01.051.022c.044.013.091.009.131-.012a.44.44 0 0 0 .168-.416.58.58 0 0 0-.076-.248c-.027-.062-.082-.108-.148-.121-.043-.006-.085.019-.099.061-.01.029 0 .049 0 .051s-.024-.013-.02-.057c.003-.026.015-.05.034-.067.025-.025.059-.038.094-.037.087.008.163.06.202.138.053.083.085.178.093.276.03.184-.054.368-.212.467-.054.024-.117.021-.168-.008-.045-.022-.052-.044-.049-.047z" class="F"/><g class="B"><path d="M6.282 5.02c.016.114.119.196.234.184.055-.003.106-.028.142-.07s.053-.096.048-.151c-.014-.115-.117-.197-.232-.185-.055.003-.107.029-.143.071s-.054.096-.049.152z"/><path d="M6.217 4.737c.03.024.168-.118.401-.148s.411.059.431.027-.024-.061-.103-.103c-.108-.054-.231-.073-.35-.056a.57.57 0 0 0-.315.152c-.062.064-.077.118-.064.128zm2.277.027c.016.114.119.196.234.184.055-.003.106-.029.142-.07s.053-.096.049-.15c-.015-.114-.118-.196-.232-.185-.055.003-.107.029-.143.071s-.054.096-.049.152h0z"/><path d="M8.459 4.464c.03.025.168-.116.401-.148s.409.059.431.029-.024-.061-.104-.103c-.107-.055-.229-.075-.349-.057a.57.57 0 0 0-.315.153c-.062.064-.079.116-.064.126zm-.588 1.803c-.125-.019-.253-.024-.379-.013-.059 0-.116 0-.131-.04-.012-.056-.006-.115.015-.168l.11-.467c.107-.397.181-.802.222-1.211-.138.387-.245.785-.32 1.189l-.101.468a.33.33 0 0 0 0 .232c.023.039.063.065.108.071a.33.33 0 0 0 .099 0c.128-.004.255-.024.377-.061h0zm.691.064c-.037 0 0 .249-.19.455s-.453.214-.45.249.066.04.177.027a.62.62 0 0 0 .377-.194c.096-.103.147-.239.143-.379-.005-.104-.04-.162-.057-.158zm-.288-2.749c.032.059.254 0 .526 0s.505.037.526-.024c.012-.029-.034-.083-.13-.13a.87.87 0 0 0-.403-.081c-.139.003-.275.039-.398.104-.091.047-.14.103-.121.13zm-2.066.485c.047.045.197-.029.384-.059s.354-.013.382-.072c.012-.029-.02-.077-.096-.116-.102-.047-.215-.061-.325-.04a.53.53 0 0 0-.293.147c-.059.062-.074.118-.052.142zM4.791 1.862a.56.56 0 0 1 .133-.517c.138-.132.352-.146.505-.032A.46.46 0 0 1 5.741.71c.239-.049.472.104.714.135a1.11 1.11 0 0 0 .674-.177l.605-.381a1.91 1.91 0 0 1 2.576.77.84.84 0 0 1 .938.212c.229.26.354.595.349.942a3.16 3.16 0 0 1-.076.687c0 .019 0 .037.008.057.099.815.142 1.784-.204 1.838-.605.094-.62-1.066-.62-1.066-.783-.182-.664-1.334-.873-1.476s-.654-.48-2.096.532a3.05 3.05 0 0 1-1.816.46h-.04-.01-.013a1.42 1.42 0 0 1-.421-.113.8.8 0 0 1-.381-.32c-.088-.148-.08-.335.02-.475a.96.96 0 0 1-.285-.473z"/></g><path fill="#ebebeb" d="M7.825 10.391l.167 5.876 3.656-7.869-.091-.729z"/><g class="B"><path d="M10.25 27.954c-.133.044-7.75 7.741-7.581 9.124s5.588 11.624 5.588 11.624l3.875-1.905-3.627-8.976.047-.558 4.432-3.631-.238-5.836-2.497.157z"/><path d="M11.891 29.472c.089.133 1.407 12.226 1.761 12.851s5.647 10.95 5.647 10.95l3.93-1.584-4.798-11.346.546-10.738-.295-3.032-5.935 1.225-.856 1.675z"/></g><path d="M13.582 42.117a.59.59 0 0 1-.025-.121l-.057-.349-.195-1.285-.612-4.249-.586-4.252-.168-1.29-.04-.352a.61.61 0 0 1 0-.123l.025.121.057.349.194 1.287.612 4.249.586 4.252.168 1.289.042.352a.63.63 0 0 1 0 .123h0zm4.749-2.121c-.05.325-.126.646-.229.959a5.78 5.78 0 0 1-.31.935c.052-.323.13-.642.234-.952a5.59 5.59 0 0 1 .305-.942zm.595 2.74c-.088-.087-.161-.187-.216-.298a2.96 2.96 0 0 1-.366-1.718 1.08 1.08 0 0 1 .074-.359 3.84 3.84 0 0 0 .505 2.375h.002zm-11.682-6.22a2.07 2.07 0 0 1 1.087.991c-.02.013-.209-.261-.505-.532s-.6-.436-.581-.458zm.59-.357a1.17 1.17 0 0 1 .374.425 1.18 1.18 0 0 1 .214.526 4.96 4.96 0 0 1-.285-.482c-.11-.15-.211-.307-.303-.468z" fill="#455a64"/><g class="C"><path d="M8.359 18.516l.972 4.828.792 6.739s3.265-.457 4.656-.896c1.614-.505 5.125-.947 5.125-.947l-.593.586c1.257-.352 2.057-1.55 2.057-1.55-2.163-2.006-4.016-6.144-4.016-6.144l-1.646-8.174-.401-1.666c-.152-.514-2.65-2.167-2.997-2.375l-.217-.103-.069-.655-.258-.155-2.702 2.458c-.527.477-.862 1.13-.942 1.836a21.06 21.06 0 0 0-.118 3.075c.032.969.357 3.144.357 3.144z"/><path d="M10.216 10.155s-1.429.767-1.676 1.417.489 7.78.489 7.78l-5.133.098-.02 3.058s8.152.645 8.471.204c.428-.596.927-6.168.927-6.168l.185-4.01s-.467-3.056-3.241-2.379z"/></g><path d="M9.331 23.344a4.93 4.93 0 0 0 2.055.19c.723-.066 1.459-.462 1.732-1.135.209-.514.121-1.095.153-1.649.029-.484.147-.955.221-1.432s-.168-1.348-.337-1.811c0 0-.182 3.309-.701 4.699-.058.194-.167.369-.317.505-.184.148-.436.168-.674.185-.655.069-2.236-.045-2.236-.045" opacity=".3" class="D"/><path d="M13.454 12.972a.42.42 0 0 1 0 .074l-.008.212-.039.819-.069 1.296-.11 1.715-.2 2.072-.312 2.37a5.02 5.02 0 0 1-.142.628 1.23 1.23 0 0 1-.371.556.94.94 0 0 1-.638.227h-.674l-2.834-.123-4.173-.263h-.037v-.037l.019-3.054v-.035h.035l4.955-.106 1.385-.024h.366.125s-.042 0-.125.008l-.364.015-1.387.044-4.953.136.035-.035-.01 3.053-.039-.04 4.173.259 2.83.125h.674a.85.85 0 0 0 .59-.207c.161-.138.28-.317.345-.519a5.15 5.15 0 0 0 .14-.617l.32-2.359.211-2.069.121-1.713.083-1.294.056-.817c0-.091.012-.168.017-.214a.36.36 0 0 1 .005-.084h0zm-8.568 9.49a12.87 12.87 0 0 1-.035-1.483 13.11 13.11 0 0 1 .051-1.483 12.87 12.87 0 0 1 .035 1.483 13.11 13.11 0 0 1-.051 1.483zm-.543-2.5c-.01 0 .04-.064.138-.03.058.02.099.073.104.135a.18.18 0 0 1-.31.145c-.044-.041-.063-.102-.051-.16.024-.098.091-.118.093-.108s-.032.045-.034.115c-.001.037.014.072.042.096.033.028.079.035.12.019s.062-.058.062-.101c-.001-.036-.021-.069-.052-.086-.059-.035-.108-.013-.113-.024z" class="B"/><path d="M15.732 13.659s2.672 3.492 2.997 4.443.074 2.318-.47 2.972-.982.387-.982.387l-1.545-7.802z" class="C"/><path d="M17.184 21.182a2.94 2.94 0 0 1-.674.157 2.79 2.79 0 0 1-.684.074 2.91 2.91 0 0 1 .674-.157 2.79 2.79 0 0 1 .684-.074zm.505 2.572a1 1 0 0 1 .072.184l.18.505a15.16 15.16 0 0 0 .718 1.619 17.28 17.28 0 0 0 .896 1.526l.3.446a.86.86 0 0 1 .104.168.88.88 0 0 1-.131-.148l-.322-.433a13.15 13.15 0 0 1-.923-1.516 11.82 11.82 0 0 1-.697-1.638l-.157-.516a.77.77 0 0 1-.04-.199h0z" class="B"/><path d="M17.875 24.168c.425.755.859 1.516 1.503 2.101a3.85 3.85 0 0 1 .657.635c.168.251.248.601.083.859-.05.098-.156.155-.266.143-.07-.027-.13-.077-.168-.142a10.4 10.4 0 0 1-1.774-3.481m-.389-2.836c.366-.263.494-.761.44-1.21s-.259-.859-.443-1.269a20.78 20.78 0 0 1-1.299-3.807l-.261-.969 1.321 6.907.243.347z" opacity=".3" class="D"/><path d="M10.912 9.845a5.49 5.49 0 0 1 .505-.497 5.87 5.87 0 0 1 .505-.505 2.05 2.05 0 0 1-.438.558 1.97 1.97 0 0 1-.573.445zm-.27.6c0 .015-.155.062-.391.179a3.1 3.1 0 0 0-1.417 1.435l-.168.393a.35.35 0 0 1 .019-.116 2.14 2.14 0 0 1 .101-.302c.278-.654.796-1.178 1.447-1.464a2.03 2.03 0 0 1 .3-.104c.035-.013.072-.02.11-.02zm7.172 11.699a.29.29 0 0 1-.042-.067l-.106-.2-.386-.751h0l-.66-3.122-.615-3.009-.168-.915-.044-.249a.29.29 0 0 1-.008-.088c.011.027.02.055.025.084l.059.248.202.908.633 3.004.633 3.128h0l.361.763.094.207a.32.32 0 0 1 .022.059h0zM8.941 19.35a1.35 1.35 0 0 1-.04-.253l-.074-.694-.217-2.288-.192-2.293-.049-.694a1.41 1.41 0 0 1 0-.256 1.8 1.8 0 0 1 .039.253l.076.694.216 2.288.192 2.291.049.696a1.84 1.84 0 0 1 .002.256h0z" class="B"/><g class="E"><path d="M3.961 19.807s-1.109-.842-1.378-.891c-.207-.039-1.442-.017-2.01 0-.221-.002-.402.174-.408.394-.002.013-.002.027 0 .04.029.137.134.246.27.28a.43.43 0 0 0-.298.406c0 .32.382.387.382.387l-.056.051c-.098.099-.134.243-.095.377s.148.235.283.265l.168.04c-.132.054-.222.177-.234.318 0 .421.957.505.957.505l2.397.355c.051-.017.02-2.529.02-2.529z"/><path d="M.79 18.41c.01.14.044.436.28.569l1.309-.051s-.974-.337-1.114-.505a1.02 1.02 0 0 0-.187-.184c-.059-.04-.136-.042-.198-.006s-.097.105-.09.176h0z"/></g><path d="M1.762 18.916a1.87 1.87 0 0 1-.596.042 2.29 2.29 0 0 1-.596-.042c.196-.044.398-.058.598-.042a2.47 2.47 0 0 1 .595.042h0zm-.293.731a1.24 1.24 0 0 1-.516.052 1.22 1.22 0 0 1-.505-.089 2.38 2.38 0 0 1 .514 0c.17-.007.34.006.507.037h0zm.666-.094c.02.013 0 .084-.079.131s-.15.042-.152.019.047-.052.104-.089.106-.071.126-.061zm-.523.923a3.77 3.77 0 0 1-1.124-.037 1.87 1.87 0 0 1 .564-.025 1.9 1.9 0 0 1 .559.062h0zm.747-.351c.01 0 .03.024.037.074.015.143-.087.272-.229.291-.051 0-.081 0-.081-.019s.113-.037.187-.133.066-.209.086-.214zm-.548 1.161a1.57 1.57 0 0 1-.505-.02 1.53 1.53 0 0 1-.505-.104 1.57 1.57 0 0 1 .505.02 1.59 1.59 0 0 1 .505.104h0zm.73-.413c.01 0 .027.027.025.079a.32.32 0 0 1-.071.168c-.094.116-.202.158-.214.142s.069-.096.148-.194.098-.19.111-.195z" class="F"/><use xlink:href="#B" class="C"/><use xlink:href="#B" x="-0.001" opacity=".4" class="D"/><path d="M7.825 10.391s-.539 1.808-.391 1.705.47-.387.47-.387l-.079-1.317z" fill="#ebebeb"/><g class="B"><path d="M7.856 11.225l-.293.704a.87.87 0 0 0-.057.227c-.025.197-.052.558.064.583.119.007.235-.041.315-.13l-.029-1.385z"/><path d="M16.987 11.336s-2.879-1.124-4.475-.131-1.885 2.576-2.835 2.576c-1.853 0-1.793-1.307-1.793-1.307l-.394.12c0 .268-.428 2.19 1.516 2.424s2.773-2.423 4.528-2.424a5.82 5.82 0 0 1 3.088.948l1.262-.797-.898-1.408z"/></g><path d="M9.603 14.994a2.71 2.71 0 0 0 1.11-1.275c.448-1.033 1.408-2.21 2.21-2.507s2.657-.505 3.939.337l.82 1.109-1.065.692a9.9 9.9 0 0 0-1.878-.753c-1.324-.369-2.129.049-2.899.777l-.13.135c-.372.397-.78.758-1.22 1.078-.382.258-.719.408-.888.408z" fill="#455a64"/></g><g fill="#fff"><path d="M93.001 66.995a.88.88 0 0 0 .416-.09.61.61 0 0 0 .253-.238.64.64 0 0 0 .083-.321c0-.149-.033-.268-.098-.359a.66.66 0 0 0-.24-.208 2.44 2.44 0 0 0-.364-.141l-.278-.105a.46.46 0 0 1-.168-.123c-.044-.052-.067-.118-.067-.198a.29.29 0 0 1 .097-.235c.065-.055.15-.082.256-.082.118 0 .21.032.278.095a.4.4 0 0 1 .125.228h0 .409a.65.65 0 0 0-.241-.453c-.141-.115-.331-.173-.571-.173a.96.96 0 0 0-.399.078c-.115.052-.204.126-.266.221s-.093.206-.093.333c0 .144.032.261.097.349a.65.65 0 0 0 .235.203 2.44 2.44 0 0 0 .358.14l.283.106a.49.49 0 0 1 .173.128c.047.054.07.124.07.208 0 .098-.032.177-.095.24s-.153.093-.268.093c-.129 0-.231-.037-.308-.11s-.12-.161-.131-.263h0-.406a.67.67 0 0 0 .13.353.75.75 0 0 0 .303.238 1.04 1.04 0 0 0 .429.085zm2.053-.023v-.329h-.183c-.098 0-.166-.02-.205-.06s-.058-.112-.058-.216h0v-.905h.443v-.323h-.443v-.456h-.383v.456h-.263v.323h.263v.899c0 .22.05.377.151.471s.249.141.444.141h0 .233zm1.171.023c.153 0 .292-.028.416-.085a.79.79 0 0 0 .456-.577h0-.406a.4.4 0 0 1-.161.256.53.53 0 0 1-.321.097.51.51 0 0 1-.363-.136c-.098-.091-.15-.231-.156-.419h0 1.411a.88.88 0 0 0 .013-.163.88.88 0 0 0-.108-.434.77.77 0 0 0-.309-.306.96.96 0 0 0-.471-.111c-.18 0-.334.038-.471.113a.8.8 0 0 0-.321.326 1.02 1.02 0 0 0-.116.499 1.04 1.04 0 0 0 .116.502c.077.141.185.251.321.326a.96.96 0 0 0 .471.113zm.506-1.038H95.69c.009-.177.063-.312.163-.403s.224-.136.373-.136c.093 0 .179.019.258.058s.141.099.186.18a.57.57 0 0 1 .062.301h0zm1.128 1.887v-1.298a.65.65 0 0 0 .246.326c.117.082.26.123.426.123a.82.82 0 0 0 .428-.113c.126-.075.224-.184.295-.326a1.11 1.11 0 0 0 .106-.502c0-.191-.035-.357-.106-.499s-.169-.251-.295-.326a.82.82 0 0 0-.428-.113c-.166 0-.308.041-.426.123a.64.64 0 0 0-.246.326h0v-.426h-.379v2.705h.379zm.556-1.185a.55.55 0 0 1-.286-.075.53.53 0 0 1-.2-.211.66.66 0 0 1-.073-.319.67.67 0 0 1 .073-.318.53.53 0 0 1 .2-.213.55.55 0 0 1 .286-.075.53.53 0 0 1 .406.163.62.62 0 0 1 .153.443c0 .189-.051.337-.153.444s-.237.161-.406.161zm3.551.313v-.506h.329v-.333h-.329v-1.531h-.406l-1.168 1.544v.319h1.191v.506h.383zm-.356-.839h-.825l.825-1.078v1.078zm18.448-6.626a.88.88 0 0 0 .416-.09.61.61 0 0 0 .253-.238.64.64 0 0 0 .083-.321c0-.149-.033-.268-.098-.359a.66.66 0 0 0-.24-.208 2.44 2.44 0 0 0-.364-.141l-.278-.105a.46.46 0 0 1-.168-.123c-.044-.052-.067-.118-.067-.198a.29.29 0 0 1 .097-.235c.065-.055.15-.082.256-.082.118 0 .21.032.278.095a.4.4 0 0 1 .125.228h0 .409a.65.65 0 0 0-.241-.453c-.141-.115-.331-.173-.571-.173a.96.96 0 0 0-.399.078c-.115.052-.204.126-.266.221s-.093.206-.093.333c0 .144.032.261.097.349a.65.65 0 0 0 .235.203 2.44 2.44 0 0 0 .358.14l.283.106a.49.49 0 0 1 .173.128c.047.054.07.124.07.208 0 .098-.032.177-.095.24s-.153.093-.268.093c-.129 0-.231-.037-.308-.11s-.12-.161-.131-.263h0-.406a.67.67 0 0 0 .13.353.75.75 0 0 0 .303.238 1.04 1.04 0 0 0 .429.085zm2.053-.023v-.329h-.183c-.098 0-.166-.02-.205-.06s-.058-.112-.058-.216h0v-.905h.443v-.323h-.443v-.456h-.383v.456h-.263v.323h.263v.899c0 .22.05.377.151.471s.249.141.444.141h0 .233zm1.171.023c.153 0 .292-.028.416-.085a.79.79 0 0 0 .456-.577h0-.406a.4.4 0 0 1-.161.256.53.53 0 0 1-.321.097.51.51 0 0 1-.363-.136c-.098-.091-.15-.231-.156-.419h0 1.411a.88.88 0 0 0 .013-.163.88.88 0 0 0-.108-.434.77.77 0 0 0-.309-.306.96.96 0 0 0-.471-.111c-.18 0-.334.038-.471.113a.8.8 0 0 0-.321.326 1.02 1.02 0 0 0-.116.499 1.04 1.04 0 0 0 .116.502c.077.141.185.251.321.326a.96.96 0 0 0 .471.113zm.506-1.038h-1.042c.009-.177.063-.312.163-.403s.224-.136.373-.136c.093 0 .179.019.258.058s.141.099.186.18a.57.57 0 0 1 .062.301h0zm1.128 1.887v-1.298a.65.65 0 0 0 .246.326c.117.082.26.123.426.123a.82.82 0 0 0 .428-.113c.126-.075.224-.184.295-.326a1.11 1.11 0 0 0 .106-.502c0-.191-.035-.357-.106-.499s-.169-.251-.295-.326a.82.82 0 0 0-.428-.113c-.166 0-.308.041-.426.123a.64.64 0 0 0-.246.326h0v-.426h-.379v2.705h.379zm.556-1.185a.55.55 0 0 1-.286-.075.53.53 0 0 1-.2-.211.66.66 0 0 1-.073-.319.67.67 0 0 1 .073-.318.53.53 0 0 1 .2-.213.55.55 0 0 1 .286-.075.53.53 0 0 1 .406.163.62.62 0 0 1 .153.443c0 .189-.051.337-.153.444s-.237.161-.406.161zm2.972.326c.262 0 .461-.076.599-.228s.206-.351.206-.597a.92.92 0 0 0-.078-.383.64.64 0 0 0-.241-.278.74.74 0 0 0-.409-.105c-.118 0-.225.021-.323.062a.54.54 0 0 0-.226.165h0v-.699h1.161v-.336h-1.511v1.354h.369c.035-.073.092-.132.168-.176s.166-.067.268-.067a.44.44 0 0 1 .333.121.46.46 0 0 1 .116.334.55.55 0 0 1-.113.363c-.075.091-.189.136-.339.136a.44.44 0 0 1-.301-.103.46.46 0 0 1-.148-.283h0-.373a.72.72 0 0 0 .246.522c.151.131.349.196.596.196zm20.11-7.477a.88.88 0 0 0 .416-.09.61.61 0 0 0 .253-.238.64.64 0 0 0 .083-.321c0-.149-.033-.268-.098-.359a.66.66 0 0 0-.24-.208 2.44 2.44 0 0 0-.364-.141l-.278-.105a.46.46 0 0 1-.168-.123c-.044-.052-.067-.118-.067-.198a.29.29 0 0 1 .097-.235c.065-.055.15-.082.256-.082.118 0 .21.032.278.095a.4.4 0 0 1 .125.228h0 .409a.65.65 0 0 0-.241-.453c-.141-.115-.331-.173-.571-.173a.96.96 0 0 0-.399.078c-.115.052-.204.126-.266.221s-.093.206-.093.333c0 .144.032.261.097.349a.65.65 0 0 0 .235.203 2.44 2.44 0 0 0 .358.14l.283.106a.49.49 0 0 1 .173.128c.047.054.07.124.07.208 0 .098-.032.177-.095.24s-.153.093-.268.093c-.129 0-.231-.037-.308-.11s-.12-.161-.131-.263h0-.406a.67.67 0 0 0 .13.353.75.75 0 0 0 .303.238 1.04 1.04 0 0 0 .429.085zm2.053-.023v-.329h-.183c-.098 0-.166-.02-.205-.06s-.058-.112-.058-.216h0v-.905h.443v-.323h-.443v-.456h-.383v.456h-.263v.323h.263v.899c0 .22.05.377.151.471s.249.141.444.141h0 .233zm1.171.023c.153 0 .292-.028.416-.085a.79.79 0 0 0 .456-.577h0-.406a.4.4 0 0 1-.161.256.53.53 0 0 1-.321.097.51.51 0 0 1-.363-.136c-.098-.091-.15-.231-.156-.419h0 1.411a.88.88 0 0 0 .013-.163.88.88 0 0 0-.108-.434.77.77 0 0 0-.309-.306.96.96 0 0 0-.471-.111c-.18 0-.334.038-.471.113a.8.8 0 0 0-.321.326 1.02 1.02 0 0 0-.116.499 1.04 1.04 0 0 0 .116.502c.077.141.185.251.321.326a.96.96 0 0 0 .471.113zm.506-1.038h-1.042c.009-.177.063-.312.163-.403s.224-.136.373-.136c.093 0 .179.019.258.058s.141.099.186.18a.57.57 0 0 1 .062.301h0zm1.128 1.887v-1.298a.65.65 0 0 0 .246.326c.117.082.26.123.426.123a.82.82 0 0 0 .428-.113c.126-.075.224-.184.295-.326a1.11 1.11 0 0 0 .106-.502c0-.191-.035-.357-.106-.499s-.169-.251-.295-.326a.82.82 0 0 0-.428-.113c-.166 0-.308.041-.426.123a.64.64 0 0 0-.246.326h0v-.426h-.379v2.705h.379zm.556-1.185a.55.55 0 0 1-.286-.075.53.53 0 0 1-.2-.211.66.66 0 0 1-.073-.319.67.67 0 0 1 .073-.318.53.53 0 0 1 .2-.213.55.55 0 0 1 .286-.075.53.53 0 0 1 .406.163.62.62 0 0 1 .153.443c0 .189-.051.337-.153.444s-.237.161-.406.161zm2.955.336c.175 0 .323-.035.443-.105s.21-.164.27-.283.09-.253.09-.404c0-.251-.065-.445-.196-.582s-.312-.206-.542-.206c-.151 0-.282.035-.393.106s-.183.166-.216.286h0l-.003-.113c0-.286.042-.496.126-.631s.211-.201.379-.201c.233 0 .369.131.409.393h0 .359a.83.83 0 0 0-.215-.506c-.123-.131-.3-.196-.531-.196-.308 0-.53.104-.666.313s-.203.524-.203.945c0 .368.063.658.19.869s.359.316.699.316zm-.013-.329c-.164 0-.288-.048-.373-.145a.53.53 0 0 1-.126-.361.4.4 0 0 1 .146-.333c.098-.078.212-.116.343-.116.144 0 .258.042.343.126s.126.205.126.363c0 .146-.042.261-.125.343s-.195.123-.334.123zm19.499-7.367a.88.88 0 0 0 .416-.09.61.61 0 0 0 .253-.238.64.64 0 0 0 .083-.321c0-.149-.033-.268-.098-.359a.66.66 0 0 0-.24-.208 2.44 2.44 0 0 0-.364-.141l-.278-.105a.46.46 0 0 1-.168-.123c-.044-.052-.067-.118-.067-.198a.29.29 0 0 1 .097-.235c.065-.055.15-.082.256-.082.118 0 .21.032.278.095a.4.4 0 0 1 .125.228h0 .409a.65.65 0 0 0-.241-.453c-.141-.115-.331-.173-.571-.173a.96.96 0 0 0-.399.078c-.115.052-.204.126-.266.221s-.093.206-.093.333c0 .144.032.261.097.349a.65.65 0 0 0 .235.203 2.44 2.44 0 0 0 .358.14l.283.106a.49.49 0 0 1 .173.128c.047.054.07.124.07.208 0 .098-.032.177-.095.24s-.153.093-.268.093c-.129 0-.231-.037-.308-.11s-.12-.161-.131-.263h0-.406a.67.67 0 0 0 .13.353.75.75 0 0 0 .303.238 1.04 1.04 0 0 0 .429.085zm2.053-.023v-.329h-.183c-.098 0-.166-.02-.205-.06s-.058-.112-.058-.216h0v-.905h.443v-.323h-.443v-.456h-.383v.456h-.263v.323h.263v.899c0 .22.05.377.151.471s.249.141.444.141h0 .233zm1.171.023c.153 0 .292-.028.416-.085a.79.79 0 0 0 .456-.577h0-.406a.4.4 0 0 1-.161.256.53.53 0 0 1-.321.097.51.51 0 0 1-.363-.136c-.098-.091-.15-.231-.156-.419h0 1.411a.88.88 0 0 0 .013-.163.88.88 0 0 0-.108-.434.77.77 0 0 0-.309-.306.96.96 0 0 0-.471-.111c-.18 0-.334.038-.471.113a.8.8 0 0 0-.321.326 1.02 1.02 0 0 0-.116.499 1.04 1.04 0 0 0 .116.502c.077.141.185.251.321.326a.96.96 0 0 0 .471.113zm.506-1.038h-1.042c.009-.177.063-.312.163-.403s.224-.136.373-.136c.093 0 .179.019.258.058s.141.099.186.18a.57.57 0 0 1 .062.301h0zm1.128 1.887v-1.298a.65.65 0 0 0 .246.326c.117.082.26.123.426.123a.82.82 0 0 0 .428-.113c.126-.075.224-.184.295-.326a1.11 1.11 0 0 0 .106-.502c0-.191-.035-.357-.106-.499s-.169-.251-.295-.326a.82.82 0 0 0-.428-.113c-.166 0-.308.041-.426.123a.64.64 0 0 0-.246.326h0v-.426h-.379v2.705h.379zm.556-1.185a.55.55 0 0 1-.286-.075.53.53 0 0 1-.2-.211.66.66 0 0 1-.073-.319.67.67 0 0 1 .073-.318.53.53 0 0 1 .2-.213.55.55 0 0 1 .286-.075.53.53 0 0 1 .406.163.62.62 0 0 1 .153.443c0 .189-.051.337-.153.444s-.237.161-.406.161zm2.586.313l.875-2.077v-.286h-1.551v.329h1.165l-.889 2.033h.399z"/><path d="M204.073 37.045a.88.88 0 0 0 .416-.09.61.61 0 0 0 .253-.238.64.64 0 0 0 .083-.321c0-.149-.033-.268-.098-.359a.66.66 0 0 0-.24-.208 2.44 2.44 0 0 0-.364-.141l-.278-.105a.46.46 0 0 1-.168-.123c-.044-.052-.067-.118-.067-.198a.29.29 0 0 1 .097-.235c.065-.055.15-.082.256-.082.118 0 .21.032.278.095a.4.4 0 0 1 .125.228h0 .409a.65.65 0 0 0-.241-.453c-.141-.115-.331-.173-.571-.173a.96.96 0 0 0-.399.078c-.115.052-.204.126-.266.221s-.093.206-.093.333c0 .144.032.261.097.349a.65.65 0 0 0 .235.203 2.44 2.44 0 0 0 .358.14l.283.106a.49.49 0 0 1 .173.128c.047.054.07.124.07.208 0 .098-.032.177-.095.24s-.153.093-.268.093c-.129 0-.231-.037-.308-.11s-.12-.161-.131-.263h0-.406a.67.67 0 0 0 .13.353.75.75 0 0 0 .303.238 1.04 1.04 0 0 0 .429.085zm2.053-.023v-.329h-.183c-.098 0-.166-.02-.205-.06s-.058-.112-.058-.216h0v-.905h.443v-.323h-.443v-.456h-.383v.456h-.263v.323h.263v.899c0 .22.05.377.151.471s.249.141.444.141h0 .233zm1.171.023c.153 0 .292-.028.416-.085a.79.79 0 0 0 .456-.577h0-.406a.4.4 0 0 1-.161.256.53.53 0 0 1-.321.097.51.51 0 0 1-.363-.136c-.098-.091-.15-.231-.156-.419h0 1.411a.88.88 0 0 0 .013-.163.88.88 0 0 0-.108-.434.77.77 0 0 0-.309-.306.96.96 0 0 0-.471-.111c-.18 0-.334.038-.471.113a.8.8 0 0 0-.321.326 1.02 1.02 0 0 0-.116.499 1.04 1.04 0 0 0 .116.502c.077.141.185.251.321.326a.96.96 0 0 0 .471.113zm.506-1.038h-1.042c.009-.177.063-.312.163-.403s.224-.136.373-.136c.093 0 .179.019.258.058s.141.099.186.18a.57.57 0 0 1 .062.301h0zm1.128 1.887v-1.298a.65.65 0 0 0 .246.326c.117.082.26.123.426.123a.82.82 0 0 0 .428-.113c.126-.075.224-.184.295-.326a1.11 1.11 0 0 0 .106-.502c0-.191-.035-.357-.106-.499s-.169-.251-.295-.326a.82.82 0 0 0-.428-.113c-.166 0-.308.041-.426.123a.64.64 0 0 0-.246.326h0v-.426h-.379v2.705h.379zm.556-1.185a.55.55 0 0 1-.286-.075.53.53 0 0 1-.2-.211.66.66 0 0 1-.073-.319.67.67 0 0 1 .073-.318.53.53 0 0 1 .2-.213.55.55 0 0 1 .286-.075.53.53 0 0 1 .406.163.62.62 0 0 1 .153.443c0 .189-.051.337-.153.444s-.237.161-.406.161zm2.908.373c.262 0 .474-.064.636-.191a.64.64 0 0 0 .243-.534c0-.149-.04-.275-.12-.378s-.194-.178-.343-.225a.57.57 0 0 0 .301-.203.55.55 0 0 0 .101-.333.56.56 0 0 0-.095-.316.66.66 0 0 0-.28-.23 1.04 1.04 0 0 0-.444-.087 1.04 1.04 0 0 0-.444.087.65.65 0 0 0-.278.23c-.062.095-.093.201-.093.316a.55.55 0 0 0 .101.333.57.57 0 0 0 .301.203.67.67 0 0 0-.343.225.6.6 0 0 0-.12.378.64.64 0 0 0 .241.534c.161.127.372.191.634.191zm0-1.428a.49.49 0 0 1-.321-.098c-.079-.065-.118-.158-.118-.278s.04-.213.12-.28a.48.48 0 0 1 .319-.1.49.49 0 0 1 .321.1c.081.067.121.16.121.28s-.04.212-.12.278a.49.49 0 0 1-.323.098zm0 1.115c-.155 0-.278-.038-.369-.115s-.136-.182-.136-.318.048-.238.143-.309a.59.59 0 0 1 .363-.106c.149 0 .27.035.364.105s.141.174.141.311a.39.39 0 0 1-.136.318c-.091.077-.214.115-.369.115zm19.382-7.212a.88.88 0 0 0 .416-.09.61.61 0 0 0 .253-.238.64.64 0 0 0 .083-.321c0-.149-.033-.268-.098-.359a.66.66 0 0 0-.24-.208 2.44 2.44 0 0 0-.364-.141l-.278-.105a.46.46 0 0 1-.168-.123c-.044-.052-.067-.118-.067-.198a.29.29 0 0 1 .097-.235c.065-.055.15-.082.256-.082.118 0 .21.032.278.095a.4.4 0 0 1 .125.228h0 .409a.65.65 0 0 0-.241-.453c-.141-.115-.331-.173-.571-.173a.96.96 0 0 0-.399.078c-.115.052-.204.126-.266.221s-.093.206-.093.333c0 .144.032.261.097.349a.65.65 0 0 0 .235.203 2.44 2.44 0 0 0 .358.14l.283.106a.49.49 0 0 1 .173.128c.047.054.07.124.07.208 0 .098-.032.177-.095.24s-.153.093-.268.093c-.129 0-.231-.037-.308-.11s-.12-.161-.131-.263h0-.406a.67.67 0 0 0 .13.353.75.75 0 0 0 .303.238 1.04 1.04 0 0 0 .429.085zm2.053-.023v-.329h-.183c-.098 0-.166-.02-.205-.06s-.058-.112-.058-.216h0v-.905h.443V27.7h-.443v-.456h-.383v.456h-.263v.323h.263v.899c0 .22.05.377.151.471s.249.141.444.141h0 .233zm1.171.023c.153 0 .292-.028.416-.085a.79.79 0 0 0 .456-.577h0-.406a.4.4 0 0 1-.161.256.53.53 0 0 1-.321.097.51.51 0 0 1-.363-.136c-.098-.091-.15-.231-.156-.419h0 1.411a.88.88 0 0 0 .013-.163.88.88 0 0 0-.108-.434.77.77 0 0 0-.309-.306.96.96 0 0 0-.471-.111c-.18 0-.334.038-.471.113a.8.8 0 0 0-.321.326 1.02 1.02 0 0 0-.116.499 1.04 1.04 0 0 0 .116.502c.077.141.185.251.321.326a.96.96 0 0 0 .471.113zm.506-1.038h-1.042c.009-.177.063-.312.163-.403s.224-.136.373-.136c.093 0 .179.019.258.058s.141.099.186.18a.57.57 0 0 1 .062.301h0zm1.128 1.887v-1.298a.65.65 0 0 0 .246.326c.117.082.26.123.426.123a.82.82 0 0 0 .428-.113c.126-.075.224-.184.295-.326a1.11 1.11 0 0 0 .106-.502c0-.191-.035-.357-.106-.499s-.169-.251-.295-.326a.82.82 0 0 0-.428-.113c-.166 0-.308.041-.426.123a.64.64 0 0 0-.246.326h0V27.7h-.379v2.705h.379zm.556-1.185a.55.55 0 0 1-.286-.075.53.53 0 0 1-.2-.211.66.66 0 0 1-.073-.319.67.67 0 0 1 .073-.318.53.53 0 0 1 .2-.213.55.55 0 0 1 .286-.075.53.53 0 0 1 .406.163.62.62 0 0 1 .153.443c0 .189-.051.337-.153.444s-.237.161-.406.161zm2.865.339c.302 0 .517-.109.647-.326s.195-.534.195-.948c0-.366-.064-.653-.191-.86s-.361-.311-.7-.311c-.175 0-.323.035-.443.105s-.21.165-.27.285-.09.255-.09.406c0 .248.065.442.196.581s.312.208.542.208c.149 0 .279-.036.391-.108s.186-.168.221-.288h0l.003.113c0 .288-.042.5-.125.634s-.209.201-.378.201c-.12 0-.215-.034-.285-.103s-.114-.166-.131-.293h0-.359a.8.8 0 0 0 .228.507c.132.132.314.198.547.198zm-.027-1.158c-.144 0-.258-.042-.341-.126s-.125-.205-.125-.363c0-.149.042-.264.125-.346a.45.45 0 0 1 .331-.123c.166 0 .291.048.374.145s.125.217.125.361c0 .098-.023.18-.07.248a.44.44 0 0 1-.181.153.56.56 0 0 1-.238.052z"/></g></g><defs ><path id="B" d="M18.869 28.894a1.49 1.49 0 0 0 1.134-.714c.027-.045.051-.108.015-.147-.028-.023-.064-.034-.099-.03-.366-.003-.73.06-1.075.185-.041.009-.076.036-.096.072-.009.028-.009.059 0 .088l.138.532"/></defs></svg>