<svg xmlns="http://www.w3.org/2000/svg" xmlns:xlink="http://www.w3.org/1999/xlink" width="395" height="242" xmlns:v="https://vecta.io/nano"><style><![CDATA[.B{stroke-linejoin:round}.C{stroke-width:.576}.D{stroke-linecap:round}.E{fill:#fff}.F{fill-rule:nonzero}.G{fill:#263238}.H{stroke:#263238}.I{stroke-width:3.456}]]></style><g fill="none" fill-rule="evenodd"><g stroke="#000" class="B C"><g opacity=".2"><g class="D"><path d="M243.507.576h4.257"/><path d="M250.903.576h8.041v46.08h-37.44V.576h17.965"/></g><path d="M261.248.576h37.44v46.08h-37.44z"/><path d="M329.158.576h9.274v46.08h-37.44V.576h23.904m53.28 34.721v11.359h-37.44V.576h37.44v32.273" class="D"/><path d="M221.504 49.536h37.44v46.08h-37.44z"/><path d="M261.248 63.982V49.536h37.44v46.08h-37.44V68.147" class="D"/><path d="M300.992 49.536h37.44v46.08h-37.44z"/><path d="M350.108 49.536h28.068v46.08h-37.44v-46.08h6.428" class="D"/><path d="M221.504 98.496h37.44v46.08h-37.44zm39.744 0h37.44v46.08h-37.44zm39.744 0h37.44v46.08h-37.44z"/><g class="D"><path d="M378.176 137.278v7.298h-37.44v-29.848"/><path d="M378.176 130.418v4.164m-37.44-23.777V98.496h37.44v29.226"/></g><path d="M221.504 147.456h37.44v46.08h-37.44zm39.744 0h37.44v46.08h-37.44zm39.744 0h37.44v46.08h-37.44z"/><path d="M349.618 193.536h-8.882v-46.08h37.44v46.08h-24.883" class="D"/></g><g opacity=".2" class="D"><path d="M26.586 80.064h44.006V1.728H8.96v78.336h13.461"/><path d="M57.476 5.184H32.714"/><path d="M11.679 37.014v39.594h56.195V5.184h-7.212"/><path d="M28.797 5.184H11.679v27.907m36.725-8.669H26.816V57.37h16.445m2.695 0h6.78V24.422H51.1"/></g><g opacity=".2"><circle cx="101.12" cy="26.496" r="22.942"/><circle cx="101.12" cy="26.496" r="19.722"/><path d="M95.665 32.475l5.455-5.979h16.03" class="D"/></g></g><g class="H"><g class="B D"><path d="M.378 238.101h393.35" class="C E F"/><path d="M327.419 180.864l2.592 55.296m-14.222-55.296l2.88 55.296m-39.951-55.296l-3.744 55.296m-4.729-55.296l-8.928 55.296" class="I"/></g><g class="C F B"><g fill="gray"><path d="M329.135 120.551l.19 58.372h-52.94l1.889-58.372z"/><path d="M329.325 182.079h-63.107v-3.324h63.107z"/><path d="M319.672 182.079h-53.453v-3.324h53.453z"/></g><path d="M279.599 148.608s-4.902 7.488-5.674 13.144.518 12.096 4.124 14.435a18.13 18.13 0 0 0 7.736 2.58h30.672s5.414-1.29 7.736-6.445.772-11.86-.772-15.212l-2.845-6.198-40.977-2.304z" class="G"/><g class="E"><path d="M294.034 89.28s-18.046 6.705-19.077 8.508 7.995 37.377 7.995 37.377l-4.643 14.694a204.41 204.41 0 0 0 21.398 3.358c10.823 1.031 21.393-2.062 21.393-2.062l-4.124-17.28 6.705-36.086-16.163-7.396c-2.915-1.112-11.422-1.348-13.484-1.112z"/><path d="M313.117 92.88l-5.599-2.465c-2.915-1.112-11.422-1.371-13.484-1.112 0 0-4.424 1.642-9.014 3.519l10.305 42.883 9.02 1.284 8.772-44.11z"/><path d="M303.665 153.441l3.162-63.245c-3.387-.927-10.875-1.152-12.793-.893l-1.475.576 3.375 62.963 3.773.409a49.74 49.74 0 0 0 3.957.19z"/><path d="M274.957 97.811s-16.497 45.372-13.663 46.915 35.833 2.062 35.833 2.062v-3.606l-21.888-7.995 4.383-14.175-4.666-23.201z"/><path d="M297.127 143.182l9.539-1.031c.772 0 7.73 4.896 7.73 4.896l-17.28-.259.012-3.606z"/><path d="M323.606 97.811s16.502 45.372 13.663 46.915-35.827 2.062-35.827 2.062v-3.606l21.888-7.995-4.159-13.415 4.435-23.962z"/></g></g><path d="M330.737 134.208a9.83 9.83 0 0 1 1.607.138m-8.992.841c2.081-.499 4.201-.825 6.336-.973" class="D B C"/><g class="F C"><path d="M301.441 143.182l-9.539-1.031c-.772 0-7.736 4.896-7.736 4.896l17.28-.259-.006-3.606z" class="B E"/><path d="M324.51 159.852c-2.062-8.456-10.063-10.034-17.136-10.616s-11.791 1.515-11.791 1.515 11.52.576 12.977 8.456l-4.689 11.364s-.887 2.627 3.537 6.705" class="B D G"/><path d="M305.732 163.336a146.03 146.03 0 0 0 2.373 16.439c1.849 9.13 10.028 42.261 10.558 43.569s6.595 9.913 5.541 13.041-2.373 2.88-4.752.524-4.746-12.263-5.011-13.306-13.985-24.526-18.207-35.222-6.866-16.704-5.541-24.52 6.065-8.064 9.792-7.044 5.247 6.52 5.247 6.52z" class="B E"/><g class="G"><path d="M305.525 166.118l-9.291 22.262-2.488-6.624z"/><path d="M324.205 236.385c.576-1.688-.939-4.977-2.529-7.845-1.918 2.88-3.94 2.586-5.357 1.728.899 2.748 2.016 5.535 3.133 6.641 2.379 2.35 3.698 2.609 4.752-.524z" class="B"/></g><path d="M307.697 156.096s-4.401-7.759-11.313-5.443-21.658 52.848-26.294 60.065c-1.196 1.869-2.486 3.676-3.865 5.414-2.439.677-4.957 1.024-7.488 1.031-4.124 0-7.736 0-4.643 2.575s9.539 4.383 12.891 4.896 5.155-5.927 5.155-5.927 19.849-33.765 23.455-37.377 10.316-15.206 11.601-17.528 1.014-5.403.501-7.707z" class="B E"/><path d="M271.829 219.588l-9.504.922-2.039-3.398-1.567.052c-4.124 0-7.736 0-4.643 2.575s9.539 4.383 12.891 4.896c2.569.397 4.228-3.3 4.861-5.046z" class="B G"/><path d="M288.775 69.327s-2.604 2.085-2.085 4.429-.778 5.985-2.604 6.509 0 2.88 1.302 3.122l1.302.259s1.302 6.509 2.344 7.292 4.948 0 4.948 0 1.302 8.588 3.122 11.192 2.88 3.122 5.184-.259 5.184-11.457 5.184-11.457.783-8.588-1.302-14.579-9.844-13.795-17.395-6.509z" class="B E"/></g></g><path d="M289.178 78.106c0 .668-.236 1.21-.53 1.21s-.53-.541-.53-1.21.242-1.21.53-1.21.53.541.53 1.21z" class="F G"/><g class="H"><path d="M287.819 75.231s1.21-1.359 2.269.455m-1.664 9.562s.755.3 2.569-1.06" class="B C D"/><path d="M290.987 60.636s-5.466 2.258-4.164 7.068 8.853 8.761 11.192 12.718 1.826 8.202 0 9.896-3.122 1.981-3.122 1.981c3.982 2.214 8.461 3.382 13.018 3.393 7.551 0 10.633-7.793 10.109-12.879s-1.884-17.038-7.35-20.736-14.475-3.986-19.682-1.44z" class="B C F G"/><path d="M175.585 180.864l-2.592 55.296m30.816-55.296l-2.88 55.296m16.992-55.296l3.744 55.296m11.232-55.296l8.928 55.296" class="D I B"/><g class="C F"><g fill="gray" class="B"><path d="M171.185 120.551l2.488 58.372h46.581l-4.568-58.372z"/><path d="M173.673 178.756h63.251v3.324h-63.251z"/><path d="M199.403 178.756h37.521v3.324h-37.521z"/></g><path d="M179.456 149.495s-2.339 21.11-1.561 23.869c.681 2.474 2.598 4.417 5.063 5.132 2.143.576 31.882 0 32.705 0 4.735.092 5.679-2.339 5.841-7.102.179-5.184-.576-23.363-.576-23.363l-41.472 1.463z" class="B G"/><path d="M189.576 91.958s-17.47 6.912-16.894 8.064 5.76 34.762 5.973 35.712.576 12.096.576 13.052 1.152 2.69 2.304 2.88c6.013 1.002 12.551.484 18.634.576l12.326.04c2.419 0 8.064 1.152 8.968-1.549.386-2.114.369-49.536.576-51.84s-2.108-2.88-4.608-4.222-14.014-4.418-15.166-4.418-12.689 1.705-12.689 1.705z" class="B E"/><path d="M194.588 102.92l3.894 5.455-4.447 33.333 7.004 7.402 5.645-8.565-5.668-32.757 2.529-5.449-7.206-4.09z" class="B G"/><g class="E B"><path d="M190.918 90.23s-2.304.766-2.494 2.304.386 13.634.386 13.634l7.488-2.88 3.26-.76 8.461 1.572s-.202-6.947-1.549-10.403-2.88-4.608-4.032-4.798-11.52 1.331-11.52 1.331z"/><path d="M189.766 89.654l2.88 9.216c.766 1.342 5.76 5.374 6.912 3.646s2.304-6.336 2.5-6.912.38-6.716.38-6.716-9.216 3.272-12.672.766z"/></g><g class="G"><path d="M193.533 94.666s.213.323 3.041 1.521a12.16 12.16 0 0 0 4.884 1.083l.541-2.062.328-5.541-8.796 5z"/><path d="M207.956 75.064s.674-6.29 0-9.884-4.493-4.712-7.413-5.184-15.27.674-16.842 4.032 1.797 6.06 1.797 6.06-2.022 1.348-1.123 3.145 2.022 4.268 2.022 4.268l1.348-5.184 9.429.225 3.594.899 3.819 4.717s2.022.449 2.696-.449.674-2.644.674-2.644z" class="B"/></g></g><path d="M186.696 76.608s-1.918-2.108-1.918.196 2.304 4.608 2.304 4.608l-.386-4.804z" class="B C"/><path d="M186.397 70.796s.225 12.574.674 15.045 5.841 8.986 6.964 8.986 2.69.449 4.032-.674 6.964-6.29 7.413-7.862a31.83 31.83 0 0 0 .674-4.712s3.594-1.797 3.145-4.493-1.797-2.92-2.471-2.246c-.642.713-1.242 1.463-1.797 2.246 0 0-.449-2.246-1.348-3.145s-3.594-1.348-3.145-2.246l2.471-4.942s-4.268 3.594-8.306 4.268c-2.763.375-5.568.299-8.306-.225z" class="B C E F"/></g><path d="M190.584 76.971c0 .628-.317 1.152-.714 1.152s-.714-.501-.714-1.152.323-1.152.714-1.152.714.53.714 1.152zm7.252 0c0 .628-.317 1.152-.714 1.152s-.714-.501-.714-1.152.323-1.152.714-1.152.714.53.714 1.152z" class="G F"/><g class="B H"><g class="C"><path d="M192.485 76.677s-1.665 6.417-.95 6.774 4.758-1.187 4.758-1.187" class="D"/><path d="M191.552 83.451c-.971.353-1.891.833-2.736 1.428-1.066.829.835 1.544 3.329 1.544s5.708-.115 7.137-.829.236-1.308-.95-1.786a21.31 21.31 0 0 0-3.329-.829l-3.45.472z" class="F G"/><path d="M188.326 74.419s1.071-1.192 3.093-.242m3.445.127a3.6 3.6 0 0 1 4.28.714" class="D"/><path d="M172.682 100.022l-12.096 35.136c0 .576-1.728 3.836 0 5.95s4.798 2.88 6.526 2.114 10.754-16.704 10.754-16.704l-5.184-26.496z" class="E F"/><g class="D"><path d="M173.742 112.89l-.605-1.958m3.917 12.683l-2.713-8.778"/><path d="M163.293 130.562l34.756-14.786.766 3.646-28.224 21.888c-1.918 1.532-2.69 2.69-5.184 2.69s-5.76-2.304-5.76-5.374a14.47 14.47 0 0 1 1.342-5.76" class="E F"/><path d="M194.156 117.78l1.308 3.272"/></g><path d="M198.049 115.776l1.532-4.798c.38-.576 2.69-2.114 3.652-2.88s2.494-2.114 2.684-1.152-2.304 3.836-2.304 3.836 3.842-1.918 5.184-2.108a14.52 14.52 0 0 1 3.986-.207c.962.19-.035.732-.144 2.125-.184 2.304-4.222 4.418-5.374 5.57s-8.45 3.26-8.45 3.26l-.766-3.646z" class="E F"/><path d="M212.455 109.774l-6.86 2.287m6.537-.161l-5.887 2.125m1.965 1.469l-1.475.49m-3.122-5.202l-2.269.138" class="D"/><path d="M221.642 97.528l4.608 11.324c1.077 2.39 5.973 12.298 5.973 12.298l9.216-19.964 4.994 2.108s-7.874 24.768-9.602 28.42-1.342 6.526-4.032 6.336-10.944-8.64-10.944-8.64l-.213-31.882z" class="E F"/><path d="M232.223 121.15l-3.75 6.762m2.287-4.245l-3.105 2.448m12.586-21.732l4.902 2.448" class="D"/><path d="M241.439 101.186s-.19-5.38.386-6.532 2.684-4.222 2.88-4.988 1.152-2.114 1.342-.772c.089 1.029.025 2.066-.19 3.076 0 0 2.494-2.304 2.684-3.076s0-3.456.772-3.456 1.532.576 2.304 2.88 0 5.956-.386 7.298-4.222 6.526-4.222 6.526l-.576 1.152-4.994-2.108z" class="E F"/><path d="M251.681 89.856s-.328-1.308-.651-.323l-1.308 4.735s-5.069 3.456-5.069 4.418v.962" class="D"/><g class="F"><path d="M222.846 228.718l4.372 5.818s5.835 1.526 5.875 2.131-2.085 1.492-2.085 1.492l-5.656.881-8.312-3.001c-1.613-.374-3.099.04-2.627-1.82l1.227-5.708 7.206.207z" class="E"/><path d="M207.467 169.142s4.476-7.978 10.708-11.094 11.681-1.953 16.739-1.953 13.628.778 14.602 1.947-26.669 70.669-26.669 70.669l-7.206-.196s5.259-23.363 6.036-28.8l2.707-21.226s-13.501 0-19.728-.219m-23.472-19.818s.196-2.92 6.422-3.116 12.851-.778 13.628 2.92.973 60.353.973 62.3.576 6.618.576 6.618l-7.206.576-10.892-38.344c-1.561-7.01-1.359-23.944-1.359-25.309" class="D G"/><path d="M202.796 227.174s2.529 8.565 3.11 9.539.973 1.561-.778 2.724-5.253 1.947-7.396 1.365-2.534-4.285-2.143-7.396c.236-1.876.236-3.774 0-5.651l7.206-.582z" class="E"/></g></g><path d="M86.881 180.864l-8.928 55.296m38.88-55.296l-8.928 55.296m21.312-55.296l8.928 55.296m22.176-55.296l8.928 55.296" class="D I"/><g class="C F"><g fill="gray"><path d="M72.113 120.551l12.856 58.372h41.973l-14.936-58.372z"/><path d="M84.969 178.756h79.379v3.324H84.969z"/><path d="M137.483 178.756h26.865v3.324h-26.865z"/></g><path d="M96.287 94.464l-15.938 8.64 8.45 51.84s-.386 1.342.576 1.918 3.646.772 3.646.772h31.3c1.124-.354 2.123-1.021 2.88-1.924.956-1.342.956-2.108.956-3.456s3.266-49.916 2.69-50.878c-.444-.691-.96-1.334-1.538-1.918l-16.508-6.532-16.514 1.538z" class="E"/><path d="M107.652 106.168l3.756 2.58-1.048 36.357 7.01 7.402 5.645-8.565-9.078-35.781 2.534-5.449-7.206-4.09z" class="G"/><path d="M119.517 64.126l2.304 6.912-.956 2.69 3.07 5.184-2.114 1.342s1.152 7.108.772 7.684-8.45 1.152-8.45 1.152l-1.152 11.52-12.862-7.488v-11.33s-4.228-15.938-3.266-17.28 7.488-4.032 15.362-4.994 9.02-1.728 9.406.576-2.114 4.032-2.114 4.032z" class="E"/><path d="M121.631 60.094c-.386-2.304-1.538-1.532-9.406-.576s-14.4 3.652-15.362 4.994 3.266 17.28 3.266 17.28v3.076c.508.081 1.025.081 1.532 0 2.114-.38 4.994-3.26 4.994-3.26s-2.88 1.728-4.032 0a7.73 7.73 0 0 1-1.152-5.76c.386-1.924 3.266-1.348 3.266-.386s1.152 2.88 2.108 2.494 1.152-4.798 1.152-4.798 4.032-2.69 4.228-4.032-1.152-3.456-1.152-3.456l8.444-1.538s2.5-1.734 2.114-4.038z" class="G"/></g><path d="M119.713 71.81s-2.304-.772-3.652.956" class="C D"/></g><path d="M119.903 74.402c0 .685-.259 1.244-.576 1.244s-.576-.576-.576-1.244.259-1.25.576-1.25.576.576.576 1.25z" class="F G"/><g class="H C"><g class="B"><path d="M121.055 82.178s-2.494.576-3.456-.386" class="D"/><g class="F"><path d="M114.143 89.09h-4.418l3.652 5.95z" class="G"/><g class="E"><path d="M100.129 91.008l-4.804 3.842 11.716 13.438 5.95-7.678z"/><path d="M112.991 100.61l4.418 5.76-1.348-12.096-2.108-2.5zm17.856.766l15.742 37.826-10.558 4.222-6.722-11.906z"/><path d="M119.137 139.006l17.856-2.88c4.032-.772 7.292-.19 9.216 1.924s1.532 6.14.956 7.102-5.76 1.342-9.216 1.342-14.014-2.684-16.128-3.26l-2.108-.576-.576-3.652z"/><path d="M131.999 144.576s5.184.766 5.57 1.342 4.608 5.38 5.184 5.956.956 5.95.956 5.95-1.342.962-1.728.386-4.798-6.146-4.798-6.146-5.57-1.918-5.95-3.07l-.386-1.152 1.152-3.266z"/><path d="M80.349 103.104s9.602 43.776 10.368 43.966 40.13.772 40.13.772l1.152-3.266-32.642-8.254-2.108-29.186" class="D"/></g><path d="M147.361 161.009s20.736 4.902 22.268 5.841.772 4.337-.19 7.165-30.338 53.148-30.338 53.148l-4.412-1.152 13.438-47.681h-16.894l16.128-17.32z" class="G"/><path d="M139.101 227.163l3.456 7.914s4.804 3.577 4.608 4.147-2.494.576-2.494.576l-5.57-1.336-6.526-5.846c-1.342-.945-2.88-1.152-1.728-2.638 1.195-1.4 2.478-2.722 3.842-3.957l4.412 1.14z" class="E"/><path d="M89.375 156.862s-.962 10.368-.962 13.006 2.114 6.785 5.956 8.294 48.574 0 48.574 0l17.666 54.276 5.184-1.889-6.532-60.48c0-1.308-.576-6.031-2.494-6.975s-32.446-5.466-32.446-5.466l-34.946-.766z" class="G"/><g class="E"><path d="M165.793 230.55s9.982 1.319 11.134 1.152 4.798-.945 3.646.939-8.64 3.957-11.71 5.276-6.146 3.393-7.102 1.889-1.152-7.35-1.152-7.35l5.184-1.907zm-53.954-94.424h-3.646l-3.842 4.418s-1.152 2.69 0 2.69 3.842.576 5.57 0l6.526-2.5c-.494-2.309-2.299-4.114-4.608-4.608z"/><path d="M113.757 136.898l5.38 2.108.766 2.304-3.456-.576z"/></g></g><path d="M104.138 141.696s5.075-4.441 6.388-4.994m-5.46 6.25s6.739-5.685 8.133-5.685m-5.576 6.266s4.879-4.527 7.085-4.758" class="D"/></g><g class="F"><g class="B E"><path d="M71.007 148.366h292.349v13.461H71.007z"/><path d="M73.553 237.997h-3.94l-2.84-89.631h9.619zm290.425 0h-3.94l-2.84-89.631h9.619z"/></g><path d="M366.61 152.744H66.923v-3.168h299.894z" class="G"/><path d="M62.401 146.88h307.296v3.168H62.401z" class="B E"/><g class="B E"><path d="M242.108 135.85s1.388-.576 2.177-.098.991 6.031 0 7.713c-.468.933-1.347 1.592-2.373 1.78l-.196-2.673s.887.495 1.382-1.382.397-3.456.098-3.56c-.339-.014-.677.053-.985.196l-.104-1.976z"/><path d="M231.164 133.154h11.163v14.083h-11.163z"/><use xlink:href="#B"/><path d="M90.585 147.243H79.422V133.16h11.163z"/><use xlink:href="#B" x="264.96"/><path d="M355.545 147.243h-11.163V133.16h11.163z"/></g><path d="M252.458 121.133h45.562v25.937h-45.562z" class="G"/></g></g><path d="M165.246 17.084H120.52c-1.479-.003-2.898.583-3.944 1.628s-1.633 2.464-1.632 3.942v21.312c-.002 1.477.584 2.893 1.628 3.938s2.46 1.632 3.936 1.632h5.46l-2.598 10.673 9.429-10.673h32.435a5.57 5.57 0 0 0 5.57-5.57V22.654a5.57 5.57 0 0 0-5.558-5.57z" class="F G"/><path d="M151.808 26.277h10.679m-28.074 0h14.855m-26.099 0h8.479m23.99 4.683h6.86m-20.021 0h11.676m-30.984 0h18.271m8.254 4.683h12.804m-29.571 0h14.648m-24.406 0h8.064m27.591 4.677h3.675m-15.564 0h9.763m-15.068 0h3.842m-19.976 0h13.375m-15.702 0h1.267" stroke="#fff" class="B C D"/><g class="H B C"><path d="M227.074 21.888h-41.858a5.57 5.57 0 0 0-5.57 5.57v19.653a5.57 5.57 0 0 0 5.57 5.57h29.641v8.796l5.276-8.796h6.947a5.57 5.57 0 0 0 5.57-5.57V27.435a5.57 5.57 0 0 0-5.576-5.547h0z" class="E F"/><path d="M215.496 30.528h10.679m-28.085 0h14.855m-26.099 0h8.484m23.985 4.677h6.86m-20.021 0h11.676m-30.984 0h18.248m8.277 4.683h12.804m-29.571 0h14.648m-24.406 0h8.064m27.59 4.683h3.675m-15.563 0h9.792m-15.097 0h3.819m-19.953 0h13.375m-15.702 0h1.25" class="D"/><path d="M284.829 10.627H242.96a5.57 5.57 0 0 0-5.57 5.57V35.85a5.57 5.57 0 0 0 5.57 5.57h30.666l7.096 11.917-1.152-11.917h5.247a5.57 5.57 0 0 0 5.57-5.57V16.197a5.57 5.57 0 0 0-5.558-5.57z" class="E F"/><path d="M272.803 18.634h10.685m-28.092 0h14.861m-26.105 0h8.484m23.985 4.682h6.866m-20.021 0h11.67m-30.984 0H262.4m8.283 4.683h12.804m-29.577 0h14.648m-24.406 0h8.064m27.591 4.683h3.681m-15.564 0h9.763m-15.074 0h3.819m-19.947 0h13.369m-15.702 0h1.267" class="D"/></g></g><defs ><path id="B" d="M79.635 135.85s-1.382-.576-2.172-.098-.991 6.031 0 7.713c.468.933 1.347 1.592 2.373 1.78l.196-2.673s-.887.495-1.382-1.382-.397-3.456-.098-3.56c.339-.014.677.053.985.196l.098-1.976z"/></defs></svg>