<?xml version="1.0" encoding="UTF-8"?>
<svg width="425px" height="376px" viewBox="0 0 425 376" version="1.1" xmlns="http://www.w3.org/2000/svg" xmlns:xlink="http://www.w3.org/1999/xlink">
    <title>why-us</title>
    <g id="Page-1" stroke="none" stroke-width="1" fill="none" fill-rule="evenodd">
        <g id="why-us" transform="translate(1.000000, 0.000000)">
            <line x1="0" y1="375.352467" x2="423.251964" y2="375.352467" id="Path" stroke="#263238" stroke-width="1.07999991" stroke-linecap="round" stroke-linejoin="round"></line>
            <path d="M296.632774,124.425288 L292.312775,147.904486 L257.083178,169.310084 L261.953977,178.252484 C261.953977,178.252484 302.680774,165.832485 303.674374,162.927285 C304.667974,160.022085 314.053173,129.252888 314.053173,129.252888 L296.632774,124.425288 Z" id="Path" fill="#FFE0CA" fill-rule="nonzero"></path>
            <path d="M312.065973,84.7244916 L309.711573,113.193289 L308.469573,128.129688 C301.676374,131.434488 295.034375,126.466488 294.623975,126.142488 L294.623975,126.142488 C296.470774,120.720888 298.619974,90.1244911 312.065973,84.7244916 Z" id="Path" stroke="#263238" stroke-width="1.07999991" fill="#999999" fill-rule="nonzero" stroke-linecap="round" stroke-linejoin="round"></path>
            <path d="M309.668373,113.193289 L308.426373,128.129688 C301.633174,131.434488 294.991175,126.466488 294.580775,126.142488 C294.872375,126.272088 298.447174,127.784088 300.769174,126.142488 C299.956911,125.265644 299.233388,124.310593 298.609174,123.291288 C298.468774,122.729688 300.769174,122.578488 300.769174,122.578488 C300.769174,122.578488 299.257174,110.471689 303.285574,105.29849 C304.862374,103.33289 307.324774,107.43689 309.668373,113.193289 Z" id="Path" fill="#263238" fill-rule="nonzero"></path>
            <path d="M336.463171,348.363269 L337.543171,351.538469 C335.906357,354.240203 334.072587,356.817588 332.056771,359.249668 C332.056771,359.249668 330.976772,358.904068 329.205572,360.470068 C328.114385,361.558188 327.441399,362.995932 327.304772,364.530867 C327.304772,364.530867 319.053573,374.423667 308.588373,374.564067 C298.123174,374.704467 301.276774,369.434067 301.276774,369.434067 L336.463171,348.363269 Z" id="Path" stroke="#263238" stroke-width="1.07999991" fill="#ED5C37" fill-rule="nonzero" stroke-linecap="round" stroke-linejoin="round"></path>
            <path d="M326.624372,323.188471 C326.624372,323.188471 312.584373,318.015271 309.841173,328.361671 C309.841173,328.361671 312.346773,339.75567 310.845573,345.987269 C309.344373,352.218869 301.784374,364.120467 301.319974,366.377667 C300.401974,370.805667 301.093174,371.108067 301.093174,371.108067 C301.093174,371.108067 306.590374,374.283267 313.977573,370.881267 C321.364772,367.479267 334.151971,352.834468 336.149971,349.821269 C338.147971,346.808069 329.885972,334.92807 329.885972,334.92807 L326.624372,323.188471 Z" id="Path" fill="#FFFFFF" fill-rule="nonzero"></path>
            <path d="M326.624372,323.188471 C326.624372,323.188471 312.584373,318.015271 309.841173,328.361671 C309.841173,328.361671 312.346773,339.75567 310.845573,345.987269 C309.344373,352.218869 301.784374,364.120467 301.319974,366.377667 C300.401974,370.805667 301.093174,371.108067 301.093174,371.108067 C301.093174,371.108067 306.590374,374.283267 313.977573,370.881267 C321.364772,367.479267 334.151971,352.834468 336.149971,349.821269 C338.147971,346.808069 329.885972,334.92807 329.885972,334.92807 L326.624372,323.188471 Z" id="Path" fill="#ED5C37" fill-rule="nonzero" opacity="0.4"></path>
            <path d="M326.624372,323.188471 C326.624372,323.188471 312.584373,318.015271 309.841173,328.361671 C309.841173,328.361671 312.346773,339.75567 310.845573,345.987269 C309.344373,352.218869 301.784374,364.120467 301.319974,366.377667 C300.401974,370.805667 301.093174,371.108067 301.093174,371.108067 C301.093174,371.108067 306.590374,374.283267 313.977573,370.881267 C321.364772,367.479267 334.151971,352.834468 336.149971,349.821269 C338.147971,346.808069 329.885972,334.92807 329.885972,334.92807 L326.624372,323.188471 Z" id="Path" stroke="#263238" stroke-width="1.07999991" stroke-linecap="round" stroke-linejoin="round"></path>
            <path d="M319.442372,337.82247 C320.664161,344.79272 319.423251,351.970908 315.932373,358.126468" id="Path" stroke="#263238" stroke-width="1.07999991" stroke-linecap="round" stroke-linejoin="round"></path>
            <path d="M315.932373,360.848068 C314.873832,363.511733 312.666015,365.552772 309.927573,366.399267 C307.097389,367.156815 304.117758,367.156815 301.287574,366.399267 L304.657174,359.573668 C308.234065,360.998792 312.127628,361.438869 315.932373,360.848068 Z" id="Path" stroke="#263238" stroke-width="1.07999991" fill="#ED5C37" fill-rule="nonzero" stroke-linecap="round" stroke-linejoin="round"></path>
            <path d="M317.919573,356.711668 C317.919573,356.711668 310.575573,357.154468 306.741574,355.631668" id="Path" stroke="#263238" stroke-width="1.07999991" stroke-linecap="round" stroke-linejoin="round"></path>
            <path d="M319.280373,352.661668 C319.280373,352.661668 312.411573,353.741668 308.577573,351.581669" id="Path" stroke="#263238" stroke-width="1.07999991" stroke-linecap="round" stroke-linejoin="round"></path>
            <path d="M320.446772,348.158069 C320.446772,348.158069 314.431173,349.032869 310.499973,347.175269" id="Path" stroke="#263238" stroke-width="1.07999991" stroke-linecap="round" stroke-linejoin="round"></path>
            <path d="M321.116372,343.060469 C321.116372,343.060469 314.420373,345.155669 311.255973,343.060469" id="Path" stroke="#263238" stroke-width="1.07999991" stroke-linecap="round" stroke-linejoin="round"></path>
            <path d="M322.120772,330.46767 L323.287172,337.82247 C323.287172,337.82247 314.431173,343.654469 308.577573,336.36447 L308.577573,328.685671 C308.577573,328.685671 310.780773,333.84807 322.120772,330.46767 Z" id="Path" stroke="#263238" stroke-width="1.07999991" fill="#ED5C37" fill-rule="nonzero" stroke-linecap="round" stroke-linejoin="round"></path>
            <path d="M314.431173,165.368085 C305.456374,193.804482 277.603176,239.412878 280.421976,251.087677 C281.966376,257.459677 291.157175,293.564074 298.349974,309.407672 C301.082374,315.466472 306.989974,319.516471 306.989974,319.516471 L311.255973,328.664071 C321.656372,333.18927 325.382372,323.987671 325.382372,323.987671 L323.287172,313.619672 C328.859972,303.489273 326.527172,303.489273 319.280373,250.979677 C318.427173,244.791278 332.780371,225.664479 332.780371,225.664479 L340.145971,273.789275 L341.344771,313.209272 L345.16797,325.391671 C345.16797,325.391671 346.11837,336.82887 346.03197,337.52007 L363.128369,337.52007 L364.985969,324.948871 C364.985969,324.948871 372.923968,317.464472 372.923968,308.824472 C372.923968,300.184473 371.217568,256.174477 372.923968,243.354878 C374.630368,230.535279 368.927968,170.768084 368.927968,170.768084 L314.431173,165.368085 Z" id="Path" fill="#2E2E2E" fill-rule="nonzero"></path>
            <path d="M197.305658,141.061253 L221.16169,141.061253 C222.287581,141.061253 223.200296,141.973968 223.200296,143.099859 L223.200296,160.124391 L195.267052,160.124391 L195.267052,143.099859 C195.267052,141.973968 196.179767,141.061253 197.305658,141.061253 L197.305658,141.061253 Z" id="Path" fill="#ED5C37" fill-rule="nonzero" transform="translate(209.233674, 150.592822) rotate(5.142765) translate(-209.233674, -150.592822) "></path>
            <g id="Group" transform="translate(194.345983, 139.448087)" fill-opacity="0.7" fill-rule="nonzero" opacity="0.3">
                <path d="M2.95967478,1.61316594 L26.8157067,1.61316594 C27.9415979,1.61316594 28.854313,2.5258811 28.854313,3.6517723 L28.854313,20.6763041 L0.921068424,20.6763041 L0.921068424,3.6517723 C0.921068424,2.5258811 1.83378358,1.61316594 2.95967478,1.61316594 L2.95967478,1.61316594 Z" id="Path" fill="#000000" transform="translate(14.887691, 11.144735) rotate(5.142765) translate(-14.887691, -11.144735) "></path>
                <rect id="Rectangle" fill="#FFFFFF" transform="translate(24.004602, 8.945284) rotate(4.910000) translate(-24.004602, -8.945284) " x="20.5864027" y="2.10888477" width="6.83639941" height="13.6727988"></rect>
            </g>
            <path d="M197.305658,141.061253 L221.16169,141.061253 C222.287581,141.061253 223.200296,141.973968 223.200296,143.099859 L223.200296,160.124391 L195.267052,160.124391 L195.267052,143.099859 C195.267052,141.973968 196.179767,141.061253 197.305658,141.061253 L197.305658,141.061253 Z" id="Path" stroke="#263238" stroke-width="1.08436508" stroke-linecap="round" stroke-linejoin="round" transform="translate(209.233674, 150.592822) rotate(5.142765) translate(-209.233674, -150.592822) "></path>
            <path d="M238.362863,142.513454 L262.122861,142.513454 C263.24422,142.513454 264.153261,143.422495 264.153261,144.543853 L264.153261,161.499852 L236.332464,161.499852 L236.332464,144.543853 C236.332464,143.422495 237.241504,142.513454 238.362863,142.513454 L238.362863,142.513454 Z" id="Path" fill="#ED5C37" fill-rule="nonzero" transform="translate(250.242862, 152.006653) rotate(4.910000) translate(-250.242862, -152.006653) "></path>
            <g id="Group" transform="translate(235.385980, 141.248087)" fill-opacity="0.7" fill-rule="nonzero" opacity="0.3">
                <path d="M2.97688361,1.26536689 L26.7368816,1.26536689 C27.8582404,1.26536689 28.7672814,2.17440786 28.7672814,3.29576672 L28.7672814,20.2517653 L0.946483783,20.2517653 L0.946483783,3.29576672 C0.946483783,2.17440786 1.85552475,1.26536689 2.97688361,1.26536689 L2.97688361,1.26536689 Z" id="Path" fill="#000000" transform="translate(14.856883, 10.758566) rotate(4.910000) translate(-14.856883, -10.758566) "></path>
                <rect id="Rectangle" fill="#FFFFFF" transform="translate(24.736867, 10.740454) rotate(4.910000) translate(-24.736867, -10.740454) " x="22.6740674" y="3.90405438" width="4.12559964" height="13.6727988"></rect>
            </g>
            <path d="M238.362863,142.513454 L262.122861,142.513454 C263.24422,142.513454 264.153261,143.422495 264.153261,144.543853 L264.153261,161.499852 L236.332464,161.499852 L236.332464,144.543853 C236.332464,143.422495 237.241504,142.513454 238.362863,142.513454 L238.362863,142.513454 Z" id="Path" stroke="#263238" stroke-width="1.07999991" stroke-linecap="round" stroke-linejoin="round" transform="translate(250.242862, 152.006653) rotate(4.910000) translate(-250.242862, -152.006653) "></path>
            <path d="M229.764233,141.768657 L253.524231,141.768657 C254.64559,141.768657 255.554631,142.677698 255.554631,143.799057 L255.554631,160.755055 L227.733833,160.755055 L227.733833,143.799057 C227.733833,142.677698 228.642874,141.768657 229.764233,141.768657 L229.764233,141.768657 Z" id="Path" stroke="#263238" stroke-width="1.07999991" fill="#ED5C37" fill-rule="nonzero" stroke-linecap="round" stroke-linejoin="round" transform="translate(241.644232, 151.261856) rotate(4.910000) translate(-241.644232, -151.261856) "></path>
            <path d="M270.644897,145.287862 L294.404895,145.287862 C295.526254,145.287862 296.435295,146.196903 296.435295,147.318262 L296.435295,164.26346 L268.614497,164.26346 L268.614497,147.307462 C268.620439,146.190323 269.527742,145.287862 270.644897,145.287862 L270.644897,145.287862 Z" id="Path" stroke="#263238" stroke-width="1.07999991" fill="#ED5C37" fill-rule="nonzero" stroke-linecap="round" stroke-linejoin="round" transform="translate(282.524896, 154.775661) rotate(4.910000) translate(-282.524896, -154.775661) "></path>
            <rect id="Rectangle" fill-opacity="0.7" fill="#FFFFFF" fill-rule="nonzero" opacity="0.3" transform="translate(250.632157, 151.167760) rotate(4.910000) translate(-250.632157, -151.167760) " x="247.213957" y="144.33136" width="6.83639941" height="13.6727988"></rect>
            <rect id="Rectangle" fill-opacity="0.7" fill="#FFFFFF" fill-rule="nonzero" opacity="0.3" transform="translate(291.064121, 154.637480) rotate(4.910000) translate(-291.064121, -154.637480) " x="287.645921" y="147.80108" width="6.83639941" height="13.6727988"></rect>
            <path d="M307.951173,162.549285 L301.265974,240.233678 L176.104785,229.433679 L182.789984,151.760086 C182.899811,150.461782 183.521868,149.260581 184.518817,148.421685 C185.515766,147.582789 186.805613,147.175193 188.103584,147.288886 L303.469174,157.203285 C304.775566,157.310124 305.984794,157.935583 306.826909,158.940032 C307.669023,159.944482 308.073907,161.24429 307.951173,162.549285 L307.951173,162.549285 Z" id="Path" fill="#ED5C37" fill-rule="nonzero"></path>
            <path d="M307.951173,162.549285 L301.265974,240.233678 L176.104785,229.433679 L182.789984,151.760086 C182.899811,150.461782 183.521868,149.260581 184.518817,148.421685 C185.515766,147.582789 186.805613,147.175193 188.103584,147.288886 L303.469174,157.203285 C304.775566,157.310124 305.984794,157.935583 306.826909,158.940032 C307.669023,159.944482 308.073907,161.24429 307.951173,162.549285 L307.951173,162.549285 Z" id="Path" fill-opacity="0.7" fill="#000000" fill-rule="nonzero" opacity="0.3"></path>
            <path d="M307.951173,162.549285 L301.265974,240.233678 L176.104785,229.433679 L182.789984,151.760086 C182.899811,150.461782 183.521868,149.260581 184.518817,148.421685 C185.515766,147.582789 186.805613,147.175193 188.103584,147.288886 L303.469174,157.203285 C304.775566,157.310124 305.984794,157.935583 306.826909,158.940032 C307.669023,159.944482 308.073907,161.24429 307.951173,162.549285 L307.951173,162.549285 Z" id="Path" stroke="#263238" stroke-width="1.07999991" stroke-linecap="round" stroke-linejoin="round"></path>
            <path d="M307.951173,162.549285 L301.265974,240.233678 L208.385982,232.241679 L215.081981,154.568086 C215.191808,153.269782 215.813866,152.06858 216.810814,151.229684 C217.807763,150.390789 219.097611,149.983192 220.395581,150.096886 L303.479974,157.235685 C304.778277,157.345512 305.979479,157.967569 306.818375,158.964518 C307.657271,159.961467 308.064867,161.251314 307.951173,162.549285 L307.951173,162.549285 Z" id="Path" stroke="#263238" stroke-width="1.07999991" fill="#ED5C37" fill-rule="nonzero" stroke-linecap="round" stroke-linejoin="round"></path>
            <path d="M301.427974,164.774085 L222.037181,157.948485 C220.93632,157.851088 220.115539,156.891109 220.190381,155.788485 L220.190381,155.788485 C220.287779,154.687625 221.247757,153.866843 222.350381,153.941686 L301.741174,160.767285 C302.842034,160.864683 303.662816,161.824661 303.587974,162.927285 L303.587974,162.927285 C303.490576,164.028145 302.530598,164.848927 301.427974,164.774085 L301.427974,164.774085 Z" id="Path" fill-opacity="0.7" fill="#FFFFFF" fill-rule="nonzero" opacity="0.3"></path>
            <path d="M363.689969,337.96287 C363.689969,337.96287 357.706769,333.69687 345.32997,334.55007 C345.32997,334.55007 344.42277,349.400069 342.73797,353.720068 C341.053171,358.040068 332.175571,365.524467 330.523172,366.809667 C328.870772,368.094867 328.870772,372.576867 328.870772,372.576867 L366.476368,372.576867 C365.99397,366.14913 364.993522,359.770819 363.484769,353.504068 L363.689969,337.96287 Z" id="Path" fill="#FFFFFF" fill-rule="nonzero"></path>
            <path d="M363.689969,337.96287 C363.689969,337.96287 357.706769,333.69687 345.32997,334.55007 C345.32997,334.55007 344.42277,349.400069 342.73797,353.720068 C341.053171,358.040068 332.175571,365.524467 330.523172,366.809667 C328.870772,368.094867 328.870772,372.576867 328.870772,372.576867 L366.476368,372.576867 C365.99397,366.14913 364.993522,359.770819 363.484769,353.504068 L363.689969,337.96287 Z" id="Path" fill="#ED5C37" fill-rule="nonzero" opacity="0.4"></path>
            <path d="M363.689969,337.96287 C363.689969,337.96287 357.706769,333.69687 345.32997,334.55007 C345.32997,334.55007 344.42277,349.400069 342.73797,353.720068 C341.053171,358.040068 332.175571,365.524467 330.523172,366.809667 C328.870772,368.094867 328.870772,372.576867 328.870772,372.576867 L366.476368,372.576867 C365.99397,366.14913 364.993522,359.770819 363.484769,353.504068 L363.689969,337.96287 Z" id="Path" stroke="#263238" stroke-width="1.07999991" stroke-linecap="round" stroke-linejoin="round"></path>
            <path d="M355.924769,339.88527 C355.924769,339.88527 355.039169,353.558068 352.91157,357.165268 C351.775447,359.147436 350.372771,360.964374 348.74277,362.565268" id="Path" stroke="#263238" stroke-width="1.07999991" stroke-linecap="round" stroke-linejoin="round"></path>
            <path d="M347.70597,364.455267 C347.70597,364.455267 345.81597,366.809667 343.72077,367.122867 C341.625571,367.436067 330.555572,366.809667 330.555572,366.809667 L335.069971,362.900068 C335.069971,362.900068 344.24997,361.355668 347.70597,364.455267 Z" id="Path" stroke="#263238" stroke-width="1.07999991" fill="#ED5C37" fill-rule="nonzero" stroke-linecap="round" stroke-linejoin="round"></path>
            <path d="M351.61557,361.247668 C351.61557,361.247668 343.60197,356.646868 337.888771,360.167668" id="Path" stroke="#263238" stroke-width="1.07999991" stroke-linecap="round" stroke-linejoin="round"></path>
            <path d="M353.54877,358.126468 C353.54877,358.126468 347.95437,353.752468 341.355571,356.150068" id="Path" stroke="#263238" stroke-width="1.07999991" stroke-linecap="round" stroke-linejoin="round"></path>
            <path d="M355.924769,353.363668 C355.924769,353.363668 349.89837,348.676469 343.54797,351.657269" id="Path" stroke="#263238" stroke-width="1.07999991" stroke-linecap="round" stroke-linejoin="round"></path>
            <path d="M356.745569,347.412869 C356.745569,347.412869 349.43397,343.481669 344.12037,346.462469" id="Path" stroke="#263238" stroke-width="1.07999991" stroke-linecap="round" stroke-linejoin="round"></path>
            <path d="M366.465568,372.576867 L366.465568,375.352467 L362.145569,375.352467 C362.145569,375.352467 358.441169,373.192467 354.920369,375.352467 L334.637971,375.352467 C332.494751,375.345233 330.378999,374.869742 328.438772,373.959267 L328.859972,372.576867 L366.465568,372.576867 Z" id="Path" stroke="#263238" stroke-width="1.07999991" fill="#ED5C37" fill-rule="nonzero" stroke-linecap="round" stroke-linejoin="round"></path>
            <path d="M361.076369,337.08807 L360.115169,343.146869 C360.115169,343.146869 348.82917,339.48567 342.597571,341.861669 L342.597571,334.40967 C342.597571,334.40967 354.18597,330.34887 361.076369,337.08807 Z" id="Path" stroke="#263238" stroke-width="1.07999991" fill="#ED5C37" fill-rule="nonzero" stroke-linecap="round" stroke-linejoin="round"></path>
            <path d="M373.280368,186.136483 C373.280368,186.136483 349.29357,190.834482 325.760372,183.209683 C320.402113,181.502166 315.276219,179.136927 310.499973,176.168084 C310.499973,176.168084 310.564773,174.656084 310.607973,172.182884 C310.802373,162.527685 310.748373,138.238487 305.661574,132.222887 C302.421574,128.432088 299.883574,104.99609 306.136774,93.1484908 L325.263572,77.7692922 C351.74517,82.9424917 357.339569,89.9516911 361.713569,105.07169 C362.523569,107.83649 363.279569,110.871289 364.121969,114.219289 C365.039969,117.869689 365.903968,122.330088 366.724768,127.179288 C370.699168,151.328086 373.280368,186.136483 373.280368,186.136483 Z" id="Path" fill="#999999" fill-rule="nonzero"></path>
            <path d="M366.724768,127.179288 L355.924769,175.422884 C355.924769,175.422884 340.318771,179.742883 325.771172,183.209683 C320.409179,181.502994 315.279611,179.137734 310.499973,176.168084 C310.499973,176.168084 310.564773,174.656084 310.607973,172.182884 C323.675972,165.497685 342.74877,155.669685 342.597571,155.205285 C342.349171,154.481686 342.597571,129.285288 342.597571,129.285288 C342.597571,129.285288 359.877569,125.278488 361.713569,105.03929 C362.523569,107.80409 363.279569,110.838889 364.121969,114.186889 C365.039969,117.848089 365.903968,122.276088 366.724768,127.179288 Z" id="Path" fill="#000000" fill-rule="nonzero" opacity="0.2"></path>
            <path d="M373.280368,186.136483 C373.280368,186.136483 349.29357,190.834482 325.760372,183.209683 C320.402113,181.502166 315.276219,179.136927 310.499973,176.168084 C310.499973,176.168084 310.564773,174.656084 310.607973,172.182884 C310.802373,162.527685 310.748373,138.238487 305.661574,132.222887 C302.421574,128.432088 299.883574,104.99609 306.136774,93.1484908 L325.263572,77.7692922 C351.74517,82.9424917 357.339569,89.9516911 361.713569,105.07169 C362.523569,107.83649 363.279569,110.871289 364.121969,114.219289 C365.039969,117.869689 365.903968,122.330088 366.724768,127.179288 C370.699168,151.328086 373.280368,186.136483 373.280368,186.136483 Z" id="Path" stroke="#263238" stroke-width="1.07999991" stroke-linecap="round" stroke-linejoin="round"></path>
            <path d="M326.105972,57.5840939 C326.105972,57.5840939 317.660373,69.6800928 328.892372,79.119292 C328.892372,79.119292 315.262773,94.4120907 310.780773,92.3060909 C308.890773,91.420491 310.780773,85.9016915 310.780773,85.9016915 L302.875174,71.2784927 L326.105972,57.5840939 Z" id="Path" stroke="#263238" stroke-width="1.07999991" fill="#FFE0CA" fill-rule="nonzero" stroke-linecap="round" stroke-linejoin="round"></path>
            <path d="M323.351972,63.8480933 C325.987172,52.3244943 324.723572,35.1632958 308.577573,36.6860957 C297.259174,37.7660956 289.191575,44.0300951 292.377575,59.2148937 C293.705975,65.6192932 294.796775,74.6912924 300.671974,82.8776917 C302.302774,85.1456915 319.366773,77.1212922 318.329973,70.6304928" id="Path" stroke="#263238" stroke-width="1.07999991" fill="#FFE0CA" fill-rule="nonzero" stroke-linecap="round" stroke-linejoin="round"></path>
            <path d="M300.250774,56.644494 C302.559725,55.7504601 305.155675,56.0028442 307.249174,57.3248939" id="Path" stroke="#263238" stroke-width="1.07999991" stroke-linecap="round" stroke-linejoin="round"></path>
            <path d="M292.129175,58.0592938 C292.557962,57.1451632 293.593313,56.6850074 294.559175,56.9792939" id="Path" stroke="#263238" stroke-width="1.07999991" stroke-linecap="round" stroke-linejoin="round"></path>
            <path d="M296.168375,60.4568936 C296.168375,60.4568936 292.841975,66.5156931 292.831154,67.379693 C292.820375,68.243693 296.924374,68.5352929 296.924374,68.5352929" id="Path" stroke="#263238" stroke-width="1.07999991" fill="#FFE0CA" fill-rule="nonzero" stroke-linecap="round" stroke-linejoin="round"></path>
            <path d="M303.317974,61.6880935 C303.317974,62.3468935 303.026374,62.8868934 302.615974,62.9084934 C302.205574,62.9300934 301.859974,62.3900935 301.838374,61.7312935 C301.816774,61.0724936 302.129974,60.5324936 302.540374,60.5216936 C302.950774,60.5108936 303.296374,61.0508936 303.317974,61.6880935 Z" id="Path" fill="#263238" fill-rule="nonzero"></path>
            <path d="M298.619974,72.9416926 C298.619974,72.9416926 305.002774,71.7428927 306.179974,69.4964929" id="Path" stroke="#263238" stroke-width="1.07999991" stroke-linecap="round" stroke-linejoin="round"></path>
            <path d="M292.085975,48.7280947 L297.053974,47.2808948 C297.053974,47.2808948 304.019974,44.0408951 305.499574,44.494495 C306.979174,44.948095 309.981573,49.5596946 309.884373,52.1948944 C309.884373,52.1948944 314.571573,56.320494 315.165573,62.3036935 L316.591173,61.6556935 C316.591173,61.6556935 316.515573,56.255694 319.582772,56.396094 C322.649972,56.536494 324.032372,60.2084937 323.827172,61.3640936 C323.621972,62.5196935 320.263172,67.3148931 320.263172,67.3148931 C320.263172,67.3148931 327.952772,66.1700932 328.201172,51.1148944 C328.449572,36.0596957 311.947173,33.608096 303.922774,34.2236959 C299.85989,34.6129236 295.777731,34.7643818 291.697175,34.6772959 L292.150775,38.9972955 L288.910775,39.8504954 L291.351575,42.8420952 L288.673175,44.0624951 L292.085975,48.7280947 Z" id="Path" fill="#2E2E2E" fill-rule="nonzero"></path>
            <path d="M319.906772,212.888081 C319.906772,212.888081 339.454771,218.06128 344.74677,232.619679" id="Path" stroke="#717272" stroke-width="1.07999991" stroke-linecap="round" stroke-linejoin="round"></path>
            <path d="M328.859972,220.71808 C328.859972,220.71808 318.297573,238.311278 302.129974,247.448078" id="Path" stroke="#717272" stroke-width="1.07999991" stroke-linecap="round" stroke-linejoin="round"></path>
            <path d="M314.009973,319.656871 C314.009973,319.656871 320.014772,318.306871 321.656372,315.974072" id="Path" stroke="#717272" stroke-width="1.07999991" stroke-linecap="round" stroke-linejoin="round"></path>
            <path d="M347.44677,321.892471 C347.44677,321.892471 353.32197,318.846871 359.175569,321.892471" id="Path" stroke="#717272" stroke-width="1.07999991" stroke-linecap="round" stroke-linejoin="round"></path>
            <path d="M366.465568,239.985278 C366.465568,239.985278 356.605169,265.527276 351.61557,267.892476" id="Path" stroke="#717272" stroke-width="1.07999991" stroke-linecap="round" stroke-linejoin="round"></path>
            <path d="M323.287172,199.982082 C323.557172,202.757681 335.167171,215.62048 344.74677,220.71808" id="Path" stroke="#717272" stroke-width="1.07999991" stroke-linecap="round" stroke-linejoin="round"></path>
            <path d="M333.190771,189.128083 C334.58835,192.571946 334.879001,196.365508 334.022371,199.982082 C333.090718,203.103649 333.090718,206.429313 334.022371,209.550881" id="Path" stroke="#717272" stroke-width="1.07999991" stroke-linecap="round" stroke-linejoin="round"></path>
            <path d="M312.065973,136.013687 C312.065973,136.013687 330.242372,159.536085 349.77957,167.258084" id="Path" stroke="#263238" stroke-width="1.07999991" stroke-linecap="round" stroke-linejoin="round"></path>
            <path d="M330.879564,97.9868904 C330.879564,97.9868904 330.814772,113.981689 342.349171,121.196088" id="Path" stroke="#263238" stroke-width="1.07999991" stroke-linecap="round" stroke-linejoin="round"></path>
            <path d="M337.370371,121.325688 C334.929571,123.723288 337.586371,153.812086 337.586371,153.812086 C337.586371,153.812086 323.405972,159.363285 318.967173,162.938085 C314.528373,166.512885 293.500775,174.720884 293.500775,174.720884 C293.500775,174.720884 290.260775,185.758483 294.299975,186.136483 C298.339174,186.514483 340.167571,172.258484 349.73637,167.258084 C349.73637,167.258084 355.967969,130.538088 355.924993,121.196088" id="Path" stroke="#263238" stroke-width="1.07999991" fill="#FFE0CA" fill-rule="nonzero" stroke-linecap="round" stroke-linejoin="round"></path>
            <path d="M295.163975,174.062084 C293.219975,173.694884 289.763975,172.420484 287.949575,172.841684 C286.135175,173.262884 282.819576,175.260884 279.406776,176.081684 C275.993976,176.902484 277.408776,178.241684 279.406776,178.641283 C280.869108,178.884789 282.361643,178.884789 283.823976,178.641283 L281.048376,181.352083 C279.458991,182.2124 277.817849,182.973457 276.134376,183.630883 C275.129976,183.630883 271.576777,184.592083 271.814377,186.104083 C272.051977,187.616083 274.093176,187.443283 276.371976,187.529683 C276.371976,187.529683 272.743177,188.253283 273.131976,190.316082 C273.369576,191.730882 277.451976,190.456482 279.536376,190.456482 C279.536376,190.456482 277.829976,192.314082 279.104376,192.886482 C280.378776,193.458882 283.208376,192.033282 283.208376,192.033282 C283.208376,192.033282 283.100376,193.566882 284.374776,193.718082 C285.649175,193.869282 288.856775,192.638082 291.038375,191.320482 C293.186735,189.935948 295.243049,188.413554 297.194374,186.762883 C298.020288,186.007903 298.965459,185.394819 299.991574,184.948483" id="Path" stroke="#263238" stroke-width="1.07999991" fill="#FFE0CA" fill-rule="nonzero" stroke-linecap="round" stroke-linejoin="round"></path>
            <path d="M276.425976,187.572883 C277.429275,187.518612 278.42833,187.403197 279.417576,187.227283 C280.270776,187.011283 281.123976,186.730483 281.123976,186.730483" id="Path" stroke="#263238" stroke-width="1.07999991" stroke-linecap="round" stroke-linejoin="round"></path>
            <path d="M279.547176,190.499682 C280.85224,190.316224 282.109864,189.883572 283.251576,189.225283" id="Path" stroke="#263238" stroke-width="1.07999991" stroke-linecap="round" stroke-linejoin="round"></path>
            <path d="M283.219176,192.076482 C284.184701,191.954834 285.108888,191.611037 285.919175,191.072082" id="Path" stroke="#263238" stroke-width="1.07999991" stroke-linecap="round" stroke-linejoin="round"></path>
            <path d="M281.393976,182.172883 C281.393976,182.172883 280.616376,183.954883 281.393976,184.948483 C282.171576,185.942083 283.111176,186.028483 283.251576,187.108483 C283.391976,188.188483 285.249575,188.188483 285.919175,188.890483 C286.588775,189.592483 287.096375,190.942482 289.234775,191.050482" id="Path" stroke="#263238" stroke-width="1.07999991" stroke-linecap="round" stroke-linejoin="round"></path>
            <path d="M336.463171,90.1244911 C329.108372,106.76729 336.463171,129.857688 336.463171,129.857688 C336.463171,129.857688 354.261569,135.905687 355.903169,133.302887 C357.544769,130.700088 360.547169,117.934489 361.054769,112.037689" id="Path" stroke="#263238" stroke-width="1.07999991" fill="#999999" fill-rule="nonzero" stroke-linecap="round" stroke-linejoin="round"></path>
            <path d="M355.924769,113.884489 C355.924769,113.884489 348.36477,124.284888 342.349171,124.425288" id="Path" stroke="#263238" stroke-width="1.07999991" stroke-linecap="round" stroke-linejoin="round"></path>
            <path d="M85.7087926,375.352467 C85.7087926,375.352467 83.8619928,368.300067 86.0219926,365.686467 C89.8883923,360.999268 85.5467926,357.046468 89.4347923,355.437268 L91.0655922,357.327268 C91.3787921,355.415668 90.4715922,349.572869 97.6859916,348.816869 C106.412391,347.898869 106.574391,354.216868 107.049591,356.376868 L106.898391,353.450068 C110.62439,353.450068 108.691191,357.165268 114.32879,363.234868 C117.31627,366.547434 118.794706,370.951451 118.41119,375.395667 L85.7087926,375.352467 Z" id="Path" fill="#263238" fill-rule="nonzero"></path>
            <path d="M152.225987,375.352467 C148.715987,373.786467 151.934387,360.545668 151.934387,360.545668 C151.934387,360.545668 147.214787,357.381268 151.934387,354.065668 C155.654538,357.218042 160.815034,358.049709 165.337186,356.225668 C165.337186,356.225668 166.255186,347.369669 171.817185,348.503669 C171.817185,348.503669 173.242785,354.119668 176.493585,357.327268 C185.295584,365.967267 196.667983,367.047267 198.568783,371.194467 C199.141183,372.447267 198.449983,375.309267 198.449983,375.309267 L152.225987,375.352467 Z" id="Path" fill="#2E2E2E" fill-rule="nonzero"></path>
            <path d="M137.224788,164.190885 L141.544788,173.349284 C141.544788,173.349284 159.407986,210.263681 170.348385,252.534877 C170.607585,253.539277 176.266785,273.562475 171.730785,323.426071 L174.322785,332.17407 L171.493185,346.624469 C171.493185,346.624469 175.748385,352.769668 175.597185,354.778468 C175.597185,354.778468 165.099586,356.733268 161.557186,358.612468 C158.835586,360.081268 150.659987,368.148867 150.659987,368.148867 C148.337987,367.673667 148.132787,358.299268 148.132787,358.299268 C148.132787,358.299268 143.283588,275.063675 141.890388,271.478075 C140.497188,267.892476 131.986789,252.426877 118.70279,217.03528 C118.70279,217.03528 118.40039,266.466876 114.85799,278.973275 C111.69359,290.097274 115.44119,321.233671 115.44119,321.233671 L113.28119,355.890868 C113.28119,355.890868 120.75479,363.656068 114.69599,365.740467 C114.69599,365.740467 110.64599,357.953668 99.1115915,356.182468 C93.247192,355.275268 85.9463926,365.686467 85.9463926,365.686467 C83.3759928,364.865667 87.0263925,351.786869 87.0263925,351.786869 C78.8507932,290.097274 84.8663927,301.264473 83.2463928,271.110876 C82.1663929,251.757277 76.7123934,168.964484 83.1491928,162.236085 L137.224788,164.190885 Z" id="Path" fill="#BFBFBF" fill-rule="nonzero"></path>
            <g id="Group" transform="translate(79.865993, 162.128085)" fill="#000000" fill-rule="nonzero" opacity="0.2">
                <path d="M0.280693584,30.5747974 C29.1599975,32.8427972 54.1619953,23.392798 65.0159944,18.4571984 C62.9531946,13.8347988 61.6895947,11.221199 61.6895947,11.221199 L57.3695951,2.07359982 L3.36959971,0.107999991 C1.07999991,2.53799978 0.269999977,14.8823987 0.280693584,30.5747974 Z" id="Path"></path>
                <path d="M39.1283966,55.5443952 C52.2719955,90.4823922 60.7283948,105.775191 62.0891947,109.339191 C62.8775946,111.41279 64.8107944,139.676388 66.3227943,163.393186 C68.0507941,141.793188 69.832794,119.03759 69.983994,114.57719 C70.3079939,105.677991 63.8819945,93.484792 62.9207946,90.3311922 C61.9595947,87.1775925 64.1303945,83.7647928 64.1303945,83.7647928 L52.5743955,69.184794 C52.9631954,64.2383945 46.839596,42.6491963 46.839596,42.6491963 C43.1999963,46.094396 39.9599966,53.4275954 39.1283966,55.5443952 Z" id="Path"></path>
            </g>
            <path d="M137.224788,164.190885 L141.544788,173.349284 C141.544788,173.349284 159.407986,210.263681 170.348385,252.534877 C170.607585,253.539277 176.266785,273.562475 171.730785,323.426071 L174.322785,332.17407 L171.493185,346.624469 C171.493185,346.624469 175.748385,352.769668 175.597185,354.778468 C175.597185,354.778468 165.099586,356.733268 161.557186,358.612468 C158.835586,360.081268 150.659987,368.148867 150.659987,368.148867 C148.337987,367.673667 148.132787,358.299268 148.132787,358.299268 C148.132787,358.299268 143.283588,275.063675 141.890388,271.478075 C140.497188,267.892476 131.986789,252.426877 118.70279,217.03528 C118.70279,217.03528 118.40039,266.466876 114.85799,278.973275 C111.69359,290.097274 115.44119,321.233671 115.44119,321.233671 L113.28119,355.890868 C113.28119,355.890868 120.75479,363.656068 114.69599,365.740467 C114.69599,365.740467 110.64599,357.953668 99.1115915,356.182468 C93.247192,355.275268 85.9463926,365.686467 85.9463926,365.686467 C83.3759928,364.865667 87.0263925,351.786869 87.0263925,351.786869 C78.8507932,290.097274 84.8663927,301.264473 83.2463928,271.110876 C82.1663929,251.757277 76.7123934,168.964484 83.1491928,162.236085 L137.224788,164.190885 Z" id="Path" stroke="#263238" stroke-width="1.07999991" stroke-linecap="round" stroke-linejoin="round"></path>
            <path d="M118.74599,217.03528 C118.74599,217.03528 125.344789,204.302081 130.971589,200.748882" id="Path" stroke="#263238" stroke-width="1.07999991" stroke-linecap="round" stroke-linejoin="round"></path>
            <path d="M133.455591,196.623282 C133.455591,196.623282 113.41079,202.725281 106.455591,203.902481" id="Path" stroke="#263238" stroke-width="1.07999991" stroke-linecap="round" stroke-linejoin="round"></path>
            <path d="M123.195589,176.168084 C124.059589,192.854082 129.945589,195.694482 124.275589,199.334082 C124.275589,199.334082 124.437589,207.142481 121.60799,212.088881" id="Path" stroke="#263238" stroke-width="1.07999991" stroke-linecap="round" stroke-linejoin="round"></path>
            <path d="M88.0739924,169.785284 C88.0739924,169.785284 90.4391922,195.435282 82.5443929,200.262882" id="Path" stroke="#263238" stroke-width="1.07999991" stroke-linecap="round" stroke-linejoin="round"></path>
            <path d="M82.5443929,178.058084 C82.5443929,178.058084 81.9503929,195.132882 82.5443929,208.892081 C82.5443929,208.892081 84.5207927,267.050076 86.4971926,274.350875 C88.4735924,281.651675 83.4515928,292.710874 83.8835928,324.268471" id="Path" stroke="#263238" stroke-width="1.07999991" stroke-linecap="round" stroke-linejoin="round"></path>
            <path d="M101.465991,348.968069 C99.5970487,348.561522 97.644777,348.821316 95.9471917,349.702469" id="Path" stroke="#263238" stroke-width="1.07999991" stroke-linecap="round" stroke-linejoin="round"></path>
            <path d="M113.34599,355.890868 C110.869166,353.480448 107.998133,351.511635 104.857191,350.069669" id="Path" stroke="#263238" stroke-width="1.07999991" stroke-linecap="round" stroke-linejoin="round"></path>
            <path d="M110.105991,221.06368 C105.677991,226.031679 98.6579915,235.395279 91.4651921,236.183679" id="Path" stroke="#263238" stroke-width="1.07999991" stroke-linecap="round" stroke-linejoin="round"></path>
            <path d="M116.87759,212.985281 C115.51679,214.70248 114.11279,216.38728 112.68719,218.06128" id="Path" stroke="#263238" stroke-width="1.07999991" stroke-linecap="round" stroke-linejoin="round"></path>
            <path d="M110.57039,271.110876 C110.57039,271.110876 100.504791,284.816074 94.9859918,285.604474" id="Path" stroke="#263238" stroke-width="1.07999991" stroke-linecap="round" stroke-linejoin="round"></path>
            <path d="M122.407189,214.56208 C122.407189,214.56208 140.335188,264.490476 146.566787,269.415276 C146.566787,269.415276 147.268787,306.135272 147.473987,318.954871 C147.679187,331.77447 150.627587,348.816869 150.627587,348.816869" id="Path" stroke="#263238" stroke-width="1.07999991" stroke-linecap="round" stroke-linejoin="round"></path>
            <path d="M169.765185,348.449669 C169.765185,348.449669 162.863986,350.836469 159.505186,352.359269 C157.442768,353.365925 155.826674,355.101303 154.969187,357.230068" id="Path" stroke="#263238" stroke-width="1.07999991" stroke-linecap="round" stroke-linejoin="round"></path>
            <path d="M152.301587,251.411677 C142.678788,245.374478 129.988789,237.825278 124.869589,227.187279" id="Path" stroke="#263238" stroke-width="1.07999991" stroke-linecap="round" stroke-linejoin="round"></path>
            <path d="M160.693186,256.390477 C158.867986,255.386077 157.075186,254.338477 155.293187,253.258477" id="Path" stroke="#263238" stroke-width="1.07999991" stroke-linecap="round" stroke-linejoin="round"></path>
            <path d="M130.366789,182.918083 C125.193589,182.842483 119.56679,182.162083 115.10639,179.235283" id="Path" stroke="#263238" stroke-width="1.07999991" stroke-linecap="round" stroke-linejoin="round"></path>
            <path d="M138.585588,182.432083 C137.105988,182.637283 135.615588,182.766883 134.125188,182.842483" id="Path" stroke="#263238" stroke-width="1.07999991" stroke-linecap="round" stroke-linejoin="round"></path>
            <path d="M148.186787,67.779293 C144.233988,61.7960935 124.091989,60.2732937 111.16439,60.2732937 C98.2367915,60.2732937 82.5443929,58.1132938 75.4595935,72.6932926 C70.059594,83.8280916 82.5011929,142.709687 82.5011929,142.709687 L79.4555932,168.132884 C102.869991,175.476884 142.981188,173.856884 142.981188,173.856884 L137.581188,150.874486 C137.581188,150.874486 152.139587,73.7516925 148.186787,67.779293 Z" id="Path" fill="#2E2E2E" fill-rule="nonzero"></path>
            <path d="M103.485591,45.4880949 C103.485591,45.4880949 105.224391,59.3444937 99.9539914,62.3360935 C99.9539914,62.3360935 102.589191,72.4988926 111.83399,73.1360926 C121.07879,73.7732925 125.161189,63.8480933 125.161189,63.8480933 L103.485591,45.4880949 Z" id="Path" stroke="#263238" stroke-width="1.07999991" fill="#FFE0CA" fill-rule="nonzero" stroke-linecap="round" stroke-linejoin="round"></path>
            <path d="M153.300138,8.77739043 L177.060136,8.77739043 C178.181495,8.77739043 179.090536,9.68643139 179.090536,10.8077903 L179.090536,27.7637888 L151.312938,27.7637888 L151.312938,10.8077903 C151.312938,9.70308767 152.195685,8.80089471 153.300138,8.77739043 L153.300138,8.77739043 Z" id="Path" fill="#ED5C37" fill-rule="nonzero" transform="translate(165.201737, 18.270590) rotate(-5.270000) translate(-165.201737, -18.270590) "></path>
            <g id="Group" transform="translate(150.065987, 7.328098)" fill-opacity="0.7" fill-rule="nonzero" opacity="0.3">
                <path d="M3.23415068,1.44929221 L26.9941486,1.44929221 C28.1155075,1.44929221 29.0245485,2.35833318 29.0245485,3.47969204 L29.0245485,20.4356906 L1.2469508,20.4356906 L1.2469508,3.47969204 C1.2469508,2.37498946 2.12969814,1.4727965 3.23415068,1.44929221 L3.23415068,1.44929221 Z" id="Path" fill="#000000" transform="translate(15.135750, 10.942491) rotate(-5.270000) translate(-15.135750, -10.942491) "></path>
                <rect id="Rectangle" fill="#FFFFFF" transform="translate(23.985613, 9.229630) rotate(-5.270000) translate(-23.985613, -9.229630) " x="20.5674136" y="2.3932302" width="6.83639941" height="13.6727988"></rect>
            </g>
            <path d="M153.300138,8.77739043 L177.060136,8.77739043 C178.181495,8.77739043 179.090536,9.68643139 179.090536,10.8077903 L179.090536,27.7637888 L151.312938,27.7637888 L151.312938,10.8077903 C151.312938,9.70308767 152.195685,8.80089471 153.300138,8.77739043 L153.300138,8.77739043 Z" id="Path" stroke="#263238" stroke-width="1.07999991" stroke-linecap="round" stroke-linejoin="round" transform="translate(165.201737, 18.270590) rotate(-5.270000) translate(-165.201737, -18.270590) "></path>
            <path d="M194.207912,4.98381058 L217.96791,4.98381058 C219.089269,4.98381058 219.99831,5.89285154 219.99831,7.0142104 L219.99831,23.9702089 L192.177512,23.9702089 L192.177512,7.0142104 C192.177512,5.89285154 193.086553,4.98381058 194.207912,4.98381058 L194.207912,4.98381058 Z" id="Path" fill="#ED5C37" fill-rule="nonzero" transform="translate(206.087911, 14.477010) rotate(-5.270000) translate(-206.087911, -14.477010) "></path>
            <g id="Group" transform="translate(191.105984, 3.368099)" fill-opacity="0.7" fill-rule="nonzero" opacity="0.3">
                <path d="M3.10192874,1.61571202 L26.8619267,1.61571202 C27.9832856,1.61571202 28.8923265,2.52475299 28.8923265,3.64611185 L28.8923265,20.6021104 L1.07152891,20.6021104 L1.07152891,3.64611185 C1.07152891,2.52475299 1.98056988,1.61571202 3.10192874,1.61571202 L3.10192874,1.61571202 Z" id="Path" fill="#000000" transform="translate(14.981928, 11.108911) rotate(-5.270000) translate(-14.981928, -11.108911) "></path>
                <rect id="Rectangle" fill="#FFFFFF" transform="translate(24.714111, 9.347832) rotate(-5.270000) translate(-24.714111, -9.347832) " x="22.6513109" y="2.5114326" width="4.12559964" height="13.6727988"></rect>
            </g>
            <path d="M194.207912,4.98381058 L217.96791,4.98381058 C219.089269,4.98381058 219.99831,5.89285154 219.99831,7.0142104 L219.99831,23.9702089 L192.177512,23.9702089 L192.177512,7.0142104 C192.177512,5.89285154 193.086553,4.98381058 194.207912,4.98381058 L194.207912,4.98381058 Z" id="Path" stroke="#263238" stroke-width="1.07999991" stroke-linecap="round" stroke-linejoin="round" transform="translate(206.087911, 14.477010) rotate(-5.270000) translate(-206.087911, -14.477010) "></path>
            <path d="M185.611936,5.77207213 L209.371934,5.77207213 C210.493293,5.77207213 211.402334,6.6811131 211.402334,7.80247196 L211.402334,24.7584705 L183.538337,24.7584705 L183.538337,7.80247196 C183.538337,7.25640731 183.758049,6.73331086 184.148218,6.35127048 C184.538387,5.96923011 185.065995,5.76045372 185.611936,5.77207213 L185.611936,5.77207213 Z" id="Path" stroke="#263238" stroke-width="1.07999991" fill="#ED5C37" fill-rule="nonzero" stroke-linecap="round" stroke-linejoin="round" transform="translate(197.470335, 15.265041) rotate(-5.270000) translate(-197.470335, -15.265041) "></path>
            <path d="M226.478516,2 L250.238514,2 C251.359873,2 252.268914,2.90904097 252.268914,4.03039983 L252.268914,20.9863984 L224.448116,20.9863984 L224.448116,4.03039983 C224.448116,2.90904097 225.357157,2 226.478516,2 L226.478516,2 Z" id="Path" stroke="#263238" stroke-width="1.07999991" fill="#ED5C37" fill-rule="nonzero" stroke-linecap="round" stroke-linejoin="round" transform="translate(238.358515, 11.493199) rotate(-5.270000) translate(-238.358515, -11.493199) "></path>
            <rect id="Rectangle" fill-opacity="0.7" fill="#FFFFFF" fill-rule="nonzero" opacity="0.3" transform="translate(206.323196, 13.584672) rotate(-5.270000) translate(-206.323196, -13.584672) " x="202.904996" y="6.74827219" width="6.83639941" height="13.6727988"></rect>
            <rect id="Rectangle" fill-opacity="0.7" fill="#FFFFFF" fill-rule="nonzero" opacity="0.3" transform="translate(246.741139, 9.845310) rotate(-5.270000) translate(-246.741139, -9.845310) " x="243.32294" y="3.00891082" width="6.83639941" height="13.6727988"></rect>
            <path d="M264.772777,14.6216976 L271.943977,92.2520909 L146.825987,103.80809 L139.697988,26.1560966 C139.447824,23.454208 141.434962,21.0609397 144.136788,20.8100971 L259.437578,10.172098 C260.735648,10.052155 262.028047,10.4540638 263.029168,11.2890066 C264.030288,12.1239495 264.65771,13.3231862 264.772777,14.6216976 Z" id="Path" fill="#ED5C37" fill-rule="nonzero"></path>
            <path d="M264.772777,14.6216976 L271.943977,92.2520909 L146.825987,103.80809 L139.697988,26.1560966 C139.447824,23.454208 141.434962,21.0609397 144.136788,20.8100971 L259.437578,10.172098 C260.735648,10.052155 262.028047,10.4540638 263.029168,11.2890066 C264.030288,12.1239495 264.65771,13.3231862 264.772777,14.6216976 Z" id="Path" fill-opacity="0.7" fill="#000000" fill-rule="nonzero" opacity="0.3"></path>
            <path d="M264.772777,14.6216976 L271.943977,92.2520909 L146.825987,103.80809 L139.697988,26.1560966 C139.447824,23.454208 141.434962,21.0609397 144.136788,20.8100971 L259.437578,10.172098 C260.735648,10.052155 262.028047,10.4540638 263.029168,11.2890066 C264.030288,12.1239495 264.65771,13.3231862 264.772777,14.6216976 Z" id="Path" stroke="#263238" stroke-width="1.07999991" stroke-linecap="round" stroke-linejoin="round"></path>
            <path d="M264.772777,14.6216976 L271.943977,92.2520909 L179.063985,100.81649 L171.903585,23.1860969 C171.653421,20.4842083 173.640559,18.0909399 176.342385,17.8400973 L259.383578,10.172098 C260.690437,10.0368672 261.996897,10.4317714 263.010032,11.2682677 C264.023167,12.1047639 264.658211,13.3128649 264.772777,14.6216976 Z" id="Path" stroke="#263238" stroke-width="1.07999991" fill="#ED5C37" fill-rule="nonzero" stroke-linecap="round" stroke-linejoin="round"></path>
            <path d="M258.757178,17.9588973 L179.409585,25.2812967 C178.310797,25.3564118 177.352469,24.5418333 177.249585,23.4452968 L177.249585,23.4452968 C177.168301,22.3484085 177.979709,21.3881617 179.074785,21.285297 L258.422378,13.9628976 C259.521166,13.8877825 260.479493,14.702361 260.582378,15.7988975 L260.582378,15.7988975 C260.652041,16.8919816 259.846563,17.84521 258.757178,17.9588973 L258.757178,17.9588973 Z" id="Path" fill-opacity="0.7" fill="#FFFFFF" fill-rule="nonzero" opacity="0.3"></path>
            <path d="M119.32919,18.0128973 C119.32919,18.0128973 101.023191,14.3408976 98.9711915,26.1236966 C96.9191917,37.9064956 103.625991,42.9176952 103.625991,42.9176952 L119.32919,18.0128973 Z" id="Path" fill="#263238" fill-rule="nonzero"></path>
            <path d="M103.625991,49.3868946 C101.534182,43.5295154 101.20748,37.1870023 102.686391,31.1456962 C104.479191,23.5856968 113.48639,13.1852977 127.148389,22.6352969 C134.179188,27.5060965 134.611188,38.0792956 132.418789,47.7560947 C131.900389,50.0672945 132.289189,52.3244943 131.522389,54.4520942 C128.822389,61.9040935 123.886789,67.638893 121.18679,67.768493 C116.68319,67.995293 107.675991,62.5412935 108.043191,57.7892939" id="Path" stroke="#263238" stroke-width="1.07999991" fill="#FFE0CA" fill-rule="nonzero" stroke-linecap="round" stroke-linejoin="round"></path>
            <path d="M121.86719,45.9632949 C121.86719,45.9632949 118.22759,43.3280951 114.72839,45.4880949" id="Path" stroke="#263238" stroke-width="1.07999991" stroke-linecap="round" stroke-linejoin="round"></path>
            <path d="M128.735989,45.4880949 C128.735989,45.4880949 131.489989,42.9608951 133.282789,43.3280951" id="Path" stroke="#263238" stroke-width="1.07999991" stroke-linecap="round" stroke-linejoin="round"></path>
            <path d="M116.72639,50.0024945 C116.72639,50.6720945 117.06119,51.2228944 117.48239,51.2228944 C117.90359,51.2228944 118.24919,50.6720945 118.24919,50.0024945 C118.24919,49.3328946 117.90359,48.7928946 117.48239,48.7928946 C117.06119,48.7928946 116.72639,49.3328946 116.72639,50.0024945 Z" id="Path" fill="#263238" fill-rule="nonzero"></path>
            <ellipse id="Oval" fill="#263238" fill-rule="nonzero" cx="128.735989" cy="49.3328946" rx="1" ry="1.2095999"></ellipse>
            <path d="M127.191589,48.0368947 C125.852389,49.7864946 127.731589,56.450094 127.191589,56.9252939 C126.651589,57.4004939 123.217189,56.050494 123.217189,56.050494 C123.217189,56.050494 122.417989,55.0352941 124.091989,54.4952942" id="Path" stroke="#263238" stroke-width="1.07999991" stroke-linecap="round" stroke-linejoin="round"></path>
            <path d="M124.145989,60.2732937 C124.145989,60.2732937 119.53439,60.2732937 118.30319,58.5884938" id="Path" stroke="#263238" stroke-width="1.07999991" stroke-linecap="round" stroke-linejoin="round"></path>
            <path d="M113.10839,35.3144958 L112.75199,40.8872953 C112.75199,40.8872953 108.799191,42.9284952 107.805591,45.002095 C107.214306,46.3601906 106.997996,47.8519895 107.179191,49.3220946 C107.179191,49.3220946 104.781591,45.131695 103.485591,45.4772949 C103.021191,45.5960949 103.021191,47.3564948 103.021191,47.3564948 C103.021191,47.3564948 97.6211916,35.3036958 102.502791,28.9316964 C107.384391,22.5596969 113.10839,35.3144958 113.10839,35.3144958 Z" id="Path" stroke="#263238" stroke-width="1.07999991" fill="#757575" fill-rule="nonzero" stroke-linecap="round" stroke-linejoin="round"></path>
            <path d="M105.494391,48.1232947 C105.494391,48.1232947 104.414391,44.0732951 100.774791,43.0040951 C97.1351916,41.9348952 99.6299914,51.6440944 102.729591,52.9076943 C105.829191,54.1712942 106.606791,55.0676941 106.790391,53.9120942" id="Path" stroke="#263238" stroke-width="1.07999991" fill="#FFE0CA" fill-rule="nonzero" stroke-linecap="round" stroke-linejoin="round"></path>
            <path d="M100.537191,34.6124959 C100.234791,34.2020959 98.8955915,23.8124968 105.753591,19.1468972 C112.61159,14.4812976 124.199989,14.9780976 131.576389,21.436497 C138.952788,27.8948964 136.857588,39.0944955 131.576389,42.9176952 L131.576389,38.2412956 C131.576389,38.2412956 129.146389,42.9284952 121.85639,43.3172951 L124.081189,39.8828954 C124.081189,39.8828954 120.49559,42.0428952 114.17759,41.8592952 C114.17759,41.8592952 117.14759,39.4940954 116.71559,37.3880956 C116.72639,37.3880956 106.693191,43.0364951 100.537191,34.6124959 Z" id="Path" fill="#2E2E2E" fill-rule="nonzero"></path>
            <path d="M101.822391,72.0668926 C96.7679917,72.6716926 89.5751923,79.270492 94.2623919,90.988491 C97.2539916,98.4188904 121.83479,94.0016908 121.83479,94.0016908 C130.949989,90.2432911 144.266388,76.7216922 154.040387,70.4468928 C154.040387,70.4468928 151.977587,57.4868939 149.601587,59.3228937 C138.553188,67.779293 129.470389,68.362493 114.05879,75.7712923 C114.09119,75.7280923 104.997591,71.6888927 101.822391,72.0668926 Z" id="Path" stroke="#263238" stroke-width="1.07999991" fill="#FFE0CA" fill-rule="nonzero" stroke-linecap="round" stroke-linejoin="round"></path>
            <path d="M113.10839,86.4524914 C112.95719,91.290891 114.94439,92.1440909 118.29239,93.2888908" id="Path" stroke="#263238" stroke-width="1.07999991" fill="#FFFFFF" fill-rule="nonzero" stroke-linecap="round" stroke-linejoin="round"></path>
            <path d="M148.867187,60.2732937 C149.093987,59.5712937 153.187187,52.3784943 154.342787,50.5532945 C155.498387,48.7280947 160.660786,47.0756948 162.658786,45.9740949 C164.656786,44.872495 164.818786,43.1984951 165.898786,44.397295 C166.978786,45.5960949 165.898786,48.3284947 159.915586,51.2336944 C162.041563,51.3512333 164.172409,51.3512333 166.298386,51.2336944 C167.896786,50.9960945 169.322385,49.5488946 170.035185,50.5532945 C170.747985,51.5576944 170.888385,53.3612943 167.324386,54.4628942 C165.629468,55.0773274 163.853965,55.4411599 162.053986,55.5428941 C163.797663,55.9154404 165.51213,56.4135382 167.183986,57.0332939 C167.756386,57.4544939 168.609585,58.4372938 169.462785,58.5884938 C170.315985,58.7396938 171.244785,59.6684937 169.678785,60.7484936 C168.551252,61.3717718 167.188191,61.3960399 166.039186,60.8132936 C166.039186,60.8132936 170.175585,62.8112934 168.890385,64.0532933 C167.605186,65.2952932 163.490386,65.0468932 163.490386,65.0468932 C163.490386,65.0468932 157.388386,72.4880926 152.225987,70.9328927" id="Path" stroke="#263238" stroke-width="1.07999991" fill="#FFE0CA" fill-rule="nonzero" stroke-linecap="round" stroke-linejoin="round"></path>
            <path d="M156.178787,50.5424945 C156.890852,50.7078033 157.449989,51.2585949 157.625986,51.9680944 C157.982386,53.2424943 159.029986,53.3180943 159.667186,54.7436941 C160.304386,56.169294 160.120786,58.3724938 160.747186,59.1284938 C161.373586,59.8844937 160.747186,63.0704934 160.747186,63.0704934" id="Path" stroke="#263238" stroke-width="1.07999991" stroke-linecap="round" stroke-linejoin="round"></path>
            <path d="M102.880791,71.1488927 C100.234791,67.779293 94.2947919,69.3020929 94.2947919,69.3020929" id="Path" stroke="#717272" stroke-width="1.07999991" stroke-linecap="round" stroke-linejoin="round"></path>
            <path d="M91.0547922,63.0920934 C91.0547922,63.0920934 97.1675916,63.9884933 98.9711915,69.0752929" id="Path" stroke="#717272" stroke-width="1.07999991" stroke-linecap="round" stroke-linejoin="round"></path>
            <path d="M101.822391,95.2976906 C101.822391,95.2976906 95.8607917,99.9092902 86.7887925,93.2888908" id="Path" stroke="#717272" stroke-width="1.07999991" stroke-linecap="round" stroke-linejoin="round"></path>
            <path d="M94.2947919,96.6908905 C94.2947919,96.6908905 91.2707921,100.87049 83.9051928,100.81649" id="Path" stroke="#717272" stroke-width="1.07999991" stroke-linecap="round" stroke-linejoin="round"></path>
            <path d="M132.181189,149.276086 C132.181189,149.276086 116.58599,161.706885 100.742391,160.076085" id="Path" stroke="#717272" stroke-width="1.07999991" stroke-linecap="round" stroke-linejoin="round"></path>
            <path d="M90.0287922,121.962888 C90.0287922,121.962888 114.23159,139.718087 132.148789,140.852087" id="Path" stroke="#717272" stroke-width="1.07999991" stroke-linecap="round" stroke-linejoin="round"></path>
            <path d="M90.6659922,253.398877 C94.8294477,251.089263 99.7243577,250.477883 104.327991,251.692477 C112.22279,253.679677 132.731989,283.012474 135.583188,285.874474 C138.434388,288.736474 143.769588,290.194474 148.683587,295.367673 C156.459587,303.478473 167.767186,310.649672 168.911985,310.649672 C170.056785,310.649672 170.974785,309.936872 172.400385,309.656072 C173.825985,309.375272 184.863584,308.370872 184.863584,308.370872 C184.863584,308.370872 188.567984,309.191672 184.863584,310.779272 C181.159184,312.366872 181.439984,313.781672 181.439984,313.781672 C181.439984,313.781672 180.694784,314.980472 182.185184,316.125272 C183.675584,317.270072 184.550384,316.643672 186.677984,319.656871 C188.805584,322.670071 183.675584,320.963671 183.675584,320.963671 C183.675584,320.963671 184.809584,324.203671 182.530784,323.879671 C180.251984,323.555671 182.249984,327.044071 178.545585,326.568871 C174.841185,326.093671 166.913986,321.093271 164.926786,315.855272 C164.926786,315.855272 132.591589,300.400473 127.753189,296.415273 C122.914789,292.430074 102.545991,271.056876 101.152791,270.776076" id="Path" fill="#FFE0CA" fill-rule="nonzero"></path>
            <path d="M175.262385,282.342875 L199.022383,282.342875 C200.143742,282.342875 201.052783,283.251916 201.052783,284.373274 L201.052783,301.329273 L173.231985,301.329273 L173.231985,284.373274 C173.231985,283.251916 174.141026,282.342875 175.262385,282.342875 L175.262385,282.342875 Z" id="Path" fill="#ED5C37" fill-rule="nonzero"></path>
            <g id="Group" transform="translate(172.745985, 282.008075)" fill-opacity="0.7" fill-rule="nonzero" opacity="0.3">
                <path d="M2.51639978,0.334799971 L26.2763977,0.334799971 C27.3977566,0.334799971 28.3067976,1.24384094 28.3067976,2.3651998 L28.3067976,19.3211983 L0.485999958,19.3211983 L0.485999958,2.3651998 C0.485999958,1.24384094 1.39504092,0.334799971 2.51639978,0.334799971 L2.51639978,0.334799971 Z" id="Path" fill="#000000"></path>
                <rect id="Rectangle" fill="#FFFFFF" x="19.9259983" y="2.12759982" width="6.83639941" height="13.6727988"></rect>
            </g>
            <path d="M175.262385,282.342875 L199.022383,282.342875 C200.143742,282.342875 201.052783,283.251916 201.052783,284.373274 L201.052783,301.329273 L173.231985,301.329273 L173.231985,284.373274 C173.231985,283.251916 174.141026,282.342875 175.262385,282.342875 L175.262385,282.342875 Z" id="Path" stroke="#263238" stroke-width="1.07999991" stroke-linecap="round" stroke-linejoin="round"></path>
            <path d="M216.302381,282.342875 L240.062379,282.342875 C241.183738,282.342875 242.092779,283.251916 242.092779,284.373274 L242.092779,301.329273 L214.271982,301.329273 L214.271982,284.373274 C214.271982,283.834779 214.485898,283.318339 214.866672,282.937565 C215.247446,282.556791 215.763886,282.342875 216.302381,282.342875 L216.302381,282.342875 Z" id="Path" fill="#ED5C37" fill-rule="nonzero"></path>
            <g id="Group" transform="translate(213.785982, 282.008075)" fill-opacity="0.7" fill-rule="nonzero" opacity="0.3">
                <path d="M2.51639978,0.334799971 L26.2763977,0.334799971 C27.3977566,0.334799971 28.3067976,1.24384094 28.3067976,2.3651998 L28.3067976,19.3211983 L0.485999958,19.3211983 L0.485999958,2.3651998 C0.485999958,1.82670428 0.699916468,1.31026414 1.0806903,0.929490311 C1.46146413,0.548716481 1.97790427,0.334799971 2.51639978,0.334799971 L2.51639978,0.334799971 Z" id="Path" fill="#000000"></path>
                <rect id="Rectangle" fill="#FFFFFF" x="22.1831981" y="2.12759982" width="4.12559964" height="13.6727988"></rect>
            </g>
            <path d="M216.302381,282.342875 L240.062379,282.342875 C241.183738,282.342875 242.092779,283.251916 242.092779,284.373274 L242.092779,301.329273 L214.271982,301.329273 L214.271982,284.373274 C214.271982,283.834779 214.485898,283.318339 214.866672,282.937565 C215.247446,282.556791 215.763886,282.342875 216.302381,282.342875 L216.302381,282.342875 Z" id="Path" stroke="#263238" stroke-width="1.07999991" stroke-linecap="round" stroke-linejoin="round"></path>
            <path d="M207.662382,282.342875 L231.42238,282.342875 C232.543739,282.342875 233.45278,283.251916 233.45278,284.373274 L233.45278,301.329273 L205.631982,301.329273 L205.631982,284.373274 C205.631982,283.834779 205.845899,283.318339 206.226673,282.937565 C206.607446,282.556791 207.123887,282.342875 207.662382,282.342875 L207.662382,282.342875 Z" id="Path" stroke="#263238" stroke-width="1.07999991" fill="#ED5C37" fill-rule="nonzero" stroke-linecap="round" stroke-linejoin="round"></path>
            <path d="M248.702379,282.342875 L272.462377,282.342875 C273.583735,282.342875 274.492776,283.251916 274.492776,284.373274 L274.492776,301.329273 L246.671979,301.329273 L246.671979,284.373274 C246.671979,283.251916 247.58102,282.342875 248.702379,282.342875 L248.702379,282.342875 Z" id="Path" stroke="#263238" stroke-width="1.07999991" fill="#ED5C37" fill-rule="nonzero" stroke-linecap="round" stroke-linejoin="round"></path>
            <rect id="Rectangle" fill-opacity="0.7" fill="#FFFFFF" fill-rule="nonzero" opacity="0.3" x="225.071981" y="284.135674" width="6.83639941" height="13.6727988"></rect>
            <rect id="Rectangle" fill-opacity="0.7" fill="#FFFFFF" fill-rule="nonzero" opacity="0.3" x="265.658377" y="284.135674" width="6.83639941" height="13.6727988"></rect>
            <path d="M286.599575,297.376473 L286.599575,375.341667 L160.984786,375.341667 L160.984786,297.376473 C160.984786,294.662546 163.184859,292.462474 165.898786,292.462474 L281.685576,292.462474 C282.988849,292.462474 284.238744,292.980197 285.160298,293.901751 C286.081852,294.823305 286.599575,296.0732 286.599575,297.376473 L286.599575,297.376473 Z" id="Path" fill="#ED5C37" fill-rule="nonzero"></path>
            <path d="M286.599575,297.376473 L286.599575,375.341667 L160.984786,375.341667 L160.984786,297.376473 C160.984786,294.662546 163.184859,292.462474 165.898786,292.462474 L281.685576,292.462474 C282.988849,292.462474 284.238744,292.980197 285.160298,293.901751 C286.081852,294.823305 286.599575,296.0732 286.599575,297.376473 L286.599575,297.376473 Z" id="Path" fill-opacity="0.7" fill="#000000" fill-rule="nonzero" opacity="0.3"></path>
            <path d="M286.599575,297.376473 L286.599575,375.341667 L160.984786,375.341667 L160.984786,297.376473 C160.984786,294.662546 163.184859,292.462474 165.898786,292.462474 L281.685576,292.462474 C282.988849,292.462474 284.238744,292.980197 285.160298,293.901751 C286.081852,294.823305 286.599575,296.0732 286.599575,297.376473 L286.599575,297.376473 Z" id="Path" stroke="#263238" stroke-width="1.07999991" stroke-linecap="round" stroke-linejoin="round"></path>
            <path d="M286.599575,297.376473 L286.599575,375.341667 L193.384783,375.341667 L193.384783,297.376473 C193.384783,294.662546 195.584856,292.462474 198.298783,292.462474 L281.685576,292.462474 C282.988849,292.462474 284.238744,292.980197 285.160298,293.901751 C286.081852,294.823305 286.599575,296.0732 286.599575,297.376473 L286.599575,297.376473 Z" id="Path" stroke="#263238" stroke-width="1.07999991" fill="#ED5C37" fill-rule="nonzero" stroke-linecap="round" stroke-linejoin="round"></path>
            <path d="M280.292376,300.152073 L200.609983,300.152073 C199.488624,300.152073 198.579123,299.243032 198.579123,298.121673 L198.579123,298.121673 C198.567964,297.575732 198.776741,297.048124 199.158781,296.657955 C199.540822,296.267786 200.063918,296.04795 200.609983,296.048073 L280.292376,296.048073 C281.413735,296.048073 282.323236,296.957114 282.323236,298.078473 L282.323236,298.078473 C282.334394,298.624414 282.125618,299.152022 281.743577,299.542191 C281.361537,299.93236 280.838441,300.152197 280.292376,300.152073 Z" id="Path" fill-opacity="0.7" fill="#FFFFFF" fill-rule="nonzero" opacity="0.3"></path>
            <path d="M132.785989,375.341667 C126.305989,375.341667 117.20159,371.172867 106.714791,366.766467 C95.8391917,362.187268 83.4515928,357.348868 70.8803939,356.625268 C66.1931943,356.355268 69.0335941,375.341667 69.0335941,375.341667 L58.7735949,375.341667 C58.7735949,375.341667 48.6431958,361.820068 47.4659959,349.713269 C47.4659959,349.713269 55.7387952,344.604869 57.725995,344.313269 C58.411185,344.24164 59.0999055,344.209187 59.7887949,344.216069 C62.0135947,344.216069 64.9835944,344.313269 64.9835944,344.313269 L64.9835944,344.313269 C64.5083944,344.032469 56.9375951,339.47487 52.7579955,334.84167 C49.3127958,331.01847 47.7359959,324.981271 47.6171959,321.374071 C47.7507236,318.985548 48.0139114,316.606042 48.4055958,314.246072 L102.319191,315.142472 C102.319191,315.142472 102.902391,315.552872 103.939191,316.319672 C110.192391,320.877271 133.045189,337.85487 144.471588,350.652869 C148.165187,354.789268 150.659987,358.482868 151.027187,361.182868 C152.744387,373.635267 142.559988,375.341667 132.785989,375.341667 Z" id="Path" stroke="#263238" stroke-width="1.07999991" fill="#757575" fill-rule="nonzero" stroke-linecap="round" stroke-linejoin="round"></path>
            <path d="M144.482388,350.631269 L118.25999,356.625268 C113.764226,359.197045 109.830833,362.64565 106.693191,366.766467 C95.8175918,362.187268 83.4299928,357.348868 70.8587939,356.625268 C66.1715943,356.355268 69.0119941,375.341667 69.0119941,375.341667 L58.7519949,375.341667 C58.7519949,375.341667 48.6431958,361.820068 47.4659959,349.713269 C47.4659959,349.713269 57.0131951,363.321268 59.3459949,370.233267 C59.3459949,370.233267 63.0503946,357.446068 69.0659941,352.316069 C66.3490081,349.255935 63.2616735,346.545901 59.8751948,344.248469 C62.0999947,344.248469 65.0699944,344.345669 65.0699944,344.345669 L65.0699944,344.345669 C64.5947944,344.064869 57.0239951,339.50727 52.8443955,334.87407 C49.3991957,331.05087 48.0059959,325.002871 47.7035959,321.406471 C47.5523959,319.635271 47.7683959,314.278472 47.7683959,314.278472 C47.7683959,314.278472 87.9767924,320.013271 104.025591,316.352072 C110.203191,320.888071 133.055989,337.83327 144.482388,350.631269 Z" id="Path" fill="#2E2E2E" fill-rule="nonzero"></path>
            <path d="M102.329991,349.713269 C102.329991,349.713269 123.692389,360.416068 129.394789,364.606467 C135.097188,368.796867 136.792788,367.662867 136.792788,367.662867" id="Path" stroke="#263238" stroke-width="1.07999991" stroke-linecap="round" stroke-linejoin="round"></path>
            <path d="M52.7687955,348.579269 C52.7687955,348.579269 57.898795,356.409268 58.168795,358.752868" id="Path" stroke="#263238" stroke-width="1.07999991" stroke-linecap="round" stroke-linejoin="round"></path>
            <path d="M138.693588,198.286482 C138.693588,198.286482 150.065987,193.340082 148.985987,214.37848 C147.905987,235.416879 151.761587,236.496878 151.761587,236.496878 C151.761587,236.496878 123.141589,248.247277 115.87319,238.203278 C108.604791,228.159279 115.50599,200.673282 138.693588,198.286482 Z" id="Path" fill="#2E2E2E" fill-rule="nonzero"></path>
            <path d="M137.105988,236.496878 C137.105988,236.496878 125.333989,242.048078 124.264789,247.178078 C123.195589,252.308077 108.453591,244.586078 108.453591,244.586078 L119.13479,229.228479 L137.105988,236.496878 Z" id="Path" stroke="#263238" stroke-width="1.07999991" fill="#FFE0CA" fill-rule="nonzero" stroke-linecap="round" stroke-linejoin="round"></path>
            <path d="M59.9183948,292.808074 C32.9183972,327.195271 54.8315953,343.784069 85.4387926,341.040869 L79.3043932,350.760869 L94.7051918,353.428468 C94.7051918,353.428468 106.509591,345.717269 122.601589,337.47687 C149.990387,323.436871 161.060386,324.279271 158.241586,310.228472 C155.422787,296.177673 121.85639,287.062474 88.2035924,301.869273 C88.1711924,301.858473 69.897594,280.150475 59.9183948,292.808074 Z" id="Path" stroke="#263238" stroke-width="1.07999991" fill="#757575" fill-rule="nonzero" stroke-linecap="round" stroke-linejoin="round"></path>
            <path d="M69.335994,367.662867 C69.335994,367.662867 76.3667934,348.222869 79.3043932,347.142869 C82.2419929,346.062869 93.344392,350.274869 94.7051918,353.406868 C94.7051918,353.406868 98.4527915,347.661269 99.9863914,350.102069 C101.519991,352.542868 99.3059915,356.582068 99.9863914,359.670868 C100.666791,362.759668 108.259191,367.079667 111.29399,367.652067 C114.32879,368.224467 116.05679,369.930867 116.05679,371.637267 L116.05679,375.341667 L69.335994,375.341667 C68.2884347,372.88925 68.2884347,370.115284 69.335994,367.662867 L69.335994,367.662867 Z" id="Path" stroke="#263238" stroke-width="1.07999991" fill="#AAAAAA" fill-rule="nonzero" stroke-linecap="round" stroke-linejoin="round"></path>
            <path d="M99.9863914,356.625268 C99.9863914,356.625268 93.7979919,359.681668 91.5407921,358.785268 C89.2835923,357.888868 92.696392,363.915268 93.5495919,364.487667 C94.4027919,365.060067 100.029591,362.489668 100.029591,362.489668" id="Path" stroke="#263238" stroke-width="1.07999991" stroke-linecap="round" stroke-linejoin="round"></path>
            <path d="M75.1787935,353.417668 C75.1787935,353.417668 83.5811928,353.579668 86.1407926,356.657668" id="Path" stroke="#263238" stroke-width="1.07999991" stroke-linecap="round" stroke-linejoin="round"></path>
            <path d="M69.335994,367.662867 C69.335994,367.662867 82.7279929,370.794867 83.8619928,370.794867 C85.7037515,370.429432 87.5104759,369.905482 89.2619923,369.228867 C89.2619923,369.228867 92.933992,371.075667 95.3747918,372.220467 C97.8155916,373.365267 113.73479,372.220467 113.73479,372.220467" id="Path" stroke="#263238" stroke-width="1.07999991" stroke-linecap="round" stroke-linejoin="round"></path>
            <path d="M85.4387926,341.062469 C98.2259915,339.68007 123.065989,323.922871 131.705989,318.447271 C140.345988,312.971672 142.505988,314.408072 142.505988,314.408072" id="Path" stroke="#263238" stroke-width="1.07999991" stroke-linecap="round" stroke-linejoin="round"></path>
            <path d="M47.6927959,314.224472 L49.7339957,298.726473 L54.6587953,295.011273 C62.6399946,275.646875 98.7983915,239.477678 108.658791,239.596186 C123.465589,239.769278 126.079189,255.310477 127.904389,272.320475 C129.729589,289.330474 106.660791,286.770874 106.660791,286.770874 L106.660791,291.036874 L93.5387919,297.830073 L101.487591,297.581673 C101.487591,297.581673 78.6239932,319.808071 47.6927959,314.224472 Z" id="Path" stroke="#263238" stroke-width="1.07999991" fill="#ED5C37" fill-rule="nonzero" stroke-linecap="round" stroke-linejoin="round"></path>
            <path d="M111.77999,209.648081 C114.87959,199.928082 129.059989,197.336082 134.157588,198.923682 C138.342039,200.557526 141.771093,203.686394 143.780388,207.704081 C145.076388,210.501281 142.365588,215.44768 144.298788,218.33128 C147.063587,222.46768 146.825987,231.194079 145.832387,236.691278 C145.292387,239.607278 133.163989,241.335278 123.249589,234.531279 C112.60079,227.165679 108.777591,219.00088 111.77999,209.648081 Z" id="Path" stroke="#263238" stroke-width="1.07999991" fill="#FFE0CA" fill-rule="nonzero" stroke-linecap="round" stroke-linejoin="round"></path>
            <path d="M126.111589,196.018482 C126.111589,196.018482 138.596388,193.988082 138.682788,197.195682 C139.233588,218.50408 126.457189,222.97528 126.457189,222.97528 C126.457189,222.97528 121.24079,218.81728 120.07439,221.66848 C118.90799,224.51968 121.91039,232.403679 125.603989,232.565679 C123.867772,235.262689 123.809194,238.710444 125.452789,241.464878 C125.452789,241.464878 104.306391,244.996478 102.556791,235.200879 C103.374241,231.795806 103.958794,228.339005 104.306391,224.854479 C105.677991,211.127681 102.470391,201.893681 126.111589,196.018482 Z" id="Path" fill="#2E2E2E" fill-rule="nonzero"></path>
            <path d="M142.786788,217.73728 C145.389587,220.08088 147.257987,220.08088 147.225587,220.92328 C147.128387,223.54768 143.985588,224.854479 143.985588,224.854479" id="Path" stroke="#263238" stroke-width="1.07999991" fill="#FFE0CA" fill-rule="nonzero" stroke-linecap="round" stroke-linejoin="round"></path>
            <path d="M143.920788,229.228479 C142.081657,229.850995 140.096776,229.899958 138.229188,229.368879" id="Path" stroke="#263238" stroke-width="1.07999991" stroke-linecap="round" stroke-linejoin="round"></path>
            <path d="M136.997988,204.658481 C136.997988,204.658481 145.303187,202.250081 143.780388,215.72848 C143.780388,215.72848 147.236387,211.030481 147.225613,205.749281 C147.225613,196.601682 134.989188,198.437682 134.989188,198.437682 L136.587588,204.917681" id="Path" fill="#2E2E2E" fill-rule="nonzero"></path>
            <path d="M144.547188,211.257281 C143.911799,210.835116 143.131555,210.690771 142.387188,210.857681" id="Path" stroke="#263238" stroke-width="1.07999991" stroke-linecap="round" stroke-linejoin="round"></path>
            <path d="M138.952788,211.106081 C138.952788,211.106081 134.492388,211.365281 132.559189,214.34608" id="Path" stroke="#263238" stroke-width="1.07999991" stroke-linecap="round" stroke-linejoin="round"></path>
            <path d="M137.883588,218.20168 C137.948388,218.91448 137.645988,219.53008 137.203188,219.57328 C136.760388,219.61648 136.349988,219.06568 136.274388,218.35288 C136.198788,217.64008 136.511988,217.02448 136.954788,216.98128 C137.397588,216.93808 137.818788,217.48888 137.883588,218.20168 Z" id="Path" fill="#263238" fill-rule="nonzero"></path>
            <path d="M86.1407926,344.302469 C86.1407926,344.302469 96.0767917,345.382469 98.2367915,349.702469" id="Path" stroke="#263238" stroke-width="1.07999991" stroke-linecap="round" stroke-linejoin="round"></path>
            <path d="M111.29399,246.886478 C115.457446,244.576864 120.352356,243.965483 124.955989,245.180078 C132.861589,247.178078 153.359987,276.500075 156.211187,279.362075 C159.062386,282.224075 164.397586,283.682074 169.311585,288.855274 C177.087585,296.966073 188.395184,304.137273 189.539984,304.137273 C190.684784,304.137273 191.602784,303.424473 193.028383,303.143673 C194.453983,302.862873 205.491582,301.858473 205.491582,301.858473 C205.491582,301.858473 209.195982,302.690073 205.491582,304.266873 C201.787183,305.843673 202.067983,307.280072 202.067983,307.280072 C202.067983,307.280072 201.333583,308.468072 202.813183,309.612872 C204.292782,310.757672 205.178382,310.131272 207.305982,313.144472 C209.433582,316.157672 204.303582,314.451272 204.303582,314.451272 C204.303582,314.451272 205.437582,317.691271 203.158783,317.367272 C200.879983,317.043272 202.877983,320.531671 199.173583,320.056471 C195.469183,319.581271 187.541984,314.580872 185.554784,309.342872 C185.554784,309.342872 153.219587,293.888074 148.381187,289.902874 C143.542788,285.917674 123.195589,264.544476 121.75919,264.263676" id="Path" stroke="#263238" stroke-width="1.07999991" fill="#FFE0CA" fill-rule="nonzero" stroke-linecap="round" stroke-linejoin="round"></path>
            <path d="M106.649991,243.754478 C106.649991,243.754478 122.590789,239.488478 128.152789,242.620478 C133.714788,245.752478 144.255588,260.278476 144.255588,260.278476 C144.255588,260.278476 131.403589,271.780475 127.429189,270.732876 C123.454789,269.685276 111.29399,267.968076 111.29399,267.968076" id="Path" stroke="#263238" stroke-width="1.07999991" fill="#ED5C37" fill-rule="nonzero" stroke-linecap="round" stroke-linejoin="round"></path>
            <path d="M120.47399,269.372076 C120.47399,269.372076 114.69599,272.547275 112.56839,272.547275" id="Path" stroke="#263238" stroke-width="1.07999991" stroke-linecap="round" stroke-linejoin="round"></path>
            <path d="M111.29399,253.442077 C111.77999,254.295277 111.61799,263.637276 121.75919,266.542476" id="Path" stroke="#263238" stroke-width="1.07999991" stroke-linecap="round" stroke-linejoin="round"></path>
            <path d="M57.0887951,295.313673 C57.0887951,295.313673 78.6887932,299.018073 86.1407926,292.462474" id="Path" stroke="#263238" stroke-width="1.07999991" stroke-linecap="round" stroke-linejoin="round"></path>
            <path d="M93.5279919,297.830073 C93.5279919,297.830073 88.1279924,296.879673 86.1407926,299.655273 C84.1535928,302.430873 73.3319937,305.055273 73.3319937,305.055273" id="Path" stroke="#263238" stroke-width="1.07999991" stroke-linecap="round" stroke-linejoin="round"></path>
            <path d="M50.1119957,318.447271 C50.1119957,318.447271 46.990796,331.90407 60.3071948,337.88727" id="Path" stroke="#263238" stroke-width="1.07999991" stroke-linecap="round" stroke-linejoin="round"></path>
            <path d="M57.0887951,319.376071 C57.0887951,319.376071 57.1643951,326.007271 59.2487949,329.63607 L65.8691943,331.79607 L73.2779937,327.670471 C73.2779937,327.670471 71.7011938,319.192471 71.5607938,317.475272" id="Path" stroke="#263238" stroke-width="1.07999991" stroke-linecap="round" stroke-linejoin="round"></path>
        </g>
    </g>
</svg>