<?xml version="1.0" encoding="UTF-8"?>
<svg width="99px" height="34px" viewBox="0 0 99 34" version="1.1" xmlns="http://www.w3.org/2000/svg" xmlns:xlink="http://www.w3.org/1999/xlink">
    <title>django-development</title>
    <g id="Page-1" stroke="none" stroke-width="1" fill="none" fill-rule="evenodd">
        <g id="django-development" fill-rule="nonzero">
            <rect id="Rectangle" fill="#ED5C37" x="87" y="12" width="12" height="15" rx="6"></rect>
            <g id="brand_django_icon_158932" fill="#000000">
                <path d="M11.3852671,4.03407687 L11.3852671,8.07762039 L11.0850764,8.02231695 C9.24103039,7.6987105 7.27752003,7.82818561 5.60501371,8.38902755 C1.90160628,9.63414383 -0.175242197,12.9349296 0.0116130243,17.2866597 C0.100448857,19.2375455 0.489475438,20.5812889 1.32878814,21.8479735 C2.52649886,23.663252 4.46550379,24.7419375 7.30202627,25.1919041 C9.3880638,25.5247821 13.630594,25.2905557 16.500811,24.680266 L16.7183012,24.6306556 L16.7183012,0.00265944482 L11.3822092,0.00265944482 L11.3822092,4.0369559 L11.3852671,4.03407687 Z M11.0054313,12.2814219 L11.3852671,12.3800735 L11.3852671,20.960272 L10.8430775,21.0098824 C8.73253376,21.2132852 7.34184154,20.8557648 6.45351393,19.869558 C5.75816782,19.105232 5.40283661,18.014209 5.40283661,16.673556 C5.40283661,14.2973624 6.52703023,12.6885691 8.50585689,12.2324458 C9.07867422,12.1029707 10.4203564,12.1276133 11.0054272,12.2820563 L11.0054313,12.2814219 Z M19.8733911,2.7242393 L19.8733911,5.44869819 L25.2094831,5.44869819 L25.1942056,2.73965107 L25.1697131,0.039851008 L22.5261729,0.0154524317 L19.8733911,-2.84217094e-14 L19.8733911,2.72445889 L19.8733911,2.7242393 Z M34.3439415,7.85571534 C32.4600746,7.99438058 30.4873743,8.48137616 28.8301843,9.21486243 L28.3615126,9.42753669 L28.3615126,11.4770415 C28.3615126,13.079662 28.3860051,13.5111427 28.4656583,13.4772368 C31.3205599,12.2475323 32.7326939,11.9085222 34.7237733,11.9639964 C35.56309,11.988395 35.7438188,12.0192999 35.9368003,12.1673992 C36.3258269,12.4509107 36.4452905,12.8022502 36.4452905,13.6405771 C36.4452905,14.0566542 36.430013,14.3956317 36.4054397,14.3956317 C36.1726397,14.3956317 34.5950891,14.5990345 33.8415421,14.7285096 C29.9696595,15.378813 27.9632638,16.7132932 27.4302674,18.966217 C27.2771044,19.641163 27.2771044,21.2684423 27.4302674,21.9433964 C27.6906396,23.0344112 28.2389523,23.8480468 29.1119636,24.408962 C30.9223142,25.589357 33.654687,25.7095525 40.7919397,24.9206001 L41.2943027,24.8652967 L41.2943027,18.7568447 C41.2943027,15.3975023 41.2544518,12.3155311 41.2146818,11.9087174 C40.9726992,9.62168429 39.8883305,8.47519519 37.5204773,8.02214616 C36.8588241,7.89885202 35.103614,7.8094719 34.3439407,7.85875703 L34.3439415,7.85571534 Z M36.6872885,19.6750607 L36.6872885,21.4564333 L35.9827533,21.5611845 C34.8830651,21.7245737 33.4127302,21.7060308 32.9501873,21.5270265 C32.107807,21.2003296 31.776982,20.2510949 32.2058336,19.4189651 C32.4386336,18.9628744 33.0145185,18.5899096 33.8722135,18.3371892 C34.291876,18.2138951 36.0960961,17.9149312 36.5065646,17.8995601 L36.6842282,17.8906139 L36.6842282,19.6719946 L36.6872885,19.6750607 Z M50.9954892,7.8649624 C49.077927,7.9454777 46.2168991,8.41043324 44.1890615,8.95597727 L43.8827436,9.03649257 L43.8827436,25.1335997 L49.2188356,25.1335997 L49.2341131,18.806325 L49.2586056,12.4882974 L49.8252958,12.3341797 C50.2296403,12.2294285 50.6983071,12.1800621 51.4824858,12.1707906 C52.468836,12.1618445 52.6158694,12.1797368 53.0018324,12.3588223 C53.5256405,12.5930486 53.8595282,12.9690307 54.0433197,13.5207232 C54.1719741,13.9121577 54.187292,14.4545543 54.2117926,19.5398032 L54.2362851,25.1366495 L59.4896709,25.1366495 L59.4559634,18.775469 C59.4315371,13.0580774 59.4162216,12.3492255 59.2936937,11.8869294 C59.0517005,10.968502 58.6871802,10.3490303 58.0255294,9.67407617 C56.9901676,8.62620611 55.5994762,8.08070274 53.4736161,7.90194251 C52.487266,7.82142721 52.2054519,7.81256239 50.9924248,7.8677845 L50.9954892,7.8649624 Z M86.5193997,7.93002527 C83.4071951,8.50022 81.1771813,10.3771049 80.239846,13.2402534 C79.7956669,14.5809064 79.6731235,15.5332397 79.7221894,17.2344793 C79.7561394,18.2515339 79.8110252,18.8679233 79.9243535,19.3671995 C80.5859744,22.2056973 82.3412136,24.1966456 84.960254,25.0934966 C87.1994505,25.8670941 90.2871545,25.737619 92.3241787,24.7852612 C94.9279012,23.5832897 96.5207624,21.2225079 96.9067254,18.0172588 C97.3600388,14.3096511 96.1378388,10.9564735 93.7455035,9.29837876 C92.7040145,8.57414768 91.870825,8.23201458 90.5046446,7.96388236 C89.5673013,7.77585067 87.4322505,7.76047956 86.5194158,7.92972435 L86.5193997,7.93002527 Z M89.4937672,12.2817635 C90.3514655,12.599189 90.9978007,13.4374996 91.3531279,14.6795336 C91.5154412,15.2404568 91.5400145,15.517828 91.5400145,16.6735641 C91.5400145,17.8200532 91.5157645,18.1035972 91.3531279,18.6491006 C90.9977845,19.9003816 90.4556111,20.6338922 89.5734123,21.049953 C89.178299,21.2379847 89.0066898,21.2688083 88.345069,21.2688083 C87.6895107,21.2688083 87.5118794,21.2346503 87.1320436,21.056134 C86.2590274,20.6493284 85.7352274,19.989778 85.3707014,18.8833513 C85.0949789,18.0388922 85.0215014,16.0787594 85.2267373,15.0771246 C85.4687523,13.9152238 85.9527014,13.0676823 86.6909442,12.5622332 C87.4751083,12.0167624 88.5257962,11.9119299 89.4968308,12.2787218 L89.4937672,12.2817635 Z M71.3290009,7.93893075 C69.2031409,8.16697611 67.6102772,8.5584106 66.2195858,9.19945066 C62.9052041,10.7281109 61.1836869,13.5111264 61.1836869,17.3235178 C61.1836869,21.0650232 62.8806987,23.7740703 65.8734437,24.8219404 C67.5704563,25.4167777 69.8586652,25.4414203 71.4760343,24.8772438 C71.8711881,24.7385786 72.2050782,24.6430175 72.2203881,24.6584699 C72.2847314,24.7235328 72.0978609,26.2610904 71.9692066,26.6771512 C71.5556713,28.0671218 70.7316741,28.8561067 69.2705284,29.2567639 C68.5200475,29.4694381 65.9653375,29.4694381 64.9851137,29.2567639 C64.1274187,29.0780037 62.9388971,28.6865692 62.1792238,28.3383364 L61.588025,28.0701961 L61.588025,32.9982612 L62.5406797,33.2910441 C64.1580488,33.7872298 65.5242356,34 67.2702582,34 C71.2554798,34.0088502 74.0920023,32.7732819 75.7583814,30.3077082 C76.5027756,29.2012815 76.9805976,27.7959073 77.2072704,26.0052876 C77.3205987,25.0930248 77.3450912,15.693026 77.2412204,13.5140786 L77.1862537,12.3490954 L77.8081046,12.373494 L78.4390896,12.407652 L79.3212965,10.5523029 C79.8049223,9.5352564 80.1847258,8.68155022 80.1694079,8.65689952 C80.0958495,8.59183665 78.4877108,8.29937905 77.2440496,8.12989027 C76.3373421,8.00659614 75.4582068,7.9604015 73.8408369,7.93575894 C72.6431254,7.92681279 71.5128054,7.92681279 71.3351402,7.94470508 L71.3290009,7.93893075 Z M72.1284992,13.4371581 C72.1529917,14.1706606 72.1928425,16.0876486 72.217335,17.7056808 L72.26632,20.6489624 L71.9600021,20.7321616 C70.7653541,21.055768 69.5829597,21.055768 68.7589593,20.747614 C67.3835833,20.2175143 66.6882372,19.0309627 66.6177837,17.1047276 C66.5626554,15.4928601 66.8689652,14.4604018 67.6684602,13.6159427 C68.5506615,12.6790292 69.9076583,12.1766625 71.6628717,12.127353 L72.082526,12.1184069 L72.131511,13.4374915 L72.1284992,13.4371581 Z M19.8733943,14.4141421 C19.8733943,23.6292241 19.7600579,24.8342698 18.764517,26.7851556 C18.1426904,28.005613 16.9939881,29.0226595 15.2724701,29.8917775 C14.8344343,30.1106327 14.6996528,30.209203 14.7884806,30.2584881 C14.8528239,30.2983391 15.9616859,30.8286828 17.2451664,31.4388831 L19.5885134,32.5545568 L20.0816856,32.3018689 C23.2184013,30.6684248 24.6397253,28.3816032 25.0471302,24.2825855 C25.1022585,23.7463048 25.1604666,20.3869868 25.1849752,15.8010141 L25.2339602,8.21937612 L19.8733628,8.21937612 L19.8733628,14.4172163 L19.8733943,14.4141421 Z" id="Shape"></path>
            </g>
        </g>
    </g>
</svg>