<?xml version="1.0" encoding="UTF-8"?>
<svg width="85px" height="76px" viewBox="0 0 85 76" version="1.1" xmlns="http://www.w3.org/2000/svg" xmlns:xlink="http://www.w3.org/1999/xlink">
    <title>flask-development</title>
    <g id="Page-1" stroke="none" stroke-width="1" fill="none" fill-rule="evenodd">
        <g id="flask-development" fill-rule="nonzero">
            <ellipse id="Oval" fill="#ED5C37" transform="translate(26.500000, 18.500000) rotate(-48.000000) translate(-26.500000, -18.500000) " cx="26.5" cy="18.5" rx="10.5" ry="11.5"></ellipse>
            <path d="M25.4007669,67.674125 C22.1634646,65.121585 18.7093462,62.6755384 16.349602,59.2287766 C11.3820863,53.1506017 7.5584174,46.1149744 4.9443374,38.7202611 C3.3638699,33.9113676 2.8226594,28.7560344 0.7839891,24.1338393 C-1.3456577,20.775601 1.1508833,17.1071975 4.8204898,16.0402555 C6.4530862,15.7247655 9.3254864,14.1799293 5.8580867,15.2854756 C2.7489485,17.5704487 2.4494565,13.2088324 5.636954,12.9326122 C7.8124211,12.643413 8.6132799,10.8592969 7.8685344,9.2532264 C5.5323643,7.7256956 13.5313229,6.049738 9.5061112,3.771088 C5.3158801,-0.7615851 15.3697785,-1.6341746 12.8888429,3.5145028 C12.2958356,7.4731039 19.916611,2.7873449 18.1468858,7.3596207 C19.9448336,9.5557374 24.8778181,7.8604777 24.7539704,10.9395006 C27.3723668,11.1198757 28.2711748,13.3266419 30.726544,13.4963676 C33.2755459,14.6498364 37.8917728,15.5570366 38.7577095,18.4340527 C36.2309537,20.4384793 30.3815638,14.2930797 30.0990054,19.8424428 C30.8633407,28.0418555 30.6684386,36.4878696 33.6603699,44.2955821 C35.0754858,49.0226078 38.5080222,52.7435928 41.6062034,56.4259738 C44.5722363,60.0314791 48.5888153,62.5713734 52.6837536,64.7082525 C56.2746686,66.405509 60.14615,67.530357 64.0607955,68.23788 C65.6479036,67.02118 68.4505771,62.49716 70.925536,64.403412 C71.045067,66.54961 66.0128056,68.886499 70.689462,68.649215 C73.438015,67.817893 75.342212,70.777109 77.60434,68.107092 C79.68883,70.581758 86.267028,66.527312 84.78451,71.584804 C82.778378,72.88204 79.85385,72.098307 77.845726,73.883089 C74.534713,72.224769 71.898387,75.365026 68.2314366,74.969 C64.1607368,75.699819 60.0176541,75.99401 55.8908407,76 C49.1187367,75.464532 42.2038593,75.238564 35.7617939,72.875051 C32.1316992,71.818093 28.5905886,69.746109 25.4007669,67.674125 Z M31.1196687,70.159441 C34.6631035,71.693628 38.1285108,73.312677 42.0126094,73.802219 C48.1744406,74.659833 54.5378146,75.982695 60.7212276,74.77731 C57.9228705,73.511023 55.0285563,75.269181 52.2408242,73.872106 C48.897272,74.592276 45.308681,73.687072 41.9080196,73.240793 C38.0431788,71.515582 33.8708774,70.329499 30.2514075,68.087457 C25.7264893,66.4318 32.5899018,70.21169 33.812108,70.51886 C36.6390198,72.126262 30.7026376,69.693527 29.8642595,69.025607 C27.4962144,67.69376 27.1947303,67.97231 29.6305096,69.323792 C30.1209194,69.611327 30.6053527,69.913838 31.1196687,70.159441 L31.1196687,70.159441 Z M24.3761193,65.382829 C27.8109797,66.658101 24.3608458,62.9627409 22.789011,63.1763954 C22.0917459,61.9640219 20.1251264,61.1979269 21.5123519,60.5473119 C19.017803,61.4159079 18.8982719,57.2459816 17.7262025,57.8426838 C15.085892,57.0070347 16.6988986,54.0471525 13.5529049,52.2284256 C13.2660302,50.3128554 10.4284933,48.6525393 9.525369,45.764541 C9.1259357,44.2849327 6.3186137,40.0394619 8.0425186,43.9907414 C9.5100956,47.7945927 12.0916365,51.054989 14.2412052,54.3083968 C15.9086648,57.4067217 17.8802649,60.6474832 20.9176843,62.580026 C21.9426641,63.565766 22.9301242,65.073662 24.3757872,65.382829 L24.3761193,65.382829 Z M39.5047794,71.782817 C40.9115946,72.673045 47.7185619,73.732665 43.4566121,72.148226 C42.7417494,72.29865 35.5532785,70.109189 39.5047794,71.782817 L39.5047794,71.782817 Z M23.9594203,59.1329314 C25.6096142,60.4012147 30.6166417,59.2960013 26.4865082,58.375822 C24.6085409,57.372444 20.3748137,56.6852215 23.260827,58.9808439 L23.9594203,59.1329314 Z M31.9490821,63.3760727 C35.9832586,64.518892 28.5557253,60.8168762 30.9529891,62.954088 L31.4852348,63.1956975 L31.9490821,63.3760727 Z M31.9842774,61.2332031 C34.9151148,61.6112587 28.4952956,59.2331029 31.3394731,61.0195486 L31.9842774,61.2332031 Z M42.1709882,67.511055 C44.9092477,65.872704 44.0061235,71.35218 46.8157698,67.974639 C49.5859043,65.946584 44.4228224,70.481587 47.836101,68.336055 C50.3067435,66.679732 53.9541041,69.121452 56.2580671,69.915835 C57.9142377,69.835298 59.5255842,71.35218 61.2252507,70.429005 C64.495092,69.545433 54.8293377,69.119455 57.3627342,67.554319 C54.371135,68.427574 52.1611366,66.514333 50.6889113,64.5927725 C47.3320779,63.8156953 43.4522957,62.0968072 41.7762033,59.1176229 C41.0922195,58.0014271 42.7623354,59.2766991 41.1858522,57.4486541 C39.1644476,55.646567 38.1550733,53.5985443 36.7977307,51.4074194 C35.1757592,50.541153 34.9848414,47.9886124 34.8218142,51.3228894 C34.8350954,49.2182914 32.8634955,47.8015814 32.3813864,48.3892981 C32.3727536,46.3629069 34.4921075,47.3792641 33.0089251,45.880021 C32.6901752,43.7797491 31.6389651,41.590954 31.3238677,39.2187884 C30.83379,38.0763019 31.2541412,35.6282591 29.6481074,38.2154104 C29.0637327,40.9509883 29.4548653,34.8555081 30.3646302,36.8642611 C31.5586135,34.8142416 29.934318,35.0555183 29.8692399,35.3387271 C30.6468565,33.6088566 30.3623059,31.1538252 29.6653728,32.0896456 C30.0800796,30.2549448 30.3211341,25.3392241 29.0467991,26.2118136 C29.8194352,24.2925826 30.512384,17.4326714 27.1552185,20.0491087 C25.7962156,20.0684108 23.4407879,20.5433098 22.3291481,21.0980798 C25.8181299,23.0262961 21.9771952,21.7942876 20.5551065,21.4874503 C20.3704973,23.2718993 18.963682,22.501478 17.2049138,22.5187833 C20.0145601,22.8668873 15.8369461,25.3974634 14.228588,24.4143858 C12.1354646,25.4154342 16.0328444,27.9180555 14.2697598,28.6924705 C14.4872401,29.8569215 11.0649967,28.2708187 11.3322817,30.9647974 C9.3019121,30.1068508 11.0543717,34.1593003 12.0703866,32.788516 C15.524837,33.7263335 14.5021816,35.8612158 14.5888416,37.8912677 C14.0263811,39.0726914 11.8097422,35.1124263 14.0957756,35.2954636 C12.2915192,32.35921 12.1009334,34.2331808 10.6024775,35.5976419 C10.2551731,35.6958164 14.4238222,37.5385045 11.80775,38.4483672 C14.1090569,38.8054566 14.1764591,40.824859 14.6456189,42.1024605 C16.028528,43.5467925 15.7436454,40.5067067 17.4008121,42.2438985 C16.3515942,40.6964 11.8509141,37.884279 15.4750323,38.7861544 C15.4551105,37.2300033 14.8189391,35.9740334 15.9305789,36.0043179 C17.0315936,34.0088768 14.7777673,40.9270272 17.2573747,38.3897953 C17.9430187,38.0896138 18.1150108,36.3920244 19.3481739,38.5508681 C21.139149,40.3180115 19.9953023,41.5969443 17.4678824,39.9782275 C17.9194445,41.5167405 20.8482899,42.0648547 20.2967864,44.4699668 C20.8804968,46.5852143 21.6972932,45.8058074 22.4091675,45.6840045 C22.9669796,47.7383502 23.2847334,46.2281248 23.3106317,45.2487081 C25.8659422,45.7978205 25.2666263,47.3120394 26.067485,48.3696631 C27.8282454,49.1657097 23.5470378,42.9703908 26.5695159,46.5066746 C29.7497087,49.3856874 27.7634993,50.586746 24.9086968,50.1258244 C26.7149455,49.9793943 27.2963319,52.5742 29.5571308,52.4826814 C31.6173832,53.4660917 33.0135734,57.2396586 29.4615059,55.6681988 C28.230335,54.5539998 23.8681117,53.180886 27.4314683,55.2984632 C30.7185752,56.825994 33.3326553,57.7378533 36.5045473,59.6554203 C38.773647,61.2787961 39.7544666,63.1387895 40.6144268,63.5071941 C38.7062447,64.4207173 34.8656422,62.7780394 37.7181206,62.2755182 C35.9377703,61.9510429 33.9362876,61.0481689 35.6402707,63.2699109 C37.090582,64.4842812 40.7751299,64.3554895 41.4375316,64.4926012 C40.8773955,65.728936 39.9158337,65.827111 41.4591137,65.922623 C39.7372009,66.843135 42.0129415,66.986902 42.1713201,67.511055 L42.1709882,67.511055 Z M38.6494675,57.5421696 C37.6009137,56.4432791 37.3296443,54.3869365 38.462866,56.1750461 C39.0449164,56.4103325 40.3238998,59.5379434 38.6494675,57.5421696 Z M31.9321485,46.4544258 C30.6837119,43.651623 32.8180072,44.9222358 32.2100583,46.9136833 L31.9321485,46.4544258 Z M20.4359074,38.7701804 C19.8780953,37.8500011 18.9550492,35.1513633 19.252549,34.3270291 C19.5195019,35.6695256 22.0990507,40.1023602 20.5159268,36.1637268 C18.7684478,32.8623967 22.6070581,37.2339967 23.002175,38.0589966 C23.1867842,38.8773404 21.9230741,37.8350253 22.778386,39.756253 C21.2175084,37.5691217 21.8576642,40.9643002 20.4359074,38.7701804 Z M14.6366541,33.8874065 C13.3141747,32.5682055 12.3565973,31.354168 14.699408,33.0687298 C15.6005401,33.1036733 12.6936087,30.3075265 14.9168883,32.1808316 C17.2527263,32.6078082 16.0693678,36.0222888 14.6366541,33.8874065 Z M15.4292121,31.868004 C11.5842932,28.4355523 20.259931,33.6607728 16.0567506,32.5029776 L15.4292121,31.868004 Z M26.4476606,38.2829679 C24.7825251,37.2839161 26.0047313,31.243347 26.5738324,35.3736706 C28.1914872,34.8488523 26.484184,37.5085529 27.6894565,37.4822621 C27.5008628,39.1595508 26.9603164,39.7632417 26.4476606,38.2829679 Z M16.1822584,30.7404932 C13.7119478,27.323683 23.3624285,34.1959078 17.7653821,31.6067597 C17.1810076,31.4523425 16.4757738,31.3977642 16.1822584,30.7404932 Z M16.5624338,29.4369337 C18.0303429,29.1214437 22.6459057,32.0200915 18.4078621,30.2639302 C17.9370422,29.7414415 16.9316523,29.9787247 16.5624338,29.436601 L16.5624338,29.4369337 Z M29.1699826,35.7347536 C29.3270333,32.7928423 30.0478725,33.9785923 29.1766233,36.1570709 L29.1699826,35.7344207 L29.1699826,35.7347536 Z M17.6544838,28.4122567 C18.2534677,27.5326785 16.0647194,24.4363503 17.9689171,27.3020514 C18.792354,27.9569927 20.3505754,28.3989449 18.974307,28.675165 C21.1388169,30.5884057 18.4470418,29.1933275 17.6544838,28.4122567 Z M27.2242811,26.8364706 C26.4602778,25.488982 28.1888311,20.8954073 28.3820732,23.744136 C27.5762339,25.9638811 28.1496514,27.2045422 28.7094557,24.2273548 C29.7477165,21.8858065 28.4859988,28.8518794 27.2242811,26.8364706 Z M30.3882044,59.6727256 C32.5742964,60.2364809 32.5636714,59.3329416 30.587423,59.0630444 C29.52592,58.073311 26.1714108,57.0220103 29.174299,58.9412414 C29.3721895,59.4464248 29.9997281,59.4331129 30.3882044,59.6727256 Z M22.62864,54.5060773 C23.8312563,55.40762 27.1638514,57.0566211 24.3435801,54.8505205 C25.2945168,53.7423118 22.5240502,53.1529312 23.4427801,52.4111304 C21.1042858,50.9764494 21.5966877,51.1049084 23.2365887,51.1508342 C20.4269426,49.890538 23.6423308,49.986383 23.4905926,49.3404273 C22.4071754,49.1267727 18.1080381,47.4248571 20.6374502,49.4795357 C18.0668663,48.1669907 20.024853,49.9690777 19.2479005,49.7797172 C16.6182151,49.0615447 21.5887191,51.7864734 18.8308696,51.1095676 C20.3379582,52.3062997 22.8889523,54.177941 19.467041,52.375854 C19.017803,53.026469 21.9164336,54.0125417 22.628308,54.5060773 L22.62864,54.5060773 Z M49.9395174,70.559794 C51.0923289,69.441601 49.9873297,72.344243 51.8500236,70.285903 C51.8692814,68.812285 51.7935784,67.942358 49.7094198,69.732797 C49.1336781,70.052946 48.8780143,71.408422 49.9395174,70.560127 L49.9395174,70.559794 Z M31.0589069,58.4104328 C32.3425388,59.5532521 36.9494689,59.2484114 32.6161323,58.5522035 C31.9753125,57.6010743 28.5427761,57.8297048 31.0589069,58.4104328 Z M9.9334351,44.1870908 C8.0707412,41.5233965 8.7763071,40.3263315 6.9786913,38.1501826 C6.6373634,36.4855399 3.8957835,32.7119731 5.5609189,36.7095112 C7.0849412,39.0490629 7.5365034,42.6698767 9.9337671,44.1870908 L9.9334351,44.1870908 Z M54.9721111,71.314907 C56.921797,70.055276 54.5228731,70.24863 54.618498,71.430054 L54.9721111,71.314907 Z M58.1008391,72.166197 C60.5997044,70.359451 56.5877738,71.819757 57.5775582,72.509975 L58.1008391,72.166197 Z M16.1822584,45.3881493 C18.0124132,45.7991516 23.5008855,49.9078434 20.2639153,45.673355 C18.6054205,45.1814833 19.5998534,41.1183845 17.9084875,41.836557 C19.0440335,43.7384826 18.8414946,44.5455114 16.4575121,43.349112 C13.4639206,41.88215 14.775111,44.0739403 15.3618098,44.6789623 C14.5622792,44.861667 16.4166722,45.3731735 16.1819263,45.3878164 L16.1822584,45.3881493 Z M7.8383195,38.7838249 C8.1660341,37.4233574 4.8181656,31.3062453 6.257852,35.7174483 C6.7764844,36.6422866 6.7226954,38.3937887 7.8383195,38.7838249 L7.8383195,38.7838249 Z M65.1332555,70.483584 C66.9461448,70.115845 71.077938,71.408755 71.744325,70.003027 C69.5429591,69.948449 64.13019,68.444546 63.873862,70.359451 L64.3559711,70.435994 L65.1335876,70.483584 L65.1332555,70.483584 Z M8.6727134,30.9731171 C10.5008761,30.2549448 5.3437707,29.4845235 8.2991785,30.838335 L8.6727134,30.9731171 Z M2.9641046,24.5734619 C2.6340658,22.6758626 2.679554,19.3439153 5.8388289,20.4690965 C1.6220353,21.309072 8.7590415,25.7239355 7.8579094,22.2379039 C9.6316189,22.3254291 11.3276332,21.187269 10.3959543,22.9124803 C13.8915766,22.5274359 16.3127465,19.4896797 19.6885056,19.9163233 C22.317527,19.5662226 25.1922513,19.3026487 28.0258039,18.2406986 C30.3553333,18.0729697 32.5978707,15.5593662 31.3218755,14.0687756 C28.145335,13.7992114 24.8187166,14.1972347 21.3081529,14.8981017 C17.4177457,15.7074601 13.8832758,17.2479699 9.9573413,17.9099 C6.129356,18.4257328 10.7259931,19.3286067 9.6292947,19.5309463 C7.6337884,20.2251575 12.011285,20.6930678 9.3709746,21.4262159 C7.7407024,21.1153852 6.0426959,20.5539593 6.739629,18.830412 C3.0746709,19.3089718 -0.1473579,20.8321763 2.7492805,24.5707996 L2.9644366,24.5727964 L2.9641046,24.5734619 Z M11.7987852,20.0640845 C12.6564213,16.8915461 16.4013988,22.6758626 13.2056005,20.4864018 C12.825425,20.1988666 12.1955622,19.9659098 11.7987852,20.0640845 Z M13.5396237,18.5518623 C13.6531783,17.0915561 17.1464764,19.3242803 14.1153654,19.0763478 L13.5396237,18.5515295 L13.5396237,18.5518623 Z M16.2453442,17.3138634 C17.5565346,15.7360805 23.6639127,16.3058262 19.1934474,17.1587808 C17.9948155,16.2535773 17.0767499,17.691919 16.2453442,17.3138634 Z M26.4801997,16.0685431 C27.3069567,13.8970532 29.6909393,15.1962864 26.8643594,15.63125 C26.9247891,15.8642067 26.7796916,16.7544344 26.4801997,16.0685431 Z M79.673557,70.512204 C81.647481,70.51886 85.654763,69.895867 81.360274,69.89819 C80.685255,70.003027 77.433012,69.981395 79.673557,70.512204 Z M11.657672,27.2058735 C13.2557372,27.0970493 14.1565373,25.4407267 11.346891,25.534575 C6.9939647,25.0843029 15.1874935,27.0298247 10.789079,26.4727252 C10.1987278,26.8644254 11.6224768,27.3146975 11.657672,27.2058735 Z M9.4187871,14.5563209 C12.2719294,13.5858895 16.1713013,12.4933223 17.517687,15.0355462 C16.1473951,13.3838827 16.9641913,11.7558477 18.2581161,14.1736062 C20.088271,16.6176555 21.0040124,13.0617368 19.8143454,12.2410634 C21.171688,13.9296672 22.7129759,14.7287089 20.7217861,12.3482235 C22.8866281,9.7387749 16.3904418,12.6896716 14.914232,12.6590544 C14.2043497,12.978538 7.5799994,14.3519845 9.4191191,14.5563209 L9.4187871,14.5563209 Z M11.0905631,11.3491718 C12.7171829,10.1198256 16.7161642,12.08232 14.1498967,10.1258159 C13.8982172,9.9041742 8.5312682,11.6100833 11.0905631,11.3491718 Z M17.0203046,11.5947747 C18.9221781,11.6426973 16.199856,9.0312519 18.4662996,10.2150051 C18.0950889,8.9966412 15.8263211,8.7680107 14.7170056,8.2807983 C14.089467,9.3949973 15.9930007,11.6100833 17.0203046,11.5947747 L17.0203046,11.5947747 Z M14.5543104,6.7805567 C17.6216127,6.3738807 13.7720454,5.4576951 13.9347406,6.7482756 L14.5539784,6.7805567 L14.5543104,6.7805567 Z M10.028728,3.2336235 C7.8682023,0.4068595 14.0911272,3.7081897 11.8957383,0.7483076 C10.0483178,-0.7246448 8.2746083,2.4089565 10.028728,3.2336235 L10.028728,3.2336235 Z M37.743355,18.1951056 C38.7341354,16.436282 33.6553892,15.8229401 37.0769687,17.5721126 C37.391734,17.6769432 37.3206795,18.3165759 37.743355,18.1951056 Z" id="Shape" fill="#000000"></path>
        </g>
    </g>
</svg>