<?xml version="1.0" encoding="UTF-8"?>
<svg width="95px" height="95px" viewBox="0 0 95 95" version="1.1" xmlns="http://www.w3.org/2000/svg" xmlns:xlink="http://www.w3.org/1999/xlink">
    <title>python-web-development</title>
    <g id="Page-1" stroke="none" stroke-width="1" fill="none" fill-rule="evenodd">
        <g id="python-web-development" fill-rule="nonzero">
            <circle id="Oval" fill="#ED5C37" cx="61.5" cy="82.5" r="3.5"></circle>
            <circle id="Oval" fill="#ED5C37" cx="37.5" cy="14.5" r="4.5"></circle>
            <path d="M47.9382148,0.0028512 L46.956,0 C43.1837693,0.0178988 39.5048697,0.332257 36.1945743,0.9120977 L35.7959156,0.9836816 C26.3136694,2.7325494 22.978816,6.7120011 22.978816,14.9045441 L22.978,22.694 L17.921986,22.6941177 C10.000248,22.6941177 3.5622546,27.631275 1.5955503,35.7530959 C-0.5233921,44.4469984 -0.5415174,49.9770203 1.5966222,58.7487485 C3.5459127,66.7783892 8.5080855,71.8033145 15.9203885,71.8033145 L23.3014792,71.8033145 C24.9583335,71.8033145 26.3014792,70.4601687 26.3014792,68.8033145 L26.3014792,59.102597 C26.3014792,53.7049045 31.1356134,48.9127887 36.7121821,48.9127887 L58.1540945,48.9127887 C65.761932,48.9127887 71.8874606,42.7270804 71.8874606,35.1232151 L71.8874606,14.9037522 C71.8874606,7.8023326 66.1210676,2.1394938 58.6421791,0.9062862 C55.1810957,0.3371006 51.54407,0.0349103 47.9382148,0.0028512 Z M46.9699686,3.0007739 C50.6400977,2.9833522 54.4655507,3.2597236 58.1540945,3.8663154 C63.8791049,4.8103229 68.7179493,9.001773 68.8831042,14.6074222 L68.8874606,14.9037522 L68.8874606,35.1232151 C68.8874606,40.9565076 64.2753154,45.7557155 58.4419509,45.9090112 L58.1540945,45.9127887 L36.7121821,45.9127887 C29.53451,45.9127887 23.4743972,51.921422 23.3051137,58.8069797 L23.3014792,59.102597 L23.3014792,68.8033145 L15.9203885,68.8033145 C9.6818096,68.8033145 6.037301,64.3243546 4.5112831,58.0382897 C2.4528403,49.5935181 2.54011,44.5467693 4.5112831,36.4591425 C6.1903887,29.5250068 11.4961247,25.8230173 17.6000073,25.6974237 L17.921986,25.6941177 L47.4455482,25.6941177 L47.4455482,22.9969223 L25.978816,22.9969223 L25.9798729,14.6398877 L25.9886449,14.121104 L26.006999,13.6162288 L26.0357807,13.1251055 L26.0758351,12.6475777 C26.0834972,12.569114 26.0916642,12.4912102 26.1003538,12.4138631 L26.1589024,11.9564349 L26.2308372,11.5122106 C26.9541755,7.5001953 29.4712728,5.1327052 36.7121821,3.8671073 C39.7954428,3.3270347 43.2998396,3.0174037 46.9699686,3.0007739 Z" id="Path" fill="#000000"></path>
            <path d="M35.3607035,8.5547586 C32.5991933,8.5547586 30.3696869,10.802609 30.3696869,13.5608257 C30.3696869,16.3192082 32.6029369,18.5547586 35.3607035,18.5547586 C38.1149141,18.5547586 40.35172,16.3184153 40.35172,13.5608257 C40.35172,10.8030254 38.119045,8.5547586 35.3607035,8.5547586 Z M35.3607035,11.5547586 C36.45693,11.5547586 37.35172,12.4546509 37.35172,13.5608257 C37.35172,14.6630862 36.4565343,15.5547586 35.3607035,15.5547586 C34.2609152,15.5547586 33.3696869,14.6634776 33.3696869,13.5608257 C33.3696869,12.4546509 34.2609152,11.5547586 35.3607035,11.5547586 Z" id="Path" fill="#000000"></path>
            <path d="M79.620827,22.6933258 L71.5647973,22.6933258 C69.9079431,22.6933258 68.5647973,24.0364716 68.5647973,25.6933258 L68.5647973,35.1216314 C68.5647973,40.7257343 63.6913118,45.5838516 58.1540945,45.5838516 L36.7121821,45.5838516 C29.2039558,45.5838516 22.978816,51.8759996 22.978816,59.3734252 L22.978816,79.591304 C22.978816,86.39619 28.1130176,91.004458 35.8744643,93.261542 C43.6949604,95.536408 50.7523347,95.62656 58.9817718,93.264443 L59.3647446,93.152416 C66.9792974,90.877124 71.8874606,86.514734 71.8874606,79.591304 L71.887,71.802 L79.620827,71.8025226 C86.356411,71.8025226 89.777466,68.3401367 92.633578,60.5983058 L92.917408,59.8098276 C93.011458,59.5422264 93.104982,59.2698401 93.198082,58.9926382 C95.602306,51.8604391 95.578699,44.9286439 93.26353,35.7263981 C91.195599,27.4887189 86.932871,22.6933258 79.620827,22.6933258 Z M79.620827,25.6933258 C85.544313,25.6933258 88.498699,29.8498169 90.103391,35.5178006 L90.273172,36.1419949 C90.300602,36.2469843 90.327606,36.3524415 90.354193,36.4583506 C92.500706,44.9902307 92.595982,51.387161 90.354193,58.0374978 L90.129032,58.6980255 L89.787201,59.6588259 L89.555237,60.2785944 L89.318932,60.881134 L89.077362,61.4659159 C88.792099,62.1375971 88.494196,62.7719435 88.177043,63.365177 L87.900329,63.8635062 C86.162951,66.8733605 83.834965,68.7044081 79.940081,68.7986947 L79.620827,68.8025226 L47.4455482,68.8025226 L47.4455482,71.499718 L68.8874606,71.499718 L68.8874606,79.591304 C68.8874606,85.50322 63.9258153,88.611188 58.7224646,90.212144 L58.1540945,90.380878 C50.0236057,92.714593 43.5072051,92.357449 36.7121821,90.380878 C31.138591,88.760038 26.159671,85.466332 25.9836297,79.897328 L25.978816,79.591304 L25.978816,59.3734252 C25.978816,53.6492099 30.6831886,48.7444434 36.4287883,48.5877142 L36.7121821,48.5838516 L58.1540945,48.5838516 C65.1983643,48.5838516 71.3881215,42.6036989 71.5610835,35.429801 L71.5647973,35.1216314 L71.5647973,25.6933258 L79.620827,25.6933258 Z" id="Path" fill="#000000"></path>
            <path d="M59.5047724,75.940298 C56.7505619,75.940298 54.5137559,78.176641 54.5137559,80.934231 C54.5137559,83.692031 56.7464309,85.940298 59.5047724,85.940298 C62.2662826,85.940298 64.495789,83.692447 64.495789,80.934231 C64.495789,78.175848 62.262539,75.940298 59.5047724,75.940298 Z M59.5047724,78.940298 C60.6045607,78.940298 61.495789,79.831579 61.495789,80.934231 C61.495789,82.040406 60.6045607,82.940298 59.5047724,82.940298 C58.4085459,82.940298 57.5137559,82.040406 57.5137559,80.934231 C57.5137559,79.83197 58.4089416,78.940298 59.5047724,78.940298 Z" id="Path" fill="#000000"></path>
        </g>
    </g>
</svg>