<?xml version="1.0" encoding="UTF-8"?>
<svg width="74px" height="98px" viewBox="0 0 74 98" version="1.1" xmlns="http://www.w3.org/2000/svg" xmlns:xlink="http://www.w3.org/1999/xlink">
    <title>python-hybrid-programming</title>
    <g id="Page-1" stroke="none" stroke-width="1" fill="none" fill-rule="evenodd">
        <g id="python-hybrid-programming" fill-rule="nonzero">
            <path d="M39.3002172,3.19090664 L32.9753206,11.9754853 C32.5867742,12.5151329 32.5081128,13.2184608 32.76784,13.8306125 L35.4095264,20.0568093 C35.5092743,20.2919054 35.5606796,20.5446742 35.5606796,20.8000559 L35.5606796,22.8349515 C35.5606796,23.8859011 36.4126426,24.7378641 37.4635922,24.7378641 L44.0369164,24.7378641 C44.9998352,24.7378641 45.7804352,23.9572642 45.7804352,22.9943453 C45.7804352,22.8531655 45.7632875,22.7125082 45.7293689,22.5754633 L45.39451,21.2224979 C45.2668142,20.7065553 45.3607209,20.16072 45.653499,19.7171168 L48.7839131,14.9740652 C49.203545,14.3382594 49.203545,13.5134617 48.7839131,12.8776559 L42.4326849,3.25458285 C41.8537775,2.37745041 40.6734239,2.13569126 39.7962915,2.71459867 C39.6033777,2.84192179 39.4352749,3.00332646 39.3002172,3.19090664 Z" id="Path-2" fill="#ED5C37"></path>
            <g id="coding-(1)" fill="#181818">
                <circle id="Oval" cx="17.706223" cy="28.2451249" r="1.80700599"></circle>
                <circle id="Oval" cx="24.1730818" cy="28.2451249" r="1.80700599"></circle>
                <circle id="Oval" cx="30.6401309" cy="28.2451249" r="1.80700599"></circle>
                <path d="M73.1924959,50.7980667 C72.9274202,50.404354 72.4838511,50.1682025 72.0090744,50.1682025 L63.449963,50.1682025 L63.449963,25.8183401 C63.449963,23.64274 61.6800638,21.8732214 59.5048442,21.8732214 L42.5059339,21.8732214 L42.5059339,19.0099085 L46.0596235,12.8187817 C46.342777,12.3253565 46.3056702,11.7110962 45.9654293,11.2551583 L38.2533044,0.927669986 C38.0510248,0.385910714 37.5290558,0 36.9165082,0 C36.3041508,0 35.7819916,0.385910714 35.5797119,0.927669986 L27.8677772,11.2553486 C27.5273462,11.7110962 27.4904297,12.3255468 27.7735831,12.818972 L31.327463,19.0100988 L31.327463,21.8734117 L13.9479702,21.8734117 C11.7725603,21.8734117 10.0028513,23.6433108 10.0028513,25.8185304 L10.0028513,50.1683928 L1.44373994,50.1683928 C0.968963192,50.1683928 0.525394221,50.404354 0.260318469,50.798257 C-0.00475728198,51.1921599 -0.0565165099,51.6920551 0.121976709,52.1318183 L5.1167422,64.4274893 L5.1167422,94.3513638 C5.1167422,96.0485717 6.49768602,97.4293251 8.19470365,97.4293251 L65.4482117,97.4293251 C67.1454196,97.4293251 68.5261731,96.0483814 68.5261731,94.3513638 L68.5261731,64.00333 C68.5261731,63.9890581 68.5259828,63.9749766 68.5254119,63.960895 L73.3304571,52.131628 C73.5093308,51.6918649 73.4573813,51.1919696 73.1924959,50.7980667 Z M36.9165082,11.9828321 C37.28358,11.9828321 37.582147,12.2813992 37.582147,12.648471 C37.582147,13.0155429 37.28358,13.31411 36.9165082,13.31411 C36.5494362,13.31411 36.2508693,13.0155429 36.2508693,12.648471 C36.2508693,12.2813992 36.5494362,11.9828321 36.9165082,11.9828321 Z M30.7143445,12.2111816 L35.4898944,5.81606266 L35.4898944,9.43197755 C34.2583293,9.98039697 33.3976418,11.215768 33.3976418,12.648471 C33.3976418,14.5886809 34.976108,16.1671471 36.9163179,16.1671471 C38.8565278,16.1671471 40.4349939,14.5886809 40.4349939,12.648471 C40.4349939,11.2155777 39.5743064,9.98039697 38.3427413,9.43197755 L38.3427413,5.81625295 L43.1182913,12.2113719 L39.8416657,17.9193492 C39.7175958,18.1353298 39.6521356,18.3802346 39.6521356,18.629326 L39.6521356,21.8732214 L34.179739,21.8732214 L34.179739,18.629326 C34.179739,18.3800443 34.1144691,18.1351395 33.9902089,17.9193492 L30.7143445,12.2111816 Z M13.9479702,24.7264488 L59.5048442,24.7264488 C60.1069257,24.7264488 60.5969258,25.2164489 60.5969258,25.8185304 L60.5969258,31.9540922 L12.8558885,31.9540922 L12.8558885,25.8185304 L12.8558885,25.8185304 C12.8558885,25.2162586 13.3458886,24.7264488 13.9479702,24.7264488 Z M12.8558885,34.8071294 L60.5967355,34.8071294 L60.5967355,50.1682025 L52.8857523,50.1682025 C52.3082183,50.1682025 51.7879619,50.5162452 51.567224,51.0500123 L46.804043,62.5767163 L12.8558885,62.5767163 L12.8558885,34.8071294 Z M3.56301391,53.02143 L10.0028513,53.02143 L10.0028513,62.5769066 L7.44438513,62.5769066 L3.56301391,53.02143 Z M65.6735166,94.3513638 C65.6735166,94.4754337 65.5722816,94.5762881 65.448402,94.5762881 L49.4032316,94.5762881 L49.4032316,88.1590953 C49.4032316,87.3710991 48.7646141,86.7324816 47.9766179,86.7324816 C47.1886217,86.7324816 46.5500042,87.3709088 46.5500042,88.1590953 L46.5500042,94.5762881 L8.19470365,94.5762881 C8.07063373,94.5762881 7.96977935,94.4752434 7.96977935,94.3511735 L7.96977935,65.4297534 L46.5501945,65.4297534 L46.5501945,82.4528306 C46.5501945,83.2408268 47.188812,83.8794444 47.9768082,83.8794444 C48.7648044,83.8794444 49.4034219,83.2410171 49.4034219,82.4528306 L49.4034219,65.4297534 L65.6735166,65.4297534 L65.6735166,94.3513638 L65.6735166,94.3513638 Z M66.0082389,62.5767163 L49.8909482,62.5767163 L53.8394922,53.0212397 L69.8894199,53.0212397 L66.0082389,62.5767163 Z" id="Shape"></path>
                <path d="M17.7060327,41.8446717 L26.8358276,41.8446717 C27.6236335,41.8446717 28.2624414,41.2062445 28.2624414,40.418058 C28.2624414,39.6300618 27.6238238,38.9914443 26.8358276,38.9914443 L17.7060327,38.9914443 C16.9182268,38.9914443 16.2796092,39.6298715 16.2796092,40.418058 C16.2796092,41.2060542 16.9182268,41.8446717 17.7060327,41.8446717 Z" id="Path"></path>
                <path d="M32.541902,41.8446717 L54.0347311,41.8446717 C54.822537,41.8446717 55.4613448,41.2062445 55.4613448,40.418058 C55.4613448,39.6300618 54.8227273,38.9914443 54.0347311,38.9914443 L32.541902,38.9914443 C31.7540961,38.9914443 31.1152882,39.6298715 31.1152882,40.418058 C31.1152882,41.2060542 31.7540961,41.8446717 32.541902,41.8446717 Z" id="Path"></path>
                <path d="M17.7060327,47.550746 L22.2709302,47.550746 C23.0587361,47.550746 23.6975438,46.9123187 23.6975438,46.1241322 C23.6975438,45.3361361 23.0589264,44.6975186 22.2709302,44.6975186 L17.7060327,44.6975186 C16.9182268,44.6975186 16.2796092,45.3359458 16.2796092,46.1241322 C16.2796092,46.9121285 16.9182268,47.550746 17.7060327,47.550746 Z" id="Path"></path>
                <path d="M54.0347311,44.6977089 L27.5966122,44.6977089 C26.8088063,44.6977089 26.1701888,45.3361361 26.1701888,46.1243225 C26.1701888,46.9123187 26.8088063,47.5509363 27.5966122,47.5509363 L54.0347311,47.5509363 C54.822537,47.5509363 55.4613448,46.912509 55.4613448,46.1243225 C55.4613448,45.3361361 54.822537,44.6977089 54.0347311,44.6977089 Z" id="Path"></path>
                <path d="M17.7060327,53.6372125 L32.541902,53.6372125 C33.3297078,53.6372125 33.9685157,52.9987853 33.9685157,52.2105988 C33.9685157,51.4226026 33.3298981,50.7839851 32.541902,50.7839851 L17.7060327,50.7839851 C16.9182268,50.7839851 16.2796092,51.4224123 16.2796092,52.2105988 C16.2796092,52.9987853 16.9182268,53.6372125 17.7060327,53.6372125 Z" id="Path"></path>
                <path d="M44.9051263,50.7841754 L37.4871917,50.7841754 C36.6993858,50.7841754 36.060578,51.4226026 36.060578,52.2107891 C36.060578,52.9987853 36.6991955,53.6374028 37.4871917,53.6374028 L44.9051263,53.6374028 C45.6929322,53.6374028 46.3317401,52.9989756 46.3317401,52.2107891 C46.3315498,51.4226026 45.6929322,50.7841754 44.9051263,50.7841754 Z" id="Path"></path>
                <path d="M38.2479762,56.680541 L17.7060327,56.680541 C16.9182268,56.680541 16.2794189,57.3189682 16.2794189,58.1071547 C16.2794189,58.8951509 16.9180365,59.5337684 17.7060327,59.5337684 L38.2479762,59.5337684 C39.0357822,59.5337684 39.6745899,58.8953412 39.6745899,58.1071547 C39.6745899,57.3189682 39.0357822,56.680541 38.2479762,56.680541 Z" id="Path"></path>
                <path d="M44.9051263,56.680541 L42.6227727,56.680541 C41.8349668,56.680541 41.1961591,57.3189682 41.1961591,58.1071547 C41.1961591,58.8951509 41.8347765,59.5337684 42.6227727,59.5337684 L44.9051263,59.5337684 C45.6929322,59.5337684 46.3317401,58.8953412 46.3317401,58.1071547 C46.3315498,57.3189682 45.6929322,56.680541 44.9051263,56.680541 Z" id="Path"></path>
                <path d="M22.2334428,73.550624 C21.6762699,72.9936415 20.7731475,72.9936415 20.2161649,73.550624 L14.7953373,78.9714517 C14.2381643,79.5288149 14.2381643,80.431747 14.7953373,80.9889199 L20.0258737,86.2194563 C20.3042698,86.4978524 20.6694387,86.6371456 21.0346077,86.6371456 C21.3997767,86.6371456 21.7647553,86.4978524 22.0433418,86.2194563 C22.6005146,85.662093 22.6005146,84.759161 22.0433418,84.2019881 L17.8215395,79.9801858 L22.2336331,75.5682825 C22.7908059,75.0111096 22.7908059,74.1079872 22.2334428,73.550624 Z" id="Path"></path>
                <path d="M33.6455914,73.550624 C33.0884185,72.9936415 32.1852961,72.9936415 31.6283135,73.550624 C31.0711406,74.1079872 31.0711406,75.0109193 31.6283135,75.5680922 L36.0404071,79.9799955 L31.8184145,84.2017978 C31.2612416,84.759161 31.2612416,85.662093 31.8184145,86.219266 C32.0968106,86.4976621 32.4619796,86.6369553 32.8271486,86.6369553 C33.1923175,86.6369553 33.5572962,86.4976621 33.8358827,86.219266 L39.0664191,80.9887296 C39.6235919,80.4313665 39.6235919,79.5284343 39.0664191,78.9712614 L33.6455914,73.550624 Z" id="Path"></path>
                <path d="M29.4416765,73.1335056 C28.7065812,72.8497812 27.8809073,73.2155211 27.5971831,73.9508066 L23.4126778,84.792462 C23.1291438,85.5273668 23.4948836,86.353231 24.2297886,86.6369553 C24.3987672,86.7022252 24.5723129,86.7330525 24.7431944,86.7330525 C25.3157809,86.7330525 25.8558275,86.3859611 26.0744723,85.8196543 L30.2589774,74.9779989 C30.5425115,74.243094 30.1767716,73.4172299 29.4416765,73.1335056 Z" id="Path"></path>
            </g>
        </g>
    </g>
</svg>