<?xml version="1.0" encoding="UTF-8"?>
<svg width="223px" height="56px" viewBox="0 0 223 56" version="1.1" xmlns="http://www.w3.org/2000/svg" xmlns:xlink="http://www.w3.org/1999/xlink">
    <!-- Generator: Sketch 64 (93537) - https://sketch.com -->
    <title>logo</title>
    <desc>Created with Sketch.</desc>
    <defs>
        <path d="M0.0844000057,9.89306734 C16.0449344,11.3568008 24.620935,17.4661345 24.620935,17.4661345 L24.620935,17.4661345 L24.620935,0.0129333342 C10.6776007,2.26333349 0.0844000057,9.89306734 0.0844000057,9.89306734 L0.0844000057,9.89306734 Z" id="path-1"></path>
    </defs>
    <g id="Page-1" stroke="none" stroke-width="1" fill="none" fill-rule="evenodd">
        <g id="Web-001" transform="translate(-127.000000, -20.000000)">
            <g id="Group-3">
                <g id="logo" transform="translate(127.000000, 20.000000)">
                    <g id="favicon">
                        <polygon id="Fill-2" fill="#FFFFFE" points="1.22534675 1.22538675 1.22534675 54.7489904 43.1677496 54.7489904 43.1677496 11.0849874 29.2392153 11.0849874 29.2392153 1.22538675"></polygon>
                        <path d="M30.4646687,-3.78956152e-15 L29.239202,-3.78956152e-15 L1.22533342,-3.78956152e-15 L3.78956152e-15,-3.78956152e-15 L3.78956152e-15,1.22533342 L3.78956152e-15,54.7489371 L3.78956152e-15,55.9744038 L1.22533342,55.9744038 L43.1677363,55.9744038 L44.3933364,55.9744038 L44.3933364,54.7489371 L44.3933364,11.0849341 L44.3933364,9.85960067 L43.1677363,9.85960067 L30.4646687,9.85960067 L30.4646687,1.22533342 L30.4646687,-3.78956152e-15 Z M29.239202,1.22533342 L29.239202,11.0849341 L43.1677363,11.0849341 L43.1677363,54.7489371 L1.22533342,54.7489371 L1.22533342,1.22533342 L29.239202,1.22533342 Z" id="Fill-3" fill="#296F3E"></path>
                        <polygon id="Fill-4" fill="#61C2CE" points="2.9469602 3.10338688 2.9469602 16.4060545 10.1460274 12.3369875 17.6580279 17.6580545 22.1965615 15.6235211 30.3346954 20.3185881 34.5602957 18.2840546 41.2897628 22.1965882 41.2897628 12.6500542 27.3610952 12.6500542 27.3610952 3.10338688"></polygon>
                        <g id="Group-23" transform="translate(2.765454, 21.645575)">
                            <path d="M-0.000653333378,13.8536409 L-0.000653333378,31.6601755 L38.6209493,31.6601755 L38.6209493,20.4351081 C38.6209493,20.4351081 25.0946817,10.4864407 -0.000653333378,13.8536409" id="Fill-5" fill="#296F3E"></path>
                            <path d="M10.8502674,25.6074284 C10.8502674,26.1068951 10.7750674,26.5666285 10.6244007,26.9867618 C10.4738674,27.4070285 10.2498674,27.7714286 9.95266734,28.0806286 C9.65533399,28.3898286 9.2846673,28.6316953 8.84093394,28.805962 C8.39680057,28.9802286 7.88560054,29.067562 7.30706716,29.067562 C6.72026712,29.067562 6.20506709,28.9802286 5.76133373,28.805962 C5.31720036,28.6316953 4.94680034,28.3898286 4.64960032,28.0806286 C4.35226696,27.7714286 4.12826695,27.4070285 3.9777336,26.9867618 C3.82706693,26.5666285 3.75173359,26.1068951 3.75173359,25.6074284 L3.75173359,20.4351614 L5.60666705,20.4351614 L5.60666705,25.5362284 C5.60666705,25.7976951 5.64826705,26.0395618 5.73146706,26.2614285 C5.8148004,26.4832951 5.9316004,26.6758285 6.08226708,26.8380952 C6.23280042,27.0007618 6.41320044,27.1275618 6.62333378,27.2186285 C6.8333338,27.3098285 7.06120048,27.3552952 7.30706716,27.3552952 C7.55266718,27.3552952 7.77853386,27.3098285 7.98480054,27.2186285 C8.19093389,27.1275618 8.36920057,27.0007618 8.51973391,26.8380952 C8.67026726,26.6758285 8.78733393,26.4832951 8.87053394,26.2614285 C8.95373394,26.0395618 8.99546728,25.7976951 8.99546728,25.5362284 L8.99546728,20.4351614 L10.8502674,20.4351614 L10.8502674,25.6074284 Z" id="Fill-7" fill="#FFFEFE"></path>
                            <path d="M14.0843743,27.1412818 L15.0475744,27.1412818 C15.4755744,27.1412818 15.8739744,27.0978152 16.2426411,27.0104818 C16.6111745,26.9234152 16.9301078,26.7786152 17.1995745,26.5766151 C17.4690412,26.3744818 17.6813079,26.1088818 17.8358412,25.7799484 C17.9903746,25.4510151 18.0677079,25.048615 18.0677079,24.573015 C18.0677079,24.1608816 17.9903746,23.802215 17.8358412,23.4970149 C17.6813079,23.1918149 17.4731745,22.9400816 17.2115745,22.7418149 C16.9499745,22.5439482 16.6426411,22.3951482 16.2901078,22.2960815 C15.9371744,22.1970148 15.5665077,22.1474148 15.1783744,22.1474148 L14.0843743,22.1474148 L14.0843743,27.1412818 Z M12.2294408,20.4351481 L15.011841,20.4351481 C15.6855744,20.4351481 16.3258411,20.5106147 16.9321078,20.6611481 C17.5385079,20.8116814 18.0677079,21.0555481 18.5195746,21.3923481 C18.971308,21.7294148 19.3298413,22.1672815 19.5955747,22.7062149 C19.8610414,23.2452816 19.9939747,23.899415 19.9939747,24.6680817 C19.9939747,25.3499484 19.864908,25.9503484 19.6074413,26.4695485 C19.349708,26.9887485 19.002908,27.4247485 18.5670413,27.7774152 C18.1310412,28.1302152 17.6277079,28.3978153 17.0569078,28.5800819 C16.4862411,28.762482 15.8875744,28.8535486 15.2615744,28.8535486 L12.2294408,28.8535486 L12.2294408,20.4351481 Z" id="Fill-9" fill="#FFFEFE"></path>
                            <path d="M24.0601616,22.8845082 L23.0374949,25.5005084 L25.094695,25.5005084 L24.0601616,22.8845082 Z M23.3466949,20.4351747 L24.8805617,20.4351747 L28.5428286,28.8535753 L26.4501618,28.8535753 L25.7246951,27.0701085 L22.4549615,27.0701085 L21.7534948,28.8535753 L19.7082947,28.8535753 L23.3466949,20.4351747 Z" id="Fill-11" fill="#FFFEFE"></path>
                            <polygon id="Fill-13" fill="#FFFEFE" points="29.4583353 20.4351614 35.1062024 20.4351614 35.1062024 22.1474282 31.3131355 22.1474282 31.3131355 23.8595616 34.820869 23.8595616 34.820869 25.5716951 31.3131355 25.5716951 31.3131355 28.853562 29.4583353 28.853562"></polygon>
                            <polygon id="Fill-15" fill="#296F3E" points="4.32005363 10.6046941 12.2293875 10.6046941 12.2293875 6.49576044 13.3069876 6.49576044 11.8284541 3.32989356 8.22058723 0.946293398 4.58005365 3.32989356 3.29365356 6.49576044 4.32005363 6.49576044"></polygon>
                            <polygon id="Fill-17" fill="#296F3E" points="16.6929345 9.49573398 17.3582678 9.49573398 17.3582678 6.12440042 16.6929345 6.12440042"></polygon>
                            <path d="M17.0256545,0.0916666729 C17.0256545,0.0916666729 13.2331209,4.66060032 17.0256545,6.83420047 C17.0256545,6.83420047 20.9604548,4.92673367 17.0256545,0.0916666729" id="Fill-19" fill="#296F3E"></path>
                            <polygon id="Fill-20" fill="#296F3E" points="20.9604014 7.3820005 21.4157348 7.3820005 21.4157348 5.07480035 20.9604014 5.07480035"></polygon>
                            <polygon id="Fill-21" fill="#296F3E" points="20.9688014 7.34546717 21.4217348 7.34546717 21.4217348 5.05066701 20.9688014 5.05066701"></polygon>
                            <path d="M21.1953081,5.53378704 C21.1953081,5.53378704 23.8737083,4.23538696 21.1953081,0.944053398 C21.1953081,0.944053398 18.6135746,4.05418694 21.1953081,5.53378704" id="Fill-22" fill="#296F3E"></path>
                        </g>
                        <g id="Group-29" transform="translate(16.765454, 22.578908)">
                            <mask id="mask-2" fill="white">
                                <use xlink:href="#path-1"></use>
                            </mask>
                            <g id="Clip-25"></g>
                            <polygon id="Fill-24" fill="#B7C04F" mask="url(#mask-2)" points="-1.77066679 24.5672017 36.9821359 24.5672017 36.9821359 -3.50320024 -1.77066679 -3.50320024"></polygon>
                            <path d="M27.4894552,1.06576007 C27.4894552,1.06576007 13.3243876,3.3724269 2.38892016,13.2628276 L-4.4486803,12.9202942 L8.38572057,2.30562682 L27.4894552,-1.32957342 L27.4894552,1.06576007 Z" id="Fill-26" fill="#296F3E" mask="url(#mask-2)"></path>
                            <path d="M9.15456062,14.255081 C9.15456062,14.255081 13.6496276,7.71948053 26.0996284,3.96388027 L26.0996284,5.96654707 C26.0996284,5.96654707 18.6472279,8.60668059 13.7382943,15.2605477 L9.15456062,14.255081 Z" id="Fill-27" fill="#296F3E" mask="url(#mask-2)"></path>
                            <path d="M18.2822946,16.6503878 C18.2822946,16.6503878 20.8061614,12.4215875 26.0996284,9.01172061 L26.0996284,11.0907874 C26.0996284,11.0907874 21.6045615,14.698521 20.6877614,18.0106546 L18.2822946,16.6503878 Z" id="Fill-28" fill="#296F3E" mask="url(#mask-2)"></path>
                        </g>
                    </g>
                    <path d="M60.2320037,29.288001 C61.0106704,29.288001 61.6720037,29.1626676 62.2160037,28.912001 C62.7600037,28.6613343 63.2000037,28.3253343 63.5360037,27.904001 C63.8720037,27.4826676 64.1173371,26.9946676 64.2720037,26.440001 C64.4266704,25.8853343 64.5040037,25.2986676 64.5040037,24.680001 L64.5040037,24.680001 L64.5040037,17.672001 L63.1600037,17.672001 L63.1600037,24.488001 C63.1600037,24.9466676 63.1120037,25.3893343 63.0160037,25.816001 C62.9200037,26.2426676 62.7600037,26.6213343 62.5360037,26.952001 C62.3120037,27.2826676 62.0133371,27.5466676 61.6400037,27.744001 C61.2666704,27.9413343 60.7973371,28.040001 60.2320037,28.040001 C59.6666704,28.040001 59.1973371,27.9413343 58.8240037,27.744001 C58.4506704,27.5466676 58.1520037,27.2826676 57.9280037,26.952001 C57.7040037,26.6213343 57.5440037,26.2426676 57.4480037,25.816001 C57.3520037,25.3893343 57.3040037,24.9466676 57.3040037,24.488001 L57.3040037,24.488001 L57.3040037,17.672001 L55.9600037,17.672001 L55.9600037,24.680001 C55.9600037,25.2986676 56.0373371,25.8853343 56.1920037,26.440001 C56.3466704,26.9946676 56.5920037,27.4826676 56.9280037,27.904001 C57.2640037,28.3253343 57.7040037,28.6613343 58.2480037,28.912001 C58.7920037,29.1626676 59.4533371,29.288001 60.2320037,29.288001 Z M69.6334852,29.192001 C69.8681519,29.192001 70.1161519,29.1706676 70.3774852,29.128001 C70.6388185,29.0853343 70.8761519,29.016001 71.0894852,28.920001 L71.0894852,28.920001 L71.0414852,27.784001 C70.8708185,27.8693343 70.6894852,27.9333343 70.4974852,27.976001 C70.3054852,28.0186676 70.1188185,28.040001 69.9374852,28.040001 C69.6601519,28.040001 69.4468185,27.9946676 69.2974852,27.904001 C69.1481519,27.8133343 69.0361519,27.6906676 68.9614852,27.536001 C68.8868185,27.3813343 68.8441519,27.200001 68.8334852,26.992001 C68.8228185,26.784001 68.8174852,26.5573343 68.8174852,26.312001 L68.8174852,26.312001 L68.8174852,22.568001 L71.0254852,22.568001 L71.0254852,21.512001 L68.8174852,21.512001 L68.8174852,19.384001 L67.5694852,19.384001 L67.5694852,21.512001 L65.9374852,21.512001 L65.9374852,22.568001 L67.5694852,22.568001 L67.5694852,26.680001 C67.5694852,27.064001 67.5934852,27.4133343 67.6414852,27.728001 C67.6894852,28.0426676 67.7881519,28.3066676 67.9374852,28.520001 C68.0868185,28.7333343 68.2948185,28.8986676 68.5614852,29.016001 C68.8281519,29.1333343 69.1854852,29.192001 69.6334852,29.192001 Z M74.7949667,29.192001 C75.3709667,29.192001 75.8643,29.0693343 76.2749667,28.824001 C76.6856334,28.5786676 77.0136334,28.264001 77.2589667,27.880001 L77.2589667,27.880001 L77.2909667,27.880001 C77.2909667,28.040001 77.2936334,28.224001 77.2989667,28.432001 C77.3043,28.640001 77.3283,28.8293343 77.3709667,29.000001 L77.3709667,29.000001 L78.5709667,29.000001 C78.5389667,28.808001 78.5123,28.5973343 78.4909667,28.368001 C78.4696334,28.1386676 78.4589667,27.9173343 78.4589667,27.704001 L78.4589667,27.704001 L78.4589667,24.488001 C78.4589667,23.4213343 78.2136334,22.6266676 77.7229667,22.104001 C77.2323,21.5813343 76.4323,21.320001 75.3229667,21.320001 C74.7789667,21.320001 74.2429667,21.4133343 73.7149667,21.600001 C73.1869667,21.7866676 72.7309667,22.0773343 72.3469667,22.472001 L72.3469667,22.472001 L73.1309667,23.288001 C73.4296334,23.0106676 73.7736334,22.8053343 74.1629667,22.672001 C74.5523,22.5386676 74.9496334,22.472001 75.3549667,22.472001 C75.9416334,22.472001 76.3976334,22.6106676 76.7229667,22.888001 C77.0483,23.1653343 77.2109667,23.576001 77.2109667,24.120001 L77.2109667,24.120001 L77.2109667,24.344001 L76.7309667,24.344001 C76.2723,24.344001 75.7683,24.3653343 75.2189667,24.408001 C74.6696334,24.4506676 74.1576334,24.5573343 73.6829667,24.728001 C73.2083,24.8986676 72.8109667,25.160001 72.4909667,25.512001 C72.1709667,25.864001 72.0109667,26.3493343 72.0109667,26.968001 C72.0109667,27.3306676 72.0856334,27.6506676 72.2349667,27.928001 C72.3843,28.2053343 72.5843,28.4373343 72.8349667,28.624001 C73.0856334,28.8106676 73.3789667,28.952001 73.7149667,29.048001 C74.0509667,29.144001 74.4109667,29.192001 74.7949667,29.192001 Z M75.0029667,28.136001 C74.5336334,28.136001 74.1416334,28.0373343 73.8269667,27.840001 C73.5123,27.6426676 73.3549667,27.3093343 73.3549667,26.840001 C73.3549667,26.328001 73.5896334,25.960001 74.0589667,25.736001 C74.5283,25.512001 75.1629667,25.400001 75.9629667,25.400001 L75.9629667,25.400001 L77.2109667,25.400001 L77.2109667,25.880001 C77.2003,26.1893343 77.1469667,26.480001 77.0509667,26.752001 C76.9549667,27.024001 76.8163,27.2613343 76.6349667,27.464001 C76.4536334,27.6666676 76.2269667,27.8293343 75.9549667,27.952001 C75.6829667,28.0746676 75.3656334,28.136001 75.0029667,28.136001 Z M81.8764482,29.000001 L81.8764482,25.352001 C81.8764482,24.9253343 81.9217815,24.536001 82.0124482,24.184001 C82.1031148,23.832001 82.2417815,23.528001 82.4284482,23.272001 C82.6151148,23.016001 82.8551148,22.8186676 83.1484482,22.680001 C83.4417815,22.5413343 83.7911148,22.472001 84.1964482,22.472001 C84.7831148,22.472001 85.2151148,22.6533343 85.4924482,23.016001 C85.7697815,23.3786676 85.9084482,23.8746676 85.9084482,24.504001 L85.9084482,24.504001 L85.9084482,29.000001 L87.1564482,29.000001 L87.1564482,24.376001 C87.1564482,23.928001 87.1004482,23.5146676 86.9884482,23.136001 C86.8764482,22.7573343 86.7031148,22.4346676 86.4684482,22.168001 C86.2337815,21.9013343 85.9377815,21.6933343 85.5804482,21.544001 C85.2231148,21.3946676 84.7991148,21.320001 84.3084482,21.320001 C84.0204482,21.320001 83.7484482,21.3573343 83.4924482,21.432001 C83.2364482,21.5066676 83.0044482,21.6026676 82.7964482,21.720001 C82.5884482,21.8373343 82.4097815,21.968001 82.2604482,22.112001 C82.1111148,22.256001 81.9937815,22.4026676 81.9084482,22.552001 L81.9084482,22.552001 L81.8764482,22.552001 L81.8764482,16.904001 L80.6284482,16.904001 L80.6284482,29.000001 L81.8764482,29.000001 Z M102.432893,29.000001 C102.806226,29.000001 103.200893,28.9573343 103.616893,28.872001 C104.032893,28.7866676 104.446226,28.6506676 104.856893,28.464001 C105.267559,28.2773343 105.662226,28.0346676 106.040893,27.736001 C106.419559,27.4373343 106.752893,27.0773343 107.040893,26.656001 C107.328893,26.2346676 107.558226,25.7493343 107.728893,25.200001 C107.899559,24.6506676 107.984893,24.0293343 107.984893,23.336001 C107.984893,22.6426676 107.899559,22.0213343 107.728893,21.472001 C107.558226,20.9226676 107.328893,20.4373343 107.040893,20.016001 C106.752893,19.5946676 106.419559,19.2346676 106.040893,18.936001 C105.662226,18.6373343 105.267559,18.3946676 104.856893,18.208001 C104.446226,18.0213343 104.032893,17.8853343 103.616893,17.800001 C103.200893,17.7146676 102.806226,17.672001 102.432893,17.672001 L102.432893,17.672001 L98.0808926,17.672001 L98.0808926,29.000001 L102.432893,29.000001 Z M101.984893,27.752001 L99.4248926,27.752001 L99.4248926,18.920001 L101.984893,18.920001 C102.635559,18.920001 103.238226,19.0053343 103.792893,19.176001 C104.347559,19.3466676 104.827559,19.6106676 105.232893,19.968001 C105.638226,20.3253343 105.958226,20.7813343 106.192893,21.336001 C106.427559,21.8906676 106.544893,22.5573343 106.544893,23.336001 C106.544893,24.1146676 106.427559,24.7813343 106.192893,25.336001 C105.958226,25.8906676 105.638226,26.3466676 105.232893,26.704001 C104.827559,27.0613343 104.347559,27.3253343 103.792893,27.496001 C103.238226,27.6666676 102.635559,27.752001 101.984893,27.752001 L101.984893,27.752001 Z M113.162374,29.192001 C113.866374,29.192001 114.485041,29.0773343 115.018374,28.848001 C115.551707,28.6186676 116.042374,28.216001 116.490374,27.640001 L116.490374,27.640001 L115.546374,26.904001 C115.247707,27.2773343 114.911707,27.560001 114.538374,27.752001 C114.165041,27.944001 113.706374,28.040001 113.162374,28.040001 C112.821041,28.040001 112.506374,27.976001 112.218374,27.848001 C111.930374,27.720001 111.679707,27.5466676 111.466374,27.328001 C111.253041,27.1093343 111.079707,26.8533343 110.946374,26.560001 C110.813041,26.2666676 110.735707,25.960001 110.714374,25.640001 L110.714374,25.640001 L116.762374,25.640001 L116.762374,25.240001 C116.762374,24.6213343 116.677041,24.0693343 116.506374,23.584001 C116.335707,23.0986676 116.093041,22.688001 115.778374,22.352001 C115.463707,22.016001 115.087707,21.760001 114.650374,21.584001 C114.213041,21.408001 113.733041,21.320001 113.210374,21.320001 C112.655707,21.320001 112.143707,21.416001 111.674374,21.608001 C111.205041,21.800001 110.799707,22.0693343 110.458374,22.416001 C110.117041,22.7626676 109.850374,23.1786676 109.658374,23.664001 C109.466374,24.1493343 109.370374,24.680001 109.370374,25.256001 C109.370374,25.800001 109.458374,26.312001 109.634374,26.792001 C109.810374,27.272001 110.061041,27.688001 110.386374,28.040001 C110.711707,28.392001 111.109041,28.672001 111.578374,28.880001 C112.047707,29.088001 112.575707,29.192001 113.162374,29.192001 Z M115.418374,24.584001 L110.714374,24.584001 C110.799707,23.944001 111.055707,23.432001 111.482374,23.048001 C111.909041,22.664001 112.469041,22.472001 113.162374,22.472001 C113.855707,22.472001 114.399707,22.664001 114.794374,23.048001 C115.189041,23.432001 115.397041,23.944001 115.418374,24.584001 L115.418374,24.584001 Z M119.763856,32.648001 L119.763856,27.672001 L119.795856,27.672001 C120.030522,28.0986676 120.401189,28.4586676 120.907856,28.752001 C121.414522,29.0453343 122.003856,29.192001 122.675856,29.192001 C123.198522,29.192001 123.689189,29.0933343 124.147856,28.896001 C124.606522,28.6986676 125.003856,28.424001 125.339856,28.072001 C125.675856,27.720001 125.939856,27.304001 126.131856,26.824001 C126.323856,26.344001 126.419856,25.8213343 126.419856,25.256001 C126.419856,24.6906676 126.323856,24.168001 126.131856,23.688001 C125.939856,23.208001 125.673189,22.792001 125.331856,22.440001 C124.990522,22.088001 124.577189,21.8133343 124.091856,21.616001 C123.606522,21.4186676 123.070522,21.320001 122.483856,21.320001 C121.939856,21.320001 121.441189,21.432001 120.987856,21.656001 C120.534522,21.880001 120.137189,22.1946676 119.795856,22.600001 L119.795856,22.600001 L119.763856,22.600001 L119.763856,21.512001 L118.515856,21.512001 L118.515856,32.648001 L119.763856,32.648001 Z M122.419856,28.040001 C122.014522,28.040001 121.649189,27.968001 121.323856,27.824001 C120.998522,27.680001 120.718522,27.4826676 120.483856,27.232001 C120.249189,26.9813343 120.070522,26.688001 119.947856,26.352001 C119.825189,26.016001 119.763856,25.6506676 119.763856,25.256001 C119.763856,24.8613343 119.825189,24.496001 119.947856,24.160001 C120.070522,23.824001 120.249189,23.5306676 120.483856,23.280001 C120.718522,23.0293343 120.998522,22.832001 121.323856,22.688001 C121.649189,22.544001 122.014522,22.472001 122.419856,22.472001 C122.825189,22.472001 123.190522,22.544001 123.515856,22.688001 C123.841189,22.832001 124.121189,23.0293343 124.355856,23.280001 C124.590522,23.5306676 124.769189,23.824001 124.891856,24.160001 C125.014522,24.496001 125.075856,24.8613343 125.075856,25.256001 C125.075856,25.6506676 125.014522,26.016001 124.891856,26.352001 C124.769189,26.688001 124.590522,26.9813343 124.355856,27.232001 C124.121189,27.4826676 123.841189,27.680001 123.515856,27.824001 C123.190522,27.968001 122.825189,28.040001 122.419856,28.040001 Z M130.589337,29.192001 C131.165337,29.192001 131.65867,29.0693343 132.069337,28.824001 C132.480004,28.5786676 132.808004,28.264001 133.053337,27.880001 L133.053337,27.880001 L133.085337,27.880001 C133.085337,28.040001 133.088004,28.224001 133.093337,28.432001 C133.09867,28.640001 133.12267,28.8293343 133.165337,29.000001 L133.165337,29.000001 L134.365337,29.000001 C134.333337,28.808001 134.30667,28.5973343 134.285337,28.368001 C134.264004,28.1386676 134.253337,27.9173343 134.253337,27.704001 L134.253337,27.704001 L134.253337,24.488001 C134.253337,23.4213343 134.008004,22.6266676 133.517337,22.104001 C133.02667,21.5813343 132.22667,21.320001 131.117337,21.320001 C130.573337,21.320001 130.037337,21.4133343 129.509337,21.600001 C128.981337,21.7866676 128.525337,22.0773343 128.141337,22.472001 L128.141337,22.472001 L128.925337,23.288001 C129.224004,23.0106676 129.568004,22.8053343 129.957337,22.672001 C130.34667,22.5386676 130.744004,22.472001 131.149337,22.472001 C131.736004,22.472001 132.192004,22.6106676 132.517337,22.888001 C132.84267,23.1653343 133.005337,23.576001 133.005337,24.120001 L133.005337,24.120001 L133.005337,24.344001 L132.525337,24.344001 C132.06667,24.344001 131.56267,24.3653343 131.013337,24.408001 C130.464004,24.4506676 129.952004,24.5573343 129.477337,24.728001 C129.00267,24.8986676 128.605337,25.160001 128.285337,25.512001 C127.965337,25.864001 127.805337,26.3493343 127.805337,26.968001 C127.805337,27.3306676 127.880004,27.6506676 128.029337,27.928001 C128.17867,28.2053343 128.37867,28.4373343 128.629337,28.624001 C128.880004,28.8106676 129.173337,28.952001 129.509337,29.048001 C129.845337,29.144001 130.205337,29.192001 130.589337,29.192001 Z M130.797337,28.136001 C130.328004,28.136001 129.936004,28.0373343 129.621337,27.840001 C129.30667,27.6426676 129.149337,27.3093343 129.149337,26.840001 C129.149337,26.328001 129.384004,25.960001 129.853337,25.736001 C130.32267,25.512001 130.957337,25.400001 131.757337,25.400001 L131.757337,25.400001 L133.005337,25.400001 L133.005337,25.880001 C132.99467,26.1893343 132.941337,26.480001 132.845337,26.752001 C132.749337,27.024001 132.61067,27.2613343 132.429337,27.464001 C132.248004,27.6666676 132.021337,27.8293343 131.749337,27.952001 C131.477337,28.0746676 131.160004,28.136001 130.797337,28.136001 Z M137.670819,29.000001 L137.670819,25.352001 C137.670819,24.488001 137.844152,23.808001 138.190819,23.312001 C138.537485,22.816001 139.094819,22.568001 139.862819,22.568001 C140.097485,22.568001 140.321485,22.600001 140.534819,22.664001 L140.534819,22.664001 L140.614819,21.400001 C140.529485,21.368001 140.444152,21.3466676 140.358819,21.336001 C140.273485,21.3253343 140.188152,21.320001 140.102819,21.320001 C139.793485,21.320001 139.505485,21.360001 139.238819,21.440001 C138.972152,21.520001 138.732152,21.6266676 138.518819,21.760001 C138.305485,21.8933343 138.121485,22.0453343 137.966819,22.216001 C137.812152,22.3866676 137.692152,22.5626676 137.606819,22.744001 L137.606819,22.744001 L137.574819,22.744001 C137.574819,22.5306676 137.569485,22.3226676 137.558819,22.120001 C137.548152,21.9173343 137.542819,21.7146676 137.542819,21.512001 L137.542819,21.512001 L136.358819,21.512001 C136.358819,21.7573343 136.369485,22.0293343 136.390819,22.328001 L136.408596,22.6337787 C136.418078,22.8423713 136.422819,23.0604454 136.422819,23.288001 L136.422819,23.288001 L136.422819,29.000001 L137.670819,29.000001 Z M144.6403,29.192001 C144.874967,29.192001 145.122967,29.1706676 145.3843,29.128001 C145.645633,29.0853343 145.882967,29.016001 146.0963,28.920001 L146.0963,28.920001 L146.0483,27.784001 C145.877633,27.8693343 145.6963,27.9333343 145.5043,27.976001 C145.3123,28.0186676 145.125633,28.040001 144.9443,28.040001 C144.666967,28.040001 144.453633,27.9946676 144.3043,27.904001 C144.154967,27.8133343 144.042967,27.6906676 143.9683,27.536001 C143.893633,27.3813343 143.850967,27.200001 143.8403,26.992001 C143.829633,26.784001 143.8243,26.5573343 143.8243,26.312001 L143.8243,26.312001 L143.8243,22.568001 L146.0323,22.568001 L146.0323,21.512001 L143.8243,21.512001 L143.8243,19.384001 L142.5763,19.384001 L142.5763,21.512001 L140.9443,21.512001 L140.9443,22.568001 L142.5763,22.568001 L142.5763,26.680001 C142.5763,27.064001 142.6003,27.4133343 142.6483,27.728001 C142.6963,28.0426676 142.794967,28.3066676 142.9443,28.520001 C143.093633,28.7333343 143.301633,28.8986676 143.5683,29.016001 C143.834967,29.1333343 144.1923,29.192001 144.6403,29.192001 Z M148.697782,29.000001 L148.697782,25.352001 C148.697782,24.9253343 148.743115,24.536001 148.833782,24.184001 C148.924448,23.832001 149.063115,23.528001 149.249782,23.272001 C149.436448,23.016001 149.676448,22.8186676 149.969782,22.680001 C150.263115,22.5413343 150.612448,22.472001 151.017782,22.472001 C151.529782,22.472001 151.897782,22.6453343 152.121782,22.992001 C152.345782,23.3386676 152.457782,23.928001 152.457782,24.760001 L152.457782,24.760001 L152.457782,29.000001 L153.705782,29.000001 L153.705782,24.680001 C153.705782,24.3493343 153.756448,24.048001 153.857782,23.776001 C153.959115,23.504001 154.097782,23.272001 154.273782,23.080001 C154.449782,22.888001 154.655115,22.7386676 154.889782,22.632001 C155.124448,22.5253343 155.375115,22.472001 155.641782,22.472001 C156.004448,22.472001 156.303115,22.5306676 156.537782,22.648001 C156.772448,22.7653343 156.959115,22.920001 157.097782,23.112001 C157.236448,23.304001 157.332448,23.5226676 157.385782,23.768001 C157.439115,24.0133343 157.465782,24.264001 157.465782,24.520001 L157.465782,24.520001 L157.465782,29.000001 L158.713782,29.000001 L158.713782,24.456001 C158.713782,23.976001 158.665782,23.5413343 158.569782,23.152001 C158.473782,22.7626676 158.313782,22.432001 158.089782,22.160001 C157.865782,21.888001 157.572448,21.680001 157.209782,21.536001 C156.847115,21.392001 156.399115,21.320001 155.865782,21.320001 C155.289782,21.320001 154.820448,21.4453343 154.457782,21.696001 C154.095115,21.9466676 153.775115,22.296001 153.497782,22.744001 C153.433782,22.616001 153.351115,22.4693343 153.249782,22.304001 C153.148448,22.1386676 153.007115,21.984001 152.825782,21.840001 C152.644448,21.696001 152.417782,21.5733343 152.145782,21.472001 C151.873782,21.3706676 151.535115,21.320001 151.129782,21.320001 C150.820448,21.320001 150.532448,21.360001 150.265782,21.440001 C149.999115,21.520001 149.759115,21.6266676 149.545782,21.760001 C149.332448,21.8933343 149.148448,22.0453343 148.993782,22.216001 C148.839115,22.3866676 148.719115,22.5626676 148.633782,22.744001 L148.633782,22.744001 L148.601782,22.744001 C148.601782,22.5306676 148.596448,22.3226676 148.585782,22.120001 C148.575115,21.9173343 148.569782,21.7146676 148.569782,21.512001 L148.569782,21.512001 L147.385782,21.512001 C147.385782,21.7573343 147.396448,22.0293343 147.417782,22.328001 L147.435559,22.6337787 C147.445041,22.8423713 147.449782,23.0604454 147.449782,23.288001 L147.449782,23.288001 L147.449782,29.000001 L148.697782,29.000001 Z M164.323263,29.192001 C165.027263,29.192001 165.64593,29.0773343 166.179263,28.848001 C166.712596,28.6186676 167.203263,28.216001 167.651263,27.640001 L167.651263,27.640001 L166.707263,26.904001 C166.408596,27.2773343 166.072596,27.560001 165.699263,27.752001 C165.32593,27.944001 164.867263,28.040001 164.323263,28.040001 C163.98193,28.040001 163.667263,27.976001 163.379263,27.848001 C163.091263,27.720001 162.840596,27.5466676 162.627263,27.328001 C162.41393,27.1093343 162.240596,26.8533343 162.107263,26.560001 C161.97393,26.2666676 161.896596,25.960001 161.875263,25.640001 L161.875263,25.640001 L167.923263,25.640001 L167.923263,25.240001 C167.923263,24.6213343 167.83793,24.0693343 167.667263,23.584001 C167.496596,23.0986676 167.25393,22.688001 166.939263,22.352001 C166.624596,22.016001 166.248596,21.760001 165.811263,21.584001 C165.37393,21.408001 164.89393,21.320001 164.371263,21.320001 C163.816596,21.320001 163.304596,21.416001 162.835263,21.608001 C162.36593,21.800001 161.960596,22.0693343 161.619263,22.416001 C161.27793,22.7626676 161.011263,23.1786676 160.819263,23.664001 C160.627263,24.1493343 160.531263,24.680001 160.531263,25.256001 C160.531263,25.800001 160.619263,26.312001 160.795263,26.792001 C160.971263,27.272001 161.22193,27.688001 161.547263,28.040001 C161.872596,28.392001 162.26993,28.672001 162.739263,28.880001 C163.208596,29.088001 163.736596,29.192001 164.323263,29.192001 Z M166.579263,24.584001 L161.875263,24.584001 C161.960596,23.944001 162.216596,23.432001 162.643263,23.048001 C163.06993,22.664001 163.62993,22.472001 164.323263,22.472001 C165.016596,22.472001 165.560596,22.664001 165.955263,23.048001 C166.34993,23.432001 166.55793,23.944001 166.579263,24.584001 L166.579263,24.584001 Z M170.988745,29.000001 L170.988745,25.352001 C170.988745,24.9253343 171.034078,24.536001 171.124745,24.184001 C171.215411,23.832001 171.354078,23.528001 171.540745,23.272001 C171.727411,23.016001 171.967411,22.8186676 172.260745,22.680001 C172.554078,22.5413343 172.903411,22.472001 173.308745,22.472001 C173.895411,22.472001 174.327411,22.6533343 174.604745,23.016001 C174.882078,23.3786676 175.020745,23.8746676 175.020745,24.504001 L175.020745,24.504001 L175.020745,29.000001 L176.268745,29.000001 L176.268745,24.376001 C176.268745,23.928001 176.212745,23.5146676 176.100745,23.136001 C175.988745,22.7573343 175.815411,22.4346676 175.580745,22.168001 C175.346078,21.9013343 175.050078,21.6933343 174.692745,21.544001 C174.335411,21.3946676 173.911411,21.320001 173.420745,21.320001 C173.111411,21.320001 172.823411,21.360001 172.556745,21.440001 C172.290078,21.520001 172.050078,21.6266676 171.836745,21.760001 C171.623411,21.8933343 171.439411,22.0453343 171.284745,22.216001 C171.130078,22.3866676 171.010078,22.5626676 170.924745,22.744001 L170.924745,22.744001 L170.892745,22.744001 C170.892745,22.5306676 170.887411,22.3226676 170.876745,22.120001 C170.866078,21.9173343 170.860745,21.7146676 170.860745,21.512001 L170.860745,21.512001 L169.676745,21.512001 C169.676745,21.7573343 169.687411,22.0293343 169.708745,22.328001 C169.730078,22.6266676 169.740745,22.9466676 169.740745,23.288001 L169.740745,23.288001 L169.740745,29.000001 L170.988745,29.000001 Z M181.222226,29.192001 C181.456893,29.192001 181.704893,29.1706676 181.966226,29.128001 C182.227559,29.0853343 182.464893,29.016001 182.678226,28.920001 L182.678226,28.920001 L182.630226,27.784001 C182.459559,27.8693343 182.278226,27.9333343 182.086226,27.976001 C181.894226,28.0186676 181.707559,28.040001 181.526226,28.040001 C181.248893,28.040001 181.035559,27.9946676 180.886226,27.904001 C180.736893,27.8133343 180.624893,27.6906676 180.550226,27.536001 C180.475559,27.3813343 180.432893,27.200001 180.422226,26.992001 C180.411559,26.784001 180.406226,26.5573343 180.406226,26.312001 L180.406226,26.312001 L180.406226,22.568001 L182.614226,22.568001 L182.614226,21.512001 L180.406226,21.512001 L180.406226,19.384001 L179.158226,19.384001 L179.158226,21.512001 L177.526226,21.512001 L177.526226,22.568001 L179.158226,22.568001 L179.158226,26.680001 C179.158226,27.064001 179.182226,27.4133343 179.230226,27.728001 C179.278226,28.0426676 179.376893,28.3066676 179.526226,28.520001 C179.675559,28.7333343 179.883559,28.8986676 180.150226,29.016001 C180.416893,29.1333343 180.774226,29.192001 181.222226,29.192001 Z M59.3520037,51.192001 C59.9280037,51.192001 60.4613371,51.096001 60.9520037,50.904001 C61.4426704,50.712001 61.8640037,50.4426676 62.2160037,50.096001 C62.5680037,49.7493343 62.8453371,49.336001 63.0480037,48.856001 C63.2506704,48.376001 63.3520037,47.8426676 63.3520037,47.256001 C63.3520037,46.6693343 63.2506704,46.136001 63.0480037,45.656001 C62.8453371,45.176001 62.5680037,44.7626676 62.2160037,44.416001 C61.8640037,44.0693343 61.4426704,43.800001 60.9520037,43.608001 C60.4613371,43.416001 59.9280037,43.320001 59.3520037,43.320001 C58.7760037,43.320001 58.2426704,43.416001 57.7520037,43.608001 C57.2613371,43.800001 56.8400037,44.0693343 56.4880037,44.416001 C56.1360037,44.7626676 55.8586704,45.176001 55.6560037,45.656001 C55.4533371,46.136001 55.3520037,46.6693343 55.3520037,47.256001 C55.3520037,47.8426676 55.4533371,48.376001 55.6560037,48.856001 C55.8586704,49.336001 56.1360037,49.7493343 56.4880037,50.096001 C56.8400037,50.4426676 57.2613371,50.712001 57.7520037,50.904001 C58.2426704,51.096001 58.7760037,51.192001 59.3520037,51.192001 Z M59.3520037,50.040001 C58.9466704,50.040001 58.5813371,49.968001 58.2560037,49.824001 C57.9306704,49.680001 57.6506704,49.4826676 57.4160037,49.232001 C57.1813371,48.9813343 57.0026704,48.688001 56.8800037,48.352001 C56.7573371,48.016001 56.6960037,47.6506676 56.6960037,47.256001 C56.6960037,46.8613343 56.7573371,46.496001 56.8800037,46.160001 C57.0026704,45.824001 57.1813371,45.5306676 57.4160037,45.280001 C57.6506704,45.0293343 57.9306704,44.832001 58.2560037,44.688001 C58.5813371,44.544001 58.9466704,44.472001 59.3520037,44.472001 C59.7573371,44.472001 60.1226704,44.544001 60.4480037,44.688001 C60.7733371,44.832001 61.0533371,45.0293343 61.2880037,45.280001 C61.5226704,45.5306676 61.7013371,45.824001 61.8240037,46.160001 C61.9466704,46.496001 62.0080037,46.8613343 62.0080037,47.256001 C62.0080037,47.6506676 61.9466704,48.016001 61.8240037,48.352001 C61.7013371,48.688001 61.5226704,48.9813343 61.2880037,49.232001 C61.0533371,49.4826676 60.7733371,49.680001 60.4480037,49.824001 C60.1226704,49.968001 59.7573371,50.040001 59.3520037,50.040001 Z M67.0574852,51.000001 L67.0574852,44.568001 L68.8814852,44.568001 L68.8814852,43.512001 L67.0574852,43.512001 L67.0574852,42.104001 C67.0574852,41.784001 67.0654852,41.4853343 67.0814852,41.208001 C67.0974852,40.9306676 67.1508185,40.6933343 67.2414852,40.496001 C67.3321519,40.2986676 67.4681519,40.144001 67.6494852,40.032001 C67.8308185,39.920001 68.0814852,39.864001 68.4014852,39.864001 C68.6681519,39.864001 68.9508185,39.9173343 69.2494852,40.024001 L69.2494852,40.024001 L69.4254852,38.904001 C69.3081519,38.840001 69.1588185,38.792001 68.9774852,38.760001 C68.7961519,38.728001 68.6254852,38.712001 68.4654852,38.712001 C67.9641519,38.712001 67.5428185,38.7893343 67.2014852,38.944001 C66.8601519,39.0986676 66.5854852,39.3146676 66.3774852,39.592001 C66.1694852,39.8693343 66.0228185,40.1973343 65.9374852,40.576001 C65.8521519,40.9546676 65.8094852,41.3733343 65.8094852,41.832001 L65.8094852,41.832001 L65.8094852,43.512001 L64.1774852,43.512001 L64.1774852,44.568001 L65.8094852,44.568001 L65.8094852,51.000001 L67.0574852,51.000001 Z M74.8524482,51.000001 L76.0204482,48.216001 L81.6844482,48.216001 L82.8364482,51.000001 L84.4044482,51.000001 L79.5884482,39.672001 L78.3244482,39.672001 L73.3324482,51.000001 L74.8524482,51.000001 Z M81.1724482,46.968001 L76.5484482,46.968001 L78.9004482,41.400001 L78.9324482,41.400001 L81.1724482,46.968001 Z M88.9579297,54.840001 C90.2805963,54.840001 91.291263,54.4853343 91.9899297,53.776001 C92.6885963,53.0666676 93.0379297,52.0293343 93.0379297,50.664001 L93.0379297,50.664001 L93.0379297,43.512001 L91.7899297,43.512001 L91.7899297,44.792001 L91.7579297,44.792001 C91.6299297,44.5466676 91.4699297,44.3306676 91.2779297,44.144001 C91.0859297,43.9573343 90.8699297,43.8026676 90.6299297,43.680001 C90.3899297,43.5573343 90.1419297,43.4666676 89.8859297,43.408001 C89.6299297,43.3493343 89.3739297,43.320001 89.1179297,43.320001 C88.5205963,43.320001 87.9765963,43.4106676 87.4859297,43.592001 C86.995263,43.7733343 86.5765963,44.032001 86.2299297,44.368001 C85.883263,44.704001 85.6139297,45.1173343 85.4219297,45.608001 C85.2299297,46.0986676 85.1339297,46.648001 85.1339297,47.256001 C85.1339297,47.8106676 85.2299297,48.3226676 85.4219297,48.792001 C85.6139297,49.2613343 85.8859297,49.6666676 86.2379297,50.008001 C86.5899297,50.3493343 87.011263,50.616001 87.5019297,50.808001 C87.9925963,51.000001 88.531263,51.096001 89.1179297,51.096001 C89.619263,51.096001 90.1099297,50.984001 90.5899297,50.760001 C91.0699297,50.536001 91.459263,50.184001 91.7579297,49.704001 L91.7579297,49.704001 L91.7899297,49.704001 L91.7899297,50.664001 C91.7899297,51.0586676 91.747263,51.4373343 91.6619297,51.800001 C91.5765963,52.1626676 91.427263,52.4853343 91.2139297,52.768001 C91.0005963,53.0506676 90.7099297,53.2746676 90.3419297,53.440001 C89.9739297,53.6053343 89.5125963,53.688001 88.9579297,53.688001 C88.3819297,53.688001 87.8725963,53.5786676 87.4299297,53.360001 C86.987263,53.1413343 86.5685963,52.8186676 86.1739297,52.392001 L86.1739297,52.392001 L85.2779297,53.416001 C85.811263,53.9386676 86.3739297,54.3066676 86.9659297,54.520001 C87.5579297,54.7333343 88.2219297,54.840001 88.9579297,54.840001 Z M89.1179297,49.944001 C88.755263,49.944001 88.4139297,49.8746676 88.0939297,49.736001 C87.7739297,49.5973343 87.4939297,49.408001 87.2539297,49.168001 C87.0139297,48.928001 86.8245963,48.6453343 86.6859297,48.320001 C86.547263,47.9946676 86.4779297,47.640001 86.4779297,47.256001 C86.4779297,46.8613343 86.5419297,46.496001 86.6699297,46.160001 C86.7979297,45.824001 86.9765963,45.5306676 87.2059297,45.280001 C87.435263,45.0293343 87.7125963,44.832001 88.0379297,44.688001 C88.363263,44.544001 88.723263,44.472001 89.1179297,44.472001 C89.5125963,44.472001 89.875263,44.5386676 90.2059297,44.672001 C90.5365963,44.8053343 90.819263,44.9946676 91.0539297,45.240001 C91.2885963,45.4853343 91.4699297,45.776001 91.5979297,46.112001 C91.7259297,46.448001 91.7899297,46.8186676 91.7899297,47.224001 C91.7899297,47.5866676 91.731263,47.9306676 91.6139297,48.256001 C91.4965963,48.5813343 91.323263,48.8693343 91.0939297,49.120001 C90.8645963,49.3706676 90.5845963,49.5706676 90.2539297,49.720001 C89.923263,49.8693343 89.5445963,49.944001 89.1179297,49.944001 Z M96.4714111,51.000001 L96.4714111,47.352001 C96.4714111,46.488001 96.6447445,45.808001 96.9914111,45.312001 C97.3380778,44.816001 97.8954111,44.568001 98.6634111,44.568001 C98.8980778,44.568001 99.1220778,44.600001 99.3354111,44.664001 L99.3354111,44.664001 L99.4154111,43.400001 C99.3300778,43.368001 99.2447445,43.3466676 99.1594111,43.336001 C99.0740778,43.3253343 98.9887445,43.320001 98.9034111,43.320001 C98.5940778,43.320001 98.3060778,43.360001 98.0394111,43.440001 C97.7727445,43.520001 97.5327445,43.6266676 97.3194111,43.760001 C97.1060778,43.8933343 96.9220778,44.0453343 96.7674111,44.216001 C96.6127445,44.3866676 96.4927445,44.5626676 96.4074111,44.744001 L96.4074111,44.744001 L96.3754111,44.744001 C96.3754111,44.5306676 96.3700778,44.3226676 96.3594111,44.120001 C96.3487445,43.9173343 96.3434111,43.7146676 96.3434111,43.512001 L96.3434111,43.512001 L95.1594111,43.512001 C95.1594111,43.7573343 95.1700778,44.0293343 95.1914111,44.328001 C95.2127445,44.6266676 95.2234111,44.9466676 95.2234111,45.288001 L95.2234111,45.288001 L95.2234111,51.000001 L96.4714111,51.000001 Z M101.472893,41.496001 C101.739559,41.496001 101.958226,41.4106676 102.128893,41.240001 C102.299559,41.0693343 102.384893,40.8506676 102.384893,40.584001 C102.384893,40.3386676 102.296893,40.1253343 102.120893,39.944001 C101.944893,39.7626676 101.728893,39.672001 101.472893,39.672001 C101.216893,39.672001 101.000893,39.7626676 100.824893,39.944001 C100.648893,40.1253343 100.560893,40.3386676 100.560893,40.584001 C100.560893,40.8506676 100.646226,41.0693343 100.816893,41.240001 C100.987559,41.4106676 101.206226,41.496001 101.472893,41.496001 Z M102.096893,51.000001 L102.096893,43.512001 L100.848893,43.512001 L100.848893,51.000001 L102.096893,51.000001 Z M107.898374,51.192001 C108.442374,51.192001 108.959707,51.096001 109.450374,50.904001 C109.941041,50.712001 110.367707,50.408001 110.730374,49.992001 L110.730374,49.992001 L109.802374,49.112001 C109.354374,49.7306676 108.719707,50.040001 107.898374,50.040001 C107.514374,50.040001 107.167707,49.968001 106.858374,49.824001 C106.549041,49.680001 106.285041,49.480001 106.066374,49.224001 C105.847707,48.968001 105.677041,48.672001 105.554374,48.336001 C105.431707,48.000001 105.370374,47.640001 105.370374,47.256001 C105.370374,46.872001 105.423707,46.512001 105.530374,46.176001 C105.637041,45.840001 105.794374,45.544001 106.002374,45.288001 C106.210374,45.032001 106.474374,44.832001 106.794374,44.688001 C107.114374,44.544001 107.482374,44.472001 107.898374,44.472001 C108.271707,44.472001 108.613041,44.544001 108.922374,44.688001 C109.231707,44.832001 109.519707,45.064001 109.786374,45.384001 L109.786374,45.384001 L110.778374,44.504001 C110.405041,44.0986676 109.970374,43.800001 109.474374,43.608001 C108.978374,43.416001 108.453041,43.320001 107.898374,43.320001 C107.322374,43.320001 106.797041,43.4186676 106.322374,43.616001 C105.847707,43.8133343 105.439707,44.088001 105.098374,44.440001 C104.757041,44.792001 104.493041,45.208001 104.306374,45.688001 C104.119707,46.168001 104.026374,46.6906676 104.026374,47.256001 C104.026374,47.832001 104.119707,48.360001 104.306374,48.840001 C104.493041,49.320001 104.754374,49.736001 105.090374,50.088001 C105.426374,50.440001 105.834374,50.712001 106.314374,50.904001 C106.794374,51.096001 107.322374,51.192001 107.898374,51.192001 Z M114.899856,51.192001 C115.209189,51.192001 115.497189,51.152001 115.763856,51.072001 C116.030522,50.992001 116.270522,50.8853343 116.483856,50.752001 C116.697189,50.6186676 116.881189,50.4666676 117.035856,50.296001 C117.190522,50.1253343 117.310522,49.9493343 117.395856,49.768001 L117.395856,49.768001 L117.427856,49.768001 C117.427856,49.9813343 117.433189,50.1893343 117.443856,50.392001 C117.454522,50.5946676 117.459856,50.7973343 117.459856,51.000001 L117.459856,51.000001 L118.643856,51.000001 C118.643856,50.7546676 118.633189,50.4826676 118.611856,50.184001 C118.590522,49.8853343 118.579856,49.5653343 118.579856,49.224001 L118.579856,49.224001 L118.579856,43.512001 L117.331856,43.512001 L117.331856,47.160001 C117.331856,47.5866676 117.286522,47.976001 117.195856,48.328001 C117.105189,48.680001 116.966522,48.984001 116.779856,49.240001 C116.593189,49.496001 116.353189,49.6933343 116.059856,49.832001 C115.766522,49.9706676 115.417189,50.040001 115.011856,50.040001 C114.425189,50.040001 113.993189,49.8586676 113.715856,49.496001 C113.438522,49.1333343 113.299856,48.6373343 113.299856,48.008001 L113.299856,48.008001 L113.299856,43.512001 L112.051856,43.512001 L112.051856,48.136001 C112.051856,48.584001 112.107856,48.9973343 112.219856,49.376001 C112.331856,49.7546676 112.505189,50.0773343 112.739856,50.344001 C112.974522,50.6106676 113.270522,50.8186676 113.627856,50.968001 C113.985189,51.1173343 114.409189,51.192001 114.899856,51.192001 Z M122.189337,51.000001 L122.189337,38.904001 L120.941337,38.904001 L120.941337,51.000001 L122.189337,51.000001 Z M127.270819,51.192001 C127.505485,51.192001 127.753485,51.1706676 128.014819,51.128001 C128.276152,51.0853343 128.513485,51.016001 128.726819,50.920001 L128.726819,50.920001 L128.678819,49.784001 C128.508152,49.8693343 128.326819,49.9333343 128.134819,49.976001 C127.942819,50.0186676 127.756152,50.040001 127.574819,50.040001 C127.297485,50.040001 127.084152,49.9946676 126.934819,49.904001 C126.785485,49.8133343 126.673485,49.6906676 126.598819,49.536001 C126.524152,49.3813343 126.481485,49.200001 126.470819,48.992001 C126.460152,48.784001 126.454819,48.5573343 126.454819,48.312001 L126.454819,48.312001 L126.454819,44.568001 L128.662819,44.568001 L128.662819,43.512001 L126.454819,43.512001 L126.454819,41.384001 L125.206819,41.384001 L125.206819,43.512001 L123.574819,43.512001 L123.574819,44.568001 L125.206819,44.568001 L125.206819,48.680001 C125.206819,49.064001 125.230819,49.4133343 125.278819,49.728001 C125.326819,50.0426676 125.425485,50.3066676 125.574819,50.520001 C125.724152,50.7333343 125.932152,50.8986676 126.198819,51.016001 C126.465485,51.1333343 126.822819,51.192001 127.270819,51.192001 Z M132.9283,51.192001 C133.237633,51.192001 133.525633,51.152001 133.7923,51.072001 C134.058967,50.992001 134.298967,50.8853343 134.5123,50.752001 C134.725633,50.6186676 134.909633,50.4666676 135.0643,50.296001 C135.218967,50.1253343 135.338967,49.9493343 135.4243,49.768001 L135.4243,49.768001 L135.4563,49.768001 C135.4563,49.9813343 135.461633,50.1893343 135.4723,50.392001 C135.482967,50.5946676 135.4883,50.7973343 135.4883,51.000001 L135.4883,51.000001 L136.6723,51.000001 C136.6723,50.7546676 136.661633,50.4826676 136.6403,50.184001 C136.618967,49.8853343 136.6083,49.5653343 136.6083,49.224001 L136.6083,49.224001 L136.6083,43.512001 L135.3603,43.512001 L135.3603,47.160001 C135.3603,47.5866676 135.314967,47.976001 135.2243,48.328001 C135.133633,48.680001 134.994967,48.984001 134.8083,49.240001 C134.621633,49.496001 134.381633,49.6933343 134.0883,49.832001 C133.794967,49.9706676 133.445633,50.040001 133.0403,50.040001 C132.453633,50.040001 132.021633,49.8586676 131.7443,49.496001 C131.466967,49.1333343 131.3283,48.6373343 131.3283,48.008001 L131.3283,48.008001 L131.3283,43.512001 L130.0803,43.512001 L130.0803,48.136001 C130.0803,48.584001 130.1363,48.9973343 130.2483,49.376001 C130.3603,49.7546676 130.533633,50.0773343 130.7683,50.344001 C131.002967,50.6106676 131.298967,50.8186676 131.6563,50.968001 C132.013633,51.1173343 132.437633,51.192001 132.9283,51.192001 Z M140.105782,51.000001 L140.105782,47.352001 C140.105782,46.488001 140.279115,45.808001 140.625782,45.312001 C140.972448,44.816001 141.529782,44.568001 142.297782,44.568001 C142.532448,44.568001 142.756448,44.600001 142.969782,44.664001 L142.969782,44.664001 L143.049782,43.400001 C142.964448,43.368001 142.879115,43.3466676 142.793782,43.336001 C142.708448,43.3253343 142.623115,43.320001 142.537782,43.320001 C142.228448,43.320001 141.940448,43.360001 141.673782,43.440001 C141.407115,43.520001 141.167115,43.6266676 140.953782,43.760001 C140.740448,43.8933343 140.556448,44.0453343 140.401782,44.216001 C140.247115,44.3866676 140.127115,44.5626676 140.041782,44.744001 L140.041782,44.744001 L140.009782,44.744001 C140.009782,44.5306676 140.004448,44.3226676 139.993782,44.120001 C139.983115,43.9173343 139.977782,43.7146676 139.977782,43.512001 L139.977782,43.512001 L138.793782,43.512001 C138.793782,43.7573343 138.804448,44.0293343 138.825782,44.328001 L138.843559,44.6337787 C138.853041,44.8423713 138.857782,45.0604454 138.857782,45.288001 L138.857782,45.288001 L138.857782,51.000001 L140.105782,51.000001 Z M147.153663,51.192001 C147.857663,51.192001 148.47633,51.0773343 149.009663,50.848001 C149.542996,50.6186676 150.033663,50.216001 150.481663,49.640001 L150.481663,49.640001 L149.537663,48.904001 C149.238996,49.2773343 148.902996,49.560001 148.529663,49.752001 C148.15633,49.944001 147.697663,50.040001 147.153663,50.040001 C146.81233,50.040001 146.497663,49.976001 146.209663,49.848001 C145.921663,49.720001 145.670996,49.5466676 145.457663,49.328001 C145.24433,49.1093343 145.070996,48.8533343 144.937663,48.560001 C144.80433,48.2666676 144.726996,47.960001 144.705663,47.640001 L144.705663,47.640001 L150.753663,47.640001 L150.753663,47.240001 C150.753663,46.6213343 150.66833,46.0693343 150.497663,45.584001 C150.326996,45.0986676 150.08433,44.688001 149.769663,44.352001 C149.454996,44.016001 149.078996,43.760001 148.641663,43.584001 C148.20433,43.408001 147.72433,43.320001 147.201663,43.320001 C146.646996,43.320001 146.134996,43.416001 145.665663,43.608001 C145.19633,43.800001 144.790996,44.0693343 144.449663,44.416001 C144.10833,44.7626676 143.841663,45.1786676 143.649663,45.664001 C143.457663,46.1493343 143.361663,46.680001 143.361663,47.256001 C143.361663,47.800001 143.449663,48.312001 143.625663,48.792001 C143.801663,49.272001 144.05233,49.688001 144.377663,50.040001 C144.702996,50.392001 145.10033,50.672001 145.569663,50.880001 C146.038996,51.088001 146.566996,51.192001 147.153663,51.192001 Z M149.409663,46.584001 L144.705663,46.584001 C144.790996,45.944001 145.046996,45.432001 145.473663,45.048001 C145.90033,44.664001 146.46033,44.472001 147.153663,44.472001 C147.846996,44.472001 148.390996,44.664001 148.785663,45.048001 C149.18033,45.432001 149.38833,45.944001 149.409663,46.584001 L149.409663,46.584001 Z M159.252626,51.192001 C159.828626,51.192001 160.321959,51.0693343 160.732626,50.824001 C161.143293,50.5786676 161.471293,50.264001 161.716626,49.880001 L161.716626,49.880001 L161.748626,49.880001 C161.748626,50.040001 161.751293,50.224001 161.756626,50.432001 C161.761959,50.640001 161.785959,50.8293343 161.828626,51.000001 L161.828626,51.000001 L163.028626,51.000001 C162.996626,50.808001 162.969959,50.5973343 162.948626,50.368001 C162.927293,50.1386676 162.916626,49.9173343 162.916626,49.704001 L162.916626,49.704001 L162.916626,46.488001 C162.916626,45.4213343 162.671293,44.6266676 162.180626,44.104001 C161.689959,43.5813343 160.889959,43.320001 159.780626,43.320001 C159.236626,43.320001 158.700626,43.4133343 158.172626,43.600001 C157.644626,43.7866676 157.188626,44.0773343 156.804626,44.472001 L156.804626,44.472001 L157.588626,45.288001 C157.887293,45.0106676 158.231293,44.8053343 158.620626,44.672001 C159.009959,44.5386676 159.407293,44.472001 159.812626,44.472001 C160.399293,44.472001 160.855293,44.6106676 161.180626,44.888001 C161.505959,45.1653343 161.668626,45.576001 161.668626,46.120001 L161.668626,46.120001 L161.668626,46.344001 L161.188626,46.344001 C160.729959,46.344001 160.225959,46.3653343 159.676626,46.408001 C159.127293,46.4506676 158.615293,46.5573343 158.140626,46.728001 C157.665959,46.8986676 157.268626,47.160001 156.948626,47.512001 C156.628626,47.864001 156.468626,48.3493343 156.468626,48.968001 C156.468626,49.3306676 156.543293,49.6506676 156.692626,49.928001 C156.841959,50.2053343 157.041959,50.4373343 157.292626,50.624001 C157.543293,50.8106676 157.836626,50.952001 158.172626,51.048001 C158.508626,51.144001 158.868626,51.192001 159.252626,51.192001 Z M159.460626,50.136001 C158.991293,50.136001 158.599293,50.0373343 158.284626,49.840001 C157.969959,49.6426676 157.812626,49.3093343 157.812626,48.840001 C157.812626,48.328001 158.047293,47.960001 158.516626,47.736001 C158.985959,47.512001 159.620626,47.400001 160.420626,47.400001 L160.420626,47.400001 L161.668626,47.400001 L161.668626,47.880001 C161.657959,48.1893343 161.604626,48.480001 161.508626,48.752001 C161.412626,49.024001 161.273959,49.2613343 161.092626,49.464001 C160.911293,49.6666676 160.684626,49.8293343 160.412626,49.952001 C160.140626,50.0746676 159.823293,50.136001 159.460626,50.136001 Z M166.334107,51.000001 L166.334107,47.352001 C166.334107,46.9253343 166.379441,46.536001 166.470107,46.184001 C166.560774,45.832001 166.699441,45.528001 166.886107,45.272001 C167.072774,45.016001 167.312774,44.8186676 167.606107,44.680001 C167.899441,44.5413343 168.248774,44.472001 168.654107,44.472001 C169.240774,44.472001 169.672774,44.6533343 169.950107,45.016001 C170.227441,45.3786676 170.366107,45.8746676 170.366107,46.504001 L170.366107,46.504001 L170.366107,51.000001 L171.614107,51.000001 L171.614107,46.376001 C171.614107,45.928001 171.558107,45.5146676 171.446107,45.136001 C171.334107,44.7573343 171.160774,44.4346676 170.926107,44.168001 C170.691441,43.9013343 170.395441,43.6933343 170.038107,43.544001 C169.680774,43.3946676 169.256774,43.320001 168.766107,43.320001 C168.456774,43.320001 168.168774,43.360001 167.902107,43.440001 C167.635441,43.520001 167.395441,43.6266676 167.182107,43.760001 C166.968774,43.8933343 166.784774,44.0453343 166.630107,44.216001 C166.475441,44.3866676 166.355441,44.5626676 166.270107,44.744001 L166.270107,44.744001 L166.238107,44.744001 C166.238107,44.5306676 166.232774,44.3226676 166.222107,44.120001 C166.211441,43.9173343 166.206107,43.7146676 166.206107,43.512001 L166.206107,43.512001 L165.022107,43.512001 C165.022107,43.7573343 165.032774,44.0293343 165.054107,44.328001 C165.075441,44.6266676 165.086107,44.9466676 165.086107,45.288001 L165.086107,45.288001 L165.086107,51.000001 L166.334107,51.000001 Z M177.175589,51.192001 C177.847589,51.192001 178.436922,51.0453343 178.943589,50.752001 C179.450256,50.4586676 179.820922,50.0986676 180.055589,49.672001 L180.055589,49.672001 L180.087589,49.672001 L180.087589,51.000001 L181.335589,51.000001 L181.335589,38.904001 L180.087589,38.904001 L180.087589,44.600001 L180.055589,44.600001 C179.714256,44.1946676 179.316922,43.880001 178.863589,43.656001 C178.410256,43.432001 177.911589,43.320001 177.367589,43.320001 C176.780922,43.320001 176.244922,43.4186676 175.759589,43.616001 C175.274256,43.8133343 174.860922,44.088001 174.519589,44.440001 C174.178256,44.792001 173.911589,45.208001 173.719589,45.688001 C173.527589,46.168001 173.431589,46.6906676 173.431589,47.256001 C173.431589,47.8213343 173.527589,48.344001 173.719589,48.824001 C173.911589,49.304001 174.175589,49.720001 174.511589,50.072001 C174.847589,50.424001 175.244922,50.6986676 175.703589,50.896001 C176.162256,51.0933343 176.652922,51.192001 177.175589,51.192001 Z M177.431589,50.040001 C177.026256,50.040001 176.660922,49.968001 176.335589,49.824001 C176.010256,49.680001 175.730256,49.4826676 175.495589,49.232001 C175.260922,48.9813343 175.082256,48.688001 174.959589,48.352001 C174.836922,48.016001 174.775589,47.6506676 174.775589,47.256001 C174.775589,46.8613343 174.836922,46.496001 174.959589,46.160001 C175.082256,45.824001 175.260922,45.5306676 175.495589,45.280001 C175.730256,45.0293343 176.010256,44.832001 176.335589,44.688001 C176.660922,44.544001 177.026256,44.472001 177.431589,44.472001 C177.836922,44.472001 178.202256,44.544001 178.527589,44.688001 C178.852922,44.832001 179.132922,45.0293343 179.367589,45.280001 C179.602256,45.5306676 179.780922,45.824001 179.903589,46.160001 C180.026256,46.496001 180.087589,46.8613343 180.087589,47.256001 C180.087589,47.6506676 180.026256,48.016001 179.903589,48.352001 C179.780922,48.688001 179.602256,48.9813343 179.367589,49.232001 C179.132922,49.4826676 178.852922,49.680001 178.527589,49.824001 C178.202256,49.968001 177.836922,50.040001 177.431589,50.040001 Z M189.418552,51.000001 L189.418552,45.912001 L194.698552,45.912001 L194.698552,44.664001 L189.418552,44.664001 L189.418552,40.920001 L195.098552,40.920001 L195.098552,39.672001 L188.074552,39.672001 L188.074552,51.000001 L189.418552,51.000001 Z M200.196033,51.192001 C200.772033,51.192001 201.305367,51.096001 201.796033,50.904001 C202.2867,50.712001 202.708033,50.4426676 203.060033,50.096001 C203.412033,49.7493343 203.689367,49.336001 203.892033,48.856001 C204.0947,48.376001 204.196033,47.8426676 204.196033,47.256001 C204.196033,46.6693343 204.0947,46.136001 203.892033,45.656001 C203.689367,45.176001 203.412033,44.7626676 203.060033,44.416001 C202.708033,44.0693343 202.2867,43.800001 201.796033,43.608001 C201.305367,43.416001 200.772033,43.320001 200.196033,43.320001 C199.620033,43.320001 199.0867,43.416001 198.596033,43.608001 C198.105367,43.800001 197.684033,44.0693343 197.332033,44.416001 C196.980033,44.7626676 196.7027,45.176001 196.500033,45.656001 C196.297367,46.136001 196.196033,46.6693343 196.196033,47.256001 C196.196033,47.8426676 196.297367,48.376001 196.500033,48.856001 C196.7027,49.336001 196.980033,49.7493343 197.332033,50.096001 C197.684033,50.4426676 198.105367,50.712001 198.596033,50.904001 C199.0867,51.096001 199.620033,51.192001 200.196033,51.192001 Z M200.196033,50.040001 C199.7907,50.040001 199.425367,49.968001 199.100033,49.824001 C198.7747,49.680001 198.4947,49.4826676 198.260033,49.232001 C198.025367,48.9813343 197.8467,48.688001 197.724033,48.352001 C197.601367,48.016001 197.540033,47.6506676 197.540033,47.256001 C197.540033,46.8613343 197.601367,46.496001 197.724033,46.160001 C197.8467,45.824001 198.025367,45.5306676 198.260033,45.280001 C198.4947,45.0293343 198.7747,44.832001 199.100033,44.688001 C199.425367,44.544001 199.7907,44.472001 200.196033,44.472001 C200.601367,44.472001 200.9667,44.544001 201.292033,44.688001 C201.617367,44.832001 201.897367,45.0293343 202.132033,45.280001 C202.3667,45.5306676 202.545367,45.824001 202.668033,46.160001 C202.7907,46.496001 202.852033,46.8613343 202.852033,47.256001 C202.852033,47.6506676 202.7907,48.016001 202.668033,48.352001 C202.545367,48.688001 202.3667,48.9813343 202.132033,49.232001 C201.897367,49.4826676 201.617367,49.680001 201.292033,49.824001 C200.9667,49.968001 200.601367,50.040001 200.196033,50.040001 Z M209.581515,51.192001 C210.157515,51.192001 210.690848,51.096001 211.181515,50.904001 C211.672182,50.712001 212.093515,50.4426676 212.445515,50.096001 C212.797515,49.7493343 213.074848,49.336001 213.277515,48.856001 C213.480182,48.376001 213.581515,47.8426676 213.581515,47.256001 C213.581515,46.6693343 213.480182,46.136001 213.277515,45.656001 C213.074848,45.176001 212.797515,44.7626676 212.445515,44.416001 C212.093515,44.0693343 211.672182,43.800001 211.181515,43.608001 C210.690848,43.416001 210.157515,43.320001 209.581515,43.320001 C209.005515,43.320001 208.472182,43.416001 207.981515,43.608001 C207.490848,43.800001 207.069515,44.0693343 206.717515,44.416001 C206.365515,44.7626676 206.088182,45.176001 205.885515,45.656001 C205.682848,46.136001 205.581515,46.6693343 205.581515,47.256001 C205.581515,47.8426676 205.682848,48.376001 205.885515,48.856001 C206.088182,49.336001 206.365515,49.7493343 206.717515,50.096001 C207.069515,50.4426676 207.490848,50.712001 207.981515,50.904001 C208.472182,51.096001 209.005515,51.192001 209.581515,51.192001 Z M209.581515,50.040001 C209.176182,50.040001 208.810848,49.968001 208.485515,49.824001 C208.160182,49.680001 207.880182,49.4826676 207.645515,49.232001 C207.410848,48.9813343 207.232182,48.688001 207.109515,48.352001 C206.986848,48.016001 206.925515,47.6506676 206.925515,47.256001 C206.925515,46.8613343 206.986848,46.496001 207.109515,46.160001 C207.232182,45.824001 207.410848,45.5306676 207.645515,45.280001 C207.880182,45.0293343 208.160182,44.832001 208.485515,44.688001 C208.810848,44.544001 209.176182,44.472001 209.581515,44.472001 C209.986848,44.472001 210.352182,44.544001 210.677515,44.688001 C211.002848,44.832001 211.282848,45.0293343 211.517515,45.280001 C211.752182,45.5306676 211.930848,45.824001 212.053515,46.160001 C212.176182,46.496001 212.237515,46.8613343 212.237515,47.256001 C212.237515,47.6506676 212.176182,48.016001 212.053515,48.352001 C211.930848,48.688001 211.752182,48.9813343 211.517515,49.232001 C211.282848,49.4826676 211.002848,49.680001 210.677515,49.824001 C210.352182,49.968001 209.986848,50.040001 209.581515,50.040001 Z M218.710996,51.192001 C219.382996,51.192001 219.97233,51.0453343 220.478996,50.752001 C220.985663,50.4586676 221.35633,50.0986676 221.590996,49.672001 L221.590996,49.672001 L221.622996,49.672001 L221.622996,51.000001 L222.870996,51.000001 L222.870996,38.904001 L221.622996,38.904001 L221.622996,44.600001 L221.590996,44.600001 C221.249663,44.1946676 220.85233,43.880001 220.398996,43.656001 C219.945663,43.432001 219.446996,43.320001 218.902996,43.320001 C218.31633,43.320001 217.78033,43.4186676 217.294996,43.616001 C216.809663,43.8133343 216.39633,44.088001 216.054996,44.440001 C215.713663,44.792001 215.446996,45.208001 215.254996,45.688001 C215.062996,46.168001 214.966996,46.6906676 214.966996,47.256001 C214.966996,47.8213343 215.062996,48.344001 215.254996,48.824001 C215.446996,49.304001 215.710996,49.720001 216.046996,50.072001 C216.382996,50.424001 216.78033,50.6986676 217.238996,50.896001 C217.697663,51.0933343 218.18833,51.192001 218.710996,51.192001 Z M218.966996,50.040001 C218.561663,50.040001 218.19633,49.968001 217.870996,49.824001 C217.545663,49.680001 217.265663,49.4826676 217.030996,49.232001 C216.79633,48.9813343 216.617663,48.688001 216.494996,48.352001 C216.37233,48.016001 216.310996,47.6506676 216.310996,47.256001 C216.310996,46.8613343 216.37233,46.496001 216.494996,46.160001 C216.617663,45.824001 216.79633,45.5306676 217.030996,45.280001 C217.265663,45.0293343 217.545663,44.832001 217.870996,44.688001 C218.19633,44.544001 218.561663,44.472001 218.966996,44.472001 C219.37233,44.472001 219.737663,44.544001 220.062996,44.688001 C220.38833,44.832001 220.66833,45.0293343 220.902996,45.280001 C221.137663,45.5306676 221.31633,45.824001 221.438996,46.160001 C221.561663,46.496001 221.622996,46.8613343 221.622996,47.256001 C221.622996,47.6506676 221.561663,48.016001 221.438996,48.352001 C221.31633,48.688001 221.137663,48.9813343 220.902996,49.232001 C220.66833,49.4826676 220.38833,49.680001 220.062996,49.824001 C219.737663,49.968001 219.37233,50.040001 218.966996,50.040001 Z" id="UtahDepartmentofAgricultureandFood" fill="#000000" fill-rule="nonzero"></path>
                </g>
            </g>
        </g>
    </g>
</svg>