<?xml version="1.0" encoding="UTF-8"?>
<svg width="125px" height="125px" viewBox="0 0 125 125" version="1.1" xmlns="http://www.w3.org/2000/svg" xmlns:xlink="http://www.w3.org/1999/xlink">
    <title>tech-7</title>
    <g id="Page-1" stroke="none" stroke-width="1" fill="none" fill-rule="evenodd">
        <g id="tech-7" fill-rule="nonzero">
            <g id="015" transform="translate(37.068966, 41.379310)">
                <polygon id="Path" fill="#FF0000" points="48.3045894 11.7124975 48.3045894 2.54491883 4.37409345 2.54491883 4.37409345 11.7124975 0.93697499 11.7124975 0.93697499 30.4968553 51.675351 30.4968553 51.675351 11.7122908 48.3045894 11.7122908"></polygon>
                <path d="M0.0197623459,30.8958231 L0.0197623459,10.7952848 L3.45750097,10.7952848 L3.45750097,1.6279129 L49.2215953,1.6279129 L49.2215953,10.7952848 L52.5923569,10.7952848 L52.5923569,30.8958231 L0.0197623459,30.8958231 Z M1.4533593,30.1741668 L50.9733329,30.2175778 L50.7587586,12.6295034 L47.3871701,12.6295034 L47.3871701,3.46151132 L5.2902725,3.46151132 L5.2902725,12.6295034 L1.85336076,12.6295034 L1.51806237,29.5922525 L1.4533593,30.1741668 L1.4533593,30.1741668 Z" id="Shape" fill="#EB1019"></path>
                <polygon id="Path" fill="#FFFFFF" points="6.66330076 1.552047 6.66330076 5.68332819 8.22899122 7.8015788 12.8315919 6.23878242 12.8129872 0.000413438199 6.66309404 1.55184027"></polygon>
                <path d="M7.61668924,22.6258188 L18.0032904,24.9727007 L45.0194095,22.455689 L45.025611,30.6485871 L7.59581061,30.6485871 L7.61668924,22.6258188 Z M38.5286364,16.8110173 L35.7056805,15.6399536 L29.834858,11.631877 L22.8204656,13.7664584 L7.61007423,12.615033 L7.61007423,18.0110217 L17.2547605,20.7781636 L44.8137239,18.3299892 L44.8137239,12.7012349 L38.5286364,16.8110173 L38.5286364,16.8110173 Z" id="Shape" stroke="#BD101D" stroke-width="1.13159999" fill="#BD101D"></path>
                <polygon id="Path" fill="#FFFFFF" points="3.45336659 9.03424479 1.71485896 10.8734246 1.71485896 15.8047087 4.16944155 16.849467 4.16944155 14.0012913 5.21399316 14.8198989 5.21399316 12.8738454 7.60986751 12.8734319 12.0439922 19.5500454 13.6791403 19.9959384 15.8995101 29.1976258 17.0515557 29.6751468 17.8666491 33.0417741 24.2918921 33.0417741 21.2022684 20.2710816 29.9309824 14.6032573 34.6782865 18.6146414 35.8317791 18.1629602 36.2694034 19.3557294 44.8139307 18.5888016 44.0724292 16.695668 39.2649699 15.5200565 30.5600286 8.42752424 21.0751362 12.0254701 18.1606036 8.18979728 22.5513173 3.72611176 26.735932 3.72611176 28.3869975 5.11691787 28.3869975 3.72611176 31.6758983 3.72611176 30.8814768 1.88011021 21.2475399 0.354523255 12.3538642 6.05066803"></polygon>
                <path d="M7.64294257,41.523252 C7.25493082,41.7237696 6.39849359,41.9379305 5.31507879,41.9379305 C2.45201926,41.9379305 0.712684767,40.1318257 0.712684767,37.3890767 C0.712684767,34.4189368 2.77284731,32.626062 5.52923978,32.626062 C6.6128613,32.626062 7.38888479,32.8536597 7.7233563,33.0270971 L7.36221803,34.3383163 C6.93389606,34.1512355 6.34557351,33.9904081 5.59621677,33.9904081 C3.76303179,33.9904081 2.43858253,35.1412132 2.43858253,37.3082496 C2.43858253,39.2886186 3.60261777,40.559941 5.58278002,40.559941 C6.25172303,40.559941 6.94753952,40.4257803 7.37544806,40.2252628 L7.64294257,41.5230453 L7.64294257,41.523252 Z M14.7466377,38.472905 C14.7466377,40.8677458 13.0610502,41.9379305 11.4019226,41.9379305 C9.55550767,41.9379305 8.13720793,40.6668148 8.13720793,38.5797788 C8.13720793,36.4392025 9.54207094,35.1277766 11.5087964,35.1277766 C13.4486485,35.1279833 14.7466377,36.4927427 14.7466377,38.472905 L14.7466377,38.472905 Z M9.83623222,38.5396753 C9.83623222,39.7973542 10.451635,40.7474353 11.4552562,40.7474353 C12.3916937,40.7474353 13.0474067,39.824021 13.0474067,38.5128017 C13.0474067,37.496364 12.5926247,36.3323288 11.4688997,36.3323288 C10.3046577,36.3323288 9.83623222,37.4558471 9.83623222,38.5396753 Z M21.706663,39.8374578 C21.706663,40.6134812 21.7335366,41.2555508 21.76041,41.7909533 L20.3152368,41.7909533 L20.2348231,40.8007687 L20.2079495,40.8007687 C19.927225,41.2691943 19.2849488,41.9381372 18.1209135,41.9381372 C16.9302116,41.9381372 15.8463833,41.2290907 15.8463833,39.1015378 L15.8463833,35.2751673 L17.4918674,35.2751673 L17.4918674,38.8203998 C17.4918674,39.904228 17.8397755,40.5998378 18.7094428,40.5998378 C19.3651558,40.5998378 19.7930643,40.131619 19.9671219,39.7167338 C20.0208688,39.5697565 20.0607656,39.3959058 20.0607656,39.2084116 L20.0607656,35.2749606 L21.7062496,35.2749606 L21.7062496,39.837251 L21.706663,39.837251 L21.706663,39.8374578 Z M28.0328877,41.5900223 C27.6847727,41.7508497 27.0025996,41.9381372 26.1864726,41.9381372 C24.1529768,41.9381372 22.8283209,40.6271247 22.8283209,38.6066523 C22.8283209,36.6531568 24.1662069,35.1279833 26.4541739,35.1279833 C27.0561399,35.1279833 27.6717494,35.2617305 28.0463244,35.4359947 L27.7521631,36.6665935 C27.4844619,36.5460763 27.0968636,36.412329 26.5077142,36.412329 C25.2500351,36.412329 24.5008851,37.3355365 24.5143219,38.5262385 C24.5143219,39.8643312 25.3841959,40.626918 26.5079209,40.626918 C27.0832201,40.626918 27.4844619,40.5064007 27.8054966,40.3726535 L28.0328877,41.590229 L28.0328877,41.5900223 Z M28.9800746,32.2913837 L30.6389953,32.2913837 L30.6389953,36.1715013 L30.6658688,36.1715013 C30.8663863,35.8634898 31.1473176,35.5959953 31.4817891,35.4221445 C31.8028238,35.2350638 32.1910423,35.1277766 32.6057209,35.1277766 C33.7162158,35.1277766 34.8804578,35.8636965 34.8804578,37.9507325 L34.8804578,41.7905398 L33.234767,41.7905398 L33.234767,38.1382267 C33.234767,37.1883525 32.8866521,36.4788926 31.9768814,36.4788926 C31.3348118,36.4788926 30.8796164,36.9072145 30.7059724,37.4021001 C30.6522254,37.536054 30.6389953,37.7101115 30.6389953,37.897399 L30.6389953,41.7905398 L28.9800746,41.7905398 L28.9800746,32.2913837 L28.9800746,32.2913837 Z M36.4659933,32.8935565 C37.1886832,32.7730393 38.1114774,32.706269 39.0884318,32.706269 C40.7742261,32.706269 41.9380546,33.0541772 42.7676183,33.7499938 C43.6374923,34.4590403 44.1724813,35.529225 44.1724813,37.068042 C44.1724813,38.6734225 43.6238489,39.8773546 42.7676183,40.6537915 C41.871491,41.4699185 40.4395478,41.8845971 38.6869833,41.8845971 C37.7236723,41.8845971 37.001189,41.8308501 36.4659933,41.7640798 L36.4659933,32.8935565 Z M38.1114774,40.5330676 C38.3390751,40.573171 38.6869833,40.573171 39.0214548,40.573171 C41.1620311,40.5868145 42.4331468,39.4093426 42.4331468,37.1211688 C42.4467903,35.1277766 41.2957784,33.9908215 39.2356158,33.9908215 C38.7138568,33.9908215 38.3390751,34.0307183 38.1116841,34.0844653 L38.1116841,40.5330676 L38.1114774,40.5330676 Z M45.4146564,32.8935565 C45.9362087,32.7866827 46.886083,32.706269 47.8092904,32.706269 C49.026866,32.706269 49.7764294,32.853453 50.3918321,33.2815683 C50.9534879,33.6162465 51.3280629,34.2047757 51.3280629,34.9673625 C51.3280629,35.7967196 50.8063039,36.5595131 49.8295562,36.920858 L49.8295562,36.9475247 C50.7796372,37.1883525 51.6493044,37.9372958 51.6493044,39.1817448 C51.6493044,39.984435 51.3013962,40.6132745 50.7796372,41.0413898 C50.1373609,41.6032523 49.0804062,41.8843903 47.4349221,41.8843903 C46.5249446,41.8843903 45.8295416,41.81762 45.4146564,41.7638731 L45.4146564,32.8935565 L45.4146564,32.8935565 Z M47.0469103,36.4524325 L47.8899109,36.4524325 C49.0272794,36.4524325 49.6693489,35.9174435 49.6693489,35.15465 C49.6693489,34.3116495 49.0270727,33.9240512 47.9837614,33.9240512 C47.5021058,33.9240512 47.2209679,33.950718 47.0471172,33.9908215 L47.0471172,36.4524325 L47.0469103,36.4524325 Z M47.0469103,40.6000446 C47.2610714,40.6401481 47.5420026,40.6401481 47.9165776,40.6401481 C48.9735324,40.6401481 49.9101766,40.239113 49.9101766,39.1284113 C49.9101766,38.0846865 49.0004058,37.656778 47.8630374,37.656778 L47.0469103,37.656778 L47.0469103,40.6000446 Z" id="Shape" fill="#000000"></path>
            </g>
        </g>
    </g>
</svg>