<?xml version="1.0" encoding="UTF-8"?>
<svg width="125px" height="125px" viewBox="0 0 125 125" version="1.1" xmlns="http://www.w3.org/2000/svg" xmlns:xlink="http://www.w3.org/1999/xlink">
    <title>tech-6</title>
    <defs>
        <polygon id="path-1" points="0.00734800085 0.00352411425 49.5930266 0.00352411425 49.5930266 31.9896164 0.00734800085 31.9896164"></polygon>
        <polygon id="path-3" points="0.00734800085 0.00352411425 49.5930266 0.00352411425 49.5930266 31.9896164 0.00734800085 31.9896164"></polygon>
    </defs>
    <g id="Page-1" stroke="none" stroke-width="1" fill="none" fill-rule="evenodd">
        <g id="005-copy" transform="translate(37.931034, 45.689655)">
            <path d="M13.1662743,10.7793583 C13.1662743,8.07487834 13.1662743,5.37076741 13.1662743,2.66628743 C13.2923944,2.66997804 13.4181457,2.67329959 13.5438971,2.67662114 C13.5438971,6.056483 13.5438971,9.43634486 13.5438971,12.8162067 C13.4100328,12.8730422 13.2757997,12.9298775 13.1419353,12.9863439 C11.2833228,10.143835 9.42471033,7.3013262 7.29578773,4.0443617 C7.29578773,7.24116924 7.29578773,9.9995321 7.29578773,12.757526 C7.13279036,12.7593713 6.969793,12.7612166 6.80679563,12.7626928 C6.80679563,9.39648625 6.80679563,6.03027965 6.80679563,2.66407306 C6.91447715,2.58140337 7.02215867,2.49873367 7.12984019,2.41606398 C9.00836638,5.25266784 10.8868925,8.08927172 12.7654187,10.9258756 C12.8989143,10.8771595 13.0327787,10.8280744 13.1662743,10.7793583" id="Fill-1" fill="#FFFFFE" fill-rule="nonzero"></path>
            <path d="M26.4450078,9.01820968 C26.4442673,7.07357753 25.591638,6.05975679 23.9875135,6.09554303 C22.4099646,6.1302225 21.2509792,7.43918756 21.2661124,9.16873328 C21.2816147,10.9809194 22.3948314,12.2131469 23.9974793,12.191749 C25.6156297,12.1699821 26.4461129,11.0934432 26.4450078,9.01820968 Z M21.1443082,14.9506105 C25.5968054,15.3188031 26.2287108,14.9598338 26.3102828,12.5223107 C24.9933209,12.5223107 23.5763321,12.8218821 22.4051662,12.4153208 C21.6411217,12.1504288 20.9420394,10.9303759 20.7194699,10.0154285 C19.9628074,6.90718992 22.4620082,4.75927712 25.5163408,5.70964184 C25.9932227,5.85795186 26.5561057,5.73030194 27.1651267,5.73030194 C27.1651267,7.8121762 27.2057282,9.95418612 27.1558992,12.0936135 C27.076911,15.4523559 24.4832197,16.8295731 21.1443082,14.9506105 L21.1443082,14.9506105 Z" id="Fill-2" fill="#FFFFFE" fill-rule="nonzero"></path>
            <path d="M43.2763481,8.4355426 C43.2096089,6.72508102 42.3799785,5.91447418 40.9685005,6.06494169 C39.7808383,6.19106887 38.8623452,6.88329318 39.0537133,8.4355426 C40.4567107,8.4355426 41.7767449,8.4355426 43.2763481,8.4355426 Z M44.0794303,9.22439065 C42.1952474,9.22439065 40.4471238,9.22439065 38.6824076,9.22439065 C39.0489199,11.8907635 39.0990664,11.9210045 43.4533359,12.2171452 C41.9673756,13.2136237 40.192335,13.1398651 39.0009857,12.0316424 C37.795256,10.9105119 37.5544788,8.73168331 38.4689161,7.10567531 C39.2572493,5.70463101 40.5020637,5.10276096 42.0160472,5.51949696 C43.684895,5.97827535 44.1863605,7.3203128 44.0794303,9.22439065 L44.0794303,9.22439065 Z" id="Fill-3" fill="#FFFFFE" fill-rule="nonzero"></path>
            <path d="M18.8998795,9.11766211 C17.4062411,9.17357609 15.8096567,8.92858461 15.4447336,10.7833099 C15.2322001,11.8637002 16.1421093,12.2047019 17.1195422,12.1609271 C18.6124426,12.0936096 19.1271722,11.280282 18.8998795,9.11766211 Z M19.7894947,12.4471184 C19.1552149,12.5129644 18.6294158,12.4813288 18.1615468,12.6314137 C16.451685,13.1791499 15.2167029,12.7800272 14.8111918,11.4803952 C14.4078947,10.1870168 15.1702111,9.10405148 16.8959391,8.60744714 C17.5309569,8.42462317 18.199921,8.35914497 18.8441632,8.24216706 C18.9530128,6.15679668 18.8209173,6.08028283 15.4591239,6.24986401 C15.4414128,6.09058276 15.4237016,5.93093367 15.4056215,5.77165243 C16.3952308,5.71353133 17.5014383,5.36186188 18.3371822,5.69146002 C18.9943388,5.95042999 19.6234528,7.01022044 19.7256608,7.78529107 C19.9370874,9.38729989 19.7894947,11.0363941 19.7894947,12.4471184 L19.7894947,12.4471184 Z" id="Fill-4" fill="#FFFFFE" fill-rule="nonzero"></path>
            <path d="M32.5001399,9.09527012 C31.0186175,9.19458733 29.389792,8.94020234 29.0774651,10.8349829 C28.8980433,11.9226725 29.8324398,12.2305928 30.8011701,12.1696733 C32.2926604,12.0758942 32.7906852,11.2425896 32.5001399,9.09527012 Z M29.0907556,5.63135144 C30.0952965,5.63135144 31.2977182,5.29204839 32.0467859,5.72919182 C32.7585665,6.14492113 33.2466235,7.33451248 33.3854354,8.25162759 C33.6028828,9.68563524 33.4430276,11.1765011 33.4430276,12.5056535 C32.8102518,12.5662038 32.230638,12.5351902 31.7045554,12.6887812 C30.3341564,13.0890036 29.0512533,13.101926 28.501174,11.556048 C27.9514637,10.0094315 28.8965665,9.1358831 30.2846862,8.7002165 C30.9754234,8.48349083 31.7019711,8.38158915 32.4196585,8.22578297 C32.6891605,6.2006717 32.2232544,5.92154971 29.1531472,6.29038948 C29.1321038,6.07071014 29.1117989,5.85103079 29.0907556,5.63135144 L29.0907556,5.63135144 Z" id="Fill-5" fill="#FFFFFE" fill-rule="nonzero"></path>
            <g id="Group-9">
                <g id="Fill-6-Clipped">
                    <mask id="mask-2" fill="white">
                        <use xlink:href="#path-1"></use>
                    </mask>
                    <g id="path-1"></g>
                    <path d="M35.0848933,12.720162 C35.0848933,10.3917219 35.0848933,8.06291321 35.0848933,5.89043995 C35.9753361,5.76138944 36.8893765,5.62938919 37.8026795,5.49702023 C34.2268973,7.05816277 36.2835804,10.3780795 35.0848933,12.720162" id="Fill-6" fill="#FFFFFE" fill-rule="nonzero" mask="url(#mask-2)"></path>
                </g>
                <g id="Fill-8-Clipped">
                    <mask id="mask-4" fill="white">
                        <use xlink:href="#path-3"></use>
                    </mask>
                    <g id="path-1"></g>
                    <path d="M44.0726502,9.2298986 C42.1885249,9.2298986 40.4404548,9.2298986 38.6757927,9.2298986 C39.0422938,11.8957136 39.0924388,11.9259482 43.4465748,12.222027 C41.96066,13.218297 40.185674,13.1445538 38.994361,12.036563 C37.7886684,10.915667 37.5478986,8.73729434 38.4623077,7.11162655 C39.2506169,5.71087538 40.4953931,5.10913125 42.0093302,5.52578006 C43.6781268,5.98446247 44.179577,7.32621912 44.0726502,9.2298986 Z M35.0848933,12.720162 C35.0848933,10.3917219 35.0848933,8.06291321 35.0848933,5.89043995 C35.9753361,5.76138944 36.8893765,5.62938919 37.8026795,5.49702023 C34.2268973,7.05816277 36.2835804,10.3780795 35.0848933,12.720162 Z M33.4404317,12.5055694 C32.808457,12.5660388 32.2295771,12.5350667 31.7041606,12.6884524 C30.3354965,13.0881403 29.0542177,13.1010453 28.5048348,11.5572325 C27.9558205,10.0126821 28.8997267,9.14030066 30.286089,8.70521606 C30.9759516,8.48877992 31.7015796,8.38701436 32.4183583,8.23141631 C32.6875191,6.20901037 32.2222028,5.93026125 29.1559825,6.29860829 C29.1349659,6.07922242 29.1146866,5.85983654 29.09367,5.64045066 C30.096939,5.64045066 31.2978384,5.30160088 32.0459578,5.73816034 C32.7572059,6.15333429 33.2442762,7.34133646 33.3829124,8.25722642 C33.6000847,9.68931844 33.4404317,11.1781927 33.4404317,12.5055694 Z M27.1634555,12.09482 C27.0845509,15.4516084 24.4936021,16.8280243 21.1582211,14.9501549 C25.6060103,15.3181332 26.2372476,14.9593728 26.3187332,12.5232678 C25.0031639,12.5232678 23.5876734,12.822665 22.4177459,12.4163402 C21.6545092,12.1516023 20.9561662,10.9322593 20.733832,10.0178442 C19.9779696,6.91104518 22.4745278,4.76475073 25.5256308,5.71456253 C26.0020084,5.86315498 26.5642963,5.73521061 27.1726734,5.73521061 C27.1726734,7.81587365 27.2132318,9.95663732 27.1634555,12.09482 Z M19.7825516,12.4605861 C19.1487333,12.5265862 18.6233167,12.4948767 18.1557882,12.6453127 C16.4471705,13.1943304 15.2130869,12.7942738 14.8078709,11.4916011 C14.4048672,10.1951964 15.166629,9.10969725 16.8911014,8.61193098 C17.5256571,8.42867924 18.1941344,8.36304784 18.8379079,8.24579623 C18.9466784,6.15554658 18.814679,6.0788537 15.4553316,6.24883167 C15.4376333,6.08917774 15.4199351,5.92915511 15.4018682,5.76950118 C16.3907574,5.71124409 17.49616,5.35875182 18.3312958,5.68912114 C18.9879742,5.94869704 19.6166305,7.01096714 19.7187641,7.78785125 C19.9300368,9.39360839 19.7825516,11.0465612 19.7825516,12.4605861 Z M13.5479773,12.8020169 C13.4141344,12.8587991 13.2799228,12.9155813 13.1460798,12.9719948 C11.2877645,10.132146 9.42944916,7.29229727 7.30086694,4.03838068 C7.30086694,7.2321966 7.30086694,9.98797822 7.30086694,12.743391 C7.13789563,12.7452347 6.97492433,12.7470782 6.81195302,12.7485531 C6.81195302,9.38549664 6.81195302,6.02244019 6.81195302,2.65938374 C6.91961733,2.57679141 7.02728163,2.49419907 7.13494592,2.41160675 C9.01317177,5.24555608 10.8913976,8.07950542 12.7696235,10.9134548 C12.9030977,10.8647843 13.0369406,10.8157451 13.1704149,10.7667059 C13.1704149,8.06512551 13.1704149,5.36354513 13.1704149,2.66159604 C13.2965149,2.66528319 13.4222461,2.66860163 13.5479773,2.67192008 C13.5479773,6.04861901 13.5479773,9.42531794 13.5479773,12.8020169 Z M49.1671626,0.00352411425 C32.6200445,0.00352411425 16.3232828,0.00352411425 -0.0147748006,0.00352411425 C-0.0147748006,31.7477388 -0.0147748006,-0.612968637 -0.0147748006,31.0777823 C0.561155465,31.0777823 1.04011412,31.108017 1.51391078,31.0737264 C7.02543806,30.6688765 12.2770224,29.1195329 17.3693226,27.1199873 C27.4090186,23.1784158 36.8536113,24.3395018 45.900731,29.9642607 C46.8789276,30.572273 47.9065317,31.1017488 49.4835187,31.9896164 C49.7453052,0.332049857 49.4975298,31.8270127 49.1671626,0.00352411425 L49.1671626,0.00352411425 Z" id="Fill-8" fill="#3E6D37" fill-rule="nonzero" mask="url(#mask-4)"></path>
                </g>
            </g>
            <path d="M24.0023145,6.11076817 C22.424291,6.14538636 21.2649568,7.45203865 21.2800947,9.17852851 C21.2956017,10.9875128 22.4091532,12.2175631 24.0122832,12.1962029 C25.6309204,12.1744745 26.4616534,11.0998377 26.460548,9.02827086 C26.4598073,7.08707462 25.6069214,6.07504515 24.0023145,6.11076817" id="Fill-10" fill="#3E6D37" fill-rule="nonzero"></path>
            <path d="M40.9703776,6.05789112 C39.7817666,6.18425775 38.8625395,6.87779624 39.0540605,8.43299254 C40.4581789,8.43299254 41.7792678,8.43299254 43.2800691,8.43299254 C43.2132767,6.71928371 42.3829834,5.90713795 40.9703776,6.05789112" id="Fill-11" fill="#3E6D37" fill-rule="nonzero"></path>
            <path d="M15.4334936,10.7830681 C15.2213517,11.8704102 16.1295845,12.213606 17.1052168,12.1695496 C18.5953671,12.101799 19.1091484,11.283238 18.8822744,9.10670269 C17.3913876,9.16297644 15.7977444,8.91640857 15.4334936,10.7830681" id="Fill-12" fill="#3E6D37" fill-rule="nonzero"></path>
            <path d="M29.0846372,10.8378403 C28.9060331,11.9201687 29.8361705,12.2265712 30.8004851,12.165952 C32.285177,12.0726352 32.7809317,11.2434379 32.4917108,9.10670269 C31.0169414,9.20553037 29.3955405,8.95239926 29.0846372,10.8378403" id="Fill-13" fill="#3E6D37" fill-rule="nonzero"></path>
        </g>
    </g>
</svg>