<?xml version="1.0" encoding="UTF-8"?>
<svg width="125px" height="125px" viewBox="0 0 125 125" version="1.1" xmlns="http://www.w3.org/2000/svg" xmlns:xlink="http://www.w3.org/1999/xlink">
    <title>tech-4</title>
    <g id="Page-1" stroke="none" stroke-width="1" fill="none" fill-rule="evenodd">
        <g id="tech-4" fill-rule="nonzero">
            <g id="018-copy" transform="translate(37.931034, 36.206897)">
                <path d="M49.1798499,30.6740422 C48.8834702,29.7698942 48.1070909,29.1401606 47.1030688,28.9890478 C46.6296337,28.9178673 46.0874618,28.9482066 45.445853,29.0814269 C44.3275269,29.3138332 43.4978571,29.4023226 42.8923546,29.4194371 C45.1778564,25.5327088 47.0362626,21.1004577 48.1061254,16.9282294 C49.8361327,10.1818337 48.9116601,7.10843025 47.8313709,5.71827093 C44.972418,2.03866625 40.8012855,0.0619483799 35.7692039,0.0014643916 C33.0847964,-0.0315975955 30.7282407,0.502256256 29.4988929,0.886164271 C28.3543077,0.682735809 27.1236084,0.569158159 25.8322815,0.548154073 C23.4116228,0.509257617 21.2728627,1.04077768 19.4453494,2.13318463 C18.433604,1.78856204 16.8097914,1.3027453 14.9345871,0.992740558 C10.5242269,0.263432019 6.96960256,0.831709234 4.3695715,2.68181914 C1.22118991,4.921866 -0.238310664,8.81384534 0.0316168145,14.249625 C0.117344855,15.9754607 1.0757998,21.2264822 2.58492223,26.2063954 C3.45224285,29.0687855 4.37710167,31.4457479 5.33381887,33.2719366 C6.69060026,35.861468 8.1423776,37.3864036 9.77217575,37.9340657 C10.6856428,38.2405697 12.3453685,38.4552782 14.0910154,36.9908266 C14.3122865,37.260768 14.6075076,37.5289591 14.9992693,37.7780909 C15.4968394,38.0941246 16.1052382,38.352397 16.7128647,38.5054547 C18.9025982,39.0568118 20.9536995,38.9189239 22.7035942,38.1460514 C22.7144067,38.4595568 22.7227092,38.7590595 22.7296601,39.017721 C22.741245,39.4372193 22.7528299,39.8485492 22.7680833,40.2332351 C22.8717678,42.8342411 23.0474717,44.8566624 23.5680186,46.2717154 C23.5965946,46.3495083 23.6350178,46.4681425 23.6755648,46.5939726 C23.935259,47.3948505 24.3694985,48.7356113 25.474309,49.7856212 C26.6183149,50.8733606 28.0021277,51.2068977 29.2695125,51.2068977 C29.9051357,51.2068977 30.5116037,51.1228813 31.0435423,51.0081368 C32.9395994,50.5987516 35.0930337,49.9752414 36.6508126,47.741029 C38.1236357,45.6289514 38.8395808,42.4478049 38.9691382,37.4354131 C38.9859363,37.2936355 39.0013827,37.1582759 39.01625,37.0293341 L39.047143,36.7644492 L39.3941099,36.7951775 L39.4835065,36.8012064 C41.4147044,36.8898903 43.776087,36.4773934 45.2263198,35.7988448 C46.3722565,35.2632405 50.0444673,33.310444 49.1798499,30.6740422" id="Path" fill="#000000"></path>
                <path d="M46.13697,31.6022918 C40.4540416,32.78396 40.0632686,30.8445603 40.0632686,30.8445603 C46.0634015,21.8702383 48.5718009,10.4786489 46.4073581,7.6906054 C40.5020045,0.0853620304 30.2798036,3.68217891 30.1091629,3.77540261 L30.054321,3.78541838 C28.9314936,3.55043303 27.6750963,3.41059748 26.2627721,3.38729155 C23.6915049,3.34491714 21.7408885,4.06682298 20.2607283,5.1982197 C20.2607283,5.1982197 2.02529284,-2.37408719 2.87352818,14.7216756 C3.05391433,18.3585555 8.04510762,42.2405798 13.998233,35.0271071 C16.1741411,32.3893001 18.2766717,30.159058 18.2766717,30.159058 C19.3207713,30.8582357 20.5708626,31.2149512 21.8813375,31.0868649 L21.9831869,30.9998048 C21.9514664,31.3272434 21.965989,31.6475554 22.0238884,32.0268063 C20.4902239,33.7539487 20.9409982,34.0571184 17.8751978,34.6933123 C14.7728999,35.3377886 16.5952969,36.4849794 17.7851958,36.7850672 C19.2277119,37.1485241 22.5648558,37.6635658 24.8196828,34.4818255 L24.7298719,34.8448971 C25.3306495,35.3300841 25.7525697,38.0004424 25.6818675,40.4213694 C25.6111652,42.8421039 25.5639668,44.5041437 26.0372893,45.8023415 C26.5109941,47.1005393 26.982788,50.0214843 31.0131957,49.1510755 C34.3807225,48.4235839 36.1259204,46.5385006 36.3687919,43.3939342 C36.5409614,41.1584915 36.93097,41.4890119 36.9554292,39.4902881 L37.2682386,38.5441831 C37.6288199,35.513835 37.3255648,34.5361418 39.4001967,34.9908963 L39.9046664,35.035582 C41.4314518,35.1054998 43.4302222,34.7878843 44.6033054,34.2383653 C47.1290938,33.0568897 48.6272162,31.0839757 46.1365878,31.6022918 L46.13697,31.6022918" id="Path" fill="#336791"></path>
                <path d="M20.4093109,15.5241674 C19.8804874,15.4582621 19.4015864,15.51922 19.1592747,15.6835416 C19.0231224,15.7759503 18.9808954,15.8830243 18.9694507,15.9567039 C18.9390631,16.151946 19.0917905,16.367861 19.1857158,16.4791755 C19.4513116,16.79439 19.8392471,17.0110116 20.2232362,17.0587179 C20.278881,17.0657855 20.3343285,17.0689659 20.3893814,17.0689659 C21.0296921,17.0689659 21.6119899,16.6224709 21.6632937,16.2929445 C21.7274234,15.8801972 21.0583037,15.6050913 20.4093109,15.5243441 M37.928367,15.5372424 C37.8778525,15.2137235 37.2349766,15.1214914 36.6248564,15.197468 C36.0155253,15.2734446 35.4247426,15.5197501 35.4740732,15.8439758 C35.5135377,16.0961121 36.0220369,16.5265284 36.6238697,16.5265284 C36.6747789,16.5265284 36.7260827,16.5235246 36.7777811,16.5169871 C37.1795291,16.4671606 37.4743285,16.2387008 37.6144273,16.1070669 C37.8275353,15.9063473 37.951059,15.682658 37.928367,15.5372424" id="Shape" fill="#FFFFFF"></path>
                <path d="M47.363233,31.4924892 C47.1442406,30.8277055 46.439371,30.6138658 45.2683217,30.8565923 C41.7912863,31.577017 40.5460809,31.077993 40.1372565,30.7757481 C42.8399007,26.6424181 45.0632336,21.6459743 46.2626708,16.9843457 C46.830815,14.7761549 47.1446269,12.7253874 47.1703111,11.0538314 C47.1986991,9.21923003 46.8873977,7.871051 46.2454834,7.04748693 C43.6573564,3.72744582 39.8587848,1.94654668 35.260717,1.89769119 C32.0996178,1.86201891 29.4288376,2.6741446 28.9110963,2.90252465 C27.8207691,2.63032975 26.6321464,2.46321293 25.3380828,2.44188712 C22.965086,2.40330678 20.9138186,2.97367532 19.2155654,4.13631978 C18.4778662,3.8606352 16.571435,3.20360633 14.2399579,2.82652721 C10.2092619,2.17512061 7.0062568,2.6687162 4.72054785,4.29432466 C1.99318494,6.23419803 0.734075242,9.70177499 0.977979468,14.6005078 C1.06005333,16.2486052 1.99550231,21.31872 3.47167325,26.1742196 C5.41479622,32.5649837 7.52708791,36.1828107 9.74945516,36.9270815 C10.009581,37.0141296 10.3094886,37.075005 10.6402945,37.075005 C11.4509912,37.075005 12.4449541,36.7082011 13.4790848,35.4600595 C14.7404276,33.9409934 16.0452057,32.4588133 17.3917875,31.0153727 C18.2654397,31.4860914 19.2252212,31.7489806 20.2068246,31.7753471 C20.2087558,31.8011318 20.2112663,31.8269167 20.2135837,31.8525077 C20.0446129,32.0547893 19.8791528,32.2600004 19.7172782,32.4680482 C19.0371272,33.3348455 18.8955739,33.5153393 16.7062293,33.9678343 C16.0834335,34.0969524 14.4294036,34.4391347 14.4050712,35.6031364 C14.3788075,36.8749302 16.3603604,37.4090448 16.5861118,37.4656552 C17.3728622,37.6634036 18.1308386,37.7609207 18.8536679,37.7609207 C20.6115936,37.7609207 22.1586377,37.1808586 23.3949599,36.0585393 C23.3569162,40.5924068 23.5452033,45.0599706 24.0874702,46.4211389 C24.5316347,47.5355095 25.6165547,50.2586218 29.0435732,50.2586218 C29.5464446,50.2586218 30.0999121,50.1998788 30.7088036,50.0688221 C34.2854863,49.2991542 35.8387101,47.712126 36.4394908,44.2133358 C36.7610273,42.3434498 37.3127568,37.8784066 37.5723033,35.4833241 C38.1199774,35.6548999 38.8250402,35.7334177 39.587265,35.7332238 C41.1769876,35.7332238 43.0113868,35.3941434 44.1617728,34.85809 C45.4540983,34.2555389 47.7861549,32.7770786 47.363233,31.4924892 L47.363233,31.4924892 Z M38.8457035,15.308137 C38.8339235,16.0151845 38.7369798,16.6570915 38.6342427,17.3271097 C38.5235878,18.0477283 38.4092636,18.7927746 38.3804895,19.6971829 C38.3521017,20.5773573 38.4615978,21.4924284 38.5674249,22.3774496 C38.7813962,24.1649404 39.000968,26.005164 38.151069,27.8209599 C38.0098901,27.5698268 37.8841309,27.3102667 37.7744947,27.0437311 C37.6688608,26.7866581 37.4394402,26.3737128 37.121766,25.8021811 C35.8860233,23.5773173 32.9921953,18.3672277 34.4735803,16.2412382 C34.914848,15.6084431 36.0347218,14.9578121 38.8457035,15.308137 L38.8457035,15.308137 Z M35.4383827,3.32942862 C39.5582978,3.42074187 42.8173062,4.96802643 45.1246441,7.92804908 C46.8943498,10.1984725 44.9456265,20.5292772 39.3041585,29.4417217 C39.2474246,29.3692991 39.1903908,29.2971138 39.1330586,29.2251677 L39.061606,29.1355994 C40.5194311,26.7186094 40.2343933,24.3272104 39.9806403,22.207037 C39.8763582,21.3369439 39.7778695,20.5151247 39.8029745,19.7431303 C39.8288519,18.9249946 39.9366101,18.2231815 40.0408922,17.544633 C40.1689274,16.7084673 40.29928,15.843221 40.2633606,14.8232656 C40.2902036,14.7162488 40.3010181,14.5898448 40.2869206,14.4397887 C40.1951911,13.4617094 39.0828487,10.534451 36.8156788,7.88500971 C35.5754944,6.43582388 33.7669726,4.81409285 31.2976113,3.72027259 C32.3597437,3.49925963 33.8121615,3.29317474 35.4383827,3.32942862 Z M12.3847022,34.5465393 C11.2453239,35.9218603 10.4585734,35.6581957 10.1997992,35.5717293 C8.51390548,35.0071768 6.55765069,31.4298689 4.83294077,25.757203 C3.34054818,20.8487767 2.46844091,15.9130146 2.39930575,14.5289694 C2.18147205,10.1517496 3.23839035,7.1011892 5.5409003,5.4618159 C9.28810345,2.79415075 15.4488577,4.39087243 17.9243986,5.20067165 C17.8888655,5.23595617 17.8517874,5.26891425 17.8166405,5.30478038 C13.7542737,9.42337621 13.8506381,16.4601185 13.86068,16.8903183 C13.8602938,17.0562719 13.8741981,17.2912436 13.8931234,17.6144266 C13.9630309,18.7980091 14.0931904,21.0007716 13.7455835,23.4953099 C13.4226953,25.8134257 14.1345171,28.0822981 15.6981691,29.7203143 C15.8586442,29.8880979 16.0273121,30.0477854 16.203551,30.198788 C15.5075646,30.94713 13.9948949,32.602013 12.3847022,34.5465393 Z M16.7257339,28.731766 C15.4654655,27.4115044 14.8930727,25.5751582 15.1551298,23.6930583 C15.5220483,21.0579635 15.3866746,18.7629184 15.3138703,17.5298988 C15.3036352,17.3573536 15.2945588,17.2061342 15.2893447,17.0869036 C15.882787,16.558605 18.6329375,15.0793692 20.5942132,15.530507 C21.4891081,15.7362042 22.0344648,16.3480611 22.2611818,17.400393 C23.4345484,22.8487501 22.4164463,25.1195613 21.5984112,26.9444691 C21.4298218,27.320385 21.270502,27.6757505 21.134549,28.0433301 L21.0291082,28.3275449 C20.7622234,29.0460309 20.5138775,29.7141104 20.3599648,30.3484563 C19.020133,30.3445789 17.7168,29.7699453 16.7257339,28.7315721 L16.7257339,28.731766 Z M16.9314014,36.0794774 C16.5401505,35.9813787 16.188295,35.8109661 15.981855,35.6696341 C16.1543067,35.5882083 16.4611664,35.4773141 16.9933913,35.3671954 C19.5689658,34.8350194 19.9667827,34.4592974 20.835414,33.3521 C21.0345155,33.098129 21.2602669,32.8104243 21.5729201,32.4599056 L21.5733063,32.4595179 C22.0389065,31.9360661 22.2519123,32.024859 22.6381423,32.185772 C22.9511817,32.3156656 23.2561102,32.7096114 23.3797039,33.143107 C23.4382177,33.3478349 23.5038768,33.7363523 23.2889398,34.0387911 C21.4744314,36.5893582 18.830301,36.556594 16.9314014,36.0794774 L16.9314014,36.0794774 Z M30.4106341,48.6717875 C27.2597701,49.3495606 26.1441448,47.7355844 25.408956,45.890514 C24.9344725,44.6993704 24.7011896,39.3279801 24.8666892,33.3961087 C24.8688134,33.3172032 24.8576128,33.2410119 24.8359839,33.1692796 C24.8166365,33.0276318 24.7872077,32.8875569 24.7479234,32.7501305 C24.501895,31.8870167 23.902273,31.1650411 23.1829196,30.8657042 C22.8971095,30.7468613 22.3726092,30.5287564 21.7422819,30.6906388 C21.8766899,30.1346166 22.1097797,29.5066684 22.3625672,28.8267628 L22.4685873,28.5408031 C22.5879324,28.2183955 22.7377896,27.8843558 22.8961439,27.5307351 C23.7522227,25.6214933 24.9246236,23.0063672 23.652189,17.0985358 C23.1755813,14.885692 21.5839276,13.805055 19.171149,14.056118 C17.7247177,14.206368 16.4013008,14.7922462 15.7412337,15.1282247 C15.5992943,15.2003446 15.469521,15.2701382 15.3482448,15.3379931 C15.5324765,13.1084765 16.2284629,8.94180061 18.8320391,6.30554256 C20.4713922,4.64600668 22.654557,3.82632003 25.3145228,3.87052262 C30.5556635,3.95660135 33.9166367,6.65683684 35.8134121,8.9070977 C37.4479373,10.8460018 38.3329833,12.7992522 38.6861905,13.8527472 C36.029894,13.5815217 34.2233033,14.1078815 33.307552,15.422327 C31.3151847,18.2815367 34.397493,23.8309006 35.878878,26.4979841 C36.1505908,26.986733 36.3850324,27.409178 36.4588023,27.5887025 C36.9412036,28.7623976 37.5657374,29.5460243 38.0216818,30.1179438 C38.1614972,30.2932032 38.2970638,30.463228 38.4001873,30.6117332 C37.5956702,30.8445723 36.1505908,31.3825644 36.2822952,34.0717492 C36.176082,35.4210915 35.4208093,41.7385724 35.0370898,43.9706093 C34.5305492,46.9193875 33.4496846,48.0176667 30.4106341,48.6719814 L30.4106341,48.6717875 Z M43.562537,33.5622561 C42.7398672,33.9455392 41.3631505,34.2330499 40.0553758,34.2948948 C38.6108757,34.3627496 37.8754938,34.1324308 37.7024628,33.9907111 C37.6213546,32.3148901 38.2426055,32.1398245 38.900162,31.9544839 C39.0034784,31.9254032 39.1042845,31.8969042 39.2016144,31.8627829 C39.2620594,31.91222 39.3282979,31.9612694 39.4009091,32.0093493 C40.5619164,32.7786295 42.6326884,32.8616063 45.5562561,32.2557594 L45.5883132,32.2493616 C45.1939724,32.6194614 44.5192287,33.116159 43.562537,33.5622561 Z" id="Shape" fill="#FFFFFF"></path>
            </g>
        </g>
    </g>
</svg>