<?xml version="1.0" encoding="UTF-8"?>
<svg width="125px" height="125px" viewBox="0 0 125 125" version="1.1" xmlns="http://www.w3.org/2000/svg" xmlns:xlink="http://www.w3.org/1999/xlink">
    <title>tech-1</title>
    <g id="Page-1" stroke="none" stroke-width="1" fill="none" fill-rule="evenodd">
        <g id="tech-1" fill="#000000" fill-rule="nonzero">
            <g id="Rectangle">
                <path d="M53.7448152,69.2600955 C52.1688475,68.0133911 50.4873306,66.8187004 49.3385716,65.135243 C46.92031,62.1665585 45.0588903,58.730238 43.7863167,55.1185336 C43.0169213,52.7697879 42.7534519,50.2518351 41.7609964,47.994276 C40.7242523,46.354055 41.9396061,44.5623441 43.7260259,44.0412314 C44.5207984,43.8871407 45.9191261,43.1326163 44.2311437,43.672584 C42.7175683,44.7886039 42.5717711,42.658316 44.123493,42.5234053 C45.1825431,42.3821555 45.5724133,41.5107627 45.2098599,40.7263304 C44.0725771,39.9802583 47.9665908,39.161692 46.007057,38.0487604 C43.9671893,35.8349254 48.8615787,35.4087378 47.6538219,37.9234398 C47.3651369,39.8568882 51.0750453,37.5682834 50.2135164,39.801461 C51.0887845,40.874082 53.4902358,40.0460882 53.4299449,41.5499356 C54.7046197,41.6380339 55.142173,42.7158562 56.3374838,42.7987531 C57.5783763,43.3621269 59.8256252,43.805219 60.2471762,45.2104029 C59.0171134,46.1893991 56.1695422,43.1878809 56.0319885,45.8982846 C56.4040785,49.9030179 56.3091972,54.0281955 57.7657144,57.8416157 C58.4546142,60.1503758 60.1256247,61.9677685 61.633866,63.7663063 C63.0777756,65.5272966 65.0331068,66.7678244 67.0265845,67.8115127 C68.7746961,68.6404817 70.6593917,69.189877 72.5651001,69.5354433 C73.3377283,68.9411862 74.702112,66.7315773 75.9069595,67.6626234 C75.965149,68.7108629 73.5153681,69.8522395 75.7920351,69.7363463 C77.1300718,69.330314 78.057064,70.775646 79.1583016,69.4715638 C80.1730631,70.6802332 83.3754291,68.6999725 82.6537168,71.1701377 C81.6771018,71.8037302 80.2533971,71.4209415 79.2758122,72.2926594 C77.6639612,71.4827078 76.3805579,73.0164631 74.5954311,72.823037 C72.6137531,73.1799813 70.5968379,73.3236693 68.5878429,73.3265951 C65.2910805,73.0650634 61.924814,72.9546968 58.7887193,71.8003168 C57.0215345,71.2840803 55.2976685,70.2720879 53.7448152,69.2600955 Z M56.5288628,70.4739662 C58.2538603,71.2232893 59.9408728,72.0140607 61.8317106,72.2531614 C64.831383,72.6720347 67.9291694,73.3181429 70.9393481,72.7294123 C69.5770657,72.1109363 68.1680699,72.9696508 66.8109598,72.2872954 C65.1832682,72.6390384 63.436288,72.1969216 61.7807947,71.9789514 C59.8993319,71.1363288 57.8681927,70.5570257 56.1061802,69.4619739 C53.9033817,68.6533226 57.2445945,70.4994856 57.8395829,70.6495126 C59.2157661,71.4345951 56.3258458,70.2464061 55.9177107,69.9201824 C54.7649106,69.2696855 54.6181436,69.405734 55.8039177,70.0658209 C56.0426566,70.206258 56.278486,70.3540096 56.5288628,70.4739662 L56.5288628,70.4739662 Z M53.2460012,68.1409873 C54.9181431,68.7638518 53.2385658,66.958975 52.473373,67.0633275 C52.1339338,66.4711836 51.1765538,66.0970097 51.8518761,65.7792382 C50.6374921,66.2034753 50.5793025,64.1668121 50.0087214,64.4582516 C48.7233785,64.0501063 49.5086144,62.6044493 47.9770973,61.716152 C47.8374423,60.7805548 46.4560865,59.969628 46.016432,58.5590803 C45.8219819,57.8364143 44.4553352,55.7628539 45.2945581,57.6927263 C46.0089967,59.5505923 47.2657298,61.1430255 48.3121722,62.7320455 C49.1239167,64.2453203 50.0837213,65.8281636 51.5623829,66.7720505 C52.0613585,67.2535028 52.542069,67.9899848 53.2458396,68.1409873 L53.2460012,68.1409873 Z M60.6108611,71.2668508 C61.29572,71.7016532 64.6094544,72.21919 62.5346729,71.445323 C62.186667,71.5187924 58.6872109,70.4494223 60.6108611,71.2668508 L60.6108611,71.2668508 Z M53.0431459,65.0884306 C53.8464852,65.7078818 56.2839817,65.1680767 54.2733704,64.7186454 C53.3591476,64.2285785 51.2981053,63.8929273 52.7030601,65.0141485 L53.0431459,65.0884306 Z M56.9326337,67.1608533 C58.8965317,67.7190258 55.2806965,65.910898 56.4477207,66.9547488 L56.7068259,67.072755 L56.9326337,67.1608533 Z M56.9497674,66.1142392 C58.3765432,66.298888 55.2512784,65.1373561 56.6358669,66.0098867 L56.9497674,66.1142392 Z M61.9088118,69.1804495 C63.2418378,68.3802505 62.8021833,71.0565202 64.1699615,69.4068718 C65.5185048,68.416335 63.0050387,70.6313079 64.6666741,69.5833935 C65.8694202,68.7744172 67.6450104,69.9669948 68.7666143,70.3549848 C69.5728631,70.3156494 70.3572909,71.0565202 71.1847142,70.6056261 C72.7765222,70.1740745 68.0710872,69.9660196 69.3043829,69.2015801 C67.8480273,69.6280928 66.7721667,68.6936333 66.0554652,67.7551103 C64.4213081,67.3755725 62.5325716,66.5360382 61.7166246,65.0809537 C61.3836509,64.5357846 62.1966886,65.1586492 61.4292327,64.2658008 C60.4451825,63.3856306 59.9538039,62.3853414 59.293029,61.3151585 C58.5034288,60.8920592 58.4104871,59.6453548 58.3311231,61.2738726 C58.3375885,60.245951 57.377784,59.5540057 57.143086,59.8410565 C57.1388834,58.8513324 58.1706169,59.3477387 57.4485813,58.6154827 C57.2934091,57.589674 56.7816641,56.5206291 56.6282699,55.3620229 C56.3896927,54.804013 56.594326,53.6083471 55.8124845,54.8719559 C55.5280022,56.2080589 55.7184114,53.2309222 56.1612986,54.2120315 C56.7425478,53.210767 55.9518162,53.3286106 55.9201352,53.4669347 C56.2986907,52.6220364 56.1601672,51.4229571 55.8208896,51.8800278 C56.0227752,50.9839285 56.1401241,48.5830065 55.5197586,49.0091941 C55.8958895,48.071809 56.2332274,44.7213111 54.5989087,45.9992238 C53.9373256,46.0086513 52.7906678,46.2406001 52.2495048,46.5115592 C53.9479937,47.453333 52.0781688,46.851599 51.3858746,46.7017344 C51.296004,47.5732898 50.6111451,47.1970028 49.7549503,47.2054551 C51.1227284,47.375475 49.089003,48.6114516 48.30603,48.1312997 C47.2870659,48.6202289 49.1843692,49.8425519 48.326073,50.2207894 C48.4319457,50.7895272 46.765946,50.0148475 46.8960644,51.3306326 C45.9076498,50.9115969 46.7607736,52.8908825 47.2553849,52.221368 C48.9370635,52.6794141 48.4392194,53.7221271 48.4814069,54.7136391 C48.2075926,55.2906666 47.1284994,53.3564055 48.2413749,53.445804 C47.3630356,52.0116876 47.2702556,52.926967 46.5407847,53.5933931 C46.3717117,53.6413432 48.4010729,54.5413436 47.1275295,54.985736 C48.2478404,55.1601446 48.2806528,56.1464552 48.5090469,56.7704576 C49.1822679,57.475894 49.0435828,55.9910642 49.8503165,56.8395384 C49.3395414,56.0837137 47.1485424,54.7102257 48.9128179,55.1507171 C48.9031196,54.3906663 48.5934218,53.7772291 49.1345848,53.7920206 C49.6705754,52.8174131 48.5733787,56.1963559 49.780489,54.9571285 C50.1142709,54.8105147 50.1979992,53.9813831 50.7983216,55.0357992 C51.6701953,55.8989023 51.1133534,56.5235549 49.8829673,55.7329459 C50.1027946,56.484382 51.5286007,56.7520903 51.2601205,57.9267882 C51.5442795,58.9599112 51.9419083,58.5792355 52.2884594,58.5197449 C52.5600108,59.5231225 52.7146981,58.7855025 52.7273058,58.3071387 C53.9712695,58.5753346 53.6795135,59.314905 54.0693836,59.8314664 C54.9265483,60.2202692 52.8423919,57.1943696 54.3137798,58.921551 C55.8619456,60.3277101 54.8950289,60.9143276 53.505268,60.6892056 C54.3845771,60.6176867 54.6676048,61.8850341 55.7681958,61.8403349 C56.7711577,62.3206492 57.4508442,64.1637238 55.7216442,63.396196 C55.1222916,62.8520022 52.9986955,62.1813499 54.7333912,63.2156108 C56.3336044,63.9616829 57.606178,64.4070506 59.1503029,65.3436231 C60.2549349,66.1365076 60.7324127,67.0449601 61.1510543,67.2248952 C60.2221224,67.6710756 58.3524592,66.8687636 59.7410887,66.6233237 C58.8743873,66.4648444 57.9000353,66.0238653 58.72956,67.1090021 C59.4355934,67.7021213 61.2292869,67.6392172 61.5517541,67.7061849 C61.2790714,68.3100319 60.8109686,68.3579821 61.5622606,68.404632 C60.7240075,68.8542258 61.8318723,68.9244443 61.9089734,69.1804495 L61.9088118,69.1804495 Z M60.1944824,64.3114754 C59.6840306,63.7747585 59.5519726,62.7704056 60.103642,63.6437489 C60.3869929,63.7586667 61.0096213,65.2862454 60.1944824,64.3114754 Z M56.9243902,58.8960318 C56.3166324,57.527095 57.3556396,58.147684 57.0596809,59.120341 L56.9243902,58.8960318 Z M51.3278466,55.1429151 C51.0562953,54.6934838 50.6069425,53.375423 50.7517699,52.9728041 C50.8817266,53.6285023 52.1374899,55.7935745 51.3668013,53.8698786 C50.5161022,52.2574526 52.3847956,54.3926167 52.5771444,54.7955608 C52.667015,55.1952539 52.0518219,54.6861693 52.4682006,55.6245298 C51.7083418,54.5562975 52.0199793,56.2145607 51.3278466,55.1429151 Z M48.5046827,52.7580849 C47.8608798,52.1137646 47.3947166,51.5208079 48.5352322,52.3582292 C48.9739169,52.3752962 47.5587789,51.0096103 48.6411049,51.9245646 C49.7782261,52.1331072 49.2021493,53.8007979 48.5046827,52.7580849 Z M48.8905119,51.7717742 C47.0187474,50.0953062 51.2421787,52.6473931 49.1960071,52.0819062 L48.8905119,51.7717742 Z M54.2544588,54.9049522 C53.4438457,54.4169982 54.0388341,51.4666811 54.3158811,53.4840017 C55.1033799,53.2276714 54.2722389,54.5267147 54.8589838,54.5138738 C54.7671735,55.3330903 54.5040273,55.6279432 54.2544588,54.9049522 Z M49.2571062,51.2210786 C48.0545217,49.5522502 52.7525213,52.9087622 50.0277947,51.644178 C49.7433123,51.568758 49.3999939,51.542101 49.2571062,51.2210786 Z M49.4421813,50.5843979 C50.1567816,50.4303072 52.4037072,51.8460563 50.3405636,50.9883171 C50.1113614,50.7331247 49.6219224,50.8490179 49.4421813,50.5842354 L49.4421813,50.5843979 Z M55.5797262,53.6603608 C55.6561808,52.223481 56.0070962,52.8026216 55.582959,53.8666278 L55.5797262,53.6601982 L55.5797262,53.6603608 Z M49.9738077,50.0839282 C50.2654021,49.6543272 49.1998864,48.1420275 50.1268786,49.5416849 C50.5277401,49.8615695 51.2863058,50.0774264 50.6163175,50.2123371 C51.6700336,51.1467965 50.3596369,50.4654165 49.9738077,50.0839282 Z M54.6325293,49.3142873 C54.260601,48.6561509 55.1020868,46.4125705 55.19616,47.8039382 C54.8038653,48.8880997 55.0830136,49.4940598 55.3555347,48.0399506 C55.8609758,46.8962984 55.2467526,50.2986474 54.6325293,49.3142873 Z M56.172775,65.3520753 C57.2369975,65.627423 57.2318251,65.186119 56.2697576,65.0542966 C55.7530019,64.5708939 54.1199762,64.0574206 55.5818275,64.9948059 C55.6781635,65.2415461 55.9836588,65.2350444 56.172775,65.3520753 Z M52.395302,62.828596 C52.9807537,63.2689249 54.6031113,64.0743252 53.2301607,62.996828 C53.693091,62.4555599 52.3443861,62.1676963 52.7916376,61.8053881 C51.6532233,61.1046654 51.892932,61.167407 52.6912606,61.189838 C51.3234825,60.5742878 52.8887819,60.6211001 52.8149135,60.3056043 C52.2874896,60.2012517 50.1946048,59.3700071 51.4259607,60.3735472 C50.1745617,59.7324778 51.1277392,60.6126479 50.749507,60.520161 C49.4693364,60.1693933 51.8890528,61.500295 50.5464901,61.1696826 C51.2801635,61.754187 52.5220259,62.6683286 50.8561879,61.7881586 C50.6374921,62.10593 52.0485892,62.5875448 52.3951403,62.828596 L52.395302,62.828596 Z M65.690649,70.6695054 C66.251855,70.1233611 65.7139247,71.5410608 66.6207122,70.5357326 C66.6300872,69.8159924 66.5932338,69.3911051 65.578634,70.2655862 C65.2983542,70.4219525 65.1738933,71.08399 65.690649,70.669668 L65.690649,70.6695054 Z M56.499283,64.7355499 C57.1241744,65.2937224 59.3668974,65.144833 57.2573638,64.8047931 C56.9454031,64.3402454 55.2743926,64.4519125 56.499283,64.7355499 Z M46.2150847,57.7886267 C45.3082973,56.4876329 45.6517774,55.9029659 44.7766709,54.8400976 C44.6105074,54.0270576 43.2758649,52.1839832 44.0864779,54.1364491 C44.828395,55.2791261 45.0482222,57.0475934 46.2152464,57.7886267 L46.2150847,57.7886267 Z M68.1405915,71.0383154 C69.089728,70.4230903 67.9218957,70.5175278 67.9684473,71.0945552 L68.1405915,71.0383154 Z M69.6637035,71.4541002 C70.8801888,70.5716546 68.9271205,71.2848931 69.4089624,71.6220071 L69.6637035,71.4541002 Z M49.2571062,58.3752442 C50.1480531,58.5759847 52.8199242,60.58274 51.2441183,58.5145435 C50.4367381,58.274305 50.9208429,56.2898181 50.0974605,56.6405858 C50.6502615,57.5695188 50.5516625,57.9636854 49.3911038,57.3793435 C47.9337783,56.6628542 48.5720856,57.7333621 48.8576994,58.0288651 C48.4684758,58.1181012 49.3712224,58.3679297 49.2569445,58.3750816 L49.2571062,58.3752442 Z M45.1951509,55.1495793 C45.3546873,54.4851037 43.7248944,51.4974017 44.4257555,53.6519086 C44.6782335,54.1036154 44.6520482,54.959079 45.1951509,55.1495793 L45.1951509,55.1495793 Z M73.0871898,70.6322831 C73.9697317,70.4526731 75.9811511,71.0841526 76.305558,70.3975711 C75.2339,70.3709141 72.5988824,69.6363824 72.4740981,70.5716546 L72.708796,70.6090395 L73.0873515,70.6322831 L73.0871898,70.6322831 Z M45.6013464,51.3346962 C46.4913236,50.9839285 43.9807669,50.6076416 45.419504,51.2688663 L45.6013464,51.3346962 Z M42.8223095,48.2089952 C42.6616417,47.2821753 42.683786,45.6547953 44.2217687,46.204353 C42.16897,46.6146114 45.6433722,48.7709062 45.2046875,47.0682688 C46.0681561,47.1110176 46.8938014,46.5551207 46.440246,47.3977434 C48.1419677,47.2096812 49.3206298,45.7259891 50.9640002,45.9343692 C52.2438475,45.763374 53.6433066,45.63464 55.0227228,45.1159654 C56.1567728,45.0340437 57.2484738,43.8063568 56.6273001,43.078327 C55.0809123,42.9466672 53.4614643,43.1410685 51.7524689,43.483384 C49.85856,43.8786884 48.1379268,44.6310998 46.2267227,44.9543977 C44.3632017,45.2063393 46.6009139,45.6473183 46.0670246,45.7461444 C45.0955821,46.085209 47.2266134,46.3137444 45.9412705,46.6718265 C45.1476294,46.5200114 44.3210142,46.2458015 44.6602918,45.4039915 C42.8761349,45.6377283 41.3076027,46.3816874 42.7177299,48.2076949 L42.8224712,48.2086702 L42.8223095,48.2089952 Z M47.1231653,46.0065382 C47.5406755,44.4570163 49.363787,47.2821753 47.8080242,46.2128052 C47.6229491,46.0723681 47.3163224,45.958588 47.1231653,46.0065382 Z M47.9706317,45.2679431 C48.0259118,44.5547046 49.726502,45.6452052 48.2509115,45.5241108 L47.9706317,45.2677805 L47.9706317,45.2679431 Z M49.2878173,44.6632833 C49.9261246,43.8926671 52.8992883,44.1709407 50.7229984,44.5875383 C50.1394863,44.1454214 49.6925581,44.8479321 49.2878173,44.6632833 Z M54.2702993,44.0550475 C54.6727771,42.9944548 55.8333358,43.6290225 54.457314,43.8414661 C54.4867321,43.9552462 54.4160965,44.3900486 54.2702993,44.0550475 Z M80.1656278,70.6462618 C81.1265639,70.6495126 83.0773692,70.3452323 80.9867473,70.3463668 C80.6581378,70.3975711 79.0748966,70.3870058 80.1656278,70.6462618 Z M47.0544693,49.49471 C47.8324315,49.4415584 48.2709546,48.6325821 46.9031764,48.6784193 C44.7841062,48.4584987 48.7728396,49.4087248 46.6316251,49.1366279 C46.3442333,49.3279409 47.0373357,49.5478615 47.0544693,49.49471 Z M45.9645463,43.3164524 C47.353499,42.8424771 49.2517721,42.3088486 49.907213,43.5505142 C49.2401342,42.7438136 49.6377629,41.9486534 50.267665,43.129528 C51.158612,44.3232434 51.6044087,42.586472 51.0252609,42.1856411 C51.6860358,43.010384 52.436358,43.4006496 51.4670167,42.2379799 C52.5208944,40.9634806 49.358453,42.404749 48.6398118,42.389795 C48.2942304,42.5458362 45.0693968,43.216651 45.9647079,43.3164524 L45.9645463,43.3164524 Z M46.7783921,41.7500259 C47.5702552,41.1495923 49.5170196,42.1081081 48.2677218,41.1525181 C48.1452005,41.0442644 45.5324888,41.8774596 46.7783921,41.7500259 Z M49.6650797,41.8699826 C50.5909404,41.8933888 49.265673,40.6179143 50.3690119,41.1960796 C50.1883009,40.6010098 49.0838305,40.4893428 48.543799,40.2513799 C48.2383038,40.7955737 49.1649727,41.8774596 49.6650797,41.8699826 L49.6650797,41.8699826 Z M48.4645965,39.5186363 C49.9578056,39.3200088 48.0837781,38.8725281 48.1629806,39.5028696 L48.4644349,39.5186363 L48.4645965,39.5186363 Z M46.2614748,37.7862535 C45.2096983,36.4056137 48.239112,38.0180398 47.1703635,36.5723828 C46.2710114,35.8529676 45.4075428,37.3834721 46.2614748,37.7862535 L46.2614748,37.7862535 Z M59.7533732,45.093697 C60.2357,44.2346575 57.7632898,43.9350909 59.4289663,44.7894166 C59.5821988,44.8406176 59.5476084,45.1530252 59.7533732,45.093697 Z M49.9636245,77.0855633 C49.8569436,77.5091504 49.7908338,78.2199506 49.7661033,79.2176393 C49.7661033,79.4136661 49.678334,79.511842 49.5023105,79.511842 C49.3262871,79.511842 49.2037657,79.4261819 49.1344231,79.2556743 C48.9459536,78.7943774 48.7675056,78.4727049 48.5971394,78.2890315 C48.3963854,78.0744747 48.12936,77.9447655 47.7962247,77.9005537 C47.4381972,77.8436637 46.5462804,77.8152187 45.1203126,77.8152187 C44.7938045,77.8152187 44.5799578,77.8501654 44.4797425,77.9198964 C44.4168654,77.9637829 44.3855077,78.0587081 44.3855077,78.204184 L44.3855077,82.4967808 C44.3855077,82.6420942 44.4765097,82.7113375 44.6583521,82.7053234 C45.2177802,82.6988217 46.0280699,82.6604616 47.089383,82.5915433 C47.2969258,82.5658615 47.4369041,82.4980811 47.5089945,82.3873894 C47.5817315,82.2768602 47.6523671,81.9914347 47.7210631,81.5299753 C47.7647053,81.2772211 47.9127655,81.1792076 48.1639504,81.2364227 C48.3773122,81.2806345 48.4691224,81.3786478 48.437603,81.5299753 C48.261418,82.3895024 48.2045215,83.5076354 48.2673986,84.8848619 C48.2740257,85.0487052 48.1704159,85.1374536 47.9565693,85.1501319 C47.7803842,85.1691495 47.6704705,85.0742244 47.6268284,84.8656817 C47.4638976,84.0762107 47.1601803,83.6542492 46.717778,83.6002849 C46.2748907,83.5469708 45.5535017,83.5199887 44.5550656,83.5199887 C44.4419192,83.5199887 44.3855077,83.560787 44.3855077,83.6430337 L44.3855077,87.907348 C44.3855077,88.2233316 44.5014019,88.4383759 44.7336753,88.5516683 C44.9163259,88.6464309 45.3087822,88.7319285 45.9115292,88.8076734 C46.2197722,88.8392068 46.3544164,88.9754178 46.3172398,89.2150061 C46.2792549,89.4235487 46.0031777,89.5057955 45.4875535,89.4615837 C43.9988703,89.341302 42.7704238,89.3478037 41.8033455,89.4809264 C41.5329256,89.5183112 41.3982814,89.407782 41.3982814,89.1491762 C41.3982814,88.9845202 41.5329256,88.8899202 41.8033455,88.8647261 C42.4190235,88.7949951 42.72662,88.251614 42.72662,87.2349079 L42.72662,79.1227142 C42.72662,78.7062792 42.6525899,78.3857445 42.505338,78.1612727 C42.3574395,77.9369634 42.0824938,77.732972 41.6809858,77.5499486 C41.4294775,77.4361685 41.3354044,77.2815901 41.3981198,77.0855633 C41.4294775,76.9657692 41.4799085,76.8991266 41.5486045,76.8867734 C41.6114816,76.8675933 41.7782917,76.8802716 42.0479033,76.9248084 C42.4439157,76.9878751 43.3770501,77.019571 44.8468217,77.019571 C46.5810325,77.019571 48.078929,76.9813733 49.3419659,76.9057908 C49.7627089,76.8801091 49.9734844,76.9150559 49.9734844,77.0098184 C49.9734844,77.0355002 49.9702517,77.0603692 49.9636245,77.0855633 L49.9636245,77.0855633 Z M56.0746609,89.1148796 C56.0746609,89.3676339 55.9332278,89.4781631 55.6506852,89.4464673 C54.7843071,89.3642205 53.7097397,89.3765738 52.4282761,89.4840147 C52.1704639,89.5096965 52.0122207,89.5030322 51.9520915,89.4656474 C51.8922855,89.4274497 51.8628675,89.3234223 51.8628675,89.1522646 C51.8628675,89.0010995 52.0337185,88.8733408 52.3760671,88.7686632 C52.7189007,88.6647982 52.8895901,88.3535285 52.8895901,87.8356666 L52.8895901,79.2595754 C52.8895901,78.7475651 52.8157216,78.3717658 52.6684697,78.1315273 C52.5205712,77.8914513 52.261466,77.7051772 51.8909924,77.5728671 C51.6960574,77.5029737 51.5984282,77.4051228 51.5984282,77.2786644 C51.5984282,77.0891393 51.7398611,76.9470768 52.0225654,76.8523143 C52.4499356,76.71334 52.8929844,76.4989459 53.3517123,76.207994 C53.7286513,75.9804339 53.9675519,75.8671414 54.0676056,75.8671414 C54.299879,75.8671414 54.4165814,76.0277338 54.4165814,76.3500566 C54.4165814,76.3251875 54.4039736,76.6410084 54.3784349,77.297682 C54.3601699,77.9229847 54.3537043,78.53886 54.3601699,79.1457953 L54.3973465,87.6077814 C54.3973465,87.9933333 54.4917429,88.2730697 54.6802125,88.4468281 C54.868682,88.620424 55.192604,88.7356669 55.6506852,88.7923944 C55.9332278,88.8237652 56.0746609,88.9312061 56.0746609,89.1147171 L56.0746609,89.1148796 Z M64.5976548,88.556057 C64.5976548,88.6890171 64.3574612,88.88927 63.877074,89.1574659 C63.3962018,89.4261494 63.0113425,89.5604099 62.7226576,89.5604099 C62.4772916,89.5604099 62.2608587,89.4406157 62.0723891,89.2003772 C61.8839196,88.9603013 61.7515383,88.8405072 61.6763768,88.8405072 C61.6199653,88.8405072 61.3215821,88.9700539 60.7809039,89.2286597 C60.2411957,89.4879158 59.6974465,89.617625 59.1509495,89.617625 C58.6359718,89.617625 58.2053689,89.4656474 57.8599492,89.1629923 C57.4830101,88.8278288 57.2945405,88.3730336 57.2945405,87.7979567 C57.2945405,86.7050179 58.5385042,85.9218859 61.0264316,85.4480732 C61.4531552,85.3658264 61.6703962,85.192068 61.6762152,84.9267979 L61.69545,84.3201877 C61.7332733,83.2843014 61.2777782,82.7664396 60.328965,82.7664396 C60.0587068,82.7664396 59.8028342,83.0092787 59.5605393,83.4956072 C59.3192143,83.9825859 58.9716933,84.2444426 58.519431,84.2826403 C58.0044533,84.3327034 57.7466412,84.1148959 57.7466412,83.6285674 C57.7466412,83.3250997 58.1300458,82.9718939 58.8963701,82.5671619 C59.7006792,82.1440626 60.4736307,81.9321066 61.2149012,81.9321066 C62.4898993,81.9321066 63.1212561,82.5421303 63.10881,83.761365 L63.0708251,87.6651591 C63.0650062,88.0759051 63.2377969,88.2810343 63.5891972,88.2810343 C63.6585398,88.2810343 63.7905978,88.2654302 63.985048,88.2337343 C64.1801447,88.202201 64.293291,88.1862717 64.3248104,88.1862717 C64.5066529,88.1862717 64.5976548,88.309967 64.5976548,88.556057 L64.5976548,88.556057 Z M61.69545,86.3958612 C61.7019156,86.2377069 61.6652238,86.1330292 61.5866678,86.0831285 C61.508112,86.0325776 61.3846207,86.0225 61.2149012,86.0541959 C59.7006792,86.3259676 58.9435683,86.8220488 58.9435683,87.5421141 C58.9435683,88.268681 59.3361863,88.631802 60.1214222,88.631802 C60.4356458,88.631802 60.7595678,88.5719862 61.0918949,88.4521921 C61.4819267,88.3127301 61.6763768,88.1456361 61.6763768,87.9494467 L61.69545,86.3956986 L61.69545,86.3958612 Z M71.6036791,87.4658814 C71.6036791,88.1355583 71.3469984,88.6682116 70.8354151,89.0628659 C70.3235085,89.4578453 69.6247488,89.6551724 68.738651,89.6551724 C68.1483501,89.6551724 67.5574027,89.5921058 66.9671018,89.4656474 C66.4579431,89.3518672 66.1627927,89.2478398 66.0811656,89.1530773 C66.0307346,89.0641663 66.0058424,88.6319645 66.0058424,87.8546842 C66.0058424,87.5198457 66.0811656,87.3459247 66.2321353,87.3335714 C66.3827815,87.3143914 66.5117685,87.3968006 66.6184493,87.5796615 C67.0894615,88.4074927 67.8498052,88.8214896 68.8989955,88.8214896 C69.7842852,88.8214896 70.2273341,88.5115202 70.2273341,87.8922316 C70.2273341,87.6211099 70.1271187,87.3933872 69.9257181,87.2103638 C69.7057293,87.0018213 69.2791674,86.7584944 68.6444162,86.480546 C67.7269606,86.070125 67.1143538,85.7100924 66.8067572,85.400123 C66.4736219,85.0717863 66.3072967,84.6296694 66.3072967,84.0734474 C66.3072967,83.3909296 66.5680183,82.8607145 67.0894615,82.4816644 C67.5730816,82.1149674 68.2202789,81.9321066 69.030407,81.9321066 C69.5395657,81.9321066 70.0042741,81.9727423 70.4256635,82.0551516 C70.8779258,82.1373984 71.1134319,82.238175 71.1323435,82.3584567 C71.1821279,82.7118252 71.2862226,83.2238354 71.4433345,83.8938375 C71.4622461,83.975434 71.3738303,84.0419141 71.1795417,84.092465 C70.971999,84.1366766 70.8339604,84.1017299 70.7646178,83.9884375 C70.2685517,83.1731221 69.6404276,82.7657894 68.8799223,82.7657894 C68.0193632,82.7657894 67.588922,83.0437378 67.588922,83.5996347 C67.588922,83.9094416 67.7053012,84.1555316 67.9375745,84.338555 C68.1451173,84.4965468 68.6318085,84.7432869 69.3982944,85.078288 C70.2024419,85.4256422 70.7489389,85.7383749 71.0382705,86.0161608 C71.4152095,86.3760309 71.6036791,86.8597587 71.6036791,87.4658814 Z M82.6899237,89.1243071 C82.6899237,89.3453655 82.5420252,89.4623964 82.2468747,89.4749123 C81.8070585,89.481414 81.23179,89.5129473 80.5225238,89.5696748 C80.1704769,89.6394058 79.9191303,89.5953566 79.7686456,89.4373649 C78.7758669,88.3634436 77.9337345,87.2388089 77.2425717,86.0634608 C77.1863218,85.9626842 77.1142313,85.9121333 77.0259772,85.9121333 C76.9192963,85.9121333 76.7342212,86.0068958 76.4704285,86.1965835 C76.1746314,86.3604268 76.0273795,86.5944887 76.0273795,86.8971436 C76.0273795,87.1123505 76.0331985,87.4216697 76.0462911,87.8265642 C76.0588989,88.2304835 76.1589526,88.495591 76.3474222,88.6220494 C76.4794801,88.7109604 76.7846522,88.7800412 77.2614833,88.8307545 C77.5567954,88.8687896 77.7046939,88.9793188 77.7046939,89.1623422 C77.7046939,89.3078181 77.6810948,89.3980295 77.6338966,89.4321635 C77.5870216,89.4669477 77.4625606,89.4749123 77.2614833,89.4558948 C76.6333592,89.3993298 75.5718845,89.4308631 74.0767358,89.5506573 C73.6997968,89.5821906 73.4954867,89.5347281 73.464129,89.4084322 C73.4516829,89.3645456 73.4450557,89.3011539 73.4450557,89.2189072 C73.4450557,89.0235305 73.6369196,88.8746412 74.0204859,88.7741896 C74.3659057,88.685116 74.5385347,88.2777834 74.5385347,87.551379 L74.5385347,79.2690029 C74.5385347,78.751141 74.488427,78.3911083 74.3874035,78.1890675 C74.2493649,77.9298115 73.9600334,77.727608 73.5203789,77.5822946 C73.3134826,77.5132139 73.2095496,77.4152005 73.2095496,77.2887421 C73.2095496,77.1050686 73.3574481,76.963006 73.6524369,76.8623919 C74.1273208,76.702663 74.580087,76.4828771 74.9998487,76.208319 C75.3455918,75.9812466 75.5594384,75.867304 75.6405805,75.867304 C75.8985543,75.867304 76.0273795,76.0311472 76.0273795,76.3602968 C76.0273795,76.3155974 76.0241467,76.6288177 76.0175196,77.2981696 C76.010741,77.9173255 76.0077237,78.5365174 76.0084679,79.1557104 L76.0273795,85.0875529 C76.0273795,85.2520464 76.0711833,85.333643 76.1589526,85.333643 C76.2531874,85.333643 76.3978531,85.2520464 76.5927881,85.0875529 C77.1142313,84.6768069 77.7549632,84.1399275 78.514822,83.4765897 C78.6659533,83.3187606 78.7411147,83.1923021 78.7411147,83.0975396 C78.7411147,82.9271945 78.486697,82.8065877 77.9781849,82.7376694 C77.7583576,82.7118252 77.6542629,82.5889426 77.6665474,82.3677217 C77.6856206,82.1466633 77.7956958,82.0519008 77.9964499,82.0834341 C78.4493587,82.1468259 79.1090021,82.18161 79.9753802,82.1881117 C80.5787738,82.1939633 81.1787728,82.1973767 81.7757008,82.1973767 C81.9699894,82.2038784 82.0676185,82.3204217 82.0676185,82.5481444 C82.0676185,82.7627011 81.9137394,82.879732 81.6061429,82.8989121 C81.1218763,82.9172795 80.6663814,83.0278086 80.2398195,83.2304997 C79.6428915,83.5016213 79.0049075,83.9786849 78.3263524,84.6612027 C78.276568,84.6992378 78.2510293,84.7465378 78.2510293,84.8032653 C78.2510293,84.8915261 78.3577101,85.1034822 78.5717184,85.4383206 C79.3569544,86.6387003 80.0983865,87.5448772 80.7953683,88.1579893 C81.2416499,88.5432161 81.65916,88.7358295 82.0485453,88.7358295 C82.3378768,88.7358295 82.5169713,88.7563099 82.5856673,88.7975958 C82.6551716,88.8387192 82.6899237,88.9477855 82.6899237,89.1243071 Z" id="Shape"></path>
            </g>
        </g>
    </g>
</svg>