<?xml version="1.0" encoding="UTF-8"?>
<svg width="125px" height="125px" viewBox="0 0 125 125" version="1.1" xmlns="http://www.w3.org/2000/svg" xmlns:xlink="http://www.w3.org/1999/xlink">
    <title>tech-5</title>
    <defs>
        <linearGradient x1="50%" y1="0%" x2="50%" y2="100%" id="linearGradient-1">
            <stop stop-color="#3A3C3E" offset="0%"></stop>
            <stop stop-color="#0F0F10" offset="100%"></stop>
        </linearGradient>
        <linearGradient x1="50%" y1="0%" x2="50%" y2="100%" id="linearGradient-2">
            <stop stop-color="#F6D26D" offset="0%"></stop>
            <stop stop-color="#F0A92A" offset="100%"></stop>
        </linearGradient>
    </defs>
    <g id="Page-1" stroke="none" stroke-width="1" fill="none" fill-rule="evenodd">
        <g id="tech-5" fill-rule="nonzero">
            <g id="006-copy" transform="translate(37.068966, 37.931034)">
                <path d="M8.11086096,49.5555362 C4.36738667,48.2141246 1.57537877,45.390921 0.327554,41.6942402 C-3.16681554e-13,40.727176 -3.16681554e-13,40.5400023 -3.16681554e-13,24.9577905 C-3.16681554e-13,9.37557884 -3.16681554e-13,9.18840514 0.327554,8.22134094 C1.57537877,4.49346446 4.49216914,1.57667408 8.22004562,0.32884932 C9.18710981,0.00129531982 9.37428353,0.00129531982 25.221658,0.00129531982 C43.3931061,0.00129531982 41.926912,-0.0922915374 44.5161484,1.31151132 C47.4641344,2.91808571 49.5854365,5.72569142 50.3341314,8.9700358 C50.5992942,10.1242737 50.614892,11.247316 50.614892,24.9577905 C50.614892,38.6682652 50.5992942,39.7913075 50.3341314,40.9455454 C49.5854365,44.1898897 47.4641344,46.9974954 44.5161484,48.6040698 C41.926912,50.0078727 43.3931061,49.9142858 25.1904624,49.9142858 L9.12471858,49.9142858 L8.11086096,49.5555362 Z" id="Path-Copy" fill="url(#linearGradient-1)"></path>
                <g id="layer103-copy" transform="translate(14.615147, 12.495141)" fill="#58462F">
                    <path d="M9.40547915,19.6376422 C7.39336171,19.2165013 5.66200486,17.8282963 3.27554,14.7555279 C2.4488561,13.7104745 1.38820505,12.4626498 0.904672952,12.0103134 L0,11.1524338 L0.0935868572,9.74863092 C0.327554,6.0519501 2.46445391,2.83880134 5.84917857,1.13864009 C12.6030301,-2.26168238 20.8074779,2.35526924 21.2286187,9.76422873 L21.3066078,11.214825 L20.8542714,11.5579769 C20.1679677,12.0883024 19.4816641,12.8525951 18.2806328,14.4435716 C16.0345482,17.3759598 14.6151476,18.670578 12.8525951,19.325686 C11.9167265,19.6844357 10.3413477,19.824816 9.40547915,19.6376422 Z" id="Path"></path>
                </g>
                <g id="layer104-copy" transform="translate(14.615147, 12.479543)" fill="url(#linearGradient-2)">
                    <path d="M9.14031639,19.4972619 C7.3621661,19.076121 5.67760267,17.6723182 3.22874657,14.5683541 C2.32407362,13.429714 1.24782476,12.1818893 0.795488286,11.7763462 L0,11.0588469 L0.0935868572,9.85781559 C0.327554,6.84743839 1.90293276,3.89945239 4.16461515,2.23048677 C6.2079282,0.717499238 8.29803467,0 10.6533039,0 C16.1593306,0 20.7294889,4.24260419 21.1974231,9.79542435 L21.3066078,11.0744447 L20.557913,11.7295528 C20.1367721,12.1039002 19.0137298,13.3829206 18.0622634,14.5839519 C15.5198205,17.765905 14.3187892,18.7953605 12.4782476,19.3724794 C11.5423791,19.65324 10.0449893,19.7156313 9.14031639,19.4972619 Z" id="Path"></path>
                </g>
                <g id="layer105-copy" transform="translate(10.918467, 23.388084)" fill="#F6D26D">
                    <path d="M0,6.43622341 L0,1.32014188 L0.452336477,0.883403212 C0.982661997,0.368675498 1.90293276,0.197099594 2.69842105,0.477860165 C3.54070276,0.743022927 4.67934286,1.86606522 6.39510191,4.06535635 C9.48346823,8.04279778 11.46439,9.3686116 14.3499848,9.3686116 C17.1887861,9.3686116 19.1697079,8.05839559 22.1488896,4.23693226 C24.4573653,1.27334845 25.5960054,0.32188207 26.8282324,0.32188207 C27.3741558,0.32188207 27.84209,0.524653593 28.3568177,0.992587876 C28.6999696,1.30454407 28.6999696,1.32014188 28.6999696,6.43622341 L28.6999696,11.5523049 L14.3499848,11.5523049 L0,11.5523049 L0,6.43622341 Z" id="Path"></path>
                </g>
                <g id="layer106-copy" transform="translate(11.074445, 23.756759)" fill="#FFFFFF">
                    <path d="M0,6.06754791 L0,0.935868572 L0.358749619,0.608314572 C1.57537877,-0.530325524 3.11956191,0 4.91331,2.16809552 C5.42803772,2.7920079 6.16113476,3.71227867 6.53548219,4.21140857 C9.48346823,8.09526315 12.3222695,9.62384853 15.4730271,8.9999361 C17.6567204,8.57879524 19.7468269,6.97222086 21.9929115,4.00863705 C23.5526924,1.93412838 24.1922026,1.23222695 25.0344842,0.67070581 C26.2823091,-0.187173714 27.1713842,-0.202771524 28.0448615,0.608314572 C28.3880134,0.935868572 28.3880134,0.951466385 28.3880134,6.06754791 L28.3880134,11.1836294 L14.1940067,11.1836294 L0,11.1836294 L0,6.06754791 Z" id="Path"></path>
                </g>
            </g>
        </g>
    </g>
</svg>